<svg width="24" height="25" viewBox="0 0 24 25" fill="none" xmlns="http://www.w3.org/2000/svg">
<g id="draggable 1" filter="url(#filter0_b_2347_30521)">
<path id="Vector" d="M8.5 7.5C9.32843 7.5 10 6.82843 10 6C10 5.17157 9.32843 4.5 8.5 4.5C7.67157 4.5 7 5.17157 7 6C7 6.82843 7.67157 7.5 8.5 7.5ZM8.5 14C9.32843 14 10 13.3284 10 12.5C10 11.6716 9.32843 11 8.5 11C7.67157 11 7 11.6716 7 12.5C7 13.3284 7.67157 14 8.5 14ZM10 19C10 19.8284 9.32843 20.5 8.5 20.5C7.67157 20.5 7 19.8284 7 19C7 18.1716 7.67157 17.5 8.5 17.5C9.32843 17.5 10 18.1716 10 19ZM15.5 7.5C16.3284 7.5 17 6.82843 17 6C17 5.17157 16.3284 4.5 15.5 4.5C14.6716 4.5 14 5.17157 14 6C14 6.82843 14.6716 7.5 15.5 7.5ZM17 12.5C17 13.3284 16.3284 14 15.5 14C14.6716 14 14 13.3284 14 12.5C14 11.6716 14.6716 11 15.5 11C16.3284 11 17 11.6716 17 12.5ZM15.5 20.5C16.3284 20.5 17 19.8284 17 19C17 18.1716 16.3284 17.5 15.5 17.5C14.6716 17.5 14 18.1716 14 19C14 19.8284 14.6716 20.5 15.5 20.5Z" fill="#0F1B1F"/>
</g>
<defs>
<filter id="filter0_b_2347_30521" x="-4" y="-3.5" width="32" height="32" filterUnits="userSpaceOnUse" color-interpolation-filters="sRGB">
<feFlood flood-opacity="0" result="BackgroundImageFix"/>
<feGaussianBlur in="BackgroundImageFix" stdDeviation="2"/>
<feComposite in2="SourceAlpha" operator="in" result="effect1_backgroundBlur_2347_30521"/>
<feBlend mode="normal" in="SourceGraphic" in2="effect1_backgroundBlur_2347_30521" result="shape"/>
</filter>
</defs>
</svg>
