<svg width="69" height="69" viewBox="0 0 69 69" fill="none" xmlns="http://www.w3.org/2000/svg">
<g id="lock-light">
<path id="Vector 18" fill-rule="evenodd" clip-rule="evenodd" d="M50.7248 24.6623L45.0089 21.1919V12.2455C45.0089 12.0877 44.9688 11.9256 44.8949 11.7862C39.3629 1.35301 27.9474 9.94876 25.6456 18.8277C25.6251 18.9068 25.6154 18.9877 25.6154 19.0694V27.3166L18.6746 31.399C18.6671 31.4439 18.6597 31.4883 18.6524 31.5323C18.351 33.3508 18.1753 34.4106 17.4497 35.6862C16.3515 37.5402 16.1172 38.4653 16.2193 39.8996C16.2228 39.9485 16.2232 39.9979 16.2198 40.0468L16.0207 42.929C15.8912 43.5606 15.7404 43.8907 15.618 44.1587C15.4552 44.515 15.3426 44.7613 15.3974 45.4602C15.4038 45.5417 15.4022 45.6237 15.3903 45.7046L15.0133 48.2537C15.0044 48.3133 15.0011 48.3748 15.0031 48.435C15.1147 51.6536 15.3064 52.9836 15.9333 53.7543C15.9893 53.823 16.0549 53.8765 16.13 53.9236C17.0672 54.5109 23.8253 58.7421 28.269 61.4083C28.66 62.5808 49.4403 50.6592 51.2165 49.6376C51.3059 49.5862 51.3731 49.5299 51.4402 49.4517C52.7502 47.9227 53.3803 45.3731 54.1953 41.8107C54.8317 38.411 54.8969 36.3492 54.2596 32.5879C54.219 32.3478 54.0897 32.1323 53.9014 31.978C52.5264 30.8521 51.876 30.0844 51.3993 28.7247C51.3571 28.6043 51.3416 28.4758 51.3498 28.3485C51.4582 26.6665 51.4843 25.6962 50.7248 24.6623ZM30.9231 19.196C30.9231 19.0321 30.9642 18.8688 31.0419 18.7244C33.633 13.91 35.807 11.5735 39.4497 12.6045C39.8509 12.718 40.1095 13.0984 40.1095 13.5155V18.7422L30.9231 24.6623V19.196Z" fill="#E4F4FA"/>
<path id="Vector 17" d="M18.6749 31.399L28.6779 36.9108M18.6749 31.399L25.6158 27.3166M18.6749 31.399C18.3596 33.2997 18.1933 34.3797 17.4501 35.6862C16.3669 37.5147 15.9322 41.2192 16.0121 42.7885C16.0169 42.8819 16.012 42.9756 15.9915 43.0669C15.683 44.4353 15.2791 44.2661 15.4087 45.5828C15.5201 48.8788 15.3338 52.7711 15.9419 53.7493C15.9886 53.8246 16.0553 53.8765 16.1304 53.9236C17.0676 54.5109 23.8257 58.7421 28.2694 61.4083M28.6779 36.9108L50.7252 24.6623M28.6779 36.9108C28.8458 39.4173 28.6569 40.8848 27.6572 43.648C24.4789 53.252 24.3984 57.4676 28.2694 61.4083M50.7252 24.6623L45.0093 21.1919M50.7252 24.6623C51.4847 25.6962 51.4586 26.6665 51.3502 28.3485C51.342 28.4758 51.3575 28.6043 51.3997 28.7247C51.8764 30.0844 52.5268 30.8521 53.9018 31.978C54.0901 32.1323 54.2194 32.3478 54.26 32.5879C54.8973 36.3492 54.8321 38.411 54.1957 41.8107C53.3807 45.3731 52.7506 47.9227 51.4406 49.4517C51.3735 49.5299 51.3063 49.5862 51.2169 49.6376C49.4407 50.6592 28.6604 62.5808 28.2694 61.4083M45.0093 21.1919V24.0892C45.0093 24.4442 44.8215 24.7758 44.51 24.946C42.9114 25.8193 42.2164 25.7925 40.6221 24.9443C40.3037 24.7749 40.1099 24.4393 40.1099 24.0786V18.7422M45.0093 21.1919V12.2455C45.0093 12.0877 44.9692 11.9256 44.8953 11.7862C39.3633 1.35301 27.9478 9.94876 25.646 18.8277C25.6255 18.9068 25.6158 18.9877 25.6158 19.0694V27.3166M25.6158 27.3166V31.6623C25.6158 32.0066 25.7914 32.3308 26.0919 32.4988C27.642 33.3654 28.7123 33.3642 30.4108 32.4933C30.731 32.3291 30.9235 31.9932 30.9235 31.6334V24.6623M30.9235 24.6623V19.196C30.9235 19.0321 30.9646 18.8688 31.0423 18.7244C33.6334 13.91 35.8074 11.5735 39.4501 12.6045C39.8513 12.718 40.1099 13.0984 40.1099 13.5155V18.7422M30.9235 24.6623L40.1099 18.7422M40.7221 49.5681C37.1153 51.7181 33.5395 50.0314 33.6359 44.8728C33.7177 42.0901 35.8049 38.2927 39.9055 35.8906C44.6964 33.866 46.3263 35.1677 45.8416 41.1983C45.6421 44.5859 43.725 47.275 40.7221 49.5681ZM39.8492 45.2341V45.2341C39.3549 45.9194 38.2724 45.5697 38.2724 44.7248V41.2953C38.2724 41.0989 38.3295 40.9058 38.4413 40.7442C39.2647 39.5533 39.9007 39.0882 41.2337 39.7053C41.5567 39.8548 41.7428 40.1923 41.7428 40.5482V43.8728C41.7428 44.4251 41.2951 44.8728 40.7428 44.8728H40.5554C40.2756 44.8728 40.0129 45.0073 39.8492 45.2341Z" stroke="#70B8D5" stroke-width="1.5" stroke-linecap="round"/>
</g>
</svg>
