<svg width="212" height="218" viewBox="0 0 212 218" fill="none" xmlns="http://www.w3.org/2000/svg">
<path d="M93.7332 144.705L93.7327 129.808C93.7326 128.295 95.4217 127.395 96.6781 128.238L111.952 138.495C112.88 139.119 114.145 138.805 114.673 137.818L144.506 82.1217L144.504 139.096C144.504 139.771 144.144 140.395 143.559 140.733L133.815 146.359L133.816 127.699C133.816 125.75 131.224 125.075 130.273 126.776L123.319 139.228L114.344 155.297C113.817 156.242 112.605 156.552 111.688 155.976L93.7332 144.705Z" fill="white"/>
<path d="M79.0874 107.775L79.0847 177.961L88.8209 172.339C89.406 172.001 89.7664 171.377 89.7664 170.701L89.7675 142.011L89.7682 123.567L89.7683 119.002C89.7684 117.481 91.4715 116.582 92.7266 117.44L111.95 130.581C112.878 131.215 114.151 130.905 114.683 129.915L141.484 80.0684L143.484 76.3499C143.977 75.4323 145.12 75.0866 146.039 75.5766L147.559 76.3867C148.765 77.0297 150.234 76.2201 150.334 74.857L151.944 53.0231L131.814 67.7468L135.674 70.178C136.522 70.7119 136.806 71.8143 136.322 72.6915L114.677 111.933C114.144 112.9 112.899 113.206 111.978 112.597L92.7571 99.8816L79.0874 107.775Z" fill="white"/>
<path d="M131.814 67.7468L151.944 53.0231L133.744 40.6566C133.082 40.2073 132.21 40.2224 131.564 40.6944L114.675 53.0476C113.62 53.8194 113.647 55.4035 114.729 56.1382L117.774 58.207L131.814 67.7468Z" fill="white"/>
<path fill-rule="evenodd" clip-rule="evenodd" d="M92.9301 99.6504L92.7571 99.8816L111.978 112.597C112.899 113.206 114.144 112.9 114.677 111.933L136.322 72.6915C136.806 71.8143 136.522 70.7119 135.674 70.178L131.814 67.7468L117.774 58.207L95.2256 99.0858C94.772 99.9081 93.7133 100.169 92.9301 99.6504Z" fill="#E9DDF9"/>
<path d="M79.0874 107.775L92.7571 99.8816L92.9301 99.6504L74.4294 87.4113C73.8315 87.0157 73.0613 86.9923 72.4404 87.3508L59.7839 94.6587L79.0874 107.775Z" fill="white"/>
<path d="M79.0847 177.961L79.0874 107.775L59.7839 94.6587L59.7813 163.843C59.7813 164.47 60.0914 165.055 60.6096 165.408L79.0847 177.961Z" fill="#E9DDF9"/>
<path d="M93.7332 144.705L93.7327 129.808C93.7326 128.295 95.4217 127.395 96.6781 128.238L111.952 138.495C112.88 139.119 114.145 138.805 114.673 137.818L144.506 82.1217L141.484 80.0684L114.683 129.915C114.151 130.905 112.878 131.215 111.95 130.581L92.7266 117.44C91.4715 116.582 89.7684 117.481 89.7683 119.002L89.7682 123.567L89.7675 142.011L93.7332 144.705Z" fill="#E9DDF9"/>
<path d="M133.815 146.359L133.816 127.699C133.816 125.75 131.224 125.075 130.273 126.776L123.319 139.228L133.815 146.359Z" fill="#E9DDF9"/>
<path d="M93.7332 144.705L93.7327 129.808C93.7326 128.295 95.4217 127.395 96.6781 128.238L111.952 138.495C112.88 139.119 114.145 138.805 114.673 137.818L144.506 82.1217M93.7332 144.705L111.688 155.976C112.605 156.552 113.817 156.242 114.344 155.297L123.319 139.228M93.7332 144.705L89.7675 142.011M133.815 146.359L133.816 127.699C133.816 125.75 131.224 125.075 130.273 126.776L123.319 139.228M133.815 146.359L143.559 140.733C144.144 140.395 144.504 139.771 144.504 139.096L144.506 82.1217M133.815 146.359L123.319 139.228M144.506 82.1217L141.484 80.0684M79.0847 177.961L79.0874 107.775M79.0847 177.961L88.8209 172.339C89.4059 172.001 89.7664 171.377 89.7664 170.701L89.7675 142.011M79.0847 177.961L60.6096 165.408C60.0914 165.055 59.7813 164.47 59.7813 163.843L59.7839 94.6587M79.0874 107.775L92.7571 99.8816M79.0874 107.775L59.7839 94.6587M92.7571 99.8816L111.978 112.597C112.899 113.206 114.144 112.9 114.677 111.933L136.322 72.6915C136.806 71.8143 136.522 70.7119 135.674 70.178L131.814 67.7468M92.7571 99.8816L92.9301 99.6504M131.814 67.7468L151.944 53.0231M131.814 67.7468L117.774 58.207M151.944 53.0231L150.334 74.857C150.234 76.2201 148.765 77.0297 147.559 76.3867L146.039 75.5766C145.12 75.0866 143.977 75.4323 143.484 76.3499L141.484 80.0684M151.944 53.0231L133.744 40.6566C133.082 40.2073 132.21 40.2224 131.564 40.6944L114.675 53.0476C113.62 53.8194 113.647 55.4035 114.729 56.1382L117.774 58.207M59.7839 94.6587L72.4404 87.3508C73.0613 86.9923 73.8315 87.0157 74.4294 87.4113L92.9301 99.6504M117.774 58.207L95.2256 99.0858C94.772 99.9081 93.7133 100.169 92.9301 99.6504V99.6504M89.7675 142.011L89.7682 123.567L89.7683 119.002C89.7684 117.481 91.4715 116.582 92.7266 117.44L111.95 130.581C112.878 131.215 114.151 130.905 114.683 129.915L141.484 80.0684" stroke="#0F1B1F" stroke-width="1.75"/>
</svg>
