<svg width="219" height="219" viewBox="0 0 219 219" fill="none" xmlns="http://www.w3.org/2000/svg">
<path d="M63.0536 160.344C16.8206 178.328 12.8468 56.7217 58.209 39.0758C103.571 21.43 87.1291 87.3983 156.331 88.3528C225.532 89.3073 187.201 169.285 141.838 186.931C96.4763 204.577 109.287 142.359 63.0536 160.344Z" fill="#BE9AEC"/>
<path d="M100.733 144.705L100.733 129.808C100.733 128.295 102.422 127.395 103.678 128.238L118.952 138.495C119.88 139.119 121.145 138.805 121.673 137.818L151.506 82.1217L151.504 139.096C151.504 139.771 151.144 140.395 150.559 140.733L140.815 146.359L140.816 127.699C140.816 125.75 138.224 125.075 137.273 126.776L130.319 139.228L121.344 155.297C120.817 156.242 119.605 156.552 118.688 155.976L100.733 144.705Z" fill="white"/>
<path d="M86.0874 107.775L86.0847 177.961L95.8209 172.339C96.406 172.001 96.7664 171.377 96.7664 170.701L96.7675 142.011L96.7682 123.567L96.7683 119.002C96.7684 117.481 98.4715 116.582 99.7266 117.44L118.95 130.581C119.878 131.215 121.151 130.905 121.683 129.915L148.484 80.0684L150.484 76.3499C150.977 75.4323 152.12 75.0866 153.039 75.5766L154.559 76.3867C155.765 77.0297 157.234 76.2201 157.334 74.857L158.944 53.0231L138.814 67.7468L142.674 70.178C143.522 70.7119 143.806 71.8143 143.322 72.6915L121.677 111.933C121.144 112.9 119.899 113.206 118.978 112.597L99.7571 99.8816L86.0874 107.775Z" fill="white"/>
<path d="M138.814 67.7468L158.944 53.0231L140.744 40.6566C140.082 40.2073 139.21 40.2224 138.564 40.6944L121.675 53.0476C120.62 53.8194 120.647 55.4035 121.729 56.1382L124.774 58.207L138.814 67.7468Z" fill="white"/>
<path fill-rule="evenodd" clip-rule="evenodd" d="M99.9301 99.6504L99.7571 99.8816L118.978 112.597C119.899 113.206 121.144 112.9 121.677 111.933L143.322 72.6915C143.806 71.8143 143.522 70.7119 142.674 70.178L138.814 67.7468L124.774 58.207L102.226 99.0858C101.772 99.9081 100.713 100.169 99.9301 99.6504Z" fill="#E9DDF9"/>
<path d="M86.0874 107.775L99.7571 99.8816L99.9301 99.6504L81.4294 87.4113C80.8315 87.0157 80.0613 86.9923 79.4404 87.3508L66.7839 94.6587L86.0874 107.775Z" fill="white"/>
<path d="M86.0847 177.961L86.0874 107.775L66.7839 94.6587L66.7813 163.843C66.7813 164.47 67.0914 165.055 67.6096 165.408L86.0847 177.961Z" fill="#E9DDF9"/>
<path d="M100.733 144.705L100.733 129.808C100.733 128.295 102.422 127.395 103.678 128.238L118.952 138.495C119.88 139.119 121.145 138.805 121.673 137.818L151.506 82.1217L148.484 80.0684L121.683 129.915C121.151 130.905 119.878 131.215 118.95 130.581L99.7266 117.44C98.4715 116.582 96.7684 117.481 96.7683 119.002L96.7682 123.567L96.7675 142.011L100.733 144.705Z" fill="#E9DDF9"/>
<path d="M140.815 146.359L140.816 127.699C140.816 125.75 138.224 125.075 137.273 126.776L130.319 139.228L140.815 146.359Z" fill="#E9DDF9"/>
<path d="M100.733 144.705L100.733 129.808C100.733 128.295 102.422 127.395 103.678 128.238L118.952 138.495C119.88 139.119 121.145 138.805 121.673 137.818L151.506 82.1217M100.733 144.705L118.688 155.976C119.605 156.552 120.817 156.242 121.344 155.297L130.319 139.228M100.733 144.705L96.7675 142.011M140.815 146.359L140.816 127.699C140.816 125.75 138.224 125.075 137.273 126.776L130.319 139.228M140.815 146.359L150.559 140.733C151.144 140.395 151.504 139.771 151.504 139.096L151.506 82.1217M140.815 146.359L130.319 139.228M151.506 82.1217L148.484 80.0684M86.0847 177.961L86.0874 107.775M86.0847 177.961L95.8209 172.339C96.4059 172.001 96.7664 171.377 96.7664 170.701L96.7675 142.011M86.0847 177.961L67.6096 165.408C67.0914 165.055 66.7813 164.47 66.7813 163.843L66.7839 94.6587M86.0874 107.775L99.7571 99.8816M86.0874 107.775L66.7839 94.6587M99.7571 99.8816L118.978 112.597C119.899 113.206 121.144 112.9 121.677 111.933L143.322 72.6915C143.806 71.8143 143.522 70.7119 142.674 70.178L138.814 67.7468M99.7571 99.8816L99.9301 99.6504M138.814 67.7468L158.944 53.0231M138.814 67.7468L124.774 58.207M158.944 53.0231L157.334 74.857C157.234 76.2201 155.765 77.0297 154.559 76.3867L153.039 75.5766C152.12 75.0866 150.977 75.4323 150.484 76.3499L148.484 80.0684M158.944 53.0231L140.744 40.6566C140.082 40.2073 139.21 40.2224 138.564 40.6944L121.675 53.0476C120.62 53.8194 120.647 55.4035 121.729 56.1382L124.774 58.207M66.7839 94.6587L79.4404 87.3508C80.0613 86.9923 80.8315 87.0157 81.4294 87.4113L99.9301 99.6504M124.774 58.207L102.226 99.0858C101.772 99.9081 100.713 100.169 99.9301 99.6504V99.6504M96.7675 142.011L96.7682 123.567L96.7683 119.002C96.7684 117.481 98.4715 116.582 99.7266 117.44L118.95 130.581C119.878 131.215 121.151 130.905 121.683 129.915L148.484 80.0684" stroke="#0F1B1F" stroke-width="1.75"/>
</svg>
