<svg width="187" height="209" viewBox="0 0 187 209" fill="none" xmlns="http://www.w3.org/2000/svg">
<g filter="url(#filter0_d_5274_38107)">
<path d="M128.817 144.292L128.818 122.522C128.818 121.145 127.36 121.313 126.536 122.785L117.558 138.83L129.346 145.817C129.014 145.498 128.817 144.978 128.817 144.292Z" fill="#E9DDF9"/>
<path d="M122.751 30.9475L105.41 43.2095L129.861 57.6997L147.201 45.4376C147.621 45.1407 148.008 45.0931 148.28 45.2459L123.872 30.7819L123.811 30.7458C123.541 30.6052 123.161 30.6572 122.751 30.9475Z" fill="white"/>
<path d="M68.2547 107.776L68.252 179.196C68.252 179.883 68.4488 180.403 68.7809 180.721C69.2638 181.184 70.0326 181.221 70.8987 180.721L77.4255 176.96C78.8873 176.117 80.0723 174.069 80.0724 172.384L80.0735 141.933L80.0742 124.94C80.0742 124.488 80.1263 123.269 80.2223 122.817C80.3816 122.067 80.662 122.09 81.026 121.398C81.0525 121.348 81.0795 121.298 81.107 121.248C82.3173 119.047 84.3657 117.382 86.0056 117.53C86.3496 117.561 86.6757 117.672 86.9723 117.874L94.0311 122.69L104.367 129.742L104.574 129.883C105.629 130.603 107.448 129.546 108.493 127.605L116.196 113.305L134.367 79.5744L140.504 68.1829L144.195 69.9736C144.985 70.3567 146.267 69.0803 146.404 67.7737L148.662 46.3059C148.717 45.7909 148.57 45.4261 148.305 45.2607L148.287 45.25L148.28 45.2459C148.008 45.0931 147.621 45.1407 147.201 45.4376L129.861 57.6997C129.489 57.9625 129.186 58.348 128.981 58.7602C128.614 59.4993 128.559 60.3242 128.981 60.6818L132.275 63.4712L126.212 74.741L116.197 93.356L108.476 107.707C108.075 108.454 107.558 109.071 107.014 109.506C106.152 110.195 105.221 110.428 104.572 109.999L104.368 109.864L102.061 108.341L94.1495 103.117L90.6675 100.818L84.1668 96.5255C83.7307 96.2376 83.1425 96.2403 82.5128 96.5255C82.4195 96.5677 82.3254 96.6161 82.2307 96.6707L70.9016 103.2C70.2488 103.576 69.6512 104.193 69.1897 104.91C68.7106 105.655 68.3781 106.508 68.2828 107.314C68.2643 107.47 68.2548 107.624 68.2547 107.776Z" fill="white"/>
<path d="M85.7154 145.672L104.281 157.874C105.32 158.557 107.082 157.551 108.132 155.675L117.558 138.83L126.536 122.785C127.36 121.313 128.818 121.145 128.818 122.522L128.817 144.292C128.817 144.978 129.014 145.498 129.346 145.817C129.829 146.28 130.598 146.316 131.464 145.817L137.999 142.05C139.461 141.208 140.646 139.159 140.646 137.474L140.648 84.3977C140.648 83.194 140.094 82.5833 139.334 82.5177C138.324 82.4306 136.949 83.3061 136.026 85.0321L116.196 122.1L113.153 127.788L112.599 128.825C111.558 130.77 110.258 132.422 108.869 133.681C108.626 133.902 108.38 134.11 108.132 134.306C105.534 136.36 102.739 137.03 100.804 135.699L90.6567 128.72L86.7281 126.018C86.3487 125.757 85.4419 125.071 85.0615 125.617C85.0021 125.903 85.0021 127.388 85.0021 127.784L85.0025 138.825L85.0027 144C85.0027 144.358 85.0571 144.678 85.1609 144.948C85.2816 145.262 85.4691 145.51 85.7154 145.672Z" fill="white"/>
<path d="M108.493 127.605C107.448 129.546 105.629 130.603 104.574 129.883L104.367 129.742L94.0311 122.69L86.9723 117.874C86.6757 117.672 86.3496 117.561 86.0056 117.53C84.3657 117.382 82.3173 119.047 81.107 121.248C81.0795 121.298 81.0525 121.348 81.026 121.398C80.662 122.09 80.3816 122.067 80.2223 122.817L85.0615 125.617C85.4419 125.071 86.3487 125.757 86.7281 126.018L90.6567 128.72L100.804 135.699C102.739 137.03 105.534 136.36 108.132 134.306C108.38 134.11 108.626 133.902 108.869 133.681C110.258 132.422 111.558 130.77 112.599 128.825L113.153 127.788L116.196 122.1L136.026 85.0321C136.949 83.3061 138.324 82.4306 139.334 82.5177L134.367 79.5744L116.196 113.305L108.493 127.605Z" fill="#E9DDF9"/>
<path d="M85.0021 127.784C85.0021 127.388 85.0021 125.903 85.0615 125.617L80.2223 122.817C80.1263 123.269 80.0742 124.488 80.0742 124.94L80.0735 141.933L82.0116 143.082L85.1609 144.948C85.0571 144.678 85.0027 144.358 85.0027 144L85.0025 138.825L85.0021 127.784Z" fill="#E9DDF9"/>
<path d="M43.8047 93.2854C43.8043 103.927 43.804 111.021 43.8037 119.951C43.8036 122.789 43.8035 125.813 43.8033 129.195L43.803 137.807L43.8027 145.817L43.802 164.706C43.802 165.556 44.1035 166.151 44.5899 166.424L68.7809 180.721C68.4488 180.403 68.252 179.883 68.252 179.196L68.2547 107.776C68.2548 107.624 68.2643 107.47 68.2828 107.314C68.3781 106.508 68.7106 105.655 69.1897 104.91L44.5899 90.6645C44.1051 91.4968 43.8047 92.4372 43.8047 93.2854Z" fill="#E9DDF9"/>
<path fill-rule="evenodd" clip-rule="evenodd" d="M46.4516 88.7096L57.7806 82.1805C58.5149 81.7574 59.2161 81.7048 59.7167 82.0353L80.1216 95.5086C80.4408 95.7193 80.8278 95.7704 81.2411 95.6861L82.5128 96.5255C82.4195 96.5677 82.3254 96.6161 82.2307 96.6707L70.9016 103.2C70.2488 103.576 69.6512 104.193 69.1897 104.91L44.5899 90.6645C45.0681 89.8436 45.7257 89.1279 46.4516 88.7096Z" fill="white"/>
<path d="M107.825 48.981L84.0264 93.2173C83.6814 93.8584 83.2519 94.4035 82.7931 94.8201C82.2865 95.2801 81.7443 95.5834 81.2411 95.6861L82.5128 96.5255C83.1425 96.2403 83.7307 96.2376 84.1668 96.5255L90.6675 100.818L94.1495 103.117L102.061 108.341L104.368 109.864L104.572 109.999C105.221 110.428 106.152 110.195 107.014 109.506C107.558 109.071 108.075 108.454 108.476 107.707L116.197 93.356L126.212 74.741L132.275 63.4712L107.825 48.981Z" fill="#E9DDF9"/>
<path d="M104.531 46.1916L107.825 48.981L132.275 63.4712L128.981 60.6818C128.559 60.3242 128.614 59.4993 128.981 58.7602C129.186 58.348 129.489 57.9625 129.861 57.6997L105.41 43.2095C105.039 43.4723 104.736 43.8578 104.531 44.27C104.163 45.0091 104.109 45.8341 104.531 46.1916Z" fill="white"/>
</g>
<path d="M128.817 144.292L128.818 122.522C128.818 121.145 127.36 121.313 126.536 122.785L117.558 138.83L129.346 145.817C129.014 145.498 128.817 144.978 128.817 144.292Z" fill="#E9DDF9"/>
<path d="M85.7154 145.672L104.281 157.874C105.32 158.557 107.082 157.551 108.132 155.675L117.558 138.83L126.536 122.785C127.36 121.313 128.818 121.145 128.818 122.522L128.817 144.292C128.817 144.978 129.014 145.498 129.346 145.817C129.829 146.28 130.598 146.316 131.464 145.817L137.999 142.05C139.461 141.208 140.646 139.159 140.646 137.474L140.648 84.3977C140.648 83.194 140.094 82.5833 139.334 82.5177C138.324 82.4306 136.949 83.3061 136.026 85.0321L116.196 122.1L113.153 127.788L112.599 128.825C111.558 130.77 110.258 132.422 108.869 133.681C108.626 133.902 108.38 134.11 108.132 134.306C105.534 136.36 102.739 137.03 100.804 135.699L90.6567 128.72L86.7281 126.018C86.4584 125.833 85.9221 125.432 85.4979 125.412C85.3254 125.404 85.1715 125.459 85.0615 125.617C85.0021 125.903 85.0021 127.388 85.0021 127.784L85.0025 138.825L85.0027 144C85.0027 144.358 85.0571 144.678 85.1609 144.948C85.2816 145.262 85.4691 145.51 85.7154 145.672Z" fill="white"/>
<path fill-rule="evenodd" clip-rule="evenodd" d="M46.4516 88.7096L57.7806 82.1805C58.5149 81.7574 59.2161 81.7048 59.7167 82.0353L80.1216 95.5086C80.4408 95.7193 80.8278 95.7704 81.2411 95.6861L82.5128 96.5255C82.4195 96.5677 82.3254 96.6161 82.2307 96.6707L70.9016 103.2C70.2488 103.576 69.6512 104.193 69.1897 104.91L44.5899 90.6645C45.0681 89.8436 45.7257 89.1279 46.4516 88.7096Z" fill="white"/>
<path d="M102.086 108.295L102.061 108.341M104.367 129.801V129.742M104.531 46.1916L108.249 48.527L84.0264 93.2173C83.6814 93.8584 83.2519 94.4035 82.7931 94.8201C82.2865 95.2801 81.7443 95.5834 81.2411 95.6861M104.531 46.1916C104.109 45.8341 104.163 45.0091 104.531 44.27C104.736 43.8578 105.039 43.4723 105.41 43.2095L122.751 30.9475C123.161 30.6572 123.541 30.6052 123.811 30.7458M104.531 46.1916L128.981 61.5514M128.981 61.5514L132.275 63.4712L126.212 74.741L116.197 93.356L108.476 107.707C108.075 108.454 107.558 109.071 107.014 109.506C106.152 110.195 105.221 110.428 104.572 109.999L104.368 109.864L102.061 108.341M128.981 61.5514C128.559 61.1939 128.614 59.4993 128.981 58.7602C129.186 58.348 129.489 57.9625 129.861 57.6997L147.201 45.4376C147.621 45.1407 148.008 45.0931 148.28 45.2459M68.7809 180.721C68.4488 180.403 68.252 179.883 68.252 179.196L68.2547 107.776C68.2547 107.624 68.2643 107.47 68.2828 107.314C68.3781 106.508 68.7106 105.655 69.1897 104.91M68.7809 180.721C69.2638 181.184 70.0326 181.221 70.8987 180.721L77.4255 176.96C78.8873 176.117 80.0723 174.069 80.0724 172.384L80.0735 141.933M68.7809 180.721L44.5899 166.424C44.1035 166.151 43.802 165.556 43.802 164.706L43.8037 119.951C43.804 111.021 43.8043 103.927 43.8047 93.2854C43.8047 92.4372 44.1051 91.4968 44.5899 90.6645M69.1897 104.91C69.6512 104.193 70.2488 103.576 70.9016 103.2L82.2307 96.6707C82.3254 96.6161 82.4195 96.5677 82.5128 96.5255M69.1897 104.91L44.5899 90.6645M44.5899 90.6645C45.0681 89.8436 45.7257 89.1279 46.4516 88.7096L57.7806 82.1805C58.5149 81.7574 59.2161 81.7048 59.7167 82.0353L80.1216 95.5086C80.4408 95.7193 80.8278 95.7704 81.2411 95.6861M85.1609 144.948C85.0571 144.678 85.0027 144.358 85.0027 144L85.0025 138.825L85.0021 127.784C85.0021 127.388 85.0021 125.903 85.0615 125.617C85.1715 125.459 85.3254 125.404 85.4979 125.412C85.9221 125.432 86.4584 125.833 86.7281 126.018L90.6567 128.72L100.804 135.699C102.739 137.03 105.534 136.36 108.132 134.306C108.38 134.11 108.626 133.902 108.869 133.681C110.258 132.422 111.558 130.77 112.599 128.825L113.153 127.788L116.196 122.1L136.026 85.0321C136.949 83.3061 138.324 82.4306 139.334 82.5177M85.1609 144.948C85.2816 145.262 85.4691 145.51 85.7154 145.672L104.281 157.874C105.32 158.557 107.082 157.551 108.132 155.675L117.558 138.83M85.1609 144.948L82.0116 143.081L80.0735 141.933M80.0735 141.933L80.0742 124.94C80.0742 124.488 80.1263 123.269 80.2223 122.817C80.6545 119.741 84.3657 117.382 86.0056 117.53C86.3496 117.561 86.6757 117.672 86.9723 117.874L94.0311 122.69L104.367 129.742M148.305 45.2607C148.57 45.4261 148.717 45.7909 148.662 46.3059L146.404 67.7737C146.267 69.0803 145.041 70.7576 144.251 70.3745L140.504 68.1829L134.367 79.5744M148.305 45.2607L148.287 45.25M148.305 45.2607C148.299 45.257 148.293 45.2535 148.287 45.25M123.811 30.7458L123.872 30.7819M123.811 30.7458C123.832 30.7567 123.853 30.7687 123.872 30.7819M139.334 82.5177C140.094 82.5833 140.648 83.194 140.648 84.3977L140.646 137.474C140.646 139.159 139.461 141.208 137.999 142.05L131.464 145.817C130.598 146.316 129.829 146.28 129.346 145.817M139.334 82.5177L134.367 79.5744M129.346 145.817C129.014 145.498 128.817 144.978 128.817 144.292L128.818 122.522C128.818 121.145 127.36 121.313 126.536 122.785L117.558 138.83M129.346 145.817L117.558 138.83M134.367 79.5744L116.196 113.305L108.493 127.605C107.448 129.546 105.629 130.603 104.574 129.883L104.367 129.742M148.287 45.25C148.285 45.2486 148.282 45.2473 148.28 45.2459M148.287 45.25L148.28 45.2459M148.28 45.2459L123.872 30.7819M102.061 108.341L94.1495 103.117L90.6675 100.818L84.1668 96.5255C83.7307 96.2376 83.1425 96.2403 82.5128 96.5255M82.5128 96.5255L81.2411 95.6861" stroke="#18282E" stroke-width="2.07011" stroke-linecap="round"/>
<defs>
<filter id="filter0_d_5274_38107" x="23.1009" y="12.7299" width="146.274" height="191.814" filterUnits="userSpaceOnUse" color-interpolation-filters="sRGB">
<feFlood flood-opacity="0" result="BackgroundImageFix"/>
<feColorMatrix in="SourceAlpha" type="matrix" values="0 0 0 0 0 0 0 0 0 0 0 0 0 0 0 0 0 0 127 0" result="hardAlpha"/>
<feOffset dy="2.76015"/>
<feGaussianBlur stdDeviation="10.3506"/>
<feComposite in2="hardAlpha" operator="out"/>
<feColorMatrix type="matrix" values="0 0 0 0 0 0 0 0 0 0 0 0 0 0 0 0 0 0 0.25 0"/>
<feBlend mode="normal" in2="BackgroundImageFix" result="effect1_dropShadow_5274_38107"/>
<feBlend mode="normal" in="SourceGraphic" in2="effect1_dropShadow_5274_38107" result="shape"/>
</filter>
</defs>
</svg>
