<svg width="164" height="164" viewBox="0 0 164 164" fill="none" xmlns="http://www.w3.org/2000/svg">
<circle cx="82" cy="82" r="74" fill="white" stroke="white" stroke-width="16"/>
<circle cx="82" cy="82" r="62" stroke="#70B8D5" stroke-width="8"/>
<path d="M72.9052 58.339C72.508 58.074 72.0463 57.9217 71.5694 57.8983C71.0925 57.8749 70.6181 57.9812 70.1969 58.2061C69.7756 58.4309 69.4232 58.7658 69.1772 59.1751C68.9313 59.5844 68.8009 60.0527 68.8 60.5302V103.47C68.8009 103.947 68.9313 104.416 69.1772 104.825C69.4232 105.234 69.7756 105.569 70.1969 105.794C70.6181 106.019 71.0925 106.125 71.5694 106.102C72.0463 106.078 72.508 105.926 72.9052 105.661L105.107 84.1978C105.469 83.9568 105.766 83.6301 105.971 83.2467C106.176 82.8632 106.284 82.435 106.284 82C106.284 81.565 106.176 81.1368 105.971 80.7533C105.766 80.3699 105.469 80.0432 105.107 79.8022L72.8986 58.339H72.9052Z" fill="#70B8D5"/>
</svg>
