<svg width="112" height="112" viewBox="0 0 112 112" fill="none" xmlns="http://www.w3.org/2000/svg">
<circle cx="56" cy="56" r="50.4545" fill="#0F1B1F" stroke="#0F1B1F" stroke-width="10.9091"/>
<circle cx="56" cy="56" r="42.2727" stroke="#4CD282" stroke-width="5.45455"/>
<path d="M49.799 39.8675C49.5282 39.6868 49.2134 39.583 48.8882 39.567C48.563 39.551 48.2396 39.6236 47.9524 39.7769C47.6652 39.9302 47.4249 40.1585 47.2572 40.4376C47.0895 40.7166 47.0006 41.0359 47 41.3615V70.6385C47.0006 70.9641 47.0895 71.2834 47.2572 71.5624C47.4249 71.8415 47.6652 72.0698 47.9524 72.2231C48.2396 72.3764 48.563 72.449 48.8882 72.433C49.2134 72.417 49.5282 72.3132 49.799 72.1325L71.7545 57.4985C72.0014 57.3342 72.2039 57.1114 72.3439 56.85C72.484 56.5886 72.5573 56.2966 72.5573 56C72.5573 55.7034 72.484 55.4114 72.3439 55.15C72.2039 54.8886 72.0014 54.6658 71.7545 54.5015L49.7945 39.8675H49.799Z" fill="#3FAF6C"/>
<rect x="38.5" y="41.4166" width="37.9167" height="29.1667" fill="#4CD282"/>
<path d="M56.0007 85.1668C39.8923 85.1668 26.834 72.1083 26.834 56.0001C26.834 39.8918 39.8923 26.8334 56.0007 26.8334C72.1088 26.8334 85.1673 39.8918 85.1673 56.0001C85.1673 72.1083 72.1088 85.1668 56.0007 85.1668ZM53.0916 67.6668L73.7156 47.0428L69.5909 42.918L53.0916 59.4173L44.8421 51.1675L40.7173 55.2925L53.0916 67.6668Z" fill="#0F1B1F"/>
</svg>
