<svg width="73" height="73" viewBox="0 0 73 73" fill="none" xmlns="http://www.w3.org/2000/svg">
<g id="stairs" clip-path="url(#clip0_2473_21976)">
<g id="Vector 15">
<path d="M54.0851 26.3196L43.549 20.4871L34.8943 25.7916L20.2191 34.7861L30.1907 40.8067L54.0851 26.3196Z" fill="white"/>
<path d="M35.3906 6.28047C35.083 6.10662 34.7065 6.10798 34.4002 6.28405L11 19.7345L20.2191 24.8144L34.8943 16.0566L43.549 10.8918L35.3906 6.28047Z" fill="white"/>
<path d="M62.7397 41.7474L54.0851 36.4794L45.8067 41.4334L30.1907 50.7784L39.4098 55.8582L54.6495 46.6407L62.7397 41.7474Z" fill="white"/>
<path d="M11 19.7345V48.5144C11 48.8681 11.1868 49.1954 11.4913 49.3753L23.4175 56.4227L26.0515 57.9278L27.835 58.9897L30.9433 60.5619L37.9095 64.5868C38.5762 64.972 39.4098 64.4909 39.4098 63.7209V55.8582L30.1907 50.7784V40.8067L20.2191 34.7861V24.8144L11 19.7345Z" fill="white"/>
<path d="M43.549 20.4871V10.8918L34.8943 16.0566V25.7916L43.549 20.4871Z" fill="white"/>
<path d="M61.2372 50.4695C61.9039 50.857 62.7397 50.376 62.7397 49.6049V41.7474L54.6495 46.6407L61.2372 50.4695Z" fill="white"/>
<path fill-rule="evenodd" clip-rule="evenodd" d="M54.0851 26.3196V36.4794L45.8067 41.4334L38.415 37.5981C37.7224 37.2388 37.6899 36.26 38.3571 35.8554L54.0851 26.3196Z" fill="white"/>
<path d="M11 19.7345V48.5144C11 48.8681 11.1868 49.1954 11.4913 49.3753L23.4175 56.4227L26.0515 57.9278L27.835 58.9898L30.9433 60.5619L37.9095 64.5868C38.5762 64.972 39.4098 64.4909 39.4098 63.7209V55.8582M11 19.7345L34.4002 6.28405C34.7065 6.10798 35.083 6.10662 35.3906 6.28047L43.549 10.8918M11 19.7345L20.2191 24.8144M43.549 10.8918V20.4871M43.549 10.8918L34.8943 16.0566M43.549 20.4871L54.0851 26.3196M43.549 20.4871L34.8943 25.7916M54.0851 26.3196V36.4794M54.0851 26.3196L30.1907 40.8067M54.0851 26.3196L38.3571 35.8554C37.6899 36.26 37.7224 37.2388 38.415 37.5981L45.8067 41.4334M54.0851 36.4794L62.7397 41.7474M54.0851 36.4794L45.8067 41.4334M62.7397 41.7474V49.6049C62.7397 50.376 61.9039 50.857 61.2372 50.4695L54.6495 46.6407M62.7397 41.7474L54.6495 46.6407M39.4098 55.8582L30.1907 50.7784M39.4098 55.8582L54.6495 46.6407M30.1907 50.7784V40.8067M30.1907 50.7784L45.8067 41.4334M30.1907 40.8067L20.2191 34.7861M20.2191 34.7861V24.8144M20.2191 34.7861L34.8943 25.7916M20.2191 24.8144L34.8943 16.0566M34.8943 25.7916V16.0566" stroke="#0F1B1F" stroke-width="1.5" stroke-linecap="round"/>
</g>
<g id="Vector 14" filter="url(#filter0_d_2473_21976)">
<path d="M54.0851 26.3206L43.549 20.4881L34.8943 25.7925L20.2191 34.7871L30.1907 40.8077L54.0851 26.3206Z" fill="#BCE4F3"/>
<path d="M35.3906 6.28145C35.083 6.1076 34.7065 6.10896 34.4002 6.28503L11 19.7355L20.2191 24.8154L34.8943 16.0576L43.549 10.8927L35.3906 6.28145Z" fill="#BCE4F3"/>
<path d="M62.7397 41.7484L54.0851 36.4804L45.8067 41.4343L30.1907 50.7793L39.4098 55.8592L54.6495 46.6417L62.7397 41.7484Z" fill="#BCE4F3"/>
<path d="M11 19.7355V48.5154C11 48.8691 11.1868 49.1964 11.4913 49.3763L23.4175 56.4237M11 19.7355L34.4002 6.28503C34.7065 6.10896 35.083 6.1076 35.3906 6.28145L43.549 10.8927M11 19.7355L20.2191 24.8154M43.549 10.8927V20.4881M43.549 10.8927L34.8943 16.0576M43.549 20.4881L54.0851 26.3206M43.549 20.4881L34.8943 25.7925M54.0851 26.3206V36.4804M54.0851 26.3206L30.1907 40.8077M54.0851 36.4804L62.7397 41.7484M54.0851 36.4804L45.8067 41.4343M62.7397 41.7484V49.6059C62.7397 50.377 61.9039 50.858 61.2372 50.4705L54.6495 46.6417M62.7397 41.7484L54.6495 46.6417M39.4098 55.8592L30.1907 50.7793M39.4098 55.8592L54.6495 46.6417M39.4098 55.8592V63.7219C39.4098 64.4918 38.5762 64.9729 37.9095 64.5878L30.9433 60.5628M30.1907 50.7793V40.8077M30.1907 50.7793L45.8067 41.4343M30.1907 40.8077L20.2191 34.7871M20.2191 34.7871V24.8154M20.2191 34.7871L34.8943 25.7925M20.2191 24.8154L34.8943 16.0576M34.8943 25.7925V16.0576M45.8067 41.4343L37.1521 37.0448M27.835 58.9907L26.0515 57.9288" stroke="#0F1B1F" stroke-width="1.5" stroke-linecap="round"/>
</g>
</g>
<defs>
<filter id="filter0_d_2473_21976" x="-1.75" y="-2.59766" width="77.2393" height="84.0723" filterUnits="userSpaceOnUse" color-interpolation-filters="sRGB">
<feFlood flood-opacity="0" result="BackgroundImageFix"/>
<feColorMatrix in="SourceAlpha" type="matrix" values="0 0 0 0 0 0 0 0 0 0 0 0 0 0 0 0 0 0 127 0" result="hardAlpha"/>
<feOffset dy="4"/>
<feGaussianBlur stdDeviation="6"/>
<feComposite in2="hardAlpha" operator="out"/>
<feColorMatrix type="matrix" values="0 0 0 0 0 0 0 0 0 0 0 0 0 0 0 0 0 0 0.25 0"/>
<feBlend mode="normal" in2="BackgroundImageFix" result="effect1_dropShadow_2473_21976"/>
<feBlend mode="normal" in="SourceGraphic" in2="effect1_dropShadow_2473_21976" result="shape"/>
</filter>
<clipPath id="clip0_2473_21976">
<rect width="73" height="73" fill="white"/>
</clipPath>
</defs>
</svg>
