<svg width="161" height="241" viewBox="0 0 161 241" fill="none" xmlns="http://www.w3.org/2000/svg">
<g filter="url(#filter0_d_2620_19246)">
<path d="M122.738 199.672L87.2751 220.487L52.1973 199.672V193.89L87.2751 214.32L122.738 193.89V199.672Z" fill="#FEFACC"/>
<path d="M87.2751 214.32L122.738 193.89L96.9118 178.471V193.504C93.0571 198.901 82.264 198.901 78.0238 193.504V178.471L52.1973 193.89L87.2751 214.32Z" fill="white"/>
<path d="M78.0238 193.504C82.264 198.901 93.0571 198.901 96.9118 193.504V178.471V172.689C96.9118 171.918 95.7554 170.376 94.1807 169.483L94.2136 173.46C91.5153 176.929 83.8058 177.314 80.7221 173.46V169.605C79.1155 170.33 78.0238 171.532 78.0238 172.689V178.471V193.504Z" fill="#FEFACC"/>
<path d="M80.7221 173.46C83.8058 177.314 91.5153 176.929 94.2136 173.46L94.1807 169.483L93.8311 127.18C93.7865 127.083 93.7439 126.986 93.703 126.888L80.7221 134.142V169.605V173.46Z" fill="white"/>
<path d="M62.2195 144.935L80.7221 134.142L93.703 126.888C93.2808 125.876 93.0571 124.82 93.0571 123.734V120.65C93.0571 118.675 93.7971 116.799 95.1267 115.108L94.0851 114.483L91.5153 116.025V112.941L94.0851 114.483L95.1267 115.108C98.812 110.421 107.027 107.159 116.571 107.159C119.855 107.159 122.983 107.545 125.822 108.243V49.3382L62.2195 85.9579V144.935Z" fill="white"/>
<path d="M57.5939 142.237L62.2195 144.935V85.9579L57.5939 83.2596V142.237Z" fill="#FEFACC"/>
<path d="M57.5939 83.2596L62.2195 85.9579L125.822 49.3382L120.811 47.0254L57.5939 83.2596Z" fill="#FEFACC"/>
<path fill-rule="evenodd" clip-rule="evenodd" d="M140.085 123.734V120.65C140.085 115.084 134.209 110.305 125.822 108.243C122.983 107.545 119.855 107.159 116.571 107.159C107.027 107.159 98.812 110.421 95.1267 115.108C93.7971 116.799 93.0571 118.675 93.0571 120.65V123.734C93.0571 124.82 93.2808 125.876 93.703 126.888C93.7439 126.986 93.7865 127.083 93.8311 127.18C94.3572 128.326 95.1396 129.413 96.1409 130.418C99.007 133.296 103.667 135.51 109.247 136.558C111.319 136.948 113.518 137.176 115.8 137.218C116.056 137.223 116.313 137.225 116.571 137.225C116.829 137.225 117.086 137.223 117.342 137.218C119.908 137.171 122.371 136.888 124.666 136.405C131.049 135.062 136.136 132.176 138.553 128.534C138.667 128.349 138.783 128.162 138.9 127.974C139.668 126.641 140.085 125.215 140.085 123.734ZM95.37 121.421C95.37 120.763 95.4945 120.118 95.7328 119.494C96.6953 116.97 99.5132 114.767 103.465 113.24C105.914 112.293 108.798 111.606 111.945 111.262C112.702 111.179 113.473 111.116 114.258 111.075C115.018 111.034 115.789 111.013 116.571 111.013C117.752 111.013 118.911 111.061 120.04 111.152C120.169 111.163 120.297 111.174 120.426 111.185C120.815 111.22 121.2 111.261 121.582 111.306C124.914 111.702 127.939 112.485 130.448 113.553C134.376 115.224 137.04 117.592 137.642 120.265C137.728 120.644 137.772 121.03 137.772 121.421C137.772 122.638 137.347 123.805 136.565 124.89C135.215 126.766 132.8 128.395 129.677 129.603C128.488 130.062 127.197 130.461 125.822 130.788C124.366 131.136 122.816 131.404 121.196 131.58C119.708 131.743 118.16 131.829 116.571 131.829C115.254 131.829 113.966 131.77 112.716 131.657C111.196 131.52 109.733 131.304 108.345 131.017C106.885 130.715 105.508 130.334 104.236 129.887C101.252 128.837 98.8459 127.417 97.2973 125.763C97.0312 125.479 96.7904 125.188 96.5763 124.89C95.7951 123.805 95.37 122.638 95.37 121.421Z" fill="#FEFACC"/>
<path fill-rule="evenodd" clip-rule="evenodd" d="M121.062 112.386C121.238 112.032 121.411 111.673 121.582 111.306C121.2 111.261 120.815 111.22 120.426 111.185C120.297 111.174 120.169 111.163 120.04 111.152C118.911 111.061 117.752 111.013 116.571 111.013C115.789 111.013 115.018 111.034 114.258 111.075C113.473 111.116 112.702 111.179 111.945 111.262C108.798 111.606 105.914 112.293 103.465 113.24C99.5132 114.767 96.6953 116.97 95.7328 119.494C95.4945 120.118 95.37 120.763 95.37 121.421C95.37 122.638 95.7951 123.805 96.5763 124.89C96.7904 125.188 97.0312 125.479 97.2973 125.763C101.709 123.019 104.88 120.854 107.389 118.758C109.673 116.849 111.409 114.996 113.032 112.814C114.492 114.874 115.841 116.667 117.189 118.299C118.858 116.312 120.027 114.453 121.062 112.386ZM116.975 128.333C115.693 129.381 114.286 130.477 112.716 131.657C113.966 131.77 115.254 131.829 116.571 131.829C118.16 131.829 119.708 131.743 121.196 131.58C119.653 130.435 118.258 129.367 116.975 128.333Z" fill="white"/>
<path d="M122.738 193.89V199.672L87.2751 220.487L52.1973 199.672V193.89M122.738 193.89L87.2751 214.32L52.1973 193.89M122.738 193.89L96.9118 178.471M52.1973 193.89L78.0238 178.471M93.8281 126.818L93.703 126.888M80.7221 134.142V169.605M80.7221 134.142L62.2195 144.935M80.7221 134.142L93.703 126.888M94.1807 169.483L94.2136 173.46C91.5153 176.929 83.8058 177.314 80.7221 173.46V169.605M94.1807 169.483C95.7554 170.376 96.9118 171.918 96.9118 172.689V178.471M94.1807 169.483L93.8311 127.18M80.7221 169.605C79.1155 170.33 78.0238 171.532 78.0238 172.689V178.471M62.2195 144.935L57.5939 142.237V83.2596M62.2195 144.935V85.9579M57.5939 83.2596L62.2195 85.9579M57.5939 83.2596L120.811 47.0254L125.822 49.3382M62.2195 85.9579L125.822 49.3382M125.822 49.3382V108.243M89.9734 109.086V114.868L91.5153 116.025M89.9734 109.086L97.2973 104.846L104.236 108.701M89.9734 109.086L96.5264 112.941M91.5153 116.025V112.941L94.0851 114.483M91.5153 116.025L94.0851 114.483M95.37 115.254L95.1267 115.108M93.8311 127.18C94.3572 128.326 95.1396 129.413 96.1409 130.418M93.8311 127.18C93.7865 127.083 93.7439 126.986 93.703 126.888M125.822 108.243C122.983 107.545 119.855 107.159 116.571 107.159C107.027 107.159 98.812 110.421 95.1267 115.108M125.822 108.243C134.209 110.305 140.085 115.084 140.085 120.65V123.734C140.085 125.215 139.668 126.641 138.9 127.974M96.9118 178.471V193.504C93.0571 198.901 82.264 198.901 78.0238 193.504V178.471M96.1409 130.418C97.3055 132.431 98.3231 134.27 99.2247 136.015M96.1409 130.418C99.007 133.296 103.667 135.51 109.247 136.558M138.9 127.974C138.783 128.162 138.667 128.349 138.553 128.534M138.9 127.974C138.791 128.163 138.675 128.349 138.553 128.534M134.688 135.293C133.436 137.703 132.417 139.959 131.532 142.237M134.688 135.293C135.777 133.196 137.043 130.982 138.553 128.534M134.688 135.293C132.998 137.324 131.447 139.18 129.939 140.884M99.2247 136.015C100.416 138.321 101.404 140.462 102.262 142.622M99.2247 136.015C100.893 137.942 102.443 139.659 103.903 141.197M128.356 152.259C128.03 153.482 127.703 154.762 127.364 156.114C123.4 154.879 120.082 153.669 116.792 151.825M128.356 152.259C128.752 150.773 129.145 149.37 129.553 148.019C130.161 146.01 130.801 144.116 131.532 142.237M128.356 152.259C125.798 151.094 123.631 149.967 121.673 148.729M109.247 136.558C111.319 136.948 113.518 137.176 115.8 137.218C116.056 137.223 116.313 137.225 116.571 137.225C116.829 137.225 117.086 137.223 117.342 137.218C119.908 137.171 122.371 136.888 124.666 136.405M109.247 136.558C112.04 140.19 114.407 142.896 116.876 145.107M109.247 136.558L103.903 141.197M105.279 152.259C104.911 150.765 104.533 149.363 104.13 148.019C103.568 146.142 102.958 144.376 102.262 142.622M105.279 152.259C105.578 153.476 105.87 154.754 106.163 156.114C110.405 154.815 113.841 153.412 116.792 151.825M105.279 152.259C107.896 151.005 110.088 149.828 111.992 148.647M124.666 136.405C131.049 135.062 136.136 132.176 138.553 128.534M124.666 136.405C121.975 139.974 119.703 142.689 116.876 145.107M124.666 136.405L129.939 140.884M131.532 142.237L129.939 140.884M102.262 142.622L103.903 141.197M94.0851 114.483L95.1267 115.108M137.772 121.421V119.879M137.772 121.421C137.772 121.03 137.728 120.644 137.642 120.265C137.04 117.592 134.376 115.224 130.448 113.553M137.772 121.421C137.772 122.638 137.347 123.805 136.565 124.89M95.37 121.421V119.879M95.37 121.421C95.37 120.763 95.4945 120.118 95.7328 119.494C96.6953 116.97 99.5132 114.767 103.465 113.24M95.37 121.421C95.37 122.638 95.7951 123.805 96.5763 124.89C96.7904 125.188 97.0312 125.479 97.2973 125.763M97.2973 125.763C98.8459 127.417 101.252 128.837 104.236 129.887M97.2973 125.763C101.709 123.019 104.88 120.855 107.389 118.758M114.258 111.075C115.018 111.034 115.789 111.013 116.571 111.013C117.752 111.013 118.911 111.061 120.04 111.152M114.258 111.075C113.473 111.116 112.702 111.179 111.945 111.262M114.258 111.075C113.852 111.68 113.446 112.258 113.032 112.814M121.582 111.306C124.914 111.702 127.939 112.485 130.448 113.553M121.582 111.306C121.2 111.261 120.815 111.22 120.426 111.185C120.297 111.174 120.169 111.163 120.04 111.152M121.582 111.306C121.411 111.673 121.238 112.032 121.062 112.386M104.236 129.887C105.508 130.334 106.885 130.715 108.345 131.017C109.733 131.304 111.196 131.52 112.716 131.657M104.236 129.887C107.281 127.521 109.745 125.509 111.773 123.718M130.448 113.553C129.178 115.368 127.999 116.979 126.816 118.472M112.716 131.657C113.966 131.77 115.254 131.829 116.571 131.829C118.16 131.829 119.708 131.743 121.196 131.58M112.716 131.657C114.286 130.477 115.693 129.381 116.975 128.333M136.565 124.89C135.215 126.766 132.8 128.395 129.677 129.603M136.565 124.89C132.435 122.785 129.521 120.882 126.816 118.472M120.04 111.152C120.388 111.577 120.728 111.988 121.062 112.386M111.945 111.262C108.798 111.606 105.914 112.293 103.465 113.24M111.945 111.262C112.315 111.796 112.677 112.313 113.032 112.814M129.677 129.603C128.488 130.062 127.197 130.461 125.822 130.788C124.366 131.136 122.816 131.404 121.196 131.58M129.677 129.603C126.721 127.492 124.339 125.602 122.22 123.641M103.465 113.24C104.833 115.319 106.11 117.123 107.389 118.758M121.196 131.58C119.653 130.435 118.258 129.367 116.975 128.333M93.703 126.888C93.2808 125.876 93.0571 124.82 93.0571 123.734V120.65C93.0571 118.675 93.7971 116.799 95.1267 115.108M116.876 145.107C115.436 146.339 113.851 147.495 111.992 148.647M116.876 145.107C118.396 146.467 119.953 147.641 121.673 148.729M103.903 141.197C106.9 144.352 109.517 146.751 111.992 148.647M111.992 148.647C113.631 149.902 115.208 150.937 116.792 151.825M116.792 151.825C118.572 150.866 120.176 149.84 121.673 148.729M121.673 148.729C124.669 146.504 127.236 143.937 129.939 140.884M122.22 123.641C123.881 121.987 125.352 120.319 126.816 118.472M122.22 123.641C120.682 125.173 118.982 126.693 116.975 128.333M122.22 123.641C120.416 121.972 118.802 120.251 117.189 118.299M126.816 118.472C124.912 116.777 123.111 114.83 121.062 112.386M116.975 128.333C115.027 126.765 113.336 125.276 111.773 123.718M121.062 112.386C120.027 114.453 118.858 116.312 117.189 118.299M117.189 118.299C115.8 119.953 114.064 121.695 111.773 123.718M117.189 118.299C115.841 116.667 114.492 114.874 113.032 112.814M111.773 123.718C110.228 122.179 108.808 120.574 107.389 118.758M107.389 118.758C109.673 116.849 111.409 114.996 113.032 112.814" stroke="#333015" stroke-width="4"/>
</g>
<defs>
<filter id="filter0_d_2620_19246" x="0.197266" y="0.277344" width="191.888" height="278.032" filterUnits="userSpaceOnUse" color-interpolation-filters="sRGB">
<feFlood flood-opacity="0" result="BackgroundImageFix"/>
<feColorMatrix in="SourceAlpha" type="matrix" values="0 0 0 0 0 0 0 0 0 0 0 0 0 0 0 0 0 0 127 0" result="hardAlpha"/>
<feOffset dy="5.5"/>
<feGaussianBlur stdDeviation="25"/>
<feComposite in2="hardAlpha" operator="out"/>
<feColorMatrix type="matrix" values="0 0 0 0 0 0 0 0 0 0 0 0 0 0 0 0 0 0 0.25 0"/>
<feBlend mode="normal" in2="BackgroundImageFix" result="effect1_dropShadow_2620_19246"/>
<feBlend mode="normal" in="SourceGraphic" in2="effect1_dropShadow_2620_19246" result="shape"/>
</filter>
</defs>
</svg>
