<svg width="92" height="93" viewBox="0 0 92 93" fill="none" xmlns="http://www.w3.org/2000/svg">
<g filter="url(#filter0_d_2620_19262)">
<path d="M55.2594 68.8L42.9927 76L30.8594 68.8V66.8L42.9927 73.8667L55.2594 66.8V68.8Z" fill="#FEFACC"/>
<path d="M42.9927 73.8667L55.2594 66.8L46.326 61.4667V66.6667C44.9927 68.5333 41.2594 68.5333 39.7927 66.6667V61.4667L30.8594 66.8L42.9927 73.8667Z" fill="white"/>
<path d="M39.7927 66.6667C41.2594 68.5333 44.9927 68.5333 46.326 66.6667V61.4667V59.4667C46.326 59.2 45.926 58.6667 45.3813 58.3579L45.3927 59.7333C44.4594 60.9333 41.7927 61.0667 40.726 59.7333V58.4C40.1703 58.6509 39.7927 59.0667 39.7927 59.4667V61.4667V66.6667Z" fill="#FEFACC"/>
<path d="M40.726 59.7333C41.7927 61.0667 44.4594 60.9333 45.3927 59.7333L45.3813 58.3579L45.2604 43.7253C45.245 43.6917 45.2302 43.658 45.2161 43.6242L40.726 46.1333V58.4V59.7333Z" fill="white"/>
<path d="M34.326 49.8667L40.726 46.1333L45.2161 43.6242C45.0701 43.2742 44.9927 42.909 44.9927 42.5333V41.4667C44.9927 40.7834 45.2487 40.1344 45.7086 39.5495L45.3483 39.3333L44.4594 39.8667V38.8L45.3483 39.3333L45.7086 39.5495C46.9833 37.9283 49.825 36.8 53.126 36.8C54.2622 36.8 55.3439 36.9337 56.326 37.1751V16.8L34.326 29.4667V49.8667Z" fill="white"/>
<path d="M32.726 48.9333L34.326 49.8667V29.4667L32.726 28.5333V48.9333Z" fill="#FEFACC"/>
<path d="M32.726 28.5333L34.326 29.4667L56.326 16.8L54.5927 16L32.726 28.5333Z" fill="#FEFACC"/>
<path fill-rule="evenodd" clip-rule="evenodd" d="M61.2594 42.5333V41.4667C61.2594 39.5412 59.227 37.8881 56.326 37.1751C55.3439 36.9337 54.2622 36.8 53.126 36.8C49.825 36.8 46.9833 37.9283 45.7086 39.5495C45.2487 40.1344 44.9927 40.7834 44.9927 41.4667V42.5333C44.9927 42.909 45.0701 43.2742 45.2161 43.6242C45.2302 43.658 45.245 43.6917 45.2604 43.7253C45.4424 44.1217 45.713 44.4975 46.0594 44.8453C47.0508 45.8407 48.6627 46.6065 50.5927 46.9692C51.3095 47.1039 52.0702 47.183 52.8593 47.1975C52.9479 47.1992 53.0368 47.2 53.126 47.2C53.2153 47.2 53.3042 47.1992 53.3927 47.1975C54.2804 47.1811 55.1322 47.0831 55.926 46.9161C58.1342 46.4515 59.8936 45.4533 60.7295 44.1937C60.7691 44.1296 60.8091 44.065 60.8496 44C61.1155 43.5388 61.2594 43.0457 61.2594 42.5333ZM45.7927 41.7333C45.7927 41.5056 45.8358 41.2827 45.9182 41.0667C46.2512 40.1937 47.2259 39.4318 48.5927 38.9034C49.4397 38.576 50.4373 38.3382 51.526 38.2193C51.7877 38.1907 52.0547 38.169 52.326 38.1545C52.5888 38.1405 52.8557 38.1333 53.126 38.1333C53.5347 38.1333 53.9356 38.1497 54.326 38.1813C54.3706 38.1849 54.4151 38.1887 54.4594 38.1927C54.594 38.2048 54.7274 38.2188 54.8594 38.2345C56.012 38.3716 57.0582 38.6424 57.926 39.0116C59.2848 39.5896 60.2064 40.4087 60.4146 41.3333C60.4442 41.4647 60.4594 41.5981 60.4594 41.7333C60.4594 42.1541 60.3123 42.558 60.0421 42.9333C59.5749 43.5822 58.7396 44.1456 57.6594 44.5633C57.2482 44.7222 56.8015 44.8601 56.326 44.9734C55.8222 45.0936 55.2862 45.1862 54.726 45.2474C54.211 45.3037 53.6756 45.3333 53.126 45.3333C52.6707 45.3333 52.2251 45.313 51.7927 45.274C51.267 45.2266 50.7609 45.1516 50.2809 45.0524C49.7757 44.9479 49.2994 44.8164 48.8594 44.6616C47.8273 44.2986 46.995 43.8073 46.4594 43.2352C46.3673 43.1369 46.284 43.0362 46.21 42.9333C45.9398 42.558 45.7927 42.1541 45.7927 41.7333Z" fill="#FEFACC"/>
<path fill-rule="evenodd" clip-rule="evenodd" d="M54.6794 38.608C54.7406 38.4858 54.8003 38.3615 54.8594 38.2345C54.7274 38.2188 54.594 38.2048 54.4594 38.1927C54.4151 38.1887 54.3706 38.1849 54.326 38.1813C53.9356 38.1497 53.5347 38.1333 53.126 38.1333C52.8557 38.1333 52.5888 38.1405 52.326 38.1545C52.0547 38.169 51.7877 38.1907 51.526 38.2193C50.4373 38.3382 49.4397 38.576 48.5927 38.9034C47.2259 39.4318 46.2512 40.1937 45.9182 41.0667C45.8358 41.2827 45.7927 41.5056 45.7927 41.7333C45.7927 42.1541 45.9398 42.558 46.21 42.9333C46.284 43.0362 46.3673 43.1369 46.4594 43.2352C47.9853 42.286 49.0821 41.5373 49.9499 40.8122C50.7402 40.1518 51.3406 39.511 51.902 38.7561C52.4071 39.4687 52.8735 40.089 53.3399 40.6533C53.9171 39.9662 54.3217 39.323 54.6794 38.608ZM53.2658 44.1242C52.8224 44.4866 52.3357 44.8659 51.7927 45.274C52.2251 45.313 52.6707 45.3333 53.126 45.3333C53.6756 45.3333 54.211 45.3037 54.726 45.2474C54.1923 44.8513 53.7098 44.4818 53.2658 44.1242Z" fill="white"/>
<path d="M55.2594 66.8V68.8L42.9927 76L30.8594 68.8V66.8M55.2594 66.8L42.9927 73.8667L30.8594 66.8M55.2594 66.8L46.326 61.4667M30.8594 66.8L39.7927 61.4667M45.2594 43.6L45.2161 43.6242M40.726 46.1333V58.4M40.726 46.1333L34.326 49.8667M40.726 46.1333L45.2161 43.6242M45.3813 58.3579L45.3927 59.7333C44.4594 60.9333 41.7927 61.0667 40.726 59.7333V58.4M45.3813 58.3579C45.926 58.6667 46.326 59.2 46.326 59.4667V61.4667M45.3813 58.3579L45.2604 43.7253M40.726 58.4C40.1703 58.6509 39.7927 59.0667 39.7927 59.4667V61.4667M34.326 49.8667L32.726 48.9333V28.5333M34.326 49.8667V29.4667M32.726 28.5333L34.326 29.4667M32.726 28.5333L54.5927 16L56.326 16.8M34.326 29.4667L56.326 16.8M56.326 16.8V37.1751M43.926 37.4667V39.4667L44.4594 39.8667M43.926 37.4667L46.4594 36L48.8594 37.3333M43.926 37.4667L46.1927 38.8M44.4594 39.8667V38.8L45.3483 39.3333M44.4594 39.8667L45.3483 39.3333M45.7927 39.6L45.7086 39.5495M45.2604 43.7253C45.4424 44.1217 45.713 44.4975 46.0594 44.8453M45.2604 43.7253C45.245 43.6917 45.2302 43.658 45.2161 43.6242M56.326 37.1751C55.3439 36.9337 54.2622 36.8 53.126 36.8C49.825 36.8 46.9833 37.9283 45.7086 39.5495M56.326 37.1751C59.227 37.8881 61.2594 39.5412 61.2594 41.4667V42.5333C61.2594 43.0457 61.1155 43.5388 60.8496 44M46.326 61.4667V66.6667C44.9927 68.5333 41.2594 68.5333 39.7927 66.6667V61.4667M46.0594 44.8453C46.4622 45.5415 46.8142 46.1778 47.126 46.7815M46.0594 44.8453C47.0508 45.8407 48.6627 46.6065 50.5927 46.9692M60.8496 44C60.8091 44.065 60.7691 44.1296 60.7295 44.1937M60.8496 44C60.812 44.0652 60.7719 44.1298 60.7295 44.1937M59.3927 46.5315C58.9596 47.3653 58.6074 48.1455 58.301 48.9333M59.3927 46.5315C59.7694 45.8062 60.2073 45.0404 60.7295 44.1937M59.3927 46.5315C58.808 47.2342 58.2718 47.8759 57.75 48.4653M47.126 46.7815C47.538 47.5789 47.8799 48.3196 48.1765 49.0667M47.126 46.7815C47.7029 47.4478 48.2392 48.0418 48.7444 48.5737M57.2025 52.4C57.0898 52.8232 56.9765 53.2657 56.8594 53.7333C55.4883 53.3063 54.3405 52.8879 53.2024 52.2498M57.2025 52.4C57.3393 51.8862 57.4754 51.4008 57.6167 50.9333C57.8267 50.2385 58.0483 49.5833 58.301 48.9333M57.2025 52.4C56.3176 51.9972 55.568 51.6073 54.8908 51.1789M50.5927 46.9692C51.3095 47.1039 52.0702 47.183 52.8593 47.1975C52.9479 47.1992 53.0368 47.2 53.126 47.2C53.2153 47.2 53.3042 47.1992 53.3927 47.1975C54.2804 47.1811 55.1322 47.0831 55.926 46.9161M50.5927 46.9692C51.5588 48.2256 52.3776 49.1613 53.2317 49.9261M50.5927 46.9692L48.7444 48.5737M49.2201 52.4C49.0929 51.8832 48.9622 51.3985 48.8228 50.9333C48.6284 50.2843 48.4174 49.6734 48.1765 49.0667M49.2201 52.4C49.3236 52.8209 49.4247 53.2631 49.526 53.7333C50.9933 53.2842 52.182 52.799 53.2024 52.2498M49.2201 52.4C50.1255 51.9664 50.8836 51.559 51.5424 51.1506M55.926 46.9161C58.1342 46.4515 59.8936 45.4533 60.7295 44.1937M55.926 46.9161C54.9953 48.1506 54.2096 49.0897 53.2317 49.9261M55.926 46.9161L57.75 48.4653M58.301 48.9333L57.75 48.4653M48.1765 49.0667L48.7444 48.5737M45.3483 39.3333L45.7086 39.5495M60.4594 41.7333V41.2M60.4594 41.7333C60.4594 41.5981 60.4442 41.4647 60.4146 41.3333C60.2064 40.4087 59.2848 39.5896 57.926 39.0116M60.4594 41.7333C60.4594 42.1541 60.3123 42.558 60.0421 42.9333M45.7927 41.7333V41.2M45.7927 41.7333C45.7927 41.5056 45.8358 41.2827 45.9182 41.0667C46.2512 40.1937 47.2259 39.4318 48.5927 38.9034M45.7927 41.7333C45.7927 42.1541 45.9398 42.558 46.21 42.9333C46.284 43.0362 46.3673 43.1369 46.4594 43.2352M46.4594 43.2352C46.995 43.8073 47.8273 44.2986 48.8594 44.6616M46.4594 43.2352C47.9853 42.286 49.0821 41.5373 49.9499 40.8122M52.326 38.1545C52.5888 38.1405 52.8557 38.1333 53.126 38.1333C53.5347 38.1333 53.9356 38.1497 54.326 38.1813M52.326 38.1545C52.0547 38.169 51.7877 38.1907 51.526 38.2193M52.326 38.1545C52.1855 38.3639 52.045 38.5637 51.902 38.7561M54.8594 38.2345C56.012 38.3716 57.0582 38.6424 57.926 39.0116M54.8594 38.2345C54.7274 38.2188 54.594 38.2048 54.4594 38.1927C54.4151 38.1887 54.3706 38.1849 54.326 38.1813M54.8594 38.2345C54.8003 38.3615 54.7406 38.4858 54.6794 38.608M48.8594 44.6616C49.2994 44.8164 49.7757 44.9479 50.2809 45.0524C50.7609 45.1516 51.267 45.2266 51.7927 45.274M48.8594 44.6616C49.9127 43.8432 50.7649 43.1474 51.4665 42.5279M57.926 39.0116C57.4868 39.6396 57.0792 40.1967 56.6698 40.7134M51.7927 45.274C52.2251 45.313 52.6707 45.3333 53.126 45.3333C53.6756 45.3333 54.211 45.3037 54.726 45.2474M51.7927 45.274C52.3357 44.8659 52.8224 44.4866 53.2658 44.1242M60.0421 42.9333C59.5749 43.5822 58.7396 44.1456 57.6594 44.5633M60.0421 42.9333C58.6133 42.2051 57.6056 41.5468 56.6698 40.7134M54.326 38.1813C54.4465 38.3283 54.5641 38.4705 54.6794 38.608M51.526 38.2193C50.4373 38.3382 49.4397 38.576 48.5927 38.9034M51.526 38.2193C51.654 38.404 51.7791 38.5828 51.902 38.7561M57.6594 44.5633C57.2482 44.7222 56.8015 44.8601 56.326 44.9734C55.8222 45.0936 55.2862 45.1862 54.726 45.2474M57.6594 44.5633C56.637 43.8331 55.813 43.1794 55.0801 42.5013M48.5927 38.9034C49.0658 39.6225 49.5078 40.2467 49.9499 40.8122M54.726 45.2474C54.1923 44.8513 53.7098 44.4818 53.2658 44.1242M45.2161 43.6242C45.0701 43.2742 44.9927 42.909 44.9927 42.5333V41.4667C44.9927 40.7834 45.2487 40.1344 45.7086 39.5495M53.2317 49.9261C52.7334 50.3524 52.1851 50.752 51.5424 51.1506M53.2317 49.9261C53.7572 50.3967 54.2961 50.8027 54.8908 51.1789M48.7444 48.5737C49.7808 49.665 50.6861 50.4948 51.5424 51.1506M51.5424 51.1506C52.1093 51.5848 52.6548 51.9427 53.2024 52.2498M53.2024 52.2498C53.8184 51.9182 54.3731 51.5634 54.8908 51.1789M54.8908 51.1789C55.9271 50.4094 56.8152 49.5214 57.75 48.4653M55.0801 42.5013C55.6546 41.929 56.1635 41.3522 56.6698 40.7134M55.0801 42.5013C54.5482 43.031 53.9601 43.5568 53.2658 44.1242M55.0801 42.5013C54.456 41.9238 53.898 41.3286 53.3399 40.6533M56.6698 40.7134C56.0112 40.1268 55.3883 39.4535 54.6794 38.608M53.2658 44.1242C52.5921 43.5817 52.0072 43.0666 51.4665 42.5279M54.6794 38.608C54.3217 39.323 53.9171 39.9662 53.3399 40.6533M53.3399 40.6533C52.8594 41.2254 52.2591 41.828 51.4665 42.5279M53.3399 40.6533C52.8735 40.089 52.4071 39.4687 51.902 38.7561M51.4665 42.5279C50.9321 41.9956 50.4409 41.4401 49.9499 40.8122M49.9499 40.8122C50.7402 40.1518 51.3406 39.511 51.902 38.7561" stroke="#333015" stroke-width="1.25"/>
</g>
<defs>
<filter id="filter0_d_2620_19262" x="18.2344" y="7.29688" width="55.6504" height="85.4287" filterUnits="userSpaceOnUse" color-interpolation-filters="sRGB">
<feFlood flood-opacity="0" result="BackgroundImageFix"/>
<feColorMatrix in="SourceAlpha" type="matrix" values="0 0 0 0 0 0 0 0 0 0 0 0 0 0 0 0 0 0 127 0" result="hardAlpha"/>
<feOffset dy="4"/>
<feGaussianBlur stdDeviation="6"/>
<feComposite in2="hardAlpha" operator="out"/>
<feColorMatrix type="matrix" values="0 0 0 0 0 0 0 0 0 0 0 0 0 0 0 0 0 0 0.25 0"/>
<feBlend mode="normal" in2="BackgroundImageFix" result="effect1_dropShadow_2620_19262"/>
<feBlend mode="normal" in="SourceGraphic" in2="effect1_dropShadow_2620_19262" result="shape"/>
</filter>
</defs>
</svg>
