<svg width="278" height="241" viewBox="0 0 278 241" fill="none" xmlns="http://www.w3.org/2000/svg">
<g filter="url(#filter0_d_2620_19275)">
<path d="M144.465 149.344C144.07 141.942 143.959 134.849 143.925 127.018C134.819 118.779 129.167 114.511 115.866 108.964C111.915 110.94 107.89 113.662 103.968 116.987C102.534 118.203 101.113 119.499 99.7154 120.87C128.431 129.283 136.485 142.873 140.442 153.874C141.495 152.735 142.557 151.549 143.629 150.314C143.907 149.994 144.186 149.671 144.465 149.344Z" fill="white"/>
<path d="M131.852 162.382C122.31 149.344 110.046 139.879 89.7706 132.445C86.4887 136.967 83.5212 141.889 81.0325 147.079C100.292 154.769 110.389 160.346 118.243 172.642C122.616 169.957 127.138 166.615 131.852 162.382Z" fill="white"/>
<path d="M115.866 108.964C120.945 106.423 125.903 105.114 130.364 105.338C130.642 103.698 130.956 102.192 131.306 100.808C96.3648 82.7829 85.3047 79.0593 71.0848 76.5399C49.4995 73.3042 45.6334 111.486 62.7084 115.369C77.7375 117.619 86.9535 117.692 103.968 116.987C107.89 113.662 111.915 110.94 115.866 108.964Z" fill="white"/>
<path d="M77.8502 68.127C97.6639 82.0712 109.485 89.0965 131.306 100.808C133.321 92.8581 136.573 88.9503 141.64 86.9992C130.687 70.6283 123.741 63.2891 111.034 50.9776C101.368 39.0044 62.064 57.0169 77.8502 68.127Z" fill="white"/>
<path d="M162.258 99.515L155.815 105.016C158.164 107.876 160.364 110.571 162.462 113.141C175.881 129.579 185.154 140.939 202.851 158.082C206.615 161.51 208.791 161.571 212.839 156.788C213.394 155.869 213.931 154.987 214.45 154.135C219.847 145.275 223.325 139.564 225.403 128.313C226.075 120.486 223.257 117.959 215.416 115.047C203.246 110.565 194.204 107.527 184.488 104.855C180.027 103.628 175.425 102.479 170.313 101.303C167.769 100.718 165.099 100.126 162.258 99.515Z" fill="white"/>
<path d="M155.815 105.016L143.895 109.222C143.897 109.986 143.899 110.741 143.9 111.486C143.905 113.738 143.907 115.907 143.908 118.007V118.011C143.911 121.148 143.913 124.133 143.925 127.018C143.959 134.849 144.07 141.942 144.465 149.344C144.739 154.472 145.15 159.749 145.767 165.522C145.99 167.609 146.24 169.76 146.521 171.993C146.706 173.467 146.904 174.976 147.116 176.526C151.627 195.617 156.642 210.068 172.568 201.765C183.742 196.053 188.876 191.479 193.508 177.82C196.132 168.892 197.071 164.579 196.086 160.347C181.144 138.892 172.124 126.735 155.815 105.016Z" fill="white"/>
<path d="M190.287 95.6321C188.291 90.3292 186.841 87.6206 183.521 83.0127L190.931 74.9233L196.086 86.8956C196.096 86.3075 196.107 85.7449 196.117 85.2029C196.211 80.2632 196.273 77.0267 195.441 71.6876C194.48 66.1625 192.875 67.2764 189.642 70.7169L180.944 79.7756C178.6 77.079 176.802 75.4434 170.312 71.6876C168.363 71.064 166.551 70.6827 164.861 70.53C164.854 70.5294 164.848 70.5289 164.842 70.5283L164.836 70.5277C155.719 69.7162 150.122 75.5584 145.505 85.9236C155.815 84.3047 167.091 91.7469 170.313 101.303C175.425 102.479 180.027 103.628 184.488 104.855C185.045 104.61 185.588 104.388 186.108 104.174C189.97 102.592 192.577 101.525 190.287 95.6321Z" fill="white"/>
<path fill-rule="evenodd" clip-rule="evenodd" d="M155.815 105.016L143.895 109.222C143.897 109.986 143.899 110.741 143.9 111.486C143.905 113.738 143.907 115.907 143.908 118.007V118.011C143.911 121.148 143.913 124.133 143.925 127.018C134.819 118.779 129.167 114.511 115.866 108.964C120.945 106.423 125.903 105.114 130.364 105.338C130.642 103.698 130.956 102.192 131.306 100.808C133.321 92.8581 136.573 88.9503 141.64 86.9992C142.826 86.5423 144.112 86.1926 145.505 85.9236C155.815 84.3047 167.091 91.7469 170.313 101.303C167.769 100.718 165.099 100.126 162.258 99.515L155.815 105.016ZM146.521 171.993C142.508 168.242 140.546 165.865 137.774 160.992L138.096 156.357C135.976 158.545 133.896 160.548 131.852 162.382C122.31 149.344 110.046 139.879 89.7706 132.445C92.8535 128.197 96.2138 124.302 99.7154 120.87C128.431 129.283 136.485 142.873 140.442 153.874C141.495 152.735 142.557 151.549 143.629 150.314C143.907 149.994 144.186 149.671 144.465 149.344C144.739 154.472 145.15 159.749 145.767 165.522C145.99 167.609 146.24 169.76 146.521 171.993ZM81.0325 147.079C78.4093 152.549 76.318 158.317 74.9506 164.229C72.6952 177.819 80.4277 184.937 94.925 182.349C102.366 180.399 110.043 177.676 118.243 172.642C110.389 160.346 100.292 154.769 81.0325 147.079Z" fill="#FEFACC"/>
<path d="M170.312 71.6876L174.178 59.3904L181.266 71.6876C184.488 59.3902 175.781 50.6523 169.346 59.3904C166.941 63.3576 165.854 65.8483 164.836 70.5277L164.842 70.5283L164.861 70.53C166.551 70.6827 168.363 71.064 170.312 71.6876Z" fill="white"/>
<path d="M155.815 105.016L162.258 99.515C165.099 100.126 167.769 100.718 170.313 101.303M155.815 105.016L143.895 109.222C143.897 109.986 143.899 110.741 143.9 111.486M155.815 105.016C172.124 126.735 181.144 138.892 196.086 160.347C197.071 164.579 196.132 168.892 193.508 177.82C188.876 191.479 183.742 196.053 172.568 201.765C156.642 210.068 151.627 195.617 147.116 176.526C146.904 174.976 146.706 173.467 146.521 171.993M155.815 105.016C158.164 107.876 160.364 110.571 162.462 113.141C175.881 129.579 185.154 140.939 202.851 158.082C206.615 161.51 208.791 161.571 212.839 156.788C213.394 155.869 213.931 154.987 214.45 154.135C219.847 145.275 223.325 139.564 225.403 128.313C226.075 120.486 223.257 117.959 215.416 115.047C203.246 110.565 194.204 107.526 184.488 104.855M184.488 104.855C180.027 103.628 175.425 102.479 170.313 101.303M184.488 104.855C185.045 104.61 185.588 104.388 186.108 104.174C189.97 102.592 192.577 101.525 190.287 95.6321C188.291 90.3292 186.841 87.6206 183.521 83.0127L190.931 74.9233L196.086 86.8956C196.096 86.3075 196.107 85.745 196.117 85.2029C196.211 80.2632 196.273 77.0267 195.441 71.6876C194.48 66.1625 192.875 67.2764 189.642 70.7169L180.944 79.7756C178.6 77.079 176.802 75.4434 170.312 71.6876M170.312 71.6876L174.178 59.3904L181.266 71.6876C184.488 59.3902 175.781 50.6523 169.346 59.3904C166.941 63.3576 165.854 65.8483 164.836 70.5277M170.312 71.6876C168.363 71.064 166.551 70.6827 164.861 70.53M164.836 70.5277C155.719 69.7162 150.122 75.5584 145.505 85.9236M164.836 70.5277L164.842 70.5283M145.505 85.9236C144.112 86.1926 142.826 86.5423 141.64 86.9992M145.505 85.9236C155.815 84.3047 167.091 91.7469 170.313 101.303M145.505 85.9236C150.123 75.5559 155.722 69.7133 164.842 70.5283M130.364 105.338C134.189 106.011 136.105 106.118 143.9 111.486M130.364 105.338C125.903 105.114 120.945 106.423 115.866 108.964M130.364 105.338C130.642 103.698 130.956 102.192 131.306 100.808M144.465 149.344C144.07 141.942 143.959 134.849 143.925 127.018M144.465 149.344C144.186 149.671 143.907 149.994 143.629 150.314M144.465 149.344C144.739 154.472 145.15 159.749 145.767 165.522M143.9 111.486C143.905 113.738 143.907 115.907 143.908 118.007V118.011C143.911 121.148 143.913 124.133 143.925 127.018M143.925 127.018C134.819 118.779 129.167 114.511 115.866 108.964M115.866 108.964C111.915 110.94 107.89 113.662 103.968 116.987M140.442 153.874C136.485 142.873 128.431 129.283 99.7154 120.87M140.442 153.874C141.495 152.735 142.557 151.549 143.629 150.314M140.442 153.874C139.655 154.727 138.873 155.554 138.096 156.357M99.7154 120.87C96.2138 124.302 92.8535 128.197 89.7706 132.445M99.7154 120.87C101.113 119.499 102.534 118.203 103.968 116.987M131.852 162.382C122.31 149.344 110.046 139.879 89.7706 132.445M131.852 162.382C127.138 166.615 122.616 169.957 118.243 172.642M131.852 162.382C133.896 160.548 135.976 158.545 138.096 156.357M89.7706 132.445C86.4887 136.967 83.5212 141.889 81.0325 147.079M81.0325 147.079C78.4093 152.549 76.318 158.317 74.9506 164.229C72.6952 177.819 80.4277 184.937 94.925 182.349C102.366 180.399 110.043 177.676 118.243 172.642M81.0325 147.079C100.292 154.769 110.389 160.346 118.243 172.642M103.968 116.987C86.9535 117.692 77.7375 117.619 62.7084 115.369C45.6334 111.486 49.4995 73.3042 71.0848 76.5399C85.3047 79.0593 96.3648 82.7829 131.306 100.808M131.306 100.808C109.485 89.0965 97.6639 82.0712 77.8502 68.127C62.064 57.0169 101.368 39.0044 111.034 50.9776C123.741 63.2891 130.687 70.6283 141.64 86.9992M131.306 100.808C133.321 92.8581 136.573 88.9503 141.64 86.9992M143.629 150.314L143.895 161.315L145.767 165.522M145.767 165.522C145.99 167.609 146.24 169.76 146.521 171.993M138.096 156.357L137.774 160.992C140.546 165.865 142.508 168.242 146.521 171.993M164.861 70.53L164.842 70.5283M164.861 70.53C164.854 70.5294 164.848 70.5289 164.842 70.5283" stroke="#333015" stroke-width="4"/>
</g>
<defs>
<filter id="filter0_d_2620_19275" x="0.0371094" y="0.525391" width="277.462" height="261.136" filterUnits="userSpaceOnUse" color-interpolation-filters="sRGB">
<feFlood flood-opacity="0" result="BackgroundImageFix"/>
<feColorMatrix in="SourceAlpha" type="matrix" values="0 0 0 0 0 0 0 0 0 0 0 0 0 0 0 0 0 0 127 0" result="hardAlpha"/>
<feOffset dy="5.5"/>
<feGaussianBlur stdDeviation="25"/>
<feComposite in2="hardAlpha" operator="out"/>
<feColorMatrix type="matrix" values="0 0 0 0 0 0 0 0 0 0 0 0 0 0 0 0 0 0 0.25 0"/>
<feBlend mode="normal" in2="BackgroundImageFix" result="effect1_dropShadow_2620_19275"/>
<feBlend mode="normal" in="SourceGraphic" in2="effect1_dropShadow_2620_19275" result="shape"/>
</filter>
</defs>
</svg>
