<svg width="92" height="92" viewBox="0 0 92 92" fill="none" xmlns="http://www.w3.org/2000/svg">
<g filter="url(#filter0_d_2620_19269)">
<path d="M48.2489 54.3918C48.1121 51.8314 48.074 49.3779 48.0622 46.6691C44.9125 43.8194 42.9574 42.3431 38.3567 40.4244C36.9898 41.1081 35.5975 42.0495 34.2411 43.1995C33.745 43.6201 33.2537 44.0686 32.7701 44.5426C42.7027 47.4526 45.4886 52.1534 46.8575 55.9588C47.2215 55.5645 47.5889 55.1543 47.9598 54.7273C48.0559 54.6166 48.1523 54.5048 48.2489 54.3918Z" fill="white"/>
<path d="M43.8862 58.9017C40.5854 54.3918 36.3436 51.1178 29.3302 48.5464C28.195 50.1106 27.1686 51.8131 26.3077 53.6084C32.9697 56.2682 36.4622 58.1972 39.1789 62.4503C40.6915 61.5217 42.2555 60.3657 43.8862 58.9017Z" fill="white"/>
<path d="M38.3567 40.4244C40.1135 39.5456 41.8284 39.0927 43.3713 39.1702C43.4677 38.603 43.576 38.082 43.6973 37.6033C31.6112 31.3684 27.7855 30.0805 22.8669 29.209C15.4006 28.0898 14.0633 41.2968 19.9695 42.6399C25.168 43.4183 28.3558 43.4434 34.2411 43.1995C35.5975 42.0495 36.9898 41.1081 38.3567 40.4244Z" fill="white"/>
<path d="M25.207 26.299C32.0605 31.1222 36.1495 33.5523 43.6973 37.6033C44.3942 34.8534 45.5191 33.5017 47.2716 32.8269C43.483 27.1642 41.0807 24.6256 36.6851 20.367C33.3419 16.2256 19.7466 22.456 25.207 26.299Z" fill="white"/>
<path d="M54.4035 37.156L52.1748 39.0587C52.9874 40.0482 53.7483 40.9803 54.4741 41.8694C59.1156 47.5552 62.3233 51.4847 68.4446 57.4142C69.7464 58.6001 70.4993 58.621 71.8992 56.9665C72.0912 56.6488 72.277 56.3438 72.4566 56.0489C74.3234 52.9842 75.5265 51.009 76.2453 47.1172C76.4775 44.4098 75.5029 43.5356 72.7907 42.5284C68.5812 40.9781 65.4534 39.9272 62.0927 39.0031C60.5498 38.5789 58.9578 38.1814 57.1895 37.7746C56.3097 37.5722 55.3863 37.3675 54.4035 37.156Z" fill="white"/>
<path d="M52.1748 39.0587L48.0516 40.5137C48.0524 40.7781 48.0531 41.039 48.0536 41.2968C48.0553 42.0759 48.0558 42.8259 48.0564 43.5523V43.5537C48.0572 44.6389 48.0579 45.6713 48.0622 46.6691C48.074 49.3779 48.1121 51.8314 48.2489 54.3918C48.3437 56.1656 48.4858 57.9908 48.6993 59.9877C48.7765 60.7095 48.863 61.4537 48.96 62.2261C49.024 62.7359 49.0925 63.2579 49.166 63.7938C50.7261 70.3973 52.461 75.3962 57.9695 72.5239C61.8346 70.5484 63.6105 68.9662 65.2129 64.2415C66.1204 61.1534 66.4452 59.6616 66.1044 58.1977C60.9359 50.7763 57.8161 46.5714 52.1748 39.0587Z" fill="white"/>
<path d="M64.0986 35.8129C63.4082 33.9787 62.9066 33.0418 61.7584 31.4479L64.3214 28.6498L66.1044 32.791C66.1079 32.5876 66.1116 32.393 66.1152 32.2055C66.1478 30.4969 66.1692 29.3774 65.8816 27.5306C65.5491 25.6195 64.9939 26.0048 63.8757 27.1948L60.8669 30.3282C60.0562 29.3955 59.4343 28.8297 57.1895 27.5306C56.5153 27.3149 55.8886 27.183 55.3037 27.1302C55.3016 27.13 55.2995 27.1298 55.2974 27.1296L55.295 27.1294C52.1418 26.8487 50.2058 28.8695 48.6088 32.4548C52.1748 31.8948 56.0751 34.4691 57.1895 37.7746C58.9578 38.1814 60.5498 38.5789 62.0927 39.0031C62.2854 38.9184 62.4732 38.8414 62.6532 38.7677C63.9891 38.2205 64.8906 37.8512 64.0986 35.8129Z" fill="white"/>
<path fill-rule="evenodd" clip-rule="evenodd" d="M52.1748 39.0587L48.0516 40.5137C48.0524 40.7781 48.0531 41.039 48.0536 41.2968C48.0553 42.0759 48.0558 42.8259 48.0564 43.5523V43.5537C48.0572 44.6389 48.0579 45.6713 48.0622 46.6691C44.9125 43.8194 42.9574 42.3431 38.3567 40.4244C40.1135 39.5456 41.8284 39.0927 43.3713 39.1702C43.4677 38.603 43.576 38.082 43.6973 37.6033C44.3942 34.8534 45.5191 33.5017 47.2716 32.8269C47.682 32.6688 48.1269 32.5479 48.6088 32.4548C52.1748 31.8948 56.0751 34.4691 57.1895 37.7746C56.3097 37.5722 55.3863 37.3675 54.4035 37.156L52.1748 39.0587ZM48.96 62.2261C47.572 60.9285 46.8932 60.1062 45.9343 58.4207L46.0458 56.8174C45.3126 57.5745 44.5931 58.2671 43.8862 58.9017C40.5854 54.3918 36.3436 51.1178 29.3302 48.5464C30.3966 47.0771 31.5589 45.7299 32.7701 44.5426C42.7027 47.4526 45.4886 52.1534 46.8575 55.9588C47.2215 55.5645 47.5889 55.1543 47.9598 54.7273C48.0559 54.6166 48.1523 54.5048 48.2489 54.3918C48.3437 56.1656 48.4858 57.9908 48.6993 59.9877C48.7765 60.7095 48.863 61.4537 48.96 62.2261ZM26.3077 53.6084C25.4004 55.5005 24.677 57.4956 24.204 59.5403C23.4239 64.2411 26.0986 66.7034 31.1132 65.808C33.687 65.1337 36.3424 64.1918 39.1789 62.4503C36.4622 58.1972 32.9697 56.2682 26.3077 53.6084Z" fill="#FEFACC"/>
<path d="M57.1895 27.5306L58.5267 23.277L60.9783 27.5306C62.0927 23.277 59.0809 20.2545 56.8551 23.277C56.0233 24.6493 55.6474 25.5108 55.295 27.1294L55.2974 27.1296L55.3037 27.1302C55.8886 27.183 56.5153 27.3149 57.1895 27.5306Z" fill="white"/>
<path d="M52.1748 39.0587L54.4035 37.156C55.3863 37.3675 56.3097 37.5722 57.1895 37.7746M52.1748 39.0587L48.0516 40.5137C48.0524 40.7781 48.0531 41.039 48.0536 41.2968M52.1748 39.0587C57.8161 46.5714 60.9359 50.7763 66.1044 58.1977C66.4452 59.6616 66.1204 61.1534 65.2129 64.2415C63.6105 68.9662 61.8346 70.5484 57.9695 72.5239C52.461 75.3962 50.7261 70.3973 49.166 63.7938C49.0925 63.2579 49.024 62.7359 48.96 62.2261M52.1748 39.0587C52.9874 40.0482 53.7483 40.9803 54.4741 41.8694C59.1156 47.5552 62.3233 51.4847 68.4446 57.4142C69.7464 58.6001 70.4993 58.621 71.8992 56.9665C72.0912 56.6488 72.277 56.3438 72.4566 56.0489C74.3234 52.9842 75.5265 51.009 76.2453 47.1172C76.4775 44.4098 75.5029 43.5356 72.7907 42.5284C68.5812 40.9781 65.4534 39.9272 62.0927 39.0031M62.0927 39.0031C60.5498 38.5789 58.9578 38.1814 57.1895 37.7746M62.0927 39.0031C62.2854 38.9184 62.4732 38.8414 62.6532 38.7677C63.9891 38.2205 64.8906 37.8512 64.0986 35.8129C63.4082 33.9787 62.9066 33.0418 61.7584 31.4479L64.3214 28.6498L66.1044 32.791C66.1079 32.5876 66.1116 32.393 66.1152 32.2055C66.1478 30.4969 66.1692 29.3774 65.8816 27.5306C65.5491 25.6195 64.9939 26.0048 63.8757 27.1948L60.8669 30.3282C60.0562 29.3955 59.4343 28.8297 57.1895 27.5306M57.1895 27.5306L58.5267 23.277L60.9783 27.5306C62.0927 23.277 59.0809 20.2545 56.8551 23.277C56.0233 24.6493 55.6474 25.5108 55.295 27.1294M57.1895 27.5306C56.5153 27.3149 55.8886 27.183 55.3037 27.1302M55.295 27.1294C52.1418 26.8487 50.2058 28.8695 48.6088 32.4548M55.295 27.1294L55.2974 27.1296M48.6088 32.4548C48.1269 32.5479 47.682 32.6688 47.2716 32.8269M48.6088 32.4548C52.1748 31.8948 56.0751 34.4691 57.1895 37.7746M48.6088 32.4548C50.2061 28.8686 52.1428 26.8477 55.2974 27.1296M43.3713 39.1702C44.6943 39.4029 45.3573 39.4402 48.0536 41.2968M43.3713 39.1702C41.8284 39.0927 40.1135 39.5456 38.3567 40.4244M43.3713 39.1702C43.4677 38.603 43.576 38.082 43.6973 37.6033M48.2489 54.3918C48.1121 51.8314 48.074 49.3779 48.0622 46.6691M48.2489 54.3918C48.1523 54.5048 48.0559 54.6166 47.9598 54.7273M48.2489 54.3918C48.3437 56.1656 48.4858 57.9908 48.6993 59.9877M48.0536 41.2968C48.0553 42.0759 48.0558 42.8259 48.0564 43.5523V43.5537C48.0572 44.6389 48.0579 45.6713 48.0622 46.6691M48.0622 46.6691C44.9125 43.8194 42.9574 42.3431 38.3567 40.4244M38.3567 40.4244C36.9898 41.1081 35.5975 42.0495 34.2411 43.1995M46.8575 55.9588C45.4886 52.1534 42.7027 47.4526 32.7701 44.5426M46.8575 55.9588C47.2215 55.5645 47.5889 55.1543 47.9598 54.7273M46.8575 55.9588C46.585 56.2539 46.3145 56.54 46.0458 56.8174M32.7701 44.5426C31.5589 45.7299 30.3966 47.0771 29.3302 48.5464M32.7701 44.5426C33.2537 44.0686 33.745 43.6201 34.2411 43.1995M43.8862 58.9017C40.5854 54.3918 36.3436 51.1178 29.3302 48.5464M43.8862 58.9017C42.2555 60.3657 40.6915 61.5217 39.1789 62.4503M43.8862 58.9017C44.5931 58.2671 45.3126 57.5745 46.0458 56.8174M29.3302 48.5464C28.195 50.1106 27.1686 51.8131 26.3077 53.6084M26.3077 53.6084C25.4004 55.5005 24.677 57.4956 24.204 59.5403C23.4239 64.2411 26.0986 66.7034 31.1132 65.808C33.687 65.1337 36.3424 64.1918 39.1789 62.4503M26.3077 53.6084C32.9697 56.2682 36.4622 58.1972 39.1789 62.4503M34.2411 43.1995C28.3558 43.4434 25.168 43.4183 19.9695 42.6399C14.0633 41.2968 15.4006 28.0898 22.8669 29.209C27.7855 30.0805 31.6112 31.3684 43.6973 37.6033M43.6973 37.6033C36.1495 33.5523 32.0605 31.1222 25.207 26.299C19.7466 22.456 33.3419 16.2256 36.6851 20.367C41.0807 24.6256 43.483 27.1642 47.2716 32.8269M43.6973 37.6033C44.3942 34.8534 45.5191 33.5017 47.2716 32.8269M47.9598 54.7273L48.0516 58.5327L48.6993 59.9877M48.6993 59.9877C48.7765 60.7095 48.863 61.4537 48.96 62.2261M46.0458 56.8174L45.9343 58.4207C46.8932 60.1062 47.572 60.9285 48.96 62.2261M55.3037 27.1302L55.2974 27.1296M55.3037 27.1302C55.3016 27.13 55.2995 27.1298 55.2974 27.1296" stroke="#333015" stroke-width="1.25"/>
</g>
<defs>
<filter id="filter0_d_2620_19269" x="3.65332" y="10.375" width="85.25" height="79.6035" filterUnits="userSpaceOnUse" color-interpolation-filters="sRGB">
<feFlood flood-opacity="0" result="BackgroundImageFix"/>
<feColorMatrix in="SourceAlpha" type="matrix" values="0 0 0 0 0 0 0 0 0 0 0 0 0 0 0 0 0 0 127 0" result="hardAlpha"/>
<feOffset dy="4"/>
<feGaussianBlur stdDeviation="6"/>
<feComposite in2="hardAlpha" operator="out"/>
<feColorMatrix type="matrix" values="0 0 0 0 0 0 0 0 0 0 0 0 0 0 0 0 0 0 0.25 0"/>
<feBlend mode="normal" in2="BackgroundImageFix" result="effect1_dropShadow_2620_19269"/>
<feBlend mode="normal" in="SourceGraphic" in2="effect1_dropShadow_2620_19269" result="shape"/>
</filter>
</defs>
</svg>
