<svg width="92" height="94" viewBox="0 0 92 94" fill="none" xmlns="http://www.w3.org/2000/svg">
<g filter="url(#filter0_d_2620_19287)">
<path d="M65.4575 73.9326L66.7547 74.7584V28.2753L65.4575 27.6854L62.7453 29.3371V75.5843L65.4575 73.9326Z" fill="white"/>
<path d="M48.2406 18.9551L46.7075 20.0169V48.3315L48.2406 47.5056V29.3371C48.2375 29.2008 48.2375 29.069 48.2406 28.9412V18.9551Z" fill="white"/>
<path d="M66.7547 74.7584L69.3491 72.9888V71.691L70.4104 70.9831V50.691V48.9213V42.6685V39.4831V38.4213V34.4101V24.8539L68.1698 26.1517L69.3491 26.7416L66.7547 28.2753V74.7584Z" fill="white"/>
<path d="M60.1304 55.1742L60.1219 56.5899L60.1166 56.5929L60.033 72.1629V73.9326L62.7453 75.5843V29.3371L60.2689 27.9213L60.2344 34.6461L60.1286 54.3483L60.1242 55.1777L60.1304 55.1742Z" fill="#FEFACC"/>
<path d="M55.7877 33.3483V51.8708L60.1286 54.3483L60.2344 34.6461C59.821 32.7609 59.3371 31.6143 58.7842 30.304C58.5809 29.8222 58.3682 29.3182 58.1462 28.7472C58.0561 28.8486 57.9605 28.9538 57.8613 29.0628C57.0077 30.0011 55.8928 31.2266 55.7877 32.8498V33.3483Z" fill="#FEFACC"/>
<path d="M48.2406 29.3371V47.5056L51.3066 48.2036L52.7217 47.3876V30.3989C52.6874 28.6725 52.1778 27.6775 51.5628 26.4768C51.2525 25.871 50.9154 25.2129 50.5991 24.382C49.2607 25.721 48.2936 26.7121 48.2406 28.9412V29.3371Z" fill="#FEFACC"/>
<path d="M33.0283 72.1629V70.7472L27.3679 67.4438L26.1887 66.736L21 63.3146V65.0843L33.0283 72.1629Z" fill="white"/>
<path d="M54.3726 24.382L52.7217 23.4382V30.3989V47.3876L51.3066 48.2036L26.1887 63.1966V66.736L27.3679 67.4438L53.5472 52.2247L54.3726 52.6966L55.7877 51.8708V33.3483C55.7768 33.1781 55.7772 33.012 55.7877 32.8498V23.2022L54.3726 24.382Z" fill="white"/>
<path d="M52.6038 68.0337V60.9111L45.0566 65.249L46.7075 66.264L48.1226 65.4382L52.6038 68.0337Z" fill="#FEFACC"/>
<path d="M55.6698 69.6854L60.033 72.1629L60.1166 56.5929L55.6698 59.1488V69.6854Z" fill="#FEFACC"/>
<path d="M54.2547 70.6292L55.6698 69.6854V59.1488L54.2547 59.9622L52.6038 60.9111V68.0337V69.6854L54.2547 70.6292Z" fill="white"/>
<path d="M60.033 73.9326V72.1629L55.6698 69.6854L54.2547 70.6292L52.6038 69.6854L51.8962 69.2569V70.9831L54.2547 72.3989L55.6698 71.4551L60.033 73.9326Z" fill="#FEFACC"/>
<path d="M52.6038 69.6854V68.0337L48.1226 65.4382L46.7075 66.264L45.0566 65.249L43.6415 66.0623L46.7075 67.9157L48.1226 66.9719L51.8962 69.2569L52.6038 69.6854Z" fill="#FEFACC"/>
<path d="M62.7453 77L65.4575 75.4663L66.7547 76.1742L69.3491 74.5225V73.2247V72.9888L66.7547 74.7584L65.4575 73.9326L62.7453 75.5843L60.033 73.9326V75.4663L62.7453 77Z" fill="#FEFACC"/>
<path d="M69.3491 71.691V72.9888V73.2247L71 72.1629V70.6292L70.4104 70.9831L69.3491 71.691Z" fill="white"/>
<path fill-rule="evenodd" clip-rule="evenodd" d="M45.0566 65.249L43.6415 66.0623L33.0283 72.1629V70.7472L27.3679 67.4438L53.5472 52.2247L54.3726 52.6966L55.7877 51.8708L60.1286 54.3483L60.1242 55.1777L60.1304 55.1742L60.1219 56.5899L60.1166 56.5929L55.6698 59.1488L54.2547 59.9622L52.6038 60.9111L45.0566 65.249ZM21 63.3146L44.2311 49.759V18.6011L46.7075 20.0169V48.3315L48.2406 47.5056L51.3066 48.2036L26.1887 63.1966V66.736L21 63.3146ZM48.2406 18.9551V28.9412C48.2375 29.069 48.2375 29.2008 48.2406 29.3371V28.9412C48.2936 26.7121 49.2607 25.721 50.5991 24.382C50.9154 25.2129 51.2525 25.871 51.5628 26.4768C52.1778 27.6775 52.6874 28.6725 52.7217 30.3989V23.4382L54.1368 22.3764L48.2406 18.9551ZM55.7877 23.2022V32.8498C55.7772 33.012 55.7768 33.1781 55.7877 33.3483V32.8498C55.8928 31.2266 57.0077 30.0011 57.8613 29.0628C57.9605 28.9538 58.0561 28.8486 58.1462 28.7472C58.3682 29.3182 58.5809 29.8222 58.7842 30.304C59.3371 31.6143 59.821 32.7609 60.2344 34.6461L60.2689 27.9213L61.9198 26.7416L55.7877 23.2022Z" fill="#FEFACC"/>
<path d="M66.7547 28.2753L69.3491 26.7416L68.1698 26.1517L70.4104 24.8539L67.816 23.2022L66.4009 24.1461L60.6226 20.7247L62.0377 19.8989L60.3868 18.9551L58.8538 19.7809L53.0755 16.3596L54.3726 15.5337L51.8962 14L49.066 15.7697L47.8868 14.9438L45.7642 16.2416L46.9434 16.9494L44.2311 18.6011L46.7075 20.0169L48.2406 18.9551L54.1368 22.3764L52.7217 23.4382L54.3726 24.382L55.7877 23.2022L61.9198 26.7416L60.2689 27.9213L62.7453 29.3371L65.4575 27.6854L66.7547 28.2753Z" fill="white"/>
<path d="M33.0283 70.7472V72.1629M33.0283 70.7472L27.3679 67.4438M33.0283 70.7472L60.1242 55.1777M33.0283 72.1629L43.6415 66.0623M33.0283 72.1629L21 65.0843V63.3146M69.3491 72.9888L66.7547 74.7584M69.3491 72.9888V71.691L70.4104 70.9831M69.3491 72.9888V73.2247M66.7547 74.7584L65.4575 73.9326L62.7453 75.5843M66.7547 74.7584V28.2753M62.7453 75.5843L60.033 73.9326M62.7453 75.5843V29.3371M60.033 73.9326V75.4663L62.7453 77L65.4575 75.4663L66.7547 76.1742L69.3491 74.5225V73.2247M60.033 73.9326V72.1629M60.033 73.9326L55.6698 71.4551L54.2547 72.3989L51.8962 70.9831V69.2569M60.2689 27.9213L61.9198 26.7416L55.7877 23.2022M60.2689 27.9213L62.7453 29.3371M60.2689 27.9213L60.2344 34.6461M62.7453 29.3371L65.4575 27.6854L66.7547 28.2753M66.7547 28.2753L69.3491 26.7416L68.1698 26.1517L70.4104 24.8539M70.4104 24.8539L67.816 23.2022L66.4009 24.1461L60.6226 20.7247L62.0377 19.8989L60.3868 18.9551L58.8538 19.7809L53.0755 16.3596L54.3726 15.5337L51.8962 14L49.066 15.7697L47.8868 14.9438L45.7642 16.2416L46.9434 16.9494L44.2311 18.6011M70.4104 24.8539V34.4101V38.4213V39.4831V42.6685V48.9213V50.691V70.9831M44.2311 18.6011L46.7075 20.0169M44.2311 18.6011V49.759M46.7075 20.0169L48.2406 18.9551M46.7075 20.0169V48.3315M48.2406 18.9551L54.1368 22.3764L52.7217 23.4382M48.2406 18.9551V28.9412M52.7217 23.4382L54.3726 24.382L55.7877 23.2022M52.7217 23.4382V30.3989M55.7877 23.2022V32.8498M27.3679 67.4438L53.5472 52.2247L54.3726 52.6966L55.7877 51.8708M27.3679 67.4438L26.1887 66.736M55.7877 51.8708V33.3483M55.7877 51.8708L60.1286 54.3483M55.7877 33.3483C55.7768 33.1781 55.7772 33.012 55.7877 32.8498M55.7877 33.3483V32.8498M60.2344 34.6461L60.1286 54.3483M60.2344 34.6461C59.821 32.7609 59.3371 31.6143 58.7842 30.304C58.5809 29.8222 58.3682 29.3182 58.1462 28.7472C58.0561 28.8486 57.9605 28.9538 57.8613 29.0628C57.0077 30.0011 55.8928 31.2266 55.7877 32.8498M48.2406 47.5056L46.7075 48.3315M48.2406 47.5056V29.3371M48.2406 47.5056L51.3066 48.2036M46.7075 48.3315L44.2311 49.759M21 63.3146L44.2311 49.759M21 63.3146L26.1887 66.736M60.033 72.1629L55.6698 69.6854M60.033 72.1629L60.1166 56.5929M55.6698 69.6854L54.2547 70.6292L52.6038 69.6854M55.6698 69.6854V59.1488M52.6038 69.6854V68.0337M52.6038 69.6854L51.8962 69.2569M52.6038 60.9111L54.2547 59.9622L55.6698 59.1488M52.6038 60.9111V68.0337M52.6038 60.9111L45.0566 65.249M55.6698 59.1488L60.1166 56.5929M52.6038 68.0337L48.1226 65.4382L46.7075 66.264L45.0566 65.249M45.0566 65.249L43.6415 66.0623M43.6415 66.0623L46.7075 67.9157L48.1226 66.9719L51.8962 69.2569M48.2406 29.3371C48.2375 29.2008 48.2375 29.069 48.2406 28.9412M48.2406 29.3371V28.9412M52.7217 30.3989V47.3876L51.3066 48.2036M52.7217 30.3989C52.6874 28.6725 52.1778 27.6775 51.5628 26.4768C51.2525 25.871 50.9154 25.2129 50.5991 24.382C49.2607 25.721 48.2936 26.7121 48.2406 28.9412M70.4104 70.9831L71 70.6292V72.1629L69.3491 73.2247M60.1286 54.3483L60.1242 55.1777M51.3066 48.2036L26.1887 63.1966V66.736M60.1166 56.5929L60.1219 56.5899L60.1304 55.1742L60.1242 55.1777M60.1166 56.5929L60.1242 55.1777" stroke="#333015" stroke-width="1.25"/>
</g>
<defs>
<filter id="filter0_d_2620_19287" x="8.375" y="5.26367" width="75.25" height="88.4541" filterUnits="userSpaceOnUse" color-interpolation-filters="sRGB">
<feFlood flood-opacity="0" result="BackgroundImageFix"/>
<feColorMatrix in="SourceAlpha" type="matrix" values="0 0 0 0 0 0 0 0 0 0 0 0 0 0 0 0 0 0 127 0" result="hardAlpha"/>
<feOffset dy="4"/>
<feGaussianBlur stdDeviation="6"/>
<feComposite in2="hardAlpha" operator="out"/>
<feColorMatrix type="matrix" values="0 0 0 0 0 0 0 0 0 0 0 0 0 0 0 0 0 0 0.25 0"/>
<feBlend mode="normal" in2="BackgroundImageFix" result="effect1_dropShadow_2620_19287"/>
<feBlend mode="normal" in="SourceGraphic" in2="effect1_dropShadow_2620_19287" result="shape"/>
</filter>
</defs>
</svg>
