<svg width="250" height="287" viewBox="0 0 250 287" fill="none" xmlns="http://www.w3.org/2000/svg">
<g filter="url(#filter0_d_2620_19267)">
<path d="M181.515 220.267L185.266 222.654V88.2702L181.515 86.5649L173.674 91.3399V225.042L181.515 220.267Z" fill="white"/>
<path d="M131.741 61.3252L127.309 64.3949V146.253L131.741 143.866V91.3399C131.732 90.9461 131.732 90.5648 131.741 90.1953V61.3252Z" fill="white"/>
<path d="M185.266 222.654L192.766 217.538V213.786L195.834 211.74V153.075V147.959V129.882V120.673V117.603V106.006V78.379L189.357 82.1309L192.766 83.8363L185.266 88.2702V222.654Z" fill="white"/>
<path d="M166.114 166.036L166.09 170.129L166.075 170.137L165.833 215.151V220.267L173.674 225.042V91.3399L166.515 87.247L166.415 106.688L166.109 163.648L166.096 166.046L166.114 166.036Z" fill="#FEFACC"/>
<path d="M153.56 102.937V156.486L166.109 163.648L166.415 106.688C165.22 101.238 163.821 97.9234 162.223 94.1354C161.635 92.7424 161.02 91.2853 160.378 89.6346C160.118 89.9278 159.841 90.2317 159.554 90.5469C157.087 93.2597 153.864 96.8027 153.56 101.495V102.937Z" fill="#FEFACC"/>
<path d="M131.741 91.3399V143.866L140.605 145.884L144.696 143.525V94.4096C144.596 89.4186 143.123 86.542 141.345 83.0709C140.448 81.3195 139.474 79.4167 138.559 77.0147C134.69 80.8857 131.894 83.751 131.741 90.1953V91.3399Z" fill="#FEFACC"/>
<path d="M87.7615 215.151V211.058L71.3972 201.508L67.9879 199.461L52.9873 189.57V194.686L87.7615 215.151Z" fill="white"/>
<path d="M149.469 77.0147L144.696 74.2861V94.4096V143.525L140.605 145.884L67.9879 189.229V199.461L71.3972 201.508L147.082 157.509L149.469 158.873L153.56 156.486V102.937C153.528 102.444 153.529 101.964 153.56 101.495V73.604L149.469 77.0147Z" fill="white"/>
<path d="M144.355 203.213V182.621L122.536 195.162L127.309 198.097L131.4 195.709L144.355 203.213Z" fill="#FEFACC"/>
<path d="M153.219 207.988L165.833 215.151L166.075 170.137L153.219 177.527V207.988Z" fill="#FEFACC"/>
<path d="M149.128 210.717L153.219 207.988V177.527L149.128 179.878L144.355 182.621V203.213V207.988L149.128 210.717Z" fill="white"/>
<path d="M165.833 220.267V215.151L153.219 207.988L149.128 210.717L144.355 207.988L142.309 206.749V211.74L149.128 215.833L153.219 213.104L165.833 220.267Z" fill="#FEFACC"/>
<path d="M144.355 207.988V203.213L131.4 195.709L127.309 198.097L122.536 195.162L118.445 197.514L127.309 202.872L131.4 200.143L142.309 206.749L144.355 207.988Z" fill="#FEFACC"/>
<path d="M173.674 229.135L181.515 224.701L185.266 226.747L192.766 221.972V218.22V217.538L185.266 222.654L181.515 220.267L173.674 225.042L165.833 220.267V224.701L173.674 229.135Z" fill="#FEFACC"/>
<path d="M192.766 213.786V217.538V218.22L197.539 215.151V210.717L195.834 211.74L192.766 213.786Z" fill="white"/>
<path fill-rule="evenodd" clip-rule="evenodd" d="M122.536 195.162L118.445 197.514L87.7615 215.151V211.058L71.3972 201.508L147.082 157.509L149.469 158.873L153.56 156.486L166.109 163.648L166.096 166.046L166.114 166.036L166.09 170.129L166.075 170.137L153.219 177.527L149.128 179.878L144.355 182.621L122.536 195.162ZM52.9873 189.57L120.149 150.38V60.302L127.309 64.3949V146.253L131.741 143.866L140.605 145.884L67.9879 189.229V199.461L52.9873 189.57ZM131.741 61.3252V90.1953C131.732 90.5648 131.732 90.9461 131.741 91.3399V90.1953C131.894 83.751 134.69 80.8857 138.559 77.0147C139.474 79.4167 140.448 81.3195 141.345 83.0709C143.123 86.542 144.596 89.4186 144.696 94.4096V74.2861L148.787 71.2164L131.741 61.3252ZM153.56 73.604V101.495C153.529 101.964 153.528 102.444 153.56 102.937V101.495C153.864 96.8027 157.087 93.2597 159.554 90.5469C159.841 90.2317 160.118 89.9278 160.378 89.6346C161.02 91.2853 161.635 92.7424 162.223 94.1354C163.821 97.9234 165.22 101.238 166.415 106.688L166.515 87.247L171.288 83.8363L153.56 73.604Z" fill="#FEFACC"/>
<path d="M185.266 88.2702L192.766 83.8363L189.357 82.1309L195.834 78.379L188.334 73.604L184.243 76.3326L167.537 66.4414L171.629 64.0538L166.856 61.3252L162.424 63.7127L145.718 53.8215L149.469 51.434L142.309 47L134.127 52.1161L130.718 49.7286L124.581 53.4805L127.99 55.5269L120.149 60.302L127.309 64.3949L131.741 61.3252L148.787 71.2164L144.696 74.2861L149.469 77.0147L153.56 73.604L171.288 83.8363L166.515 87.247L173.674 91.3399L181.515 86.5649L185.266 88.2702Z" fill="white"/>
<path d="M87.7615 211.058V215.151M87.7615 211.058L71.3972 201.508M87.7615 211.058L166.096 166.046M87.7615 215.151L118.445 197.514M87.7615 215.151L52.9873 194.686V189.57M192.766 217.538L185.265 222.654M192.766 217.538V213.786L195.834 211.74M192.766 217.538V218.22M185.265 222.654L181.515 220.267L173.674 225.042M185.265 222.654V88.2702M173.674 225.042L165.833 220.267M173.674 225.042V91.3399M165.833 220.267V224.701L173.674 229.135L181.515 224.701L185.265 226.747L192.766 221.972V218.22M165.833 220.267V215.151M165.833 220.267L153.219 213.104L149.128 215.833L142.309 211.74V206.749M166.515 87.247L171.288 83.8363L153.56 73.604M166.515 87.247L173.674 91.3399M166.515 87.247L166.415 106.688M173.674 91.3399L181.515 86.5649L185.265 88.2702M185.265 88.2702L192.766 83.8363L189.357 82.1309L195.834 78.379M195.834 78.379L188.334 73.604L184.243 76.3326L167.537 66.4414L171.629 64.0538L166.856 61.3252L162.424 63.7127L145.718 53.8215L149.469 51.434L142.309 47L134.127 52.1161L130.718 49.7286L124.581 53.4805L127.99 55.5269L120.149 60.302M195.834 78.379V106.006V117.603V120.673V129.882V147.959V153.075V211.74M120.149 60.302L127.309 64.3949M120.149 60.302V150.38M127.309 64.3949L131.741 61.3252M127.309 64.3949V146.253M131.741 61.3252L148.787 71.2164L144.696 74.2861M131.741 61.3252V90.1953M144.696 74.2861L149.469 77.0147L153.56 73.604M144.696 74.2861V94.4096M153.56 73.604V101.495M71.3972 201.508L147.082 157.509L149.469 158.873L153.56 156.486M71.3972 201.508L67.9879 199.461M153.56 156.486V102.937M153.56 156.486L166.109 163.648M153.56 102.937C153.528 102.444 153.529 101.964 153.56 101.495M153.56 102.937V101.495M166.415 106.688L166.109 163.648M166.415 106.688C165.22 101.238 163.821 97.9234 162.223 94.1354C161.635 92.7424 161.02 91.2853 160.378 89.6346C160.118 89.9278 159.841 90.2317 159.554 90.5469C157.087 93.2597 153.864 96.8027 153.56 101.495M131.741 143.866L127.309 146.253M131.741 143.866V91.3399M131.741 143.866L140.605 145.884M127.309 146.253L120.149 150.38M52.9873 189.57L120.149 150.38M52.9873 189.57L67.9879 199.461M165.833 215.151L153.219 207.988M165.833 215.151L166.075 170.137M153.219 207.988L149.128 210.717L144.355 207.988M153.219 207.988V177.527M144.355 207.988V203.213M144.355 207.988L142.309 206.749M144.355 182.621L149.128 179.878L153.219 177.527M144.355 182.621V203.213M144.355 182.621L122.536 195.162M153.219 177.527L166.075 170.137M144.355 203.213L131.4 195.709L127.309 198.097L122.536 195.162M122.536 195.162L118.445 197.514M118.445 197.514L127.309 202.872L131.4 200.143L142.309 206.749M131.741 91.3399C131.732 90.9461 131.732 90.5648 131.741 90.1953M131.741 91.3399V90.1953M144.696 94.4096V143.525L140.605 145.884M144.696 94.4096C144.596 89.4186 143.123 86.542 141.345 83.0709C140.448 81.3195 139.474 79.4167 138.559 77.0147C134.69 80.8857 131.894 83.751 131.741 90.1953M195.834 211.74L197.539 210.717V215.151L192.766 218.22M166.109 163.648L166.096 166.046M140.605 145.884L67.9879 189.229V199.461M166.075 170.137L166.09 170.129L166.114 166.036L166.096 166.046M166.075 170.137L166.096 166.046" stroke="#333015" stroke-width="4"/>
</g>
<defs>
<filter id="filter0_d_2620_19267" x="0.987305" y="0.144531" width="248.552" height="286.788" filterUnits="userSpaceOnUse" color-interpolation-filters="sRGB">
<feFlood flood-opacity="0" result="BackgroundImageFix"/>
<feColorMatrix in="SourceAlpha" type="matrix" values="0 0 0 0 0 0 0 0 0 0 0 0 0 0 0 0 0 0 127 0" result="hardAlpha"/>
<feOffset dy="5.5"/>
<feGaussianBlur stdDeviation="25"/>
<feComposite in2="hardAlpha" operator="out"/>
<feColorMatrix type="matrix" values="0 0 0 0 0 0 0 0 0 0 0 0 0 0 0 0 0 0 0.25 0"/>
<feBlend mode="normal" in2="BackgroundImageFix" result="effect1_dropShadow_2620_19267"/>
<feBlend mode="normal" in="SourceGraphic" in2="effect1_dropShadow_2620_19267" result="shape"/>
</filter>
</defs>
</svg>
