<svg width="168" height="154" viewBox="0 0 168 154" fill="none" xmlns="http://www.w3.org/2000/svg">
<g filter="url(#filter0_d_2620_16519)">
<path d="M62.7882 68.7804C63.1944 69.0019 63.5344 69.3276 63.7734 69.7238L68.541 77.6311C70.3908 80.699 66.9779 84.2329 63.8474 82.4911L62.7882 81.9018L52.9505 76.4282L43.0726 70.9322L36.6803 67.3756C34.6468 66.1042 35.5047 57.7115 37.1143 55.6367C37.4728 55.1746 38.1114 55.3203 38.625 55.6004L43.0726 58.0264L52.9505 63.4143L62.7882 68.7804Z" fill="white"/>
<path fill-rule="evenodd" clip-rule="evenodd" d="M97.1094 117.636V100.786L82.0021 88.8744L66.0232 65.923L36.6803 49.9441L32.0645 55.0465C31.4831 55.6892 31.1611 56.525 31.1611 57.3918V77.6037C31.1611 78.8287 31.8024 79.9644 32.8513 80.5972L35.4957 82.1923C35.5934 79.9315 36.4756 78.0515 38.1095 77.1081C41.3055 75.2629 46.1674 77.7007 48.9688 82.5529C50.6932 85.5397 51.235 88.745 50.6514 91.1986L75.0663 104.563C75.2087 102.397 76.086 100.604 77.6685 99.6908C80.8645 97.8456 85.7264 100.283 88.5278 105.136C90.1367 107.922 90.7162 110.899 90.3125 113.278L97.1094 117.636ZM62.7882 68.7804C63.1944 69.0019 63.5344 69.3276 63.7734 69.7238L68.541 77.6311C70.3908 80.699 66.9779 84.2329 63.8474 82.4911L62.7882 81.9018L52.9505 76.4282L43.0726 70.9322L36.6803 67.3756C34.6468 66.1042 35.5047 57.7115 37.1143 55.6367C37.4728 55.1746 38.1114 55.3203 38.625 55.6004L43.0726 58.0264L52.9505 63.4143L62.7882 68.7804Z" fill="#D2EDF7"/>
<path d="M120.351 66.504L104.663 42.9715L66.0232 65.923L82.0021 88.8744L120.351 66.504Z" fill="white"/>
<path d="M104.663 42.9715L77.1245 27.1573C76.0125 26.5188 74.6403 26.5402 73.5488 27.2131L36.6803 49.9441L66.0232 65.923L104.663 42.9715Z" fill="white"/>
<path fill-rule="evenodd" clip-rule="evenodd" d="M97.1094 100.786V117.636L134.268 96.561C135.363 95.9401 136.04 94.7787 136.04 93.5201V77.8345L120.351 66.504L82.0021 88.8744L97.1094 100.786ZM102.573 108.099C103.661 108.727 105.315 107.898 106.269 106.246C107.222 104.595 107.113 102.747 106.026 102.119C104.938 101.491 103.283 102.32 102.33 103.972C101.376 105.623 101.485 107.471 102.573 108.099ZM112.617 97.7354C111.831 98.1845 111.346 99.0203 111.346 99.9255C111.346 101.862 113.438 103.077 115.12 102.116L120.243 99.188C121.029 98.7389 121.514 97.9031 121.514 96.9979C121.514 95.0611 119.422 93.8468 117.74 94.8077L112.617 97.7354ZM127.017 94.139C128.104 94.767 129.759 93.9373 130.713 92.2858C131.666 90.6343 131.557 88.7864 130.47 88.1584C129.382 87.5303 127.727 88.36 126.774 90.0115C125.82 91.6631 125.929 93.511 127.017 94.139Z" fill="white"/>
<path d="M130.713 92.2858C129.759 93.9373 128.104 94.767 127.017 94.139C125.929 93.511 125.82 91.6631 126.774 90.0115C127.727 88.36 129.382 87.5303 130.47 88.1584C131.557 88.7864 131.666 90.6343 130.713 92.2858Z" fill="#D2EDF7"/>
<path d="M112.617 97.7354C111.831 98.1845 111.346 99.0203 111.346 99.9255C111.346 101.862 113.438 103.077 115.12 102.116L120.243 99.188C121.029 98.7389 121.514 97.9031 121.514 96.9979C121.514 95.0611 119.422 93.8468 117.74 94.8077L112.617 97.7354Z" fill="#D2EDF7"/>
<path d="M106.269 106.246C105.315 107.898 103.661 108.727 102.573 108.099C101.485 107.471 101.376 105.623 102.33 103.972C103.283 102.32 104.938 101.491 106.026 102.119C107.113 102.747 107.222 104.595 106.269 106.246Z" fill="#D2EDF7"/>
<path fill-rule="evenodd" clip-rule="evenodd" d="M90.3125 113.278C90.7162 110.899 90.1367 107.922 88.5278 105.136C85.7264 100.283 80.8645 97.8456 77.6685 99.6908C76.086 100.604 75.2087 102.397 75.0663 104.563C74.9211 106.771 75.5398 109.368 76.9542 111.818C79.7556 116.67 84.6175 119.108 87.8135 117.262C89.174 116.477 90.0133 115.042 90.3125 113.278ZM84.2291 111.68C85.3169 111.052 85.4257 109.205 84.4722 107.553C83.5187 105.902 81.8639 105.072 80.7762 105.7C79.6884 106.328 79.5796 108.176 80.533 109.827C81.4865 111.479 83.1413 112.308 84.2291 111.68Z" fill="white"/>
<path fill-rule="evenodd" clip-rule="evenodd" d="M50.6514 91.1986C51.235 88.745 50.6932 85.5397 48.9688 82.5529C46.1674 77.7007 41.3055 75.2629 38.1095 77.1081C36.4756 78.0515 35.5934 79.9315 35.4957 82.1923C35.4023 84.3538 36.0259 86.8633 37.3952 89.235C40.1966 94.0873 45.0585 96.525 48.2545 94.6798C49.4833 93.9704 50.2869 92.7311 50.6514 91.1986ZM45.0012 89.1143C46.089 88.4863 46.1978 86.6384 45.2443 84.9869C44.2908 83.3353 42.636 82.5057 41.5483 83.1337C40.4605 83.7617 40.3516 85.6096 41.3051 87.2611C42.2586 88.9126 43.9134 89.7423 45.0012 89.1143Z" fill="white"/>
<path d="M84.4722 107.553C85.4257 109.205 85.3169 111.052 84.2291 111.68C83.1413 112.308 81.4865 111.479 80.533 109.827C79.5796 108.176 79.6884 106.328 80.7762 105.7C81.8639 105.072 83.5187 105.902 84.4722 107.553Z" fill="#D2EDF7"/>
<path d="M45.2443 84.9869C46.1978 86.6384 46.089 88.4863 45.0012 89.1143C43.9134 89.7423 42.2586 88.9126 41.3051 87.2611C40.3516 85.6096 40.4605 83.7617 41.5483 83.1337C42.636 82.5057 44.2908 83.3353 45.2443 84.9869Z" fill="#D2EDF7"/>
<path d="M97.1094 100.786V117.636M97.1094 100.786L136.04 77.8345M97.1094 100.786L82.0021 88.8744M97.1094 117.636L134.268 96.561C135.363 95.9401 136.04 94.7787 136.04 93.5201V77.8345M97.1094 117.636L90.3125 113.278M136.04 77.8345L120.351 66.504M120.351 66.504L104.663 42.9715M120.351 66.504L82.0021 88.8744M104.663 42.9715L77.1245 27.1573C76.0125 26.5188 74.6403 26.5402 73.5488 27.2131L36.6803 49.9441M104.663 42.9715L66.0232 65.923M36.6803 49.9441L66.0232 65.923M36.6803 49.9441L32.0645 55.0465C31.4831 55.6892 31.1611 56.525 31.1611 57.3918V77.6037C31.1611 78.8287 31.8024 79.9644 32.8513 80.5972L35.4957 82.1923M66.0232 65.923L82.0021 88.8744M97.1094 57.4977L104.663 61.2746M105.825 56.0451L102.339 54.0114M43.0726 70.9322L36.6803 67.3756C34.6468 66.1042 35.5047 57.7115 37.1143 55.6367C37.4728 55.1746 38.1114 55.3203 38.625 55.6004L43.0726 58.0264M43.0726 70.9322V58.0264M43.0726 70.9322L52.9505 76.4282M43.0726 58.0264L52.9505 63.4143M52.9505 76.4282V63.4143M52.9505 76.4282L62.7882 81.9018M52.9505 63.4143L62.7882 68.7804M62.7882 81.9018L63.8474 82.4911C66.9779 84.2329 70.3908 80.699 68.541 77.631L63.7734 69.7238C63.5344 69.3276 63.1944 69.0019 62.7882 68.7804V68.7804M62.7882 81.9018V68.7804M90.3125 113.278C90.7162 110.899 90.1367 107.922 88.5278 105.136C85.7264 100.283 80.8645 97.8456 77.6685 99.6908C76.086 100.604 75.2087 102.397 75.0663 104.563M90.3125 113.278C90.0133 115.042 89.174 116.477 87.8135 117.262C84.6175 119.108 79.7556 116.67 76.9542 111.818C75.5398 109.368 74.9211 106.771 75.0663 104.563M75.0663 104.563L50.6514 91.1986M50.6514 91.1986C51.235 88.745 50.6932 85.5397 48.9688 82.5529C46.1674 77.7007 41.3055 75.2629 38.1095 77.1081C36.4756 78.0515 35.5934 79.9315 35.4957 82.1923M50.6514 91.1986C50.2869 92.7311 49.4833 93.9704 48.2545 94.6798C45.0585 96.525 40.1966 94.0873 37.3952 89.235C36.0259 86.8633 35.4023 84.3538 35.4957 82.1923M45.2443 84.9869C46.1978 86.6384 46.089 88.4863 45.0012 89.1143C43.9134 89.7423 42.2586 88.9126 41.3051 87.2611C40.3516 85.6096 40.4605 83.7617 41.5483 83.1337C42.636 82.5057 44.2908 83.3353 45.2443 84.9869ZM84.4722 107.553C85.4257 109.205 85.3169 111.052 84.2291 111.68C83.1413 112.308 81.4865 111.479 80.533 109.827C79.5796 108.176 79.6884 106.328 80.7762 105.7C81.8639 105.072 83.5187 105.902 84.4722 107.553ZM106.269 106.246C105.315 107.898 103.661 108.727 102.573 108.099C101.485 107.471 101.376 105.623 102.33 103.972C103.283 102.32 104.938 101.491 106.026 102.119C107.113 102.747 107.222 104.595 106.269 106.246ZM130.713 92.2858C129.759 93.9373 128.104 94.767 127.017 94.139C125.929 93.511 125.82 91.6631 126.774 90.0115C127.727 88.36 129.382 87.5303 130.47 88.1584C131.557 88.7864 131.666 90.6343 130.713 92.2858ZM121.514 96.9979V96.9979C121.514 97.9031 121.029 98.7389 120.243 99.188L115.12 102.116C113.438 103.077 111.346 101.862 111.346 99.9255V99.9255C111.346 99.0203 111.831 98.1845 112.617 97.7354L117.74 94.8077C119.422 93.8468 121.514 95.0611 121.514 96.9979Z" stroke="#18282E" stroke-width="2" stroke-linecap="round"/>
</g>
<defs>
<filter id="filter0_d_2620_16519" x="0.161133" y="0.193359" width="166.879" height="153.186" filterUnits="userSpaceOnUse" color-interpolation-filters="sRGB">
<feFlood flood-opacity="0" result="BackgroundImageFix"/>
<feColorMatrix in="SourceAlpha" type="matrix" values="0 0 0 0 0 0 0 0 0 0 0 0 0 0 0 0 0 0 127 0" result="hardAlpha"/>
<feOffset dy="4.5"/>
<feGaussianBlur stdDeviation="15"/>
<feComposite in2="hardAlpha" operator="out"/>
<feColorMatrix type="matrix" values="0 0 0 0 0 0 0 0 0 0 0 0 0 0 0 0 0 0 0.25 0"/>
<feBlend mode="normal" in2="BackgroundImageFix" result="effect1_dropShadow_2620_16519"/>
<feBlend mode="normal" in="SourceGraphic" in2="effect1_dropShadow_2620_16519" result="shape"/>
</filter>
</defs>
</svg>
