<svg width="92" height="92" viewBox="0 0 92 92" fill="none" xmlns="http://www.w3.org/2000/svg">
<g filter="url(#filter0_d_2620_16544)">
<path d="M34.0936 44.405C34.326 44.5317 34.5205 44.718 34.6571 44.9447L37.3846 49.4684C38.4429 51.2235 36.4904 53.2452 34.6995 52.2487L34.0936 51.9116L28.4655 48.7802L22.8145 45.636L19.1574 43.6013C17.9941 42.874 18.4849 38.0726 19.4057 36.8856C19.6109 36.6212 19.9762 36.7046 20.27 36.8648L22.8145 38.2527L28.4655 41.3351L34.0936 44.405Z" fill="white"/>
<path fill-rule="evenodd" clip-rule="evenodd" d="M53.7284 72.355V62.715L45.0856 55.9006L35.9443 42.7703L19.1574 33.6289L16.5168 36.5479C16.1842 36.9156 16 37.3938 16 37.8896V49.4527C16 50.1535 16.3668 50.8033 16.967 51.1653L18.4798 52.0778C18.5357 50.7844 19.0404 49.7089 19.9751 49.1692C21.8035 48.1136 24.5849 49.5082 26.1876 52.2841C27.1741 53.9928 27.4841 55.8266 27.1502 57.2302L41.1177 64.8757C41.1992 63.6366 41.7011 62.6112 42.6064 62.0885C44.4348 61.0329 47.2163 62.4275 48.819 65.2034C49.7394 66.7977 50.0709 68.5008 49.8399 69.8619L53.7284 72.355ZM34.0936 44.405C34.326 44.5317 34.5205 44.718 34.6571 44.9447L37.3846 49.4684C38.4429 51.2235 36.4904 53.2452 34.6995 52.2487L34.0936 51.9116L28.4655 48.7802L22.8145 45.636L19.1574 43.6013C17.9941 42.874 18.4849 38.0726 19.4057 36.8856C19.6109 36.6212 19.9762 36.7046 20.27 36.8648L22.8145 38.2527L28.4655 41.3351L34.0936 44.405Z" fill="#D2EDF7"/>
<path d="M67.0249 43.1027L58.0497 29.64L35.9443 42.7703L45.0856 55.9006L67.0249 43.1027Z" fill="white"/>
<path d="M58.0497 29.64L42.2952 20.5928C41.6591 20.2275 40.874 20.2398 40.2496 20.6247L19.1574 33.6289L35.9443 42.7703L58.0497 29.64Z" fill="white"/>
<path fill-rule="evenodd" clip-rule="evenodd" d="M53.7284 62.715V72.355L74.9867 60.298C75.613 59.9428 76 59.2784 76 58.5584V49.5847L67.0249 43.1027L45.0856 55.9006L53.7284 62.715ZM56.8539 66.899C57.4762 67.2583 58.4229 66.7837 58.9684 65.8388C59.5139 64.894 59.4516 63.8369 58.8293 63.4776C58.207 63.1183 57.2603 63.5929 56.7148 64.5378C56.1694 65.4826 56.2316 66.5397 56.8539 66.899ZM62.6001 60.9699C62.1504 61.2268 61.8729 61.705 61.8729 62.2228C61.8729 63.3308 63.07 64.0255 64.032 63.4758L66.9631 61.8009C67.4127 61.5439 67.6902 61.0658 67.6902 60.5479C67.6902 59.4399 66.4932 58.7453 65.5311 59.295L62.6001 60.9699ZM70.8381 58.9124C71.4604 59.2717 72.4071 58.797 72.9525 57.8522C73.498 56.9074 73.4358 55.8502 72.8135 55.4909C72.1911 55.1316 71.2445 55.6063 70.699 56.5511C70.1535 57.4959 70.2158 58.5531 70.8381 58.9124Z" fill="white"/>
<path d="M72.9525 57.8522C72.4071 58.797 71.4604 59.2717 70.8381 58.9124C70.2158 58.5531 70.1535 57.4959 70.699 56.5511C71.2445 55.6063 72.1911 55.1316 72.8135 55.4909C73.4358 55.8502 73.498 56.9074 72.9525 57.8522Z" fill="#D2EDF7"/>
<path d="M62.6001 60.9699C62.1504 61.2268 61.8729 61.705 61.8729 62.2228C61.8729 63.3308 63.07 64.0255 64.032 63.4758L66.9631 61.8009C67.4127 61.5439 67.6902 61.0658 67.6902 60.5479C67.6902 59.4399 66.4932 58.7453 65.5311 59.295L62.6001 60.9699Z" fill="#D2EDF7"/>
<path d="M58.9684 65.8388C58.4229 66.7837 57.4762 67.2583 56.8539 66.899C56.2316 66.5397 56.1694 65.4826 56.7148 64.5378C57.2603 63.5929 58.207 63.1183 58.8293 63.4776C59.4516 63.8369 59.5139 64.894 58.9684 65.8388Z" fill="#D2EDF7"/>
<path fill-rule="evenodd" clip-rule="evenodd" d="M49.8399 69.8619C50.0709 68.5008 49.7394 66.7977 48.819 65.2034C47.2163 62.4275 44.4348 61.0329 42.6064 62.0885C41.7011 62.6112 41.1992 63.6366 41.1177 64.8757C41.0346 66.1391 41.3886 67.6247 42.1978 69.0262C43.8005 71.8021 46.5819 73.1967 48.4103 72.1411C49.1886 71.6917 49.6688 70.8708 49.8399 69.8619ZM46.3597 68.9477C46.982 68.5884 47.0443 67.5312 46.4988 66.5864C45.9533 65.6416 45.0066 65.167 44.3843 65.5262C43.762 65.8855 43.6997 66.9427 44.2452 67.8875C44.7907 68.8323 45.7374 69.307 46.3597 68.9477Z" fill="white"/>
<path fill-rule="evenodd" clip-rule="evenodd" d="M27.1502 57.2302C27.4841 55.8266 27.1741 53.9928 26.1876 52.2841C24.5849 49.5082 21.8035 48.1136 19.9751 49.1692C19.0404 49.7089 18.5357 50.7844 18.4798 52.0778C18.4263 53.3144 18.7831 54.7501 19.5664 56.1069C21.1691 58.8828 23.9506 60.2774 25.779 59.2218C26.4819 58.8159 26.9417 58.107 27.1502 57.2302ZM23.9178 56.0378C24.5401 55.6785 24.6023 54.6214 24.0569 53.6765C23.5114 52.7317 22.5647 52.2571 21.9424 52.6164C21.3201 52.9757 21.2578 54.0328 21.8033 54.9776C22.3488 55.9225 23.2955 56.3971 23.9178 56.0378Z" fill="white"/>
<path d="M46.4988 66.5864C47.0443 67.5312 46.982 68.5884 46.3597 68.9477C45.7374 69.307 44.7907 68.8323 44.2452 67.8875C43.6997 66.9427 43.762 65.8855 44.3843 65.5262C45.0066 65.167 45.9533 65.6416 46.4988 66.5864Z" fill="#D2EDF7"/>
<path d="M24.0569 53.6765C24.6023 54.6214 24.5401 55.6785 23.9178 56.0378C23.2955 56.3971 22.3488 55.9225 21.8033 54.9776C21.2578 54.0328 21.3201 52.9757 21.9424 52.6164C22.5647 52.2571 23.5114 52.7317 24.0569 53.6765Z" fill="#D2EDF7"/>
<path d="M53.7284 62.715V72.355M53.7284 62.715L76 49.5847M53.7284 62.715L45.0856 55.9006M53.7284 72.355L74.9867 60.298C75.613 59.9428 76 59.2784 76 58.5584V49.5847M53.7284 72.355L49.8399 69.8619M76 49.5847L67.0249 43.1027M67.0249 43.1027L58.0497 29.64M67.0249 43.1027L45.0856 55.9006M58.0497 29.64L42.2952 20.5928C41.6591 20.2275 40.874 20.2398 40.2496 20.6247L19.1574 33.6289M58.0497 29.64L35.9443 42.7703M19.1574 33.6289L35.9443 42.7703M19.1574 33.6289L16.5168 36.5479C16.1842 36.9156 16 37.3938 16 37.8896V49.4527C16 50.1535 16.3668 50.8033 16.967 51.1653L18.4798 52.0778M35.9443 42.7703L45.0856 55.9006M53.7284 37.9503L58.0497 40.111M58.7146 37.1193L56.7201 35.9558M22.8145 45.636L19.1574 43.6013C17.9941 42.874 18.4849 38.0726 19.4057 36.8856C19.6109 36.6212 19.9762 36.7046 20.27 36.8648L22.8145 38.2527M22.8145 45.636V38.2527M22.8145 45.636L28.4655 48.7802M22.8145 38.2527L28.4655 41.3351M28.4655 48.7802V41.3351M28.4655 48.7802L34.0936 51.9116M28.4655 41.3351L34.0936 44.405M34.0936 51.9116L34.6995 52.2487C36.4904 53.2452 38.4429 51.2235 37.3846 49.4684L34.6571 44.9447C34.5205 44.718 34.326 44.5317 34.0936 44.405V44.405M34.0936 51.9116V44.405M49.8399 69.8619C50.0709 68.5008 49.7394 66.7977 48.819 65.2034C47.2163 62.4275 44.4348 61.0329 42.6064 62.0885C41.7011 62.6112 41.1992 63.6366 41.1177 64.8757M49.8399 69.8619C49.6688 70.8708 49.1886 71.6917 48.4103 72.1411C46.5819 73.1967 43.8005 71.8021 42.1978 69.0262C41.3886 67.6247 41.0346 66.1391 41.1177 64.8757M41.1177 64.8757L27.1502 57.2302M27.1502 57.2302C27.4841 55.8266 27.1741 53.9928 26.1876 52.2841C24.5849 49.5082 21.8035 48.1136 19.9751 49.1692C19.0404 49.7089 18.5357 50.7844 18.4798 52.0778M27.1502 57.2302C26.9417 58.107 26.4819 58.8159 25.779 59.2218C23.9506 60.2774 21.1691 58.8828 19.5664 56.1069C18.7831 54.7501 18.4263 53.3144 18.4798 52.0778M24.0569 53.6765C24.6023 54.6214 24.5401 55.6785 23.9178 56.0378C23.2955 56.3971 22.3488 55.9225 21.8033 54.9776C21.2578 54.0328 21.3201 52.9756 21.9424 52.6164C22.5647 52.2571 23.5114 52.7317 24.0569 53.6765ZM46.4988 66.5864C47.0443 67.5312 46.982 68.5884 46.3597 68.9477C45.7374 69.307 44.7907 68.8323 44.2452 67.8875C43.6997 66.9427 43.762 65.8855 44.3843 65.5262C45.0066 65.167 45.9533 65.6416 46.4988 66.5864ZM58.9684 65.8388C58.4229 66.7837 57.4762 67.2583 56.8539 66.899C56.2316 66.5397 56.1694 65.4826 56.7148 64.5378C57.2603 63.5929 58.207 63.1183 58.8293 63.4776C59.4516 63.8369 59.5139 64.894 58.9684 65.8388ZM72.9525 57.8522C72.4071 58.797 71.4604 59.2717 70.8381 58.9124C70.2158 58.5531 70.1535 57.4959 70.699 56.5511C71.2445 55.6063 72.1911 55.1317 72.8135 55.4909C73.4358 55.8502 73.498 56.9074 72.9525 57.8522ZM67.6902 60.5479V60.5479C67.6902 61.0658 67.4127 61.5439 66.9631 61.8009L64.032 63.4758C63.07 64.0255 61.8729 63.3308 61.8729 62.2228V62.2228C61.8729 61.705 62.1504 61.2268 62.6001 60.9699L65.5311 59.295C66.4932 58.7452 67.6902 59.4399 67.6902 60.5479Z" stroke="#18282E" stroke-width="1.25" stroke-linecap="round"/>
</g>
<defs>
<filter id="filter0_d_2620_16544" x="3.375" y="11.7021" width="85.25" height="77.417" filterUnits="userSpaceOnUse" color-interpolation-filters="sRGB">
<feFlood flood-opacity="0" result="BackgroundImageFix"/>
<feColorMatrix in="SourceAlpha" type="matrix" values="0 0 0 0 0 0 0 0 0 0 0 0 0 0 0 0 0 0 127 0" result="hardAlpha"/>
<feOffset dy="4"/>
<feGaussianBlur stdDeviation="6"/>
<feComposite in2="hardAlpha" operator="out"/>
<feColorMatrix type="matrix" values="0 0 0 0 0 0 0 0 0 0 0 0 0 0 0 0 0 0 0.25 0"/>
<feBlend mode="normal" in2="BackgroundImageFix" result="effect1_dropShadow_2620_16544"/>
<feBlend mode="normal" in="SourceGraphic" in2="effect1_dropShadow_2620_16544" result="shape"/>
</filter>
</defs>
</svg>
