<svg width="281" height="242" viewBox="0 0 281 242" fill="none" xmlns="http://www.w3.org/2000/svg">
<g filter="url(#filter0_d_2620_16520)">
<path d="M105.812 117.56C106.493 117.932 107.064 118.479 107.465 119.143L115.464 132.411C118.568 137.559 112.842 143.489 107.589 140.566L105.812 139.577L89.3045 130.393L72.73 121.171L62.004 115.203C58.592 113.07 60.0315 98.9875 62.7322 95.5061C63.3338 94.7306 64.4054 94.9752 65.2671 95.4451L72.73 99.5159L89.3045 108.556L105.812 117.56Z" fill="white"/>
<path fill-rule="evenodd" clip-rule="evenodd" d="M163.401 199.538V171.264L138.052 151.277L111.24 112.766L62.004 85.9542L54.259 94.5157C53.2834 95.5942 52.7432 96.9966 52.7432 98.4509V132.365C52.7432 134.421 53.8191 136.327 55.5792 137.388L60.0164 140.065C60.1803 136.271 61.6606 133.117 64.4021 131.534C69.7648 128.438 77.9228 132.528 82.6235 140.67C85.5169 145.682 86.4261 151.06 85.4468 155.177L126.414 177.601C126.653 173.967 128.125 170.959 130.78 169.426C136.143 166.33 144.301 170.421 149.001 178.562C151.701 183.238 152.673 188.234 151.996 192.226L163.401 199.538ZM105.812 117.56C106.493 117.932 107.064 118.479 107.465 119.143L115.464 132.411C118.568 137.559 112.842 143.489 107.589 140.566L105.812 139.577L89.3045 130.393L72.73 121.171L62.004 115.203C58.592 113.07 60.0315 98.9875 62.7322 95.5061C63.3338 94.7306 64.4054 94.9752 65.2671 95.4451L72.73 99.5159L89.3045 108.556L105.812 117.56Z" fill="#D2EDF7"/>
<path d="M202.399 113.741L176.075 74.2546L111.24 112.766L138.052 151.277L202.399 113.741Z" fill="white"/>
<path d="M176.075 74.2546L129.867 47.7192C128.001 46.6477 125.699 46.6837 123.867 47.8128L62.004 85.9542L111.24 112.766L176.075 74.2546Z" fill="white"/>
<path fill-rule="evenodd" clip-rule="evenodd" d="M163.401 171.264V199.538L225.751 164.175C227.588 163.133 228.724 161.184 228.724 159.072V132.753L202.399 113.741L138.052 151.277L163.401 171.264ZM172.568 183.536C174.393 184.589 177.17 183.197 178.77 180.426C180.37 177.655 180.187 174.554 178.362 173.5C176.537 172.447 173.76 173.839 172.16 176.61C170.56 179.381 170.743 182.482 172.568 183.536ZM189.421 166.145C188.103 166.899 187.289 168.301 187.289 169.82C187.289 173.07 190.8 175.108 193.621 173.495L202.218 168.583C203.537 167.829 204.351 166.427 204.351 164.908C204.351 161.658 200.84 159.621 198.018 161.233L189.421 166.145ZM213.584 160.111C215.409 161.165 218.185 159.772 219.785 157.001C221.385 154.23 221.203 151.129 219.377 150.076C217.552 149.022 214.776 150.414 213.176 153.185C211.576 155.956 211.758 159.057 213.584 160.111Z" fill="white"/>
<path d="M219.785 157.001C218.185 159.772 215.409 161.165 213.584 160.111C211.758 159.057 211.576 155.956 213.176 153.185C214.776 150.414 217.552 149.022 219.377 150.076C221.203 151.129 221.385 154.23 219.785 157.001Z" fill="#D2EDF7"/>
<path d="M189.421 166.145C188.103 166.899 187.289 168.301 187.289 169.82C187.289 173.07 190.8 175.108 193.621 173.495L202.218 168.583C203.537 167.829 204.351 166.427 204.351 164.908C204.351 161.658 200.84 159.621 198.018 161.233L189.421 166.145Z" fill="#D2EDF7"/>
<path d="M178.77 180.426C177.17 183.197 174.393 184.589 172.568 183.536C170.743 182.482 170.56 179.381 172.16 176.61C173.76 173.839 176.537 172.447 178.362 173.5C180.187 174.554 180.37 177.655 178.77 180.426Z" fill="#D2EDF7"/>
<path fill-rule="evenodd" clip-rule="evenodd" d="M151.996 192.226C152.673 188.234 151.701 183.238 149.001 178.562C144.301 170.421 136.143 166.33 130.78 169.426C128.125 170.959 126.653 173.967 126.414 177.601C126.17 181.307 127.208 185.664 129.581 189.775C134.282 197.916 142.44 202.007 147.803 198.911C150.086 197.593 151.494 195.185 151.996 192.226ZM141.788 189.544C143.614 188.491 143.796 185.39 142.196 182.619C140.596 179.848 137.82 178.455 135.994 179.509C134.169 180.563 133.987 183.664 135.587 186.435C137.186 189.206 139.963 190.598 141.788 189.544Z" fill="white"/>
<path fill-rule="evenodd" clip-rule="evenodd" d="M85.4468 155.177C86.4261 151.06 85.5169 145.682 82.6235 140.67C77.9228 132.528 69.7648 128.438 64.4021 131.534C61.6606 133.117 60.1803 136.271 60.0164 140.065C59.8596 143.692 60.906 147.903 63.2035 151.882C67.9042 160.024 76.0622 164.114 81.4249 161.018C83.4867 159.828 84.8352 157.748 85.4468 155.177ZM75.966 151.68C77.7913 150.626 77.9739 147.525 76.374 144.754C74.7741 141.983 71.9974 140.591 70.1722 141.644C68.347 142.698 68.1643 145.799 69.7643 148.57C71.3642 151.341 74.1408 152.733 75.966 151.68Z" fill="white"/>
<path d="M142.196 182.619C143.796 185.39 143.614 188.491 141.788 189.544C139.963 190.598 137.186 189.206 135.587 186.435C133.987 183.664 134.169 180.563 135.994 179.509C137.82 178.455 140.596 179.848 142.196 182.619Z" fill="#D2EDF7"/>
<path d="M76.374 144.754C77.9739 147.525 77.7913 150.626 75.966 151.68C74.1408 152.733 71.3642 151.341 69.7643 148.57C68.1643 145.799 68.347 142.698 70.1722 141.644C71.9974 140.591 74.7741 141.983 76.374 144.754Z" fill="#D2EDF7"/>
<path d="M163.401 171.264V199.538M163.401 171.264L228.724 132.753M163.401 171.264L138.052 151.277M163.401 199.538L225.751 164.175C227.588 163.133 228.724 161.184 228.724 159.072V132.753M163.401 199.538L151.996 192.226M228.724 132.753L202.399 113.741M202.399 113.741L176.075 74.2546M202.399 113.741L138.052 151.277M176.075 74.2546L129.867 47.7192C128.001 46.6477 125.699 46.6837 123.867 47.8128L62.004 85.9542M176.075 74.2546L111.24 112.766M62.004 85.9542L111.24 112.766M62.004 85.9542L54.259 94.5157C53.2834 95.5942 52.7432 96.9966 52.7432 98.4509V132.365C52.7432 134.421 53.8191 136.327 55.5792 137.388L60.0164 140.065M111.24 112.766L138.052 151.277M163.401 98.6288L176.075 104.966M178.025 96.1913L172.175 92.7789M72.73 121.171L62.004 115.203C58.592 113.07 60.0315 98.9875 62.7322 95.5061C63.3338 94.7306 64.4054 94.9752 65.2671 95.4451L72.73 99.5159M72.73 121.171V99.5159M72.73 121.171L89.3045 130.393M72.73 99.5159L89.3045 108.556M89.3045 130.393V108.556M89.3045 130.393L105.812 139.577M89.3045 108.556L105.812 117.56M105.812 139.577L107.589 140.566C112.842 143.489 118.568 137.559 115.464 132.411L107.465 119.143C107.064 118.479 106.493 117.932 105.812 117.56V117.56M105.812 139.577V117.56M151.996 192.226C152.673 188.234 151.701 183.238 149.001 178.562C144.301 170.421 136.143 166.33 130.78 169.426C128.125 170.959 126.653 173.967 126.414 177.601M151.996 192.226C151.494 195.185 150.086 197.593 147.803 198.911C142.44 202.007 134.282 197.916 129.581 189.775C127.208 185.664 126.17 181.307 126.414 177.601M126.414 177.601L85.4468 155.177M85.4468 155.177C86.4261 151.06 85.5169 145.682 82.6235 140.67C77.9228 132.528 69.7648 128.438 64.4021 131.534C61.6606 133.117 60.1803 136.271 60.0164 140.065M85.4468 155.177C84.8352 157.748 83.4867 159.828 81.4249 161.018C76.0622 164.114 67.9042 160.024 63.2035 151.882C60.906 147.903 59.8596 143.692 60.0164 140.065M76.374 144.754C77.9739 147.525 77.7912 150.626 75.966 151.68C74.1408 152.733 71.3642 151.341 69.7643 148.57C68.1643 145.799 68.347 142.698 70.1722 141.644C71.9974 140.591 74.7741 141.983 76.374 144.754ZM142.196 182.619C143.796 185.39 143.614 188.491 141.788 189.544C139.963 190.598 137.186 189.206 135.587 186.435C133.987 183.664 134.169 180.563 135.994 179.509C137.82 178.455 140.596 179.848 142.196 182.619ZM178.77 180.426C177.17 183.197 174.393 184.589 172.568 183.536C170.743 182.482 170.56 179.381 172.16 176.61C173.76 173.839 176.537 172.447 178.362 173.5C180.187 174.554 180.37 177.655 178.77 180.426ZM219.785 157.001C218.185 159.772 215.409 161.165 213.584 160.111C211.758 159.057 211.576 155.956 213.176 153.185C214.776 150.414 217.552 149.022 219.377 150.076C221.203 151.129 221.385 154.23 219.785 157.001ZM204.351 164.908V164.908C204.351 166.427 203.537 167.829 202.218 168.583L193.621 173.495C190.8 175.108 187.289 173.07 187.289 169.82V169.82C187.289 168.301 188.103 166.899 189.421 166.145L198.018 161.233C200.84 159.621 204.351 161.658 204.351 164.908Z" stroke="#18282E" stroke-width="4" stroke-linecap="round"/>
</g>
<defs>
<filter id="filter0_d_2620_16520" x="0.743164" y="0.44043" width="279.98" height="257.005" filterUnits="userSpaceOnUse" color-interpolation-filters="sRGB">
<feFlood flood-opacity="0" result="BackgroundImageFix"/>
<feColorMatrix in="SourceAlpha" type="matrix" values="0 0 0 0 0 0 0 0 0 0 0 0 0 0 0 0 0 0 127 0" result="hardAlpha"/>
<feOffset dy="5.5"/>
<feGaussianBlur stdDeviation="25"/>
<feComposite in2="hardAlpha" operator="out"/>
<feColorMatrix type="matrix" values="0 0 0 0 0 0 0 0 0 0 0 0 0 0 0 0 0 0 0.25 0"/>
<feBlend mode="normal" in2="BackgroundImageFix" result="effect1_dropShadow_2620_16520"/>
<feBlend mode="normal" in="SourceGraphic" in2="effect1_dropShadow_2620_16520" result="shape"/>
</filter>
</defs>
</svg>
