<svg width="92" height="93" viewBox="0 0 92 93" fill="none" xmlns="http://www.w3.org/2000/svg">
<g filter="url(#filter0_d_2620_16525)">
<path d="M42.9859 19.8028L26.4997 29.3003C25.1772 30.0622 25.1611 31.9651 26.4706 32.7492L27.7833 33.5352L42.9859 24.662V19.8028Z" fill="white"/>
<path d="M58.1738 32.0938C59.5023 31.3239 59.5037 29.4062 58.1762 28.6344L42.9859 19.8028V24.662L56.9296 32.8149L58.1738 32.0938Z" fill="#D2EDF7"/>
<path d="M27.7833 33.5352L40.4962 41.1474C41.12 41.5209 41.8974 41.5265 42.5265 41.1619L56.9296 32.8149L42.9859 24.662L27.7833 33.5352Z" fill="#D2EDF7"/>
<path fill-rule="evenodd" clip-rule="evenodd" d="M41.507 45.5775L17 31V60.6906C17 61.405 17.3811 62.0652 17.9997 62.4225L41.507 76V52.5493V45.5775ZM36.6847 51.9758C37.3145 52.3301 37.7042 52.9964 37.7042 53.719V60.4631C37.7042 62.0095 36.0244 62.9708 34.6911 62.1875L21.7897 54.608C21.1783 54.2488 20.8028 53.5927 20.8028 52.8835V46.4619C20.8028 44.9323 22.4501 43.9689 23.7833 44.7188L36.6847 51.9758Z" fill="#D2EDF7"/>
<path d="M46.9895 58.9534C46.345 59.3033 45.9437 59.9778 45.9437 60.7111V73.48L53.338 69.28V58.8684C53.338 57.3521 51.7165 56.3873 50.3839 57.1107L46.9895 58.9534Z" fill="#D2EDF7"/>
<path d="M48.4789 49.169L41.507 45.5775V52.5493H48.4789V49.169Z" fill="white"/>
<path d="M60.9437 41.7519L54.6056 37.9279L48.0563 41.7527L54.7113 45.4605L60.9437 41.7519Z" fill="#D2EDF7"/>
<path d="M60.9437 41.7519L54.7113 45.4605V50.2254C56.9296 51.2817 60.0986 49.8028 60.9437 46.4225V41.7519Z" fill="#D2EDF7"/>
<path d="M41.507 45.5775L48.4789 49.169L54.7113 45.4605L48.0563 41.7527L41.507 45.5775Z" fill="white"/>
<path d="M48.4789 49.169V52.5493C49.7465 54.8732 53.5493 54.0282 54.7113 50.2254V45.4605L48.4789 49.169Z" fill="white"/>
<path d="M67.9155 37.6034L60.9437 41.7519V46.4225C63.6901 47.2676 66.6479 45.5775 67.9155 42.6197V37.6034Z" fill="white"/>
<path d="M67.9155 37.6034L61.5775 33.8563L54.6056 37.9279L60.9437 41.7519L67.9155 37.6034Z" fill="white"/>
<path d="M67.9155 37.6034L74.0423 33.9577L67.7053 30.2935L61.5775 33.8563L67.9155 37.6034Z" fill="#D2EDF7"/>
<path fill-rule="evenodd" clip-rule="evenodd" d="M45.9437 73.48L41.507 76V52.5493H48.4789C49.7465 54.8732 53.5493 54.0282 54.7113 50.2254C56.9296 51.2817 60.0986 49.8028 60.9437 46.4225C63.6901 47.2676 66.6479 45.5775 67.9155 42.6197L67.9155 59.8359C67.9155 60.5555 67.529 61.2196 66.9033 61.5749L53.338 69.28V58.8684C53.338 57.3521 51.7165 56.3873 50.3839 57.1107L46.9895 58.9534C46.345 59.3033 45.9437 59.9778 45.9437 60.7111V73.48ZM67.7053 30.2935L61.5775 33.8563L54.6056 37.9279L48.0563 41.7527L41.507 45.5775L17 31L41.9852 16.5776C42.6044 16.2202 43.3673 16.2205 43.9862 16.5784L67.7053 30.2935ZM42.9859 19.8028L26.4997 29.3003C25.1772 30.0622 25.1611 31.9651 26.4706 32.7492L27.7833 33.5352L40.4962 41.1474C41.12 41.5209 41.8974 41.5265 42.5265 41.1619L56.9296 32.8149L58.1738 32.0938C59.5023 31.3239 59.5037 29.4062 58.1762 28.6344L42.9859 19.8028ZM34.6911 62.1875C36.0244 62.9708 37.7042 62.0095 37.7042 60.4631V53.719C37.7042 52.9964 37.3145 52.3301 36.6847 51.9758L23.7833 44.7188C22.4501 43.9689 20.8028 44.9323 20.8028 46.4619V52.8835C20.8028 53.5927 21.1783 54.2488 21.7897 54.608L34.6911 62.1875Z" fill="white"/>
<path d="M74.0423 33.9577L67.9155 37.6034V42.6197C69.7861 43.4511 73.4969 41.8075 74.0191 38.9587C74.0363 38.8649 74.0423 38.7691 74.0423 38.6737L74.0423 33.9577Z" fill="#D2EDF7"/>
<path d="M17 31L41.507 45.5775M17 31V60.6906M17 31L41.9852 16.5776M41.507 76V52.5493M41.507 76L45.9437 73.48M41.507 76L17.9997 62.4225M41.507 45.5775L48.4789 49.169M41.507 45.5775V52.5493M41.507 45.5775L48.0563 41.7527M74.0423 33.9577L67.9155 37.6034M74.0423 33.9577L67.7053 30.2935M74.0423 33.9577L74.0423 38.6737M74.0423 33.9577L43.9862 16.5784M48.4789 49.169V52.5493M48.4789 49.169L54.7113 45.4605M67.9155 37.6034L61.5775 33.8563M67.9155 37.6034L60.9437 41.7519M67.9155 37.6034V42.6197M48.4789 52.5493H41.507M48.4789 52.5493C49.7465 54.8732 53.5493 54.0282 54.7113 50.2254M45.9437 73.48V60.7111C45.9437 59.9778 46.345 59.3033 46.9895 58.9534L50.3838 57.1107C51.7165 56.3873 53.338 57.3521 53.338 58.8684V69.28M45.9437 73.48L53.338 69.28M53.338 69.28L66.9033 61.5749M67.7053 30.2935L61.5775 33.8563M67.7053 30.2935L43.9862 16.5784M61.5775 33.8563L54.6056 37.9279M60.9437 41.7519L54.6056 37.9279M60.9437 41.7519L54.7113 45.4605M60.9437 41.7519V46.4225M54.6056 37.9279L48.0563 41.7527M54.7113 45.4605L48.0563 41.7527M54.7113 45.4605V50.2254M54.7113 50.2254C56.9296 51.2817 60.0986 49.8028 60.9437 46.4225M60.9437 46.4225C63.6901 47.2676 66.6479 45.5775 67.9155 42.6197M67.9155 42.6197C69.7861 43.4511 73.4969 41.8075 74.0191 38.9587M67.9155 42.6197L67.9155 59.8359M42.9859 19.8028L26.4997 29.3003C25.1772 30.0622 25.1611 31.9651 26.4706 32.7492L27.7833 33.5352M42.9859 19.8028L58.1762 28.6344C59.5037 29.4062 59.5023 31.3239 58.1738 32.0938L56.9296 32.8149M42.9859 19.8028V24.662M42.9859 24.662L27.7833 33.5352M42.9859 24.662L56.9296 32.8149M27.7833 33.5352L40.4962 41.1474C41.12 41.5209 41.8974 41.5265 42.5265 41.1619L56.9296 32.8149M48.0563 64.8028V66.9155M17 60.6906C17 61.405 17.3811 62.0652 17.9997 62.4225M17 60.6906V60.6906C17 61.405 17.3811 62.0652 17.9997 62.4225V62.4225M41.9852 16.5776C42.6044 16.2202 43.3673 16.2205 43.9862 16.5784M41.9852 16.5776V16.5776C42.6044 16.2202 43.3673 16.2205 43.9862 16.5784V16.5784M74.0423 38.6737C74.0423 38.7691 74.0363 38.8649 74.0191 38.9587M74.0423 38.6737V38.6737C74.0423 38.769 74.0363 38.8649 74.0191 38.9587V38.9587M67.9155 59.8359C67.9155 60.5555 67.529 61.2196 66.9033 61.5749M67.9155 59.8359V59.8359C67.9155 60.5555 67.529 61.2196 66.9033 61.5749V61.5749M64.7465 57.089V54.2461C64.7465 52.6774 63.0229 51.7193 61.6906 52.5475L57.8737 54.9201C57.2866 55.2851 56.9296 55.9274 56.9296 56.6187V59.2553C56.9296 60.7884 58.5835 61.7514 59.9168 60.9947L63.7337 58.8283C64.3597 58.4731 64.7465 57.8088 64.7465 57.089ZM20.8028 52.8835V46.4619C20.8028 44.9323 22.4501 43.9689 23.7833 44.7188L36.6848 51.9758C37.3145 52.3301 37.7042 52.9964 37.7042 53.719V60.4631C37.7042 62.0095 36.0244 62.9708 34.6911 62.1876L21.7897 54.608C21.1783 54.2488 20.8028 53.5927 20.8028 52.8835Z" stroke="#18282E" stroke-width="1.25" stroke-linecap="round"/>
</g>
<defs>
<filter id="filter0_d_2620_16525" x="4.375" y="7.68457" width="82.292" height="85.0361" filterUnits="userSpaceOnUse" color-interpolation-filters="sRGB">
<feFlood flood-opacity="0" result="BackgroundImageFix"/>
<feColorMatrix in="SourceAlpha" type="matrix" values="0 0 0 0 0 0 0 0 0 0 0 0 0 0 0 0 0 0 127 0" result="hardAlpha"/>
<feOffset dy="4"/>
<feGaussianBlur stdDeviation="6"/>
<feComposite in2="hardAlpha" operator="out"/>
<feColorMatrix type="matrix" values="0 0 0 0 0 0 0 0 0 0 0 0 0 0 0 0 0 0 0.25 0"/>
<feBlend mode="normal" in2="BackgroundImageFix" result="effect1_dropShadow_2620_16525"/>
<feBlend mode="normal" in="SourceGraphic" in2="effect1_dropShadow_2620_16525" result="shape"/>
</filter>
</defs>
</svg>
