<svg width="273" height="280" viewBox="0 0 273 280" fill="none" xmlns="http://www.w3.org/2000/svg">
<g filter="url(#filter0_d_2620_16549)">
<path d="M129.176 57.1537L80.8217 85.0099C76.9426 87.2446 76.8955 92.8258 80.7364 95.1256L84.5864 97.4309L129.176 71.4056V57.1537Z" fill="white"/>
<path d="M173.722 93.2033C177.619 90.9452 177.622 85.3203 173.729 83.0568L129.176 57.1537V71.4056L170.073 95.3182L173.722 93.2033Z" fill="#D2EDF7"/>
<path d="M84.5864 97.4309L121.873 119.757C123.703 120.853 125.983 120.869 127.828 119.8L170.073 95.3182L129.176 71.4056L84.5864 97.4309Z" fill="#D2EDF7"/>
<path fill-rule="evenodd" clip-rule="evenodd" d="M124.838 132.751L52.959 89.9951V177.078C52.959 179.173 54.0766 181.109 55.8911 182.157L124.838 221.98V153.199V132.751ZM110.694 151.517C112.542 152.556 113.685 154.511 113.685 156.63V176.411C113.685 180.946 108.758 183.766 104.847 181.468L67.0073 159.237C65.214 158.184 64.1127 156.26 64.1127 154.18V135.345C64.1127 130.859 68.9443 128.033 72.8546 130.232L110.694 151.517Z" fill="#D2EDF7"/>
<path d="M140.918 171.983C139.028 173.009 137.851 174.987 137.851 177.138V214.589L159.539 202.271V171.733C159.539 167.286 154.783 164.456 150.874 166.578L140.918 171.983Z" fill="#D2EDF7"/>
<path d="M145.287 143.285L124.838 132.751V153.199H145.287V143.285Z" fill="white"/>
<path d="M181.846 121.531L163.257 110.315L144.047 121.533L163.566 132.408L181.846 121.531Z" fill="#D2EDF7"/>
<path d="M181.846 121.531L163.566 132.408V146.383C170.073 149.481 179.367 145.144 181.846 135.229V121.531Z" fill="#D2EDF7"/>
<path d="M124.838 132.751L145.287 143.285L163.566 132.408L144.047 121.533L124.838 132.751Z" fill="white"/>
<path d="M145.287 143.285V153.199C149.005 160.015 160.158 157.537 163.566 146.383V132.408L145.287 143.285Z" fill="white"/>
<path d="M202.294 109.363L181.846 121.531V135.229C189.901 137.708 198.577 132.751 202.294 124.076V109.363Z" fill="white"/>
<path d="M202.294 109.363L183.705 98.3728L163.257 110.315L181.846 121.531L202.294 109.363Z" fill="white"/>
<path d="M202.294 109.363L220.264 98.6702L201.678 87.9229L183.705 98.3728L202.294 109.363Z" fill="#D2EDF7"/>
<path fill-rule="evenodd" clip-rule="evenodd" d="M137.851 214.589L124.838 221.98V153.199H145.287C149.005 160.015 160.158 157.537 163.566 146.383C170.073 149.481 179.367 145.144 181.846 135.229C189.901 137.708 198.577 132.751 202.294 124.076V174.571C202.294 176.681 201.161 178.629 199.326 179.672L159.539 202.271V171.733C159.539 167.286 154.783 164.456 150.874 166.578L140.918 171.983C139.028 173.009 137.851 174.987 137.851 177.138V214.589ZM201.678 87.9229L183.705 98.3728L163.257 110.315L144.047 121.533L124.838 132.751L52.959 89.9951L126.241 47.6942C128.057 46.6459 130.294 46.6468 132.11 47.6964L201.678 87.9229ZM129.176 57.1537L80.8217 85.0099C76.9426 87.2446 76.8955 92.8258 80.7364 95.1256L84.5864 97.4309L121.873 119.757C123.703 120.853 125.983 120.869 127.828 119.8L170.073 95.3182L173.722 93.2033C177.619 90.9452 177.622 85.3203 173.729 83.0568L129.176 57.1537ZM104.847 181.468C108.758 183.766 113.685 180.946 113.685 176.411V156.63C113.685 154.511 112.542 152.556 110.694 151.517L72.8546 130.232C68.9443 128.033 64.1127 130.859 64.1127 135.345V154.18C64.1127 156.26 65.214 158.184 67.0073 159.237L104.847 181.468Z" fill="white"/>
<path d="M220.264 98.6702L202.294 109.363V124.076C207.781 126.514 218.665 121.694 220.196 113.338C220.247 113.063 220.264 112.782 220.264 112.502L220.264 98.6702Z" fill="#D2EDF7"/>
<path d="M52.959 89.9951L124.838 132.751M52.959 89.9951V177.078M52.959 89.9951L126.241 47.6942M124.838 221.98V153.199M124.838 221.98L137.851 214.589M124.838 221.98L55.8911 182.157M124.838 132.751L145.287 143.285M124.838 132.751V153.199M124.838 132.751L144.047 121.533M220.264 98.6702L202.294 109.363M220.264 98.6702L201.678 87.9229M220.264 98.6702L220.264 112.502M220.264 98.6702L132.11 47.6964M145.287 143.285V153.199M145.287 143.285L163.566 132.408M202.294 109.363L183.705 98.3728M202.294 109.363L181.846 121.531M202.294 109.363V124.076M145.287 153.199H124.838M145.287 153.199C149.005 160.015 160.158 157.537 163.566 146.383M137.851 214.589V177.138C137.851 174.987 139.028 173.009 140.918 171.983L150.874 166.578C154.783 164.456 159.539 167.286 159.539 171.733V202.271M137.851 214.589L159.539 202.271M159.539 202.271L199.326 179.672M201.678 87.9229L183.705 98.3728M201.678 87.9229L132.11 47.6964M183.705 98.3728L163.257 110.315M181.846 121.531L163.257 110.315M181.846 121.531L163.566 132.408M181.846 121.531V135.229M163.257 110.315L144.047 121.533M163.566 132.408L144.047 121.533M163.566 132.408V146.383M163.566 146.383C170.073 149.481 179.367 145.144 181.846 135.229M181.846 135.229C189.901 137.708 198.577 132.751 202.294 124.076M202.294 124.076C207.781 126.514 218.665 121.694 220.196 113.338M202.294 124.076L202.294 174.571M129.176 57.1537L80.8217 85.0099C76.9426 87.2446 76.8955 92.8258 80.7364 95.1256L84.5864 97.4309M129.176 57.1537L173.729 83.0568C177.622 85.3203 177.619 90.9452 173.722 93.2033L170.073 95.3182M129.176 57.1537V71.4056M129.176 71.4056L84.5864 97.4309M129.176 71.4056L170.073 95.3182M84.5864 97.4309L121.873 119.757C123.703 120.853 125.983 120.869 127.828 119.8L170.073 95.3182M144.047 189.139V195.335M52.959 177.078C52.959 179.173 54.0766 181.109 55.8911 182.157M52.959 177.078V177.078C52.959 179.173 54.0766 181.109 55.8911 182.157V182.157M126.241 47.6942C128.057 46.6459 130.294 46.6468 132.11 47.6964M126.241 47.6942V47.6942C128.057 46.6459 130.294 46.6468 132.11 47.6964V47.6964M220.264 112.502C220.264 112.782 220.247 113.063 220.196 113.338M220.264 112.502V112.502C220.264 112.782 220.247 113.063 220.196 113.338V113.338M202.294 174.571C202.294 176.681 201.161 178.629 199.326 179.672M202.294 174.571V174.571C202.294 176.681 201.161 178.629 199.326 179.672V179.672M193 166.514V158.176C193 153.575 187.944 150.765 184.037 153.194L172.842 160.153C171.12 161.224 170.073 163.107 170.073 165.135V172.868C170.073 177.365 174.924 180.189 178.834 177.97L190.029 171.616C191.865 170.574 193 168.625 193 166.514ZM64.1127 154.18V135.345C64.1127 130.859 68.9443 128.033 72.8546 130.232L110.694 151.517C112.542 152.556 113.685 154.511 113.685 156.63V176.411C113.685 180.946 108.758 183.766 104.847 181.468L67.0073 159.237C65.214 158.184 64.1127 156.26 64.1127 154.18Z" stroke="#18282E" stroke-width="4" stroke-linecap="round"/>
</g>
<defs>
<filter id="filter0_d_2620_16549" x="0.958984" y="0.408203" width="271.306" height="279.377" filterUnits="userSpaceOnUse" color-interpolation-filters="sRGB">
<feFlood flood-opacity="0" result="BackgroundImageFix"/>
<feColorMatrix in="SourceAlpha" type="matrix" values="0 0 0 0 0 0 0 0 0 0 0 0 0 0 0 0 0 0 127 0" result="hardAlpha"/>
<feOffset dy="5.5"/>
<feGaussianBlur stdDeviation="25"/>
<feComposite in2="hardAlpha" operator="out"/>
<feColorMatrix type="matrix" values="0 0 0 0 0 0 0 0 0 0 0 0 0 0 0 0 0 0 0.25 0"/>
<feBlend mode="normal" in2="BackgroundImageFix" result="effect1_dropShadow_2620_16549"/>
<feBlend mode="normal" in="SourceGraphic" in2="effect1_dropShadow_2620_16549" result="shape"/>
</filter>
</defs>
</svg>
