<svg width="162" height="167" viewBox="0 0 162 167" fill="none" xmlns="http://www.w3.org/2000/svg">
<g filter="url(#filter0_d_2620_16546)">
<path d="M76.6561 32.6472L47.8386 49.2486C45.5269 50.5804 45.4988 53.9066 47.7878 55.2772L50.0823 56.6511L76.6561 41.1409V32.6472Z" fill="white"/>
<path d="M103.204 54.1316C105.526 52.7859 105.529 49.4336 103.208 48.0846L76.6561 32.6472V41.1409L101.029 55.392L103.204 54.1316Z" fill="#D2EDF7"/>
<path d="M50.0823 56.6511L72.3041 69.957C73.3945 70.6099 74.7534 70.6196 75.853 69.9824L101.029 55.392L76.6561 41.1409L50.0823 56.6511Z" fill="#D2EDF7"/>
<path fill-rule="evenodd" clip-rule="evenodd" d="M74.0711 77.7007L31.2334 52.2196V104.118C31.2334 105.367 31.8995 106.521 32.9808 107.145L74.0711 130.879V89.8873V77.7007ZM65.6418 88.8849C66.7426 89.5041 67.4239 90.6689 67.4239 91.9319V103.72C67.4239 106.423 64.4876 108.104 62.1571 106.735L39.6057 93.4858C38.537 92.8579 37.8806 91.7111 37.8806 90.4715V79.2467C37.8806 76.5729 40.7601 74.8889 43.0905 76.1997L65.6418 88.8849Z" fill="#D2EDF7"/>
<path d="M83.6543 101.081C82.5277 101.693 81.8262 102.872 81.8262 104.154V126.474L94.7514 119.132V100.933C94.7514 98.2824 91.917 96.596 89.5875 97.8605L83.6543 101.081Z" fill="#D2EDF7"/>
<path d="M86.2577 83.9786L74.0711 77.7007V89.8873H86.2577V83.9786Z" fill="white"/>
<path d="M108.046 71.0138L96.9671 64.3294L85.5191 71.015L97.1518 77.4962L108.046 71.0138Z" fill="#D2EDF7"/>
<path d="M108.046 71.0138L97.1518 77.4962V85.8251C101.029 87.6715 106.569 85.0865 108.046 79.1778V71.0138Z" fill="#D2EDF7"/>
<path d="M74.0711 77.7007L86.2577 83.9786L97.1518 77.4962L85.5191 71.015L74.0711 77.7007Z" fill="white"/>
<path d="M86.2577 83.9786V89.8873C88.4734 93.9495 95.1207 92.4723 97.1518 85.8251V77.4962L86.2577 83.9786Z" fill="white"/>
<path d="M120.232 63.7622L108.046 71.0138V79.1778C112.847 80.655 118.017 77.7007 120.232 72.5306V63.7622Z" fill="white"/>
<path d="M120.232 63.7622L109.154 57.2124L96.9671 64.3294L108.046 71.0138L120.232 63.7622Z" fill="white"/>
<path d="M120.232 63.7622L130.942 57.3897L119.865 50.9847L109.154 57.2124L120.232 63.7622Z" fill="#D2EDF7"/>
<path fill-rule="evenodd" clip-rule="evenodd" d="M81.8262 126.474L74.0711 130.879V89.8873H86.2577C88.4734 93.9495 95.1207 92.4723 97.1518 85.8251C101.029 87.6715 106.569 85.0865 108.046 79.1778C112.847 80.655 118.017 77.7007 120.232 72.5306L120.232 102.624C120.232 103.882 119.557 105.043 118.463 105.664L94.7514 119.132V100.933C94.7514 98.2824 91.917 96.596 89.5875 97.8605L83.6543 101.081C82.5277 101.693 81.8262 102.872 81.8262 104.154V126.474ZM119.865 50.9847L109.154 57.2124L96.9671 64.3294L85.5191 71.015L74.0711 77.7007L31.2334 52.2196L74.9069 27.0097C75.9892 26.385 77.3227 26.3855 78.4046 27.011L119.865 50.9847ZM76.6561 32.6472L47.8386 49.2486C45.5269 50.5804 45.4988 53.9066 47.7878 55.2772L50.0823 56.6511L72.3041 69.957C73.3945 70.6099 74.7534 70.6196 75.853 69.9824L101.029 55.392L103.204 54.1316C105.526 52.7859 105.529 49.4336 103.208 48.0846L76.6561 32.6472ZM62.1571 106.735C64.4876 108.104 67.4239 106.423 67.4239 103.72V91.9319C67.4239 90.6689 66.7426 89.5041 65.6418 88.8849L43.0905 76.1997C40.7601 74.8889 37.8806 76.5729 37.8806 79.2467V90.4715C37.8806 91.7111 38.537 92.8579 39.6057 93.4858L62.1571 106.735Z" fill="white"/>
<path d="M130.942 57.3897L120.232 63.7622V72.5306C123.502 73.9838 129.989 71.1109 130.901 66.1312C130.931 65.9673 130.942 65.7997 130.942 65.6331L130.942 57.3897Z" fill="#D2EDF7"/>
<path d="M31.2334 52.2196L74.0711 77.7007M31.2334 52.2196V104.118M31.2334 52.2196L74.9069 27.0097M74.0711 130.879V89.8873M74.0711 130.879L81.8262 126.474M74.0711 130.879L32.9808 107.145M74.0711 77.7007L86.2577 83.9786M74.0711 77.7007V89.8873M74.0711 77.7007L85.5191 71.015M130.942 57.3897L120.232 63.7622M130.942 57.3897L119.865 50.9847M130.942 57.3897L130.942 65.6331M130.942 57.3897L78.4046 27.011M86.2577 83.9786V89.8873M86.2577 83.9786L97.1518 77.4962M120.232 63.7622L109.154 57.2124M120.232 63.7622L108.046 71.0138M120.232 63.7622V72.5306M86.2577 89.8873H74.0711M86.2577 89.8873C88.4734 93.9495 95.1207 92.4723 97.1518 85.8251M81.8262 126.474V104.154C81.8262 102.872 82.5277 101.693 83.6543 101.081L89.5875 97.8606C91.917 96.596 94.7514 98.2824 94.7514 100.933V119.132M81.8262 126.474L94.7514 119.132M94.7514 119.132L118.463 105.664M119.865 50.9847L109.154 57.2124M119.865 50.9847L78.4046 27.011M109.154 57.2124L96.9671 64.3294M108.046 71.0138L96.9671 64.3294M108.046 71.0138L97.1518 77.4962M108.046 71.0138V79.1778M96.9671 64.3294L85.5191 71.015M97.1518 77.4962L85.5191 71.015M97.1518 77.4962V85.8251M97.1518 85.8251C101.029 87.6715 106.569 85.0865 108.046 79.1778M108.046 79.1778C112.847 80.655 118.017 77.7007 120.232 72.5306M120.232 72.5306C123.502 73.9838 129.989 71.1109 130.901 66.1312M120.232 72.5306L120.232 102.624M76.6561 32.6472L47.8386 49.2486C45.5269 50.5804 45.4988 53.9066 47.7878 55.2772L50.0823 56.6511M76.6561 32.6472L103.208 48.0846C105.529 49.4336 105.526 52.7859 103.204 54.1316L101.029 55.392M76.6561 32.6472V41.1409M76.6561 41.1409L50.0823 56.6511M76.6561 41.1409L101.029 55.392M50.0823 56.6511L72.3041 69.957C73.3945 70.6099 74.7534 70.6196 75.853 69.9824L101.029 55.392M85.5191 111.306V114.999M31.2334 104.118C31.2334 105.367 31.8995 106.521 32.9808 107.145M31.2334 104.118V104.118C31.2334 105.367 31.8995 106.521 32.9808 107.145V107.145M74.9069 27.0097C75.9892 26.385 77.3227 26.3855 78.4046 27.011M74.9069 27.0097V27.0097C75.9892 26.385 77.3227 26.3855 78.4046 27.011V27.011M130.942 65.6331C130.942 65.7997 130.931 65.9673 130.901 66.1312M130.942 65.6331V65.6331C130.942 65.7997 130.931 65.9673 130.901 66.1312V66.1312M120.232 102.624C120.232 103.882 119.557 105.043 118.463 105.664M120.232 102.624V102.624C120.232 103.882 119.557 105.043 118.463 105.664V105.664M114.693 97.8225V92.8531C114.693 90.1111 111.68 88.4365 109.351 89.8841L102.68 94.0315C101.653 94.6694 101.029 95.7921 101.029 97.0005V101.609C101.029 104.289 103.92 105.972 106.251 104.65L112.923 100.863C114.017 100.242 114.693 99.0807 114.693 97.8225ZM37.8806 90.4715V79.2467C37.8806 76.5729 40.7601 74.8889 43.0905 76.1997L65.6419 88.8849C66.7426 89.5041 67.4239 90.6689 67.4239 91.9319V103.72C67.4239 106.423 64.4876 108.104 62.1571 106.735L39.6057 93.4858C38.537 92.8579 37.8806 91.7111 37.8806 90.4715Z" stroke="#18282E" stroke-width="2" stroke-linecap="round"/>
</g>
<defs>
<filter id="filter0_d_2620_16546" x="0.233398" y="0.0410156" width="161.708" height="166.49" filterUnits="userSpaceOnUse" color-interpolation-filters="sRGB">
<feFlood flood-opacity="0" result="BackgroundImageFix"/>
<feColorMatrix in="SourceAlpha" type="matrix" values="0 0 0 0 0 0 0 0 0 0 0 0 0 0 0 0 0 0 127 0" result="hardAlpha"/>
<feOffset dy="4.5"/>
<feGaussianBlur stdDeviation="15"/>
<feComposite in2="hardAlpha" operator="out"/>
<feColorMatrix type="matrix" values="0 0 0 0 0 0 0 0 0 0 0 0 0 0 0 0 0 0 0.25 0"/>
<feBlend mode="normal" in2="BackgroundImageFix" result="effect1_dropShadow_2620_16546"/>
<feBlend mode="normal" in="SourceGraphic" in2="effect1_dropShadow_2620_16546" result="shape"/>
</filter>
</defs>
</svg>
