<svg width="208" height="279" viewBox="0 0 208 279" fill="none" xmlns="http://www.w3.org/2000/svg">
<g filter="url(#filter0_d_2620_16547)">
<path d="M52.8848 178.045C52.8848 182.17 55.0516 185.993 58.5915 188.112L113.507 220.98V149.772L52.8848 115.301V178.045Z" fill="#D2EDF7"/>
<path d="M113.507 123.919L52.8848 87.1809V115.301L113.507 149.772V123.919Z" fill="#D2EDF7"/>
<path d="M130.698 100.788C130.698 105.046 124.824 108.498 117.578 108.498C110.332 108.498 104.459 105.046 104.459 100.788C104.459 96.5292 110.332 93.0771 117.578 93.0771C124.824 93.0771 130.698 96.5292 130.698 100.788Z" fill="#D2EDF7"/>
<path d="M106.268 86.2738C106.268 90.5321 100.394 93.9842 93.1485 93.9842C85.9028 93.9842 80.0289 90.5321 80.0289 86.2738C80.0289 82.0154 85.9028 78.5633 93.1485 78.5633C100.394 78.5633 106.268 82.0154 106.268 86.2738Z" fill="#D2EDF7"/>
<path d="M135.222 69.0386C135.222 73.2969 129.348 76.749 122.102 76.749C114.856 76.749 108.983 73.2969 108.983 69.0386C108.983 64.7802 114.856 61.3281 122.102 61.3281C129.348 61.3281 135.222 64.7802 135.222 69.0386Z" fill="#D2EDF7"/>
<path d="M160.556 83.5524C160.556 87.8108 154.683 91.2629 147.437 91.2629C140.191 91.2629 134.317 87.8108 134.317 83.5524C134.317 79.294 140.191 75.8419 147.437 75.8419C154.683 75.8419 160.556 79.294 160.556 83.5524Z" fill="#D2EDF7"/>
<path d="M143.387 115.044C142.246 115.769 141.556 117.027 141.556 118.379C141.556 121.433 144.873 123.333 147.507 121.787L158.045 115.603C159.321 114.854 160.104 113.486 160.104 112.007C160.104 108.718 156.474 106.724 153.698 108.489L143.387 115.044Z" fill="#D2EDF7"/>
<path d="M177.841 104.172C176.187 107.043 173.268 108.457 171.321 107.33C169.374 106.203 169.135 102.961 170.789 100.09C172.442 97.2189 175.361 95.8051 177.309 96.9324C179.256 98.0596 179.494 101.301 177.841 104.172Z" fill="#D2EDF7"/>
<path d="M128.982 132.351C127.328 135.222 124.409 136.636 122.462 135.509C120.514 134.381 120.276 131.14 121.929 128.269C123.583 125.398 126.502 123.984 128.449 125.111C130.397 126.238 130.635 129.48 128.982 132.351Z" fill="#D2EDF7"/>
<path fill-rule="evenodd" clip-rule="evenodd" d="M187.248 171.16C187.248 175.329 185.035 179.186 181.435 181.289L113.507 220.98V149.772V123.919L52.8848 87.1809L121.659 48.3182C125.295 46.2637 129.749 46.2968 133.353 48.405L187.248 79.9239V107.137V171.16ZM130.698 100.788C130.698 105.046 124.824 108.498 117.578 108.498C110.332 108.498 104.459 105.046 104.459 100.788C104.459 96.5292 110.332 93.0771 117.578 93.0771C124.824 93.0771 130.698 96.5292 130.698 100.788ZM147.437 91.2629C154.683 91.2629 160.556 87.8108 160.556 83.5524C160.556 79.294 154.683 75.8419 147.437 75.8419C140.191 75.8419 134.317 79.294 134.317 83.5524C134.317 87.8108 140.191 91.2629 147.437 91.2629ZM135.222 69.0386C135.222 73.2969 129.348 76.749 122.102 76.749C114.856 76.749 108.983 73.2969 108.983 69.0386C108.983 64.7802 114.856 61.3281 122.102 61.3281C129.348 61.3281 135.222 64.7802 135.222 69.0386ZM93.1485 93.9842C100.394 93.9842 106.268 90.5321 106.268 86.2738C106.268 82.0154 100.394 78.5633 93.1485 78.5633C85.9028 78.5633 80.0289 82.0154 80.0289 86.2738C80.0289 90.5321 85.9028 93.9842 93.1485 93.9842ZM143.387 115.044C142.246 115.769 141.556 117.027 141.556 118.379C141.556 121.433 144.873 123.333 147.507 121.787L158.045 115.603C159.321 114.854 160.104 113.486 160.104 112.007C160.104 108.718 156.474 106.724 153.698 108.489L143.387 115.044ZM171.321 107.33C173.268 108.457 176.187 107.043 177.841 104.172C179.494 101.301 179.256 98.0596 177.309 96.9324C175.361 95.8051 172.442 97.2189 170.789 100.09C169.135 102.961 169.374 106.203 171.321 107.33ZM128.982 132.351C127.328 135.222 124.409 136.636 122.462 135.509C120.514 134.381 120.276 131.14 121.929 128.269C123.583 125.398 126.502 123.984 128.449 125.111C130.397 126.238 130.635 129.48 128.982 132.351ZM159.741 147.107C167.562 142.636 177.295 148.283 177.295 157.292V163.828C177.295 168.038 175.04 171.925 171.386 174.014L143.276 190.082C135.455 194.553 125.721 188.906 125.721 179.897V173.361C125.721 169.151 127.977 165.264 131.631 163.175L159.741 147.107Z" fill="white"/>
<path d="M171.386 174.014C175.04 171.925 177.295 168.038 177.295 163.828V157.292C177.295 148.283 167.562 142.636 159.741 147.107L131.631 163.175C127.977 165.264 125.721 169.151 125.721 173.361V179.897C125.721 188.906 135.455 194.553 143.276 190.082L171.386 174.014Z" fill="#D2EDF7"/>
<path d="M113.507 123.919L52.8848 87.1809M113.507 123.919L187.248 79.9239M113.507 123.919V149.772M52.8848 87.1809L121.659 48.3182C125.295 46.2637 129.749 46.2968 133.353 48.405L187.248 79.9239M52.8848 87.1809V115.301M113.507 220.98L58.5915 188.112C55.0516 185.993 52.8848 182.17 52.8848 178.045V115.301M113.507 220.98L181.435 181.289C185.035 179.186 187.248 175.329 187.248 171.16V107.137M113.507 220.98V149.772M187.248 79.9239V107.137M113.507 149.772L52.8848 115.301M113.507 149.772L187.248 107.137M134.77 150.225L165.08 132.537M130.698 100.788C130.698 105.046 124.824 108.498 117.578 108.498C110.332 108.498 104.459 105.046 104.459 100.788C104.459 96.5292 110.332 93.0771 117.578 93.0771C124.824 93.0771 130.698 96.5292 130.698 100.788ZM160.556 83.5524C160.556 87.8108 154.683 91.2629 147.437 91.2629C140.191 91.2629 134.317 87.8108 134.317 83.5524C134.317 79.294 140.191 75.8419 147.437 75.8419C154.683 75.8419 160.556 79.294 160.556 83.5524ZM135.222 69.0386C135.222 73.2969 129.348 76.749 122.102 76.749C114.856 76.749 108.983 73.2969 108.983 69.0386C108.983 64.7802 114.856 61.3281 122.102 61.3281C129.348 61.3281 135.222 64.7802 135.222 69.0386ZM106.268 86.2738C106.268 90.5321 100.394 93.9842 93.1485 93.9842C85.9028 93.9842 80.0289 90.5321 80.0289 86.2738C80.0289 82.0154 85.9028 78.5633 93.1485 78.5633C100.394 78.5633 106.268 82.0154 106.268 86.2738ZM128.982 132.351C127.328 135.222 124.409 136.636 122.462 135.509C120.514 134.381 120.276 131.14 121.929 128.269C123.583 125.398 126.502 123.984 128.449 125.111C130.397 126.238 130.635 129.48 128.982 132.351ZM177.841 104.172C176.187 107.043 173.268 108.457 171.321 107.33C169.374 106.203 169.135 102.961 170.789 100.09C172.442 97.2189 175.361 95.8051 177.309 96.9324C179.256 98.0596 179.494 101.301 177.841 104.172ZM160.104 112.007V112.007C160.104 113.486 159.321 114.854 158.045 115.603L147.507 121.787C144.873 123.333 141.556 121.433 141.556 118.379V118.379C141.556 117.027 142.246 115.769 143.387 115.044L153.698 108.489C156.474 106.724 160.104 108.718 160.104 112.007ZM131.631 163.175L159.741 147.107C167.562 142.636 177.295 148.283 177.295 157.292V163.828C177.295 168.038 175.04 171.925 171.386 174.014L143.276 190.082C135.455 194.553 125.721 188.906 125.721 179.897V173.361C125.721 169.151 127.977 165.264 131.631 163.175Z" stroke="#18282E" stroke-width="4" stroke-linecap="round"/>
</g>
<defs>
<filter id="filter0_d_2620_16547" x="0.884766" y="0.299805" width="238.363" height="278.504" filterUnits="userSpaceOnUse" color-interpolation-filters="sRGB">
<feFlood flood-opacity="0" result="BackgroundImageFix"/>
<feColorMatrix in="SourceAlpha" type="matrix" values="0 0 0 0 0 0 0 0 0 0 0 0 0 0 0 0 0 0 127 0" result="hardAlpha"/>
<feOffset dy="5.5"/>
<feGaussianBlur stdDeviation="25"/>
<feComposite in2="hardAlpha" operator="out"/>
<feColorMatrix type="matrix" values="0 0 0 0 0 0 0 0 0 0 0 0 0 0 0 0 0 0 0.25 0"/>
<feBlend mode="normal" in2="BackgroundImageFix" result="effect1_dropShadow_2620_16547"/>
<feBlend mode="normal" in="SourceGraphic" in2="effect1_dropShadow_2620_16547" result="shape"/>
</filter>
</defs>
</svg>
