<svg width="92" height="93" viewBox="0 0 92 93" fill="none" xmlns="http://www.w3.org/2000/svg">
<g filter="url(#filter0_d_2620_16555)">
<path d="M23 61.3613C23 62.7679 23.7388 64.0711 24.9457 64.7934L43.6688 76V51.7217L23 39.9691V61.3613Z" fill="#D2EDF7"/>
<path d="M43.6688 42.9072L23 30.3814V39.9691L43.6688 51.7217V42.9072Z" fill="#D2EDF7"/>
<path d="M49.5302 35.0206C49.5302 36.4725 47.5275 37.6495 45.0571 37.6495C42.5866 37.6495 40.5839 36.4725 40.5839 35.0206C40.5839 33.5687 42.5866 32.3918 45.0571 32.3918C47.5275 32.3918 49.5302 33.5687 49.5302 35.0206Z" fill="#D2EDF7"/>
<path d="M41.2009 30.0722C41.2009 31.524 39.1982 32.701 36.7278 32.701C34.2574 32.701 32.2547 31.524 32.2547 30.0722C32.2547 28.6203 34.2574 27.4433 36.7278 27.4433C39.1982 27.4433 41.2009 28.6203 41.2009 30.0722Z" fill="#D2EDF7"/>
<path d="M51.0726 24.1959C51.0726 25.6478 49.0699 26.8247 46.5995 26.8247C44.1291 26.8247 42.1264 25.6478 42.1264 24.1959C42.1264 22.744 44.1291 21.567 46.5995 21.567C49.0699 21.567 51.0726 22.744 51.0726 24.1959Z" fill="#D2EDF7"/>
<path d="M59.7103 29.1443C59.7103 30.5962 57.7077 31.7732 55.2372 31.7732C52.7668 31.7732 50.7641 30.5962 50.7641 29.1443C50.7641 27.6924 52.7668 26.5155 55.2372 26.5155C57.7077 26.5155 59.7103 27.6924 59.7103 29.1443Z" fill="#D2EDF7"/>
<path d="M53.8565 39.8814C53.4676 40.1286 53.232 40.5575 53.232 41.0183C53.232 42.0597 54.3631 42.7074 55.2612 42.1803L58.8541 40.0718C59.289 39.8166 59.5561 39.3501 59.5561 38.8458C59.5561 37.7245 58.3183 37.0447 57.372 37.6463L53.8565 39.8814Z" fill="#D2EDF7"/>
<path d="M65.6035 36.1746C65.0397 37.1535 64.0444 37.6355 63.3805 37.2512C62.7165 36.8669 62.6353 35.7618 63.199 34.7828C63.7628 33.8039 64.758 33.3219 65.422 33.7062C66.0859 34.0905 66.1672 35.1956 65.6035 36.1746Z" fill="#D2EDF7"/>
<path d="M48.945 45.782C48.3812 46.7609 47.386 47.2429 46.722 46.8586C46.058 46.4743 45.9768 45.3692 46.5405 44.3902C47.1043 43.4113 48.0995 42.9293 48.7635 43.3136C49.4275 43.6979 49.5087 44.8031 48.945 45.782Z" fill="#D2EDF7"/>
<path fill-rule="evenodd" clip-rule="evenodd" d="M68.8108 59.0137C68.8108 60.4354 68.0563 61.7502 66.8288 62.4674L43.6688 76V51.7217V42.9072L23 30.3814L46.4484 17.1313C47.688 16.4309 49.2065 16.4421 50.4355 17.1609L68.8108 27.9072V37.1856V59.0137ZM49.5302 35.0206C49.5302 36.4725 47.5275 37.6495 45.0571 37.6495C42.5866 37.6495 40.5839 36.4725 40.5839 35.0206C40.5839 33.5687 42.5866 32.3918 45.0571 32.3918C47.5275 32.3918 49.5302 33.5687 49.5302 35.0206ZM55.2372 31.7732C57.7077 31.7732 59.7103 30.5962 59.7103 29.1443C59.7103 27.6924 57.7077 26.5155 55.2372 26.5155C52.7668 26.5155 50.7641 27.6924 50.7641 29.1443C50.7641 30.5962 52.7668 31.7732 55.2372 31.7732ZM51.0726 24.1959C51.0726 25.6478 49.0699 26.8247 46.5995 26.8247C44.1291 26.8247 42.1264 25.6478 42.1264 24.1959C42.1264 22.744 44.1291 21.567 46.5995 21.567C49.0699 21.567 51.0726 22.744 51.0726 24.1959ZM36.7278 32.701C39.1982 32.701 41.2009 31.524 41.2009 30.0722C41.2009 28.6203 39.1982 27.4433 36.7278 27.4433C34.2574 27.4433 32.2547 28.6203 32.2547 30.0722C32.2547 31.524 34.2574 32.701 36.7278 32.701ZM53.8565 39.8814C53.4676 40.1286 53.232 40.5575 53.232 41.0183C53.232 42.0597 54.3631 42.7074 55.2612 42.1803L58.8541 40.0718C59.289 39.8166 59.5561 39.3501 59.5561 38.8458C59.5561 37.7245 58.3183 37.0447 57.372 37.6463L53.8565 39.8814ZM63.3805 37.2512C64.0444 37.6355 65.0397 37.1535 65.6035 36.1746C66.1672 35.1956 66.0859 34.0905 65.422 33.7062C64.758 33.3219 63.7628 33.8039 63.199 34.7828C62.6353 35.7618 62.7165 36.8669 63.3805 37.2512ZM48.945 45.782C48.3812 46.7609 47.386 47.2429 46.722 46.8586C46.058 46.4743 45.9768 45.3692 46.5405 44.3902C47.1043 43.4113 48.0995 42.9293 48.7635 43.3136C49.4275 43.6979 49.5087 44.8031 48.945 45.782ZM59.4323 50.813C62.099 49.2887 65.4174 51.2141 65.4174 54.2857V56.5142C65.4174 57.9494 64.6485 59.2746 63.4025 59.9868L53.8186 65.4653C51.1519 66.9897 47.8335 65.0642 47.8335 61.9927V59.7642C47.8335 58.329 48.6024 57.0038 49.8484 56.2915L59.4323 50.813Z" fill="white"/>
<path d="M63.4025 59.9868C64.6485 59.2746 65.4174 57.9494 65.4174 56.5142V54.2857C65.4174 51.2141 62.099 49.2887 59.4323 50.813L49.8484 56.2915C48.6024 57.0038 47.8335 58.329 47.8335 59.7642V61.9927C47.8335 65.0642 51.1519 66.9897 53.8186 65.4653L63.4025 59.9868Z" fill="#D2EDF7"/>
<path d="M43.6688 42.9072L23 30.3814M43.6688 42.9072L68.8108 27.9072M43.6688 42.9072V51.7217M23 30.3814L46.4484 17.1313C47.688 16.4309 49.2065 16.4421 50.4355 17.1609L68.8108 27.9072M23 30.3814V39.9691M43.6688 76L24.9457 64.7935C23.7388 64.0711 23 62.7679 23 61.3613V39.9691M43.6688 76L66.8288 62.4674C68.0563 61.7502 68.8108 60.4354 68.8108 59.0137V37.1856M43.6688 76V51.7217M68.8108 27.9072V37.1856M43.6688 51.7217L23 39.9691M43.6688 51.7217L68.8108 37.1856M50.9184 51.8763L61.2528 45.8454M49.5302 35.0206C49.5302 36.4725 47.5275 37.6495 45.0571 37.6495C42.5866 37.6495 40.5839 36.4725 40.5839 35.0206C40.5839 33.5687 42.5866 32.3918 45.0571 32.3918C47.5275 32.3918 49.5302 33.5687 49.5302 35.0206ZM59.7103 29.1443C59.7103 30.5962 57.7077 31.7732 55.2372 31.7732C52.7668 31.7732 50.7641 30.5962 50.7641 29.1443C50.7641 27.6924 52.7668 26.5155 55.2372 26.5155C57.7077 26.5155 59.7103 27.6924 59.7103 29.1443ZM51.0726 24.1959C51.0726 25.6478 49.0699 26.8247 46.5995 26.8247C44.1291 26.8247 42.1264 25.6478 42.1264 24.1959C42.1264 22.744 44.1291 21.567 46.5995 21.567C49.0699 21.567 51.0726 22.744 51.0726 24.1959ZM41.2009 30.0722C41.2009 31.524 39.1982 32.701 36.7278 32.701C34.2574 32.701 32.2547 31.524 32.2547 30.0722C32.2547 28.6203 34.2574 27.4433 36.7278 27.4433C39.1982 27.4433 41.2009 28.6203 41.2009 30.0722ZM48.945 45.782C48.3812 46.7609 47.386 47.2429 46.722 46.8586C46.058 46.4743 45.9768 45.3692 46.5405 44.3902C47.1043 43.4113 48.0995 42.9293 48.7635 43.3136C49.4275 43.6979 49.5087 44.8031 48.945 45.782ZM65.6035 36.1746C65.0397 37.1535 64.0444 37.6355 63.3805 37.2512C62.7165 36.8669 62.6353 35.7618 63.199 34.7828C63.7628 33.8039 64.758 33.3219 65.422 33.7062C66.0859 34.0905 66.1672 35.1956 65.6035 36.1746ZM59.5561 38.8458V38.8458C59.5561 39.3501 59.289 39.8166 58.8541 40.0718L55.2612 42.1803C54.3631 42.7074 53.232 42.0597 53.232 41.0183V41.0183C53.232 40.5575 53.4676 40.1286 53.8565 39.8814L57.372 37.6463C58.3183 37.0447 59.5561 37.7245 59.5561 38.8458ZM49.8484 56.2915L59.4323 50.813C62.099 49.2887 65.4174 51.2141 65.4174 54.2857V56.5142C65.4174 57.9494 64.6485 59.2746 63.4025 59.9868L53.8186 65.4653C51.1519 66.9897 47.8335 65.0642 47.8335 61.9927V59.7642C47.8335 58.329 48.6024 57.0038 49.8484 56.2915Z" stroke="#18282E" stroke-width="1.25" stroke-linecap="round"/>
</g>
<defs>
<filter id="filter0_d_2620_16555" x="10.375" y="7.98926" width="71.0605" height="84.7373" filterUnits="userSpaceOnUse" color-interpolation-filters="sRGB">
<feFlood flood-opacity="0" result="BackgroundImageFix"/>
<feColorMatrix in="SourceAlpha" type="matrix" values="0 0 0 0 0 0 0 0 0 0 0 0 0 0 0 0 0 0 127 0" result="hardAlpha"/>
<feOffset dy="4"/>
<feGaussianBlur stdDeviation="6"/>
<feComposite in2="hardAlpha" operator="out"/>
<feColorMatrix type="matrix" values="0 0 0 0 0 0 0 0 0 0 0 0 0 0 0 0 0 0 0.25 0"/>
<feBlend mode="normal" in2="BackgroundImageFix" result="effect1_dropShadow_2620_16555"/>
<feBlend mode="normal" in="SourceGraphic" in2="effect1_dropShadow_2620_16555" result="shape"/>
</filter>
</defs>
</svg>
