<svg width="143" height="167" viewBox="0 0 143 167" fill="none" xmlns="http://www.w3.org/2000/svg">
<g filter="url(#filter0_d_2620_16557)">
<path d="M31.0146 105.29C31.0146 107.749 32.306 110.027 34.4157 111.29L67.1433 130.879V88.4406L31.0146 67.8973V105.29Z" fill="#D2EDF7"/>
<path d="M67.1433 73.0331L31.0146 51.1384V67.8973L67.1433 88.4406V73.0331Z" fill="#D2EDF7"/>
<path d="M77.3887 59.2476C77.3887 61.7854 73.8881 63.8428 69.5698 63.8428C65.2516 63.8428 61.7509 61.7854 61.7509 59.2476C61.7509 56.7097 65.2516 54.6524 69.5698 54.6524C73.8881 54.6524 77.3887 56.7097 77.3887 59.2476Z" fill="#D2EDF7"/>
<path d="M62.8294 50.5978C62.8294 53.1356 59.3288 55.193 55.0105 55.193C50.6923 55.193 47.1916 53.1356 47.1916 50.5978C47.1916 48.0599 50.6923 46.0026 55.0105 46.0026C59.3288 46.0026 62.8294 48.0599 62.8294 50.5978Z" fill="#D2EDF7"/>
<path d="M80.0849 40.3262C80.0849 42.864 76.5842 44.9214 72.266 44.9214C67.9478 44.9214 64.4471 42.864 64.4471 40.3262C64.4471 37.7883 67.9478 35.731 72.266 35.731C76.5842 35.731 80.0849 37.7883 80.0849 40.3262Z" fill="#D2EDF7"/>
<path d="M95.1834 48.976C95.1834 51.5138 91.6828 53.5712 87.3645 53.5712C83.0463 53.5712 79.5457 51.5138 79.5457 48.976C79.5457 46.4381 83.0463 44.3808 87.3645 44.3808C91.6828 44.3808 95.1834 46.4381 95.1834 48.976Z" fill="#D2EDF7"/>
<path d="M84.951 67.744C84.2712 68.1762 83.8595 68.9258 83.8595 69.7314C83.8595 71.5517 85.8366 72.6838 87.4065 71.7625L93.6867 68.0769C94.4469 67.6308 94.9138 66.8153 94.9138 65.934C94.9138 63.9738 92.7502 62.7855 91.0961 63.8372L84.951 67.744Z" fill="#D2EDF7"/>
<path d="M105.484 61.2647C104.499 62.9758 102.759 63.8184 101.599 63.1466C100.438 62.4748 100.296 60.5431 101.282 58.8319C102.267 57.1208 104.007 56.2782 105.167 56.95C106.328 57.6218 106.47 59.5535 105.484 61.2647Z" fill="#D2EDF7"/>
<path d="M76.3658 78.0582C75.3804 79.7693 73.6407 80.6119 72.4801 79.9401C71.3195 79.2683 71.1775 77.3366 72.1629 75.6254C73.1483 73.9143 74.888 73.0717 76.0486 73.7435C77.2092 74.4153 77.3512 76.347 76.3658 78.0582Z" fill="#D2EDF7"/>
<path fill-rule="evenodd" clip-rule="evenodd" d="M111.091 101.187C111.091 103.672 109.772 105.97 107.626 107.224L67.1433 130.879V88.4406V73.0331L31.0146 51.1384L72.0018 27.9775C74.1686 26.7531 76.8229 26.7728 78.9713 28.0293L111.091 46.8135V63.0318V101.187ZM77.3887 59.2476C77.3887 61.7854 73.8881 63.8428 69.5698 63.8428C65.2516 63.8428 61.7509 61.7854 61.7509 59.2476C61.7509 56.7097 65.2516 54.6524 69.5698 54.6524C73.8881 54.6524 77.3887 56.7097 77.3887 59.2476ZM87.3645 53.5712C91.6828 53.5712 95.1834 51.5138 95.1834 48.976C95.1834 46.4381 91.6828 44.3808 87.3645 44.3808C83.0463 44.3808 79.5457 46.4381 79.5457 48.976C79.5457 51.5138 83.0463 53.5712 87.3645 53.5712ZM80.0849 40.3262C80.0849 42.864 76.5842 44.9214 72.266 44.9214C67.9478 44.9214 64.4471 42.864 64.4471 40.3262C64.4471 37.7883 67.9478 35.731 72.266 35.731C76.5842 35.731 80.0849 37.7883 80.0849 40.3262ZM55.0105 55.193C59.3288 55.193 62.8294 53.1356 62.8294 50.5978C62.8294 48.0599 59.3288 46.0026 55.0105 46.0026C50.6923 46.0026 47.1916 48.0599 47.1916 50.5978C47.1916 53.1356 50.6923 55.193 55.0105 55.193ZM84.951 67.744C84.2712 68.1762 83.8595 68.9258 83.8595 69.7314C83.8595 71.5517 85.8366 72.6838 87.4065 71.7625L93.6867 68.0769C94.4469 67.6308 94.9138 66.8153 94.9138 65.934C94.9138 63.9738 92.7502 62.7855 91.0961 63.8372L84.951 67.744ZM101.599 63.1466C102.759 63.8184 104.499 62.9758 105.484 61.2647C106.47 59.5535 106.328 57.6218 105.167 56.95C104.007 56.2782 102.267 57.1208 101.282 58.8319C100.296 60.5431 100.438 62.4748 101.599 63.1466ZM76.3658 78.0582C75.3804 79.7693 73.6407 80.6119 72.4801 79.9401C71.3195 79.2683 71.1775 77.3366 72.1629 75.6254C73.1483 73.9143 74.888 73.0717 76.0486 73.7435C77.2092 74.4153 77.3512 76.347 76.3658 78.0582ZM94.6974 86.8523C99.3586 84.1878 105.159 87.5534 105.159 92.9224V96.8178C105.159 99.3265 103.815 101.643 101.637 102.888L84.8847 112.464C80.2235 115.129 74.4229 111.763 74.4229 106.394V102.499C74.4229 99.99 75.767 97.6736 77.9449 96.4286L94.6974 86.8523Z" fill="white"/>
<path d="M101.637 102.888C103.815 101.643 105.159 99.3265 105.159 96.8178V92.9224C105.159 87.5534 99.3586 84.1878 94.6974 86.8523L77.9449 96.4286C75.767 97.6736 74.4229 99.99 74.4229 102.499V106.394C74.4229 111.763 80.2235 115.129 84.8847 112.464L101.637 102.888Z" fill="#D2EDF7"/>
<path d="M67.1433 73.0331L31.0146 51.1384M67.1433 73.0331L111.091 46.8135M67.1433 73.0331V88.4406M31.0146 51.1384L72.0018 27.9775C74.1686 26.7531 76.8229 26.7728 78.9713 28.0293L111.091 46.8135M31.0146 51.1384V67.8973M67.1433 130.879L34.4157 111.29C32.306 110.027 31.0146 107.749 31.0146 105.29V67.8973M67.1433 130.879L107.626 107.224C109.772 105.97 111.091 103.672 111.091 101.187V63.0318M67.1433 130.879V88.4406M111.091 46.8135V63.0318M67.1433 88.4406L31.0146 67.8973M67.1433 88.4406L111.091 63.0318M79.8153 88.7109L97.8796 78.1689M77.3887 59.2476C77.3887 61.7854 73.8881 63.8428 69.5698 63.8428C65.2516 63.8428 61.751 61.7854 61.751 59.2476C61.751 56.7097 65.2516 54.6524 69.5698 54.6524C73.8881 54.6524 77.3887 56.7097 77.3887 59.2476ZM95.1834 48.976C95.1834 51.5138 91.6828 53.5712 87.3645 53.5712C83.0463 53.5712 79.5456 51.5138 79.5456 48.976C79.5456 46.4381 83.0463 44.3808 87.3645 44.3808C91.6828 44.3808 95.1834 46.4381 95.1834 48.976ZM80.0849 40.3262C80.0849 42.864 76.5842 44.9214 72.266 44.9214C67.9477 44.9214 64.4471 42.864 64.4471 40.3262C64.4471 37.7883 67.9477 35.731 72.266 35.731C76.5842 35.731 80.0849 37.7883 80.0849 40.3262ZM62.8294 50.5978C62.8294 53.1356 59.3288 55.193 55.0105 55.193C50.6923 55.193 47.1916 53.1356 47.1916 50.5978C47.1916 48.0599 50.6923 46.0026 55.0105 46.0026C59.3288 46.0026 62.8294 48.0599 62.8294 50.5978ZM76.3658 78.0582C75.3804 79.7693 73.6407 80.6119 72.4801 79.9401C71.3195 79.2683 71.1775 77.3366 72.1629 75.6254C73.1483 73.9143 74.888 73.0717 76.0486 73.7435C77.2092 74.4153 77.3512 76.347 76.3658 78.0582ZM105.484 61.2647C104.499 62.9758 102.759 63.8184 101.599 63.1466C100.438 62.4748 100.296 60.5431 101.282 58.8319C102.267 57.1208 104.007 56.2782 105.167 56.95C106.328 57.6218 106.47 59.5535 105.484 61.2647ZM94.9138 65.934V65.934C94.9138 66.8153 94.4469 67.6308 93.6867 68.0769L87.4065 71.7625C85.8366 72.6838 83.8595 71.5517 83.8595 69.7314V69.7314C83.8595 68.9258 84.2712 68.1762 84.951 67.744L91.0961 63.8372C92.7502 62.7855 94.9138 63.9738 94.9138 65.934ZM77.9449 96.4286L94.6974 86.8523C99.3586 84.1878 105.159 87.5534 105.159 92.9224V96.8178C105.159 99.3265 103.815 101.643 101.637 102.888L84.8847 112.464C80.2235 115.129 74.4229 111.763 74.4229 106.394V102.499C74.4229 99.99 75.767 97.6736 77.9449 96.4286Z" stroke="#18282E" stroke-width="2" stroke-linecap="round"/>
</g>
<defs>
<filter id="filter0_d_2620_16557" x="0.0146484" y="0.573242" width="142.076" height="165.967" filterUnits="userSpaceOnUse" color-interpolation-filters="sRGB">
<feFlood flood-opacity="0" result="BackgroundImageFix"/>
<feColorMatrix in="SourceAlpha" type="matrix" values="0 0 0 0 0 0 0 0 0 0 0 0 0 0 0 0 0 0 127 0" result="hardAlpha"/>
<feOffset dy="4.5"/>
<feGaussianBlur stdDeviation="15"/>
<feComposite in2="hardAlpha" operator="out"/>
<feColorMatrix type="matrix" values="0 0 0 0 0 0 0 0 0 0 0 0 0 0 0 0 0 0 0.25 0"/>
<feBlend mode="normal" in2="BackgroundImageFix" result="effect1_dropShadow_2620_16557"/>
<feBlend mode="normal" in="SourceGraphic" in2="effect1_dropShadow_2620_16557" result="shape"/>
</filter>
</defs>
</svg>
