<svg width="256" height="280" viewBox="0 0 256 280" fill="none" xmlns="http://www.w3.org/2000/svg">
<g filter="url(#filter0_d_2620_16533)">
<path d="M109.077 221.98V165.916L52.4932 134.25V186.875C52.4932 188.999 53.6411 190.957 55.4945 191.994L109.077 221.98Z" fill="#D2EDF7"/>
<path d="M144.896 96.0947V117.638L184.349 140.78V117.638L144.896 96.0947Z" fill="#D2EDF7"/>
<path d="M87.2739 132.173V88.5675L69.624 79.2234V122.31L87.2739 132.173Z" fill="#D2EDF7"/>
<path fill-rule="evenodd" clip-rule="evenodd" d="M126.727 212.186L109.077 221.98V165.916L52.4932 134.25L69.624 122.31L87.2739 132.173V88.5675L69.624 79.2234L123.95 47.6153C125.68 46.6089 127.804 46.5538 129.583 47.469L144.896 55.3441V84.6929C144.896 80.1814 149.776 77.3586 153.687 79.6081L203.556 108.294V166.096C203.556 168.228 202.4 170.191 200.536 171.225L184.349 180.209L126.727 212.186ZM144.896 117.638V96.0947L184.349 117.638V140.78L126.727 172.664V155.534L101.809 140.78L144.896 117.638Z" fill="white"/>
<path d="M101.809 140.78L126.727 155.534V172.664L184.349 140.78L144.896 117.638L101.809 140.78Z" fill="#D2EDF7"/>
<path d="M109.077 221.98V165.916M109.077 221.98L126.727 212.186M109.077 221.98L55.4945 191.994M109.077 165.916L52.4932 134.25M109.077 165.916L126.727 155.534M52.4932 134.25L69.624 122.31M52.4932 134.25V186.875M203.556 108.294L184.349 117.638M203.556 108.294L153.687 79.6081M203.556 108.294V166.096M144.896 117.638V96.0947M144.896 117.638L101.809 140.78M144.896 117.638L184.349 140.78M144.896 55.3441L87.2739 88.5675M144.896 55.3441L129.583 47.469M144.896 55.3441V84.6929M87.2739 88.5675V132.173M87.2739 88.5675L69.624 79.2234M87.2739 132.173L69.624 122.31M87.2739 132.173L101.809 140.78M69.624 122.31V79.2234M69.624 79.2234L123.95 47.6153M184.349 117.638L144.896 96.0947M184.349 117.638V140.78M144.896 96.0947V84.6929M184.349 180.209L126.727 212.186M184.349 180.209V154.495M184.349 180.209L200.536 171.225M126.727 212.186V187.2M126.727 155.534L101.809 140.78M126.727 155.534V172.664M184.349 140.78L126.727 172.664M184.349 140.78V154.495M126.727 172.664V187.2M126.727 187.2L184.349 154.495M55.4945 191.994C53.6411 190.957 52.4932 188.999 52.4932 186.875M55.4945 191.994V191.994C53.6411 190.957 52.4932 188.999 52.4932 186.875V186.875M123.95 47.6153C125.68 46.6089 127.804 46.5538 129.583 47.469M123.95 47.6153V47.6153C125.68 46.6089 127.804 46.5538 129.583 47.469V47.469M144.896 84.6929C144.896 80.1814 149.776 77.3586 153.687 79.6081M144.896 84.6929V84.6929C144.896 80.1814 149.776 77.3586 153.687 79.6081V79.6081M203.556 166.096C203.556 168.228 202.4 170.191 200.536 171.225M203.556 166.096V166.096C203.556 168.228 202.4 170.191 200.536 171.225V171.225" stroke="#18282E" stroke-width="4"/>
</g>
<defs>
<filter id="filter0_d_2620_16533" x="0.493164" y="0.319336" width="255.062" height="279.45" filterUnits="userSpaceOnUse" color-interpolation-filters="sRGB">
<feFlood flood-opacity="0" result="BackgroundImageFix"/>
<feColorMatrix in="SourceAlpha" type="matrix" values="0 0 0 0 0 0 0 0 0 0 0 0 0 0 0 0 0 0 127 0" result="hardAlpha"/>
<feOffset dy="5.5"/>
<feGaussianBlur stdDeviation="25"/>
<feComposite in2="hardAlpha" operator="out"/>
<feColorMatrix type="matrix" values="0 0 0 0 0 0 0 0 0 0 0 0 0 0 0 0 0 0 0.25 0"/>
<feBlend mode="normal" in2="BackgroundImageFix" result="effect1_dropShadow_2620_16533"/>
<feBlend mode="normal" in="SourceGraphic" in2="effect1_dropShadow_2620_16533" result="shape"/>
</filter>
</defs>
</svg>
