<svg width="153" height="168" viewBox="0 0 153 168" fill="none" xmlns="http://www.w3.org/2000/svg">
<g filter="url(#filter0_d_2620_16532)">
<path d="M65.5228 131.879V98.4659L31.8008 79.5939V110.957C31.8008 112.223 32.4849 113.389 33.5895 114.008L65.5228 131.879Z" fill="#D2EDF7"/>
<path d="M86.8697 56.8548V69.6939L110.382 83.4856V69.6939L86.8697 56.8548Z" fill="#D2EDF7"/>
<path d="M52.529 78.3564V52.3688L42.0102 46.8001V72.4783L52.529 78.3564Z" fill="#D2EDF7"/>
<path fill-rule="evenodd" clip-rule="evenodd" d="M76.0416 126.041L65.5228 131.879V98.4659L31.8008 79.5939L42.0102 72.4783L52.529 78.3564V52.3688L42.0102 46.8001L74.387 27.9627C75.4178 27.3629 76.6833 27.33 77.7439 27.8755L86.8697 32.5688V50.0597C86.8697 47.371 89.7782 45.6887 92.1088 47.0293L121.829 64.1251V98.5734C121.829 99.8436 121.14 101.014 120.03 101.63L110.382 106.984L76.0416 126.041ZM86.8697 69.6939V56.8548L110.382 69.6939V83.4856L76.0416 102.488V92.2784L61.1915 83.4856L86.8697 69.6939Z" fill="white"/>
<path d="M61.1915 83.4856L76.0416 92.2784V102.488L110.382 83.4856L86.8697 69.6939L61.1915 83.4856Z" fill="#D2EDF7"/>
<path d="M65.5228 131.879V98.4659M65.5228 131.879L76.0416 126.041M65.5228 131.879L33.5895 114.008M65.5228 98.4659L31.8008 79.5939M65.5228 98.4659L76.0416 92.2784M31.8008 79.5939L42.0102 72.4783M31.8008 79.5939V110.957M121.829 64.1251L110.382 69.6939M121.829 64.1251L92.1088 47.0293M121.829 64.1251V98.5734M86.8697 69.6939V56.8548M86.8697 69.6939L61.1915 83.4856M86.8697 69.6939L110.382 83.4856M86.8697 32.5688L52.529 52.3688M86.8697 32.5688L77.7439 27.8755M86.8697 32.5688V50.0597M52.529 52.3688V78.3564M52.529 52.3688L42.0102 46.8001M52.529 78.3564L42.0102 72.4783M52.529 78.3564L61.1915 83.4856M42.0102 72.4783V46.8001M42.0102 46.8001L74.387 27.9627M110.382 69.6939L86.8697 56.8548M110.382 69.6939V83.4856M86.8697 56.8548V50.0597M110.382 106.984L76.0416 126.041M110.382 106.984V91.6596M110.382 106.984L120.03 101.63M76.0416 126.041V111.15M76.0416 92.2784L61.1915 83.4856M76.0416 92.2784V102.488M110.382 83.4856L76.0416 102.488M110.382 83.4856V91.6596M76.0416 102.488V111.15M76.0416 111.15L110.382 91.6596M33.5895 114.008C32.4849 113.389 31.8008 112.223 31.8008 110.957M33.5895 114.008V114.008C32.4849 113.389 31.8008 112.223 31.8008 110.957V110.957M74.387 27.9627C75.4178 27.3629 76.6833 27.33 77.7439 27.8755M74.387 27.9627V27.9627C75.4178 27.3629 76.6833 27.33 77.7439 27.8755V27.8755M86.8697 50.0597C86.8697 47.371 89.7782 45.6887 92.1088 47.0293M86.8697 50.0597V50.0597C86.8697 47.371 89.7782 45.6887 92.1088 47.0293V47.0293M121.829 98.5734C121.829 99.8436 121.14 101.014 120.03 101.63M121.829 98.5734V98.5734C121.829 99.8436 121.14 101.014 120.03 101.63V101.63" stroke="#18282E" stroke-width="2"/>
</g>
<defs>
<filter id="filter0_d_2620_16532" x="0.800781" y="0.988281" width="152.028" height="166.535" filterUnits="userSpaceOnUse" color-interpolation-filters="sRGB">
<feFlood flood-opacity="0" result="BackgroundImageFix"/>
<feColorMatrix in="SourceAlpha" type="matrix" values="0 0 0 0 0 0 0 0 0 0 0 0 0 0 0 0 0 0 127 0" result="hardAlpha"/>
<feOffset dy="4.5"/>
<feGaussianBlur stdDeviation="15"/>
<feComposite in2="hardAlpha" operator="out"/>
<feColorMatrix type="matrix" values="0 0 0 0 0 0 0 0 0 0 0 0 0 0 0 0 0 0 0.25 0"/>
<feBlend mode="normal" in2="BackgroundImageFix" result="effect1_dropShadow_2620_16532"/>
<feBlend mode="normal" in="SourceGraphic" in2="effect1_dropShadow_2620_16532" result="shape"/>
</filter>
</defs>
</svg>
