<svg width="92" height="93" viewBox="0 0 92 93" fill="none" xmlns="http://www.w3.org/2000/svg">
<g filter="url(#filter0_d_2620_16554)">
<path d="M39.292 76V56.885L20 46.0885V64.0309C20 64.755 20.3914 65.4226 21.0233 65.7762L39.292 76Z" fill="#D2EDF7"/>
<path d="M51.5044 33.0796V40.4248L64.9558 48.3149V40.4248L51.5044 33.0796Z" fill="#D2EDF7"/>
<path d="M31.8584 45.3805V30.5133L25.8407 27.3274V42.0177L31.8584 45.3805Z" fill="#D2EDF7"/>
<path fill-rule="evenodd" clip-rule="evenodd" d="M45.3097 72.6605L39.292 76V56.885L20 46.0885L25.8407 42.0177L31.8584 45.3805V30.5133L25.8407 27.3274L44.3631 16.5507C44.9529 16.2076 45.6769 16.1888 46.2836 16.5009L51.5044 19.1858V29.1922C51.5044 27.6541 53.1683 26.6916 54.5017 27.4586L71.5044 37.2389V56.9465C71.5044 57.6731 71.1103 58.3426 70.4749 58.6952L64.9558 61.758L45.3097 72.6605ZM51.5044 40.4248V33.0796L64.9558 40.4248V48.3149L45.3097 59.1858V53.3451L36.8142 48.3149L51.5044 40.4248Z" fill="white"/>
<path d="M36.8142 48.3149L45.3097 53.3451V59.1858L64.9558 48.3149L51.5044 40.4248L36.8142 48.3149Z" fill="#D2EDF7"/>
<path d="M39.292 76V56.885M39.292 76L45.3097 72.6605M39.292 76L21.0233 65.7762M39.292 56.885L20 46.0885M39.292 56.885L45.3097 53.3451M20 46.0885L25.8407 42.0177M20 46.0885V64.0309M71.5044 37.2389L64.9558 40.4248M71.5044 37.2389L54.5017 27.4586M71.5044 37.2389V56.9465M51.5044 40.4248V33.0796M51.5044 40.4248L36.8142 48.3149M51.5044 40.4248L64.9558 48.3149M51.5044 19.1858L31.8584 30.5133M51.5044 19.1858L46.2836 16.5009M51.5044 19.1858V29.1922M31.8584 30.5133V45.3805M31.8584 30.5133L25.8407 27.3274M31.8584 45.3805L25.8407 42.0177M31.8584 45.3805L36.8142 48.3149M25.8407 42.0177V27.3274M25.8407 27.3274L44.3631 16.5507M64.9558 40.4248L51.5044 33.0796M64.9558 40.4248V48.3149M51.5044 33.0796V29.1922M64.9558 61.758L45.3097 72.6605M64.9558 61.758V52.9911M64.9558 61.758L70.4749 58.6952M45.3097 72.6605V64.1416M45.3097 53.3451L36.8142 48.3149M45.3097 53.3451V59.1858M64.9558 48.3149L45.3097 59.1858M64.9558 48.3149V52.9911M45.3097 59.1858V64.1416M45.3097 64.1416L64.9558 52.9911M21.0233 65.7762C20.3914 65.4226 20 64.755 20 64.0309M21.0233 65.7762V65.7762C20.3914 65.4226 20 64.755 20 64.0309V64.0309M44.3631 16.5507C44.9529 16.2076 45.6769 16.1888 46.2836 16.5009M44.3631 16.5507V16.5507C44.9529 16.2076 45.6769 16.1888 46.2836 16.5009V16.5009M51.5044 29.1922C51.5044 27.6541 53.1683 26.6916 54.5017 27.4586M51.5044 29.1922V29.1922C51.5044 27.6541 53.1683 26.6916 54.5017 27.4586V27.4586M71.5044 56.9465C71.5044 57.6731 71.1103 58.3426 70.4749 58.6952M71.5044 56.9465V56.9465C71.5044 57.6731 71.1103 58.3426 70.4749 58.6952V58.6952" stroke="#18282E" stroke-width="1.25"/>
</g>
<defs>
<filter id="filter0_d_2620_16554" x="7.375" y="7.6543" width="76.7549" height="85.0615" filterUnits="userSpaceOnUse" color-interpolation-filters="sRGB">
<feFlood flood-opacity="0" result="BackgroundImageFix"/>
<feColorMatrix in="SourceAlpha" type="matrix" values="0 0 0 0 0 0 0 0 0 0 0 0 0 0 0 0 0 0 127 0" result="hardAlpha"/>
<feOffset dy="4"/>
<feGaussianBlur stdDeviation="6"/>
<feComposite in2="hardAlpha" operator="out"/>
<feColorMatrix type="matrix" values="0 0 0 0 0 0 0 0 0 0 0 0 0 0 0 0 0 0 0.25 0"/>
<feBlend mode="normal" in2="BackgroundImageFix" result="effect1_dropShadow_2620_16554"/>
<feBlend mode="normal" in="SourceGraphic" in2="effect1_dropShadow_2620_16554" result="shape"/>
</filter>
</defs>
</svg>
