<svg width="266" height="264" viewBox="0 0 266 264" fill="none" xmlns="http://www.w3.org/2000/svg">
<g filter="url(#filter0_d_2620_19255)">
<path d="M205.288 138.471C206.148 135.823 204.999 132.938 202.553 131.607L161.8 109.423V121.886L203.158 145.03L205.288 138.471Z" fill="#FEFACC"/>
<path d="M146.06 168.174L52.5195 116.545V149.671C52.5195 151.754 53.64 153.676 55.4526 154.702L146.06 206.007V168.174Z" fill="#FEFACC"/>
<path d="M135.267 115.209L89.8459 89.3943V93.8452V102.302V116.683C89.8459 118.793 90.996 120.736 92.8464 121.752L135.267 145.03V115.209Z" fill="#FEFACC"/>
<path d="M132.119 106.753V91.6198L104.237 76.0418V80.0476V86.183C104.237 88.1802 105.268 90.036 106.963 91.0916L132.119 106.753Z" fill="#FEFACC"/>
<path d="M120.876 78.5252C120.876 80.069 121.463 81.633 122.86 82.2895C125.687 83.6179 129.614 83.6025 132.219 82.2435C133.452 81.6004 133.918 80.1724 133.918 78.782V72.9262V52.1598L133.916 51.9766C133.89 51.0604 133.669 50.1424 133.059 49.4604C130.087 46.1378 124.106 46.1804 121.525 49.5882C121.021 50.2522 120.876 51.1032 120.876 51.9362V65.8048V78.5252Z" fill="#FEFACC"/>
<path d="M205.423 165.949L146.06 168.174V206.007H180.813C181.327 206.007 181.845 205.941 182.337 205.789C195.117 201.866 198.961 189.154 205.423 165.949Z" fill="white"/>
<path d="M135.267 145.03L92.8464 121.752C90.996 120.736 89.8459 118.793 89.8459 116.683V102.302L77.3556 110.095C73.6475 112.409 73.7482 117.842 77.5395 120.016L146.877 159.787C147.813 160.323 148.88 160.588 149.958 160.55L194.632 158.971C197.061 158.885 199.177 157.289 199.927 154.978L203.158 145.03L161.8 121.886V126.934C161.8 129.037 160.659 130.974 158.819 131.993L135.267 145.03Z" fill="white"/>
<path d="M146.06 168.174L205.423 165.949L213.338 134.615C213.975 132.091 212.848 129.453 210.583 128.169L161.8 100.521V109.423L202.553 131.607C204.999 132.938 206.148 135.823 205.288 138.471L203.158 145.03L199.927 154.978C199.177 157.289 197.061 158.885 194.632 158.971L149.958 160.55C148.88 160.588 147.813 160.323 146.877 159.787L77.5395 120.016C73.7482 117.842 73.6475 112.409 77.3556 110.095L89.8459 102.302V93.8452L52.5195 116.545L146.06 168.174Z" fill="white"/>
<path d="M135.267 115.209V145.03L158.819 131.993C160.659 130.974 161.8 129.037 161.8 126.934V121.886V109.423V100.521L135.267 115.209Z" fill="white"/>
<path d="M89.8459 89.3943L135.267 115.209L161.8 100.521L149.658 92.955V93.1956C149.658 95.2516 148.566 97.1529 146.791 98.1893L132.119 106.753L106.963 91.0916C105.268 90.036 104.237 88.1802 104.237 86.183V80.0476L89.8459 89.3943Z" fill="white"/>
<path d="M132.119 91.6198V106.753L146.791 98.1893C148.566 97.1529 149.658 95.2516 149.658 93.1956V92.955V82.273L132.119 91.6198Z" fill="white"/>
<path d="M104.237 76.0418L132.119 91.6198L149.658 82.273L133.918 72.9262V78.782C133.918 80.1724 133.452 81.6004 132.219 82.2435C129.614 83.6025 125.687 83.6179 122.86 82.2895C121.463 81.633 120.876 80.069 120.876 78.5252V65.8048L104.237 76.0418Z" fill="white"/>
<path d="M52.5195 116.545L146.06 168.174M52.5195 116.545L89.8459 93.8452M52.5195 116.545V149.671M146.06 206.007V168.174M146.06 206.007H180.813M146.06 206.007L55.4526 154.702M205.423 165.949L146.06 168.174M205.423 165.949L213.338 134.615M205.423 165.949C198.961 189.154 195.117 201.866 182.337 205.789M132.119 173.515V185.088M120.876 165.949V179.747M111.432 160.608V173.515M99.7397 153.932V166.394M89.8459 148.591V160.608M79.0528 142.359V153.932M67.8099 135.683V148.591M89.8459 89.3943L135.267 115.209M89.8459 89.3943L104.237 80.0476M89.8459 89.3943V93.8452M135.267 115.209V145.03M135.267 115.209L161.8 100.521M135.267 145.03L92.8464 121.752C90.996 120.736 89.8459 118.793 89.8459 116.683V102.302M135.267 145.03L158.819 131.993C160.659 130.974 161.8 129.037 161.8 126.934V121.886M161.8 100.521L149.658 92.955M161.8 100.521V109.423M161.8 100.521L210.583 128.169M132.119 106.753V91.6198M132.119 106.753L106.963 91.0916C105.268 90.036 104.237 88.1802 104.237 86.183V80.0476M132.119 106.753L146.791 98.1893C148.566 97.1529 149.658 95.2516 149.658 93.1956V92.955M132.119 91.6198L104.237 76.0418M132.119 91.6198L149.658 82.273M104.237 76.0418L120.876 65.8048M104.237 76.0418V80.0476M149.658 82.273L133.918 72.9262M149.658 82.273V92.955M133.918 72.9262V78.782C133.918 80.1724 133.452 81.6004 132.219 82.2435C129.614 83.6025 125.687 83.6179 122.86 82.2895C121.463 81.633 120.876 80.069 120.876 78.5252V65.8048M133.918 72.9262L133.918 52.1598M120.876 65.8048V51.9362M89.8459 93.8452V102.302M89.8459 102.302L77.3556 110.095C73.6475 112.409 73.7482 117.842 77.5395 120.016L146.877 159.787C147.813 160.323 148.88 160.588 149.958 160.55L194.632 158.971C197.061 158.885 199.177 157.289 199.927 154.978L203.158 145.03M161.8 109.423L202.553 131.607C204.999 132.938 206.148 135.823 205.288 138.471L203.158 145.03M161.8 109.423V121.886M161.8 121.886L203.158 145.03M142.912 121.886V131.677M149.658 117.88V128.117M155.954 115.209V124.111M127.622 120.105V131.677M119.527 116.99V125.891M111.432 110.758V122.776M105.136 107.643V118.77M99.29 104.082V113.874M52.5195 149.671C52.5195 151.754 53.64 153.676 55.4526 154.702M52.5195 149.671V149.671C52.5195 151.754 53.64 153.676 55.4526 154.702V154.702M120.876 51.9362C120.876 51.1032 121.021 50.2522 121.525 49.5882M120.876 51.9362V51.9362C120.876 51.1032 121.021 50.2522 121.525 49.5882V49.5882M121.525 49.5882C124.106 46.1804 130.087 46.1378 133.059 49.4604M133.059 49.4604C133.1 49.506 133.14 49.5522 133.179 49.5991C133.732 50.2524 133.917 51.1209 133.916 51.9766V51.9766M133.059 49.4604C133.669 50.1424 133.89 51.0604 133.916 51.9766M133.918 52.1598C133.918 52.0988 133.917 52.0377 133.916 51.9766M133.918 52.1598L133.916 51.9766M210.583 128.169C212.848 129.453 213.975 132.091 213.338 134.615M210.583 128.169V128.169C212.848 129.453 213.975 132.091 213.338 134.615V134.615M182.337 205.789C181.845 205.941 181.327 206.007 180.813 206.007M182.337 205.789V205.789C181.845 205.941 181.327 206.007 180.813 206.007V206.007" stroke="#333015" stroke-width="4" stroke-linecap="round"/>
</g>
<defs>
<filter id="filter0_d_2620_19255" x="0.519531" y="0.5" width="264.995" height="263.007" filterUnits="userSpaceOnUse" color-interpolation-filters="sRGB">
<feFlood flood-opacity="0" result="BackgroundImageFix"/>
<feColorMatrix in="SourceAlpha" type="matrix" values="0 0 0 0 0 0 0 0 0 0 0 0 0 0 0 0 0 0 127 0" result="hardAlpha"/>
<feOffset dy="5.5"/>
<feGaussianBlur stdDeviation="25"/>
<feComposite in2="hardAlpha" operator="out"/>
<feColorMatrix type="matrix" values="0 0 0 0 0 0 0 0 0 0 0 0 0 0 0 0 0 0 0.25 0"/>
<feBlend mode="normal" in2="BackgroundImageFix" result="effect1_dropShadow_2620_19255"/>
<feBlend mode="normal" in="SourceGraphic" in2="effect1_dropShadow_2620_19255" result="shape"/>
</filter>
</defs>
</svg>
