<svg width="92" height="92" viewBox="0 0 92 92" fill="none" xmlns="http://www.w3.org/2000/svg">
<g filter="url(#filter0_d_2620_19291)">
<path d="M70.8424 49.6396C71.1399 48.7236 70.7423 47.7256 69.8964 47.2652L55.8 39.592V43.9027L70.1056 51.9083L70.8424 49.6396Z" fill="#FEFACC"/>
<path d="M50.3556 59.9139L18 42.0553V53.5136C18 54.2341 18.3876 54.8989 19.0146 55.254L50.3556 73V59.9139Z" fill="#FEFACC"/>
<path d="M46.6222 41.5934L30.9111 32.6641V34.2036V37.1288V42.1031C30.9111 42.8331 31.3089 43.5052 31.949 43.8564L46.6222 51.9083V41.5934Z" fill="#FEFACC"/>
<path d="M45.5333 38.6683V33.4339L35.8889 28.0455V29.4311V31.5533C35.8889 32.2441 36.2454 32.8861 36.8319 33.2512L45.5333 38.6683Z" fill="#FEFACC"/>
<path d="M41.6444 28.9045C41.6444 29.4385 41.8473 29.9795 42.3306 30.2066C43.3085 30.666 44.6667 30.6607 45.5679 30.1906C45.9944 29.9682 46.1556 29.4743 46.1556 28.9933V26.9678L46.1556 19.7848L46.1547 19.7214C46.1459 19.4045 46.0694 19.0869 45.8584 18.8511C44.8303 17.7018 42.7617 17.7165 41.8687 18.8952C41.6947 19.1249 41.6444 19.4193 41.6444 19.7074V24.5045V28.9045Z" fill="#FEFACC"/>
<path d="M70.8889 59.1442L50.3556 59.9139V73H62.3762C62.5542 73 62.7334 72.9772 62.9035 72.9249C67.3242 71.5677 68.6537 67.1707 70.8889 59.1442Z" fill="white"/>
<path d="M46.6222 51.9083L31.949 43.8564C31.3089 43.5052 30.9111 42.8331 30.9111 42.1031V37.1288L26.5907 39.8244C25.3081 40.6247 25.343 42.5039 26.6544 43.2561L50.6381 57.0127C50.9618 57.1983 51.331 57.2897 51.7039 57.2765L67.1564 56.7303C67.9965 56.7007 68.7283 56.1489 68.988 55.3494L70.1056 51.9083L55.8 43.9027V45.649C55.8 46.3764 55.405 47.0465 54.7686 47.3988L46.6222 51.9083Z" fill="white"/>
<path d="M50.3556 59.9139L70.8889 59.1442L73.6266 48.306C73.8472 47.4329 73.4571 46.5201 72.6737 46.0762L55.8 36.5129V39.592L69.8964 47.2652C70.7423 47.7256 71.1399 48.7236 70.8424 49.6396L70.1056 51.9083L68.988 55.3494C68.7283 56.1489 67.9965 56.7007 67.1564 56.7303L51.7039 57.2765C51.331 57.2897 50.9618 57.1983 50.6381 57.0127L26.6544 43.2561C25.343 42.5039 25.3081 40.6247 26.5907 39.8244L30.9111 37.1288V34.2036L18 42.0553L50.3556 59.9139Z" fill="white"/>
<path d="M46.6222 41.5934V51.9083L54.7686 47.3988C55.405 47.0465 55.8 46.3764 55.8 45.649V43.9027V39.592V36.5129L46.6222 41.5934Z" fill="white"/>
<path d="M30.9111 32.6641L46.6222 41.5934L55.8 36.5129L51.6 33.8957V33.979C51.6 34.6901 51.2224 35.3478 50.6082 35.7063L45.5333 38.6683L36.8319 33.2512C36.2454 32.8861 35.8889 32.2441 35.8889 31.5533V29.4311L30.9111 32.6641Z" fill="white"/>
<path d="M45.5333 33.4339V38.6683L50.6082 35.7063C51.2224 35.3478 51.6 34.6901 51.6 33.979V33.8957V30.2008L45.5333 33.4339Z" fill="white"/>
<path d="M35.8889 28.0455L45.5333 33.4339L51.6 30.2008L46.1556 26.9678V28.9933C46.1556 29.4743 45.9944 29.9682 45.5679 30.1906C44.6667 30.6607 43.3085 30.666 42.3306 30.2066C41.8473 29.9795 41.6444 29.4385 41.6444 28.9045V24.5045L35.8889 28.0455Z" fill="white"/>
<path d="M18 42.0553L50.3556 59.9139M18 42.0553L30.9111 34.2036M18 42.0553V53.5136M50.3556 73V59.9139M50.3556 73H62.3762M50.3556 73L19.0146 55.254M70.8889 59.1442L50.3556 59.9139M70.8889 59.1442L73.6266 48.306M70.8889 59.1442C68.6537 67.1707 67.3242 71.5677 62.9035 72.9249M45.5333 61.7614V65.7642M41.6444 59.1442V63.9167M38.3778 57.2967V61.7614M34.3333 54.9874V59.2981M30.9111 53.14V57.2967M27.1778 50.9846V54.9874M23.2889 48.6753V53.14M30.9111 32.6641L46.6222 41.5934M30.9111 32.6641L35.8889 29.4311M30.9111 32.6641V34.2036M46.6222 41.5934V51.9083M46.6222 41.5934L55.8 36.5129M46.6222 51.9083L31.949 43.8564C31.3089 43.5052 30.9111 42.8331 30.9111 42.1031V37.1288M46.6222 51.9083L54.7686 47.3988C55.405 47.0465 55.8 46.3764 55.8 45.649V43.9027M55.8 36.5129L51.6 33.8957M55.8 36.5129V39.592M55.8 36.5129L72.6737 46.0762M45.5333 38.6683V33.4339M45.5333 38.6683L36.8319 33.2512C36.2454 32.8861 35.8889 32.2441 35.8889 31.5533V29.4311M45.5333 38.6683L50.6082 35.7063C51.2224 35.3478 51.6 34.6901 51.6 33.979V33.8957M45.5333 33.4339L35.8889 28.0455M45.5333 33.4339L51.6 30.2008M35.8889 28.0455L41.6444 24.5045M35.8889 28.0455V29.4311M51.6 30.2008L46.1556 26.9678M51.6 30.2008V33.8957M46.1556 26.9678V28.9933C46.1556 29.4743 45.9944 29.9682 45.5679 30.1906C44.6667 30.6607 43.3085 30.666 42.3306 30.2066C41.8473 29.9795 41.6444 29.4385 41.6444 28.9045V24.5045M46.1556 26.9678L46.1556 19.7848M41.6444 24.5045V19.7074M30.9111 34.2036V37.1288M30.9111 37.1288L26.5907 39.8244C25.3081 40.6247 25.343 42.5039 26.6544 43.2561L50.6381 57.0127C50.9618 57.1983 51.331 57.2897 51.7039 57.2765L67.1564 56.7303C67.9965 56.7007 68.7283 56.1489 68.988 55.3494L70.1056 51.9083M55.8 39.592L69.8964 47.2652C70.7423 47.7256 71.1399 48.7236 70.8424 49.6396L70.1056 51.9083M55.8 39.592V43.9027M55.8 43.9027L70.1056 51.9083M49.2667 43.9027V47.2897M51.6 42.5171V46.0581M53.7778 41.5934V44.6725M43.9778 43.2869V47.2897M41.1778 42.2092V45.2883M38.3778 40.0539V44.2106M36.2 38.9762V42.8251M34.1778 37.7446V41.1316M18 53.5136C18 54.2341 18.3876 54.8989 19.0146 55.254M18 53.5136V53.5136C18 54.2341 18.3876 54.8989 19.0146 55.254V55.254M41.6444 19.7074C41.6444 19.4193 41.6947 19.1249 41.8687 18.8952M41.6444 19.7074V19.7074C41.6444 19.4193 41.6947 19.1249 41.8687 18.8952V18.8952M41.8687 18.8952C42.7617 17.7165 44.8303 17.7018 45.8584 18.8511M45.8584 18.8511C45.8725 18.8668 45.8864 18.8828 45.9001 18.899C46.0912 19.125 46.1553 19.4254 46.1547 19.7214V19.7214M45.8584 18.8511C46.0694 19.0869 46.1459 19.4045 46.1547 19.7214M46.1556 19.7848C46.1556 19.7637 46.1553 19.7425 46.1547 19.7214M46.1556 19.7848L46.1547 19.7214M72.6737 46.0762C73.4571 46.5201 73.8472 47.4329 73.6266 48.306M72.6737 46.0762V46.0762C73.4571 46.5201 73.8472 47.4329 73.6266 48.306V48.306M62.9035 72.9249C62.7334 72.9772 62.5542 73 62.3762 73M62.9035 72.9249V72.9249C62.7334 72.9772 62.5542 73 62.3762 73V73" stroke="#333015" stroke-width="1.25" stroke-linecap="round"/>
</g>
<defs>
<filter id="filter0_d_2620_19291" x="5.375" y="9.375" width="80.9375" height="80.25" filterUnits="userSpaceOnUse" color-interpolation-filters="sRGB">
<feFlood flood-opacity="0" result="BackgroundImageFix"/>
<feColorMatrix in="SourceAlpha" type="matrix" values="0 0 0 0 0 0 0 0 0 0 0 0 0 0 0 0 0 0 127 0" result="hardAlpha"/>
<feOffset dy="4"/>
<feGaussianBlur stdDeviation="6"/>
<feComposite in2="hardAlpha" operator="out"/>
<feColorMatrix type="matrix" values="0 0 0 0 0 0 0 0 0 0 0 0 0 0 0 0 0 0 0.25 0"/>
<feBlend mode="normal" in2="BackgroundImageFix" result="effect1_dropShadow_2620_19291"/>
<feBlend mode="normal" in="SourceGraphic" in2="effect1_dropShadow_2620_19291" result="shape"/>
</filter>
</defs>
</svg>
