<svg width="260" height="241" viewBox="0 0 260 241" fill="none" xmlns="http://www.w3.org/2000/svg">
<g filter="url(#filter0_d_2620_19263)">
<path d="M132.99 136.418C132.99 139.31 132.394 142.83 129.849 144.28C127.303 145.731 126.707 144.563 126.707 141.671C126.708 138.78 127.304 135.26 129.849 133.809C132.394 132.359 132.99 133.527 132.99 136.418Z" fill="white"/>
<path d="M161.959 119.908C161.959 122.799 161.363 126.319 158.818 127.77C156.272 129.221 155.676 128.053 155.676 125.161C155.676 122.27 156.273 118.75 158.818 117.299C161.363 115.848 161.959 117.016 161.959 119.908Z" fill="white"/>
<path d="M98.9029 204.798L87.3296 174.895L81.7869 162.199L52.4424 143.371L72.4929 188.867L98.9029 204.798Z" fill="#FEFACC"/>
<path d="M81.7869 162.199C85.594 151.82 88.0542 143.954 89.9706 137.826C94.5726 123.113 96.0388 118.425 105.49 113.038C105.97 112.756 106.441 112.477 106.904 112.203C116.084 106.778 122.165 103.183 127.01 105.078L100.286 87.9318C94.7797 82.8588 87.9132 87.2708 76.1456 94.2109C62.7584 101.841 65.3917 108.068 52.4424 143.371L81.7869 162.199Z" fill="#FEFACC"/>
<path d="M129.631 106.759C134.239 100.642 152.235 90.3858 158.819 90.1239L129.474 71.2964C122.891 71.5584 104.895 81.8148 100.286 87.9318L127.01 105.078C127.923 105.435 128.793 105.987 129.631 106.759Z" fill="#FEFACC"/>
<path d="M158.819 90.1239C162.508 82.4043 167.616 77.5222 186.033 67.1348C188.342 65.8122 190.345 65.5493 192.175 66.179L162.402 47.2213C160.688 46.769 158.819 47.0873 156.688 48.3074C138.271 58.6948 133.164 63.5769 129.474 71.2964L158.819 90.1239Z" fill="#FEFACC"/>
<path d="M168.253 159.482L157.28 172.276C161.931 183.322 167.413 182.646 177.908 179.715C173.642 175.362 171.182 171.995 169.715 167.183C169.047 164.992 168.586 162.502 168.253 159.482Z" fill="#FEFACC"/>
<path d="M130.944 187.285L121.727 186.761C121.209 189.797 120.668 192.494 120.066 194.981C117.991 203.546 115.189 209.608 110.095 218.364C116.949 213.376 121.569 209.186 124.838 204.085C127.722 199.585 129.555 194.376 130.944 187.285Z" fill="#FEFACC"/>
<path fill-rule="evenodd" clip-rule="evenodd" d="M89.9706 137.826C88.0542 143.954 85.594 151.82 81.7869 162.199L87.3296 174.895L98.9029 204.798C107.381 200.121 112.096 197.636 120.066 194.981C120.668 192.494 121.209 189.797 121.727 186.761L130.944 187.285L133.71 185.709C135.468 204.899 139.982 215.471 147.729 219.067C154.395 222.162 163.454 220.091 175.209 213.901C175.302 213.856 175.397 213.806 175.493 213.751L175.209 213.901C169.421 216.715 168.712 201.836 174.511 196.985C174.833 196.766 175.161 196.537 175.494 196.299C175.147 196.497 174.82 196.727 174.511 196.985C170.135 199.965 166.727 201.258 164.082 201.106C161.933 200.982 160.288 199.906 159.034 198.007C156.152 193.64 155.344 184.921 155.264 173.424L157.28 172.276L168.253 159.482C168.586 162.502 169.047 164.992 169.715 167.183C176.44 161.14 180.824 157.864 190.418 152.641L203.214 105.708L207.319 90.6541C206.865 89.643 206.422 88.6529 205.99 87.6855C200.843 76.1697 197.142 67.8879 192.175 66.179C190.345 65.5493 188.342 65.8122 186.033 67.1348C167.616 77.5222 162.508 82.4043 158.819 90.1239C152.235 90.3858 134.239 100.642 129.631 106.759C128.793 105.987 127.923 105.435 127.01 105.078C122.165 103.183 116.084 106.778 106.904 112.203C106.441 112.477 105.97 112.756 105.49 113.038C96.0388 118.425 94.5726 123.113 89.9706 137.826Z" fill="white"/>
<path d="M174.511 196.985C168.712 201.836 169.421 216.715 175.209 213.901L175.493 213.751C180.011 211.356 181.716 196.26 177.303 195.81C176.786 195.757 176.184 195.906 175.494 196.299C175.161 196.537 174.833 196.766 174.511 196.985Z" fill="#FEFACC"/>
<path d="M81.7869 162.199L87.3296 174.895M81.7869 162.199L52.4424 143.371M81.7869 162.199C85.594 151.82 88.0542 143.954 89.9706 137.826C94.5726 123.113 96.0388 118.425 105.49 113.038C105.97 112.756 106.441 112.477 106.904 112.203C116.084 106.778 122.165 103.183 127.01 105.078M129.631 106.759C134.239 100.642 152.235 90.3858 158.819 90.1239M129.631 106.759C127.618 109.573 125.986 112.994 124.5 117.412M129.631 106.759L127.01 105.078M129.631 106.759C128.793 105.987 127.923 105.435 127.01 105.078M158.819 90.1239C162.508 82.4043 167.616 77.5222 186.033 67.1348C188.342 65.8122 190.345 65.5493 192.175 66.179M158.819 90.1239C161.511 90.0167 163.396 91.6483 164.853 94.4137M158.819 90.1239L129.474 71.2964M130.944 187.285L121.727 186.761M130.944 187.285L133.71 185.709M130.944 187.285C129.555 194.376 127.722 199.585 124.838 204.085C121.569 209.186 116.949 213.376 110.095 218.364C115.189 209.608 117.991 203.546 120.066 194.981M121.727 186.761L118.216 186.561L123.923 159.874C118.489 158.015 115.789 156.771 116.9 151.161C119.805 135.615 121.936 125.031 124.5 117.412M121.727 186.761C121.209 189.797 120.668 192.494 120.066 194.981M120.066 194.981C112.096 197.636 107.381 200.121 98.9029 204.798M98.9029 204.798L87.3296 174.895M98.9029 204.798L72.4929 188.867L52.4424 143.371M87.3296 174.895C92.2731 156.407 95.2499 146.217 103.145 130.231C104.687 127.108 115.608 117.394 124.5 117.412M108.342 143.075C103.943 152.184 101.49 158.595 97.1485 173.637M109.877 162.893C106.652 169.245 104.947 173.509 102.196 182.977M175.494 196.299C175.147 196.497 174.82 196.727 174.511 196.985M175.494 196.299C175.161 196.537 174.833 196.766 174.511 196.985M175.494 196.299C176.184 195.906 176.786 195.757 177.303 195.81C181.716 196.26 180.011 211.356 175.493 213.751M175.493 213.751C175.397 213.806 175.302 213.856 175.209 213.901M175.493 213.751C175.398 213.802 175.303 213.852 175.209 213.901M175.493 213.751L175.209 213.901M175.209 213.901C169.421 216.715 168.712 201.836 174.511 196.985M175.209 213.901C163.454 220.091 154.395 222.162 147.729 219.067C139.982 215.471 135.468 204.899 133.71 185.709M174.511 196.985C170.135 199.965 166.727 201.258 164.082 201.106M164.082 201.106C162.005 204.086 161.171 205.909 160.79 209.666M164.082 201.106C161.933 200.982 160.288 199.906 159.034 198.007M159.034 198.007C156.089 201.629 154.793 203.681 153.109 207.36M159.034 198.007C156.152 193.64 155.344 184.921 155.264 173.424M169.715 167.183C176.44 161.14 180.824 157.864 190.418 152.641L203.214 105.708M169.715 167.183C169.047 164.992 168.586 162.502 168.253 159.482M169.715 167.183C171.182 171.995 173.642 175.362 177.908 179.715C167.413 182.646 161.931 183.322 157.28 172.276M157.28 172.276L168.253 159.482M157.28 172.276L155.264 173.424M168.253 159.482L170.667 156.668L164.962 136.484C169.171 129.581 172.523 125.426 171.546 120.017C168.987 110.178 167.79 99.9903 164.853 94.4137M155.264 173.424C155.205 164.853 155.551 154.738 155.745 143.732M132.921 156.74C132.718 168.008 132.969 177.623 133.71 185.709M187.127 134.572C184.706 128.316 183.267 125.073 179.447 123.243M180.764 101.8C185.413 104.201 187.865 109.224 192.175 119.479M203.214 105.708L207.319 90.6541C206.865 89.643 206.422 88.6529 205.99 87.6855C200.843 76.1697 197.142 67.8879 192.175 66.179M203.214 105.708C198.425 94.7758 196.451 88.4159 188.227 78.5991C186.389 76.4054 177.304 82.7454 164.853 94.4137M52.4424 143.371C65.3917 108.068 62.7584 101.841 76.1456 94.2109C87.9132 87.2708 94.7797 82.8588 100.286 87.9318M100.286 87.9318C104.895 81.8148 122.891 71.5584 129.474 71.2964M100.286 87.9318L127.01 105.078M129.474 71.2964C133.164 63.5769 138.271 58.6948 156.688 48.3074C158.819 47.0873 160.688 46.769 162.402 47.2213L192.175 66.179M132.99 136.418C132.99 139.31 132.394 142.83 129.849 144.28C127.303 145.731 126.707 144.563 126.707 141.671C126.708 138.78 127.304 135.26 129.849 133.809C132.394 132.359 132.99 133.527 132.99 136.418ZM161.959 119.908C161.959 122.799 161.363 126.319 158.818 127.77C156.272 129.221 155.676 128.053 155.676 125.161C155.676 122.27 156.273 118.75 158.818 117.299C161.363 115.848 161.959 117.016 161.959 119.908Z" stroke="#333015" stroke-width="4"/>
</g>
<defs>
<filter id="filter0_d_2620_19263" x="0.287109" y="0.524414" width="259.15" height="277.464" filterUnits="userSpaceOnUse" color-interpolation-filters="sRGB">
<feFlood flood-opacity="0" result="BackgroundImageFix"/>
<feColorMatrix in="SourceAlpha" type="matrix" values="0 0 0 0 0 0 0 0 0 0 0 0 0 0 0 0 0 0 127 0" result="hardAlpha"/>
<feOffset dy="5.5"/>
<feGaussianBlur stdDeviation="25"/>
<feComposite in2="hardAlpha" operator="out"/>
<feColorMatrix type="matrix" values="0 0 0 0 0 0 0 0 0 0 0 0 0 0 0 0 0 0 0.25 0"/>
<feBlend mode="normal" in2="BackgroundImageFix" result="effect1_dropShadow_2620_19263"/>
<feBlend mode="normal" in="SourceGraphic" in2="effect1_dropShadow_2620_19263" result="shape"/>
</filter>
</defs>
</svg>
