<svg width="92" height="93" viewBox="0 0 92 93" fill="none" xmlns="http://www.w3.org/2000/svg">
<g filter="url(#filter0_d_2620_19251)">
<path d="M46.8613 46.9207C46.8613 47.9209 46.6551 49.1385 45.7746 49.6403C44.8942 50.142 44.6881 49.738 44.6881 48.7378C44.6881 47.7377 44.8944 46.5201 45.7748 46.0183C46.6552 45.5165 46.8614 45.9206 46.8613 46.9207Z" fill="white"/>
<path d="M56.8816 41.2099C56.8816 42.21 56.6753 43.4276 55.7949 43.9294C54.9145 44.4312 54.7083 44.0271 54.7084 43.027C54.7084 42.0268 54.9146 40.8092 55.7951 40.3074C56.6755 39.8057 56.8816 40.2097 56.8816 41.2099Z" fill="white"/>
<path d="M35.0706 70.5733L31.0674 60.2299L29.1502 55.8381L19 49.3258L25.9354 65.0628L35.0706 70.5733Z" fill="#FEFACC"/>
<path d="M29.1502 55.8381C30.4671 52.2481 31.3181 49.5273 31.9809 47.4079C33.5728 42.3185 34.0799 40.697 37.3491 38.8337C37.5149 38.7359 37.6779 38.6396 37.8382 38.5449C41.0135 36.6681 43.117 35.4249 44.7926 36.0801L35.549 30.1494C33.6444 28.3947 31.2693 29.9208 27.1989 32.3214C22.5683 34.9605 23.4791 37.1147 19 49.3258L29.1502 55.8381Z" fill="#FEFACC"/>
<path d="M45.6992 36.6618C47.2934 34.5459 53.5181 30.9983 55.7954 30.9077L45.6452 24.3953C43.3679 24.4859 37.1432 28.0336 35.549 30.1494L44.7926 36.0801C45.1086 36.2037 45.4094 36.3947 45.6992 36.6618Z" fill="#FEFACC"/>
<path d="M55.7954 30.9077C57.0715 28.2375 58.8383 26.5488 65.2085 22.9558C66.0075 22.4983 66.7001 22.4074 67.3333 22.6252L57.0347 16.0678C56.4419 15.9113 55.7953 16.0214 55.0583 16.4434C48.6881 20.0364 46.9213 21.7251 45.6452 24.3953L55.7954 30.9077Z" fill="#FEFACC"/>
<path d="M59.0586 54.8986L55.263 59.3237C56.8718 63.1446 58.7679 62.9108 62.3984 61.8971C60.9226 60.3912 60.0716 59.2268 59.5643 57.5622C59.3333 56.8044 59.1736 55.943 59.0586 54.8986Z" fill="#FEFACC"/>
<path d="M46.1536 64.5154L42.9654 64.3342C42.7862 65.3843 42.5991 66.3173 42.3907 67.1774C41.6731 70.14 40.7038 72.2368 38.9418 75.2658C41.3128 73.5405 42.9108 72.0911 44.0416 70.3264C45.0391 68.7699 45.6731 66.9681 46.1536 64.5154Z" fill="#FEFACC"/>
<path fill-rule="evenodd" clip-rule="evenodd" d="M31.9809 47.4079C31.3181 49.5273 30.4671 52.2481 29.1502 55.8381L31.0674 60.2299L35.0706 70.5733C38.003 68.9555 39.6341 68.096 42.3907 67.1774C42.5991 66.3173 42.7862 65.3843 42.9654 64.3342L46.1536 64.5154L47.1103 63.9702C47.7183 70.6081 49.2799 74.2651 51.9595 75.5089C54.2651 76.5792 57.3985 75.8629 61.4646 73.722C61.4969 73.7063 61.5297 73.689 61.5629 73.6701L61.4646 73.722C59.4627 74.6951 59.2176 69.5485 61.2231 67.8708C61.3347 67.7949 61.448 67.7158 61.5631 67.6335C61.4434 67.7018 61.3301 67.7813 61.2231 67.8708C59.7094 68.9013 58.5308 69.3485 57.6158 69.296C56.8727 69.2534 56.3035 68.8812 55.8699 68.2242C54.8731 66.7136 54.5933 63.6976 54.5658 59.7211L55.263 59.3237L59.0586 54.8986C59.1736 55.943 59.3333 56.8044 59.5643 57.5622C61.8905 55.472 63.4068 54.3387 66.7256 52.5321L71.1517 36.2982L72.5714 31.0911C72.4143 30.7413 72.2612 30.3988 72.1117 30.0642C70.3316 26.0809 69.0514 23.2163 67.3333 22.6252C66.7001 22.4074 66.0075 22.4983 65.2085 22.9558C58.8383 26.5488 57.0715 28.2375 55.7954 30.9077C53.5181 30.9983 47.2934 34.5459 45.6992 36.6618C45.4094 36.3947 45.1086 36.2037 44.7926 36.0801C43.117 35.4249 41.0135 36.6681 37.8382 38.5449C37.6779 38.6396 37.5149 38.7359 37.3491 38.8337C34.0799 40.697 33.5728 42.3185 31.9809 47.4079Z" fill="white"/>
<path d="M61.2231 67.8708C59.2176 69.5485 59.4627 74.6951 61.4646 73.722L61.5629 73.6701C63.1257 72.8415 63.7156 67.6198 62.1889 67.4642C62.01 67.446 61.802 67.4974 61.5631 67.6335C61.448 67.7158 61.3347 67.7949 61.2231 67.8708Z" fill="#FEFACC"/>
<path d="M29.1502 55.8381L31.0674 60.2299M29.1502 55.8381L19 49.3258M29.1502 55.8381C30.4671 52.2481 31.3181 49.5273 31.9809 47.4079C33.5728 42.3185 34.0799 40.697 37.3491 38.8337C37.5149 38.7359 37.6779 38.6396 37.8382 38.5449C41.0135 36.6681 43.117 35.4249 44.7926 36.0801M45.6992 36.6618C47.2934 34.5459 53.5181 30.9983 55.7954 30.9077M45.6992 36.6618C45.0031 37.6351 44.4386 38.8184 43.9245 40.3466M45.6992 36.6618L44.7926 36.0801M45.6992 36.6618C45.4094 36.3947 45.1086 36.2037 44.7926 36.0801M55.7954 30.9077C57.0715 28.2375 58.8383 26.5488 65.2085 22.9558C66.0075 22.4983 66.7001 22.4074 67.3333 22.6252M55.7954 30.9077C56.7265 30.8706 57.3785 31.4349 57.8824 32.3915M55.7954 30.9077L45.6452 24.3953M46.1536 64.5154L42.9654 64.3342M46.1536 64.5154L47.1103 63.9702M46.1536 64.5154C45.6731 66.9681 45.0391 68.7699 44.0416 70.3264C42.9108 72.0911 41.3128 73.5405 38.9418 75.2658C40.7038 72.2368 41.6731 70.14 42.3907 67.1774M42.9654 64.3342L41.7509 64.2652L43.7249 55.034C41.8453 54.3909 40.9116 53.9609 41.2959 52.0204C42.3007 46.6428 43.0378 42.9819 43.9245 40.3466M42.9654 64.3342C42.7862 65.3842 42.5991 66.3173 42.3907 67.1774M42.3907 67.1774C39.6341 68.096 38.003 68.9555 35.0706 70.5733M35.0706 70.5733L31.0674 60.2299M35.0706 70.5733L25.9354 65.0628L19 49.3258M31.0674 60.2299C32.7774 53.835 33.807 50.3101 36.5378 44.7806C37.0712 43.7004 40.8488 40.3402 43.9245 40.3466M38.3355 49.2234C36.8139 52.3741 35.9654 54.5915 34.4637 59.7948M38.8666 56.0782C37.751 58.2755 37.1612 59.7505 36.2095 63.0254M61.5631 67.6335C61.4434 67.7018 61.3301 67.7813 61.2231 67.8708M61.5631 67.6335C61.448 67.7158 61.3347 67.7949 61.2231 67.8708M61.5631 67.6335C61.802 67.4974 62.01 67.446 62.1889 67.4642C63.7156 67.6198 63.1257 72.8415 61.5629 73.6701M61.5629 73.6701C61.5297 73.689 61.4969 73.7063 61.4646 73.722M61.5629 73.6701C61.5301 73.6875 61.4973 73.7048 61.4646 73.722M61.5629 73.6701L61.4646 73.722M61.4646 73.722C59.4627 74.6951 59.2176 69.5485 61.2231 67.8708M61.4646 73.722C57.3985 75.863 54.2651 76.5792 51.9595 75.5089C49.2799 74.2651 47.7183 70.6081 47.1103 63.9702M61.2231 67.8708C59.7094 68.9013 58.5308 69.3485 57.6158 69.296M57.6158 69.296C56.8976 70.3269 56.6091 70.9574 56.477 72.2569M57.6158 69.296C56.8727 69.2534 56.3035 68.8812 55.8699 68.2242M55.8699 68.2242C54.8511 69.4769 54.403 70.1869 53.8202 71.4592M55.8699 68.2242C54.8731 66.7136 54.5933 63.6976 54.5658 59.7211M59.5643 57.5622C61.8905 55.472 63.4068 54.3387 66.7256 52.5321L71.1517 36.2982M59.5643 57.5622C59.3333 56.8044 59.1736 55.943 59.0586 54.8986M59.5643 57.5622C60.0716 59.2268 60.9226 60.3912 62.3984 61.8971C58.7679 62.9108 56.8718 63.1446 55.263 59.3237M55.263 59.3237L59.0586 54.8986M55.263 59.3237L54.5658 59.7211M59.0586 54.8986L59.8937 53.925L57.9203 46.9436C59.3763 44.5558 60.5355 43.1187 60.1978 41.2476C59.3125 37.8443 58.8986 34.3204 57.8824 32.3915M54.5658 59.7211C54.5452 56.7563 54.6649 53.2575 54.732 49.4506M46.8372 53.9501C46.7672 57.8476 46.8541 61.1735 47.1103 63.9702M65.5872 46.2822C64.7497 44.1182 64.2519 42.9964 62.9305 42.3635M63.3862 34.9462C64.9943 35.7769 65.8425 37.5145 67.3333 41.0615M71.1517 36.2982L72.5714 31.0911C72.4143 30.7413 72.2612 30.3988 72.1117 30.0642C70.3316 26.0809 69.0514 23.2163 67.3333 22.6252M71.1517 36.2982C69.4952 32.5167 68.8121 30.3169 65.9675 26.9213C65.3318 26.1625 62.1892 28.3555 57.8824 32.3915M19 49.3258C23.4791 37.1147 22.5683 34.9605 27.1989 32.3214C31.2693 29.9208 33.6444 28.3947 35.549 30.1494M35.549 30.1494C37.1432 28.0336 43.3679 24.4859 45.6452 24.3953M35.549 30.1494L44.7926 36.0801M45.6452 24.3953C46.9213 21.7251 48.6881 20.0364 55.0583 16.4434C55.7953 16.0214 56.4419 15.9113 57.0347 16.0678L67.3333 22.6252M46.8613 46.9207C46.8613 47.9209 46.6551 49.1385 45.7746 49.6403C44.8942 50.142 44.6881 49.738 44.6881 48.7378C44.6881 47.7377 44.8944 46.5201 45.7748 46.0183C46.6552 45.5165 46.8614 45.9206 46.8613 46.9207ZM56.8816 41.2099C56.8816 42.21 56.6753 43.4276 55.7949 43.9294C54.9145 44.4312 54.7083 44.0271 54.7084 43.027C54.7084 42.0268 54.9147 40.8092 55.7951 40.3074C56.6755 39.8057 56.8816 40.2097 56.8816 41.2099Z" stroke="#333015" stroke-width="1.25"/>
</g>
<defs>
<filter id="filter0_d_2620_19251" x="6.32617" y="7.375" width="78.9072" height="85.25" filterUnits="userSpaceOnUse" color-interpolation-filters="sRGB">
<feFlood flood-opacity="0" result="BackgroundImageFix"/>
<feColorMatrix in="SourceAlpha" type="matrix" values="0 0 0 0 0 0 0 0 0 0 0 0 0 0 0 0 0 0 127 0" result="hardAlpha"/>
<feOffset dy="4"/>
<feGaussianBlur stdDeviation="6"/>
<feComposite in2="hardAlpha" operator="out"/>
<feColorMatrix type="matrix" values="0 0 0 0 0 0 0 0 0 0 0 0 0 0 0 0 0 0 0.25 0"/>
<feBlend mode="normal" in2="BackgroundImageFix" result="effect1_dropShadow_2620_19251"/>
<feBlend mode="normal" in="SourceGraphic" in2="effect1_dropShadow_2620_19251" result="shape"/>
</filter>
</defs>
</svg>
