<svg width="92" height="93" viewBox="0 0 92 93" fill="none" xmlns="http://www.w3.org/2000/svg">
<g filter="url(#filter0_d_2620_19273)">
<path d="M58.0862 36.4821C58.0862 37.4358 57.6601 38.4548 57.1346 38.7583C56.609 39.0617 56.183 38.5347 56.183 37.581C56.1831 36.6274 56.6091 35.6083 57.1347 35.3048C57.6602 35.0014 58.0862 35.5285 58.0862 36.4821Z" fill="white"/>
<path d="M44.4923 44.3314C44.4922 45.2851 44.0662 46.3041 43.5406 46.6076C43.0151 46.9111 42.5891 46.384 42.5891 45.4303C42.5891 44.4767 43.0152 43.4576 43.5408 43.1541C44.0663 42.8507 44.4923 43.3778 44.4923 44.3314Z" fill="white"/>
<path d="M38.1035 42.0554L36.2005 39.8578L27.3199 34.8591L29.2229 37.0567C27.0478 42.7078 26.9116 48.7514 28.5925 51.7052L37.473 56.704C35.7921 53.7501 35.9283 47.7065 38.1035 42.0554Z" fill="#FEFACC"/>
<path d="M28.5925 51.7052C24.1739 57.785 26.0961 63.9186 29.2218 65.3807L37.5899 70.091C36.8637 69.6101 36.2264 68.8666 35.7526 67.9292C34.394 65.2414 34.3803 60.9595 37.473 56.704L28.5925 51.7052Z" fill="#FEFACC"/>
<path d="M37.8304 74.8635C37.7236 73.2997 37.7133 72.376 38.1024 70.3795C37.9275 70.2977 37.7564 70.2012 37.5899 70.091L29.2218 65.3807C28.8327 67.3772 28.8431 68.301 28.9498 69.8647C29.0151 70.506 29.3316 70.8481 29.7768 70.9597L38.1636 75.6805C37.9861 75.4967 37.8675 75.2286 37.8304 74.8635Z" fill="#FEFACC"/>
<path d="M36.2005 39.8578C34.7052 38.5235 38.3757 34.2065 40.0069 34.9914L34.6317 31.9153L31.1263 29.9927C29.4951 29.2078 25.8247 33.5247 27.3199 34.8591L36.2005 39.8578Z" fill="#FEFACC"/>
<path d="M40.0069 34.9914C40.8191 35.6469 41.2368 36.0674 41.774 37.1105C44.4474 34.7919 46.6484 33.0386 48.732 31.6684C51.9633 29.5435 54.9121 28.3398 58.9023 27.3774L50.0218 22.3786C44.3085 23.7566 39.9611 27.5519 34.6317 31.9153L40.0069 34.9914Z" fill="#FEFACC"/>
<path d="M58.9023 27.3774C59.4757 25.6881 59.8402 24.7333 60.8056 22.982C61.7193 21.3993 62.7422 20.8882 63.4951 21.0181L54.6145 16.0193C53.8617 15.8895 52.8388 16.4005 51.925 17.9832C50.9596 19.7346 50.5951 20.6893 50.0218 22.3786L58.9023 27.3774Z" fill="#FEFACC"/>
<path d="M41.0924 70.3114C40.0797 70.8362 39.0372 70.8167 38.1024 70.3795C37.7133 72.376 37.7236 73.2997 37.8304 74.8635C37.8675 75.2286 37.9861 75.4967 38.1636 75.6805L38.6573 75.9585C40.0645 76.3112 42.7568 74.3601 42.8601 72.2731L42.8602 69.9185L42.8603 69.0332L42.7446 69.1198C41.9442 69.7195 41.3618 70.1558 41.0924 70.3114Z" fill="white"/>
<path d="M42.8604 61.1279C42.8603 62.6884 42.1299 64.3752 41.229 64.8954C40.3281 65.4156 39.5978 64.5723 39.5978 63.0117C39.5979 61.4512 40.3283 59.7645 41.2292 59.2443C42.1302 58.724 42.8605 59.5674 42.8604 61.1279Z" fill="#FEFACC"/>
<path d="M61.0763 50.6098C61.0762 52.1703 60.3458 53.8571 59.4449 54.3773C58.544 54.8975 57.8137 54.0542 57.8137 52.4937C57.8138 50.9331 58.5442 49.2464 59.4451 48.7262C60.346 48.206 61.0763 49.0493 61.0763 50.6098Z" fill="#FEFACC"/>
<path d="M59.9879 59.4009C59.6445 59.7125 58.8673 60.067 57.8136 60.5061L57.8135 61.5982L57.8135 63.4819C58.629 65.9935 62.1634 63.9527 62.7073 60.4992C62.7118 60.3908 62.7164 60.2854 62.721 60.1828C62.7847 58.7453 62.8245 57.848 61.9792 56.9953C61.3818 57.812 60.7179 58.6181 59.9879 59.4009Z" fill="white"/>
<path fill-rule="evenodd" clip-rule="evenodd" d="M37.5899 70.091C37.7564 70.2012 37.9275 70.2977 38.1024 70.3795C39.0372 70.8167 40.0797 70.8362 41.0924 70.3114C41.3618 70.1558 41.9442 69.7195 42.7446 69.1198L42.8603 69.0332C44.7171 67.6423 47.666 65.4444 50.6082 63.7987C52.879 62.5285 55.1458 61.6004 56.9034 60.8808C57.2249 60.7492 57.5293 60.6246 57.8136 60.5061C58.8673 60.067 59.6445 59.7125 59.9879 59.4009C60.7179 58.6181 61.3818 57.812 61.9792 56.9953C66.8811 50.2951 67.3179 42.8851 63.1964 41.851C64.6113 37.8946 65.1553 29.1039 62.1648 28.1622L64.3399 23.6098C64.9402 22.3101 64.4224 21.178 63.4951 21.0181C62.7422 20.8882 61.7193 21.3993 60.8056 22.982C59.8402 24.7333 59.4757 25.6881 58.9023 27.3774C54.9121 28.3398 51.9633 29.5435 48.732 31.6684C46.6484 33.0386 44.4474 34.7919 41.774 37.1105C41.2368 36.0674 40.8191 35.6469 40.0069 34.9914C38.3757 34.2065 34.7052 38.5235 36.2005 39.8578L38.1035 42.0554C35.9283 47.7065 35.7921 53.7501 37.473 56.704C34.3803 60.9595 34.394 65.2414 35.7526 67.9292C36.2264 68.8666 36.8637 69.6101 37.5899 70.091ZM38.6573 75.9585L38.1636 75.6805C38.2978 75.8196 38.4656 75.9104 38.6573 75.9585ZM42.8604 61.1279C42.8603 62.6884 42.1299 64.3752 41.229 64.8954C40.3281 65.4156 39.5978 64.5723 39.5978 63.0117C39.5979 61.4512 40.3283 59.7645 41.2292 59.2443C42.1302 58.724 42.8605 59.5674 42.8604 61.1279ZM59.4449 54.3773C60.3458 53.8571 61.0762 52.1703 61.0763 50.6098C61.0763 49.0493 60.346 48.206 59.4451 48.7262C58.5442 49.2464 57.8138 50.9331 57.8137 52.4937C57.8137 54.0542 58.544 54.8975 59.4449 54.3773Z" fill="white"/>
<path d="M50.6082 63.7987C47.666 65.4444 44.7171 67.6423 42.8603 69.0332L42.8602 69.9185C47.482 71.0172 52.104 68.3484 57.8135 61.5982L57.8136 60.5061C57.5293 60.6246 57.2249 60.7492 56.9034 60.8808C55.1458 61.6004 52.879 62.5285 50.6082 63.7987Z" fill="#FEFACC"/>
<path d="M38.1024 70.3795C39.0372 70.8167 40.0797 70.8362 41.0924 70.3114C41.3618 70.1558 41.9442 69.7195 42.7446 69.1198L42.8603 69.0332M38.1024 70.3795C37.7133 72.376 37.7236 73.2997 37.8304 74.8635C37.8675 75.2286 37.9861 75.4967 38.1636 75.6805M38.1024 70.3795L37.5899 70.091M38.1024 70.3795C37.9275 70.2977 37.7564 70.2012 37.5899 70.091M42.8603 69.0332C44.7171 67.6423 47.666 65.4444 50.6082 63.7987C52.879 62.5285 55.1458 61.6004 56.9034 60.8808C57.2249 60.7492 57.5293 60.6246 57.8136 60.5061M42.8603 69.0332L42.8602 69.9185M42.8602 69.9185L42.8601 72.2731C42.7568 74.3601 40.0645 76.3112 38.6573 75.9585M42.8602 69.9185C47.482 71.0172 52.104 68.3484 57.8135 61.5982M57.8136 60.5061C58.8673 60.067 59.6445 59.7125 59.9879 59.4009C60.7179 58.6181 61.3818 57.812 61.9792 56.9953M57.8136 60.5061L57.8135 61.5982M61.9792 56.9953C66.8811 50.2951 67.3179 42.8851 63.1964 41.851M61.9792 56.9953C62.8245 57.848 62.7847 58.7453 62.721 60.1828C62.7164 60.2854 62.7118 60.3908 62.7073 60.4992C62.1634 63.9527 58.629 65.9935 57.8135 63.4819L57.8135 61.5982M42.453 55.0843C48.0266 48.7265 52.0306 46.558 57.8141 46.0576M58.0855 42.9184C60.2237 41.8191 61.9264 41.5324 63.1964 41.851M63.1964 41.851C64.6113 37.8946 65.1553 29.1039 62.1648 28.1622L64.3399 23.6098C64.9402 22.3101 64.4224 21.178 63.4951 21.0181M58.9023 27.3774C59.4757 25.6881 59.8402 24.7333 60.8056 22.982C61.7193 21.3993 62.7422 20.8882 63.4951 21.0181M58.9023 27.3774C54.9121 28.3398 51.9633 29.5435 48.732 31.6684C46.6484 33.0386 44.4474 34.7919 41.774 37.1105C41.2368 36.0674 40.8191 35.6469 40.0069 34.9914M58.9023 27.3774L50.0218 22.3786M40.0069 34.9914C38.3757 34.2065 34.7052 38.5235 36.2005 39.8578M40.0069 34.9914L34.6317 31.9153M36.2005 39.8578L38.1035 42.0554C35.9283 47.7065 35.7921 53.7501 37.473 56.704M36.2005 39.8578L27.3199 34.8591M42.4524 51.9452C40.2777 53.468 38.6503 55.0841 37.473 56.704M37.473 56.704C34.3803 60.9595 34.394 65.2414 35.7526 67.9292C36.2264 68.8666 36.8637 69.6101 37.5899 70.091M37.473 56.704L28.5925 51.7052M29.2218 65.3807C28.8327 67.3772 28.8431 68.301 28.9498 69.8647C29.0151 70.506 29.3316 70.8481 29.7768 70.9597L38.1636 75.6805M29.2218 65.3807C26.0961 63.9186 24.1739 57.785 28.5925 51.7052M29.2218 65.3807L37.5899 70.091M50.0218 22.3786C50.5951 20.6893 50.9596 19.7346 51.925 17.9832C52.8388 16.4005 53.8617 15.8895 54.6145 16.0193L63.4951 21.0181M50.0218 22.3786C44.3085 23.7566 39.9611 27.5519 34.6317 31.9153M27.3199 34.8591C25.8247 33.5247 29.4951 29.2078 31.1263 29.9927L34.6317 31.9153M27.3199 34.8591L29.2229 37.0567C27.0478 42.7078 26.9116 48.7514 28.5925 51.7052M38.6573 75.9585L38.1636 75.6805M38.6573 75.9585C38.4656 75.9104 38.2978 75.8196 38.1636 75.6805M42.8604 61.1279C42.8603 62.6884 42.1299 64.3752 41.229 64.8954C40.3281 65.4156 39.5978 64.5723 39.5978 63.0117C39.5979 61.4512 40.3283 59.7645 41.2292 59.2443C42.1302 58.724 42.8605 59.5674 42.8604 61.1279ZM61.0763 50.6098C61.0762 52.1703 60.3458 53.8571 59.4449 54.3773C58.544 54.8975 57.8137 54.0542 57.8137 52.4937C57.8138 50.9331 58.5442 49.2464 59.4451 48.7262C60.346 48.206 61.0763 49.0493 61.0763 50.6098ZM58.0862 36.4821C58.0862 37.4358 57.6601 38.4548 57.1346 38.7583C56.609 39.0617 56.183 38.5347 56.183 37.581C56.1831 36.6274 56.6091 35.6083 57.1347 35.3048C57.6602 35.0014 58.0862 35.5285 58.0862 36.4821ZM44.4923 44.3314C44.4922 45.2851 44.0662 46.3041 43.5406 46.6076C43.0151 46.9111 42.5891 46.384 42.5891 45.4303C42.5891 44.4767 43.0152 43.4576 43.5408 43.1541C44.0663 42.8507 44.4923 43.3778 44.4923 44.3314Z" stroke="#333015" stroke-width="1.25" stroke-linecap="round"/>
</g>
<defs>
<filter id="filter0_d_2620_19273" x="13.375" y="7.37402" width="65.25" height="85.251" filterUnits="userSpaceOnUse" color-interpolation-filters="sRGB">
<feFlood flood-opacity="0" result="BackgroundImageFix"/>
<feColorMatrix in="SourceAlpha" type="matrix" values="0 0 0 0 0 0 0 0 0 0 0 0 0 0 0 0 0 0 127 0" result="hardAlpha"/>
<feOffset dy="4"/>
<feGaussianBlur stdDeviation="6"/>
<feComposite in2="hardAlpha" operator="out"/>
<feColorMatrix type="matrix" values="0 0 0 0 0 0 0 0 0 0 0 0 0 0 0 0 0 0 0.25 0"/>
<feBlend mode="normal" in2="BackgroundImageFix" result="effect1_dropShadow_2620_19273"/>
<feBlend mode="normal" in="SourceGraphic" in2="effect1_dropShadow_2620_19273" result="shape"/>
</filter>
</defs>
</svg>
