<svg width="220" height="241" viewBox="0 0 220 241" fill="none" xmlns="http://www.w3.org/2000/svg">
<g filter="url(#filter0_d_2620_19250)">
<path d="M145.101 106.24C145.101 108.997 143.869 111.943 142.35 112.82C140.83 113.698 139.599 112.174 139.599 109.417C139.599 106.66 140.831 103.713 142.35 102.836C143.869 101.959 145.101 103.483 145.101 106.24Z" fill="white"/>
<path d="M105.801 128.932C105.8 131.689 104.569 134.636 103.049 135.513C101.53 136.39 100.298 134.866 100.298 132.109C100.299 129.352 101.53 126.406 103.05 125.529C104.569 124.651 105.801 126.175 105.801 128.932Z" fill="white"/>
<path d="M87.3304 122.352L81.8287 115.999L56.1548 101.548L61.6565 107.901C55.3679 124.238 54.9743 141.711 59.8337 150.25L85.5077 164.702C80.6482 156.162 81.0419 138.69 87.3304 122.352Z" fill="#FEFACC"/>
<path d="M59.8337 150.25C47.0597 167.827 52.6166 185.56 61.6533 189.786L85.8457 203.404C83.7462 202.014 81.9035 199.864 80.5338 197.154C76.6062 189.384 76.5665 177.005 85.5077 164.702L59.8337 150.25Z" fill="#FEFACC"/>
<path d="M86.5408 217.201C86.2322 212.68 86.2023 210.01 87.3272 204.238C86.8216 204.002 86.3269 203.723 85.8457 203.404L61.6533 189.786C60.5283 195.558 60.5583 198.229 60.8668 202.75C61.0556 204.604 61.9707 205.593 63.2576 205.915L87.5041 219.564C86.9912 219.032 86.6483 218.257 86.5408 217.201Z" fill="#FEFACC"/>
<path d="M81.8287 115.999C77.5059 112.141 88.1173 99.6609 92.8332 101.93L77.2933 93.037L67.1592 87.4787C62.4433 85.2094 51.832 97.6899 56.1548 101.548L81.8287 115.999Z" fill="#FEFACC"/>
<path d="M92.8332 101.93C95.1812 103.825 96.389 105.041 97.9419 108.056C105.671 101.353 112.034 96.2846 118.058 92.3233C127.399 86.18 135.925 82.7 147.46 79.9176L121.786 65.4661C105.269 69.45 92.7007 80.4223 77.2933 93.037L92.8332 101.93Z" fill="#FEFACC"/>
<path d="M147.46 79.9176C149.118 75.0339 150.172 72.2737 152.963 67.2106C155.605 62.6349 158.562 61.1574 160.738 61.5327L135.064 47.0812C132.888 46.7059 129.931 48.1834 127.289 52.759C124.498 57.8222 123.444 60.5824 121.786 65.4661L147.46 79.9176Z" fill="#FEFACC"/>
<path d="M95.9713 204.041C93.0436 205.558 90.0298 205.502 87.3272 204.238C86.2023 210.01 86.2322 212.68 86.5408 217.201C86.6483 218.257 86.9912 219.032 87.5041 219.564L88.9316 220.367C92.9997 221.387 100.783 215.746 101.082 209.713L101.082 202.905L101.082 200.346L100.748 200.596C98.4341 202.33 96.7504 203.591 95.9713 204.041Z" fill="white"/>
<path d="M101.083 177.491C101.083 182.003 98.971 186.879 96.3664 188.383C93.7618 189.887 91.6505 187.449 91.6506 182.938C91.6508 178.426 93.7624 173.55 96.367 172.046C98.9716 170.542 101.083 172.98 101.083 177.491Z" fill="#FEFACC"/>
<path d="M153.745 147.083C153.745 151.595 151.634 156.471 149.029 157.975C146.424 159.479 144.313 157.041 144.313 152.53C144.313 148.018 146.425 143.142 149.03 141.638C151.634 140.134 153.746 142.572 153.745 147.083Z" fill="#FEFACC"/>
<path d="M150.599 172.498C149.606 173.399 147.359 174.424 144.313 175.694L144.313 178.851L144.313 184.297C146.67 191.558 156.888 185.658 158.461 175.674C158.474 175.361 158.487 175.056 158.5 174.759C158.685 170.603 158.8 168.009 156.356 165.544C154.629 167.905 152.709 170.236 150.599 172.498Z" fill="white"/>
<path fill-rule="evenodd" clip-rule="evenodd" d="M85.8457 203.404C86.3269 203.723 86.8216 204.002 87.3272 204.238C90.0298 205.502 93.0436 205.558 95.9713 204.041C96.7504 203.591 98.4341 202.33 100.748 200.596L101.082 200.346C106.45 196.325 114.976 189.971 123.482 185.213C130.047 181.541 136.6 178.857 141.682 176.777C142.611 176.397 143.491 176.036 144.313 175.694C147.359 174.424 149.606 173.399 150.599 172.498C152.709 170.236 154.629 167.905 156.356 165.544C170.527 146.173 171.79 124.751 159.875 121.761C163.965 110.323 165.538 84.9091 156.892 82.1865L163.181 69.0255C164.916 65.2682 163.419 61.995 160.738 61.5327C158.562 61.1574 155.605 62.6349 152.963 67.2106C150.172 72.2737 149.118 75.0339 147.46 79.9176C135.925 82.7 127.399 86.18 118.058 92.3233C112.034 96.2846 105.671 101.353 97.9419 108.056C96.389 105.041 95.1812 103.825 92.8332 101.93C88.1173 99.6609 77.5059 112.141 81.8287 115.999L87.3304 122.352C81.0419 138.69 80.6482 156.162 85.5077 164.702C76.5665 177.005 76.6062 189.384 80.5338 197.154C81.9035 199.864 83.7462 202.014 85.8457 203.404ZM88.9316 220.367L87.5041 219.564C87.8921 219.966 88.3773 220.228 88.9316 220.367ZM101.083 177.491C101.083 182.003 98.971 186.879 96.3664 188.383C93.7618 189.887 91.6505 187.449 91.6506 182.938C91.6508 178.426 93.7624 173.55 96.367 172.046C98.9716 170.542 101.083 172.98 101.083 177.491ZM149.029 157.975C151.634 156.471 153.745 151.595 153.745 147.083C153.746 142.572 151.634 140.134 149.03 141.638C146.425 143.142 144.313 148.018 144.313 152.53C144.313 157.041 146.424 159.479 149.029 157.975Z" fill="white"/>
<path d="M123.482 185.213C114.976 189.971 106.45 196.325 101.082 200.346L101.082 202.905C114.444 206.082 127.806 198.366 144.313 178.851L144.313 175.694C143.491 176.036 142.611 176.397 141.682 176.777C136.6 178.857 130.047 181.541 123.482 185.213Z" fill="#FEFACC"/>
<path d="M87.3272 204.238C90.0298 205.502 93.0436 205.558 95.9713 204.041C96.7504 203.591 98.4341 202.33 100.748 200.596L101.082 200.346M87.3272 204.238C86.2023 210.01 86.2322 212.68 86.5408 217.201C86.6483 218.257 86.9912 219.032 87.5041 219.563M87.3272 204.238L85.8457 203.404M87.3272 204.238C86.8216 204.002 86.3269 203.723 85.8457 203.404M101.082 200.346C106.45 196.325 114.976 189.971 123.482 185.213C130.047 181.541 136.6 178.857 141.682 176.777C142.611 176.397 143.491 176.036 144.313 175.694M101.082 200.346L101.082 202.905M101.082 202.905L101.082 209.713C100.783 215.746 92.9997 221.387 88.9316 220.367M101.082 202.905C114.444 206.082 127.806 198.366 144.313 178.851M144.313 175.694C147.359 174.424 149.606 173.399 150.599 172.498C152.709 170.236 154.629 167.905 156.356 165.544M144.313 175.694L144.313 178.851M156.356 165.544C170.527 146.173 171.79 124.751 159.875 121.761M156.356 165.544C158.8 168.009 158.685 170.603 158.5 174.759C158.487 175.056 158.474 175.361 158.461 175.674C156.888 185.658 146.67 191.558 144.313 184.297L144.313 178.851M99.9049 160.019C116.018 141.639 127.594 135.369 144.314 133.923M145.099 124.847C151.281 121.669 156.203 120.84 159.875 121.761M159.875 121.761C163.965 110.323 165.538 84.9091 156.892 82.1865L163.181 69.0255C164.916 65.2682 163.419 61.995 160.738 61.5327M147.46 79.9176C149.118 75.0339 150.172 72.2737 152.963 67.2106C155.605 62.6349 158.562 61.1574 160.738 61.5327M147.46 79.9176C135.925 82.7 127.399 86.18 118.058 92.3233C112.034 96.2846 105.671 101.353 97.9419 108.056C96.389 105.041 95.1812 103.825 92.8332 101.93M147.46 79.9176L121.786 65.4661M92.8332 101.93C88.1173 99.661 77.5059 112.141 81.8287 115.999M92.8332 101.93L77.2933 93.037M81.8287 115.999L87.3304 122.352C81.0419 138.69 80.6482 156.162 85.5077 164.702M81.8287 115.999L56.1548 101.548M99.9033 150.944C93.6161 155.347 88.9112 160.019 85.5077 164.702M85.5077 164.702C76.5665 177.005 76.6062 189.384 80.5338 197.154C81.9035 199.864 83.7462 202.014 85.8457 203.404M85.5077 164.702L59.8337 150.25M61.6533 189.786C60.5283 195.558 60.5583 198.229 60.8668 202.75C61.0556 204.604 61.9707 205.593 63.2576 205.915L87.5041 219.563M61.6533 189.786C52.6166 185.56 47.0597 167.827 59.8337 150.25M61.6533 189.786L85.8457 203.404M121.786 65.4661C123.444 60.5824 124.498 57.8222 127.289 52.759C129.931 48.1834 132.888 46.7059 135.064 47.0812L160.738 61.5327M121.786 65.4661C105.269 69.45 92.7007 80.4223 77.2933 93.037M56.1548 101.548C51.832 97.6899 62.4433 85.2094 67.1592 87.4787L77.2933 93.037M56.1548 101.548L61.6565 107.901C55.3679 124.238 54.9743 141.711 59.8337 150.25M88.9316 220.367L87.5041 219.563M88.9316 220.367C88.3773 220.228 87.8921 219.966 87.5041 219.563M101.083 177.491C101.083 182.003 98.971 186.879 96.3664 188.383C93.7618 189.887 91.6505 187.449 91.6506 182.938C91.6508 178.426 93.7624 173.55 96.367 172.046C98.9716 170.542 101.083 172.98 101.083 177.491ZM153.745 147.083C153.745 151.595 151.634 156.471 149.029 157.975C146.424 159.479 144.313 157.041 144.313 152.53C144.313 148.018 146.425 143.142 149.03 141.638C151.634 140.134 153.746 142.572 153.745 147.083ZM145.101 106.24C145.101 108.997 143.869 111.943 142.35 112.82C140.83 113.698 139.599 112.174 139.599 109.417C139.599 106.66 140.831 103.713 142.35 102.836C143.87 101.959 145.101 103.483 145.101 106.24ZM105.801 128.932C105.8 131.689 104.569 134.636 103.049 135.513C101.53 136.39 100.298 134.866 100.298 132.109C100.299 129.352 101.53 126.406 103.05 125.529C104.569 124.651 105.801 126.175 105.801 128.932Z" stroke="#333015" stroke-width="4" stroke-linecap="round"/>
</g>
<defs>
<filter id="filter0_d_2620_19250" x="0.338867" y="0.522461" width="219.641" height="277.465" filterUnits="userSpaceOnUse" color-interpolation-filters="sRGB">
<feFlood flood-opacity="0" result="BackgroundImageFix"/>
<feColorMatrix in="SourceAlpha" type="matrix" values="0 0 0 0 0 0 0 0 0 0 0 0 0 0 0 0 0 0 127 0" result="hardAlpha"/>
<feOffset dy="5.5"/>
<feGaussianBlur stdDeviation="25"/>
<feComposite in2="hardAlpha" operator="out"/>
<feColorMatrix type="matrix" values="0 0 0 0 0 0 0 0 0 0 0 0 0 0 0 0 0 0 0.25 0"/>
<feBlend mode="normal" in2="BackgroundImageFix" result="effect1_dropShadow_2620_19250"/>
<feBlend mode="normal" in="SourceGraphic" in2="effect1_dropShadow_2620_19250" result="shape"/>
</filter>
</defs>
</svg>
