<svg width="93" height="94" viewBox="0 0 93 94" fill="none" xmlns="http://www.w3.org/2000/svg">
<g filter="url(#filter0_d_2620_19264)">
<path d="M67.9594 58.6033L31.4493 37.4556L15.7188 46.6357L52.229 67.743L67.9594 58.6033Z" fill="#FEFACC"/>
<path d="M50.287 42.9411V47.6263C51.0559 48.1267 52.0685 48.0922 52.8353 47.6263V42.9411L52.4469 41.8378V39.2948L52.4118 34.2615L54.7422 31.839L60.5797 34.9372V22.2482L58.4198 21.1619V31.2628L49.7043 26.1665V16.3917L47.6296 15V27.2986L53.2 30.6425L50.6754 33.2928V38.007V40.5442V41.8378L50.287 42.9411Z" fill="#FEFACC"/>
<path fill-rule="evenodd" clip-rule="evenodd" d="M52.4469 41.8378V39.2948L80 55.0445L55.142 69.4697V77L13.9902 52.9292C13.3769 52.5704 13 51.9133 13 51.2028V44.8197L36.6583 31.0332C37.2798 30.671 38.048 30.6705 38.67 31.0319L50.6754 38.007V40.5442V41.8378L50.287 42.9411V47.6263C51.0559 48.1267 52.0685 48.0922 52.8353 47.6263V42.9411L52.4469 41.8378ZM15.7188 46.6357L31.4493 37.4556L67.9594 58.6033L52.229 67.743L15.7188 46.6357Z" fill="white"/>
<path d="M80 55.0445L55.142 69.4697V77L79.0049 63.1323C79.6209 62.7743 80 62.1156 80 61.4031V55.0445Z" fill="#FEFACC"/>
<path d="M80 55.0445L52.4469 39.2948M80 55.0445L55.142 69.4697M80 55.0445V61.4031M67.9594 58.6033L71.7633 56.3932C73.0941 55.62 73.0894 53.6963 71.7548 52.9297L52.4469 41.8378M67.9594 58.6033L31.4493 37.4556M67.9594 58.6033L52.229 67.743M31.4493 37.4556L37.4305 33.965C38.0545 33.6008 38.8263 33.6015 39.4496 33.9667L50.6754 40.5442M31.4493 37.4556L15.7188 46.6357M52.4469 41.8378L52.8353 42.9411V47.6263C52.0685 48.0922 51.0559 48.1267 50.287 47.6263V42.9411L50.6754 41.8378V40.5442M52.4469 41.8378V39.2948M52.4469 39.2948L52.4118 34.2615L54.7422 31.839L60.5797 34.9372V22.2482L58.4198 21.1619V31.2628L49.7043 26.1665V16.3917L47.6296 15V27.2986L53.2 30.6425L50.6754 33.2928V38.007M50.6754 38.007V40.5442M50.6754 38.007L38.67 31.0319M52.229 67.743L15.7188 46.6357M52.229 67.743L55.142 69.4697M15.7188 46.6357L13 44.8197M55.142 69.4697C55.142 70.6214 55.142 75.8483 55.142 77M55.142 69.4697V77M13 44.8197V51.2028M13 44.8197L36.6583 31.0332M55.142 77L79.0049 63.1323M55.142 77L13.9902 52.9292M80 61.4031C80 62.1156 79.6209 62.7743 79.0049 63.1323M80 61.4031V61.4031C80 62.1156 79.6209 62.7743 79.0049 63.1323V63.1323M13.9902 52.9292C13.3769 52.5704 13 51.9133 13 51.2028M13.9902 52.9292V52.9292C13.3769 52.5704 13 51.9133 13 51.2028V51.2028M36.6583 31.0332C37.2798 30.671 38.048 30.6705 38.67 31.0319M36.6583 31.0332V31.0332C37.2798 30.671 38.048 30.6705 38.67 31.0319V31.0319" stroke="#333015" stroke-width="1.25"/>
</g>
<defs>
<filter id="filter0_d_2620_19264" x="0.375" y="5.82812" width="92.25" height="87.8955" filterUnits="userSpaceOnUse" color-interpolation-filters="sRGB">
<feFlood flood-opacity="0" result="BackgroundImageFix"/>
<feColorMatrix in="SourceAlpha" type="matrix" values="0 0 0 0 0 0 0 0 0 0 0 0 0 0 0 0 0 0 127 0" result="hardAlpha"/>
<feOffset dy="4"/>
<feGaussianBlur stdDeviation="6"/>
<feComposite in2="hardAlpha" operator="out"/>
<feColorMatrix type="matrix" values="0 0 0 0 0 0 0 0 0 0 0 0 0 0 0 0 0 0 0.25 0"/>
<feBlend mode="normal" in2="BackgroundImageFix" result="effect1_dropShadow_2620_19264"/>
<feBlend mode="normal" in="SourceGraphic" in2="effect1_dropShadow_2620_19264" result="shape"/>
</filter>
</defs>
</svg>
