<svg width="298" height="287" viewBox="0 0 298 287" fill="none" xmlns="http://www.w3.org/2000/svg">
<g filter="url(#filter0_d_2620_19259)">
<path d="M210.915 175.058L105.363 113.92L59.8856 140.46L165.438 201.482L210.915 175.058Z" fill="#FEFACC"/>
<path d="M159.823 129.778V143.323C162.046 144.77 164.973 144.671 167.19 143.323V129.778L166.068 126.589V119.237L165.966 104.685L172.703 97.6819L189.58 106.639V69.9547L183.335 66.8142V96.0161L158.139 81.2828V53.0234L152.141 49V84.5556L168.245 94.2228L160.946 101.885V115.514V122.849V126.589L159.823 129.778Z" fill="#FEFACC"/>
<path fill-rule="evenodd" clip-rule="evenodd" d="M166.068 126.589V119.237L245.724 164.77L173.859 206.474V228.244L54.8881 158.654C53.1151 157.617 52.0254 155.717 52.0254 153.663V135.21L120.422 95.3524C122.219 94.3053 124.44 94.3038 126.238 95.3486L160.946 115.514V122.849V126.589L159.823 129.778V143.323C162.046 144.77 164.973 144.671 167.19 143.323V129.778L166.068 126.589ZM59.8856 140.46L105.363 113.92L210.915 175.058L165.438 201.482L59.8856 140.46Z" fill="white"/>
<path d="M245.724 164.77L173.859 206.474V228.244L242.848 188.152C244.628 187.117 245.724 185.213 245.724 183.153V164.77Z" fill="#FEFACC"/>
<path d="M245.724 164.77L166.068 119.237M245.724 164.77L173.859 206.474M245.724 164.77V183.153M210.915 175.058L221.912 168.669C225.759 166.433 225.745 160.872 221.887 158.656L166.068 126.589M210.915 175.058L105.363 113.92M210.915 175.058L165.438 201.482M105.363 113.92L122.655 103.828C124.459 102.776 126.69 102.777 128.492 103.833L160.946 122.849M105.363 113.92L59.8856 140.46M166.068 126.589L167.19 129.778V143.323C164.973 144.671 162.046 144.77 159.823 143.323V129.778L160.946 126.589V122.849M166.068 126.589V119.237M166.068 119.237L165.966 104.685L172.703 97.6819L189.58 106.639V69.9547L183.335 66.8142V96.0161L158.139 81.2828V53.0234L152.141 49V84.5556L168.245 94.2228L160.946 101.885V115.514M160.946 115.514V122.849M160.946 115.514L126.238 95.3486M165.438 201.482L59.8856 140.46M165.438 201.482L173.859 206.474M59.8856 140.46L52.0254 135.21M173.859 206.474C173.859 209.803 173.859 224.914 173.859 228.244M173.859 206.474V228.244M52.0254 135.21V153.663M52.0254 135.21L120.422 95.3524M173.859 228.244L242.848 188.152M173.859 228.244L54.8881 158.654M245.724 183.153C245.724 185.213 244.628 187.117 242.848 188.152M245.724 183.153V183.153C245.724 185.213 244.628 187.117 242.848 188.152V188.152M54.8881 158.654C53.1151 157.617 52.0254 155.717 52.0254 153.663M54.8881 158.654V158.654C53.1151 157.617 52.0254 155.717 52.0254 153.663V153.663M120.422 95.3524C122.219 94.3053 124.44 94.3038 126.238 95.3486M120.422 95.3524V95.3524C122.219 94.3053 124.44 94.3038 126.238 95.3486V95.3486" stroke="#333015" stroke-width="4"/>
</g>
<defs>
<filter id="filter0_d_2620_19259" x="0.0253906" y="0.75" width="297.699" height="285.309" filterUnits="userSpaceOnUse" color-interpolation-filters="sRGB">
<feFlood flood-opacity="0" result="BackgroundImageFix"/>
<feColorMatrix in="SourceAlpha" type="matrix" values="0 0 0 0 0 0 0 0 0 0 0 0 0 0 0 0 0 0 127 0" result="hardAlpha"/>
<feOffset dy="5.5"/>
<feGaussianBlur stdDeviation="25"/>
<feComposite in2="hardAlpha" operator="out"/>
<feColorMatrix type="matrix" values="0 0 0 0 0 0 0 0 0 0 0 0 0 0 0 0 0 0 0.25 0"/>
<feBlend mode="normal" in2="BackgroundImageFix" result="effect1_dropShadow_2620_19259"/>
<feBlend mode="normal" in="SourceGraphic" in2="effect1_dropShadow_2620_19259" result="shape"/>
</filter>
</defs>
</svg>
