<svg width="281" height="241" viewBox="0 0 281 241" fill="none" xmlns="http://www.w3.org/2000/svg">
<g filter="url(#filter0_d_2620_19278)">
<path d="M121.796 170.447C122.743 174.005 121.471 177.439 118.955 178.117C116.438 178.796 113.631 176.463 112.684 172.905C111.737 169.348 113.009 165.914 115.526 165.235C118.042 164.556 120.85 166.89 121.796 170.447Z" fill="white"/>
<path d="M66.2591 137.63C67.1233 140.877 65.9622 144.011 63.6655 144.631C61.3689 145.25 58.8065 143.12 57.9422 139.873C57.078 136.627 58.2391 133.492 60.5358 132.873C62.8324 132.253 65.3948 134.383 66.2591 137.63Z" fill="white"/>
<path d="M111.088 151.858V159.311C111.99 158.494 113.039 157.899 114.213 157.582L118.56 156.116L111.088 151.858Z" fill="white"/>
<path d="M127.717 168.806C129.391 175.097 127.843 181.208 124.235 184.002L133.038 179.595C134.762 178.034 135.324 177.104 135.84 175.364V165.962L118.56 156.116L114.213 157.582C119.632 156.12 125.678 161.145 127.717 168.806Z" fill="white"/>
<path d="M170.4 171.603V165.021L159.097 171.603L159.172 184.766L174.069 176.304L170.4 171.603Z" fill="white"/>
<path d="M147.983 184.766V177.714L146.582 178.654L144.417 177.244L144.714 192.757L151.285 188.997L147.983 184.766Z" fill="white"/>
<path d="M70.8109 136.676C72.2653 142.14 70.828 147.463 67.5706 149.849L76.0615 145.747C76.8851 144.986 77.3183 144.487 77.9298 143.397V131.644L67.1881 123.534L58.3147 127.315C58.5396 127.227 58.7704 127.151 59.0069 127.087C63.774 125.801 69.0589 130.094 70.8109 136.676Z" fill="white"/>
<path d="M83.7273 88.2539L66.2542 97.7966L83.0751 108.823L83.7273 88.2539Z" fill="white"/>
<path d="M175.537 178.184V96.8563L170.4 81.3429V123.652V133.054V144.337V165.021V171.603L174.069 176.304L175.537 178.184Z" fill="#FEFACC"/>
<path d="M153.12 110.019L147.983 94.5058V124.122V133.054V146.217V157.5V165.962V177.714V184.766L151.285 188.997L153.12 191.347V110.019Z" fill="#FEFACC"/>
<path d="M66.2542 97.7966C62.02 101.764 62.5855 108.31 62.9854 120.362L67.1881 123.534L77.9298 131.644V143.397V152.329L107.436 169.823C107.276 165.997 108.3 162.533 110.214 160.226C110.365 160.044 110.522 159.869 110.685 159.702C110.808 159.574 110.934 159.451 111.064 159.333C111.072 159.326 111.08 159.318 111.088 159.311V151.858L118.56 156.116L135.84 165.962V175.364V187.586L144.714 192.757L144.417 177.244L144.247 168.312L140.043 144.337L134.439 140.912L126.967 136.345V147.628V151.388L107.155 139.927L86.3348 127.883V110.959L83.0751 108.823L66.2542 97.7966Z" fill="#FEFACC"/>
<path d="M86.3348 110.959V127.883L107.155 139.927L107.718 136.345C108.753 127.413 104.55 121.772 98.4787 122.242C99.5469 115.369 97.0776 111.43 90.0723 109.079L86.3348 110.959Z" fill="#FEFACC"/>
<path d="M83.0751 108.823L86.3348 110.959L90.0723 109.079L91.0064 76.2506L84.2296 72.411L83.7273 88.2539L83.0751 108.823Z" fill="#FEFACC"/>
<path d="M84.4681 64.8893L84.2296 72.411L91.0064 76.2506L115.758 90.2749C116.898 91.0123 117.938 91.7924 118.884 92.6254C123.365 96.5721 125.729 101.704 126.5 109.079L126.592 114.485L126.637 117.071L126.782 125.533L126.967 136.345L134.439 140.912L132.571 102.498L131.17 98.7368L135.373 96.3191L150.318 87.7229L157.323 83.6935L158.724 86.5141L161.526 124.592L167.131 121.302L163.861 84.6337L163.854 84.6054C162.039 77.5106 161.019 73.5265 151.252 67.7099L119.962 86.044L84.4681 64.8893Z" fill="#FEFACC"/>
<path fill-rule="evenodd" clip-rule="evenodd" d="M124.235 184.002C123.45 184.61 122.567 185.061 121.598 185.323L124.235 184.002ZM121.796 170.447C122.743 174.005 121.471 177.439 118.955 178.117C116.438 178.796 113.631 176.463 112.684 172.905C111.737 169.348 113.009 165.914 115.526 165.235C118.042 164.556 120.85 166.89 121.796 170.447Z" fill="white"/>
<path fill-rule="evenodd" clip-rule="evenodd" d="M108.094 174.098C110.133 181.759 116.179 186.784 121.598 185.323L124.235 184.002C127.843 181.208 129.391 175.097 127.717 168.806C125.678 161.145 119.632 156.12 114.213 157.582C113.039 157.899 111.99 158.494 111.088 159.311L111.064 159.333C110.934 159.451 110.808 159.574 110.685 159.702C110.522 159.869 110.365 160.044 110.214 160.226C108.3 162.533 107.276 165.997 107.436 169.823C107.494 171.213 107.709 172.651 108.094 174.098ZM118.955 178.117C121.471 177.439 122.743 174.005 121.796 170.447C120.85 166.89 118.042 164.556 115.526 165.235C113.009 165.914 111.737 169.348 112.684 172.905C113.631 176.463 116.438 178.796 118.955 178.117Z" fill="#FEFACC"/>
<path fill-rule="evenodd" clip-rule="evenodd" d="M67.5706 149.849C66.904 150.338 66.1613 150.703 65.3514 150.921L67.5706 149.849ZM66.2591 137.63C67.1233 140.877 65.9622 144.011 63.6655 144.631C61.3689 145.25 58.8065 143.12 57.9422 139.873C57.078 136.627 58.2391 133.492 60.5358 132.873C62.8324 132.253 65.3948 134.383 66.2591 137.63Z" fill="white"/>
<path fill-rule="evenodd" clip-rule="evenodd" d="M53.5474 141.332C55.2994 147.914 60.5843 152.207 65.3514 150.921L67.5706 149.849C70.828 147.463 72.2653 142.14 70.8109 136.676C69.0589 130.094 63.774 125.801 59.0069 127.087C58.7704 127.151 58.5396 127.227 58.3147 127.315C54.0075 129.006 51.8824 135.077 53.5474 141.332ZM63.6655 144.631C65.9622 144.011 67.1233 140.877 66.2591 137.63C65.3948 134.383 62.8324 132.253 60.5358 132.873C58.2391 133.492 57.078 136.627 57.9422 139.873C58.8065 143.12 61.3689 145.25 63.6655 144.631Z" fill="#FEFACC"/>
<path fill-rule="evenodd" clip-rule="evenodd" d="M91.0064 76.2506L90.0723 109.079C97.0776 111.43 99.5469 115.369 98.4787 122.242C104.55 121.772 108.753 127.413 107.718 136.345L107.155 139.927L126.967 151.388V147.628V136.345L126.782 125.533L126.637 117.071L126.592 114.485L126.5 109.079C125.729 101.704 123.365 96.5721 118.884 92.6254C117.938 91.7924 116.898 91.0123 115.758 90.2749L91.0064 76.2506ZM144.247 168.312L140.043 144.337L134.439 140.912L132.571 102.498L131.17 98.7368L135.373 96.3191L137.241 100.617L138.259 121.561L145.181 125.717L147.983 124.122V133.054V146.217V157.5V165.962V177.714L146.582 178.654L144.417 177.244L144.247 168.312ZM147.983 94.5058L153.12 110.019V191.347L199.355 218.143L204.959 214.852L159.191 188.056L159.172 184.766L159.097 171.603L170.4 165.021V144.337V133.054V123.652L167.131 121.302L161.526 124.592L158.724 86.5141L157.323 83.6935L150.318 87.7229L151.677 92.4777L147.983 94.5058ZM115.758 47.0254L151.252 67.7099L119.962 86.044L84.4681 64.8893L115.758 47.0254ZM221.305 204.98L175.537 178.184V96.8563L170.4 81.3429L175.537 78.5223L181.141 93.0955V127.413L183.476 128.823V137.285L181.141 138.696V148.098L183.476 149.508V157.5L181.141 158.91V175.364L226.442 201.689L221.305 204.98Z" fill="white"/>
<path d="M66.2542 97.7966C62.02 101.764 62.5855 108.31 62.9854 120.362L67.1881 123.534M66.2542 97.7966L83.7273 88.2539M66.2542 97.7966L83.0751 108.823M83.7273 88.2539L83.0751 108.823M83.7273 88.2539L84.2296 72.411M83.0751 108.823L86.3348 110.959M83.0751 108.823L83.067 109.079M83.0751 108.823L84.2296 72.411M86.3348 110.959V127.883L107.155 139.927M86.3348 110.959L90.0723 109.079M144.247 168.312L140.043 144.337L134.439 140.912M144.247 168.312L147.983 165.962M144.247 168.312L144.417 177.244M144.714 192.757L135.84 187.586V175.364M144.714 192.757L144.417 177.244M144.714 192.757L151.285 188.997M111.088 159.311V151.858L118.56 156.116M111.088 159.311C111.99 158.494 113.039 157.899 114.213 157.582M111.088 159.311C111.08 159.318 111.072 159.326 111.064 159.333M111.088 159.311L111.064 159.333M107.436 169.823L77.9298 152.329V143.397M107.436 169.823C107.276 165.997 108.3 162.533 110.214 160.226M107.436 169.823C107.494 171.213 107.709 172.651 108.094 174.098M84.2296 72.411L84.4681 64.8893M84.2296 72.411L91.0064 76.2506M84.4681 64.8893L115.758 47.0254L151.252 67.7099M84.4681 64.8893L119.962 86.044L151.252 67.7099M126.967 136.345L134.439 140.912M126.967 136.345V147.628V151.388L107.155 139.927M126.967 136.345L126.782 125.533M134.439 140.912L132.571 102.498L131.17 98.7368L135.373 96.3191M134.439 140.912L139.07 138.225M161.526 124.592L158.724 86.5141L157.323 83.6935L150.318 87.7229M161.526 124.592L167.131 121.302M161.526 124.592L158.819 123.182M167.131 121.302L163.861 84.6337L163.854 84.6054C162.039 77.5106 161.019 73.5265 151.252 67.7099M167.131 121.302L170.4 123.652M90.0723 109.079L91.0064 76.2506M90.0723 109.079C97.0776 111.43 99.5469 115.369 98.4787 122.242C104.55 121.772 108.753 127.413 107.718 136.345M90.0723 109.079L111.088 97.0774C116.686 101.476 117.524 104.989 117.627 111.9C121.358 112.9 123.354 113.828 126.637 117.071M91.0064 76.2506L115.758 90.2749C116.898 91.0123 117.938 91.7924 118.884 92.6254C123.365 96.5721 125.729 101.704 126.5 109.079L126.592 114.485L126.637 117.071M107.718 136.345L126.782 125.533M107.718 136.345L107.155 139.927M126.637 117.071L126.782 125.533M139.07 138.225L147.983 133.054M139.07 138.225L138.642 129.439M147.983 133.054V124.122M147.983 133.054V146.217M135.373 96.3191L137.241 100.617L138.259 121.561M135.373 96.3191L150.318 87.7229M150.318 87.7229L151.677 92.4777M151.677 92.4777L151.719 92.6254M151.677 92.4777L153.12 91.6852L158.724 106.729M151.677 92.4777L147.983 94.5058M147.983 94.5058L153.12 110.019M147.983 94.5058V124.122M153.12 191.347L199.355 218.143L204.959 214.852L159.191 188.056L159.172 184.766M153.12 191.347V110.019M153.12 191.347L151.285 188.997M158.724 106.729L153.12 110.019M158.724 106.729L158.819 123.182M170.4 81.3429L175.537 78.5223L181.141 93.0955V127.413M170.4 81.3429L175.537 96.8563V178.184M170.4 81.3429V123.652M175.537 178.184L221.305 204.98L226.442 201.689L181.141 175.364V158.91M175.537 178.184L174.069 176.304M138.642 129.439L145.181 125.717M138.642 129.439L138.259 121.561M147.983 124.122L145.181 125.717M145.181 125.717L138.259 121.561M170.4 123.652V133.054M158.819 123.182L158.913 139.636M170.4 133.054L158.913 139.636M170.4 133.054V144.337M158.913 139.636L158.981 151.388M147.983 146.217L143.78 148.568V156.559L146.582 158.44L147.983 157.5M147.983 146.217V157.5M147.983 157.5V165.962M158.981 151.388L160.592 150.393M158.981 151.388L159.097 171.603M170.4 144.337L166.197 146.932M170.4 144.337V165.021M181.141 138.696L183.476 137.285V128.823L181.141 127.413M181.141 138.696V127.413M181.141 138.696V148.098M181.141 148.098L183.476 149.508V157.5L181.141 158.91M181.141 148.098V158.91M166.197 146.932V156.089L160.592 159.38V150.393M166.197 146.932L160.592 150.393M147.983 165.962V177.714M147.983 177.714V184.766L151.285 188.997M147.983 177.714L146.582 178.654L144.417 177.244M159.097 171.603L170.4 165.021M159.097 171.603L159.172 184.766M170.4 165.021V171.603L174.069 176.304M121.598 185.323C116.179 186.784 110.133 181.759 108.094 174.098M121.598 185.323L124.235 184.002M121.598 185.323C122.567 185.061 123.45 184.61 124.235 184.002M108.094 174.098C106.649 168.668 107.605 163.371 110.214 160.226M114.213 157.582C119.632 156.12 125.678 161.145 127.717 168.806C129.391 175.097 127.843 181.208 124.235 184.002M114.213 157.582L118.56 156.116M114.213 157.582C113.028 157.901 111.971 158.505 111.064 159.333M65.3514 150.921C60.5843 152.207 55.2994 147.914 53.5474 141.332C51.8824 135.077 54.0075 129.006 58.3147 127.315M65.3514 150.921L67.5706 149.849M65.3514 150.921C66.1613 150.703 66.904 150.338 67.5706 149.849M58.3147 127.315C58.5396 127.227 58.7704 127.151 59.0069 127.087C63.774 125.801 69.0589 130.094 70.8109 136.676C72.2653 142.14 70.828 147.463 67.5706 149.849M58.3147 127.315L67.1881 123.534M67.1881 123.534L77.9298 131.644V143.397M77.9298 143.397C77.3183 144.487 76.8851 144.986 76.0615 145.747L67.5706 149.849M135.84 175.364V165.962L118.56 156.116M135.84 175.364C135.324 177.104 134.762 178.034 133.038 179.595L124.235 184.002M159.172 184.766L174.069 176.304M110.214 160.226C110.365 160.044 110.522 159.869 110.685 159.702C110.808 159.574 110.934 159.451 111.064 159.333M121.796 170.447C122.743 174.005 121.471 177.439 118.955 178.118C116.438 178.796 113.631 176.463 112.684 172.905C111.737 169.348 113.009 165.914 115.526 165.235C118.042 164.556 120.849 166.89 121.796 170.447ZM66.2591 137.63C67.1233 140.877 65.9622 144.011 63.6655 144.631C61.3689 145.25 58.8065 143.12 57.9422 139.873C57.0779 136.627 58.2391 133.492 60.5358 132.873C62.8324 132.253 65.3948 134.383 66.2591 137.63Z" stroke="#333015" stroke-width="4"/>
</g>
<defs>
<filter id="filter0_d_2620_19278" x="0.980469" y="0.216797" width="279.299" height="275.741" filterUnits="userSpaceOnUse" color-interpolation-filters="sRGB">
<feFlood flood-opacity="0" result="BackgroundImageFix"/>
<feColorMatrix in="SourceAlpha" type="matrix" values="0 0 0 0 0 0 0 0 0 0 0 0 0 0 0 0 0 0 127 0" result="hardAlpha"/>
<feOffset dy="5.5"/>
<feGaussianBlur stdDeviation="25"/>
<feComposite in2="hardAlpha" operator="out"/>
<feColorMatrix type="matrix" values="0 0 0 0 0 0 0 0 0 0 0 0 0 0 0 0 0 0 0.25 0"/>
<feBlend mode="normal" in2="BackgroundImageFix" result="effect1_dropShadow_2620_19278"/>
<feBlend mode="normal" in="SourceGraphic" in2="effect1_dropShadow_2620_19278" result="shape"/>
</filter>
</defs>
</svg>
