<svg width="92" height="92" viewBox="0 0 92 92" fill="none" xmlns="http://www.w3.org/2000/svg">
<g filter="url(#filter0_d_2620_19271)">
<path d="M39.8033 58.6913C40.1308 59.9218 39.6908 61.1097 38.8204 61.3445C37.9499 61.5792 36.9788 60.772 36.6512 59.5415C36.3237 58.311 36.7638 57.1231 37.6342 56.8884C38.5046 56.6536 39.4757 57.4608 39.8033 58.6913Z" fill="white"/>
<path d="M20.593 47.34C20.892 48.463 20.4903 49.5471 19.6959 49.7614C18.9015 49.9757 18.0152 49.2389 17.7163 48.1159C17.4173 46.9928 17.819 45.9087 18.6134 45.6945C19.4078 45.4802 20.2941 46.2169 20.593 47.34Z" fill="white"/>
<path d="M36.0993 52.2615V54.8394C36.4112 54.5568 36.774 54.3508 37.1803 54.2412L38.6839 53.7341L36.0993 52.2615Z" fill="white"/>
<path d="M41.8511 58.1236C42.4303 60.2995 41.8949 62.4135 40.6469 63.3798L43.6917 61.8554C44.288 61.3154 44.4825 60.9938 44.661 60.3919V57.1397L38.6839 53.7341L37.1803 54.2412C39.0546 53.7356 41.1458 55.4739 41.8511 58.1236Z" fill="white"/>
<path d="M56.6151 59.091V56.8145L52.7054 59.091L52.7315 63.644L57.8843 60.7171L56.6151 59.091Z" fill="white"/>
<path d="M48.8611 63.644V61.2049L48.3765 61.5301L47.6278 61.0423L47.7303 66.4084L50.0034 65.1075L48.8611 63.644Z" fill="white"/>
<path d="M22.1675 47.0099C22.6706 48.8998 22.1734 50.7411 21.0467 51.5665L23.9837 50.1476C24.2685 49.8844 24.4184 49.7118 24.6299 49.3346V45.2694L20.9144 42.4643L17.8451 43.772C17.9229 43.7415 18.0027 43.7151 18.0845 43.693C19.7335 43.2483 21.5615 44.7333 22.1675 47.0099Z" fill="white"/>
<path d="M26.6353 30.2608L20.5914 33.5616L26.4097 37.3755L26.6353 30.2608Z" fill="white"/>
<path d="M58.392 61.3675V33.2364L56.6151 27.8704V42.505V45.7572V49.6598V56.8145V59.091L57.8843 60.7171L58.392 61.3675Z" fill="#FEFACC"/>
<path d="M50.638 37.7894L48.8611 32.4234V42.6677V45.7572V50.3102V54.2128V57.1397V61.2049V63.644L50.0034 65.1075L50.638 65.9206V37.7894Z" fill="#FEFACC"/>
<path d="M20.5914 33.5616C19.1267 34.9338 19.3224 37.1981 19.4607 41.3668L20.9144 42.4643L24.6299 45.2694V49.3346V52.4241L34.836 58.4754C34.7806 57.152 35.135 55.9537 35.797 55.1559C35.8493 55.0929 35.9036 55.0323 35.9597 54.9745C36.0024 54.9304 36.0461 54.8879 36.0909 54.847C36.0937 54.8444 36.0965 54.8419 36.0993 54.8394V52.2615L38.6839 53.7341L44.661 57.1397V60.3919V64.6197L47.7303 66.4084L47.6278 61.0423L47.5688 57.9528L46.1149 49.6598L44.1764 48.4751L41.5917 46.8955V50.798V52.0989L34.7388 48.1345L27.5372 43.9685V38.1146L26.4097 37.3755L20.5914 33.5616Z" fill="#FEFACC"/>
<path d="M27.5372 38.1146V43.9685L34.7388 48.1345L34.9334 46.8955C35.2916 43.8059 33.8378 41.8546 31.7377 42.0172C32.1072 39.6397 31.2531 38.2773 28.83 37.4642L27.5372 38.1146Z" fill="#FEFACC"/>
<path d="M26.4097 37.3755L27.5372 38.1146L28.83 37.4642L29.1531 26.1089L26.809 24.7808L26.6353 30.2608L26.4097 37.3755Z" fill="#FEFACC"/>
<path d="M26.8915 22.1791L26.809 24.7808L29.1531 26.1089L37.7147 30.9599C38.1089 31.215 38.4687 31.4848 38.7958 31.7729C40.3459 33.1381 41.1634 34.9131 41.4302 37.4642L41.4622 39.3341L41.4775 40.2285L41.5277 43.1555L41.5917 46.8955L44.1764 48.4751L43.5302 35.1877L43.0456 33.8868L44.4995 33.0506L49.6688 30.0772L52.0919 28.6834L52.5765 29.659L53.5458 42.8303L55.4843 41.692L54.3535 29.0086L54.351 28.9988C53.723 26.5448 53.3704 25.1667 49.9919 23.1547L39.1686 29.4964L26.8915 22.1791Z" fill="#FEFACC"/>
<path fill-rule="evenodd" clip-rule="evenodd" d="M40.6469 63.3798C40.3752 63.5903 40.0697 63.7463 39.7345 63.8366L40.6469 63.3798ZM39.8033 58.6913C40.1308 59.9218 39.6908 61.1097 38.8204 61.3445C37.9499 61.5792 36.9788 60.772 36.6512 59.5415C36.3237 58.311 36.7638 57.1231 37.6342 56.8884C38.5046 56.6536 39.4757 57.4608 39.8033 58.6913Z" fill="white"/>
<path fill-rule="evenodd" clip-rule="evenodd" d="M35.0637 59.9543C35.769 62.604 37.8602 64.3422 39.7345 63.8366L40.6469 63.3798C41.8949 62.4135 42.4303 60.2995 41.8511 58.1236C41.1458 55.4739 39.0546 53.7356 37.1803 54.2412C36.774 54.3508 36.4112 54.5568 36.0993 54.8394L36.0909 54.847C36.0461 54.8879 36.0024 54.9304 35.9597 54.9745C35.9036 55.0323 35.8493 55.0929 35.797 55.1559C35.135 55.9537 34.7806 57.152 34.836 58.4754C34.8562 58.9562 34.9304 59.4536 35.0637 59.9543ZM38.8204 61.3445C39.6908 61.1097 40.1308 59.9218 39.8033 58.6913C39.4757 57.4608 38.5046 56.6536 37.6342 56.8884C36.7638 57.1231 36.3237 58.311 36.6512 59.5415C36.9788 60.772 37.9499 61.5792 38.8204 61.3445Z" fill="#FEFACC"/>
<path fill-rule="evenodd" clip-rule="evenodd" d="M21.0467 51.5665C20.8161 51.7354 20.5592 51.8618 20.2791 51.9374L21.0467 51.5665ZM20.593 47.34C20.892 48.463 20.4903 49.5471 19.6959 49.7614C18.9015 49.9757 18.0152 49.2389 17.7163 48.1159C17.4173 46.9928 17.819 45.9087 18.6134 45.6945C19.4078 45.4802 20.2941 46.2169 20.593 47.34Z" fill="white"/>
<path fill-rule="evenodd" clip-rule="evenodd" d="M16.1961 48.6205C16.8021 50.8971 18.6301 52.3821 20.2791 51.9374L21.0467 51.5665C22.1734 50.7411 22.6706 48.8998 22.1675 47.0099C21.5615 44.7333 19.7335 43.2483 18.0845 43.693C18.0027 43.7151 17.9229 43.7415 17.8451 43.772C16.3552 44.3569 15.6202 46.4568 16.1961 48.6205ZM19.6959 49.7614C20.4903 49.5471 20.892 48.463 20.593 47.34C20.2941 46.2169 19.4078 45.4802 18.6134 45.6945C17.819 45.9087 17.4173 46.9928 17.7163 48.1159C18.0152 49.2389 18.9015 49.9757 19.6959 49.7614Z" fill="#FEFACC"/>
<path fill-rule="evenodd" clip-rule="evenodd" d="M29.1531 26.1089L28.83 37.4642C31.2531 38.2773 32.1072 39.6397 31.7377 42.0172C33.8378 41.8546 35.2916 43.8059 34.9334 46.8955L34.7388 48.1345L41.5917 52.0989V50.798V46.8955L41.5277 43.1555L41.4775 40.2285L41.4622 39.3341L41.4302 37.4642C41.1634 34.9131 40.3459 33.1381 38.7958 31.7729C38.4687 31.4848 38.1089 31.215 37.7147 30.9599L29.1531 26.1089ZM47.5688 57.9528L46.1149 49.6598L44.1764 48.4751L43.5302 35.1877L43.0456 33.8868L44.4995 33.0506L45.1456 34.5373L45.4978 41.7818L47.8918 43.2194L48.8611 42.6677V45.7572V50.3102V54.2128V57.1397V61.2049L48.3765 61.5301L47.6278 61.0423L47.5688 57.9528ZM48.8611 32.4234L50.638 37.7894V65.9206L66.6306 75.1892L68.5691 74.0509L52.7381 64.7823L52.7315 63.644L52.7054 59.091L56.6151 56.8145V49.6598V45.7572V42.505L55.4843 41.692L53.5458 42.8303L52.5765 29.659L52.0919 28.6834L49.6688 30.0772L50.1388 31.7218L48.8611 32.4234ZM37.7147 16L49.9919 23.1547L39.1686 29.4964L26.8915 22.1791L37.7147 16ZM74.223 70.6362L58.392 61.3675V33.2364L56.6151 27.8704L58.392 26.8947L60.3305 31.9356V43.8059L61.1382 44.2937V47.2207L60.3305 47.7085V50.9606L61.1382 51.4485V54.2128L60.3305 54.7006V60.3919L76 69.4979L74.223 70.6362Z" fill="white"/>
<path d="M20.5914 33.5616C19.1267 34.9338 19.3224 37.1981 19.4607 41.3668L20.9144 42.4643M20.5914 33.5616L26.6353 30.2608M20.5914 33.5616L26.4097 37.3755M26.6353 30.2608L26.4097 37.3755M26.6353 30.2608L26.809 24.7808M26.4097 37.3755L27.5372 38.1146M26.4097 37.3755L26.4069 37.4642M26.4097 37.3755L26.809 24.7808M27.5372 38.1146V43.9685L34.7388 48.1345M27.5372 38.1146L28.83 37.4642M47.5688 57.9528L46.1149 49.6598L44.1764 48.4751M47.5688 57.9528L48.8611 57.1397M47.5688 57.9528L47.6278 61.0423M47.7303 66.4084L44.661 64.6197V60.3919M47.7303 66.4084L47.6278 61.0423M47.7303 66.4084L50.0034 65.1075M36.0993 54.8394V52.2615L38.6839 53.7341M36.0993 54.8394C36.4112 54.5568 36.774 54.3508 37.1803 54.2412M36.0993 54.8394C36.0965 54.8419 36.0937 54.8444 36.0909 54.847M36.0993 54.8394L36.0909 54.847M34.836 58.4754L24.6299 52.4241V49.3346M34.836 58.4754C34.7806 57.152 35.135 55.9537 35.797 55.1559M34.836 58.4754C34.8562 58.9562 34.9304 59.4536 35.0637 59.9543M26.809 24.7808L26.8915 22.1791M26.809 24.7808L29.1531 26.1089M26.8915 22.1791L37.7147 16L49.9919 23.1547M26.8915 22.1791L39.1686 29.4964L49.9919 23.1547M41.5917 46.8955L44.1764 48.4751M41.5917 46.8955V50.798V52.0989L34.7388 48.1345M41.5917 46.8955L41.5277 43.1555M44.1764 48.4751L43.5302 35.1877L43.0456 33.8868L44.4995 33.0506M44.1764 48.4751L45.778 47.5459M53.5458 42.8303L52.5765 29.659L52.0919 28.6834L49.6688 30.0772M53.5458 42.8303L55.4843 41.692M53.5458 42.8303L52.6092 42.3424M55.4843 41.692L54.3535 29.0086L54.351 28.9988C53.723 26.5448 53.3704 25.1667 49.9919 23.1547M55.4843 41.692L56.6151 42.505M28.83 37.4642L29.1531 26.1089M28.83 37.4642C31.2531 38.2772 32.1072 39.6397 31.7377 42.0172C33.8378 41.8546 35.2916 43.8059 34.9334 46.8955M28.83 37.4642L36.0993 33.3129C38.0356 34.8343 38.3254 36.0493 38.3609 38.4399C39.6516 38.7858 40.342 39.1068 41.4775 40.2285M29.1531 26.1089L37.7147 30.9599C38.1089 31.215 38.4687 31.4848 38.7958 31.7729C40.3459 33.1381 41.1634 34.9131 41.4302 37.4642L41.4622 39.3341L41.4775 40.2285M34.9334 46.8955L41.5277 43.1555M34.9334 46.8955L34.7388 48.1345M41.4775 40.2285L41.5277 43.1555M45.778 47.5459L48.8611 45.7572M45.778 47.5459L45.6303 44.5068M48.8611 45.7572V42.6677M48.8611 45.7572V50.3102M44.4995 33.0506L45.1456 34.5373L45.4978 41.7818M44.4995 33.0506L49.6688 30.0772M49.6688 30.0772L50.1388 31.7218M50.1388 31.7218L50.1534 31.7729M50.1388 31.7218L50.638 31.4477L52.5765 36.6512M50.1388 31.7218L48.8611 32.4234M48.8611 32.4234L50.638 37.7894M48.8611 32.4234V42.6677M50.638 65.9206L66.6306 75.1892L68.5691 74.0509L52.7381 64.7823L52.7315 63.644M50.638 65.9206V37.7894M50.638 65.9206L50.0034 65.1075M52.5765 36.6512L50.638 37.7894M52.5765 36.6512L52.6092 42.3424M56.6151 27.8704L58.392 26.8947L60.3305 31.9356V43.8059M56.6151 27.8704L58.392 33.2364V61.3675M56.6151 27.8704V42.505M58.392 61.3675L74.223 70.6362L76 69.4979L60.3305 60.3919V54.7006M58.392 61.3675L57.8843 60.7171M45.6303 44.5068L47.8918 43.2194M45.6303 44.5068L45.4978 41.7818M48.8611 42.6677L47.8918 43.2194M47.8918 43.2194L45.4978 41.7818M56.6151 42.505V45.7572M52.6092 42.3424L52.6419 48.0337M56.6151 45.7572L52.6419 48.0337M56.6151 45.7572V49.6598M52.6419 48.0337L52.6652 52.0989M48.8611 50.3102L47.4072 51.1233V53.8876L48.3765 54.538L48.8611 54.2128M48.8611 50.3102V54.2128M48.8611 54.2128V57.1397M52.6652 52.0989L53.2227 51.7547M52.6652 52.0989L52.7054 59.091M56.6151 49.6598L55.1612 50.5576M56.6151 49.6598V56.8145M60.3305 47.7085L61.1382 47.2207V44.2937L60.3305 43.8059M60.3305 47.7085V43.8059M60.3305 47.7085V50.9606M60.3305 50.9606L61.1382 51.4485V54.2128L60.3305 54.7006M60.3305 50.9606V54.7006M55.1612 50.5576V53.725L53.2227 54.8632V51.7547M55.1612 50.5576L53.2227 51.7547M48.8611 57.1397V61.2049M48.8611 61.2049V63.644L50.0034 65.1075M48.8611 61.2049L48.3765 61.5301L47.6278 61.0423M52.7054 59.091L56.6151 56.8145M52.7054 59.091L52.7315 63.644M56.6151 56.8145V59.091L57.8843 60.7171M39.7345 63.8366C37.8602 64.3422 35.769 62.604 35.0637 59.9543M39.7345 63.8366L40.6469 63.3798M39.7345 63.8366C40.0697 63.7463 40.3752 63.5903 40.6469 63.3798M35.0637 59.9543C34.5637 58.0758 34.8944 56.2435 35.797 55.1559M37.1803 54.2412C39.0546 53.7356 41.1458 55.4739 41.8511 58.1236C42.4303 60.2995 41.8949 62.4135 40.6469 63.3798M37.1803 54.2412L38.6839 53.7341M37.1803 54.2412C36.7703 54.3518 36.4047 54.5605 36.0909 54.847M20.2791 51.9374C18.6301 52.3821 16.8021 50.8971 16.1961 48.6205C15.6202 46.4568 16.3552 44.3569 17.8451 43.772M20.2791 51.9374L21.0467 51.5665M20.2791 51.9374C20.5592 51.8618 20.8161 51.7354 21.0467 51.5665M17.8451 43.772C17.9229 43.7415 18.0027 43.7151 18.0845 43.693C19.7335 43.2483 21.5615 44.7333 22.1675 47.0099C22.6706 48.8998 22.1734 50.7411 21.0467 51.5665M17.8451 43.772L20.9144 42.4643M20.9144 42.4643L24.6299 45.2694V49.3346M24.6299 49.3346C24.4184 49.7118 24.2685 49.8844 23.9837 50.1476L21.0467 51.5665M44.661 60.3919V57.1397L38.6839 53.7341M44.661 60.3919C44.4825 60.9938 44.288 61.3154 43.6917 61.8554L40.6469 63.3798M52.7315 63.644L57.8843 60.7171M35.797 55.1559C35.8493 55.0929 35.9036 55.0324 35.9597 54.9745C36.0024 54.9304 36.0461 54.8879 36.0909 54.847M39.8033 58.6913C40.1308 59.9218 39.6908 61.1097 38.8204 61.3445C37.9499 61.5792 36.9788 60.772 36.6512 59.5415C36.3237 58.311 36.7638 57.1231 37.6342 56.8884C38.5046 56.6536 39.4757 57.4608 39.8033 58.6913ZM20.593 47.34C20.892 48.463 20.4903 49.5471 19.6959 49.7614C18.9015 49.9757 18.0152 49.2389 17.7163 48.1159C17.4173 46.9928 17.819 45.9087 18.6134 45.6945C19.4078 45.4802 20.2941 46.2169 20.593 47.34Z" stroke="#333015" stroke-width="1.25"/>
</g>
<defs>
<filter id="filter0_d_2620_19271" x="3.375" y="7.27832" width="85.8242" height="84.6348" filterUnits="userSpaceOnUse" color-interpolation-filters="sRGB">
<feFlood flood-opacity="0" result="BackgroundImageFix"/>
<feColorMatrix in="SourceAlpha" type="matrix" values="0 0 0 0 0 0 0 0 0 0 0 0 0 0 0 0 0 0 127 0" result="hardAlpha"/>
<feOffset dy="4"/>
<feGaussianBlur stdDeviation="6"/>
<feComposite in2="hardAlpha" operator="out"/>
<feColorMatrix type="matrix" values="0 0 0 0 0 0 0 0 0 0 0 0 0 0 0 0 0 0 0.25 0"/>
<feBlend mode="normal" in2="BackgroundImageFix" result="effect1_dropShadow_2620_19271"/>
<feBlend mode="normal" in="SourceGraphic" in2="effect1_dropShadow_2620_19271" result="shape"/>
</filter>
</defs>
</svg>
