<svg width="278" height="270" viewBox="0 0 278 270" fill="none" xmlns="http://www.w3.org/2000/svg">
<g filter="url(#filter0_d_2620_19254)">
<path d="M136.554 187.233L221.655 137.487V131.601V126.084L216.585 129.064L193.409 142.688L164.981 159.398L136.554 176.109V181.626V187.233Z" fill="#FEFACC"/>
<path d="M94.5465 205.536V211.789L122.793 195.277V189.351V184.017L94.5465 200.754V205.536Z" fill="#FEFACC"/>
<path d="M122.793 184.017V178.684L123.145 150.729L113.313 156.982L113.377 161.764L108.67 164.522L103.962 167.281L100.703 165.442V163.603L94.5465 167.246V200.754L122.793 184.017Z" fill="white"/>
<path d="M90.2009 203.329L94.5465 205.536V200.754V167.246L61.5924 186.746L75.8966 195.037L90.2009 203.329Z" fill="white"/>
<path d="M122.793 189.351V195.277L136.554 187.233V181.626V176.109V170.591L135.468 171.23L126.546 176.477L122.793 178.684V184.017V189.351Z" fill="#FEFACC"/>
<path d="M126.546 176.477L135.468 171.23L135.317 159.924L135.103 143.74L135.029 138.222L134.956 132.705L134.06 65.1402C133.04 64.7403 132.001 64.3338 130.941 63.9203C129.879 66.056 128.838 68.1002 127.812 70.0594L126.546 176.477Z" fill="white"/>
<path d="M122.793 178.684L126.546 176.477L127.812 70.0594C126.545 72.4765 125.302 74.7644 124.073 76.9355L124.001 82.6797L123.964 85.6223L123.894 91.1398L123.728 104.382L123.688 107.511L123.619 113.055L123.381 131.969L123.344 134.912L123.276 140.283L123.168 148.889L123.145 150.729L122.793 178.684Z" fill="#FEFACC"/>
<path d="M104.982 102.862L103.962 167.281L108.67 164.522L113.377 161.764L113.313 156.982L113.159 145.579L113.015 134.912V134.184L122.66 139.917L123.276 140.283L123.344 134.912L123.381 131.969C117.83 129.086 111.929 126.452 111.929 123.877V105.985L123.619 113.055L123.688 107.511L123.728 104.382C117.978 100.978 111.929 99.2321 111.929 95.9216V95.1923C109.685 97.9718 107.387 100.503 104.982 102.862Z" fill="white"/>
<path d="M100.703 158.453V163.603V165.442L103.962 167.281L104.982 102.862C103.698 104.12 102.384 105.329 101.032 106.5L100.703 152.936V158.453Z" fill="#FEFACC"/>
<path d="M105.773 52.8853L103.524 51.7431C102.766 53.3342 102.058 54.89 101.386 56.412L101.032 106.5C102.384 105.329 103.698 104.12 104.982 102.862L105.773 52.8853Z" fill="#FEFACC"/>
<path d="M108.67 50.6783L105.773 52.8853L104.982 102.862C107.387 100.503 109.685 97.9718 111.929 95.1923V83.9126L117.666 87.3777C118.948 85.469 120.227 83.4534 121.516 81.3162C116.463 78.6304 112.291 76.8064 112.291 74.5874L111.929 61.8074L124.172 69.0699L124.241 63.5524L126.53 62.3219C119.474 58.0228 112.43 55.6069 111.491 51.2363C110.743 50.9329 109.99 50.6278 109.232 50.3213L108.67 50.6783Z" fill="white"/>
<path d="M123.964 85.6223L124.001 82.6797C123.159 82.1996 122.326 81.7468 121.516 81.3162C120.227 83.4534 118.948 85.469 117.666 87.3777L123.894 91.1398L123.964 85.6223Z" fill="white"/>
<path d="M127.863 65.7594L124.241 63.5524L124.172 69.0699L124.073 76.9355C125.302 74.7644 126.545 72.4765 127.812 70.0594L127.863 65.7594Z" fill="#FEFACC"/>
<path d="M130.941 63.9203L134.019 62.0811L130.398 60.2419L126.53 62.3219L124.241 63.5524L127.863 65.7594L130.941 63.9203Z" fill="white"/>
<path d="M135.103 143.74L164.981 126.311V115.138L155.703 120.566L134.956 132.705L135.029 138.222L135.103 143.74Z" fill="#FEFACC"/>
<path d="M188.701 112.474V106.957L183.993 104.014L164.981 115.138V126.311L188.701 112.474Z" fill="#FEFACC"/>
<path d="M164.981 159.398L193.409 142.688V115.2L188.701 112.474L164.981 126.311V159.398Z" fill="white"/>
<path d="M193.409 142.688L216.585 129.064L202.679 120.566L193.409 115.2V142.688Z" fill="white"/>
<path d="M136.554 170.591V176.109L164.981 159.398V126.311L135.103 143.74L135.317 159.924L135.468 171.23L136.554 170.591Z" fill="white"/>
<path d="M123.276 140.283L122.66 139.917L113.159 145.579L113.313 156.982L123.145 150.729L123.168 148.889L123.276 140.283Z" fill="#FEFACC"/>
<path d="M61.5924 181.259V186.746L94.5465 167.246V156.501L85.131 161.955L56.8847 178.316L61.5924 181.259Z" fill="#FEFACC"/>
<path d="M94.5465 211.789V205.536L90.2009 203.329L75.8966 195.037L61.5924 186.746V181.259L56.8847 178.316V184.017V189.351L94.5465 211.789Z" fill="#FEFACC"/>
<path d="M100.703 163.603V158.453V152.936L94.5465 156.501V167.246L100.703 163.603Z" fill="#FEFACC"/>
<path d="M105.773 52.8853L108.67 50.6783L109.232 50.3213C107.853 49.7637 106.458 49.2013 105.048 48.6348C104.517 49.6857 104.01 50.7217 103.524 51.7431L105.773 52.8853Z" fill="white"/>
<path d="M94.5465 211.789V205.536M94.5465 211.789L122.793 195.277M94.5465 211.789L56.8847 189.351V184.017V178.316M94.5465 205.536L90.2009 203.329L75.8966 195.037L61.5924 186.746M94.5465 205.536V200.754M122.793 195.277V189.351V184.017M122.793 195.277L136.554 187.233M122.793 178.684V184.017M122.793 178.684L126.546 176.477M122.793 178.684L123.145 150.729M136.554 187.233L221.655 137.487V131.601V126.084M136.554 187.233V181.626V176.109M221.655 126.084V91.8755V91.5297M221.655 126.084L216.585 129.064M136.554 176.109V170.591L135.468 171.23M136.554 176.109L216.585 129.064M136.554 176.109L164.981 159.398M122.793 184.017L94.5465 200.754M61.5924 186.746V181.259L56.8847 178.316M61.5924 186.746L94.5465 167.246M100.703 163.603V158.453V152.936M100.703 163.603V165.442L103.962 167.281M100.703 163.603L94.5465 167.246M56.8847 178.316V108.245M56.8847 178.316L85.131 161.955M100.703 152.936L101.032 106.5M100.703 152.936L94.5465 156.501M216.585 129.064L202.679 120.566M216.585 129.064L193.409 142.688M135.468 171.23L126.546 176.477M135.468 171.23L135.317 159.924M134.019 62.0811L127.863 65.7594M134.019 62.0811L130.398 60.2419L126.53 62.3219M134.019 62.0811L134.06 65.1402M134.019 62.0811L130.941 63.9203M127.863 65.7594L124.241 63.5524M127.863 65.7594L127.812 70.0594M127.863 65.7594L130.941 63.9203M124.241 63.5524L126.53 62.3219M124.241 63.5524L124.172 69.0699M126.546 176.477L127.812 70.0594M103.962 167.281L108.67 164.522L113.377 161.764L113.313 156.982M103.962 167.281L104.982 102.862M105.773 52.8853L108.67 50.6783L109.232 50.3213M105.773 52.8853L104.982 102.862M105.773 52.8853L103.524 51.7431M101.427 50.6783L107.945 47L111.567 48.8392M101.427 50.6783L101.386 56.412M101.427 50.6783L103.524 51.7431M111.567 48.8392C111.348 49.7061 111.333 50.4991 111.491 51.2363M111.567 48.8392L109.232 50.3213M126.53 62.3219C119.474 58.0228 112.43 55.6069 111.491 51.2363M124.172 69.0699L111.929 61.8074M124.172 69.0699L124.073 76.9355M108.67 59.8741L111.929 61.8074M111.929 61.8074L112.291 74.5874C112.291 76.8064 116.463 78.6304 121.516 81.3162M124.001 82.6797L123.964 85.6223L123.894 91.1398M124.001 82.6797L124.073 76.9355M124.001 82.6797C123.159 82.1996 122.326 81.7468 121.516 81.3162M123.894 91.1398L123.728 104.382M123.894 91.1398L117.666 87.3777M108.67 81.944L111.929 83.9126M111.929 83.9126V95.1923M111.929 83.9126L117.666 87.3777M123.728 104.382C117.978 100.978 111.929 99.2321 111.929 95.9216V95.1923M123.728 104.382L123.688 107.511L123.619 113.055M123.619 113.055L111.929 105.985M123.619 113.055L123.381 131.969M108.67 104.014L111.929 105.985M111.929 105.985V123.877C111.929 126.452 117.83 129.086 123.381 131.969M123.381 131.969L123.344 134.912L123.276 140.283M123.276 140.283L122.66 139.917M123.276 140.283L123.168 148.889L123.145 150.729M108.67 131.601L113.015 134.184M113.015 134.184V134.912L113.159 145.579M113.015 134.184L122.66 139.917M113.159 145.579L122.66 139.917M113.159 145.579L113.313 156.982M134.956 132.705L135.029 138.222L135.103 143.74M134.956 132.705L155.703 120.566M134.956 132.705L134.06 65.1402M183.993 104.014V77.0884M183.993 104.014L188.701 106.957V112.474M183.993 104.014L164.981 115.138M188.701 112.474L164.981 126.311M188.701 112.474L193.409 115.2M135.103 143.74L135.317 159.924M135.103 143.74L164.981 126.311M81.8718 191.558L86.5796 188.615M98.8921 181.626L103.6 178.684M115.55 171.695L120.62 168.752M137.64 158.821L135.317 159.924M149.591 151.832L154.298 148.889M166.249 141.901L171.319 138.958M183.269 132.337L187.977 129.026M202.679 120.566L199.927 122.406M202.679 120.566L193.409 115.2M89.4766 115.049C91.2562 113.928 92.9412 112.792 94.5465 111.628M130.941 63.9203C132.001 64.3338 133.04 64.7403 134.06 65.1402M130.941 63.9203C129.879 66.056 128.838 68.1002 127.812 70.0594M226.001 90.4042C224.734 90.9426 223.296 91.3189 221.655 91.5297M221.655 91.5297C215.551 92.314 206.65 90.808 193.409 86.8383M189.425 77.8979C187.692 77.7051 185.891 77.4375 183.993 77.0884M52.5391 110.635C54.042 109.828 55.4896 109.031 56.8847 108.245M56.8847 108.245C70.2825 100.693 78.8419 94.0443 85.131 87.1191M85.131 87.1191V161.955M85.131 87.1191C92.9772 78.4796 96.0461 68.5113 101.386 56.412M85.131 161.955L94.5465 156.501M94.5465 111.628C96.818 109.98 98.97 108.284 101.032 106.5M94.5465 111.628V156.501M183.993 77.0884C176.571 75.7223 167.683 73.1084 155.703 68.8497M193.409 142.688L164.981 159.398M193.409 142.688V115.2M193.409 86.8383C185.563 84.4862 176.194 81.2693 164.981 77.1514M193.409 86.8383V115.2M155.703 120.566V68.8497M155.703 120.566L164.981 115.138M155.703 68.8497C144.625 64.9119 129.452 58.5205 111.491 51.2363M164.981 159.398V126.311M164.981 77.1514C155.518 73.6761 146.127 69.8718 134.06 65.1402M164.981 77.1514V115.138M113.313 156.982L123.145 150.729M94.5465 200.754V167.246M94.5465 167.246V156.501M127.812 70.0594C126.545 72.4765 125.302 74.7644 124.073 76.9355M124.073 76.9355C123.215 78.4512 122.363 79.91 121.516 81.3162M104.982 102.862C107.387 100.503 109.685 97.9718 111.929 95.1923M104.982 102.862C103.698 104.12 102.384 105.329 101.032 106.5M111.929 95.1923C113.869 92.7889 115.77 90.2001 117.666 87.3777M101.032 106.5L101.386 56.412M103.524 51.7431C102.766 53.3342 102.058 54.89 101.386 56.412M103.524 51.7431C104.01 50.7217 104.517 49.6857 105.048 48.6348C106.458 49.2013 107.853 49.7637 109.232 50.3213M117.666 87.3777C118.948 85.469 120.227 83.4534 121.516 81.3162M111.491 51.2363C110.743 50.9329 109.99 50.6278 109.232 50.3213M164.981 126.311V115.138" stroke="#333015" stroke-width="4" stroke-linecap="round"/>
</g>
<defs>
<filter id="filter0_d_2620_19254" x="0.539062" y="0.231445" width="277.462" height="269.38" filterUnits="userSpaceOnUse" color-interpolation-filters="sRGB">
<feFlood flood-opacity="0" result="BackgroundImageFix"/>
<feColorMatrix in="SourceAlpha" type="matrix" values="0 0 0 0 0 0 0 0 0 0 0 0 0 0 0 0 0 0 127 0" result="hardAlpha"/>
<feOffset dy="5.5"/>
<feGaussianBlur stdDeviation="25"/>
<feComposite in2="hardAlpha" operator="out"/>
<feColorMatrix type="matrix" values="0 0 0 0 0 0 0 0 0 0 0 0 0 0 0 0 0 0 0.25 0"/>
<feBlend mode="normal" in2="BackgroundImageFix" result="effect1_dropShadow_2620_19254"/>
<feBlend mode="normal" in="SourceGraphic" in2="effect1_dropShadow_2620_19254" result="shape"/>
</filter>
</defs>
</svg>
