<svg width="92" height="92" viewBox="0 0 92 92" fill="none" xmlns="http://www.w3.org/2000/svg">
<g filter="url(#filter0_d_2620_19288)">
<path d="M45.0605 65.5063L74.4969 48.2991V46.2634V44.3549L72.7432 45.3858L64.7265 50.0982L54.8935 55.8784L45.0605 61.6585V63.567V65.5063Z" fill="#FEFACC"/>
<path d="M30.5303 71.8371V74L40.3006 68.2887V66.2388V64.394L30.5303 70.183V71.8371Z" fill="#FEFACC"/>
<path d="M40.3006 64.394V62.5491L40.4223 52.8795L37.0215 55.0424L37.0438 56.6964L35.4154 57.6507L33.7871 58.6049L32.6597 57.9688V57.3326L30.5303 58.5927V70.183L40.3006 64.394Z" fill="white"/>
<path d="M29.0271 71.0737L30.5303 71.8371V70.183V58.5927L19.1315 65.3378L24.0793 68.2057L29.0271 71.0737Z" fill="white"/>
<path d="M40.3006 66.2388V68.2887L45.0605 65.5063V63.567V61.6585V59.75L44.6848 59.971L41.5988 61.7857L40.3006 62.5491V64.394V66.2388Z" fill="#FEFACC"/>
<path d="M41.5988 61.7857L44.6848 59.971L44.6329 56.0603L44.5586 50.4621L44.5332 48.5536L44.5079 46.6451L44.1978 23.2747C43.845 23.1363 43.4856 22.9957 43.119 22.8527C42.7518 23.5914 42.3916 24.2985 42.0366 24.9762L41.5988 61.7857Z" fill="white"/>
<path d="M40.3006 62.5491L41.5988 61.7857L42.0366 24.9762C41.5986 25.8123 41.1686 26.6036 40.7434 27.3546L40.7184 29.3415L40.7056 30.3594L40.6816 32.2679L40.624 36.8482L40.6104 37.9306L40.5862 39.8482L40.5039 46.3906L40.4911 47.4085L40.4677 49.2663L40.4303 52.2433L40.4223 52.8795L40.3006 62.5491Z" fill="#FEFACC"/>
<path d="M34.1397 36.3225L33.7871 58.6049L35.4154 57.6507L37.0438 56.6964L37.0215 55.0424L36.9683 51.0982L36.9186 47.4085V47.1568L40.2546 49.1396L40.4677 49.2663L40.4911 47.4085L40.5039 46.3906C38.5839 45.3933 36.5428 44.4821 36.5428 43.5915V37.4028L40.5862 39.8482L40.6104 37.9306L40.624 36.8482C38.6351 35.671 36.5428 35.067 36.5428 33.9219V33.6696C35.7665 34.631 34.9718 35.5067 34.1397 36.3225Z" fill="white"/>
<path d="M32.6597 55.5513V57.3326V57.9688L33.7871 58.6049L34.1397 36.3225C33.6959 36.7576 33.2414 37.1758 32.7735 37.5807L32.6597 53.6429V55.5513Z" fill="#FEFACC"/>
<path d="M34.4134 19.0357L33.6354 18.6406C33.3734 19.191 33.1286 19.7291 32.8962 20.2556L32.7735 37.5807C33.2414 37.1758 33.6959 36.7576 34.1397 36.3225L34.4134 19.0357Z" fill="#FEFACC"/>
<path d="M35.4154 18.2723L34.4134 19.0357L34.1397 36.3225C34.9718 35.5067 35.7665 34.631 36.5428 33.6696V29.768L38.5272 30.9665C38.9706 30.3063 39.4133 29.6092 39.8589 28.8699C38.1111 27.9409 36.6681 27.31 36.6681 26.5424L36.5428 22.1219L40.7777 24.6339L40.8017 22.7254L41.5932 22.2998C39.1526 20.8128 36.7162 19.9771 36.3915 18.4653C36.1326 18.3604 35.8721 18.2549 35.61 18.1488L35.4154 18.2723Z" fill="white"/>
<path d="M40.7056 30.3594L40.7184 29.3415C40.4272 29.1754 40.1391 29.0188 39.8589 28.8699C39.4133 29.6092 38.9706 30.3063 38.5272 30.9665L40.6816 32.2679L40.7056 30.3594Z" fill="white"/>
<path d="M42.0543 23.4888L40.8017 22.7254L40.7777 24.6339L40.7434 27.3546C41.1686 26.6036 41.5986 25.8123 42.0366 24.9762L42.0543 23.4888Z" fill="#FEFACC"/>
<path d="M43.119 22.8527L44.1837 22.2165L42.9311 21.5804L41.5932 22.2998L40.8017 22.7254L42.0543 23.4888L43.119 22.8527Z" fill="white"/>
<path d="M44.5586 50.4621L54.8935 44.4333V40.5686L51.6841 42.4464L44.5079 46.6451L44.5332 48.5536L44.5586 50.4621Z" fill="#FEFACC"/>
<path d="M63.0981 39.6473V37.7388L61.4697 36.721L54.8935 40.5686V44.4333L63.0981 39.6473Z" fill="#FEFACC"/>
<path d="M54.8935 55.8784L64.7265 50.0982V40.5901L63.0981 39.6473L54.8935 44.4333V55.8784Z" fill="white"/>
<path d="M64.7265 50.0982L72.7432 45.3858L67.9329 42.4464L64.7265 40.5901V50.0982Z" fill="white"/>
<path d="M45.0605 59.75V61.6585L54.8935 55.8784V44.4333L44.5586 50.4621L44.6329 56.0603L44.6848 59.971L45.0605 59.75Z" fill="white"/>
<path d="M40.4677 49.2663L40.2546 49.1396L36.9683 51.0982L37.0215 55.0424L40.4223 52.8795L40.4303 52.2433L40.4677 49.2663Z" fill="#FEFACC"/>
<path d="M19.1315 63.4397V65.3378L30.5303 58.5927V54.8763L27.2735 56.7627L17.5031 62.4219L19.1315 63.4397Z" fill="#FEFACC"/>
<path d="M30.5303 74V71.8371L29.0271 71.0737L24.0793 68.2057L19.1315 65.3378V63.4397L17.5031 62.4219V64.394V66.2388L30.5303 74Z" fill="#FEFACC"/>
<path d="M32.6597 57.3326V55.5513V53.6429L30.5303 54.8763V58.5927L32.6597 57.3326Z" fill="#FEFACC"/>
<path d="M34.4134 19.0357L35.4154 18.2723L35.61 18.1488C35.1329 17.956 34.6505 17.7614 34.1628 17.5655C33.9791 17.929 33.8037 18.2873 33.6354 18.6406L34.4134 19.0357Z" fill="white"/>
<path d="M30.5303 74V71.8371M30.5303 74L40.3006 68.2887M30.5303 74L17.5031 66.2388V64.394V62.4219M30.5303 71.8371L29.0271 71.0737L24.0793 68.2058L19.1315 65.3378M30.5303 71.8371V70.183M40.3006 68.2887V66.2388V64.394M40.3006 68.2887L45.0605 65.5063M40.3006 62.5491V64.394M40.3006 62.5491L41.5988 61.7857M40.3006 62.5491L40.4223 52.8795M45.0605 65.5063L74.4969 48.2991V46.2634V44.3549M45.0605 65.5063V63.567V61.6585M74.4969 44.3549V32.5223V32.4027M74.4969 44.3549L72.7432 45.3858M45.0605 61.6585V59.75L44.6848 59.971M45.0605 61.6585L72.7432 45.3858M45.0605 61.6585L54.8935 55.8784M40.3006 64.394L30.5303 70.183M19.1315 65.3378V63.4397L17.5031 62.4219M19.1315 65.3378L30.5303 58.5927M32.6597 57.3326V55.5513V53.6429M32.6597 57.3326V57.9688L33.7871 58.6049M32.6597 57.3326L30.5303 58.5927M17.5031 62.4219V38.1845M17.5031 62.4219L27.2735 56.7627M32.6597 53.6429L32.7735 37.5807M32.6597 53.6429L30.5303 54.8763M72.7432 45.3858L67.9329 42.4464M72.7432 45.3858L64.7265 50.0982M44.6848 59.971L41.5988 61.7857M44.6848 59.971L44.6329 56.0603M44.1837 22.2165L42.0543 23.4888M44.1837 22.2165L42.9311 21.5804L41.5932 22.2998M44.1837 22.2165L44.1978 23.2747M44.1837 22.2165L43.119 22.8527M42.0543 23.4888L40.8017 22.7254M42.0543 23.4888L42.0366 24.9762M42.0543 23.4888L43.119 22.8527M40.8017 22.7254L41.5932 22.2998M40.8017 22.7254L40.7777 24.6339M41.5988 61.7857L42.0366 24.9762M33.7871 58.6049L35.4154 57.6507L37.0438 56.6964L37.0215 55.0424M33.7871 58.6049L34.1397 36.3225M34.4134 19.0357L35.4154 18.2723L35.61 18.1488M34.4134 19.0357L34.1397 36.3225M34.4134 19.0357L33.6354 18.6406M32.9102 18.2723L35.1649 17L36.4175 17.6362M32.9102 18.2723L32.8962 20.2556M32.9102 18.2723L33.6354 18.6406M36.4175 17.6362C36.342 17.936 36.3367 18.2103 36.3915 18.4653M36.4175 17.6362L35.61 18.1488M41.5932 22.2998C39.1526 20.8128 36.7162 19.9771 36.3915 18.4653M40.7777 24.6339L36.5428 22.1219M40.7777 24.6339L40.7434 27.3546M35.4154 21.4531L36.5428 22.1219M36.5428 22.1219L36.6681 26.5424C36.6681 27.31 38.1111 27.9409 39.8589 28.8699M40.7184 29.3415L40.7056 30.3594L40.6816 32.2679M40.7184 29.3415L40.7434 27.3546M40.7184 29.3415C40.4272 29.1754 40.1391 29.0188 39.8589 28.8699M40.6816 32.2679L40.624 36.8482M40.6816 32.2679L38.5272 30.9665M35.4154 29.0871L36.5428 29.768M36.5428 29.768V33.6696M36.5428 29.768L38.5272 30.9665M40.624 36.8482C38.6351 35.671 36.5428 35.067 36.5428 33.9219V33.6696M40.624 36.8482L40.6104 37.9306L40.5862 39.8482M40.5862 39.8482L36.5428 37.4028M40.5862 39.8482L40.5039 46.3906M35.4154 36.721L36.5428 37.4028M36.5428 37.4028V43.5915C36.5428 44.4821 38.5839 45.3933 40.5039 46.3906M40.5039 46.3906L40.4911 47.4085L40.4677 49.2663M40.4677 49.2663L40.2546 49.1396M40.4677 49.2663L40.4303 52.2433L40.4223 52.8795M35.4154 46.2634L36.9186 47.1568M36.9186 47.1568V47.4085L36.9683 51.0982M36.9186 47.1568L40.2546 49.1396M36.9683 51.0982L40.2546 49.1396M36.9683 51.0982L37.0215 55.0424M44.5079 46.6451L44.5332 48.5536L44.5586 50.4621M44.5079 46.6451L51.6841 42.4464M44.5079 46.6451L44.1978 23.2747M61.4697 36.721V27.4075M61.4697 36.721L63.0981 37.7388V39.6473M61.4697 36.721L54.8935 40.5686M63.0981 39.6473L54.8935 44.4333M63.0981 39.6473L64.7265 40.5901M44.5586 50.4621L44.6329 56.0603M44.5586 50.4621L54.8935 44.4333M26.1461 67.0022L27.7745 65.9844M32.0334 63.567L33.6618 62.5491M37.7954 60.1317L39.5491 59.1138M45.4363 55.6786L44.6329 56.0603M49.5699 53.2612L51.1983 52.2433M55.3319 49.8259L57.0856 48.808M61.2192 46.5179L62.8476 45.3728M67.9329 42.4464L66.9812 43.0826M67.9329 42.4464L64.7265 40.5901M28.7766 40.5379C29.3922 40.1503 29.975 39.7574 30.5303 39.3546M43.119 22.8527C43.4856 22.9957 43.845 23.1363 44.1978 23.2747M43.119 22.8527C42.7518 23.5914 42.3916 24.2985 42.0366 24.9762M76 32.0134C75.562 32.1996 75.0644 32.3298 74.4969 32.4027M74.4969 32.4027C72.3856 32.674 69.3066 32.1531 64.7265 30.78M63.3486 27.6875C62.7492 27.6208 62.126 27.5283 61.4697 27.4075M16 39.0112C16.5199 38.7319 17.0206 38.4565 17.5031 38.1845M17.5031 38.1845C22.1374 35.5722 25.0981 33.2725 27.2735 30.8771M27.2735 30.8771V56.7627M27.2735 30.8771C29.9874 27.8887 31.049 24.4407 32.8962 20.2556M27.2735 56.7627L30.5303 54.8763M30.5303 39.3546C31.316 38.7846 32.0604 38.1979 32.7735 37.5807M30.5303 39.3546V54.8763M61.4697 27.4075C58.9022 26.935 55.8282 26.0308 51.6841 24.5578M64.7265 50.0982L54.8935 55.8784M64.7265 50.0982V40.5901M64.7265 30.78C62.0128 29.9664 58.7721 28.8537 54.8935 27.4293M64.7265 30.78V40.5901M51.6841 42.4464V24.5578M51.6841 42.4464L54.8935 40.5686M51.6841 24.5578C47.8522 23.1957 42.604 20.9849 36.3915 18.4653M54.8935 55.8784V44.4333M54.8935 27.4293C51.6202 26.2272 48.3718 24.9113 44.1978 23.2747M54.8935 27.4293V40.5686M37.0215 55.0424L40.4223 52.8795M30.5303 70.183V58.5927M30.5303 58.5927V54.8763M42.0366 24.9762C41.5986 25.8123 41.1686 26.6036 40.7434 27.3546M40.7434 27.3546C40.4466 27.8789 40.1521 28.3835 39.8589 28.8699M34.1397 36.3225C34.9718 35.5067 35.7665 34.631 36.5428 33.6696M34.1397 36.3225C33.6959 36.7576 33.2414 37.1758 32.7735 37.5807M36.5428 33.6696C37.214 32.8383 37.8714 31.9428 38.5272 30.9665M32.7735 37.5807L32.8962 20.2556M33.6354 18.6406C33.3734 19.191 33.1286 19.7291 32.8962 20.2556M33.6354 18.6406C33.8037 18.2873 33.9791 17.929 34.1628 17.5655C34.6505 17.7614 35.133 17.956 35.61 18.1488M38.5272 30.9665C38.9706 30.3063 39.4133 29.6092 39.8589 28.8699M36.3915 18.4653C36.1326 18.3604 35.8721 18.2549 35.61 18.1488M54.8935 44.4333V40.5686" stroke="#333015" stroke-width="1.25" stroke-linecap="round"/>
</g>
<defs>
<filter id="filter0_d_2620_19288" x="3.375" y="8.29102" width="85.25" height="82.4346" filterUnits="userSpaceOnUse" color-interpolation-filters="sRGB">
<feFlood flood-opacity="0" result="BackgroundImageFix"/>
<feColorMatrix in="SourceAlpha" type="matrix" values="0 0 0 0 0 0 0 0 0 0 0 0 0 0 0 0 0 0 127 0" result="hardAlpha"/>
<feOffset dy="4"/>
<feGaussianBlur stdDeviation="6"/>
<feComposite in2="hardAlpha" operator="out"/>
<feColorMatrix type="matrix" values="0 0 0 0 0 0 0 0 0 0 0 0 0 0 0 0 0 0 0.25 0"/>
<feBlend mode="normal" in2="BackgroundImageFix" result="effect1_dropShadow_2620_19288"/>
<feBlend mode="normal" in="SourceGraphic" in2="effect1_dropShadow_2620_19288" result="shape"/>
</filter>
</defs>
</svg>
