<svg width="137" height="167" viewBox="0 0 137 167" fill="none" xmlns="http://www.w3.org/2000/svg">
<g filter="url(#filter0_d_2620_16528)">
<path d="M50.5265 130.879V65.7579L48.5716 59.5823C48.4324 59.1424 48.1487 58.7623 47.7666 58.5037L46.3455 57.5416C46.0063 57.3121 45.6062 57.1894 45.1966 57.1894H31.7207V83.5804V90.4352V97.6327V99.8768V120.946C31.7207 122.078 32.6382 122.995 33.7701 122.995H43.7022C44.3547 122.995 44.9682 123.306 45.3543 123.832L50.5265 130.879Z" fill="white"/>
<path d="M50.5265 65.7579L105.859 35.9395H91.8481C91.3237 35.9395 90.8191 35.7384 90.4384 35.3776L89.1394 34.1465C88.7311 33.7595 88.4998 33.2216 88.4998 32.659V29.4639C88.4998 27.9057 86.8295 26.9175 85.4637 27.6677L31.7207 57.1894H45.1966C45.6062 57.1894 46.0063 57.3121 46.3455 57.5416L47.7666 58.5037C48.1487 58.7623 48.4324 59.1424 48.5716 59.5823L50.5265 65.7579Z" fill="#D2EDF7"/>
<path fill-rule="evenodd" clip-rule="evenodd" d="M103.373 101.971L50.5265 130.879V65.7579L105.859 35.9395L104.439 100.219C104.422 100.951 104.016 101.62 103.373 101.971ZM91.8481 35.9395C91.3237 35.9395 90.8191 35.7384 90.4384 35.3776C90.8191 35.7384 91.3237 35.9395 91.8481 35.9395ZM89.1394 34.1465C88.7311 33.7595 88.4998 33.2216 88.4998 32.659C88.4998 33.2216 88.7311 33.7595 89.1394 34.1465ZM43.7022 122.995C44.3547 122.995 44.9682 123.306 45.3543 123.832C44.9682 123.306 44.3547 122.995 43.7022 122.995ZM84.6446 60.5002C83.7917 61.3085 83.7917 62.6669 84.6446 63.4752L87.0532 65.7579L89.4618 63.4752C90.3146 62.6669 90.3146 61.3085 89.4618 60.5002L88.4629 59.5536C87.6724 58.8044 86.434 58.8044 85.6435 59.5536L84.6446 60.5002ZM69.9327 69.4115C70.7855 70.2198 70.7855 71.5782 69.9327 72.3864L67.1624 75.0118L64.3921 72.3864C63.5393 71.5782 63.5393 70.2198 64.3921 69.4115L65.7527 68.1221C66.5432 67.3729 67.7816 67.3729 68.5721 68.1221L69.9327 69.4115Z" fill="white"/>
<path d="M84.6446 60.5002C83.7917 61.3085 83.7917 62.6669 84.6446 63.4752L87.0532 65.7579L89.4618 63.4752C90.3146 62.6669 90.3146 61.3085 89.4618 60.5002L88.4629 59.5536C87.6724 58.8044 86.434 58.8044 85.6435 59.5536L84.6446 60.5002Z" fill="#D2EDF7"/>
<path d="M67.1624 75.0118L69.9327 72.3864C70.7855 71.5782 70.7855 70.2198 69.9327 69.4115L68.5721 68.1221C67.7816 67.3729 66.5432 67.3729 65.7527 68.1221L64.3921 69.4115C63.5393 70.2198 63.5393 71.5782 64.3921 72.3864L67.1624 75.0118Z" fill="#D2EDF7"/>
<path d="M50.5265 65.7579V130.879M50.5265 65.7579L105.859 35.9395M50.5265 65.7579L48.5716 59.5823C48.4324 59.1424 48.1487 58.7623 47.7666 58.5037L46.3455 57.5416C46.0063 57.3121 45.6062 57.1894 45.1966 57.1894H31.7207M50.5265 130.879L103.373 101.971M50.5265 130.879L45.3543 123.832M105.859 35.9395H91.8481M105.859 35.9395L104.439 100.219M31.7207 57.1894V99.8768M31.7207 57.1894V83.5804V90.4352V97.6327M31.7207 57.1894L85.4637 27.6677M31.7207 99.8768V120.946M31.7207 99.8768V97.6327M31.7207 97.6327V120.946M67.1624 75.0119V86.665C67.1624 95.2335 87.0532 88.3787 87.0532 76.0401V65.7579M67.1624 75.0119L69.9327 72.3864C70.7855 71.5782 70.7855 70.2198 69.9327 69.4115L68.5721 68.1221C67.7816 67.3729 66.5432 67.3729 65.7527 68.1221L64.3921 69.4115C63.5393 70.2198 63.5393 71.5782 64.3921 72.3864L67.1624 75.0119ZM87.0532 65.7579L84.6445 63.4752C83.7917 62.6669 83.7917 61.3085 84.6446 60.5002L85.6435 59.5536C86.434 58.8044 87.6724 58.8044 88.4629 59.5536L89.4618 60.5002C90.3146 61.3085 90.3146 62.6669 89.4618 63.4752L87.0532 65.7579ZM103.373 101.971C104.016 101.62 104.422 100.951 104.439 100.219M103.373 101.971V101.971C104.016 101.62 104.422 100.951 104.439 100.219V100.219M45.3543 123.832C44.9682 123.306 44.3547 122.995 43.7022 122.995M45.3543 123.832V123.832C44.9682 123.306 44.3547 122.995 43.7022 122.995V122.995M43.7022 122.995H33.7701M33.7701 122.995C32.6382 122.995 31.7207 122.078 31.7207 120.946M33.7701 122.995V122.995C32.6382 122.995 31.7207 122.078 31.7207 120.946V120.946M85.4637 27.6677C86.8295 26.9175 88.4998 27.9057 88.4998 29.4639M85.4637 27.6677V27.6677C86.8295 26.9175 88.4998 27.9057 88.4998 29.4639V29.4639M88.4998 29.4639V32.659M88.4998 32.659C88.4998 33.2216 88.7311 33.7595 89.1394 34.1465M88.4998 32.659V32.659C88.4998 33.2216 88.7311 33.7595 89.1394 34.1465V34.1465M89.1394 34.1465L90.4384 35.3776M90.4384 35.3776C90.8191 35.7384 91.3237 35.9395 91.8481 35.9395M90.4384 35.3776V35.3776C90.8191 35.7384 91.3237 35.9395 91.8481 35.9395V35.9395" stroke="#18282E" stroke-width="2" stroke-linecap="round"/>
</g>
<defs>
<filter id="filter0_d_2620_16528" x="0.720703" y="0.910156" width="136.16" height="165.766" filterUnits="userSpaceOnUse" color-interpolation-filters="sRGB">
<feFlood flood-opacity="0" result="BackgroundImageFix"/>
<feColorMatrix in="SourceAlpha" type="matrix" values="0 0 0 0 0 0 0 0 0 0 0 0 0 0 0 0 0 0 127 0" result="hardAlpha"/>
<feOffset dy="4.5"/>
<feGaussianBlur stdDeviation="15"/>
<feComposite in2="hardAlpha" operator="out"/>
<feColorMatrix type="matrix" values="0 0 0 0 0 0 0 0 0 0 0 0 0 0 0 0 0 0 0.25 0"/>
<feBlend mode="normal" in2="BackgroundImageFix" result="effect1_dropShadow_2620_16528"/>
<feBlend mode="normal" in="SourceGraphic" in2="effect1_dropShadow_2620_16528" result="shape"/>
</filter>
</defs>
</svg>
