<svg width="229" height="280" viewBox="0 0 229 280" fill="none" xmlns="http://www.w3.org/2000/svg">
<g filter="url(#filter0_d_2620_16529)">
<path d="M84.1137 220.98V111.712L80.8335 101.349C80.5998 100.611 80.1239 99.9734 79.4828 99.5394L77.0981 97.9251C76.5291 97.5399 75.8576 97.334 75.1705 97.334H52.5586V141.617V153.119V165.196V168.961V204.314C52.5586 206.214 54.0982 207.753 55.9973 207.753H72.6629C73.7577 207.753 74.7871 208.274 75.435 209.157L84.1137 220.98Z" fill="white"/>
<path d="M84.1137 111.712L176.959 61.6779H153.449C152.569 61.6779 151.723 61.3405 151.084 60.7351L148.904 58.6694C148.219 58.02 147.831 57.1175 147.831 56.1735V50.8123C147.831 48.1976 145.028 46.5395 142.736 47.7983L52.5586 97.334H75.1705C75.8576 97.334 76.5291 97.5399 77.0981 97.9251L79.4828 99.5394C80.1239 99.9734 80.5998 100.611 80.8335 101.349L84.1137 111.712Z" fill="#D2EDF7"/>
<path fill-rule="evenodd" clip-rule="evenodd" d="M172.787 172.476L84.1137 220.98V111.712L176.959 61.6779L174.575 169.535C174.548 170.764 173.866 171.886 172.787 172.476ZM153.449 61.6779C152.569 61.6779 151.722 61.3405 151.084 60.7351C151.723 61.3405 152.569 61.6779 153.449 61.6779ZM148.904 58.6694C148.219 58.02 147.831 57.1175 147.831 56.1735C147.831 57.1175 148.219 58.02 148.904 58.6694ZM72.6629 207.753C73.7577 207.753 74.7871 208.274 75.435 209.157C74.7871 208.274 73.7577 207.753 72.6629 207.753ZM141.362 102.89C139.931 104.246 139.931 106.525 141.362 107.881L145.403 111.712L149.445 107.881C150.876 106.525 150.876 104.246 149.445 102.89L147.769 101.301C146.442 100.044 144.364 100.044 143.038 101.301L141.362 102.89ZM116.676 117.842C118.107 119.198 118.107 121.478 116.676 122.834L112.028 127.239L107.379 122.834C105.948 121.478 105.948 119.198 107.379 117.842L109.662 115.679C110.989 114.421 113.067 114.421 114.393 115.679L116.676 117.842Z" fill="white"/>
<path d="M141.362 102.89C139.931 104.246 139.931 106.525 141.362 107.881L145.403 111.712L149.445 107.881C150.876 106.525 150.876 104.246 149.445 102.89L147.769 101.301C146.442 100.044 144.364 100.044 143.038 101.301L141.362 102.89Z" fill="#D2EDF7"/>
<path d="M112.028 127.239L116.676 122.834C118.107 121.478 118.107 119.198 116.676 117.842L114.393 115.679C113.067 114.421 110.989 114.421 109.662 115.679L107.379 117.842C105.948 119.198 105.948 121.478 107.379 122.834L112.028 127.239Z" fill="#D2EDF7"/>
<path d="M84.1137 111.712V220.98M84.1137 111.712L176.959 61.6779M84.1137 111.712L80.8335 101.349C80.5998 100.611 80.1239 99.9734 79.4828 99.5394L77.0981 97.9251C76.5291 97.5399 75.8576 97.334 75.1705 97.334H52.5586M84.1137 220.98L172.787 172.476M84.1137 220.98L75.435 209.157M176.959 61.6779H153.449M176.959 61.6779L174.575 169.535M52.5586 97.334V168.961M52.5586 97.334V141.617V153.119V165.196M52.5586 97.334L142.736 47.7983M52.5586 168.961V204.314M52.5586 168.961V165.196M52.5586 165.196V204.314M112.028 127.239V146.793C112.028 161.17 145.403 149.668 145.403 128.965V111.712M112.028 127.239L116.676 122.834C118.107 121.478 118.107 119.198 116.676 117.842L114.393 115.679C113.067 114.421 110.989 114.421 109.662 115.679L107.379 117.842C105.948 119.198 105.948 121.478 107.379 122.834L112.028 127.239ZM145.403 111.712L141.362 107.881C139.931 106.525 139.931 104.246 141.362 102.89L143.038 101.301C144.364 100.044 146.442 100.044 147.769 101.301L149.445 102.89C150.876 104.246 150.876 106.525 149.445 107.881L145.403 111.712ZM172.787 172.476C173.866 171.886 174.548 170.764 174.575 169.535M172.787 172.476V172.476C173.866 171.886 174.548 170.764 174.575 169.535V169.535M75.435 209.157C74.7871 208.274 73.7577 207.753 72.6629 207.753M75.435 209.157V209.157C74.7871 208.274 73.7577 207.753 72.6629 207.753V207.753M72.6629 207.753H55.9973M55.9973 207.753C54.0982 207.753 52.5586 206.214 52.5586 204.314M55.9973 207.753V207.753C54.0982 207.753 52.5586 206.214 52.5586 204.314V204.314M142.736 47.7983C145.028 46.5395 147.831 48.1976 147.831 50.8123M142.736 47.7983V47.7983C145.028 46.5395 147.831 48.1976 147.831 50.8123V50.8123M147.831 50.8123V56.1735M147.831 56.1735C147.831 57.1175 148.219 58.02 148.904 58.6694M147.831 56.1735V56.1735C147.831 57.1175 148.219 58.02 148.904 58.6694V58.6694M148.904 58.6694L151.084 60.7351M151.084 60.7351C151.722 61.3405 152.569 61.6779 153.449 61.6779M151.084 60.7351V60.7351C151.723 61.3405 152.569 61.6779 153.449 61.6779V61.6779" stroke="#18282E" stroke-width="4" stroke-linecap="round"/>
</g>
<defs>
<filter id="filter0_d_2620_16529" x="0.558594" y="0.866211" width="228.444" height="278.209" filterUnits="userSpaceOnUse" color-interpolation-filters="sRGB">
<feFlood flood-opacity="0" result="BackgroundImageFix"/>
<feColorMatrix in="SourceAlpha" type="matrix" values="0 0 0 0 0 0 0 0 0 0 0 0 0 0 0 0 0 0 127 0" result="hardAlpha"/>
<feOffset dy="5.5"/>
<feGaussianBlur stdDeviation="25"/>
<feComposite in2="hardAlpha" operator="out"/>
<feColorMatrix type="matrix" values="0 0 0 0 0 0 0 0 0 0 0 0 0 0 0 0 0 0 0.25 0"/>
<feBlend mode="normal" in2="BackgroundImageFix" result="effect1_dropShadow_2620_16529"/>
<feBlend mode="normal" in="SourceGraphic" in2="effect1_dropShadow_2620_16529" result="shape"/>
</filter>
</defs>
</svg>
