<svg width="92" height="91" viewBox="0 0 92 91" fill="none" xmlns="http://www.w3.org/2000/svg">
<g filter="url(#filter0_d_2620_16550)">
<path d="M35.7586 74V36.7451L34.6402 33.2121C34.5606 32.9604 34.3983 32.743 34.1797 32.5951L33.3667 32.0447C33.1727 31.9133 32.9437 31.8431 32.7095 31.8431H25V46.9412V50.8627V54.9804V56.2642V68.3178C25 68.9653 25.5249 69.4902 26.1724 69.4902H31.8545C32.2278 69.4902 32.5787 69.6679 32.7996 69.9689L35.7586 74Z" fill="white"/>
<path d="M35.7586 36.7451L67.4138 19.6863H59.3983C59.0983 19.6863 58.8096 19.5712 58.5919 19.3648L57.8487 18.6605C57.6151 18.4391 57.4828 18.1314 57.4828 17.8096V15.9817C57.4828 15.0902 56.5272 14.5249 55.7459 14.9541L25 31.8431H32.7095C32.9437 31.8431 33.1727 31.9133 33.3667 32.0447L34.1797 32.5951C34.3983 32.743 34.5606 32.9604 34.6402 33.2121L35.7586 36.7451Z" fill="#D2EDF7"/>
<path fill-rule="evenodd" clip-rule="evenodd" d="M65.9917 57.4625L35.7586 74V36.7451L67.4138 19.6863L66.6012 56.4598C66.5919 56.8789 66.3595 57.2613 65.9917 57.4625ZM59.3983 19.6863C59.0983 19.6863 58.8096 19.5712 58.5919 19.3648C58.8096 19.5712 59.0983 19.6863 59.3983 19.6863ZM57.8487 18.6605C57.6151 18.4391 57.4828 18.1314 57.4828 17.8096C57.4828 18.1314 57.6151 18.4391 57.8487 18.6605ZM31.8545 69.4902C32.2278 69.4902 32.5787 69.6679 32.7996 69.9689C32.5787 69.6679 32.2278 69.4902 31.8545 69.4902ZM55.2772 33.7373C54.7893 34.1997 54.7893 34.9768 55.2772 35.4392L56.6552 36.7451L58.0331 35.4392C58.521 34.9768 58.521 34.1997 58.0331 33.7373L57.4616 33.1957C57.0094 32.7671 56.3009 32.7671 55.8487 33.1957L55.2772 33.7373ZM46.8607 38.8353C47.3486 39.2977 47.3486 40.0748 46.8607 40.5372L45.2759 42.0392L43.691 40.5372C43.2031 40.0748 43.2031 39.2977 43.691 38.8353L44.4694 38.0976C44.9216 37.669 45.6301 37.669 46.0823 38.0976L46.8607 38.8353Z" fill="white"/>
<path d="M55.2772 33.7373C54.7893 34.1997 54.7893 34.9768 55.2772 35.4392L56.6552 36.7451L58.0331 35.4392C58.521 34.9768 58.521 34.1997 58.0331 33.7373L57.4616 33.1957C57.0094 32.7671 56.3009 32.7671 55.8487 33.1957L55.2772 33.7373Z" fill="#D2EDF7"/>
<path d="M45.2759 42.0392L46.8607 40.5372C47.3486 40.0748 47.3486 39.2977 46.8607 38.8353L46.0823 38.0976C45.6301 37.669 44.9216 37.669 44.4694 38.0976L43.691 38.8353C43.2031 39.2977 43.2031 40.0748 43.691 40.5372L45.2759 42.0392Z" fill="#D2EDF7"/>
<path d="M35.7586 36.7451V74M35.7586 36.7451L67.4138 19.6863M35.7586 36.7451L34.6402 33.2121C34.5606 32.9604 34.3983 32.743 34.1797 32.5951L33.3667 32.0447C33.1727 31.9133 32.9437 31.8431 32.7095 31.8431H25M35.7586 74L65.9917 57.4625M35.7586 74L32.7996 69.9689M67.4138 19.6863H59.3983M67.4138 19.6863L66.6012 56.4598M25 31.8431V56.2642M25 31.8431V46.9412V50.8627V54.9804M25 31.8431L55.7459 14.9541M25 56.2642V68.3178M25 56.2642V54.9804M25 54.9804V68.3178M45.2759 42.0392V48.7059C45.2759 53.6078 56.6552 49.6863 56.6552 42.6275V36.7451M45.2759 42.0392L46.8607 40.5372C47.3486 40.0748 47.3486 39.2977 46.8607 38.8353L46.0823 38.0976C45.6301 37.669 44.9216 37.669 44.4694 38.0976L43.691 38.8353C43.2031 39.2977 43.2031 40.0748 43.691 40.5372L45.2759 42.0392ZM56.6552 36.7451L55.2772 35.4392C54.7893 34.9768 54.7893 34.1997 55.2772 33.7373L55.8487 33.1957C56.3009 32.7671 57.0094 32.7671 57.4616 33.1957L58.0331 33.7373C58.521 34.1997 58.521 34.9768 58.0331 35.4392L56.6552 36.7451ZM65.9917 57.4625C66.3595 57.2613 66.5919 56.8789 66.6012 56.4598M65.9917 57.4625V57.4625C66.3595 57.2613 66.5919 56.8789 66.6012 56.4598V56.4598M32.7996 69.9689C32.5787 69.6679 32.2278 69.4902 31.8545 69.4902M32.7996 69.9689V69.9689C32.5787 69.6679 32.2278 69.4902 31.8545 69.4902V69.4902M31.8545 69.4902H26.1724M26.1724 69.4902C25.5249 69.4902 25 68.9653 25 68.3178M26.1724 69.4902V69.4902C25.5249 69.4902 25 68.9653 25 68.3178V68.3178M55.7459 14.9541C56.5272 14.5249 57.4828 15.0902 57.4828 15.9817M55.7459 14.9541V14.9541C56.5272 14.5249 57.4828 15.0902 57.4828 15.9817V15.9817M57.4828 15.9817V17.8096M57.4828 17.8096C57.4828 18.1314 57.6151 18.4391 57.8487 18.6605M57.4828 17.8096V17.8096C57.4828 18.1314 57.6151 18.4391 57.8487 18.6605V18.6605M57.8487 18.6605L58.5919 19.3648M58.5919 19.3648C58.8096 19.5712 59.0983 19.6863 59.3983 19.6863M58.5919 19.3648V19.3648C58.8096 19.5712 59.0983 19.6863 59.3983 19.6863V19.6863" stroke="#18282E" stroke-width="1.25" stroke-linecap="round"/>
</g>
<defs>
<filter id="filter0_d_2620_16550" x="12.375" y="6.18164" width="67.6777" height="84.6289" filterUnits="userSpaceOnUse" color-interpolation-filters="sRGB">
<feFlood flood-opacity="0" result="BackgroundImageFix"/>
<feColorMatrix in="SourceAlpha" type="matrix" values="0 0 0 0 0 0 0 0 0 0 0 0 0 0 0 0 0 0 127 0" result="hardAlpha"/>
<feOffset dy="4"/>
<feGaussianBlur stdDeviation="6"/>
<feComposite in2="hardAlpha" operator="out"/>
<feColorMatrix type="matrix" values="0 0 0 0 0 0 0 0 0 0 0 0 0 0 0 0 0 0 0.25 0"/>
<feBlend mode="normal" in2="BackgroundImageFix" result="effect1_dropShadow_2620_16550"/>
<feBlend mode="normal" in="SourceGraphic" in2="effect1_dropShadow_2620_16550" result="shape"/>
</filter>
</defs>
</svg>
