<svg width="261" height="241" viewBox="0 0 261 241" fill="none" xmlns="http://www.w3.org/2000/svg">
<g filter="url(#filter0_d_2620_19248)">
<path d="M168.89 169.089C168.89 177.959 155.354 185.15 138.657 185.15C121.959 185.15 108.423 177.959 108.423 169.089C108.423 160.219 121.959 153.028 138.657 153.028C155.354 153.028 168.89 160.219 168.89 169.089Z" fill="white"/>
<path fill-rule="evenodd" clip-rule="evenodd" d="M207.807 149.494C212.717 130.736 193.977 127.33 169.533 129.9C160.475 131.363 152.683 132.714 145.411 134.294C129.547 137.74 116.158 142.273 97.4875 151.422C91.5873 155.265 86.301 160.129 84.7291 167.483C84.3301 169.349 84.1704 171.375 84.3006 173.586C92.663 210.205 182.399 217.593 207.807 149.494ZM138.978 189.647C159.051 189.647 175.323 180.443 175.323 169.089C175.323 157.735 159.051 148.531 138.978 148.531C118.906 148.531 102.634 157.735 102.634 169.089C102.634 180.443 118.906 189.647 138.978 189.647Z" fill="white"/>
<path fill-rule="evenodd" clip-rule="evenodd" d="M175.323 169.089C175.323 180.443 159.051 189.647 138.978 189.647C118.906 189.647 102.634 180.443 102.634 169.089C102.634 157.735 118.906 148.531 138.978 148.531C159.051 148.531 175.323 157.735 175.323 169.089ZM138.657 185.15C155.354 185.15 168.89 177.959 168.89 169.089C168.89 160.219 155.354 153.028 138.657 153.028C121.959 153.028 108.423 160.219 108.423 169.089C108.423 177.959 121.959 185.15 138.657 185.15Z" fill="#FEFACC"/>
<path d="M207.807 149.494C182.399 217.593 92.663 210.205 84.3006 173.586C95.8795 244.896 200.088 233.333 207.807 149.494Z" fill="#FEFACC"/>
<path d="M97.4875 151.422C116.158 142.273 129.547 137.74 145.411 134.294C153.452 111.59 127.721 47.0254 99.4175 47.0254C68.2192 47.0254 19.0093 143.391 84.7291 167.483C86.301 160.129 91.5873 155.265 97.4875 151.422Z" fill="#FEFACC"/>
<path d="M207.807 149.494C212.717 130.736 193.977 127.33 169.533 129.9C160.475 131.363 152.683 132.714 145.411 134.294M207.807 149.494C182.399 217.593 92.663 210.205 84.3006 173.586M207.807 149.494C200.088 233.333 95.8795 244.896 84.3006 173.586M84.3006 173.586C84.1704 171.375 84.3301 169.349 84.7291 167.483M145.411 134.294C129.547 137.74 116.158 142.273 97.4875 151.422C91.5873 155.265 86.301 160.129 84.7291 167.483M145.411 134.294C153.452 111.59 127.721 47.0254 99.4175 47.0254C68.2192 47.0254 19.0093 143.391 84.7291 167.483M168.89 169.089C168.89 177.959 155.354 185.15 138.657 185.15C121.959 185.15 108.423 177.959 108.423 169.089C108.423 160.219 121.959 153.028 138.657 153.028C155.354 153.028 168.89 160.219 168.89 169.089ZM175.323 169.089C175.323 180.443 159.051 189.647 138.978 189.647C118.906 189.647 102.634 180.443 102.634 169.089C102.634 157.735 118.906 148.531 138.978 148.531C159.051 148.531 175.323 157.735 175.323 169.089Z" stroke="#333015" stroke-width="4"/>
</g>
<defs>
<filter id="filter0_d_2620_19248" x="0.233398" y="0.525391" width="260.359" height="277.462" filterUnits="userSpaceOnUse" color-interpolation-filters="sRGB">
<feFlood flood-opacity="0" result="BackgroundImageFix"/>
<feColorMatrix in="SourceAlpha" type="matrix" values="0 0 0 0 0 0 0 0 0 0 0 0 0 0 0 0 0 0 127 0" result="hardAlpha"/>
<feOffset dy="5.5"/>
<feGaussianBlur stdDeviation="25"/>
<feComposite in2="hardAlpha" operator="out"/>
<feColorMatrix type="matrix" values="0 0 0 0 0 0 0 0 0 0 0 0 0 0 0 0 0 0 0.25 0"/>
<feBlend mode="normal" in2="BackgroundImageFix" result="effect1_dropShadow_2620_19248"/>
<feBlend mode="normal" in="SourceGraphic" in2="effect1_dropShadow_2620_19248" result="shape"/>
</filter>
</defs>
</svg>
