<svg width="92" height="93" viewBox="0 0 92 93" fill="none" xmlns="http://www.w3.org/2000/svg">
<g filter="url(#filter0_d_2620_19266)">
<path d="M59.4958 58.2215C59.4958 61.2897 54.8137 63.777 49.0381 63.777C43.2625 63.777 38.5804 61.2897 38.5804 58.2215C38.5804 55.1533 43.2625 52.6661 49.0381 52.6661C54.8137 52.6661 59.4958 55.1533 59.4958 58.2215Z" fill="white"/>
<path fill-rule="evenodd" clip-rule="evenodd" d="M72.9572 51.4437C74.6555 44.9554 68.1734 43.7773 59.7183 44.6661C56.5849 45.1721 53.8897 45.6395 51.3744 46.1859C45.8872 47.3779 41.2559 48.9458 34.7978 52.1104C32.757 53.4397 30.9285 55.1224 30.3847 57.6659C30.2467 58.3114 30.1915 59.0123 30.2365 59.7769C33.129 72.4434 64.1683 74.9989 72.9572 51.4437ZM49.1494 65.3325C56.0924 65.3325 61.7208 62.1488 61.7208 58.2215C61.7208 54.2942 56.0924 51.1106 49.1494 51.1106C42.2063 51.1106 36.5779 54.2942 36.5779 58.2215C36.5779 62.1488 42.2063 65.3325 49.1494 65.3325Z" fill="white"/>
<path fill-rule="evenodd" clip-rule="evenodd" d="M61.7208 58.2215C61.7208 62.1488 56.0924 65.3325 49.1494 65.3325C42.2063 65.3325 36.5779 62.1488 36.5779 58.2215C36.5779 54.2942 42.2063 51.1106 49.1494 51.1106C56.0924 51.1106 61.7208 54.2942 61.7208 58.2215ZM49.0381 63.777C54.8137 63.777 59.4958 61.2897 59.4958 58.2215C59.4958 55.1533 54.8137 52.6661 49.0381 52.6661C43.2625 52.6661 38.5804 55.1533 38.5804 58.2215C38.5804 61.2897 43.2625 63.777 49.0381 63.777Z" fill="#FEFACC"/>
<path d="M72.9572 51.4437C64.1683 74.9989 33.129 72.4434 30.2365 59.7769C34.2416 84.4431 70.2873 80.4432 72.9572 51.4437Z" fill="#FEFACC"/>
<path d="M34.7978 52.1104C41.2559 48.9458 45.8872 47.3779 51.3744 46.1859C54.1557 38.3329 45.2556 16 35.4654 16C24.674 16 7.65238 49.3327 30.3847 57.6659C30.9285 55.1224 32.757 53.4397 34.7978 52.1104Z" fill="#FEFACC"/>
<path d="M72.9572 51.4437C74.6555 44.9554 68.1734 43.7773 59.7183 44.6661C56.5849 45.1721 53.8897 45.6395 51.3744 46.1859M72.9572 51.4437C64.1683 74.9989 33.129 72.4434 30.2365 59.7769M72.9572 51.4437C70.2873 80.4432 34.2416 84.4431 30.2365 59.7769M30.2365 59.7769C30.1915 59.0123 30.2467 58.3114 30.3847 57.6659M51.3744 46.1859C45.8872 47.3779 41.2559 48.9458 34.7978 52.1104C32.757 53.4397 30.9285 55.1224 30.3847 57.6659M51.3744 46.1859C54.1557 38.3329 45.2556 16 35.4654 16C24.674 16 7.65238 49.3327 30.3847 57.6659M59.4958 58.2215C59.4958 61.2897 54.8137 63.777 49.0381 63.777C43.2625 63.777 38.5804 61.2897 38.5804 58.2215C38.5804 55.1533 43.2625 52.6661 49.0381 52.6661C54.8137 52.6661 59.4958 55.1533 59.4958 58.2215ZM61.7208 58.2215C61.7208 62.1488 56.0924 65.3325 49.1494 65.3325C42.2063 65.3325 36.5779 62.1488 36.5779 58.2215C36.5779 54.2942 42.2063 51.1106 49.1494 51.1106C56.0924 51.1106 61.7208 54.2942 61.7208 58.2215Z" stroke="#333015" stroke-width="1.25"/>
</g>
<defs>
<filter id="filter0_d_2620_19266" x="6.51953" y="7.375" width="79.334" height="85.25" filterUnits="userSpaceOnUse" color-interpolation-filters="sRGB">
<feFlood flood-opacity="0" result="BackgroundImageFix"/>
<feColorMatrix in="SourceAlpha" type="matrix" values="0 0 0 0 0 0 0 0 0 0 0 0 0 0 0 0 0 0 127 0" result="hardAlpha"/>
<feOffset dy="4"/>
<feGaussianBlur stdDeviation="6"/>
<feComposite in2="hardAlpha" operator="out"/>
<feColorMatrix type="matrix" values="0 0 0 0 0 0 0 0 0 0 0 0 0 0 0 0 0 0 0.25 0"/>
<feBlend mode="normal" in2="BackgroundImageFix" result="effect1_dropShadow_2620_19266"/>
<feBlend mode="normal" in="SourceGraphic" in2="effect1_dropShadow_2620_19266" result="shape"/>
</filter>
</defs>
</svg>
