<svg width="92" height="93" viewBox="0 0 92 93" fill="none" xmlns="http://www.w3.org/2000/svg">
<g filter="url(#filter0_d_2620_16552)">
<path d="M64.9947 57.0642V53.6839C64.0368 54.1429 62.9563 54.1429 62.0336 53.6839L62.0507 57.0642C62.0507 57.6901 64.9947 57.6901 64.9947 57.0642Z" fill="#D2EDF7"/>
<path d="M34.3548 71.2113V44.9809L34.1053 45.1251L29.115 48.0083V71.2113C29.3933 71.6147 29.7866 71.9181 30.2378 72.1215L30.25 72.127C30.3553 72.1739 30.4637 72.2154 30.5745 72.2515C31.2191 72.4445 32.1223 72.4559 32.7839 72.2858C32.9379 72.2412 33.0879 72.1865 33.232 72.1215L33.2462 72.115C33.6915 71.9117 34.0794 71.6104 34.3548 71.2113Z" fill="white"/>
<path d="M30.2378 72.1215V75.3427C30.8616 76.2191 32.6082 76.2191 33.232 75.3427V72.1215C33.1035 72.1879 32.9515 72.2427 32.7839 72.2858C32.073 72.4915 31.2758 72.48 30.5745 72.2515C30.4518 72.2148 30.3383 72.1714 30.2378 72.1215Z" fill="#D2EDF7"/>
<path d="M39.0955 35.3776L34.1053 38.3064V45.1251L34.3548 44.9809L39.0955 42.2418V35.3776Z" fill="#D2EDF7"/>
<path d="M39.0955 35.3776L35.3528 33.3383L30.3626 36.228L34.1053 38.3064L39.0955 35.3776Z" fill="#D2EDF7"/>
<path d="M62.5129 21.6338L57.6066 24.5133V31.5463L60.9279 29.6274L62.5129 28.7116V21.6338Z" fill="#D2EDF7"/>
<path d="M62.5129 21.6338L58.9318 19.6844L53.9415 22.5741L57.6066 24.5133L62.5129 21.6338Z" fill="#D2EDF7"/>
<path fill-rule="evenodd" clip-rule="evenodd" d="M39.0955 42.2418L57.6066 31.5463V24.5133L53.9415 22.5741L35.3528 33.3383L39.0955 35.3776V42.2418ZM62.5129 28.7116V21.6338L58.9318 19.6844L65.2943 16L68.9123 17.8779V25.0141L66.1676 26.5999V52.8075C65.8166 53.1891 65.4176 53.4812 64.9947 53.6839C64.0368 54.1429 62.9563 54.1429 62.0336 53.6839C61.6262 53.4812 61.2496 53.1891 60.9279 52.8075V29.6274L62.5129 28.7116ZM24 39.9124L30.3626 36.228L34.1053 38.3064V45.1251L29.115 48.0083L27.7427 48.8013V42.0407L24 39.9124ZM32.7839 72.2858C32.073 72.4915 31.2758 72.48 30.5745 72.2515C31.2191 72.4445 32.1223 72.4559 32.7839 72.2858Z" fill="white"/>
<path d="M27.7427 48.8013V42.0407L24 39.9124V46.6729L27.7427 48.8013Z" fill="#D2EDF7"/>
<path d="M30.2378 72.1215V75.3427C30.8616 76.2191 32.6082 76.2191 33.232 75.3427V72.1215M30.2378 72.1215C29.7866 71.9181 29.3933 71.6147 29.115 71.2113M30.2378 72.1215C30.2418 72.1233 30.2459 72.1252 30.25 72.127M30.2378 72.1215C30.3383 72.1714 30.4518 72.2148 30.5745 72.2515M30.2378 72.1215L30.25 72.127M33.232 72.1215C33.1035 72.1879 32.9515 72.2427 32.7839 72.2858M33.232 72.1215C33.0879 72.1865 32.9379 72.2412 32.7839 72.2858M33.232 72.1215C33.2367 72.1194 33.2415 72.1172 33.2462 72.115M33.232 72.1215L33.2462 72.115M29.115 71.2113V48.0083M29.115 71.2113C29.3958 71.6183 29.7936 71.9235 30.25 72.127M34.3548 44.9809V71.2113C34.0794 71.6104 33.6915 71.9117 33.2462 72.115M34.3548 44.9809L39.0955 42.2418M34.3548 44.9809L34.1053 45.1251M29.115 48.0083L27.7427 48.8013M29.115 48.0083L34.1053 45.1251M27.7427 48.8013V42.0407M27.7427 48.8013L24 46.6729V39.9124M27.7427 48.8013L34.1053 45.1251M68.9123 17.8779V25.0141L66.1676 26.5999M68.9123 17.8779L65.2943 16L58.9318 19.6844M68.9123 17.8779L62.5129 21.6338M27.7427 42.0407L24 39.9124M27.7427 42.0407L34.1053 38.3064M24 39.9124L30.3626 36.228M62.5129 21.6338L58.9318 19.6844M62.5129 21.6338L57.6066 24.5133M62.5129 21.6338V28.7116M58.9318 19.6844L53.9415 22.5741M53.9415 22.5741L57.6066 24.5133M53.9415 22.5741L35.3528 33.3383M57.6066 24.5133V31.5463M57.6066 24.5133L39.0955 35.3776M57.6066 31.5463L39.0955 42.2418M57.6066 31.5463L60.9279 29.6274M62.5129 28.7116L60.9279 29.6274M62.5129 28.7116L66.1676 26.5999M39.0955 35.3776L35.3528 33.3383M39.0955 35.3776L34.1053 38.3064M39.0955 35.3776V42.2418M35.3528 33.3383L30.3626 36.228M30.3626 36.228L34.1053 38.3064M34.1053 38.3064V45.1251M34.1053 45.1251L39.0955 42.2418M60.9279 29.6274V52.8075C61.2496 53.1891 61.6262 53.4812 62.0336 53.6839M66.1676 26.5999V52.8075C65.8166 53.1891 65.4176 53.4812 64.9947 53.6839M64.9947 53.6839V57.0642C64.9947 57.6901 62.0507 57.6901 62.0507 57.0642L62.0336 53.6839M64.9947 53.6839C64.0368 54.1429 62.9563 54.1429 62.0336 53.6839M30.5745 72.2515C31.2191 72.4445 32.1223 72.4559 32.7839 72.2858M30.5745 72.2515C31.2758 72.48 32.073 72.4915 32.7839 72.2858M30.5745 72.2515C30.4637 72.2154 30.3553 72.1739 30.25 72.127M30.5745 72.2515C30.4566 72.2162 30.3475 72.1744 30.25 72.127M32.7839 72.2858C32.943 72.2398 33.0978 72.1828 33.2462 72.115" stroke="#18282E" stroke-width="1.25"/>
</g>
<defs>
<filter id="filter0_d_2620_16552" x="11.375" y="7.28711" width="70.1621" height="85.3379" filterUnits="userSpaceOnUse" color-interpolation-filters="sRGB">
<feFlood flood-opacity="0" result="BackgroundImageFix"/>
<feColorMatrix in="SourceAlpha" type="matrix" values="0 0 0 0 0 0 0 0 0 0 0 0 0 0 0 0 0 0 127 0" result="hardAlpha"/>
<feOffset dy="4"/>
<feGaussianBlur stdDeviation="6"/>
<feComposite in2="hardAlpha" operator="out"/>
<feColorMatrix type="matrix" values="0 0 0 0 0 0 0 0 0 0 0 0 0 0 0 0 0 0 0.25 0"/>
<feBlend mode="normal" in2="BackgroundImageFix" result="effect1_dropShadow_2620_16552"/>
<feBlend mode="normal" in="SourceGraphic" in2="effect1_dropShadow_2620_16552" result="shape"/>
</filter>
</defs>
</svg>
