<svg width="141" height="168" viewBox="0 0 141 168" fill="none" xmlns="http://www.w3.org/2000/svg">
<g filter="url(#filter0_d_2620_16508)">
<path d="M103.016 98.9002V92.9916C101.342 93.794 99.4531 93.794 97.8402 92.9916L97.8701 98.9002C97.8701 99.9944 103.016 99.9944 103.016 98.9002Z" fill="#D2EDF7"/>
<path d="M49.4583 123.629V77.779L49.0221 78.031L40.2993 83.0709V123.629C40.7858 124.334 41.4732 124.865 42.2619 125.22L42.2832 125.23C42.4673 125.312 42.6568 125.384 42.8505 125.447C43.9772 125.785 45.5561 125.805 46.7124 125.507C46.9817 125.429 47.2438 125.334 47.4957 125.22L47.5206 125.209C48.2989 124.853 48.977 124.327 49.4583 123.629Z" fill="white"/>
<path d="M42.2619 125.22V130.851C43.3523 132.383 46.4053 132.383 47.4957 130.851V125.22C47.2712 125.336 47.0053 125.432 46.7124 125.507C45.4698 125.867 44.0763 125.847 42.8505 125.447C42.6359 125.383 42.4377 125.307 42.2619 125.22Z" fill="#D2EDF7"/>
<path d="M57.745 60.9927L49.0221 66.1122V78.031L49.4583 77.779L57.745 72.991V60.9927Z" fill="#D2EDF7"/>
<path d="M57.745 60.9927L51.2029 57.428L42.48 62.4791L49.0221 66.1122L57.745 60.9927Z" fill="#D2EDF7"/>
<path d="M98.6779 36.9688L90.102 42.0021V54.2957L95.9074 50.9414L98.6779 49.3406V36.9688Z" fill="#D2EDF7"/>
<path d="M98.6779 36.9688L92.4183 33.5613L83.6954 38.6124L90.102 42.0021L98.6779 36.9688Z" fill="#D2EDF7"/>
<path fill-rule="evenodd" clip-rule="evenodd" d="M57.745 72.991L90.102 54.2957V42.0021L83.6954 38.6124L51.2029 57.428L57.745 60.9927V72.991ZM98.6779 49.3406V36.9688L92.4183 33.5613L103.54 27.1211L109.864 30.4037V42.8775L105.066 45.6494V91.4597C104.453 92.1267 103.755 92.6373 103.016 92.9916C101.342 93.794 99.4531 93.794 97.8402 92.9916C97.1281 92.6373 96.4698 92.1267 95.9074 91.4597V50.9414L98.6779 49.3406ZM31.3584 68.9193L42.48 62.4791L49.0221 66.1122V78.031L40.2993 83.0709L37.9005 84.4569V72.6396L31.3584 68.9193ZM46.7124 125.507C45.4698 125.867 44.0763 125.847 42.8505 125.447C43.9772 125.785 45.5561 125.805 46.7124 125.507Z" fill="white"/>
<path d="M37.9005 84.4569V72.6396L31.3584 68.9193V80.7366L37.9005 84.4569Z" fill="#D2EDF7"/>
<path d="M42.2619 125.22V130.851C43.3523 132.383 46.4053 132.383 47.4957 130.851V125.22M42.2619 125.22C41.4732 124.865 40.7858 124.334 40.2993 123.629M42.2619 125.22C42.269 125.223 42.2761 125.226 42.2832 125.23M42.2619 125.22C42.4377 125.307 42.6359 125.383 42.8505 125.447M42.2619 125.22L42.2832 125.23M47.4957 125.22C47.2712 125.336 47.0053 125.432 46.7124 125.507M47.4957 125.22C47.2438 125.334 46.9817 125.429 46.7124 125.507M47.4957 125.22C47.504 125.216 47.5123 125.213 47.5206 125.209M47.4957 125.22L47.5206 125.209M40.2993 123.629V83.0709M40.2993 123.629C40.7901 124.34 41.4855 124.874 42.2832 125.23M49.4583 77.779V123.629C48.977 124.327 48.2989 124.853 47.5206 125.209M49.4583 77.779L57.745 72.991M49.4583 77.779L49.0221 78.031M40.2993 83.0709L37.9005 84.4569M40.2993 83.0709L49.0221 78.031M37.9005 84.4569V72.6396M37.9005 84.4569L31.3584 80.7366V68.9193M37.9005 84.4569L49.0221 78.031M109.864 30.4037V42.8775L105.066 45.6494M109.864 30.4037L103.54 27.1211L92.4183 33.5613M109.864 30.4037L98.6779 36.9688M37.9005 72.6396L31.3584 68.9193M37.9005 72.6396L49.0221 66.1122M31.3584 68.9193L42.48 62.4791M98.6779 36.9688L92.4183 33.5613M98.6779 36.9688L90.102 42.0021M98.6779 36.9688V49.3406M92.4183 33.5613L83.6954 38.6124M83.6954 38.6124L90.102 42.0021M83.6954 38.6124L51.2029 57.428M90.102 42.0021V54.2957M90.102 42.0021L57.745 60.9927M90.102 54.2957L57.745 72.991M90.102 54.2957L95.9074 50.9414M98.6779 49.3406L95.9074 50.9414M98.6779 49.3406L105.066 45.6494M57.745 60.9927L51.2029 57.428M57.745 60.9927L49.0221 66.1122M57.745 60.9927V72.991M51.2029 57.428L42.48 62.4791M42.48 62.4791L49.0221 66.1122M49.0221 66.1122V78.031M49.0221 78.031L57.745 72.991M95.9074 50.9414V91.4597C96.4698 92.1267 97.1281 92.6373 97.8402 92.9916M105.066 45.6494V91.4597C104.453 92.1267 103.755 92.6373 103.016 92.9916M103.016 92.9916V98.9002C103.016 99.9944 97.8701 99.9944 97.8701 98.9002L97.8402 92.9916M103.016 92.9916C101.342 93.794 99.4531 93.794 97.8402 92.9916M42.8505 125.447C43.9772 125.785 45.5561 125.805 46.7124 125.507M42.8505 125.447C44.0763 125.847 45.4698 125.867 46.7124 125.507M42.8505 125.447C42.6568 125.384 42.4673 125.312 42.2832 125.23M42.8505 125.447C42.6444 125.386 42.4537 125.313 42.2832 125.23M46.7124 125.507C46.9906 125.427 47.2611 125.327 47.5206 125.209" stroke="#18282E" stroke-width="2"/>
</g>
<defs>
<filter id="filter0_d_2620_16508" x="0.358398" y="0.480469" width="140.506" height="167.02" filterUnits="userSpaceOnUse" color-interpolation-filters="sRGB">
<feFlood flood-opacity="0" result="BackgroundImageFix"/>
<feColorMatrix in="SourceAlpha" type="matrix" values="0 0 0 0 0 0 0 0 0 0 0 0 0 0 0 0 0 0 127 0" result="hardAlpha"/>
<feOffset dy="4.5"/>
<feGaussianBlur stdDeviation="15"/>
<feComposite in2="hardAlpha" operator="out"/>
<feColorMatrix type="matrix" values="0 0 0 0 0 0 0 0 0 0 0 0 0 0 0 0 0 0 0.25 0"/>
<feBlend mode="normal" in2="BackgroundImageFix" result="effect1_dropShadow_2620_16508"/>
<feBlend mode="normal" in="SourceGraphic" in2="effect1_dropShadow_2620_16508" result="shape"/>
</filter>
</defs>
</svg>
