<svg width="236" height="243" viewBox="0 0 236 243" fill="none" xmlns="http://www.w3.org/2000/svg">
<g filter="url(#filter0_d_2620_16509)">
<path d="M172.329 167.422V157.508C169.519 158.854 166.35 158.854 163.644 157.508L163.694 167.422C163.694 169.258 172.329 169.258 172.329 167.422Z" fill="#D2EDF7"/>
<path d="M82.4614 208.915V131.982L81.7296 132.404L67.0932 140.861V208.915C67.9094 210.099 69.0629 210.989 70.3864 211.585L70.422 211.601C70.7309 211.739 71.0489 211.861 71.3739 211.967C73.2645 212.533 75.9137 212.566 77.854 212.067C78.3058 211.936 78.7457 211.776 79.1682 211.585L79.2101 211.566C80.516 210.97 81.6538 210.086 82.4614 208.915Z" fill="white"/>
<path d="M70.3864 211.585V221.033C72.2159 223.603 77.3387 223.603 79.1682 221.033V211.585C78.7916 211.78 78.3455 211.941 77.854 212.067C75.769 212.67 73.4308 212.637 71.3739 211.967C71.0139 211.859 70.6812 211.732 70.3864 211.585Z" fill="#D2EDF7"/>
<path d="M96.3661 103.815L81.7296 112.405V132.404L82.4614 131.982L96.3661 123.948V103.815Z" fill="#D2EDF7"/>
<path d="M96.3661 103.815L85.3887 97.8337L70.7523 106.309L81.7296 112.405L96.3661 103.815Z" fill="#D2EDF7"/>
<path d="M165.049 63.5044L150.659 71.95V92.5779L160.401 86.9496L165.049 84.2636V63.5044Z" fill="#D2EDF7"/>
<path d="M165.049 63.5044L154.546 57.7868L139.909 66.2623L150.659 71.95L165.049 63.5044Z" fill="#D2EDF7"/>
<path fill-rule="evenodd" clip-rule="evenodd" d="M96.3661 123.948L150.659 92.5779V71.95L139.909 66.2623L85.3887 97.8337L96.3661 103.815V123.948ZM165.049 84.2636V63.5044L154.546 57.7868L173.207 46.9805L183.819 52.4885V73.4188L175.769 78.07V154.937C174.739 156.056 173.569 156.913 172.329 157.508C169.519 158.854 166.35 158.854 163.644 157.508C162.449 156.913 161.344 156.056 160.401 154.937V86.9496L165.049 84.2636ZM52.0908 117.116L70.7523 106.309L81.7296 112.405V132.404L67.0932 140.861L63.0682 143.187V123.358L52.0908 117.116ZM77.854 212.067C75.769 212.67 73.4308 212.637 71.3739 211.967C73.2645 212.533 75.9137 212.566 77.854 212.067Z" fill="white"/>
<path d="M63.0682 143.187V123.358L52.0908 117.116V136.944L63.0682 143.187Z" fill="#D2EDF7"/>
<path d="M70.3864 211.585V221.033C72.2159 223.603 77.3387 223.603 79.1682 221.033V211.585M70.3864 211.585C69.0629 210.989 67.9094 210.099 67.0932 208.915M70.3864 211.585C70.3982 211.591 70.4102 211.596 70.422 211.601M70.3864 211.585C70.6812 211.732 71.0139 211.859 71.3739 211.967M70.3864 211.585L70.422 211.601M79.1682 211.585C78.7916 211.78 78.3455 211.941 77.854 212.067M79.1682 211.585C78.7457 211.776 78.3058 211.936 77.854 212.067M79.1682 211.585C79.1822 211.579 79.1961 211.573 79.2101 211.566M79.1682 211.585L79.2101 211.566M67.0932 208.915V140.861M67.0932 208.915C67.9167 210.109 69.0836 211.005 70.422 211.601M82.4614 131.982V208.915C81.6538 210.086 80.516 210.97 79.2101 211.566M82.4614 131.982L96.3661 123.948M82.4614 131.982L81.7296 132.404M67.0932 140.861L63.0682 143.187M67.0932 140.861L81.7296 132.404M63.0682 143.187V123.358M63.0682 143.187L52.0908 136.944V117.116M63.0682 143.187L81.7296 132.404M183.819 52.4885V73.4188L175.769 78.07M183.819 52.4885L173.207 46.9805L154.546 57.7868M183.819 52.4885L165.049 63.5044M63.0682 123.358L52.0908 117.116M63.0682 123.358L81.7296 112.405M52.0908 117.116L70.7523 106.309M165.049 63.5044L154.546 57.7868M165.049 63.5044L150.659 71.95M165.049 63.5044V84.2636M154.546 57.7868L139.909 66.2623M139.909 66.2623L150.659 71.95M139.909 66.2623L85.3887 97.8337M150.659 71.95V92.5779M150.659 71.95L96.3661 103.815M150.659 92.5779L96.3661 123.948M150.659 92.5779L160.401 86.9496M165.049 84.2636L160.401 86.9496M165.049 84.2636L175.769 78.07M96.3661 103.815L85.3887 97.8337M96.3661 103.815L81.7296 112.405M96.3661 103.815V123.948M85.3887 97.8337L70.7523 106.309M70.7523 106.309L81.7296 112.405M81.7296 112.405V132.404M81.7296 132.404L96.3661 123.948M160.401 86.9496V154.937C161.344 156.056 162.449 156.913 163.644 157.508M175.769 78.07V154.937C174.739 156.056 173.569 156.913 172.329 157.508M172.329 157.508V167.422C172.329 169.258 163.694 169.258 163.694 167.422L163.644 157.508M172.329 157.508C169.519 158.854 166.35 158.854 163.644 157.508M71.3739 211.967C73.2645 212.533 75.9137 212.566 77.854 212.067M71.3739 211.967C73.4308 212.637 75.769 212.67 77.854 212.067M71.3739 211.967C71.0489 211.861 70.7309 211.739 70.422 211.601M71.3739 211.967C71.0281 211.863 70.7081 211.74 70.422 211.601M77.854 212.067C78.3207 211.932 78.7747 211.765 79.2101 211.566" stroke="#18282E" stroke-width="4"/>
</g>
<defs>
<filter id="filter0_d_2620_16509" x="0.0908203" y="0.200195" width="235.728" height="280.261" filterUnits="userSpaceOnUse" color-interpolation-filters="sRGB">
<feFlood flood-opacity="0" result="BackgroundImageFix"/>
<feColorMatrix in="SourceAlpha" type="matrix" values="0 0 0 0 0 0 0 0 0 0 0 0 0 0 0 0 0 0 127 0" result="hardAlpha"/>
<feOffset dy="5.5"/>
<feGaussianBlur stdDeviation="25"/>
<feComposite in2="hardAlpha" operator="out"/>
<feColorMatrix type="matrix" values="0 0 0 0 0 0 0 0 0 0 0 0 0 0 0 0 0 0 0.25 0"/>
<feBlend mode="normal" in2="BackgroundImageFix" result="effect1_dropShadow_2620_16509"/>
<feBlend mode="normal" in="SourceGraphic" in2="effect1_dropShadow_2620_16509" result="shape"/>
</filter>
</defs>
</svg>
