<svg width="281" height="214" viewBox="0 0 281 214" fill="none" xmlns="http://www.w3.org/2000/svg">
<g filter="url(#filter0_d_2620_16514)">
<path d="M218.456 89.4984L177.913 113.065C179.837 115.777 181.117 118.978 181.523 121.605L220.506 99.0622C242.366 85.4002 217.432 63.1994 191.475 75.1537L175.08 84.7171C168.249 87.4495 159.71 84.7171 161.418 82.6678L180.203 71.3964C196.1 56.6038 172.006 40.657 149.122 49.5372L109.693 71.7202C109.913 71.8944 110.132 72.0771 110.348 72.2676C112.35 74.0333 114.141 76.4714 115.344 78.9967L151.513 58.0757C163.467 51.9279 180.887 59.4421 175.422 63.8821L159.368 73.4455C141.267 84.3751 161.077 100.428 178.495 92.9139L196.255 82.6674C208.893 78.2272 224.321 83.8211 218.456 89.4984Z" fill="white"/>
<path d="M177.913 113.065C175.602 109.809 172.361 107.259 168.59 107.259L162.101 111.017V112.041C171.323 111.017 177.129 126.386 172.348 130.826H174.055L180.544 126.386C181.585 125.628 181.866 123.821 181.523 121.605C181.117 118.978 179.837 115.777 177.913 113.065Z" fill="#D2EDF7"/>
<path d="M110.186 92.5728L115.65 88.8157C117.604 86.5828 117.106 82.6963 115.344 78.9967C114.141 76.4714 112.35 74.0333 110.348 72.2676C110.132 72.0771 109.913 71.8944 109.693 71.7202C107.624 70.0863 105.38 69.2066 103.355 69.6889L97.8897 72.7629L96.182 74.8122C104.379 71.738 112.576 89.1573 107.112 92.9143L110.186 92.5728Z" fill="#D2EDF7"/>
<path d="M119.749 135.95C114.967 138.646 122.823 158.834 131.02 155.418C138.095 151.038 128.554 131.672 120.098 135.767L119.749 135.95Z" fill="#D2EDF7"/>
<path d="M54.8543 98.0376C48.706 101.453 58.2691 122.288 66.8086 117.164C72.8951 113.445 62.9907 94.0232 55.0928 97.9127L54.8543 98.0376Z" fill="#D2EDF7"/>
<path d="M131.02 155.418L138.193 150.978C140.925 143.805 135.46 132.193 126.922 132.193L120.098 135.767C128.554 131.672 138.095 151.038 131.02 155.418Z" fill="#D2EDF7"/>
<path fill-rule="evenodd" clip-rule="evenodd" d="M162.101 112.041C171.323 111.017 177.129 126.386 172.348 130.826C159.974 140.97 152.369 145.075 138.193 150.978C140.925 143.805 135.46 132.193 126.922 132.193C138.785 122.968 146.073 118.257 162.101 112.041ZM119.749 135.95C119.865 135.884 119.981 135.823 120.098 135.767L119.749 135.95ZM72.9565 113.407C87.0109 107.199 94.6768 103.176 107.112 92.9143C112.576 89.1573 104.379 71.738 96.182 74.8122C81.4093 80.0177 73.8231 84.1559 62.0269 94.2806C72.273 96.6714 75.0054 107.259 72.9565 113.407ZM54.8543 98.0376C54.9336 97.9936 55.0131 97.952 55.0928 97.9127L54.8543 98.0376Z" fill="white"/>
<path d="M66.8086 117.164L72.9565 113.407C75.0054 107.259 72.273 96.6714 62.0269 94.2806L55.0928 97.9127C62.9907 94.0232 72.8951 113.445 66.8086 117.164Z" fill="#D2EDF7"/>
<path d="M177.913 113.065C175.602 109.809 172.361 107.259 168.59 107.259L162.101 111.017V112.041M177.913 113.065L218.456 89.4984C224.321 83.8211 208.893 78.2272 196.255 82.6674L178.495 92.9139C161.077 100.428 141.267 84.3751 159.368 73.4455L175.422 63.8821C180.887 59.4421 163.467 51.9279 151.513 58.0757L115.344 78.9967M177.913 113.065C179.837 115.777 181.117 118.978 181.523 121.605M115.344 78.9967C117.106 82.6963 117.604 86.5828 115.65 88.8157M115.344 78.9967C114.141 76.4714 112.35 74.0333 110.348 72.2676M109.693 71.7202L149.122 49.5372C172.006 40.657 196.1 56.6038 180.203 71.3964L161.418 82.6678C159.71 84.7171 168.249 87.4495 175.08 84.7171L191.475 75.1537C217.432 63.1995 242.366 85.4002 220.506 99.0622L181.523 121.605M109.693 71.7202C107.624 70.0863 105.38 69.2066 103.355 69.6889M109.693 71.7202C109.913 71.8944 110.132 72.0771 110.348 72.2676M181.523 121.605C181.866 123.821 181.585 125.628 180.544 126.386L174.055 130.826H172.348M162.101 112.041C171.323 111.017 177.129 126.386 172.348 130.826M162.101 112.041C146.073 118.257 138.785 122.968 126.922 132.193M172.348 130.826C159.974 140.97 152.369 145.075 138.193 150.978M138.193 150.978L131.02 155.418M138.193 150.978C140.925 143.805 135.46 132.193 126.922 132.193M126.922 132.193L120.098 135.767M119.749 135.95C114.967 138.646 122.823 158.834 131.02 155.418M119.749 135.95C119.865 135.884 119.981 135.823 120.098 135.767M119.749 135.95L120.098 135.767M131.02 155.418C138.095 151.038 128.554 131.672 120.098 135.767M115.65 88.8157L110.186 92.5728L107.112 92.9143M115.65 88.8157C118.938 85.0587 115.283 76.62 110.348 72.2676M103.355 69.6889L97.8897 72.7629L96.182 74.8122M103.355 69.6889C105.596 69.1552 108.104 70.2893 110.348 72.2676M107.112 92.9143C112.576 89.1573 104.379 71.738 96.182 74.8122M107.112 92.9143C94.6768 103.176 87.0109 107.199 72.9565 113.407M96.182 74.8122C81.4093 80.0176 73.8231 84.1559 62.0269 94.2806M62.0269 94.2806C72.273 96.6714 75.0054 107.259 72.9565 113.407M62.0269 94.2806L55.0928 97.9127M72.9565 113.407L66.8086 117.164M66.8086 117.164C58.2691 122.288 48.706 101.453 54.8543 98.0376M66.8086 117.164C72.8951 113.445 62.9907 94.0232 55.0928 97.9127M54.8543 98.0376C54.9336 97.9936 55.0131 97.952 55.0928 97.9127M54.8543 98.0376L55.0928 97.9127" stroke="#18282E" stroke-width="4"/>
</g>
<defs>
<filter id="filter0_d_2620_16514" x="0.900391" y="0.480469" width="279.979" height="212.828" filterUnits="userSpaceOnUse" color-interpolation-filters="sRGB">
<feFlood flood-opacity="0" result="BackgroundImageFix"/>
<feColorMatrix in="SourceAlpha" type="matrix" values="0 0 0 0 0 0 0 0 0 0 0 0 0 0 0 0 0 0 127 0" result="hardAlpha"/>
<feOffset dy="5.5"/>
<feGaussianBlur stdDeviation="25"/>
<feComposite in2="hardAlpha" operator="out"/>
<feColorMatrix type="matrix" values="0 0 0 0 0 0 0 0 0 0 0 0 0 0 0 0 0 0 0.25 0"/>
<feBlend mode="normal" in2="BackgroundImageFix" result="effect1_dropShadow_2620_16514"/>
<feBlend mode="normal" in="SourceGraphic" in2="effect1_dropShadow_2620_16514" result="shape"/>
</filter>
</defs>
</svg>
