<svg width="168" height="128" viewBox="0 0 168 128" fill="none" xmlns="http://www.w3.org/2000/svg">
<g filter="url(#filter0_d_2620_16543)">
<path d="M129.896 52.4604L105.733 66.5055C106.88 68.1215 107.643 70.0294 107.885 71.5946L131.118 58.1601C144.145 50.018 129.286 36.7871 113.816 43.9114L104.045 49.6109C99.9741 51.2393 94.8853 49.6109 95.9031 48.3895L107.098 41.6722C116.572 32.8563 102.213 23.3525 88.5751 28.6448L65.0763 41.8652C65.2078 41.969 65.338 42.0779 65.4668 42.1914C66.6601 43.2437 67.7277 44.6967 68.4445 46.2017L90 33.7335C97.1244 30.0696 107.506 34.5478 104.249 37.1939L94.6811 42.8934C83.8935 49.4071 95.7001 58.974 106.08 54.4959L116.665 48.3893C124.196 45.7431 133.391 49.0769 129.896 52.4604Z" fill="white"/>
<path d="M105.733 66.5055C104.356 64.5649 102.425 63.0452 100.177 63.0451L96.3102 65.2845V65.8951C101.806 65.2845 105.266 74.4441 102.417 77.0905H103.435L107.301 74.4441C107.922 73.9927 108.089 72.9157 107.885 71.5946C107.643 70.0294 106.88 68.1215 105.733 66.5055Z" fill="#D2EDF7"/>
<path d="M65.3701 54.2926L68.627 52.0535C69.7914 50.7228 69.4945 48.4065 68.4445 46.2017C67.7277 44.6967 66.6601 43.2437 65.4668 42.1914C65.338 42.0779 65.2078 41.969 65.0763 41.8652C63.8433 40.8914 62.5062 40.3672 61.2991 40.6546L58.0422 42.4866L57.0245 43.7079C61.9097 41.8757 66.795 52.2571 63.5382 54.4962L65.3701 54.2926Z" fill="#D2EDF7"/>
<path d="M71.0696 80.1438C68.2197 81.7508 72.9016 93.7819 77.7869 91.7463C82.0033 89.1361 76.3169 77.5945 71.2776 80.0349L71.0696 80.1438Z" fill="#D2EDF7"/>
<path d="M32.3946 57.5495C28.7304 59.585 34.4296 72.0017 39.5189 68.9484C43.1463 66.7317 37.2435 55.157 32.5367 57.475L32.3946 57.5495Z" fill="#D2EDF7"/>
<path d="M77.7869 91.7463L82.0615 89.1002C83.6899 84.8256 80.433 77.9048 75.3442 77.9048L71.2776 80.0349C76.3169 77.5945 82.0033 89.1361 77.7869 91.7463Z" fill="#D2EDF7"/>
<path fill-rule="evenodd" clip-rule="evenodd" d="M96.3102 65.8951C101.806 65.2845 105.266 74.4441 102.417 77.0905C95.0424 83.136 90.5103 85.582 82.0615 89.1002C83.6899 84.8256 80.433 77.9048 75.3442 77.9048C82.4145 72.407 86.7581 69.5997 96.3102 65.8951ZM71.0696 80.1438C71.1388 80.1048 71.2082 80.0685 71.2776 80.0349L71.0696 80.1438ZM43.1829 66.7093C51.5588 63.0096 56.1274 60.6116 63.5382 54.4962C66.795 52.2571 61.9097 41.8757 57.0245 43.7079C48.2204 46.8102 43.6993 49.2765 36.6692 55.3104C42.7755 56.7353 44.4039 63.0454 43.1829 66.7093ZM32.3946 57.5495C32.4418 57.5232 32.4892 57.4984 32.5367 57.475L32.3946 57.5495Z" fill="white"/>
<path d="M39.5189 68.9484L43.1829 66.7093C44.4039 63.0454 42.7755 56.7353 36.6692 55.3104L32.5367 57.475C37.2435 55.157 43.1463 66.7317 39.5189 68.9484Z" fill="#D2EDF7"/>
<path d="M105.733 66.5055C104.356 64.5649 102.425 63.0452 100.177 63.0451L96.3102 65.2845V65.8951M105.733 66.5055L129.896 52.4604C133.391 49.0769 124.196 45.7431 116.665 48.3893L106.08 54.4959C95.7001 58.974 83.8935 49.4071 94.6811 42.8934L104.249 37.1939C107.506 34.5478 97.1244 30.0696 90 33.7335L68.4445 46.2017M105.733 66.5055C106.88 68.1215 107.643 70.0294 107.885 71.5946M68.4445 46.2017C69.4945 48.4065 69.7914 50.7228 68.627 52.0535M68.4445 46.2017C67.7277 44.6967 66.6601 43.2437 65.4668 42.1914M65.0763 41.8652L88.5752 28.6448C102.213 23.3525 116.572 32.8563 107.098 41.6722L95.9031 48.3895C94.8853 49.6109 99.9741 51.2393 104.045 49.6109L113.816 43.9114C129.286 36.7871 144.145 50.018 131.118 58.1601L107.885 71.5946M65.0763 41.8652C63.8433 40.8914 62.5062 40.3672 61.2991 40.6546M65.0763 41.8652C65.2078 41.969 65.338 42.0779 65.4668 42.1914M107.885 71.5946C108.089 72.9157 107.922 73.9927 107.301 74.4441L103.435 77.0905H102.417M96.3102 65.8951C101.806 65.2845 105.266 74.4441 102.417 77.0905M96.3102 65.8951C86.7581 69.5997 82.4145 72.407 75.3442 77.9048M102.417 77.0905C95.0424 83.136 90.5104 85.582 82.0615 89.1002M82.0615 89.1002L77.7869 91.7463M82.0615 89.1002C83.6899 84.8256 80.433 77.9048 75.3442 77.9048M75.3442 77.9048L71.2776 80.0349M71.0696 80.1438C68.2197 81.7508 72.9016 93.7819 77.7869 91.7463M71.0696 80.1438C71.1388 80.1048 71.2082 80.0685 71.2776 80.0349M71.0696 80.1438L71.2776 80.0349M77.7869 91.7463C82.0033 89.1361 76.3169 77.5945 71.2776 80.0349M68.627 52.0535L65.3701 54.2926L63.5382 54.4962M68.627 52.0535C70.5862 49.8145 68.4083 44.7853 65.4668 42.1914M61.2991 40.6546L58.0422 42.4866L57.0245 43.7079M61.2991 40.6546C62.6349 40.3365 64.1297 41.0124 65.4668 42.1914M63.5382 54.4962C66.795 52.2571 61.9097 41.8757 57.0245 43.7079M63.5382 54.4962C56.1274 60.6116 51.5588 63.0096 43.1829 66.7093M57.0245 43.7079C48.2204 46.8102 43.6993 49.2765 36.6692 55.3104M36.6692 55.3104C42.7755 56.7353 44.4039 63.0454 43.1829 66.7093M36.6692 55.3104L32.5367 57.475M43.1829 66.7093L39.5189 68.9484M39.5189 68.9484C34.4296 72.0017 28.7304 59.585 32.3946 57.5495M39.5189 68.9484C43.1463 66.7317 37.2435 55.157 32.5367 57.475M32.3946 57.5495C32.4418 57.5232 32.4892 57.4984 32.5367 57.475M32.3946 57.5495L32.5367 57.475" stroke="#18282E" stroke-width="2"/>
</g>
<defs>
<filter id="filter0_d_2620_16543" x="0.230469" y="0.621094" width="166.878" height="126.857" filterUnits="userSpaceOnUse" color-interpolation-filters="sRGB">
<feFlood flood-opacity="0" result="BackgroundImageFix"/>
<feColorMatrix in="SourceAlpha" type="matrix" values="0 0 0 0 0 0 0 0 0 0 0 0 0 0 0 0 0 0 127 0" result="hardAlpha"/>
<feOffset dy="4.5"/>
<feGaussianBlur stdDeviation="15"/>
<feComposite in2="hardAlpha" operator="out"/>
<feColorMatrix type="matrix" values="0 0 0 0 0 0 0 0 0 0 0 0 0 0 0 0 0 0 0.25 0"/>
<feBlend mode="normal" in2="BackgroundImageFix" result="effect1_dropShadow_2620_16543"/>
<feBlend mode="normal" in="SourceGraphic" in2="effect1_dropShadow_2620_16543" result="shape"/>
</filter>
</defs>
</svg>
