<svg width="92" height="92" viewBox="0 0 92 92" fill="none" xmlns="http://www.w3.org/2000/svg">
<g filter="url(#filter0_d_2620_16539)">
<path d="M72.446 41.4964L58.623 49.5315C59.2791 50.456 59.7156 51.5474 59.8539 52.4429L73.1451 44.7571C80.5979 40.0991 72.097 32.5298 63.2468 36.6056L57.6572 39.8662C55.3281 40.7978 52.4169 39.8662 52.9991 39.1675L59.4039 35.3245C64.8237 30.281 56.6091 24.844 48.8069 27.8717L35.3635 35.4349C35.4387 35.4943 35.5132 35.5566 35.5868 35.6216C36.2695 36.2236 36.8803 37.0549 37.2903 37.9158L49.6221 30.7829C53.6978 28.6868 59.6368 31.2488 57.7736 32.7625L52.3001 36.0232C46.1286 39.7496 52.883 45.2228 58.8213 42.6609L64.8767 39.1674C69.1854 37.6535 74.4457 39.5607 72.446 41.4964Z" fill="white"/>
<path d="M58.623 49.5315C57.835 48.4212 56.7302 47.5518 55.4442 47.5518L53.232 48.8329V49.1823C56.3762 48.8329 58.3559 54.073 56.7256 55.587H57.3078L59.52 54.073C59.8751 53.8148 59.9707 53.1987 59.8539 52.4429C59.7156 51.5474 59.2791 50.456 58.623 49.5315Z" fill="#D2EDF7"/>
<path d="M35.5315 42.5446L37.3947 41.2636C38.0609 40.5023 37.891 39.1772 37.2903 37.9158C36.8803 37.0549 36.2695 36.2236 35.5868 35.6216C35.5132 35.5566 35.4387 35.4943 35.3635 35.4349C34.658 34.8779 33.8931 34.5779 33.2025 34.7424L31.3393 35.7904L30.7571 36.4891C33.5519 35.441 36.3467 41.3801 34.4835 42.661L35.5315 42.5446Z" fill="#D2EDF7"/>
<path d="M38.7922 57.3338C37.1617 58.2532 39.8402 65.136 42.635 63.9715C45.0472 62.4782 41.7941 55.8754 38.9112 57.2715L38.7922 57.3338Z" fill="#D2EDF7"/>
<path d="M16.6665 44.4078C14.5703 45.5723 17.8308 52.6758 20.7423 50.929C22.8175 49.6609 19.4406 43.0391 16.7478 44.3652L16.6665 44.4078Z" fill="#D2EDF7"/>
<path d="M42.635 63.9715L45.0805 62.4576C46.0121 60.0122 44.1489 56.0528 41.2376 56.0528L38.9112 57.2715C41.7941 55.8754 45.0472 62.4782 42.635 63.9715Z" fill="#D2EDF7"/>
<path fill-rule="evenodd" clip-rule="evenodd" d="M53.232 49.1823C56.3762 48.8329 58.3559 54.073 56.7256 55.587C52.5068 59.0456 49.914 60.4449 45.0805 62.4576C46.0121 60.0122 44.1489 56.0528 41.2376 56.0528C45.2825 52.9076 47.7674 51.3016 53.232 49.1823ZM38.7922 57.3338C38.8317 57.3115 38.8714 57.2907 38.9112 57.2715L38.7922 57.3338ZM22.8384 49.6481C27.6302 47.5315 30.2439 46.1596 34.4835 42.661C36.3467 41.3801 33.5519 35.441 30.7571 36.4891C25.7203 38.2639 23.1339 39.6749 19.112 43.1268C22.6054 43.942 23.537 47.552 22.8384 49.6481ZM16.6665 44.4078C16.6935 44.3928 16.7206 44.3786 16.7478 44.3652L16.6665 44.4078Z" fill="white"/>
<path d="M20.7423 50.929L22.8384 49.6481C23.537 47.552 22.6054 43.942 19.112 43.1268L16.7478 44.3652C19.4406 43.0391 22.8175 49.6609 20.7423 50.929Z" fill="#D2EDF7"/>
<path d="M58.623 49.5315C57.835 48.4212 56.7302 47.5518 55.4442 47.5518L53.232 48.8329V49.1823M58.623 49.5315L72.446 41.4964C74.4457 39.5607 69.1854 37.6535 64.8767 39.1674L58.8213 42.6609C52.883 45.2228 46.1286 39.7496 52.3001 36.0232L57.7736 32.7625C59.6368 31.2488 53.6978 28.6868 49.6221 30.7829L37.2903 37.9158M58.623 49.5315C59.2791 50.456 59.7156 51.5474 59.8539 52.4429M37.2903 37.9158C37.891 39.1772 38.0609 40.5023 37.3947 41.2636M37.2903 37.9158C36.8803 37.0549 36.2695 36.2236 35.5868 35.6216M35.3635 35.4349L48.8069 27.8717C56.6091 24.844 64.8237 30.281 59.4039 35.3245L52.9991 39.1675C52.4169 39.8662 55.3281 40.7978 57.6572 39.8662L63.2468 36.6056C72.097 32.5298 80.5979 40.0991 73.1451 44.7571L59.8539 52.4429M35.3635 35.4349C34.658 34.8779 33.8931 34.5779 33.2025 34.7424M35.3635 35.4349C35.4387 35.4943 35.5132 35.5566 35.5868 35.6216M59.8539 52.4429C59.9707 53.1987 59.8751 53.8148 59.52 54.073L57.3078 55.587H56.7256M53.232 49.1823C56.3762 48.8329 58.3559 54.073 56.7256 55.587M53.232 49.1823C47.7674 51.3016 45.2825 52.9076 41.2376 56.0528M56.7256 55.587C52.5068 59.0456 49.914 60.4449 45.0805 62.4576M45.0805 62.4576L42.635 63.9715M45.0805 62.4576C46.0121 60.0122 44.1489 56.0528 41.2376 56.0528M41.2376 56.0528L38.9112 57.2715M38.7922 57.3338C37.1617 58.2532 39.8402 65.136 42.635 63.9715M38.7922 57.3338C38.8317 57.3115 38.8714 57.2907 38.9112 57.2715M38.7922 57.3338L38.9112 57.2715M42.635 63.9715C45.0472 62.4782 41.7941 55.8754 38.9112 57.2715M37.3947 41.2636L35.5315 42.5446L34.4835 42.661M37.3947 41.2636C38.5156 39.9827 37.2697 37.1055 35.5868 35.6216M33.2025 34.7424L31.3393 35.7904L30.7571 36.4891M33.2025 34.7424C33.9667 34.5604 34.8219 34.9471 35.5868 35.6216M34.4835 42.661C36.3467 41.3801 33.5519 35.441 30.7571 36.4891M34.4835 42.661C30.2439 46.1596 27.6302 47.5315 22.8384 49.6481M30.7571 36.4891C25.7203 38.2639 23.1339 39.6749 19.112 43.1268M19.112 43.1268C22.6054 43.942 23.537 47.552 22.8384 49.6481M19.112 43.1268L16.7478 44.3652M22.8384 49.6481L20.7423 50.929M20.7423 50.929C17.8308 52.6758 14.5703 45.5723 16.6665 44.4078M20.7423 50.929C22.8175 49.6609 19.4406 43.0391 16.7478 44.3652M16.6665 44.4078C16.6935 44.3928 16.7206 44.3786 16.7478 44.3652M16.6665 44.4078L16.7478 44.3652" stroke="#18282E" stroke-width="1.25"/>
</g>
<defs>
<filter id="filter0_d_2620_16539" x="3.375" y="18.375" width="85.25" height="62.3545" filterUnits="userSpaceOnUse" color-interpolation-filters="sRGB">
<feFlood flood-opacity="0" result="BackgroundImageFix"/>
<feColorMatrix in="SourceAlpha" type="matrix" values="0 0 0 0 0 0 0 0 0 0 0 0 0 0 0 0 0 0 127 0" result="hardAlpha"/>
<feOffset dy="4"/>
<feGaussianBlur stdDeviation="6"/>
<feComposite in2="hardAlpha" operator="out"/>
<feColorMatrix type="matrix" values="0 0 0 0 0 0 0 0 0 0 0 0 0 0 0 0 0 0 0.25 0"/>
<feBlend mode="normal" in2="BackgroundImageFix" result="effect1_dropShadow_2620_16539"/>
<feBlend mode="normal" in="SourceGraphic" in2="effect1_dropShadow_2620_16539" result="shape"/>
</filter>
</defs>
</svg>
