<svg width="236" height="243" viewBox="0 0 236 243" fill="none" xmlns="http://www.w3.org/2000/svg">
<g filter="url(#filter0_d_2620_16534)">
<path d="M110.681 123.379L52.7236 90.1852V114.949L110.681 147.089V123.379Z" fill="#D2EDF7"/>
<path d="M52.7236 189.767L110.681 222.961V147.089L52.7236 114.949V189.767Z" fill="#D2EDF7"/>
<path d="M140.609 180.22C145.554 179.575 151.65 174.606 155.943 167.169C160.249 159.711 161.5 151.924 159.562 147.324C154.617 147.969 148.521 152.938 144.228 160.375C139.922 167.833 138.671 175.62 140.609 180.22Z" fill="white"/>
<path d="M165.366 149.37C164.919 148.845 164.398 148.405 163.805 148.062C162.567 147.347 161.122 147.121 159.562 147.324C161.5 151.924 160.249 159.711 155.943 167.169C151.65 174.606 145.554 179.575 140.609 180.22C141.213 181.653 142.126 182.778 143.353 183.486C144.308 184.038 145.387 184.298 146.547 184.295C151.654 184.282 158.328 179.145 162.93 171.173C167.929 162.515 168.81 153.414 165.366 149.37Z" fill="#D2EDF7"/>
<path d="M127.493 151.518C119.467 165.42 120.203 180.87 129.136 186.027L138.621 191.296C137.047 190.388 135.728 189.16 134.666 187.678C129.7 180.744 130.365 168.24 136.978 156.787C143.481 145.522 153.743 138.732 162.155 139.305C163.987 139.431 165.732 139.905 167.331 140.759L158.2 135.687C149.267 130.529 135.519 137.617 127.493 151.518Z" fill="#D2EDF7"/>
<path fill-rule="evenodd" clip-rule="evenodd" d="M110.681 147.089V222.961L183.919 181.337V105.992V80.1744L127.015 46.9805L52.7236 90.1852L110.681 123.379V147.089ZM127.493 151.518C119.467 165.42 120.203 180.87 129.136 186.027L138.621 191.296C137.047 190.388 135.728 189.16 134.666 187.678C129.7 180.744 130.365 168.24 136.978 156.787C143.481 145.522 153.743 138.732 162.155 139.305C163.987 139.431 165.732 139.905 167.331 140.759L158.2 135.687C149.267 130.529 135.519 137.617 127.493 151.518ZM163.805 148.062C164.398 148.405 164.919 148.845 165.366 149.37C168.81 153.414 167.929 162.515 162.93 171.173C158.328 179.145 151.654 184.282 146.547 184.295C145.387 184.298 144.308 184.038 143.353 183.486C142.126 182.778 141.213 181.653 140.609 180.22C138.671 175.62 139.922 167.833 144.228 160.375C148.521 152.938 154.617 147.969 159.562 147.324C161.122 147.121 162.567 147.347 163.805 148.062ZM144.665 120.109C146.681 121.273 149.377 120.378 150.686 118.11C151.996 115.842 151.423 113.06 149.407 111.896C147.391 110.732 144.695 111.627 143.385 113.895C142.076 116.163 142.649 118.945 144.665 120.109ZM164.085 110.099C162.775 112.367 160.079 113.262 158.063 112.098C156.047 110.934 155.474 108.151 156.784 105.883C158.093 103.615 160.789 102.72 162.805 103.884C164.821 105.048 165.394 107.83 164.085 110.099ZM171.462 104.086C173.478 105.25 176.174 104.355 177.483 102.087C178.793 99.8191 178.22 97.0369 176.204 95.8729C174.188 94.709 171.492 95.604 170.182 97.8721C168.873 100.14 169.446 102.922 171.462 104.086Z" fill="white"/>
<path d="M177.483 102.087C176.174 104.355 173.478 105.25 171.462 104.086C169.446 102.922 168.873 100.14 170.182 97.8721C171.492 95.604 174.188 94.709 176.204 95.8729C178.22 97.0369 178.793 99.8191 177.483 102.087Z" fill="#D2EDF7"/>
<path d="M164.085 110.099C162.775 112.367 160.079 113.262 158.063 112.098C156.047 110.934 155.474 108.151 156.784 105.883C158.093 103.615 160.789 102.72 162.805 103.884C164.821 105.048 165.394 107.83 164.085 110.099Z" fill="#D2EDF7"/>
<path d="M150.686 118.11C149.377 120.378 146.681 121.273 144.665 120.109C142.649 118.945 142.076 116.163 143.385 113.895C144.695 111.627 147.391 110.732 149.407 111.896C151.423 113.06 151.996 115.842 150.686 118.11Z" fill="#D2EDF7"/>
<path d="M110.681 222.961L52.7236 189.767V114.949M110.681 222.961L183.919 181.337V105.992M110.681 222.961V147.089M52.7236 90.1852L110.681 123.379M52.7236 90.1852L127.015 46.9805L183.919 80.1744M52.7236 90.1852V114.949M110.681 123.379L183.919 80.1744M110.681 123.379V147.089M183.919 80.1744V105.992M52.7236 114.949L110.681 147.089M110.681 147.089L183.919 105.992M138.621 191.296C147.554 196.454 161.302 189.366 169.328 175.465C177.354 161.564 176.618 146.113 167.685 140.956M138.621 191.296L129.136 186.027C120.203 180.87 119.467 165.42 127.493 151.518C135.519 137.617 149.267 130.529 158.2 135.687L167.331 140.759M138.621 191.296C137.047 190.388 135.728 189.16 134.666 187.678C129.7 180.744 130.365 168.24 136.978 156.787C143.481 145.522 153.743 138.732 162.155 139.305C163.987 139.431 165.732 139.905 167.331 140.759M167.685 140.956L167.331 140.759M167.685 140.956C167.568 140.888 167.45 140.822 167.331 140.759M140.609 180.22C145.554 179.575 151.65 174.606 155.943 167.169C160.249 159.711 161.5 151.924 159.562 147.324M140.609 180.22C141.213 181.653 142.126 182.778 143.353 183.486C144.308 184.038 145.387 184.298 146.547 184.295C151.654 184.282 158.328 179.145 162.93 171.173C167.929 162.515 168.81 153.414 165.366 149.37C164.919 148.845 164.398 148.405 163.805 148.062C162.567 147.347 161.122 147.121 159.562 147.324M140.609 180.22C138.671 175.62 139.922 167.833 144.228 160.375C148.521 152.938 154.617 147.969 159.562 147.324M150.686 118.11C149.377 120.378 146.681 121.273 144.665 120.109C142.649 118.945 142.076 116.163 143.385 113.895C144.695 111.627 147.391 110.732 149.407 111.896C151.423 113.06 151.996 115.842 150.686 118.11ZM164.085 110.099C162.775 112.367 160.079 113.262 158.063 112.098C156.047 110.934 155.474 108.151 156.784 105.883C158.093 103.615 160.789 102.72 162.805 103.884C164.821 105.048 165.394 107.83 164.085 110.099ZM177.483 102.087C176.174 104.355 173.478 105.25 171.462 104.086C169.446 102.922 168.873 100.14 170.182 97.8721C171.492 95.604 174.188 94.709 176.204 95.8729C178.22 97.0369 178.793 99.8191 177.483 102.087Z" stroke="#18282E" stroke-width="4"/>
</g>
<defs>
<filter id="filter0_d_2620_16534" x="0.723633" y="0.166016" width="235.195" height="280.598" filterUnits="userSpaceOnUse" color-interpolation-filters="sRGB">
<feFlood flood-opacity="0" result="BackgroundImageFix"/>
<feColorMatrix in="SourceAlpha" type="matrix" values="0 0 0 0 0 0 0 0 0 0 0 0 0 0 0 0 0 0 127 0" result="hardAlpha"/>
<feOffset dy="5.5"/>
<feGaussianBlur stdDeviation="25"/>
<feComposite in2="hardAlpha" operator="out"/>
<feColorMatrix type="matrix" values="0 0 0 0 0 0 0 0 0 0 0 0 0 0 0 0 0 0 0.25 0"/>
<feBlend mode="normal" in2="BackgroundImageFix" result="effect1_dropShadow_2620_16534"/>
<feBlend mode="normal" in="SourceGraphic" in2="effect1_dropShadow_2620_16534" result="shape"/>
</filter>
</defs>
</svg>
