<svg width="92" height="93" viewBox="0 0 92 93" fill="none" xmlns="http://www.w3.org/2000/svg">
<g filter="url(#filter0_d_2620_16556)">
<path d="M43.7605 42.0479L24 30.7305V39.1737L43.7605 50.1317V42.0479Z" fill="#D2EDF7"/>
<path d="M24 64.6826L43.7605 76V50.1317L24 39.1737V64.6826Z" fill="#D2EDF7"/>
<path d="M53.9642 61.4276C55.6503 61.2077 57.7286 59.5135 59.1925 56.9779C60.6606 54.4351 61.087 51.7803 60.4263 50.2118C58.7402 50.4317 56.6619 52.1259 55.198 54.6615C53.7299 57.2043 53.3035 59.8591 53.9642 61.4276Z" fill="white"/>
<path d="M62.405 50.9093C62.2525 50.7303 62.0752 50.5803 61.8729 50.4635C61.4507 50.2197 60.958 50.1425 60.4263 50.2118C61.087 51.7803 60.6606 54.4351 59.1925 56.9779C57.7286 59.5135 55.6503 61.2077 53.9642 61.4276C54.1701 61.9163 54.4815 62.2996 54.8998 62.5411C55.2256 62.7292 55.5934 62.8182 55.9887 62.8171C57.7301 62.8125 60.0054 61.0612 61.5747 58.3431C63.279 55.3912 63.5794 52.2884 62.405 50.9093Z" fill="#D2EDF7"/>
<path d="M49.4923 51.6419C46.7559 56.3814 47.0068 61.6492 50.0525 63.4076L53.2863 65.204C52.7499 64.8943 52.3001 64.4757 51.9381 63.9703C50.2449 61.6062 50.4717 57.343 52.7261 53.4383C54.9436 49.5976 58.4421 47.2823 61.3101 47.4779C61.9349 47.5206 62.5298 47.6824 63.075 47.9735L59.9619 46.2442C56.9161 44.4857 52.2287 46.9023 49.4923 51.6419Z" fill="#D2EDF7"/>
<path fill-rule="evenodd" clip-rule="evenodd" d="M43.7605 50.1317V76L68.7305 61.8084V36.1198V27.3174L49.3293 16L24 30.7305L43.7605 42.0479V50.1317ZM49.4923 51.6419C46.7559 56.3814 47.0068 61.6492 50.0525 63.4076L53.2863 65.204C52.7499 64.8943 52.3001 64.4757 51.9381 63.9703C50.2449 61.6062 50.4717 57.343 52.7261 53.4383C54.9436 49.5976 58.4421 47.2823 61.3101 47.4779C61.9349 47.5206 62.5298 47.6824 63.075 47.9735L59.9619 46.2442C56.9161 44.4857 52.2287 46.9023 49.4923 51.6419ZM61.8729 50.4635C62.0752 50.5803 62.2525 50.7303 62.405 50.9093C63.5794 52.2884 63.279 55.3912 61.5747 58.3431C60.0054 61.0612 57.7301 62.8125 55.9887 62.8171C55.5934 62.8182 55.2256 62.7292 54.8998 62.5411C54.4815 62.2996 54.1701 61.9163 53.9642 61.4276C53.3035 59.8591 53.7299 57.2043 55.198 54.6615C56.6619 52.1259 58.7402 50.4317 60.4263 50.2118C60.958 50.1425 61.4507 50.2197 61.8729 50.4635ZM55.347 40.933C56.0344 41.3298 56.9536 41.0247 57.4 40.2514C57.8465 39.4781 57.6512 38.5295 56.9638 38.1326C56.2764 37.7358 55.3573 38.041 54.9108 38.8142C54.4644 39.5875 54.6597 40.5361 55.347 40.933ZM61.9682 37.5199C61.5218 38.2932 60.6026 38.5984 59.9152 38.2015C59.2279 37.8047 59.0326 36.8561 59.479 36.0828C59.9255 35.3095 60.8446 35.0043 61.532 35.4012C62.2194 35.798 62.4147 36.7466 61.9682 37.5199ZM64.4834 35.4701C65.1708 35.8669 66.09 35.5618 66.5364 34.7885C66.9829 34.0152 66.7876 33.0666 66.1002 32.6697C65.4128 32.2729 64.4937 32.5781 64.0472 33.3513C63.6008 34.1246 63.7961 35.0732 64.4834 35.4701Z" fill="white"/>
<path d="M66.5364 34.7885C66.09 35.5618 65.1708 35.8669 64.4834 35.4701C63.7961 35.0732 63.6008 34.1246 64.0472 33.3513C64.4937 32.5781 65.4128 32.2729 66.1002 32.6697C66.7876 33.0666 66.9829 34.0152 66.5364 34.7885Z" fill="#D2EDF7"/>
<path d="M61.9682 37.5199C61.5218 38.2932 60.6026 38.5984 59.9152 38.2015C59.2279 37.8047 59.0326 36.8561 59.479 36.0828C59.9255 35.3095 60.8446 35.0043 61.532 35.4012C62.2194 35.798 62.4147 36.7466 61.9682 37.5199Z" fill="#D2EDF7"/>
<path d="M57.4 40.2514C56.9536 41.0247 56.0344 41.3298 55.347 40.933C54.6597 40.5361 54.4644 39.5875 54.9108 38.8142C55.3573 38.041 56.2764 37.7358 56.9638 38.1326C57.6512 38.5295 57.8465 39.4781 57.4 40.2514Z" fill="#D2EDF7"/>
<path d="M43.7605 76L24 64.6826V39.1737M43.7605 76L68.7305 61.8084V36.1198M43.7605 76V50.1317M24 30.7305L43.7605 42.0479M24 30.7305L49.3293 16L68.7305 27.3174M24 30.7305V39.1737M43.7605 42.0479L68.7305 27.3174M43.7605 42.0479V50.1317M68.7305 27.3174V36.1198M24 39.1737L43.7605 50.1317M43.7605 50.1317L68.7305 36.1198M53.2863 65.204C56.3321 66.9625 61.0195 64.5459 63.7559 59.8063C66.4923 55.0668 66.2415 49.7991 63.1957 48.0406M53.2863 65.204L50.0525 63.4076C47.0068 61.6492 46.7559 56.3814 49.4923 51.6419C52.2287 46.9023 56.9161 44.4857 59.9619 46.2442L63.075 47.9735M53.2863 65.204C52.7499 64.8943 52.3001 64.4757 51.9381 63.9703C50.2449 61.6062 50.4717 57.343 52.7261 53.4383C54.9436 49.5976 58.4421 47.2823 61.3101 47.4779C61.9349 47.5206 62.5298 47.6824 63.075 47.9735M63.1957 48.0406L63.075 47.9735M63.1957 48.0406C63.1557 48.0175 63.1155 47.9951 63.075 47.9735M53.9642 61.4276C55.6503 61.2077 57.7286 59.5135 59.1925 56.9779C60.6606 54.4351 61.087 51.7803 60.4263 50.2118M53.9642 61.4276C54.1701 61.9163 54.4815 62.2996 54.8998 62.5411C55.2256 62.7292 55.5934 62.8182 55.9887 62.8171C57.7301 62.8125 60.0054 61.0612 61.5747 58.3431C63.279 55.3912 63.5794 52.2884 62.405 50.9093C62.2525 50.7303 62.0752 50.5803 61.8729 50.4635C61.4507 50.2197 60.958 50.1425 60.4263 50.2118M53.9642 61.4276C53.3035 59.8591 53.7299 57.2043 55.198 54.6615C56.6619 52.1259 58.7402 50.4317 60.4263 50.2118M57.4 40.2514C56.9536 41.0247 56.0344 41.3298 55.347 40.933C54.6597 40.5361 54.4644 39.5875 54.9108 38.8142C55.3573 38.041 56.2764 37.7358 56.9638 38.1326C57.6512 38.5295 57.8465 39.4781 57.4 40.2514ZM61.9682 37.5199C61.5218 38.2932 60.6026 38.5984 59.9152 38.2015C59.2279 37.8047 59.0326 36.8561 59.479 36.0828C59.9255 35.3095 60.8446 35.0043 61.532 35.4012C62.2194 35.798 62.4147 36.7466 61.9682 37.5199ZM66.5364 34.7885C66.09 35.5618 65.1708 35.8669 64.4834 35.4701C63.7961 35.0732 63.6008 34.1246 64.0472 33.3513C64.4937 32.5781 65.4128 32.2729 66.1002 32.6697C66.7876 33.0666 66.9829 34.0152 66.5364 34.7885Z" stroke="#18282E" stroke-width="1.25"/>
</g>
<defs>
<filter id="filter0_d_2620_16556" x="11.375" y="7.27637" width="69.9805" height="85.4434" filterUnits="userSpaceOnUse" color-interpolation-filters="sRGB">
<feFlood flood-opacity="0" result="BackgroundImageFix"/>
<feColorMatrix in="SourceAlpha" type="matrix" values="0 0 0 0 0 0 0 0 0 0 0 0 0 0 0 0 0 0 127 0" result="hardAlpha"/>
<feOffset dy="4"/>
<feGaussianBlur stdDeviation="6"/>
<feComposite in2="hardAlpha" operator="out"/>
<feColorMatrix type="matrix" values="0 0 0 0 0 0 0 0 0 0 0 0 0 0 0 0 0 0 0.25 0"/>
<feBlend mode="normal" in2="BackgroundImageFix" result="effect1_dropShadow_2620_16556"/>
<feBlend mode="normal" in="SourceGraphic" in2="effect1_dropShadow_2620_16556" result="shape"/>
</filter>
</defs>
</svg>
