<svg width="141" height="168" viewBox="0 0 141 168" fill="none" xmlns="http://www.w3.org/2000/svg">
<g filter="url(#filter0_d_2620_16518)">
<path d="M65.9549 72.6522L31.4141 52.8697V67.6281L65.9549 86.7825V72.6522Z" fill="#D2EDF7"/>
<path d="M31.4141 112.217L65.9549 132V86.7825L31.4141 67.6281V112.217Z" fill="#D2EDF7"/>
<path d="M83.7907 106.527C86.738 106.143 90.3708 103.182 92.9297 98.7494C95.4959 94.3047 96.2412 89.6641 95.0863 86.9225C92.139 87.3068 88.5063 90.2683 85.9474 94.7005C83.3812 99.1452 82.6359 103.786 83.7907 106.527Z" fill="white"/>
<path d="M98.5451 88.1417C98.2785 87.8288 97.9686 87.5666 97.6149 87.3624C96.877 86.9364 96.0157 86.8013 95.0863 86.9225C96.2412 89.6641 95.4959 94.3047 92.9297 98.7494C90.3708 103.182 86.738 106.143 83.7907 106.527C84.1506 107.382 84.6949 108.052 85.4262 108.474C85.9956 108.803 86.6385 108.958 87.3295 108.956C90.3734 108.948 94.3505 105.887 97.0937 101.136C100.073 95.9759 100.598 90.5522 98.5451 88.1417Z" fill="#D2EDF7"/>
<path d="M75.974 89.4222C71.1909 97.7068 71.6293 106.915 76.9533 109.988L82.6058 113.129C81.6681 112.587 80.8819 111.855 80.2491 110.972C77.2894 106.84 77.686 99.3877 81.6266 92.5623C85.5026 85.8488 91.618 81.8017 96.6313 82.1438C97.7234 82.2183 98.7632 82.5011 99.7161 83.01L94.2745 79.9871C88.9506 76.9133 80.7572 81.1376 75.974 89.4222Z" fill="#D2EDF7"/>
<path fill-rule="evenodd" clip-rule="evenodd" d="M65.9549 86.7825V132L109.602 107.193V62.2899V46.9036L75.6891 27.1211L31.4141 52.8697L65.9549 72.6522V86.7825ZM75.974 89.4222C71.1909 97.7068 71.6293 106.915 76.9533 109.988L82.6058 113.129C81.6681 112.587 80.8819 111.855 80.2491 110.972C77.2894 106.84 77.686 99.3877 81.6266 92.5623C85.5026 85.8488 91.618 81.8017 96.6313 82.1438C97.7234 82.2183 98.7632 82.5011 99.7161 83.01L94.2745 79.9871C88.9506 76.9133 80.7572 81.1376 75.974 89.4222ZM97.6149 87.3624C97.9686 87.5666 98.2785 87.8288 98.5451 88.1417C100.598 90.5522 100.073 95.9759 97.0937 101.136C94.3505 105.887 90.3734 108.948 87.3295 108.956C86.6385 108.958 85.9956 108.803 85.4262 108.474C84.6949 108.052 84.1506 107.382 83.7907 106.527C82.6359 103.786 83.3812 99.1452 85.9474 94.7005C88.5063 90.2683 92.139 87.3068 95.0863 86.9225C96.0157 86.8013 96.877 86.9364 97.6149 87.3624ZM86.2079 70.7033C87.4094 71.397 89.016 70.8636 89.7964 69.5119C90.5768 68.1602 90.2355 66.5021 89.034 65.8084C87.8325 65.1147 86.2258 65.6481 85.4454 66.9998C84.665 68.3515 85.0064 70.0096 86.2079 70.7033ZM97.7816 64.7374C97.0012 66.0891 95.3945 66.6225 94.193 65.9288C92.9915 65.2351 92.6501 63.577 93.4305 62.2253C94.2109 60.8736 95.8176 60.3402 97.0191 61.0339C98.2206 61.7276 98.562 63.3857 97.7816 64.7374ZM102.178 61.1543C103.38 61.848 104.986 61.3146 105.767 59.9629C106.547 58.6112 106.206 56.9531 105.004 56.2594C103.803 55.5657 102.196 56.0991 101.416 57.4508C100.635 58.8025 100.977 60.4606 102.178 61.1543Z" fill="white"/>
<path d="M105.767 59.9629C104.986 61.3146 103.38 61.848 102.178 61.1543C100.977 60.4606 100.635 58.8025 101.416 57.4508C102.196 56.0991 103.803 55.5657 105.004 56.2594C106.206 56.9531 106.547 58.6112 105.767 59.9629Z" fill="#D2EDF7"/>
<path d="M97.7816 64.7374C97.0012 66.0891 95.3945 66.6225 94.193 65.9288C92.9915 65.2351 92.6501 63.577 93.4305 62.2253C94.2109 60.8736 95.8176 60.3402 97.0191 61.0339C98.2206 61.7276 98.562 63.3857 97.7816 64.7374Z" fill="#D2EDF7"/>
<path d="M89.7964 69.5119C89.016 70.8636 87.4094 71.397 86.2079 70.7033C85.0064 70.0096 84.665 68.3515 85.4454 66.9998C86.2258 65.6481 87.8325 65.1147 89.034 65.8084C90.2355 66.5021 90.5768 68.1602 89.7964 69.5119Z" fill="#D2EDF7"/>
<path d="M65.9549 132L31.4141 112.217V67.6281M65.9549 132L109.602 107.193V62.2899M65.9549 132V86.7825M31.4141 52.8697L65.9549 72.6522M31.4141 52.8697L75.6891 27.1211L109.602 46.9036M31.4141 52.8697V67.6281M65.9549 72.6522L109.602 46.9036M65.9549 72.6522V86.7825M109.602 46.9036V62.2899M31.4141 67.6281L65.9549 86.7825M65.9549 86.7825L109.602 62.2899M82.6058 113.129C87.9298 116.202 96.1232 111.978 100.906 103.693C105.69 95.4088 105.251 86.201 99.9271 83.1272M82.6058 113.129L76.9533 109.988C71.6293 106.915 71.1909 97.7068 75.974 89.4222C80.7572 81.1376 88.9506 76.9133 94.2745 79.9871L99.7161 83.01M82.6058 113.129C81.6681 112.587 80.8819 111.855 80.2491 110.972C77.2894 106.84 77.686 99.3877 81.6266 92.5623C85.5026 85.8488 91.618 81.8017 96.6313 82.1438C97.7234 82.2183 98.7632 82.5011 99.7161 83.01M99.9271 83.1272L99.7161 83.01M99.9271 83.1272C99.8573 83.0869 99.7869 83.0478 99.7161 83.01M83.7907 106.527C86.738 106.143 90.3708 103.182 92.9297 98.7494C95.4959 94.3047 96.2412 89.6641 95.0863 86.9225M83.7907 106.527C84.1506 107.382 84.6949 108.052 85.4262 108.474C85.9956 108.803 86.6385 108.958 87.3295 108.956C90.3734 108.948 94.3505 105.887 97.0937 101.136C100.073 95.9759 100.598 90.5522 98.5451 88.1417C98.2785 87.8288 97.9686 87.5666 97.6149 87.3624C96.877 86.9364 96.0157 86.8013 95.0863 86.9225M83.7907 106.527C82.6359 103.786 83.3812 99.1452 85.9474 94.7005C88.5063 90.2683 92.139 87.3068 95.0863 86.9225M89.7964 69.5119C89.016 70.8636 87.4094 71.397 86.2079 70.7033C85.0064 70.0096 84.665 68.3515 85.4454 66.9998C86.2258 65.6481 87.8325 65.1147 89.034 65.8084C90.2355 66.5021 90.5768 68.1602 89.7964 69.5119ZM97.7816 64.7374C97.0012 66.0891 95.3945 66.6225 94.193 65.9288C92.9915 65.2351 92.6501 63.577 93.4305 62.2253C94.2109 60.8736 95.8176 60.3402 97.0191 61.0339C98.2206 61.7276 98.562 63.3857 97.7816 64.7374ZM105.767 59.9629C104.986 61.3146 103.38 61.848 102.178 61.1543C100.977 60.4606 100.635 58.8025 101.416 57.4508C102.196 56.0991 103.803 55.5657 105.004 56.2594C106.206 56.9531 106.547 58.6112 105.767 59.9629Z" stroke="#18282E" stroke-width="2"/>
</g>
<defs>
<filter id="filter0_d_2620_16518" x="0.414062" y="0.463867" width="140.188" height="167.188" filterUnits="userSpaceOnUse" color-interpolation-filters="sRGB">
<feFlood flood-opacity="0" result="BackgroundImageFix"/>
<feColorMatrix in="SourceAlpha" type="matrix" values="0 0 0 0 0 0 0 0 0 0 0 0 0 0 0 0 0 0 127 0" result="hardAlpha"/>
<feOffset dy="4.5"/>
<feGaussianBlur stdDeviation="15"/>
<feComposite in2="hardAlpha" operator="out"/>
<feColorMatrix type="matrix" values="0 0 0 0 0 0 0 0 0 0 0 0 0 0 0 0 0 0 0.25 0"/>
<feBlend mode="normal" in2="BackgroundImageFix" result="effect1_dropShadow_2620_16518"/>
<feBlend mode="normal" in="SourceGraphic" in2="effect1_dropShadow_2620_16518" result="shape"/>
</filter>
</defs>
</svg>
