<svg width="121" height="164" viewBox="0 0 121 164" fill="none" xmlns="http://www.w3.org/2000/svg">
<path d="M42.1507 89.7286L12.8119 73.5623C11.8869 79.1371 11.3992 82.3049 9.21945 86.1368C6.04867 91.4896 5.33333 94.2023 5.59746 98.2986C5.61511 98.5724 5.59945 98.8446 5.54503 99.1135C4.54392 104.061 1.65293 119.385 2.03437 123.26C2.36014 132.895 2.91579 136.849 4.77197 139.131C4.93601 139.332 5.12838 139.489 5.34865 139.627C8.09758 141.35 27.9191 153.76 40.9526 161.58C29.5987 150.022 29.8351 137.657 39.1569 109.489C42.089 101.384 42.6431 97.0801 42.1507 89.7286Z" fill="#E4F4FA"/>
<path fill-rule="evenodd" clip-rule="evenodd" d="M106.816 53.8036L42.1507 89.7286C42.6431 97.0801 42.089 101.384 39.1569 109.489C29.8351 137.657 29.5987 150.022 40.9526 161.58C42.0995 165.019 103.048 130.053 108.258 127.056C108.52 126.906 108.717 126.741 108.914 126.511C112.756 122.027 114.604 114.549 116.994 104.1C118.861 94.1285 119.052 88.0815 117.183 77.0493C117.064 76.3453 116.685 75.7132 116.132 75.2608C112.1 71.9584 110.192 69.7066 108.794 65.7186C108.67 65.3656 108.625 64.9886 108.649 64.6153C108.966 59.682 109.043 56.8361 106.816 53.8036ZM56.6926 113.081C56.4098 128.211 66.8976 133.158 77.4763 126.852C86.284 120.127 91.9067 112.24 92.492 102.304C93.9136 84.6161 89.1332 80.7981 75.0813 86.7363C63.0542 93.7816 56.9325 104.92 56.6926 113.081Z" fill="#E4F4FA"/>
<path fill-rule="evenodd" clip-rule="evenodd" d="M77.4763 126.852C66.8976 133.158 56.4098 128.211 56.6926 113.081C56.9325 104.92 63.0542 93.7816 75.0813 86.7363C89.1332 80.7981 93.9136 84.6161 92.492 102.304C91.9067 112.24 86.284 120.127 77.4763 126.852ZM78.9769 97.9249C79.9242 98.3634 80.4701 99.3533 80.4701 100.397V110.148C80.4701 111.768 79.1569 113.081 77.5371 113.081H76.9874C76.1668 113.081 75.3963 113.476 74.9162 114.141C73.4664 116.151 70.2913 115.125 70.2913 112.647V102.588C70.2913 102.012 70.459 101.446 70.7867 100.972C73.2017 97.4791 75.0673 96.1149 78.9769 97.9249Z" fill="#E4F4FA"/>
<path d="M77.5371 113.081C79.1569 113.081 80.4701 111.768 80.4701 110.148V100.397C80.4701 99.3533 79.9242 98.3634 78.9769 97.9249C75.0673 96.1149 73.2017 97.4791 70.7867 100.972C70.459 101.446 70.2913 102.012 70.2913 102.588V112.647C70.2913 115.125 73.4664 116.151 74.9162 114.141C75.3963 113.476 76.1668 113.081 76.9874 113.081H77.5371Z" fill="#E4F4FA"/>
<path d="M12.8119 73.5623L42.1507 89.7286L106.816 53.8036L90.0507 43.6249V52.1228C90.0507 53.1639 89.4999 54.1365 88.5863 54.6357C83.8977 57.1971 81.8591 57.1185 77.1831 54.6306C76.2493 54.1338 75.6807 53.1494 75.6807 52.0916V36.4399L48.7369 53.8036V74.2499C48.7369 75.3053 48.1725 76.2906 47.2333 76.7721C42.2516 79.3265 39.1122 79.3299 34.5658 76.7881C33.6846 76.2954 33.1694 75.3444 33.1694 74.3347V61.5887L12.8119 73.5623Z" fill="#E4F4FA"/>
<path d="M88.5863 54.6357C89.4999 54.1365 90.0507 53.1639 90.0507 52.1228V43.6249V17.3852C90.0507 16.9224 89.9331 16.4467 89.7163 16.0378C73.491 -14.5627 40.0091 10.6487 33.258 36.6907C33.1979 36.9228 33.1694 37.1599 33.1694 37.3997V61.5887V74.3347C33.1694 75.3444 33.6846 76.2954 34.5658 76.7881C39.1122 79.3299 42.2516 79.3265 47.2333 76.7721C48.1725 76.2906 48.7369 75.3053 48.7369 74.2499V53.8036V37.771C48.7369 37.2901 48.8575 36.8112 49.0853 36.3878C56.6851 22.267 63.0615 15.4141 73.7455 18.438C74.9224 18.7711 75.6807 19.8867 75.6807 21.1099V36.4399V52.0916C75.6807 53.1494 76.2493 54.1338 77.1831 54.6306C81.8591 57.1185 83.8977 57.1971 88.5863 54.6357Z" fill="#E4F4FA"/>
<path d="M12.8119 73.5623L42.1507 89.7286M12.8119 73.5623L33.1694 61.5887M12.8119 73.5623C11.8869 79.1371 11.3992 82.3049 9.21945 86.1368C6.04867 91.4896 5.33333 94.2023 5.59746 98.2986C5.61511 98.5724 5.59945 98.8446 5.54503 99.1135C4.54392 104.061 1.65293 119.385 2.03437 123.26C2.36014 132.895 2.91579 136.849 4.77197 139.131C4.93601 139.332 5.12838 139.489 5.34865 139.627C8.09758 141.35 27.9191 153.76 40.9526 161.58M42.1507 89.7286L106.816 53.8036M42.1507 89.7286C42.6431 97.0801 42.089 101.384 39.1569 109.489C29.8351 137.657 29.5987 150.022 40.9526 161.58M106.816 53.8036L90.0507 43.6249M106.816 53.8036C109.043 56.8361 108.966 59.682 108.649 64.6153C108.625 64.9886 108.67 65.3656 108.794 65.7186C110.192 69.7066 112.1 71.9584 116.132 75.2608C116.685 75.7132 117.064 76.3453 117.183 77.0493C119.052 88.0815 118.861 94.1285 116.994 104.1C114.604 114.549 112.756 122.027 108.914 126.511C108.717 126.741 108.52 126.906 108.258 127.056C103.048 130.053 42.0995 165.019 40.9526 161.58M90.0507 43.6249V52.1228C90.0507 53.1639 89.4999 54.1365 88.5863 54.6357C83.8977 57.1971 81.8591 57.1185 77.1831 54.6306C76.2493 54.1338 75.6807 53.1494 75.6807 52.0916V36.4399M90.0507 43.6249V17.3852C90.0507 16.9224 89.9331 16.4467 89.7163 16.0378C73.491 -14.5627 40.0091 10.6487 33.258 36.6907C33.1979 36.9228 33.1694 37.1599 33.1694 37.3997V61.5887M33.1694 61.5887V74.3347C33.1694 75.3444 33.6846 76.2954 34.5658 76.7881C39.1122 79.3299 42.2516 79.3265 47.2333 76.7721C48.1725 76.2906 48.7369 75.3053 48.7369 74.2499V53.8036M48.7369 53.8036V37.771C48.7369 37.2901 48.8575 36.8112 49.0853 36.3878C56.6851 22.267 63.0615 15.4141 73.7455 18.438C74.9224 18.7711 75.6807 19.8867 75.6807 21.1099V36.4399M48.7369 53.8036L75.6807 36.4399M77.4763 126.852C66.8976 133.158 56.4098 128.211 56.6926 113.081C56.9325 104.92 63.0542 93.7816 75.0813 86.7363C89.1332 80.7981 93.9136 84.6161 92.492 102.304C91.9067 112.24 86.284 120.127 77.4763 126.852ZM74.9162 114.141V114.141C73.4664 116.151 70.2913 115.125 70.2913 112.647V102.588C70.2913 102.012 70.459 101.446 70.7867 100.972C73.2017 97.4791 75.0673 96.1149 78.9769 97.9249C79.9242 98.3634 80.4701 99.3533 80.4701 100.397V110.148C80.4701 111.768 79.1569 113.081 77.5371 113.081H76.9874C76.1668 113.081 75.3963 113.476 74.9162 114.141Z" stroke="#70B8D5" stroke-width="4" stroke-linecap="round"/>
</svg>
