<svg width="72" height="98" viewBox="0 0 72 98" fill="none" xmlns="http://www.w3.org/2000/svg">
<path d="M25.4968 53.2833L8.01192 43.6488C7.46065 46.9712 7.16998 48.8591 5.87091 51.1428C3.98123 54.3328 3.55491 55.9496 3.71233 58.3908C3.72285 58.5539 3.71351 58.7162 3.68108 58.8765C3.08445 61.8249 1.36152 70.9575 1.58884 73.267C1.78299 79.0094 2.11414 81.3654 3.22036 82.7253C3.31813 82.8455 3.43277 82.939 3.56405 83.0212C5.20231 84.048 17.0153 91.4439 24.7828 96.1044C18.0163 89.2161 18.1572 81.8473 23.7127 65.0598C25.4601 60.2298 25.7903 57.6646 25.4968 53.2833Z" fill="#28434D"/>
<path fill-rule="evenodd" clip-rule="evenodd" d="M64.035 31.8732L25.4968 53.2833C25.7903 57.6646 25.4601 60.2298 23.7127 65.0598C18.1572 81.8473 18.0163 89.2161 24.7828 96.1044C25.4663 98.1539 61.7896 77.3152 64.8945 75.5295C65.0506 75.4397 65.1682 75.3413 65.2854 75.2044C67.5753 72.5319 68.6768 68.0753 70.1012 61.8482C71.2138 55.9056 71.3277 52.3017 70.2138 45.7269C70.1427 45.3073 69.9168 44.9306 69.5875 44.661C67.1841 42.6929 66.0472 41.3509 65.214 38.9742C65.1402 38.7638 65.1131 38.5391 65.1275 38.3167C65.3169 35.3765 65.3625 33.6805 64.035 31.8732ZM34.1633 67.2008C33.9948 76.2179 40.2452 79.1661 46.5498 75.408C51.7989 71.3996 55.1498 66.6992 55.4986 60.7777C56.3459 50.2365 53.4968 47.9611 45.1224 51.5C37.9547 55.6988 34.3063 62.3367 34.1633 67.2008Z" fill="#28434D"/>
<path fill-rule="evenodd" clip-rule="evenodd" d="M46.5498 75.408C40.2452 79.1661 33.9948 76.2179 34.1633 67.2008C34.3063 62.3367 37.9547 55.6988 45.1224 51.5C53.4968 47.9611 56.3459 50.2365 55.4986 60.7777C55.1498 66.6992 51.7989 71.3996 46.5498 75.408ZM47.4441 58.1681C48.0086 58.4294 48.3339 59.0194 48.3339 59.6415V65.4528C48.3339 66.4182 47.5513 67.2008 46.586 67.2008H46.2584C45.7693 67.2008 45.3101 67.4357 45.024 67.8323C44.16 69.0302 42.2677 68.419 42.2677 66.942V60.9474C42.2677 60.604 42.3677 60.2665 42.563 59.984C44.0022 57.9024 45.114 57.0894 47.4441 58.1681Z" fill="#28434D"/>
<path d="M46.586 67.2008C47.5513 67.2008 48.3339 66.4182 48.3339 65.4528V59.6415C48.3339 59.0194 48.0086 58.4294 47.4441 58.1681C45.114 57.0894 44.0022 57.9024 42.563 59.984C42.3677 60.2665 42.2677 60.604 42.2677 60.9474V66.942C42.2677 68.419 44.16 69.0302 45.024 67.8323C45.3101 67.4357 45.7693 67.2008 46.2584 67.2008H46.586Z" fill="#28434D"/>
<path d="M8.01192 43.6488L25.4968 53.2833L64.035 31.8732L54.0437 25.807V30.8716C54.0437 31.492 53.7154 32.0717 53.1709 32.3691C50.3767 33.8956 49.1618 33.8488 46.375 32.3661C45.8185 32.07 45.4796 31.4834 45.4796 30.853V21.525L29.422 31.8732V44.0586C29.422 44.6876 29.0856 45.2747 28.5259 45.5617C25.557 47.084 23.686 47.0861 20.9765 45.5713C20.4513 45.2776 20.1443 44.7108 20.1443 44.1091V36.5129L8.01192 43.6488Z" fill="#28434D"/>
<path d="M53.1709 32.3691C53.7154 32.0717 54.0437 31.492 54.0437 30.8716V25.807V10.1691C54.0437 9.89324 53.9736 9.60976 53.8444 9.36608C44.1746 -8.8708 24.2206 6.15436 20.1971 21.6745C20.1612 21.8128 20.1443 21.9541 20.1443 22.097V36.5129V44.1091C20.1443 44.7108 20.4513 45.2776 20.9765 45.5713C23.686 47.0861 25.557 47.084 28.5259 45.5617C29.0856 45.2747 29.422 44.6876 29.422 44.0586V31.8732V22.3183C29.422 22.0317 29.4939 21.7463 29.6297 21.494C34.1589 13.0785 37.959 8.99439 44.3263 10.7965C45.0277 10.995 45.4796 11.6599 45.4796 12.3889V21.525V30.853C45.4796 31.4834 45.8185 32.07 46.375 32.3661C49.1618 33.8488 50.3767 33.8956 53.1709 32.3691Z" fill="#28434D"/>
<path d="M8.01192 43.6488L25.4968 53.2833M8.01192 43.6488L20.1443 36.5129M8.01192 43.6488C7.46065 46.9712 7.16998 48.8591 5.87091 51.1428C3.98123 54.3328 3.55491 55.9496 3.71233 58.3908C3.72285 58.5539 3.71351 58.7162 3.68108 58.8765C3.08445 61.8249 1.36152 70.9575 1.58884 73.267C1.78299 79.0094 2.11414 81.3654 3.22036 82.7253C3.31813 82.8455 3.43277 82.939 3.56405 83.0212C5.20231 84.048 17.0153 91.4439 24.7828 96.1044M25.4968 53.2833L64.035 31.8732M25.4968 53.2833C25.7903 57.6646 25.4601 60.2298 23.7127 65.0598C18.1572 81.8473 18.0163 89.2161 24.7828 96.1044M64.035 31.8732L54.0437 25.807M64.035 31.8732C65.3625 33.6805 65.3169 35.3765 65.1275 38.3167C65.1131 38.5391 65.1402 38.7638 65.214 38.9742C66.0472 41.3509 67.1841 42.6929 69.5875 44.661C69.9168 44.9306 70.1427 45.3073 70.2138 45.7269C71.3277 52.3017 71.2138 55.9056 70.1012 61.8482C68.6768 68.0753 67.5753 72.5319 65.2854 75.2044C65.1682 75.3413 65.0506 75.4397 64.8945 75.5295C61.7896 77.3152 25.4663 98.1539 24.7828 96.1044M54.0437 25.807V30.8716C54.0437 31.492 53.7154 32.0717 53.1709 32.3691C50.3767 33.8956 49.1618 33.8488 46.375 32.3661C45.8185 32.07 45.4796 31.4834 45.4796 30.853V21.525M54.0437 25.807V10.1691C54.0437 9.89324 53.9736 9.60976 53.8444 9.36608C44.1746 -8.8708 24.2206 6.15436 20.1971 21.6745C20.1612 21.8128 20.1443 21.9541 20.1443 22.097V36.5129M20.1443 36.5129V44.1091C20.1443 44.7108 20.4513 45.2776 20.9765 45.5713C23.686 47.0861 25.557 47.084 28.5259 45.5617C29.0856 45.2747 29.422 44.6876 29.422 44.0586V31.8732M29.422 31.8732V22.3183C29.422 22.0317 29.4939 21.7463 29.6297 21.494C34.1589 13.0785 37.959 8.99439 44.3263 10.7965C45.0277 10.995 45.4796 11.6599 45.4796 12.3889V21.525M29.422 31.8732L45.4796 21.525M46.5498 75.408C40.2452 79.1661 33.9948 76.2179 34.1633 67.2008C34.3063 62.3367 37.9547 55.6988 45.1224 51.5C53.4968 47.9611 56.3459 50.2365 55.4986 60.7777C55.1498 66.6992 51.7989 71.3996 46.5498 75.408ZM45.024 67.8323V67.8323C44.16 69.0302 42.2677 68.419 42.2677 66.942V60.9474C42.2677 60.604 42.3677 60.2665 42.563 59.984C44.0022 57.9024 45.114 57.0894 47.4441 58.1681C48.0086 58.4294 48.3339 59.0194 48.3339 59.6415V65.4528C48.3339 66.4182 47.5513 67.2008 46.586 67.2008H46.2584C45.7693 67.2008 45.3101 67.4357 45.024 67.8323Z" stroke="#70B8D5" stroke-width="2" stroke-linecap="round"/>
</svg>
