<svg width="92" height="87" viewBox="0 0 92 87" fill="none" xmlns="http://www.w3.org/2000/svg">
<path d="M39.6893 43.9108L29.6863 38.399C29.3709 40.2997 29.2046 41.3797 28.4614 42.6862C27.3804 44.5112 27.1365 45.4361 27.2265 46.8327C27.2326 46.9261 27.2272 47.0189 27.2087 47.1106C26.8673 48.7974 25.8817 54.022 26.0117 55.3432C26.1228 58.6284 26.3122 59.9763 26.9451 60.7543C27.001 60.823 27.0666 60.8765 27.1417 60.9236C28.079 61.5109 34.837 65.7421 39.2808 68.4083C35.4097 64.4676 35.4903 60.252 38.6685 50.648C39.6682 47.8848 39.8571 46.4173 39.6893 43.9108Z" fill="#28434D"/>
<path fill-rule="evenodd" clip-rule="evenodd" d="M61.7366 31.6623L39.6893 43.9108C39.8571 46.4173 39.6682 47.8848 38.6685 50.648C35.4903 60.252 35.4097 64.4676 39.2808 68.4083C39.6718 69.5808 60.452 57.6592 62.2283 56.6376C62.3176 56.5862 62.3848 56.5299 62.4519 56.4517C63.7619 54.9227 64.3921 52.3731 65.207 48.8107C65.8435 45.411 65.9086 43.3492 65.2714 39.5879C65.2307 39.3478 65.1015 39.1323 64.9131 38.978C63.5381 37.8521 62.8877 37.0844 62.411 35.7247C62.3689 35.6043 62.3534 35.4758 62.3616 35.3485C62.4699 33.6665 62.496 32.6962 61.7366 31.6623ZM44.6473 51.8728C44.5509 57.0314 48.1266 58.7181 51.7334 56.5681C54.7364 54.275 56.6534 51.5859 56.853 48.1983C57.3377 42.1677 55.7078 40.866 50.9169 42.8906C46.8163 45.2927 44.7291 49.0901 44.6473 51.8728Z" fill="#28434D"/>
<path fill-rule="evenodd" clip-rule="evenodd" d="M51.7334 56.5681C48.1266 58.7181 44.5509 57.0314 44.6473 51.8728C44.7291 49.0901 46.8163 45.2927 50.9169 42.8906C55.7078 40.866 57.3377 42.1677 56.853 48.1983C56.6534 51.5859 54.7364 54.275 51.7334 56.5681ZM52.2451 46.7053C52.568 46.8548 52.7541 47.1923 52.7541 47.5482V50.8728C52.7541 51.4251 52.3064 51.8728 51.7541 51.8728H51.5667C51.287 51.8728 51.0242 52.0073 50.8606 52.2341C50.3662 52.9194 49.2837 52.5697 49.2837 51.7248V48.2953C49.2837 48.0989 49.3409 47.9058 49.4526 47.7442C50.276 46.5533 50.9121 46.0882 52.2451 46.7053Z" fill="#28434D"/>
<path d="M51.7541 51.8728C52.3064 51.8728 52.7541 51.4251 52.7541 50.8728V47.5482C52.7541 47.1923 52.568 46.8548 52.2451 46.7053C50.9121 46.0882 50.276 46.5533 49.4526 47.7442C49.3409 47.9058 49.2837 48.0989 49.2837 48.2953V51.7248C49.2837 52.5697 50.3662 52.9194 50.8606 52.2341C51.0242 52.0073 51.287 51.8728 51.5667 51.8728H51.7541Z" fill="#28434D"/>
<path d="M29.6863 38.399L39.6893 43.9108L61.7366 31.6623L56.0206 28.1919V31.0892C56.0206 31.4442 55.8328 31.7758 55.5213 31.946C53.9228 32.8193 53.2277 32.7925 51.6335 31.9443C51.3151 31.7749 51.1212 31.4393 51.1212 31.0786V25.7422L41.9348 31.6623V38.6334C41.9348 38.9932 41.7424 39.3291 41.4222 39.4933C39.7237 40.3642 38.6533 40.3654 37.1032 39.4988C36.8028 39.3308 36.6271 39.0065 36.6271 38.6623V34.3166L29.6863 38.399Z" fill="#28434D"/>
<path d="M55.5213 31.946C55.8328 31.7758 56.0206 31.4442 56.0206 31.0892V28.1919V19.2455C56.0206 19.0877 55.9805 18.9256 55.9066 18.7862C50.3746 8.35301 38.9591 16.9488 36.6573 25.8277C36.6368 25.9068 36.6271 25.9877 36.6271 26.0694V34.3166V38.6623C36.6271 39.0065 36.8028 39.3308 37.1032 39.4988C38.6533 40.3654 39.7237 40.3642 41.4222 39.4933C41.7424 39.3291 41.9348 38.9932 41.9348 38.6334V31.6623V26.196C41.9348 26.0321 41.9759 25.8688 42.0536 25.7244C44.6447 20.91 46.8187 18.5735 50.4614 19.6045C50.8627 19.718 51.1212 20.0984 51.1212 20.5155V25.7422V31.0786C51.1212 31.4393 51.3151 31.7749 51.6335 31.9443C53.2277 32.7925 53.9228 32.8193 55.5213 31.946Z" fill="#28434D"/>
<path d="M29.6863 38.399L39.6893 43.9108M29.6863 38.399L36.6271 34.3166M29.6863 38.399C29.3709 40.2997 29.2046 41.3797 28.4614 42.6862C27.3804 44.5112 27.1365 45.4361 27.2265 46.8327C27.2326 46.9261 27.2272 47.0189 27.2087 47.1106C26.8673 48.7974 25.8817 54.022 26.0117 55.3432C26.1228 58.6284 26.3122 59.9763 26.9451 60.7543C27.001 60.823 27.0666 60.8765 27.1417 60.9236C28.079 61.5109 34.837 65.7421 39.2808 68.4083M39.6893 43.9108L61.7366 31.6623M39.6893 43.9108C39.8571 46.4173 39.6682 47.8848 38.6685 50.648C35.4903 60.252 35.4097 64.4676 39.2808 68.4083M61.7366 31.6623L56.0206 28.1919M61.7366 31.6623C62.496 32.6962 62.4699 33.6665 62.3616 35.3485C62.3534 35.4758 62.3689 35.6043 62.411 35.7247C62.8877 37.0844 63.5381 37.8521 64.9131 38.978C65.1015 39.1323 65.2307 39.3478 65.2714 39.5879C65.9086 43.3492 65.8435 45.411 65.207 48.8107C64.3921 52.3731 63.7619 54.9227 62.4519 56.4517C62.3849 56.5299 62.3176 56.5862 62.2283 56.6376C60.452 57.6592 39.6718 69.5808 39.2808 68.4083M56.0206 28.1919V31.0892C56.0206 31.4442 55.8328 31.7758 55.5213 31.946C53.9228 32.8193 53.2277 32.7925 51.6335 31.9443C51.3151 31.7749 51.1212 31.4393 51.1212 31.0786V25.7422M56.0206 28.1919V19.2455C56.0206 19.0877 55.9805 18.9256 55.9066 18.7862C50.3746 8.35301 38.9591 16.9488 36.6573 25.8277C36.6368 25.9068 36.6271 25.9877 36.6271 26.0694V34.3166M36.6271 34.3166V38.6623C36.6271 39.0066 36.8028 39.3308 37.1032 39.4988C38.6533 40.3654 39.7237 40.3642 41.4222 39.4933C41.7424 39.3291 41.9348 38.9932 41.9348 38.6334V31.6623M41.9348 31.6623V26.196C41.9348 26.0321 41.9759 25.8688 42.0536 25.7244C44.6447 20.91 46.8187 18.5735 50.4614 19.6045C50.8627 19.718 51.1212 20.0984 51.1212 20.5155V25.7422M41.9348 31.6623L51.1212 25.7422M51.7334 56.5681C48.1266 58.7181 44.5509 57.0314 44.6473 51.8728C44.7291 49.0901 46.8163 45.2927 50.9169 42.8906C55.7078 40.866 57.3377 42.1677 56.853 48.1983C56.6534 51.5859 54.7364 54.275 51.7334 56.5681ZM50.8606 52.2341V52.2341C50.3662 52.9194 49.2837 52.5697 49.2837 51.7248V48.2953C49.2837 48.0989 49.3409 47.9058 49.4526 47.7442C50.276 46.5533 50.9121 46.0882 52.2451 46.7053C52.568 46.8548 52.7541 47.1923 52.7541 47.5482V50.8728C52.7541 51.4251 52.3064 51.8728 51.7541 51.8728H51.5667C51.287 51.8728 51.0242 52.0073 50.8606 52.2341Z" stroke="#70B8D5" stroke-width="1.5" stroke-linecap="round"/>
</svg>
