<svg width="119" height="162" viewBox="0 0 119 162" fill="none" xmlns="http://www.w3.org/2000/svg">
<path d="M41.576 88.473L12.6572 72.5381C11.7454 78.0331 11.2647 81.1556 9.11612 84.9326C5.99072 90.2088 5.28562 92.8827 5.54597 96.9203C5.56337 97.1902 5.54793 97.4585 5.4943 97.7236C4.50751 102.6 1.65789 117.705 2.03388 121.525C2.35498 131.022 2.90269 134.919 4.7323 137.168C4.89399 137.367 5.0836 137.521 5.30073 137.657C8.01031 139.356 27.5481 151.588 40.3951 159.296C29.2037 147.903 29.4367 135.716 38.6251 107.95C41.5152 99.9619 42.0614 95.7193 41.576 88.473Z" fill="#333015"/>
<path fill-rule="evenodd" clip-rule="evenodd" d="M105.316 53.0622L41.576 88.473C42.0614 95.7193 41.5152 99.9619 38.6251 107.95C29.4367 135.716 29.2037 147.903 40.3951 159.296C41.5255 162.686 101.602 128.22 106.737 125.267C106.995 125.118 107.19 124.955 107.384 124.729C111.171 120.309 112.993 112.938 115.349 102.639C117.189 92.81 117.377 86.8495 115.535 75.9752C115.417 75.2812 115.044 74.6582 114.499 74.2123C110.524 70.9571 108.643 68.7376 107.265 64.8066C107.143 64.4587 107.099 64.0871 107.122 63.7192C107.436 58.8564 107.511 56.0512 105.316 53.0622ZM55.9098 111.491C55.6311 126.405 65.9688 131.281 76.3961 125.066C85.0777 118.436 90.6199 110.662 91.1969 100.868C92.5982 83.4337 87.8861 79.6703 74.0354 85.5235C62.1804 92.468 56.1463 103.447 55.9098 111.491Z" fill="#333015"/>
<path fill-rule="evenodd" clip-rule="evenodd" d="M76.3961 125.066C65.9688 131.281 55.6311 126.405 55.9098 111.491C56.1463 103.447 62.1804 92.468 74.0354 85.5235C87.8861 79.6703 92.5982 83.4337 91.1969 100.868C90.6199 110.662 85.0777 118.436 76.3961 125.066ZM77.8752 96.552C78.8089 96.9842 79.347 97.96 79.347 98.9889V108.6C79.347 110.197 78.0527 111.491 76.456 111.491H75.9141C75.1053 111.491 74.3458 111.88 73.8726 112.536C72.4435 114.517 69.3139 113.506 69.3139 111.063V101.149C69.3139 100.581 69.4792 100.023 69.8022 99.5554C72.1827 96.1126 74.0215 94.7679 77.8752 96.552Z" fill="#333015"/>
<path d="M76.456 111.491C78.0527 111.491 79.347 110.197 79.347 108.6V98.9889C79.347 97.96 78.8089 96.9842 77.8752 96.552C74.0215 94.7679 72.1827 96.1126 69.8022 99.5554C69.4792 100.023 69.3139 100.581 69.3139 101.149V111.063C69.3139 113.506 72.4435 114.517 73.8726 112.536C74.3458 111.88 75.1053 111.491 75.9141 111.491H76.456Z" fill="#333015"/>
<path d="M12.6572 72.5381L41.576 88.473L105.316 53.0622L88.7905 43.0291V51.4055C88.7905 52.4317 88.2476 53.3903 87.347 53.8823C82.7256 56.4071 80.7161 56.3297 76.1071 53.8774C75.1866 53.3876 74.6261 52.4174 74.6261 51.3747V35.9469L48.068 53.0622V73.2159C48.068 74.2562 47.5116 75.2273 46.5859 75.7019C41.6755 78.2197 38.5811 78.2232 34.0998 75.7177C33.2311 75.2321 32.7233 74.2947 32.7233 73.2995V60.7359L12.6572 72.5381Z" fill="#333015"/>
<path d="M87.347 53.8823C88.2476 53.3903 88.7905 52.4317 88.7905 51.4055V43.0291V17.165C88.7905 16.7088 88.6746 16.2399 88.4609 15.8369C72.4678 -14.3256 39.4652 10.525 32.8107 36.1942C32.7513 36.423 32.7233 36.6567 32.7233 36.893V60.7359V73.2995C32.7233 74.2947 33.2311 75.2321 34.0998 75.7177C38.5811 78.2232 41.6755 78.2197 46.5859 75.7019C47.5116 75.2273 48.068 74.2562 48.068 73.2159V53.0622V37.259C48.068 36.785 48.1868 36.313 48.4114 35.8956C55.9024 21.977 62.1875 15.2222 72.7186 18.2027C73.8788 18.531 74.6261 19.6307 74.6261 20.8364V35.9469V51.3747C74.6261 52.4174 75.1866 53.3876 76.1071 53.8774C80.7161 56.3297 82.7256 56.4071 87.347 53.8823Z" fill="#333015"/>
<path d="M12.6572 72.5381L41.576 88.473M12.6572 72.5381L32.7233 60.7359M12.6572 72.5381C11.7454 78.0331 11.2647 81.1556 9.11612 84.9326C5.99072 90.2088 5.28562 92.8827 5.54597 96.9203C5.56337 97.1902 5.54793 97.4585 5.4943 97.7236C4.50751 102.6 1.65789 117.705 2.03388 121.525C2.35498 131.022 2.90269 134.919 4.7323 137.168C4.89399 137.367 5.0836 137.521 5.30073 137.657C8.01031 139.356 27.5481 151.588 40.3951 159.296M41.576 88.473L105.316 53.0622M41.576 88.473C42.0614 95.7193 41.5152 99.9619 38.6251 107.95C29.4367 135.716 29.2037 147.903 40.3951 159.296M105.316 53.0622L88.7905 43.0291M105.316 53.0622C107.511 56.0512 107.436 58.8564 107.122 63.7192C107.099 64.0871 107.143 64.4587 107.265 64.8066C108.643 68.7376 110.524 70.9571 114.499 74.2123C115.044 74.6582 115.417 75.2812 115.535 75.9752C117.377 86.8495 117.189 92.81 115.349 102.639C112.993 112.938 111.171 120.309 107.384 124.729C107.19 124.955 106.995 125.118 106.737 125.267C101.602 128.22 41.5255 162.686 40.3951 159.296M88.7905 43.0291V51.4055C88.7905 52.4317 88.2476 53.3903 87.347 53.8823C82.7256 56.4071 80.7161 56.3297 76.1071 53.8774C75.1866 53.3876 74.6261 52.4174 74.6261 51.3747V35.947M88.7905 43.0291V17.165C88.7905 16.7088 88.6746 16.2399 88.4609 15.8369C72.4678 -14.3256 39.4652 10.525 32.8107 36.1942C32.7513 36.423 32.7233 36.6567 32.7233 36.893V60.7359M32.7233 60.7359V73.2995C32.7233 74.2947 33.2311 75.2321 34.0998 75.7177C38.5811 78.2232 41.6756 78.2197 46.5859 75.7019C47.5116 75.2273 48.068 74.2562 48.068 73.2159V53.0622M48.068 53.0622V37.259C48.068 36.785 48.1868 36.313 48.4114 35.8956C55.9024 21.977 62.1875 15.2222 72.7186 18.2027C73.8788 18.531 74.6261 19.6307 74.6261 20.8364V35.947M48.068 53.0622L74.6261 35.947M76.3961 125.066C65.9688 131.281 55.6311 126.405 55.9098 111.491C56.1463 103.447 62.1804 92.468 74.0354 85.5235C87.8861 79.6703 92.5981 83.4337 91.1969 100.868C90.6199 110.662 85.0777 118.436 76.3961 125.066ZM73.8726 112.536V112.536C72.4435 114.517 69.3139 113.506 69.3139 111.063V101.149C69.3139 100.581 69.4792 100.023 69.8022 99.5554C72.1827 96.1126 74.0215 94.7679 77.8752 96.552C78.8089 96.9842 79.347 97.96 79.347 98.9889V108.6C79.347 110.197 78.0527 111.491 76.456 111.491H75.9141C75.1053 111.491 74.3458 111.88 73.8726 112.536Z" stroke="#FDEF67" stroke-width="4" stroke-linecap="round"/>
</svg>
