<svg width="72" height="98" viewBox="0 0 72 98" fill="none" xmlns="http://www.w3.org/2000/svg">
<path d="M24.9285 53.2833L7.44356 43.6488C6.89229 46.9712 6.60162 48.8591 5.30255 51.1428C3.41287 54.3328 2.98655 55.9496 3.14397 58.3908C3.15449 58.5539 3.14515 58.7162 3.11272 58.8765C2.51609 61.8249 0.793156 70.9575 1.02048 73.267C1.21463 79.0094 1.54578 81.3654 2.652 82.7253C2.74977 82.8455 2.86441 82.939 2.99569 83.0212C4.63395 84.048 16.4469 91.4439 24.2145 96.1044C17.4479 89.2161 17.5888 81.8473 23.1443 65.0598C24.8917 60.2298 25.222 57.6646 24.9285 53.2833Z" fill="#E4F4FA"/>
<path fill-rule="evenodd" clip-rule="evenodd" d="M63.4667 31.8732L24.9285 53.2833C25.222 57.6646 24.8917 60.2298 23.1443 65.0598C17.5888 81.8473 17.4479 89.2161 24.2145 96.1044C24.898 98.1539 61.2213 77.3152 64.3261 75.5295C64.4823 75.4397 64.5998 75.3413 64.717 75.2044C67.0069 72.5319 68.1084 68.0753 69.5329 61.8482C70.6454 55.9056 70.7593 52.3017 69.6454 45.7269C69.5743 45.3073 69.3484 44.9306 69.0192 44.661C66.6157 42.6929 65.4788 41.3509 64.6456 38.9742C64.5718 38.7638 64.5448 38.5391 64.5591 38.3167C64.7485 35.3765 64.7941 33.6805 63.4667 31.8732ZM33.595 67.2008C33.4264 76.2179 39.6768 79.1661 45.9814 75.408C51.2305 71.3996 54.5814 66.6992 54.9303 60.7777C55.7775 50.2365 52.9285 47.9611 44.5541 51.5C37.3863 55.6988 33.738 62.3367 33.595 67.2008Z" fill="#E4F4FA"/>
<path fill-rule="evenodd" clip-rule="evenodd" d="M45.9814 75.408C39.6768 79.1661 33.4264 76.2179 33.595 67.2008C33.738 62.3367 37.3863 55.6988 44.5541 51.5C52.9285 47.9611 55.7775 50.2365 54.9303 60.7777C54.5814 66.6992 51.2305 71.3996 45.9814 75.408ZM46.8757 58.1681C47.4402 58.4294 47.7656 59.0194 47.7656 59.6415V65.4528C47.7656 66.4182 46.983 67.2008 46.0176 67.2008H45.69C45.201 67.2008 44.7418 67.4357 44.4557 67.8323C43.5916 69.0302 41.6994 68.419 41.6994 66.942V60.9474C41.6994 60.604 41.7993 60.2665 41.9946 59.984C43.4339 57.9024 44.5457 57.0894 46.8757 58.1681Z" fill="#E4F4FA"/>
<path d="M46.0176 67.2008C46.983 67.2008 47.7656 66.4182 47.7656 65.4528V59.6415C47.7656 59.0194 47.4402 58.4294 46.8757 58.1681C44.5457 57.0894 43.4339 57.9024 41.9946 59.984C41.7993 60.2665 41.6994 60.604 41.6994 60.9474V66.942C41.6994 68.419 43.5916 69.0302 44.4557 67.8323C44.7418 67.4357 45.201 67.2008 45.69 67.2008H46.0176Z" fill="#E4F4FA"/>
<path d="M7.44356 43.6488L24.9285 53.2833L63.4667 31.8732L53.4753 25.807V30.8716C53.4753 31.492 53.1471 32.0717 52.6026 32.3691C49.8083 33.8956 48.5934 33.8488 45.8067 32.3661C45.2501 32.07 44.9113 31.4834 44.9113 30.853V21.525L28.8537 31.8732V44.0586C28.8537 44.6876 28.5173 45.2747 27.9576 45.5617C24.9886 47.084 23.1177 47.0861 20.4082 45.5713C19.883 45.2776 19.576 44.7108 19.576 44.1091V36.5129L7.44356 43.6488Z" fill="#E4F4FA"/>
<path d="M52.6026 32.3691C53.1471 32.0717 53.4753 31.492 53.4753 30.8716V25.807V10.1691C53.4753 9.89324 53.4053 9.60976 53.276 9.36608C43.6063 -8.8708 23.6522 6.15436 19.6288 21.6745C19.5929 21.8128 19.576 21.9541 19.576 22.097V36.5129V44.1091C19.576 44.7108 19.883 45.2776 20.4082 45.5713C23.1177 47.0861 24.9886 47.084 27.9576 45.5617C28.5173 45.2747 28.8537 44.6876 28.8537 44.0586V31.8732V22.3183C28.8537 22.0317 28.9255 21.7463 29.0613 21.494C33.5905 13.0785 37.3906 8.99439 43.7579 10.7965C44.4594 10.995 44.9113 11.6599 44.9113 12.3889V21.525V30.853C44.9113 31.4834 45.2501 32.07 45.8067 32.3661C48.5934 33.8488 49.8083 33.8956 52.6026 32.3691Z" fill="#E4F4FA"/>
<path d="M7.44356 43.6488L24.9285 53.2833M7.44356 43.6488L19.576 36.5129M7.44356 43.6488C6.89229 46.9712 6.60162 48.8591 5.30255 51.1428C3.41287 54.3328 2.98655 55.9496 3.14397 58.3908C3.15449 58.5539 3.14515 58.7162 3.11272 58.8765C2.51609 61.8249 0.793156 70.9575 1.02048 73.267C1.21463 79.0094 1.54578 81.3654 2.652 82.7253C2.74977 82.8455 2.86441 82.939 2.99569 83.0212C4.63395 84.048 16.4469 91.4439 24.2145 96.1044M24.9285 53.2833L63.4667 31.8732M24.9285 53.2833C25.2219 57.6646 24.8917 60.2298 23.1443 65.0598C17.5888 81.8473 17.4479 89.2161 24.2145 96.1044M63.4667 31.8732L53.4753 25.807M63.4667 31.8732C64.7941 33.6805 64.7485 35.3765 64.5591 38.3167C64.5448 38.5391 64.5719 38.7638 64.6456 38.9742C65.4788 41.3509 66.6157 42.6929 69.0192 44.661C69.3484 44.9306 69.5743 45.3073 69.6454 45.7269C70.7593 52.3017 70.6454 55.9056 69.5329 61.8482C68.1084 68.0753 67.0069 72.5319 64.717 75.2044C64.5998 75.3413 64.4823 75.4397 64.3261 75.5295C61.2213 77.3152 24.898 98.1539 24.2145 96.1044M53.4753 25.807V30.8716C53.4753 31.492 53.1471 32.0717 52.6026 32.3691C49.8083 33.8956 48.5934 33.8488 45.8067 32.3661C45.2501 32.07 44.9113 31.4834 44.9113 30.853V21.525M53.4753 25.807V10.1691C53.4753 9.89324 53.4053 9.60976 53.276 9.36608C43.6062 -8.8708 23.6522 6.15436 19.6288 21.6745C19.5929 21.8128 19.576 21.9541 19.576 22.097V36.5129M19.576 36.5129V44.1091C19.576 44.7108 19.883 45.2776 20.4082 45.5713C23.1177 47.0861 24.9886 47.084 27.9576 45.5617C28.5173 45.2747 28.8537 44.6876 28.8537 44.0586V31.8732M28.8537 31.8732V22.3183C28.8537 22.0317 28.9255 21.7463 29.0613 21.494C33.5905 13.0785 37.3906 8.99439 43.7579 10.7965C44.4594 10.995 44.9113 11.6599 44.9113 12.3889V21.525M28.8537 31.8732L44.9113 21.525M45.9814 75.408C39.6768 79.1661 33.4264 76.2179 33.595 67.2008C33.738 62.3367 37.3863 55.6988 44.5541 51.5C52.9285 47.9611 55.7775 50.2365 54.9303 60.7777C54.5814 66.6992 51.2305 71.3996 45.9814 75.408ZM44.4557 67.8323V67.8323C43.5916 69.0302 41.6994 68.419 41.6994 66.942V60.9474C41.6994 60.604 41.7993 60.2665 41.9946 59.984C43.4339 57.9024 44.5457 57.0894 46.8757 58.1681C47.4402 58.4294 47.7656 59.0194 47.7656 59.6415V65.4528C47.7656 66.4182 46.983 67.2008 46.0176 67.2008H45.69C45.201 67.2008 44.7418 67.4357 44.4557 67.8323Z" stroke="#70B8D5" stroke-width="2" stroke-linecap="round"/>
</svg>
