<svg width="121" height="164" viewBox="0 0 121 164" fill="none" xmlns="http://www.w3.org/2000/svg">
<path d="M42.3948 89.7286L13.0561 73.5623C12.1311 79.1371 11.6433 82.3049 9.46359 86.1368C6.29281 91.4896 5.57747 94.2023 5.8416 98.2986C5.85925 98.5724 5.84359 98.8446 5.78918 99.1135C4.78806 104.061 1.89707 119.385 2.27851 123.26C2.60428 132.895 3.15993 136.849 5.01611 139.131C5.18016 139.332 5.37252 139.489 5.59279 139.627C8.34172 141.35 28.1632 153.76 41.1967 161.58C29.8429 150.022 30.0792 137.657 39.4011 109.489C42.3331 101.384 42.8872 97.0801 42.3948 89.7286Z" fill="#28434D"/>
<path fill-rule="evenodd" clip-rule="evenodd" d="M107.06 53.8036L42.3948 89.7286C42.8872 97.0801 42.3331 101.384 39.4011 109.489C30.0792 137.657 29.8429 150.022 41.1967 161.58C42.3436 165.019 103.292 130.053 108.502 127.056C108.764 126.906 108.961 126.741 109.158 126.511C113 122.027 114.848 114.549 117.239 104.1C119.105 94.1285 119.296 88.0815 117.427 77.0493C117.308 76.3453 116.929 75.7132 116.377 75.2608C112.344 71.9584 110.436 69.7066 109.038 65.7186C108.914 65.3656 108.869 64.9886 108.893 64.6153C109.211 59.682 109.287 56.8361 107.06 53.8036ZM56.9367 113.081C56.6539 128.211 67.1417 133.158 77.7205 126.852C86.5282 120.127 92.1508 112.24 92.7362 102.304C94.1578 84.6161 89.3773 80.7981 75.3255 86.7363C63.2984 93.7816 57.1767 104.92 56.9367 113.081Z" fill="#28434D"/>
<path fill-rule="evenodd" clip-rule="evenodd" d="M77.7205 126.852C67.1417 133.158 56.6539 128.211 56.9367 113.081C57.1767 104.92 63.2984 93.7816 75.3255 86.7363C89.3773 80.7981 94.1578 84.6161 92.7362 102.304C92.1508 112.24 86.5282 120.127 77.7205 126.852ZM79.2211 97.9249C80.1683 98.3634 80.7142 99.3533 80.7142 100.397V110.148C80.7142 111.768 79.4011 113.081 77.7812 113.081H77.2315C76.411 113.081 75.6404 113.476 75.1604 114.141C73.7105 116.151 70.5355 115.125 70.5355 112.647V102.588C70.5355 102.012 70.7032 101.446 71.0308 100.972C73.4459 97.4791 75.3114 96.1149 79.2211 97.9249Z" fill="#28434D"/>
<path d="M77.7812 113.081C79.4011 113.081 80.7142 111.768 80.7142 110.148V100.397C80.7142 99.3533 80.1683 98.3634 79.2211 97.9249C75.3114 96.1149 73.4459 97.4791 71.0308 100.972C70.7032 101.446 70.5355 102.012 70.5355 102.588V112.647C70.5355 115.125 73.7105 116.151 75.1604 114.141C75.6404 113.476 76.411 113.081 77.2315 113.081H77.7812Z" fill="#28434D"/>
<path d="M13.0561 73.5623L42.3948 89.7286L107.06 53.8036L90.2948 43.6249V52.1228C90.2948 53.1639 89.744 54.1365 88.8304 54.6357C84.1419 57.1971 82.1032 57.1185 77.4273 54.6306C76.4934 54.1338 75.9248 53.1494 75.9248 52.0916V36.4399L48.9811 53.8036V74.2499C48.9811 75.3053 48.4166 76.2906 47.4775 76.7721C42.4958 79.3265 39.3564 79.3299 34.81 76.7881C33.9287 76.2954 33.4136 75.3444 33.4136 74.3347V61.5887L13.0561 73.5623Z" fill="#28434D"/>
<path d="M88.8304 54.6357C89.744 54.1365 90.2948 53.1639 90.2948 52.1228V43.6249V17.3852C90.2948 16.9224 90.1773 16.4467 89.9605 16.0378C73.7351 -14.5627 40.2533 10.6487 33.5022 36.6907C33.442 36.9228 33.4136 37.1599 33.4136 37.3997V61.5887V74.3347C33.4136 75.3444 33.9287 76.2954 34.81 76.7881C39.3564 79.3299 42.4958 79.3265 47.4775 76.7721C48.4166 76.2906 48.9811 75.3053 48.9811 74.2499V53.8036V37.771C48.9811 37.2901 49.1016 36.8112 49.3295 36.3878C56.9292 22.267 63.3056 15.4141 73.9896 18.438C75.1666 18.7711 75.9248 19.8867 75.9248 21.1099V36.4399V52.0916C75.9248 53.1494 76.4934 54.1338 77.4273 54.6306C82.1032 57.1185 84.1419 57.1971 88.8304 54.6357Z" fill="#28434D"/>
<path d="M13.0561 73.5623L42.3948 89.7286M13.0561 73.5623L33.4136 61.5887M13.0561 73.5623C12.1311 79.1371 11.6433 82.3049 9.46359 86.1368C6.29281 91.4896 5.57747 94.2023 5.8416 98.2986C5.85925 98.5724 5.84359 98.8446 5.78918 99.1135C4.78806 104.061 1.89707 119.385 2.27851 123.26C2.60428 132.895 3.15993 136.849 5.01611 139.131C5.18016 139.332 5.37252 139.489 5.59279 139.627C8.34172 141.35 28.1632 153.76 41.1967 161.58M42.3948 89.7286L107.06 53.8036M42.3948 89.7286C42.8872 97.0801 42.3331 101.384 39.4011 109.489C30.0792 137.657 29.8429 150.022 41.1967 161.58M107.06 53.8036L90.2948 43.6249M107.06 53.8036C109.287 56.8361 109.211 59.682 108.893 64.6153C108.869 64.9886 108.914 65.3656 109.038 65.7186C110.436 69.7066 112.344 71.9584 116.377 75.2608C116.929 75.7132 117.308 76.3453 117.427 77.0493C119.296 88.0815 119.105 94.1285 117.239 104.1C114.848 114.549 113 122.027 109.158 126.511C108.961 126.741 108.764 126.906 108.502 127.056C103.292 130.053 42.3436 165.019 41.1967 161.58M90.2948 43.6249V52.1228C90.2948 53.1639 89.7441 54.1365 88.8304 54.6357C84.1419 57.1971 82.1033 57.1185 77.4273 54.6306C76.4934 54.1338 75.9248 53.1494 75.9248 52.0916V36.4399M90.2948 43.6249V17.3852C90.2948 16.9224 90.1773 16.4467 89.9605 16.0378C73.7351 -14.5627 40.2533 10.6487 33.5022 36.6907C33.442 36.9228 33.4136 37.1599 33.4136 37.3997V61.5887M33.4136 61.5887V74.3347C33.4136 75.3444 33.9287 76.2954 34.81 76.7881C39.3564 79.3299 42.4958 79.3265 47.4775 76.7721C48.4166 76.2906 48.9811 75.3053 48.9811 74.2499V53.8036M48.9811 53.8036V37.771C48.9811 37.2901 49.1016 36.8112 49.3295 36.3878C56.9292 22.267 63.3056 15.4141 73.9896 18.438C75.1666 18.7711 75.9248 19.8867 75.9248 21.1099V36.4399M48.9811 53.8036L75.9248 36.4399M77.7205 126.852C67.1417 133.158 56.6539 128.211 56.9367 113.081C57.1767 104.92 63.2984 93.7816 75.3255 86.7363C89.3773 80.7981 94.1578 84.6161 92.7362 102.304C92.1508 112.24 86.5282 120.127 77.7205 126.852ZM75.1604 114.141V114.141C73.7105 116.151 70.5355 115.125 70.5355 112.647V102.588C70.5355 102.012 70.7032 101.446 71.0308 100.972C73.4459 97.4791 75.3114 96.1149 79.2211 97.9249C80.1683 98.3634 80.7142 99.3533 80.7142 100.397V110.148C80.7142 111.768 79.4011 113.081 77.7812 113.081H77.2315C76.411 113.081 75.6404 113.476 75.1604 114.141Z" stroke="#70B8D5" stroke-width="4" stroke-linecap="round"/>
</svg>
