<svg width="92" height="92" viewBox="0 0 92 92" fill="none" xmlns="http://www.w3.org/2000/svg">
<path d="M39.6893 48.9108L29.6863 43.399C29.3709 45.2997 29.2046 46.3797 28.4614 47.6862C27.3804 49.5112 27.1365 50.4361 27.2265 51.8327C27.2326 51.9261 27.2272 52.0189 27.2087 52.1106C26.8673 53.7974 25.8817 59.022 26.0117 60.3432C26.1228 63.6284 26.3122 64.9763 26.9451 65.7543C27.001 65.823 27.0666 65.8765 27.1417 65.9236C28.079 66.5109 34.837 70.7421 39.2808 73.4083C35.4097 69.4676 35.4903 65.252 38.6685 55.648C39.6682 52.8848 39.8571 51.4173 39.6893 48.9108Z" fill="#FEFACC"/>
<path fill-rule="evenodd" clip-rule="evenodd" d="M61.7366 36.6623L39.6893 48.9108C39.8571 51.4173 39.6682 52.8848 38.6685 55.648C35.4903 65.252 35.4097 69.4676 39.2808 73.4083C39.6718 74.5808 60.452 62.6592 62.2283 61.6376C62.3176 61.5862 62.3848 61.5299 62.4519 61.4517C63.7619 59.9227 64.3921 57.3731 65.207 53.8107C65.8435 50.411 65.9086 48.3492 65.2714 44.5879C65.2307 44.3478 65.1015 44.1323 64.9131 43.978C63.5381 42.8521 62.8877 42.0844 62.411 40.7247C62.3689 40.6043 62.3534 40.4758 62.3616 40.3485C62.4699 38.6665 62.496 37.6962 61.7366 36.6623ZM44.6473 56.8728C44.5509 62.0314 48.1266 63.7181 51.7334 61.5681C54.7364 59.275 56.6534 56.5859 56.853 53.1983C57.3377 47.1677 55.7078 45.866 50.9169 47.8906C46.8163 50.2927 44.7291 54.0901 44.6473 56.8728Z" fill="#FEFACC"/>
<path fill-rule="evenodd" clip-rule="evenodd" d="M51.7334 61.5681C48.1266 63.7181 44.5509 62.0314 44.6473 56.8728C44.7291 54.0901 46.8163 50.2927 50.9169 47.8906C55.7078 45.866 57.3377 47.1677 56.853 53.1983C56.6534 56.5859 54.7364 59.275 51.7334 61.5681ZM52.2451 51.7053C52.568 51.8548 52.7541 52.1923 52.7541 52.5482V55.8728C52.7541 56.4251 52.3064 56.8728 51.7541 56.8728H51.5667C51.287 56.8728 51.0242 57.0073 50.8606 57.2341C50.3662 57.9194 49.2837 57.5697 49.2837 56.7248V53.2953C49.2837 53.0989 49.3409 52.9058 49.4526 52.7442C50.276 51.5533 50.9121 51.0882 52.2451 51.7053Z" fill="#FEFACC"/>
<path d="M51.7541 56.8728C52.3064 56.8728 52.7541 56.4251 52.7541 55.8728V52.5482C52.7541 52.1923 52.568 51.8548 52.2451 51.7053C50.9121 51.0882 50.276 51.5533 49.4526 52.7442C49.3409 52.9058 49.2837 53.0989 49.2837 53.2953V56.7248C49.2837 57.5697 50.3662 57.9194 50.8606 57.2341C51.0242 57.0073 51.287 56.8728 51.5667 56.8728H51.7541Z" fill="#FEFACC"/>
<path d="M29.6863 43.399L39.6893 48.9108L61.7366 36.6623L56.0206 33.1919V36.0892C56.0206 36.4442 55.8328 36.7758 55.5213 36.946C53.9228 37.8193 53.2277 37.7925 51.6335 36.9443C51.3151 36.7749 51.1212 36.4393 51.1212 36.0786V30.7422L41.9348 36.6623V43.6334C41.9348 43.9932 41.7424 44.3291 41.4222 44.4933C39.7237 45.3642 38.6533 45.3654 37.1032 44.4988C36.8028 44.3308 36.6271 44.0065 36.6271 43.6623V39.3166L29.6863 43.399Z" fill="#FEFACC"/>
<path d="M55.5213 36.946C55.8328 36.7758 56.0206 36.4442 56.0206 36.0892V33.1919V24.2455C56.0206 24.0877 55.9805 23.9256 55.9066 23.7862C50.3746 13.353 38.9591 21.9488 36.6573 30.8277C36.6368 30.9068 36.6271 30.9877 36.6271 31.0694V39.3166V43.6623C36.6271 44.0065 36.8028 44.3308 37.1032 44.4988C38.6533 45.3654 39.7237 45.3642 41.4222 44.4933C41.7424 44.3291 41.9348 43.9932 41.9348 43.6334V36.6623V31.196C41.9348 31.0321 41.9759 30.8688 42.0536 30.7244C44.6447 25.91 46.8187 23.5735 50.4614 24.6045C50.8627 24.718 51.1212 25.0984 51.1212 25.5155V30.7422V36.0786C51.1212 36.4393 51.3151 36.7749 51.6335 36.9443C53.2277 37.7925 53.9228 37.8193 55.5213 36.946Z" fill="#FEFACC"/>
<path d="M29.6863 43.399L39.6893 48.9108M29.6863 43.399L36.6271 39.3166M29.6863 43.399C29.3709 45.2997 29.2046 46.3797 28.4614 47.6862C27.3804 49.5112 27.1365 50.4361 27.2265 51.8327C27.2326 51.9261 27.2272 52.0189 27.2087 52.1106C26.8673 53.7974 25.8817 59.022 26.0117 60.3432C26.1228 63.6284 26.3122 64.9763 26.9451 65.7543C27.001 65.823 27.0666 65.8765 27.1417 65.9236C28.079 66.5109 34.837 70.7421 39.2808 73.4083M39.6893 48.9108L61.7366 36.6623M39.6893 48.9108C39.8571 51.4173 39.6682 52.8848 38.6685 55.648C35.4903 65.252 35.4097 69.4676 39.2808 73.4083M61.7366 36.6623L56.0206 33.1919M61.7366 36.6623C62.496 37.6962 62.4699 38.6665 62.3616 40.3485C62.3534 40.4758 62.3689 40.6043 62.411 40.7247C62.8877 42.0844 63.5381 42.8521 64.9131 43.978C65.1015 44.1323 65.2307 44.3478 65.2714 44.5879C65.9086 48.3492 65.8435 50.411 65.207 53.8107C64.3921 57.3731 63.7619 59.9227 62.4519 61.4517C62.3849 61.5299 62.3176 61.5862 62.2283 61.6376C60.452 62.6592 39.6718 74.5808 39.2808 73.4083M56.0206 33.1919V36.0892C56.0206 36.4442 55.8328 36.7758 55.5213 36.946C53.9228 37.8193 53.2277 37.7925 51.6335 36.9443C51.3151 36.7749 51.1212 36.4393 51.1212 36.0786V30.7422M56.0206 33.1919V24.2455C56.0206 24.0877 55.9805 23.9256 55.9066 23.7862C50.3746 13.353 38.9591 21.9488 36.6573 30.8277C36.6368 30.9068 36.6271 30.9877 36.6271 31.0694V39.3166M36.6271 39.3166V43.6623C36.6271 44.0066 36.8028 44.3308 37.1032 44.4988C38.6533 45.3654 39.7237 45.3642 41.4222 44.4933C41.7424 44.3291 41.9348 43.9932 41.9348 43.6334V36.6623M41.9348 36.6623V31.196C41.9348 31.0321 41.9759 30.8688 42.0536 30.7244C44.6447 25.91 46.8187 23.5735 50.4614 24.6045C50.8627 24.718 51.1212 25.0984 51.1212 25.5155V30.7422M41.9348 36.6623L51.1212 30.7422M51.7334 61.5681C48.1266 63.7181 44.5509 62.0314 44.6473 56.8728C44.7291 54.0901 46.8163 50.2927 50.9169 47.8906C55.7078 45.866 57.3377 47.1677 56.853 53.1983C56.6534 56.5859 54.7364 59.275 51.7334 61.5681ZM50.8606 57.2341V57.2341C50.3662 57.9194 49.2837 57.5697 49.2837 56.7248V53.2953C49.2837 53.0989 49.3409 52.9058 49.4526 52.7442C50.276 51.5533 50.9121 51.0882 52.2451 51.7053C52.568 51.8548 52.7541 52.1923 52.7541 52.5482V55.8728C52.7541 56.4251 52.3064 56.8728 51.7541 56.8728H51.5667C51.287 56.8728 51.0242 57.0073 50.8606 57.2341Z" stroke="#D3C756" stroke-width="1.5" stroke-linecap="round"/>
</svg>
