<svg width="92" height="92" viewBox="0 0 92 92" fill="none" xmlns="http://www.w3.org/2000/svg">
<g filter="url(#filter0_d_2620_19294)">
<path d="M16 60.5V39.7857L30.5691 41.312V61.8083C28.2058 62.3936 26.8605 62.2061 24.4347 61.1541L16 60.5Z" fill="#FEFACC"/>
<path d="M16 60.5L24.4347 61.1541C26.8605 62.2061 28.2058 62.3936 30.5691 61.8083C29.9739 62.4263 29.197 62.7589 26.8457 63.3346C25.3171 63.7225 24.9876 64.1653 25.3122 65.297C25.5139 65.9709 25.563 68.2864 25.3122 68.7857C17.8435 64.4255 16.4923 61.4188 16 60.5Z" fill="white"/>
<path d="M74.606 57.4474C74.8554 57.1402 74.9801 56.8187 74.9978 56.4662V60.718C74.7862 62.3022 69.8052 64.1521 62.4468 67.1504C59.7434 68.7523 58.2267 69.6298 55.5457 70.4211C54.8304 70.6253 55.8946 70.5146 50.2877 70.6391C48.7162 70.6586 47.8325 70.7783 46.2346 71.9474C43.0312 73.874 41.1991 74.6625 37.7999 75C29.1461 75 20.7114 72.2744 16 65.297V60.5C16.4923 61.4188 17.8435 64.4255 25.3122 68.7857C30.6801 71.9289 33.4314 70.9849 37.7999 71.1842C41.4503 70.8374 43.1925 69.8115 46.2346 67.8045C47.8325 66.6355 48.7162 66.5157 50.2877 66.4962C55.8946 66.3717 54.8304 66.4824 55.5457 66.2782C58.2267 65.4869 59.7434 64.6095 62.4468 63.0075C68.3621 60.8271 71.1315 59.9892 74.606 57.4474Z" fill="#FEFACC"/>
<path d="M26.8457 63.3346C29.197 62.7589 29.9739 62.4263 30.5691 61.8083L31.5254 61.4812L28.4889 65.0789C27.96 66.6111 28.71 67.0768 30.8988 67.5865C33.3516 68.3 34.9228 69.3187 37.6296 71.0738L37.7999 71.1842C33.4314 70.9849 30.6801 71.9289 25.3122 68.7857C25.563 68.2864 25.5139 65.9709 25.3122 65.297C24.9876 64.1653 25.3171 63.7225 26.8457 63.3346Z" fill="#FEFACC"/>
<path fill-rule="evenodd" clip-rule="evenodd" d="M34.0755 60.609C35.169 59.7359 35.5691 59.2295 36.1568 58.3195C37.0622 57.8894 37.5621 57.4134 38.3066 56.6316C38.3885 56.5455 38.4735 56.4557 38.5623 56.3618L38.5667 56.3571C38.9094 56.1867 39.3602 56.0972 39.8812 56.0315C41.1446 55.8721 42.8213 55.8526 44.3724 55.1579C46.0237 54.6443 46.7027 53.55 48.4248 52.9693C48.5304 52.9336 48.6401 52.8999 48.7541 52.8684C48.9038 52.8246 49.0498 52.7807 49.1922 52.7365C51.1692 52.1225 52.4646 51.4521 53.4644 50.4038C53.698 50.1589 53.8059 49.8933 54.0121 49.603L54.0354 49.5701C54.425 49.0219 54.8768 48.386 55.217 47.6353C55.2153 47.5255 55.2356 47.4169 55.2782 47.3083C55.5077 46.723 56.3848 46.1374 57.9556 45.3461C58.3197 45.1627 58.7212 44.9682 59.1605 44.76C60.9132 46.109 60.8037 47.6353 62.4468 48.7256C65.4044 51.6692 69.1288 50.5789 71.3197 54.1767L74.606 57.4474C71.1315 59.9892 68.3621 60.8271 62.4468 63.0075C59.7434 64.6095 58.2267 65.4869 55.5457 66.2782C54.8304 66.4824 55.8946 66.3717 50.2877 66.4962C48.7162 66.5157 47.8325 66.6355 46.2346 67.8045C43.1925 69.8115 41.4503 70.8374 37.7999 71.1842L37.6296 71.0738C34.9228 69.3187 33.3516 68.3 30.8988 67.5865C28.71 67.0768 27.96 66.6111 28.4889 65.0789L31.5254 61.4812L32.4817 61.1541L34.0755 60.609ZM51.6022 53.9586C53.4908 53.6192 54.4986 53.4084 55.1622 53.1508C55.4133 53.0532 55.5849 52.8297 55.6773 52.5766C56.117 51.3719 56.8015 50.7056 57.8702 50.6635C58.4534 50.6405 58.7921 51.2968 58.3875 51.7175C57.8736 52.252 57.1501 52.5466 56.3105 53.3153C56.1663 53.4473 55.9907 53.5405 55.8026 53.5939C54.5479 53.9503 53.08 54.9398 52.3689 54.9398C51.2078 54.7374 50.8354 54.0965 51.6022 53.9586ZM43.057 64.3158C41.8959 64.1134 43.5891 61.5996 44.1525 62.1354C45.0315 62.9715 47.3151 61.7687 48.2064 61.0461C49.6047 61.0275 50.8502 60.9351 51.2769 60.5635C51.2944 60.5483 51.312 60.5327 51.3242 60.5131C51.4077 60.3789 51.6483 59.7951 51.7018 59.6551C51.7088 59.6368 51.712 59.6177 51.7126 59.5981C51.7744 57.5463 58.0943 54.2827 60.2453 54.993C60.3664 55.033 61.0731 55.2596 61.0219 55.376C60.5298 56.4934 52.8475 58.8763 52.8074 60.5165C52.8059 60.575 52.7821 60.6308 52.7379 60.6694C52.4442 60.9264 51.3095 61.9091 51.2727 61.9173C49.9729 62.2072 43.8114 64.3158 43.057 64.3158ZM59.4892 60.0639C61.6287 59.6794 62.256 59.08 62.8641 58.7199C62.9494 58.6693 63.0312 58.6102 63.1013 58.54C64.3637 57.2769 64.8171 56.7152 65.7615 56.7272C66.3451 56.7347 66.6791 57.402 66.2745 57.8228C65.7606 58.3572 65.0371 58.6519 64.1975 59.4205C64.0533 59.5526 63.8777 59.6458 63.6896 59.6992C62.4349 60.0556 60.967 61.0451 60.2559 61.0451C59.0948 60.8427 58.7224 60.2017 59.4892 60.0639Z" fill="white"/>
<path d="M61.0893 42.8383L64.5281 45.6729C65.7455 47.2064 66.4938 47.9656 68.3621 48.5075C70.7154 49.8468 72.2555 50.5375 72.9629 52.3233C74.2342 54.2121 75.048 55.4645 74.9978 56.4662C74.9801 56.8187 74.8554 57.1402 74.606 57.4474L71.3197 54.1767C69.1288 50.5789 65.4044 51.6692 62.4468 48.7256C60.8037 47.6353 60.9132 46.109 59.1605 44.76C59.5663 44.5678 60.6185 43.0558 61.0893 42.8383Z" fill="#FEFACC"/>
<path d="M44.1525 62.1354C43.5891 61.5996 41.8959 64.1134 43.057 64.3158C43.8114 64.3158 49.9729 62.2072 51.2727 61.9173C51.3095 61.9091 52.4442 60.9264 52.7379 60.6694C52.7821 60.6308 52.8059 60.575 52.8074 60.5165C52.8475 58.8763 60.5298 56.4934 61.0219 55.376C61.0731 55.2596 60.3664 55.033 60.2453 54.993C58.0943 54.2827 51.7744 57.5463 51.7126 59.5981C51.712 59.6177 51.7088 59.6368 51.7018 59.6551C51.6483 59.7951 51.4077 60.3789 51.3242 60.5131C51.312 60.5327 51.2944 60.5483 51.2769 60.5635C50.8502 60.9351 49.6047 61.0275 48.2064 61.0461C47.3151 61.7687 45.0315 62.9715 44.1525 62.1354Z" fill="#FEFACC"/>
<path d="M55.6773 52.5766C55.5849 52.8297 55.4133 53.0532 55.1622 53.1508C54.4986 53.4084 53.4908 53.6192 51.6022 53.9586C50.8354 54.0965 51.2078 54.7374 52.3689 54.9398C53.08 54.9398 54.5479 53.9503 55.8026 53.5939C55.9907 53.5405 56.1663 53.4473 56.3105 53.3153C57.1501 52.5466 57.8736 52.252 58.3875 51.7175C58.7921 51.2968 58.4534 50.6405 57.8702 50.6635C56.8015 50.7056 56.117 51.3719 55.6773 52.5766Z" fill="#FEFACC"/>
<path d="M63.1013 58.54C63.0312 58.6102 62.9494 58.6693 62.8641 58.7199C62.256 59.08 61.6287 59.6794 59.4892 60.0639C58.7224 60.2017 59.0948 60.8427 60.2559 61.0451C60.967 61.0451 62.4349 60.0556 63.6896 59.6992C63.8777 59.6458 64.0533 59.5526 64.1975 59.4205C65.0371 58.6519 65.7606 58.3572 66.2745 57.8228C66.6791 57.402 66.3451 56.7347 65.7615 56.7272C64.8171 56.7152 64.3637 57.2769 63.1013 58.54Z" fill="#FEFACC"/>
<path d="M44.3724 55.1579C42.8213 55.8526 41.1446 55.8721 39.8812 56.0315C39.8247 50.1024 39.7591 46.2016 39.9397 41.8311C39.9794 40.8678 40.7718 40.7518 40.9481 41.6997C41.373 43.9836 41.757 47.2227 42.2911 50.5789C42.6748 52.3129 42.8525 52.5726 43.0579 50.5789L43.1674 38.2594C43.3332 36.5796 43.4606 36.7467 43.7152 38.2594L45.1392 49.0526C45.426 51.2844 45.5564 51.56 45.6869 49.0526C45.7397 43.3001 45.7822 40.0747 45.3583 34.3289C45.431 34.2954 45.504 34.261 45.5774 34.2256C45.9053 33.8688 46.3022 33.5654 46.7823 33.2853L48.4248 52.9693C46.7027 53.55 46.0237 54.6443 44.3724 55.1579Z" fill="white"/>
<path d="M48.9053 32.3217C49.6494 32.0378 50.5063 31.7395 51.4926 31.391L53.4644 50.4038C52.4646 51.4521 51.1692 52.1225 49.1922 52.7365L48.9053 32.3217Z" fill="white"/>
<path d="M30.5691 61.8083V41.312L31.6656 40.985C32.9897 43.8497 33.7635 45.7969 34.9478 47.0859C34.949 47.0872 34.9511 47.0861 34.9507 47.0844C34.6444 45.4339 34.4161 44.204 34.4409 43.1354C34.461 42.2724 35.4287 42.2818 35.9276 42.9862C36.2999 43.512 36.6136 43.5661 36.944 43.1587C37.5899 42.3621 38.8372 42.374 38.9641 43.3917C39.4055 46.9337 39.5447 50.8524 39.8812 56.0315C39.3602 56.0972 38.9094 56.1867 38.5667 56.3571L38.5623 56.3618C38.4735 56.4557 38.3885 56.5455 38.3066 56.6316C38.2969 54.6843 38.0832 53.5084 37.7999 51.4511C37.6904 50.3609 36.7045 49.7068 36.7045 51.4511V55.594C36.4854 56.9023 35.9377 56.9023 35.8282 55.812L35.4995 50.906C35.4995 49.8158 34.4041 49.7068 34.4041 50.906C34.4141 54.1106 34.5193 56.4027 34.0755 57.3383C33.3577 58.8572 32.9619 59.7069 32.4817 61.1541L31.5254 61.4812L30.5691 61.8083Z" fill="white"/>
<path d="M36.1568 58.3195C35.5691 59.2295 35.169 59.7359 34.0755 60.609L32.4817 61.1541C32.9619 59.7069 33.3577 58.8572 34.0755 57.3383C34.5193 56.4027 34.4141 54.1106 34.4041 50.906C34.4041 49.7068 35.4995 49.8158 35.4995 50.906L35.8282 55.812C35.9377 56.9023 36.4854 56.9023 36.7045 55.594V51.4511C36.7045 49.7068 37.6904 50.3609 37.7999 51.4511C38.0832 53.5084 38.2969 54.6843 38.3066 56.6316C37.5621 57.4134 37.0622 57.8894 36.1568 58.3195Z" fill="#FEFACC"/>
<path d="M36.9236 37.2782C37.7334 36.277 38.2249 35.9742 39.1144 35.5338C42.5601 35.2797 43.9277 34.9872 45.3583 34.3289C45.7822 40.0747 45.7397 43.3001 45.6869 49.0526C45.5564 51.56 45.426 51.2844 45.1392 49.0526L43.7152 38.2594C43.4606 36.7467 43.3332 36.5796 43.1674 38.2594L43.0579 50.5789C42.8525 52.5726 42.6748 52.3129 42.2911 50.5789C41.757 47.2227 41.373 43.9836 40.9481 41.6997C40.7718 40.7518 39.9794 40.8678 39.9397 41.8311C39.7591 46.2016 39.8247 50.1024 39.8812 56.0315C39.5447 50.8524 39.4055 46.9337 38.9641 43.3917C38.8372 42.374 37.5899 42.3621 36.944 43.1587C36.6136 43.5661 36.2999 43.512 35.9276 42.9862C35.4287 42.2818 34.461 42.2724 34.4409 43.1354C34.4161 44.204 34.6444 45.4339 34.9507 47.0844C34.9511 47.0861 34.949 47.0872 34.9478 47.0859C33.7635 45.7969 32.9897 43.8497 31.6656 40.985C33.985 40.3298 34.5809 39.7673 35.39 38.6955C35.832 38.0645 36.1466 37.7397 36.9236 37.2782Z" fill="#FEFACC"/>
<path d="M46.7823 33.2853C47.361 32.9477 48.0605 32.644 48.9053 32.3217L49.1922 52.7365C49.0498 52.7807 48.9038 52.8246 48.7541 52.8684C48.6401 52.8999 48.5304 52.9336 48.4248 52.9693L46.7823 33.2853Z" fill="#FEFACC"/>
<path d="M54.7789 28.3383C55.091 26.903 55.3468 26.1788 56.422 25.5038L57.0792 25.2031C58.0006 32.3253 58.0233 36.9527 57.9556 45.3461C56.3848 46.1374 55.5077 46.723 55.2782 47.3083L53.9025 32.1541C53.6786 30.8405 53.6257 30.906 53.5995 32.0451L54.0121 49.603C53.8059 49.8933 53.698 50.1589 53.4644 50.4038L51.4926 31.391C53.1007 30.4517 53.8234 29.7945 54.7789 28.3383Z" fill="#FEFACC"/>
<path d="M60.4739 23.6504C60.7983 23.3722 61.0451 23.0524 61.0893 22.6866V42.8383C60.6185 43.0558 59.5663 44.5678 59.1605 44.76C58.7212 44.9682 58.3197 45.1627 57.9556 45.3461C58.0233 36.9527 58.0006 32.3253 57.0792 25.2031L60.4739 23.6504Z" fill="white"/>
<path d="M55.2782 47.3083C55.2356 47.4169 55.2153 47.5255 55.217 47.6353C54.8768 48.386 54.425 49.0219 54.0354 49.5701L54.0121 49.603L53.5995 32.0451C53.6257 30.906 53.6786 30.8405 53.9025 32.1541L55.2782 47.3083Z" fill="white"/>
<path fill-rule="evenodd" clip-rule="evenodd" d="M30.5691 41.312C29.4727 40.5405 27.8974 39.9999 24.1061 38.9135C23.1765 37.9843 22.2921 37.6651 20.0531 37.4503L51.8212 19.1454C54.1206 19.6252 55.1207 19.9993 55.8743 21.0338C57.5776 22.7608 58.6044 23.1762 60.4739 23.6504L57.0792 25.2031L56.422 25.5038C55.3468 26.1788 55.091 26.903 54.7789 28.3383C53.8234 29.7945 53.1007 30.4517 51.4926 31.391C50.5063 31.7395 49.6494 32.0378 48.9053 32.3217C48.0605 32.644 47.361 32.9477 46.7823 33.2853C46.3022 33.5654 45.9053 33.8688 45.5774 34.2256C45.504 34.261 45.431 34.2954 45.3583 34.3289C43.9277 34.9872 42.5601 35.2797 39.1144 35.5338C38.2249 35.9742 37.7334 36.277 36.9236 37.2782C36.1466 37.7397 35.832 38.0645 35.39 38.6955C34.5809 39.7673 33.985 40.3298 31.6656 40.985L30.5691 41.312ZM29.6938 35.8609C31.8927 35.4657 31.8021 35.0268 32.46 34.7034C32.5129 34.6774 33.4276 34.4112 33.445 34.3551C33.9744 32.642 35.1317 32.2964 36.8021 32.645C36.927 32.6711 36.9983 32.8026 36.9471 32.919C36.4459 34.0571 35.4507 34.1875 34.2323 35.3781C34.2017 35.4081 34.1629 35.4291 34.121 35.4384C32.8212 35.7283 31.215 36.8421 30.4606 36.8421C29.2994 36.6397 28.927 35.9987 29.6938 35.8609ZM45.2479 29.4286C44.0867 29.2262 44.9036 27.8026 45.467 28.3383C46.346 29.1744 47.3151 29.0619 48.2064 28.3393C49.5075 28.322 50.6763 28.2408 51.1763 27.9303C51.2661 27.8745 51.3361 27.7914 51.3821 27.6962C51.4669 27.5206 51.5932 27.2192 51.6625 27.0476C51.6962 26.9639 51.713 26.875 51.7159 26.7848C51.7815 24.7874 51.9973 23.3327 54.1109 24.0305C54.2321 24.0705 54.5006 24.7333 54.4494 24.8496C53.9922 25.8879 53.0018 26.1362 52.8314 27.4817C52.7976 27.7488 52.6928 28.0024 52.4895 28.1789C52.049 28.561 51.3024 29.2039 51.2727 29.2105C49.9729 29.5004 46.0022 29.4286 45.2479 29.4286Z" fill="white"/>
<path d="M45.467 28.3383C44.9036 27.8026 44.0867 29.2262 45.2479 29.4286C46.0022 29.4286 49.9729 29.5004 51.2727 29.2105C51.3024 29.2039 52.049 28.561 52.4895 28.1789C52.6928 28.0024 52.7976 27.7488 52.8314 27.4817C53.0018 26.1362 53.9922 25.8879 54.4494 24.8496C54.5006 24.7333 54.2321 24.0705 54.1109 24.0305C51.9973 23.3327 51.7815 24.7874 51.7159 26.7848C51.713 26.875 51.6962 26.9639 51.6625 27.0476C51.5932 27.2192 51.4669 27.5206 51.3821 27.6962C51.3361 27.7914 51.2661 27.8745 51.1763 27.9303C50.6763 28.2408 49.5075 28.322 48.2064 28.3393C47.3151 29.0619 46.346 29.1744 45.467 28.3383Z" fill="#FEFACC"/>
<path d="M32.46 34.7034C31.8021 35.0268 31.8927 35.4657 29.6938 35.8609C28.927 35.9987 29.2994 36.6397 30.4606 36.8421C31.215 36.8421 32.8212 35.7283 34.121 35.4384C34.1629 35.4291 34.2017 35.4081 34.2323 35.3781C35.4507 34.1875 36.4459 34.0571 36.9471 32.919C36.9983 32.8026 36.927 32.6711 36.8021 32.645C35.1317 32.2964 33.9744 32.642 33.445 34.3551C33.4276 34.4112 32.5129 34.6774 32.46 34.7034Z" fill="#FEFACC"/>
<path d="M30.5691 41.312L16 39.7857L20.0531 37.4503C22.2921 37.6651 23.1765 37.9843 24.1061 38.9135C27.8974 39.9999 29.4727 40.5405 30.5691 41.312Z" fill="white"/>
<path d="M55.5445 17C56.0821 17.9367 56.4455 18.3928 57.4068 18.8534C59.4892 21.0338 60.0352 20.7628 60.8037 21.797C60.9759 22.0287 61.0649 22.2465 61.0893 22.4511V22.6866C61.0451 23.0524 60.7983 23.3722 60.4739 23.6504C58.6044 23.1762 57.5776 22.7608 55.8743 21.0338C55.1207 19.9993 54.1206 19.6252 51.8212 19.1454L55.5445 17Z" fill="white"/>
<path d="M16 60.5V39.7857M16 60.5L24.4347 61.1541C26.8605 62.2061 28.2058 62.3936 30.5691 61.8083M16 60.5C16.4923 61.4188 17.8435 64.4255 25.3122 68.7857M16 60.5V65.297C20.7114 72.2744 29.1461 75 37.7999 75C41.1991 74.6625 43.0312 73.874 46.2346 71.9474C47.8325 70.7783 48.7162 70.6586 50.2877 70.6391C55.8946 70.5146 54.8304 70.6253 55.5457 70.4211C58.2267 69.6298 59.7434 68.7523 62.4468 67.1504C69.8052 64.1521 74.7862 62.3022 74.9978 60.718V56.4662M16 39.7857L30.5691 41.312M16 39.7857L20.0531 37.4503M30.5691 41.312V61.8083M30.5691 41.312C29.4727 40.5405 27.8974 39.9999 24.1061 38.9135C23.1765 37.9843 22.2921 37.6651 20.0531 37.4503M30.5691 41.312L31.6656 40.985M30.5691 61.8083C29.9739 62.4263 29.197 62.7589 26.8457 63.3346C25.3171 63.7225 24.9876 64.1653 25.3122 65.297C25.5139 65.9709 25.563 68.2864 25.3122 68.7857M30.5691 61.8083L31.5254 61.4812M20.0531 37.4503L51.8212 19.1454M60.4739 23.6504C58.6044 23.1762 57.5776 22.7608 55.8743 21.0338C55.1207 19.9993 54.1206 19.6252 51.8212 19.1454M60.4739 23.6504L57.0792 25.2031M60.4739 23.6504C60.7983 23.3722 61.0451 23.0524 61.0893 22.6866M61.0893 22.4511C61.0649 22.2465 60.9759 22.0287 60.8037 21.797C60.0352 20.7628 59.4892 21.0338 57.4068 18.8534C56.4455 18.3928 56.0821 17.9367 55.5445 17L51.8212 19.1454M61.0893 22.4511V22.6866M61.0893 22.4511C61.0989 22.5317 61.0985 22.6101 61.0893 22.6866M61.0893 42.8383L64.5281 45.6729C65.7455 47.2064 66.4938 47.9656 68.3621 48.5075C70.7154 49.8468 72.2555 50.5375 72.9629 52.3233C74.2342 54.2121 75.048 55.4645 74.9978 56.4662M61.0893 42.8383C60.6185 43.0558 59.5663 44.5678 59.1605 44.76M61.0893 42.8383V22.6866M74.606 57.4474C74.8554 57.1402 74.9801 56.8187 74.9978 56.4662M74.606 57.4474C71.1315 59.9892 68.3621 60.8271 62.4468 63.0075C59.7434 64.6095 58.2267 65.4869 55.5457 66.2782C54.8304 66.4824 55.8946 66.3717 50.2877 66.4962C48.7162 66.5157 47.8325 66.6355 46.2346 67.8045C43.1925 69.8115 41.4503 70.8374 37.7999 71.1842M74.606 57.4474L71.3197 54.1767C69.1288 50.5789 65.4044 51.6692 62.4468 48.7256C60.8037 47.6353 60.9132 46.109 59.1605 44.76M25.3122 68.7857C30.6801 71.9289 33.4314 70.9849 37.7999 71.1842M51.4926 31.391C53.1007 30.4517 53.8234 29.7945 54.7789 28.3383C55.091 26.903 55.3468 26.1788 56.422 25.5038L57.0792 25.2031M51.4926 31.391C50.5063 31.7395 49.6494 32.0378 48.9053 32.3217M51.4926 31.391L53.4644 50.4038M31.6656 40.985C33.985 40.3298 34.5809 39.7673 35.39 38.6955C35.832 38.0645 36.1466 37.7397 36.9236 37.2782C37.7334 36.277 38.2249 35.9742 39.1144 35.5338C42.5601 35.2797 43.9277 34.9872 45.3583 34.3289M31.6656 40.985C32.9897 43.8497 33.7635 45.7969 34.9478 47.0859C34.949 47.0872 34.9511 47.0861 34.9507 47.0844V47.0844C34.6444 45.4339 34.4161 44.204 34.4409 43.1354C34.461 42.2724 35.4287 42.2818 35.9276 42.9862C36.2999 43.512 36.6136 43.5661 36.944 43.1587C37.5899 42.3621 38.8372 42.374 38.9641 43.3917C39.4055 46.9337 39.5447 50.8524 39.8812 56.0315M38.5667 56.3571C38.9094 56.1867 39.3602 56.0972 39.8812 56.0315M38.5667 56.3571L38.5623 56.3618M38.5667 56.3571C38.5652 56.3587 38.5637 56.3603 38.5623 56.3618M39.8812 56.0315C41.1446 55.8721 42.8213 55.8526 44.3724 55.1579C46.0237 54.6443 46.7027 53.55 48.4248 52.9693M39.8812 56.0315C39.8247 50.1024 39.7591 46.2016 39.9396 41.8311C39.9794 40.8678 40.7718 40.7518 40.9481 41.6997C41.373 43.9836 41.757 47.2227 42.2911 50.5789C42.6748 52.3129 42.8525 52.5726 43.0579 50.5789L43.1674 38.2594C43.3332 36.5796 43.4606 36.7467 43.7152 38.2594L45.1392 49.0526C45.426 51.2844 45.5564 51.56 45.6869 49.0526C45.7397 43.3001 45.7822 40.0747 45.3583 34.3289M45.3583 34.3289C45.431 34.2954 45.504 34.261 45.5774 34.2256C45.9053 33.8688 46.3022 33.5654 46.7823 33.2853M32.4817 61.1541L34.0755 60.609C35.169 59.7359 35.5691 59.2295 36.1568 58.3195C37.0622 57.8894 37.5621 57.4134 38.3066 56.6316M32.4817 61.1541C32.9619 59.7069 33.3577 58.8572 34.0755 57.3383C34.5193 56.4027 34.4141 54.1106 34.4041 50.906C34.4041 49.7068 35.4995 49.8158 35.4995 50.906L35.8282 55.812C35.9377 56.9023 36.4854 56.9023 36.7045 55.594V51.4511C36.7045 49.7068 37.6904 50.3609 37.7999 51.4511C38.0832 53.5084 38.2969 54.6843 38.3066 56.6316M32.4817 61.1541L31.5254 61.4812M38.3066 56.6316C38.3885 56.5455 38.4735 56.4557 38.5623 56.3618M46.7823 33.2853C47.361 32.9477 48.0605 32.644 48.9053 32.3217M46.7823 33.2853L48.4248 52.9693M48.4254 52.9774L48.4248 52.9693M48.9053 32.3217L49.1922 52.7365M49.1922 52.7365C49.0498 52.7807 48.9038 52.8246 48.7541 52.8684C48.6401 52.8999 48.5304 52.9336 48.4248 52.9693M49.1922 52.7365C51.1692 52.1225 52.4646 51.4521 53.4644 50.4038M53.4644 50.4038C53.698 50.1589 53.8059 49.8933 54.0121 49.603M54.0121 49.603L53.5995 32.0451C53.6257 30.906 53.6786 30.8405 53.9025 32.1541L55.2782 47.3083M54.0121 49.603L54.0354 49.5701M54.0121 49.603C54.0198 49.5921 54.0276 49.5811 54.0354 49.5701M55.2782 47.3083C55.2356 47.4169 55.2153 47.5255 55.217 47.6353C54.8768 48.386 54.425 49.0219 54.0354 49.5701M55.2782 47.3083C55.5077 46.723 56.3848 46.1374 57.9556 45.3461M57.9556 45.3461C58.0233 36.9527 58.0006 32.3253 57.0792 25.2031M57.9556 45.3461C58.3197 45.1627 58.7212 44.9682 59.1605 44.76M31.5254 61.4812L28.4889 65.0789C27.96 66.6111 28.71 67.0768 30.8988 67.5865C33.3516 68.3 34.9228 69.3187 37.6296 71.0738M37.7999 71.1842L37.6296 71.0738M37.7999 71.1842C37.7426 71.1471 37.6859 71.1103 37.6296 71.0738M51.6022 53.9586C53.4908 53.6192 54.4986 53.4084 55.1622 53.1508C55.4133 53.0532 55.5849 52.8297 55.6773 52.5766C56.117 51.3719 56.8015 50.7056 57.8702 50.6635C58.4534 50.6405 58.7921 51.2968 58.3875 51.7175C57.8736 52.252 57.1501 52.5466 56.3105 53.3153C56.1663 53.4473 55.9907 53.5405 55.8026 53.5939C54.5479 53.9503 53.08 54.9398 52.3689 54.9398C51.2078 54.7374 50.8354 54.0965 51.6022 53.9586ZM32.46 34.7034C31.8021 35.0268 31.8927 35.4656 29.6938 35.8609C28.927 35.9987 29.2994 36.6397 30.4606 36.8421C31.215 36.8421 32.8212 35.7283 34.121 35.4384C34.1629 35.4291 34.2017 35.4081 34.2323 35.3781C35.4507 34.1875 36.4459 34.0571 36.9471 32.919C36.9983 32.8026 36.927 32.6711 36.8021 32.645C35.1317 32.2964 33.9744 32.642 33.445 34.3551C33.4276 34.4112 32.5129 34.6774 32.46 34.7034ZM45.467 28.3383C44.9036 27.8026 44.0867 29.2262 45.2479 29.4286C46.0022 29.4286 49.9729 29.5004 51.2727 29.2105C51.3024 29.2039 52.049 28.561 52.4895 28.1789C52.6928 28.0024 52.7976 27.7488 52.8314 27.4817C53.0018 26.1362 53.9922 25.8879 54.4494 24.8496C54.5006 24.7333 54.2321 24.0705 54.1109 24.0305C51.9973 23.3327 51.7815 24.7874 51.7159 26.7848C51.713 26.875 51.6962 26.9639 51.6625 27.0476C51.5932 27.2192 51.4669 27.5206 51.3821 27.6962C51.3361 27.7914 51.2661 27.8745 51.1763 27.9303C50.6763 28.2408 49.5075 28.322 48.2064 28.3393C47.3151 29.0619 46.346 29.1744 45.467 28.3383ZM44.1525 62.1354C43.5891 61.5996 41.8959 64.1134 43.057 64.3158C43.8114 64.3158 49.9729 62.2072 51.2727 61.9173C51.3095 61.9091 52.4442 60.9264 52.7379 60.6694C52.7821 60.6308 52.8059 60.575 52.8074 60.5165C52.8475 58.8763 60.5298 56.4934 61.0219 55.376C61.0731 55.2596 60.3664 55.033 60.2453 54.993C58.0943 54.2827 51.7744 57.5463 51.7126 59.5981C51.712 59.6177 51.7088 59.6368 51.7018 59.6551C51.6483 59.7951 51.4077 60.3789 51.3242 60.5131C51.312 60.5327 51.2944 60.5483 51.2769 60.5635C50.8502 60.9351 49.6047 61.0275 48.2064 61.0461C47.3151 61.7687 45.0315 62.9715 44.1525 62.1354ZM59.4892 60.0639C61.6287 59.6794 62.256 59.08 62.8641 58.7199C62.9494 58.6693 63.0312 58.6102 63.1013 58.54C64.3637 57.2769 64.8171 56.7152 65.7615 56.7272C66.3451 56.7347 66.6791 57.402 66.2745 57.8228C65.7606 58.3572 65.0371 58.6519 64.1975 59.4205C64.0533 59.5525 63.8777 59.6458 63.6896 59.6992C62.4349 60.0556 60.967 61.0451 60.2559 61.0451C59.0948 60.8427 58.7224 60.2017 59.4892 60.0639Z" stroke="#333015" stroke-width="1.25"/>
</g>
<defs>
<filter id="filter0_d_2620_19294" x="3.375" y="8.14551" width="84.25" height="83.4795" filterUnits="userSpaceOnUse" color-interpolation-filters="sRGB">
<feFlood flood-opacity="0" result="BackgroundImageFix"/>
<feColorMatrix in="SourceAlpha" type="matrix" values="0 0 0 0 0 0 0 0 0 0 0 0 0 0 0 0 0 0 127 0" result="hardAlpha"/>
<feOffset dy="4"/>
<feGaussianBlur stdDeviation="6"/>
<feComposite in2="hardAlpha" operator="out"/>
<feColorMatrix type="matrix" values="0 0 0 0 0 0 0 0 0 0 0 0 0 0 0 0 0 0 0.25 0"/>
<feBlend mode="normal" in2="BackgroundImageFix" result="effect1_dropShadow_2620_19294"/>
<feBlend mode="normal" in="SourceGraphic" in2="effect1_dropShadow_2620_19294" result="shape"/>
</filter>
</defs>
</svg>
