<svg width="275" height="274" viewBox="0 0 275 274" fill="none" xmlns="http://www.w3.org/2000/svg">
<g filter="url(#filter0_d_2620_19270)">
<path d="M52.4166 173.76V113.874L94.5362 118.287V177.542C87.7039 179.234 83.8146 178.692 76.8017 175.651L52.4166 173.76Z" fill="#FEFACC"/>
<path d="M52.4166 173.76L76.8017 175.651C83.8146 178.692 87.7039 179.234 94.5362 177.542C92.8154 179.329 90.5696 180.29 83.772 181.955C79.3525 183.076 78.3999 184.356 79.3383 187.628C79.9216 189.576 80.0636 196.271 79.3383 197.714C57.7463 185.108 53.8398 176.416 52.4166 173.76Z" fill="white"/>
<path d="M221.848 164.935C222.569 164.046 222.93 163.117 222.981 162.098V174.39C222.369 178.97 207.969 184.318 186.696 192.986C178.88 197.618 174.495 200.154 166.744 202.442C164.676 203.032 167.753 202.712 151.543 203.072C147 203.128 144.445 203.475 139.826 206.854C130.564 212.424 125.268 214.704 115.441 215.68C90.4224 215.68 66.0374 207.8 52.4166 187.628V173.76C53.8398 176.416 57.7463 185.108 79.3383 197.714C94.8572 206.801 102.811 204.072 115.441 204.648C125.994 203.646 131.031 200.68 139.826 194.877C144.445 191.498 147 191.151 151.543 191.095C167.753 190.735 164.676 191.055 166.744 190.465C174.495 188.177 178.88 185.64 186.696 181.009C203.797 174.705 211.803 172.283 221.848 164.935Z" fill="#FEFACC"/>
<path d="M83.772 181.955C90.5696 180.29 92.8154 179.329 94.5362 177.542L97.3009 176.596L88.5223 186.998C86.9934 191.427 89.1616 192.774 95.4894 194.247C102.58 196.31 107.123 199.255 114.948 204.329L115.441 204.648C102.811 204.072 94.8572 206.801 79.3383 197.714C80.0636 196.271 79.9216 189.576 79.3383 187.628C78.3999 184.356 79.3525 183.076 83.772 181.955Z" fill="#FEFACC"/>
<path fill-rule="evenodd" clip-rule="evenodd" d="M104.673 174.075C107.835 171.551 108.992 170.087 110.69 167.456C113.308 166.212 114.753 164.836 116.906 162.576C117.143 162.327 117.388 162.068 117.645 161.796L117.658 161.783C118.648 161.29 119.952 161.031 121.458 160.841C125.11 160.38 129.958 160.324 134.442 158.316C139.216 156.831 141.179 153.667 146.158 151.988C146.463 151.885 146.78 151.788 147.11 151.697C147.542 151.57 147.964 151.443 148.376 151.315C154.092 149.54 157.837 147.602 160.727 144.571C161.402 143.863 161.714 143.096 162.311 142.256L162.378 142.161C163.504 140.576 164.811 138.738 165.794 136.568C165.789 136.25 165.848 135.936 165.971 135.622C166.635 133.93 169.17 132.237 173.711 129.949C174.764 129.419 175.925 128.857 177.195 128.255C182.262 132.155 181.945 136.568 186.696 139.72C195.246 148.23 206.014 145.078 212.347 155.479L221.848 164.935C211.803 172.283 203.797 174.705 186.696 181.009C178.88 185.64 174.495 188.177 166.744 190.465C164.676 191.055 167.753 190.735 151.543 191.095C147 191.151 144.445 191.498 139.826 194.877C131.031 200.68 125.994 203.646 115.441 204.648L114.948 204.329C107.123 199.255 102.58 196.31 95.4894 194.247C89.1616 192.774 86.9934 191.427 88.5223 186.998L97.3009 176.596L100.066 175.651L104.673 174.075ZM155.343 154.849C160.804 153.867 163.717 153.258 165.636 152.513C166.362 152.231 166.858 151.585 167.125 150.853C168.396 147.37 170.375 145.444 173.464 145.322C175.151 145.256 176.13 147.153 174.96 148.369C173.474 149.914 171.383 150.766 168.955 152.988C168.538 153.37 168.031 153.64 167.487 153.794C163.86 154.824 159.616 157.685 157.56 157.685C154.203 157.1 153.127 155.247 155.343 154.849ZM130.639 184.791C127.282 184.206 132.178 176.939 133.806 178.488C136.348 180.905 142.949 177.428 145.526 175.339C149.569 175.285 153.17 175.018 154.403 173.943C154.454 173.9 154.505 173.854 154.54 173.798C154.781 173.41 155.477 171.722 155.631 171.317C155.652 171.264 155.661 171.209 155.663 171.152C155.842 165.221 174.112 155.785 180.331 157.839C180.681 157.954 182.724 158.61 182.576 158.946C181.154 162.177 158.944 169.066 158.828 173.808C158.824 173.977 158.755 174.138 158.627 174.25C157.778 174.993 154.497 177.834 154.391 177.857C150.633 178.695 132.82 184.791 130.639 184.791ZM178.145 172.499C184.33 171.387 186.144 169.655 187.902 168.613C188.149 168.467 188.385 168.296 188.588 168.093C192.237 164.442 193.548 162.818 196.279 162.853C197.966 162.874 198.931 164.803 197.762 166.02C196.276 167.565 194.184 168.417 191.757 170.639C191.34 171.021 190.832 171.29 190.289 171.445C186.661 172.475 182.417 175.336 180.362 175.336C177.005 174.751 175.928 172.897 178.145 172.499Z" fill="white"/>
<path d="M182.771 122.699L192.713 130.894C196.232 135.328 198.396 137.522 203.797 139.089C210.6 142.961 215.053 144.958 217.098 150.121C220.773 155.581 223.126 159.202 222.981 162.098C222.93 163.117 222.569 164.046 221.848 164.935L212.347 155.479C206.014 145.078 195.246 148.23 186.696 139.72C181.945 136.568 182.262 132.155 177.195 128.255C178.368 127.699 181.41 123.328 182.771 122.699Z" fill="#FEFACC"/>
<path d="M133.806 178.488C132.178 176.939 127.282 184.206 130.639 184.791C132.82 184.791 150.633 178.695 154.391 177.857C154.497 177.834 157.778 174.993 158.627 174.25C158.755 174.138 158.824 173.977 158.828 173.808C158.944 169.066 181.154 162.177 182.576 158.946C182.724 158.61 180.681 157.954 180.331 157.839C174.112 155.785 155.842 165.221 155.663 171.152C155.661 171.209 155.652 171.264 155.631 171.317C155.477 171.722 154.781 173.41 154.54 173.798C154.505 173.854 154.454 173.9 154.403 173.943C153.17 175.018 149.569 175.285 145.526 175.339C142.949 177.428 136.348 180.905 133.806 178.488Z" fill="#FEFACC"/>
<path d="M167.125 150.853C166.858 151.585 166.362 152.231 165.636 152.513C163.717 153.258 160.804 153.867 155.343 154.849C153.127 155.247 154.203 157.1 157.56 157.685C159.616 157.685 163.86 154.824 167.487 153.794C168.031 153.64 168.538 153.37 168.955 152.988C171.383 150.766 173.474 149.914 174.96 148.369C176.13 147.153 175.151 145.256 173.464 145.322C170.375 145.444 168.396 147.37 167.125 150.853Z" fill="#FEFACC"/>
<path d="M188.588 168.093C188.385 168.296 188.149 168.467 187.902 168.613C186.144 169.655 184.33 171.387 178.145 172.499C175.928 172.897 177.005 174.751 180.362 175.336C182.417 175.336 186.661 172.475 190.289 171.445C190.832 171.29 191.34 171.021 191.757 170.639C194.184 168.417 196.276 167.565 197.762 166.02C198.931 164.803 197.966 162.874 196.279 162.853C193.548 162.818 192.237 164.442 188.588 168.093Z" fill="#FEFACC"/>
<path d="M134.442 158.316C129.958 160.324 125.11 160.38 121.458 160.841C121.294 143.7 121.105 132.423 121.627 119.787C121.742 117.003 124.033 116.667 124.542 119.407C125.771 126.01 126.881 135.375 128.425 145.078C129.534 150.09 130.048 150.841 130.642 145.078L130.958 109.462C131.438 104.605 131.806 105.088 132.542 109.462L136.659 140.665C137.488 147.117 137.865 147.914 138.242 140.665C138.395 124.034 138.518 114.71 137.292 98.0984C137.503 98.0016 137.713 97.902 137.926 97.7996C138.874 96.7683 140.021 95.8911 141.409 95.0814L146.158 151.988C141.179 153.667 139.216 156.831 134.442 158.316Z" fill="white"/>
<path d="M147.547 92.2954C149.698 91.4747 152.175 90.6124 155.027 89.6047L160.727 144.571C157.837 147.602 154.092 149.54 148.376 151.315L147.547 92.2954Z" fill="white"/>
<path d="M94.5362 177.542V118.287L97.7062 117.341C101.534 125.623 103.771 131.253 107.195 134.979C107.199 134.983 107.205 134.98 107.204 134.975C106.318 130.203 105.658 126.648 105.73 123.558C105.788 121.063 108.586 121.09 110.028 123.127C111.104 124.647 112.011 124.803 112.966 123.626C114.834 121.322 118.44 121.357 118.806 124.299C120.083 134.539 120.485 145.868 121.458 160.841C119.952 161.031 118.648 161.29 117.658 161.783L117.645 161.796C117.388 162.068 117.143 162.327 116.906 162.576C116.878 156.946 116.26 153.547 115.441 147.599C115.124 144.447 112.274 142.556 112.274 147.599V159.576C111.641 163.359 110.057 163.359 109.74 160.207L108.79 146.023C108.79 142.871 105.623 142.556 105.623 146.023C105.652 155.288 105.956 161.914 104.673 164.619C102.598 169.01 101.454 171.467 100.066 175.651L97.3009 176.596L94.5362 177.542Z" fill="white"/>
<path d="M110.69 167.456C108.992 170.087 107.835 171.551 104.673 174.075L100.066 175.651C101.454 171.467 102.598 169.01 104.673 164.619C105.956 161.914 105.652 155.288 105.623 146.023C105.623 142.556 108.79 142.871 108.79 146.023L109.74 160.207C110.057 163.359 111.641 163.359 112.274 159.576V147.599C112.274 142.556 115.124 144.447 115.441 147.599C116.26 153.547 116.878 156.946 116.906 162.576C114.753 164.836 113.308 166.212 110.69 167.456Z" fill="#FEFACC"/>
<path d="M112.907 106.625C115.248 103.73 116.67 102.855 119.241 101.582C129.203 100.847 133.156 100.002 137.292 98.0984C138.518 114.71 138.395 124.034 138.242 140.665C137.865 147.914 137.488 147.117 136.659 140.665L132.542 109.462C131.806 105.088 131.438 104.605 130.958 109.462L130.642 145.078C130.048 150.841 129.534 150.09 128.425 145.078C126.881 135.375 125.771 126.01 124.542 119.407C124.033 116.667 121.742 117.003 121.627 119.787C121.105 132.423 121.294 143.7 121.458 160.841C120.485 145.868 120.083 134.539 118.806 124.299C118.44 121.357 114.834 121.322 112.966 123.626C112.011 124.803 111.104 124.647 110.028 123.127C108.586 121.09 105.788 121.063 105.73 123.558C105.658 126.648 106.318 130.203 107.204 134.975C107.205 134.98 107.199 134.983 107.195 134.979C103.771 131.253 101.534 125.623 97.7062 117.341C104.412 115.447 106.135 113.821 108.474 110.722C109.751 108.898 110.661 107.959 112.907 106.625Z" fill="#FEFACC"/>
<path d="M141.409 95.0814C143.082 94.1052 145.105 93.2272 147.547 92.2954L148.376 151.315C147.964 151.443 147.542 151.57 147.11 151.697C146.78 151.788 146.463 151.885 146.158 151.988L141.409 95.0814Z" fill="#FEFACC"/>
<path d="M164.527 80.7795C165.43 76.6299 166.169 74.5361 169.278 72.5846L171.178 71.7155C173.841 92.3059 173.907 105.684 173.711 129.949C169.17 132.237 166.635 133.93 165.971 135.622L161.994 91.811C161.347 88.0134 161.194 88.2028 161.118 91.4959L162.311 142.256C161.714 143.096 161.402 143.863 160.727 144.571L155.027 89.6047C159.676 86.8892 161.765 84.9893 164.527 80.7795Z" fill="#FEFACC"/>
<path d="M180.992 67.2264C181.93 66.4222 182.643 65.4977 182.771 64.4401V122.699C181.41 123.328 178.368 127.699 177.195 128.255C175.925 128.857 174.764 129.419 173.711 129.949C173.907 105.684 173.841 92.3059 171.178 71.7155L180.992 67.2264Z" fill="white"/>
<path d="M165.971 135.622C165.848 135.936 165.789 136.25 165.794 136.568C164.811 138.738 163.504 140.576 162.378 142.161L162.311 142.256L161.118 91.4959C161.194 88.2028 161.347 88.0134 161.994 91.811L165.971 135.622Z" fill="white"/>
<path fill-rule="evenodd" clip-rule="evenodd" d="M94.5362 118.287C91.3667 116.056 86.8123 114.493 75.8516 111.353C73.164 108.666 70.6072 107.743 64.1341 107.123L155.977 54.2024C162.624 55.5896 165.516 56.6709 167.694 59.6619C172.619 64.6547 175.587 65.8556 180.992 67.2264L171.178 71.7155L169.278 72.5846C166.169 74.5361 165.43 76.6299 164.527 80.7795C161.765 84.9893 159.676 86.8892 155.027 89.6047C152.175 90.6124 149.698 91.4747 147.547 92.2954C145.105 93.2272 143.082 94.1052 141.409 95.0814C140.021 95.8911 138.874 96.7683 137.926 97.7996C137.713 97.902 137.503 98.0016 137.292 98.0984C133.156 100.002 129.203 100.847 119.241 101.582C116.67 102.855 115.248 103.73 112.907 106.625C110.661 107.959 109.751 108.898 108.474 110.722C106.135 113.821 104.412 115.447 97.7062 117.341L94.5362 118.287ZM92.0058 102.527C98.3629 101.385 98.1011 100.116 100.003 99.181C100.156 99.1058 102.8 98.3362 102.851 98.174C104.381 93.2216 107.727 92.2223 112.556 93.2301C112.917 93.3055 113.123 93.6858 112.975 94.0222C111.526 97.3126 108.649 97.6897 105.127 101.132C105.038 101.218 104.926 101.279 104.805 101.306C101.047 102.144 96.4035 105.364 94.2227 105.364C90.8656 104.779 89.789 102.926 92.0058 102.527ZM136.973 83.9314C133.616 83.3462 135.978 79.2305 137.606 80.7795C140.148 83.1966 142.949 82.8714 145.526 80.7823C149.288 80.7323 152.667 80.4975 154.112 79.5997C154.372 79.4384 154.574 79.1983 154.707 78.9231C154.953 78.4154 155.318 77.5439 155.518 77.0478C155.615 76.8059 155.664 76.5489 155.672 76.2882C155.862 70.5135 156.486 66.3079 162.596 68.3255C162.947 68.4411 163.723 70.3571 163.575 70.6935C162.253 73.6951 159.39 74.4131 158.897 78.3029C158.8 79.0751 158.497 79.8084 157.909 80.3184C156.635 81.4233 154.477 83.2818 154.391 83.301C150.633 84.1389 139.154 83.9314 136.973 83.9314Z" fill="white"/>
<path d="M137.606 80.7795C135.978 79.2305 133.616 83.3462 136.973 83.9314C139.154 83.9314 150.633 84.1389 154.391 83.301C154.477 83.2818 156.635 81.4233 157.909 80.3184C158.497 79.8084 158.8 79.0751 158.897 78.3029C159.39 74.4131 162.253 73.6951 163.575 70.6935C163.723 70.3571 162.947 68.4411 162.596 68.3255C156.486 66.3079 155.862 70.5135 155.672 76.2882C155.664 76.5489 155.615 76.8059 155.518 77.0478C155.318 77.5439 154.953 78.4154 154.707 78.9231C154.574 79.1983 154.372 79.4384 154.112 79.5997C152.667 80.4975 149.288 80.7323 145.526 80.7823C142.949 82.8714 140.148 83.1966 137.606 80.7795Z" fill="#FEFACC"/>
<path d="M100.003 99.181C98.1011 100.116 98.3629 101.385 92.0058 102.527C89.789 102.926 90.8656 104.779 94.2227 105.364C96.4035 105.364 101.047 102.144 104.805 101.306C104.926 101.279 105.038 101.218 105.127 101.132C108.649 97.6897 111.526 97.3126 112.975 94.0222C113.123 93.6858 112.917 93.3055 112.556 93.2301C107.727 92.2223 104.381 93.2216 102.851 98.174C102.8 98.3362 100.156 99.1058 100.003 99.181Z" fill="#FEFACC"/>
<path d="M94.5362 118.287L52.4166 113.874L64.1341 107.123C70.6072 107.743 73.164 108.666 75.8516 111.353C86.8123 114.493 91.3667 116.056 94.5362 118.287Z" fill="white"/>
<path d="M166.741 48C168.295 50.7079 169.346 52.0267 172.125 53.3582C178.145 59.6619 179.724 58.8784 181.945 61.8682C182.443 62.5382 182.7 63.1679 182.771 63.7594V64.4401C182.643 65.4977 181.93 66.4222 180.992 67.2264C175.587 65.8556 172.619 64.6547 167.694 59.6619C165.516 56.6709 162.624 55.5896 155.977 54.2024L166.741 48Z" fill="white"/>
<path d="M52.4166 173.76V113.874M52.4166 173.76L76.8017 175.651C83.8146 178.692 87.7039 179.234 94.5362 177.542M52.4166 173.76C53.8398 176.416 57.7463 185.108 79.3383 197.714M52.4166 173.76V187.628C66.0374 207.8 90.4224 215.68 115.441 215.68C125.268 214.704 130.564 212.424 139.826 206.854C144.445 203.475 147 203.128 151.543 203.072C167.753 202.712 164.676 203.032 166.744 202.442C174.495 200.154 178.88 197.618 186.696 192.986C207.969 184.318 222.369 178.97 222.981 174.39V162.098M52.4166 113.874L94.5362 118.287M52.4166 113.874L64.1341 107.123M94.5362 118.287V177.542M94.5362 118.287C91.3667 116.056 86.8123 114.493 75.8516 111.353C73.164 108.666 70.6072 107.743 64.1341 107.123M94.5362 118.287L97.7062 117.341M94.5362 177.542C92.8154 179.329 90.5696 180.29 83.772 181.955C79.3525 183.076 78.3999 184.356 79.3383 187.628C79.9216 189.576 80.0636 196.271 79.3383 197.714M94.5362 177.542L97.3009 176.596M64.1341 107.123L155.977 54.2024M180.992 67.2264C175.587 65.8556 172.619 64.6547 167.694 59.6619C165.516 56.6709 162.624 55.5896 155.977 54.2024M180.992 67.2264L171.178 71.7155M180.992 67.2264C181.93 66.4222 182.643 65.4977 182.771 64.4401M182.771 63.7594C182.7 63.1679 182.443 62.5382 181.945 61.8682C179.724 58.8784 178.145 59.6619 172.125 53.3582C169.346 52.0267 168.295 50.7079 166.741 48L155.977 54.2024M182.771 63.7594V64.4401M182.771 63.7594C182.799 63.9922 182.798 64.219 182.771 64.4401M182.771 122.699L192.713 130.894C196.232 135.328 198.396 137.522 203.797 139.089C210.6 142.961 215.053 144.958 217.098 150.121C220.773 155.581 223.126 159.202 222.981 162.098M182.771 122.699C181.41 123.328 178.368 127.699 177.195 128.255M182.771 122.699V64.4401M221.848 164.935C222.569 164.046 222.93 163.117 222.981 162.098M221.848 164.935C211.803 172.283 203.797 174.705 186.696 181.009C178.88 185.64 174.495 188.177 166.744 190.465C164.676 191.055 167.753 190.735 151.543 191.095C147 191.151 144.445 191.498 139.826 194.877C131.031 200.68 125.994 203.646 115.441 204.648M221.848 164.935L212.347 155.479C206.014 145.078 195.246 148.23 186.696 139.72C181.945 136.568 182.262 132.155 177.195 128.255M79.3383 197.714C94.8572 206.801 102.811 204.072 115.441 204.648M155.027 89.6047C159.676 86.8892 161.765 84.9893 164.527 80.7795C165.43 76.6299 166.169 74.5361 169.278 72.5846L171.178 71.7155M155.027 89.6047C152.175 90.6124 149.698 91.4747 147.547 92.2954M155.027 89.6047L160.727 144.571M97.7062 117.341C104.412 115.447 106.135 113.821 108.474 110.722C109.751 108.898 110.661 107.959 112.907 106.625C115.248 103.73 116.67 102.855 119.241 101.582C129.203 100.847 133.156 100.002 137.292 98.0984M97.7062 117.341C101.534 125.623 103.771 131.253 107.195 134.979C107.199 134.983 107.205 134.98 107.204 134.975V134.975C106.318 130.203 105.658 126.648 105.73 123.558C105.788 121.063 108.586 121.09 110.028 123.127C111.104 124.647 112.011 124.803 112.966 123.626C114.834 121.322 118.44 121.357 118.806 124.299C120.083 134.539 120.485 145.868 121.458 160.841M117.658 161.783C118.648 161.29 119.952 161.031 121.458 160.841M117.658 161.783L117.645 161.796M117.658 161.783C117.653 161.787 117.649 161.792 117.645 161.796M121.458 160.841C125.11 160.38 129.958 160.324 134.442 158.316C139.216 156.831 141.179 153.667 146.158 151.988M121.458 160.841C121.294 143.7 121.105 132.423 121.627 119.787C121.742 117.003 124.033 116.667 124.542 119.407C125.771 126.01 126.881 135.375 128.425 145.078C129.534 150.09 130.048 150.841 130.642 145.078L130.958 109.462C131.438 104.605 131.806 105.088 132.542 109.462L136.659 140.665C137.488 147.117 137.865 147.914 138.242 140.665C138.395 124.034 138.518 114.71 137.292 98.0984M137.292 98.0984C137.503 98.0016 137.713 97.902 137.926 97.7996C138.874 96.7683 140.021 95.8911 141.409 95.0814M100.066 175.651L104.673 174.075C107.835 171.551 108.992 170.087 110.69 167.456C113.308 166.212 114.753 164.836 116.906 162.576M100.066 175.651C101.454 171.467 102.598 169.01 104.673 164.619C105.956 161.914 105.652 155.288 105.623 146.023C105.623 142.556 108.79 142.871 108.79 146.023L109.74 160.207C110.057 163.359 111.641 163.359 112.274 159.576V147.599C112.274 142.556 115.124 144.447 115.441 147.599C116.26 153.547 116.878 156.946 116.906 162.576M100.066 175.651L97.3009 176.596M116.906 162.576C117.143 162.327 117.388 162.068 117.645 161.796M141.409 95.0814C143.082 94.1052 145.105 93.2272 147.547 92.2954M141.409 95.0814L146.158 151.988M146.16 152.012L146.158 151.988M147.547 92.2954L148.376 151.315M148.376 151.315C147.964 151.443 147.542 151.57 147.11 151.697C146.78 151.788 146.463 151.885 146.158 151.988M148.376 151.315C154.092 149.54 157.837 147.602 160.727 144.571M160.727 144.571C161.402 143.863 161.714 143.096 162.311 142.256M162.311 142.256L161.118 91.4959C161.194 88.2028 161.347 88.0134 161.994 91.811L165.971 135.622M162.311 142.256L162.378 142.161M162.311 142.256C162.333 142.225 162.356 142.193 162.378 142.161M165.971 135.622C165.848 135.936 165.789 136.25 165.794 136.568C164.811 138.738 163.504 140.576 162.378 142.161M165.971 135.622C166.635 133.93 169.17 132.237 173.711 129.949M173.711 129.949C173.907 105.684 173.841 92.3059 171.178 71.7155M173.711 129.949C174.764 129.419 175.925 128.857 177.195 128.255M97.3009 176.596L88.5223 186.998C86.9934 191.427 89.1616 192.774 95.4894 194.247C102.58 196.31 107.123 199.255 114.948 204.329M115.441 204.648L114.948 204.329M115.441 204.648C115.275 204.541 115.111 204.434 114.948 204.329M155.343 154.849C160.804 153.867 163.717 153.258 165.636 152.513C166.362 152.231 166.858 151.585 167.125 150.853C168.396 147.37 170.375 145.444 173.464 145.322C175.151 145.256 176.13 147.153 174.96 148.369C173.474 149.914 171.383 150.766 168.955 152.988C168.538 153.37 168.031 153.64 167.487 153.794C163.86 154.824 159.616 157.685 157.56 157.685C154.203 157.1 153.127 155.247 155.343 154.849ZM100.003 99.181C98.1011 100.116 98.3629 101.385 92.0058 102.527C89.789 102.926 90.8656 104.779 94.2227 105.364C96.4035 105.364 101.047 102.144 104.805 101.306C104.926 101.279 105.038 101.218 105.127 101.132C108.649 97.6897 111.526 97.3126 112.975 94.0222C113.123 93.6858 112.917 93.3055 112.556 93.2301C107.727 92.2223 104.381 93.2216 102.851 98.174C102.8 98.3362 100.156 99.1058 100.003 99.181ZM137.606 80.7795C135.978 79.2305 133.616 83.3462 136.973 83.9314C139.154 83.9314 150.633 84.1389 154.391 83.301C154.477 83.2818 156.635 81.4233 157.909 80.3184C158.497 79.8084 158.8 79.0751 158.897 78.3029C159.39 74.4131 162.253 73.6951 163.575 70.6935C163.723 70.3571 162.947 68.4411 162.596 68.3255C156.486 66.3079 155.862 70.5135 155.672 76.2882C155.664 76.5489 155.615 76.8059 155.518 77.0478C155.318 77.5439 154.953 78.4154 154.707 78.9231C154.574 79.1983 154.372 79.4384 154.112 79.5997C152.667 80.4975 149.288 80.7323 145.526 80.7823C142.949 82.8714 140.148 83.1966 137.606 80.7795ZM133.806 178.488C132.178 176.939 127.282 184.206 130.639 184.791C132.82 184.791 150.633 178.695 154.391 177.857C154.497 177.834 157.778 174.993 158.627 174.25C158.755 174.138 158.824 173.977 158.828 173.808C158.944 169.066 181.154 162.177 182.576 158.946C182.724 158.61 180.681 157.954 180.331 157.839C174.112 155.785 155.842 165.221 155.663 171.152C155.661 171.209 155.652 171.264 155.631 171.317C155.477 171.722 154.781 173.41 154.54 173.798C154.505 173.854 154.454 173.9 154.403 173.943C153.17 175.018 149.569 175.285 145.526 175.339C142.949 177.428 136.348 180.905 133.806 178.488ZM178.145 172.499C184.33 171.387 186.144 169.655 187.902 168.613C188.149 168.467 188.385 168.296 188.588 168.093C192.237 164.442 193.548 162.818 196.279 162.853C197.966 162.874 198.931 164.803 197.762 166.02C196.276 167.565 194.184 168.417 191.757 170.639C191.34 171.021 190.832 171.29 190.289 171.445C186.661 172.475 182.417 175.336 180.362 175.336C177.005 174.751 175.928 172.897 178.145 172.499Z" stroke="#333015" stroke-width="4"/>
</g>
<defs>
<filter id="filter0_d_2620_19270" x="0.416992" y="0.766602" width="274.57" height="272.413" filterUnits="userSpaceOnUse" color-interpolation-filters="sRGB">
<feFlood flood-opacity="0" result="BackgroundImageFix"/>
<feColorMatrix in="SourceAlpha" type="matrix" values="0 0 0 0 0 0 0 0 0 0 0 0 0 0 0 0 0 0 127 0" result="hardAlpha"/>
<feOffset dy="5.5"/>
<feGaussianBlur stdDeviation="25"/>
<feComposite in2="hardAlpha" operator="out"/>
<feColorMatrix type="matrix" values="0 0 0 0 0 0 0 0 0 0 0 0 0 0 0 0 0 0 0.25 0"/>
<feBlend mode="normal" in2="BackgroundImageFix" result="effect1_dropShadow_2620_19270"/>
<feBlend mode="normal" in="SourceGraphic" in2="effect1_dropShadow_2620_19270" result="shape"/>
</filter>
</defs>
</svg>
