<svg width="92" height="92" viewBox="0 0 92 92" fill="none" xmlns="http://www.w3.org/2000/svg">
<g filter="url(#filter0_d_2620_19282)">
<path d="M16 55.308L37.4396 67.1875V59.5724L16 47.5406V55.308Z" fill="#FEFACC"/>
<path d="M56.5656 30.3306C56.5656 31.1717 55.3225 31.8536 53.7892 31.8536C52.2559 31.8536 51.0129 31.1717 51.0129 30.3306C51.0129 29.4894 52.2559 28.8075 53.7892 28.8075C55.3225 28.8075 56.5656 29.4894 56.5656 30.3306Z" fill="#FEFACC"/>
<path d="M50.3959 33.6812C50.3959 34.5223 49.1529 35.2042 47.6195 35.2042C46.0862 35.2042 44.8432 34.5223 44.8432 33.6812C44.8432 32.84 46.0862 32.1582 47.6195 32.1582C49.1529 32.1582 50.3959 32.84 50.3959 33.6812Z" fill="#FEFACC"/>
<path d="M44.8432 37.0318C44.8432 37.873 43.6002 38.5548 42.0668 38.5548C40.5335 38.5548 39.2905 37.873 39.2905 37.0318C39.2905 36.1907 40.5335 35.5088 42.0668 35.5088C43.6002 35.5088 44.8432 36.1907 44.8432 37.0318Z" fill="#FEFACC"/>
<path d="M38.982 40.3824C38.982 41.2236 37.739 41.9055 36.2057 41.9055C34.6723 41.9055 33.4293 41.2236 33.4293 40.3824C33.4293 39.5413 34.6723 38.8594 36.2057 38.8594C37.739 38.8594 38.982 39.5413 38.982 40.3824Z" fill="#FEFACC"/>
<path d="M33.1208 43.7331C33.1208 44.5742 31.8778 45.2561 30.3445 45.2561C28.8111 45.2561 27.5681 44.5742 27.5681 43.7331C27.5681 42.8919 28.8111 42.2101 30.3445 42.2101C31.8778 42.2101 33.1208 42.8919 33.1208 43.7331Z" fill="#FEFACC"/>
<path d="M27.2596 47.0837C27.2596 47.9248 26.0166 48.6067 24.4833 48.6067C22.95 48.6067 21.7069 47.9248 21.7069 47.0837C21.7069 46.2426 22.95 45.5607 24.4833 45.5607C26.0166 45.5607 27.2596 46.2426 27.2596 47.0837Z" fill="#FEFACC"/>
<path d="M71.6812 40.0778L57.7995 32.3105V35.5088L71.6812 42.9716V40.0778Z" fill="#FEFACC"/>
<path d="M58.8792 42.9716V40.687L54.0977 37.6509L50.8586 39.5252L55.6401 42.9716H58.8792Z" fill="#FEFACC"/>
<path d="M51.3213 46.6268V44.4946L46.8483 41.8458L43.4276 43.8252L48.0823 46.6268H51.3213Z" fill="#FEFACC"/>
<path fill-rule="evenodd" clip-rule="evenodd" d="M54.4062 25L16 47.5406L37.4396 59.5724V67.1875L42.0668 64.5325L71.6812 47.5406L76 44.9515V37.3364L54.4062 25ZM27.2596 47.0837C27.2596 47.9248 26.0166 48.6067 24.4833 48.6067C22.95 48.6067 21.7069 47.9248 21.7069 47.0837C21.7069 46.2426 22.95 45.5607 24.4833 45.5607C26.0166 45.5607 27.2596 46.2426 27.2596 47.0837ZM30.3445 45.2561C31.8778 45.2561 33.1208 44.5742 33.1208 43.7331C33.1208 42.8919 31.8778 42.2101 30.3445 42.2101C28.8111 42.2101 27.5681 42.8919 27.5681 43.7331C27.5681 44.5742 28.8111 45.2561 30.3445 45.2561ZM38.982 40.3824C38.982 41.2236 37.739 41.9055 36.2057 41.9055C34.6723 41.9055 33.4293 41.2236 33.4293 40.3824C33.4293 39.5413 34.6723 38.8594 36.2057 38.8594C37.739 38.8594 38.982 39.5413 38.982 40.3824ZM42.0668 38.5548C43.6002 38.5548 44.8432 37.873 44.8432 37.0318C44.8432 36.1907 43.6002 35.5088 42.0668 35.5088C40.5335 35.5088 39.2905 36.1907 39.2905 37.0318C39.2905 37.873 40.5335 38.5548 42.0668 38.5548ZM50.3959 33.6812C50.3959 34.5223 49.1529 35.2042 47.6195 35.2042C46.0862 35.2042 44.8432 34.5223 44.8432 33.6812C44.8432 32.84 46.0862 32.1582 47.6195 32.1582C49.1529 32.1582 50.3959 32.84 50.3959 33.6812ZM53.7892 31.8536C55.3225 31.8536 56.5656 31.1717 56.5656 30.3306C56.5656 29.4894 55.3225 28.8075 53.7892 28.8075C52.2559 28.8075 51.0129 29.4894 51.0129 30.3306C51.0129 31.1717 52.2559 31.8536 53.7892 31.8536ZM71.6812 40.0778L57.7995 32.3105V35.5088L71.6812 42.9716V40.0778ZM58.8792 40.687V42.9716H55.6401L50.8586 39.5252L54.0977 37.6509L58.8792 40.687ZM51.3213 46.6268V44.4946L46.8483 41.8458L43.4276 43.8252L48.0823 46.6268H51.3213ZM39.599 46.0407L44.3805 49.0636V51.1958H41.1414L36.2057 48.0042L39.599 46.0407Z" fill="white"/>
<path d="M44.3805 49.0636L39.599 46.0407L36.2057 48.0042L41.1414 51.1958H44.3805V49.0636Z" fill="#FEFACC"/>
<path d="M16 47.5406L54.4062 25L76 37.3364M16 47.5406V55.308L37.4396 67.1875M16 47.5406L37.4396 59.5724M76 37.3364L71.6812 40.0778M76 37.3364V44.9515L71.6812 47.5406M71.6812 40.0778L57.7995 32.3105M71.6812 40.0778V42.9716M71.6812 47.5406L42.0668 64.5325M71.6812 47.5406V42.9716M37.4396 67.1875V59.5724M37.4396 67.1875L42.0668 64.5325M37.4396 59.5724L42.0668 56.6787M42.0668 56.6787L31.4797 50.7389M42.0668 56.6787V59.877M42.0668 64.5325V59.877M57.7995 32.3105L28.4936 49.0636L31.4797 50.7389M57.7995 32.3105V35.5088M71.6812 42.9716L57.7995 35.5088M71.6812 42.9716L65.2781 46.6268M57.7995 35.5088L54.0977 37.6509M31.4797 50.7389L36.2057 48.0042M42.0668 59.877L50.5501 55.0343M50.5501 55.0343L44.3805 51.1958M50.5501 55.0343L57.7995 50.896M44.3805 51.1958V49.0636L39.599 46.0407M44.3805 51.1958H41.1414L36.2057 48.0042M39.599 46.0407L36.2057 48.0042M39.599 46.0407L43.4276 43.8252M57.7995 50.896L51.3213 46.6268M57.7995 50.896L65.2781 46.6268M51.3213 46.6268V44.4946L46.8483 41.8458M51.3213 46.6268H48.0823L43.4276 43.8252M46.8483 41.8458L50.8586 39.5252M46.8483 41.8458L43.4276 43.8252M65.2781 46.6268L58.8792 42.9716M58.8792 42.9716V40.687L54.0977 37.6509M58.8792 42.9716H55.6401L50.8586 39.5252M54.0977 37.6509L50.8586 39.5252M50.3959 33.6812C50.3959 34.5223 49.1529 35.2042 47.6195 35.2042C46.0862 35.2042 44.8432 34.5223 44.8432 33.6812C44.8432 32.84 46.0862 32.1582 47.6195 32.1582C49.1529 32.1582 50.3959 32.84 50.3959 33.6812ZM44.8432 37.0318C44.8432 37.873 43.6002 38.5548 42.0668 38.5548C40.5335 38.5548 39.2905 37.873 39.2905 37.0318C39.2905 36.1907 40.5335 35.5088 42.0668 35.5088C43.6002 35.5088 44.8432 36.1907 44.8432 37.0318ZM38.982 40.3824C38.982 41.2236 37.739 41.9055 36.2057 41.9055C34.6723 41.9055 33.4293 41.2236 33.4293 40.3824C33.4293 39.5413 34.6723 38.8594 36.2057 38.8594C37.739 38.8594 38.982 39.5413 38.982 40.3824ZM33.1208 43.7331C33.1208 44.5742 31.8778 45.2561 30.3445 45.2561C28.8111 45.2561 27.5681 44.5742 27.5681 43.7331C27.5681 42.8919 28.8111 42.2101 30.3445 42.2101C31.8778 42.2101 33.1208 42.8919 33.1208 43.7331ZM27.2596 47.0837C27.2596 47.9248 26.0166 48.6067 24.4833 48.6067C22.95 48.6067 21.7069 47.9248 21.7069 47.0837C21.7069 46.2426 22.95 45.5607 24.4833 45.5607C26.0166 45.5607 27.2596 46.2426 27.2596 47.0837ZM56.5656 30.3306C56.5656 31.1717 55.3225 31.8536 53.7892 31.8536C52.2559 31.8536 51.0129 31.1717 51.0129 30.3306C51.0129 29.4894 52.2559 28.8075 53.7892 28.8075C55.3225 28.8075 56.5656 29.4894 56.5656 30.3306Z" stroke="#333015" stroke-width="1.25"/>
</g>
<defs>
<filter id="filter0_d_2620_19282" x="3.375" y="16.2773" width="85.25" height="67.6279" filterUnits="userSpaceOnUse" color-interpolation-filters="sRGB">
<feFlood flood-opacity="0" result="BackgroundImageFix"/>
<feColorMatrix in="SourceAlpha" type="matrix" values="0 0 0 0 0 0 0 0 0 0 0 0 0 0 0 0 0 0 127 0" result="hardAlpha"/>
<feOffset dy="4"/>
<feGaussianBlur stdDeviation="6"/>
<feComposite in2="hardAlpha" operator="out"/>
<feColorMatrix type="matrix" values="0 0 0 0 0 0 0 0 0 0 0 0 0 0 0 0 0 0 0.25 0"/>
<feBlend mode="normal" in2="BackgroundImageFix" result="effect1_dropShadow_2620_19282"/>
<feBlend mode="normal" in="SourceGraphic" in2="effect1_dropShadow_2620_19282" result="shape"/>
</filter>
</defs>
</svg>
