<svg width="278" height="227" viewBox="0 0 278 227" fill="none" xmlns="http://www.w3.org/2000/svg">
<g filter="url(#filter0_d_2620_19289)">
<path d="M52 134.621L113.982 168.965V146.95L52 112.166V134.621Z" fill="#FEFACC"/>
<path d="M169.276 62.4108C169.276 64.8425 165.683 66.8139 161.25 66.8139C156.817 66.8139 153.223 64.8425 153.223 62.4108C153.223 59.979 156.817 58.0077 161.25 58.0077C165.683 58.0077 169.276 59.979 169.276 62.4108Z" fill="#FEFACC"/>
<path d="M151.439 72.0975C151.439 74.5293 147.846 76.5006 143.413 76.5006C138.98 76.5006 135.386 74.5293 135.386 72.0975C135.386 69.6658 138.98 67.6945 143.413 67.6945C147.846 67.6945 151.439 69.6658 151.439 72.0975Z" fill="#FEFACC"/>
<path d="M135.386 81.7843C135.386 84.2161 131.793 86.1874 127.36 86.1874C122.927 86.1874 119.333 84.2161 119.333 81.7843C119.333 79.3526 122.927 77.3812 127.36 77.3812C131.793 77.3812 135.386 79.3526 135.386 81.7843Z" fill="#FEFACC"/>
<path d="M118.442 91.4711C118.442 93.9028 114.848 95.8742 110.415 95.8742C105.982 95.8742 102.389 93.9028 102.389 91.4711C102.389 89.0393 105.982 87.068 110.415 87.068C114.848 87.068 118.442 89.0393 118.442 91.4711Z" fill="#FEFACC"/>
<path d="M101.497 101.158C101.497 103.59 97.9032 105.561 93.4703 105.561C89.0374 105.561 85.4438 103.59 85.4438 101.158C85.4438 98.7261 89.0374 96.7548 93.4703 96.7548C97.9032 96.7548 101.497 98.7261 101.497 101.158Z" fill="#FEFACC"/>
<path d="M84.5519 110.845C84.5519 113.276 80.9584 115.248 76.5254 115.248C72.0925 115.248 68.4989 113.276 68.4989 110.845C68.4989 108.413 72.0925 106.442 76.5254 106.442C80.9584 106.442 84.5519 108.413 84.5519 110.845Z" fill="#FEFACC"/>
<path d="M212.976 90.5905L172.844 68.1348V77.3812L212.976 98.9563V90.5905Z" fill="#FEFACC"/>
<path d="M175.965 98.9563V92.3517L162.142 83.574L152.777 88.9927L166.601 98.9563H175.965Z" fill="#FEFACC"/>
<path d="M154.115 109.524V103.359L141.183 95.7016L131.294 101.424L144.751 109.524H154.115Z" fill="#FEFACC"/>
<path fill-rule="evenodd" clip-rule="evenodd" d="M163.033 47L52 112.166L113.982 146.95V168.965L127.36 161.29L212.976 112.166L225.462 104.68V82.6649L163.033 47ZM84.5519 110.845C84.5519 113.276 80.9584 115.248 76.5254 115.248C72.0925 115.248 68.4989 113.276 68.4989 110.845C68.4989 108.413 72.0925 106.442 76.5254 106.442C80.9584 106.442 84.5519 108.413 84.5519 110.845ZM93.4703 105.561C97.9032 105.561 101.497 103.59 101.497 101.158C101.497 98.7261 97.9032 96.7548 93.4703 96.7548C89.0374 96.7548 85.4438 98.7261 85.4438 101.158C85.4438 103.59 89.0374 105.561 93.4703 105.561ZM118.442 91.4711C118.442 93.9028 114.848 95.8742 110.415 95.8742C105.982 95.8742 102.389 93.9028 102.389 91.4711C102.389 89.0393 105.982 87.068 110.415 87.068C114.848 87.068 118.442 89.0393 118.442 91.4711ZM127.36 86.1874C131.793 86.1874 135.386 84.2161 135.386 81.7843C135.386 79.3526 131.793 77.3812 127.36 77.3812C122.927 77.3812 119.333 79.3526 119.333 81.7843C119.333 84.2161 122.927 86.1874 127.36 86.1874ZM151.439 72.0975C151.439 74.5293 147.846 76.5006 143.413 76.5006C138.98 76.5006 135.386 74.5293 135.386 72.0975C135.386 69.6658 138.98 67.6945 143.413 67.6945C147.846 67.6945 151.439 69.6658 151.439 72.0975ZM161.25 66.8139C165.683 66.8139 169.276 64.8425 169.276 62.4108C169.276 59.979 165.683 58.0077 161.25 58.0077C156.817 58.0077 153.223 59.979 153.223 62.4108C153.223 64.8425 156.817 66.8139 161.25 66.8139ZM212.976 90.5905L172.844 68.1348V77.3812L212.976 98.9563V90.5905ZM175.965 92.3517V98.9563H166.601L152.777 88.9927L162.142 83.574L175.965 92.3517ZM154.115 109.524V103.359L141.183 95.7016L131.294 101.424L144.751 109.524H154.115ZM120.225 107.829L134.049 116.569V122.733H124.684L110.415 113.506L120.225 107.829Z" fill="white"/>
<path d="M134.049 116.569L120.225 107.829L110.415 113.506L124.684 122.733H134.049V116.569Z" fill="#FEFACC"/>
<path d="M52 112.166L163.033 47L225.462 82.6649M52 112.166V134.621L113.982 168.965M52 112.166L113.982 146.95M225.462 82.6649L212.976 90.5905M225.462 82.6649V104.68L212.976 112.166M212.976 90.5905L172.844 68.1348M212.976 90.5905V98.9563M212.976 112.166L127.36 161.29M212.976 112.166V98.9563M113.982 168.965V146.95M113.982 168.965L127.36 161.29M113.982 146.95L127.36 138.584M127.36 138.584L96.7522 121.412M127.36 138.584V147.831M127.36 161.29V147.831M172.844 68.1348L88.1193 116.569L96.7522 121.412M172.844 68.1348V77.3812M212.976 98.9563L172.844 77.3812M212.976 98.9563L194.464 109.524M172.844 77.3812L162.142 83.574M96.7522 121.412L110.415 113.506M127.36 147.831L151.885 133.83M151.885 133.83L134.049 122.733M151.885 133.83L172.844 121.866M134.049 122.733V116.569L120.225 107.829M134.049 122.733H124.684L110.415 113.506M120.225 107.829L110.415 113.506M120.225 107.829L131.294 101.424M172.844 121.866L154.115 109.524M172.844 121.866L194.464 109.524M154.115 109.524V103.359L141.183 95.7016M154.115 109.524H144.751L131.294 101.424M141.183 95.7016L152.777 88.9927M141.183 95.7016L131.294 101.424M194.464 109.524L175.965 98.9563M175.965 98.9563V92.3517L162.142 83.574M175.965 98.9563H166.601L152.777 88.9927M162.142 83.574L152.777 88.9927M151.439 72.0975C151.439 74.5293 147.846 76.5006 143.413 76.5006C138.98 76.5006 135.386 74.5293 135.386 72.0975C135.386 69.6658 138.98 67.6945 143.413 67.6945C147.846 67.6945 151.439 69.6658 151.439 72.0975ZM135.386 81.7843C135.386 84.2161 131.793 86.1874 127.36 86.1874C122.927 86.1874 119.333 84.2161 119.333 81.7843C119.333 79.3526 122.927 77.3812 127.36 77.3812C131.793 77.3812 135.386 79.3526 135.386 81.7843ZM118.442 91.4711C118.442 93.9028 114.848 95.8742 110.415 95.8742C105.982 95.8742 102.389 93.9028 102.389 91.4711C102.389 89.0393 105.982 87.068 110.415 87.068C114.848 87.068 118.442 89.0393 118.442 91.4711ZM101.497 101.158C101.497 103.59 97.9032 105.561 93.4703 105.561C89.0374 105.561 85.4438 103.59 85.4438 101.158C85.4438 98.7261 89.0374 96.7548 93.4703 96.7548C97.9032 96.7548 101.497 98.7261 101.497 101.158ZM84.5519 110.845C84.5519 113.276 80.9584 115.248 76.5254 115.248C72.0925 115.248 68.4989 113.276 68.4989 110.845C68.4989 108.413 72.0925 106.442 76.5254 106.442C80.9584 106.442 84.5519 108.413 84.5519 110.845ZM169.276 62.4108C169.276 64.8425 165.683 66.8139 161.25 66.8139C156.817 66.8139 153.223 64.8425 153.223 62.4108C153.223 59.979 156.817 58.0077 161.25 58.0077C165.683 58.0077 169.276 59.979 169.276 62.4108Z" stroke="#333015" stroke-width="4"/>
</g>
<defs>
<filter id="filter0_d_2620_19289" x="0" y="0.188477" width="277.462" height="226.573" filterUnits="userSpaceOnUse" color-interpolation-filters="sRGB">
<feFlood flood-opacity="0" result="BackgroundImageFix"/>
<feColorMatrix in="SourceAlpha" type="matrix" values="0 0 0 0 0 0 0 0 0 0 0 0 0 0 0 0 0 0 127 0" result="hardAlpha"/>
<feOffset dy="5.5"/>
<feGaussianBlur stdDeviation="25"/>
<feComposite in2="hardAlpha" operator="out"/>
<feColorMatrix type="matrix" values="0 0 0 0 0 0 0 0 0 0 0 0 0 0 0 0 0 0 0.25 0"/>
<feBlend mode="normal" in2="BackgroundImageFix" result="effect1_dropShadow_2620_19289"/>
<feBlend mode="normal" in="SourceGraphic" in2="effect1_dropShadow_2620_19289" result="shape"/>
</filter>
</defs>
</svg>
