<svg width="214" height="241" viewBox="0 0 214 241" fill="none" xmlns="http://www.w3.org/2000/svg">
<g filter="url(#filter0_d_2620_19252)">
<path d="M61.3658 117.007L74.0586 117.447L49.0993 99.7013L36.4065 99.2612C36.0306 99.2481 35.5981 99.4202 35.1798 99.7492L24.8962 107.838C24.2191 108.371 23.6656 109.245 23.4536 110.116L20.0913 123.936C19.9554 124.494 19.9717 125.005 20.1372 125.379L26.4881 139.71L51.4474 157.455L45.0965 143.124C44.931 142.75 44.9147 142.24 45.0505 141.681L48.4129 127.862C48.6249 126.99 49.1784 126.116 49.8555 125.584L54.9973 121.539L60.1391 117.495C60.5574 117.166 60.9899 116.994 61.3658 117.007Z" fill="#FEFACC"/>
<path d="M56.4551 210.729L48.91 163.191C48.861 162.882 48.8834 162.529 48.9702 162.162C49.0554 161.801 49.2028 161.427 49.4055 161.068L51.4474 157.455L26.4881 139.71L24.4462 143.323C24.2496 143.67 24.1051 144.033 24.0188 144.384C23.9255 144.763 23.9002 145.128 23.9508 145.446L27.7233 169.215L31.4958 192.984C31.5323 193.214 31.607 193.41 31.7145 193.566L32.2423 193.941L56.6996 211.347C56.5782 211.186 56.4945 210.977 56.4551 210.729Z" fill="#FEFACC"/>
<path d="M78.0923 111.271L127.949 82.7401C128.198 82.5978 128.441 82.5149 128.666 82.4924L103.704 64.7473C103.48 64.7702 103.237 64.853 102.99 64.9947L53.133 93.526C52.6198 93.8197 52.1288 94.3408 51.7742 94.9683L49.0993 99.7013L74.0586 117.447L76.7334 112.714C77.0881 112.086 77.579 111.565 78.0923 111.271Z" fill="#FEFACC"/>
<path d="M129.314 82.6313L131.956 84.3139L144.959 69.1625C145.336 68.7227 145.769 68.4043 146.186 68.2594L155.975 64.8578C156.314 64.7399 156.622 64.7437 156.871 64.8578L132.184 47.3062L131.912 47.1124C131.663 46.9983 131.355 46.9945 131.016 47.1124L121.227 50.514C120.809 50.6589 120.377 50.9773 119.999 51.4171L109.037 64.1914C107.866 65.5555 105.871 65.8514 104.355 64.8859C104.17 64.7682 103.948 64.7224 103.704 64.7473L128.666 82.4924C128.909 82.4682 129.13 82.5141 129.314 82.6313Z" fill="#FEFACC"/>
<path fill-rule="evenodd" clip-rule="evenodd" d="M48.91 163.191L56.4551 210.729C56.4945 210.977 56.5782 211.186 56.6996 211.347C56.8356 211.527 57.019 211.647 57.24 211.696L97.2215 220.463C97.5357 220.532 97.9087 220.452 98.2907 220.233L108.023 214.664C108.407 214.444 108.782 214.095 109.097 213.663L148.799 159.304C149.218 158.731 149.5 158.055 149.581 157.432L156.862 101.401C156.954 100.687 156.773 100.118 156.371 99.8621L154.344 98.5711L161.182 76.762C161.376 76.1408 161.391 75.5562 161.223 75.1309L157.376 65.4212C157.269 65.1504 157.094 64.9599 156.871 64.8578C156.622 64.7437 156.314 64.7399 155.975 64.8578L146.186 68.2594C145.769 68.4043 145.336 68.7227 144.959 69.1625L131.956 84.3139L129.314 82.6313C129.13 82.5141 128.909 82.4682 128.666 82.4924C128.441 82.5149 128.198 82.5978 127.949 82.7401L78.0923 111.271C77.579 111.565 77.0881 112.086 76.7334 112.714L74.0586 117.447L61.3658 117.007C60.9899 116.994 60.5574 117.166 60.1391 117.495L54.9973 121.539L49.8555 125.584C49.1784 126.116 48.6249 126.99 48.4129 127.862L45.0505 141.681C44.9147 142.24 44.931 142.75 45.0965 143.124L51.4474 157.455L49.4055 161.068C49.2028 161.427 49.0554 161.801 48.9702 162.162C48.8834 162.529 48.861 162.882 48.91 163.191ZM106.377 165.979L103.021 167.256L99.664 169.821C95.0047 173.435 91.9568 171.486 92.099 162.162C92.1048 161.781 92.2033 161.354 92.377 160.935L96.3081 151.44C98.8257 146.455 108.336 141.334 110.015 143.596L114.2 148.434C114.389 148.653 114.499 148.973 114.506 149.363C114.643 157.007 112.155 163.567 106.377 165.979Z" fill="white"/>
<path d="M103.021 167.256L106.377 165.979C112.155 163.567 114.643 157.007 114.506 149.363C114.499 148.973 114.389 148.653 114.2 148.434L110.015 143.596C108.336 141.334 98.8257 146.455 96.3081 151.44L92.377 160.935C92.2033 161.354 92.1048 161.781 92.099 162.162C91.9568 171.486 95.0047 173.435 99.664 169.821L103.021 167.256Z" fill="#FEFACC"/>
<path d="M74.0586 117.447L76.7334 112.714C77.0881 112.086 77.579 111.565 78.0923 111.271L127.949 82.7401C128.198 82.5978 128.441 82.5149 128.666 82.4924M74.0586 117.447L61.3658 117.007C60.9899 116.994 60.5574 117.166 60.1391 117.495L54.9973 121.539L49.8555 125.584C49.1784 126.116 48.6249 126.99 48.4129 127.862L45.0505 141.681C44.9147 142.24 44.931 142.75 45.0965 143.124L51.4474 157.455M74.0586 117.447L51.4474 157.455M74.0586 117.447L49.0993 99.7013M51.4474 157.455L49.4055 161.068C49.2028 161.427 49.0554 161.801 48.9702 162.162C48.8834 162.529 48.861 162.882 48.91 163.191L56.4551 210.729C56.4945 210.977 56.5782 211.186 56.6996 211.347M51.4474 157.455L26.4881 139.71M131.956 84.3139L129.314 82.6313C129.13 82.5141 128.909 82.4682 128.666 82.4924M131.956 84.3139L144.959 69.1625C145.336 68.7227 145.769 68.4043 146.186 68.2594L155.975 64.8578C156.314 64.7399 156.622 64.7437 156.871 64.8578M131.956 84.3139L154.344 98.5711M154.344 98.5711L156.371 99.8621C156.773 100.118 156.954 100.687 156.862 101.401L149.581 157.432C149.5 158.055 149.218 158.731 148.799 159.304L109.097 213.663C108.782 214.095 108.407 214.444 108.023 214.664L98.2907 220.233C97.9087 220.452 97.5357 220.532 97.2215 220.463L57.24 211.696C57.019 211.647 56.8356 211.527 56.6996 211.347M154.344 98.5711L161.182 76.762C161.376 76.1408 161.391 75.5562 161.223 75.1309L157.376 65.4212C157.269 65.1504 157.094 64.9599 156.871 64.8578M116.502 129.249L120.588 154.573C120.625 154.799 120.623 155.053 120.584 155.322L118.798 167.507C118.725 168.01 118.522 168.546 118.221 169.034L112.79 177.854C112.443 178.418 111.989 178.88 111.518 179.15L94.7787 188.729C94.3212 188.991 93.8795 189.053 93.5362 188.903L87.8651 186.432C87.5359 186.288 87.3185 185.96 87.2506 185.503L85.7238 175.234C85.6934 175.029 85.6935 174.803 85.7243 174.563L89.6516 143.971M116.502 129.249L116.169 127.184C115.61 124.604 124.281 112.875 125.12 123.673C125.12 124.962 119.938 129.457 116.502 129.249ZM89.6516 143.971L89.7835 142.944C89.843 142.48 89.7898 142.064 89.6093 141.784C86.205 136.509 80.3788 144.254 80.9236 148.965C81.1683 151.081 87.3572 147.862 89.6516 143.971ZM103.021 167.256C102.968 173.347 104.491 171.981 113.442 171.37M103.021 167.256C102.968 173.342 101.83 174.06 92.8784 183.694M103.021 167.256L106.377 165.979C112.155 163.567 114.643 157.007 114.506 149.363C114.499 148.973 114.389 148.653 114.2 148.434L110.015 143.596C108.336 141.334 98.8257 146.455 96.3081 151.44L92.377 160.935C92.2033 161.354 92.1048 161.781 92.099 162.162C91.9568 171.486 95.0047 173.435 99.664 169.821L103.021 167.256ZM32.2807 193.951C32.2678 193.948 32.255 193.945 32.2423 193.941M49.0993 99.7013L51.7742 94.9683C52.1288 94.3408 52.6198 93.8197 53.133 93.526L102.99 64.9947C103.237 64.853 103.48 64.7702 103.704 64.7473M49.0993 99.7013L36.4065 99.2612C36.0306 99.2481 35.5981 99.4202 35.1798 99.7492L24.8962 107.838C24.2191 108.371 23.6656 109.245 23.4536 110.116L20.0913 123.936C19.9554 124.494 19.9717 125.005 20.1372 125.379L26.4881 139.71M26.4881 139.71L24.4462 143.323C24.2496 143.67 24.1051 144.033 24.0188 144.384C23.9255 144.763 23.9002 145.128 23.9508 145.446L27.7233 169.215L31.4958 192.984C31.5323 193.214 31.607 193.41 31.7145 193.566M132.417 47.6758C132.358 47.5284 132.28 47.4048 132.184 47.3062M56.6996 211.347L32.2423 193.941M31.7145 193.566L32.2423 193.941M31.7145 193.566C31.8452 193.755 32.0244 193.884 32.2423 193.941M128.666 82.4924L103.704 64.7473M103.704 64.7473C103.948 64.7224 104.17 64.7682 104.355 64.8859V64.8859C105.871 65.8514 107.866 65.5554 109.037 64.1914L119.999 51.4171C120.377 50.9773 120.809 50.6589 121.227 50.514L131.016 47.1124C131.355 46.9945 131.663 46.9983 131.912 47.1124M131.912 47.1124L132.184 47.3062M131.912 47.1124C132.013 47.1589 132.105 47.2238 132.184 47.3062M156.871 64.8578L132.184 47.3062" stroke="#333015" stroke-width="4" stroke-linecap="round"/>
</g>
<defs>
<filter id="filter0_d_2620_19252" x="-32" y="0.525391" width="245.339" height="277.462" filterUnits="userSpaceOnUse" color-interpolation-filters="sRGB">
<feFlood flood-opacity="0" result="BackgroundImageFix"/>
<feColorMatrix in="SourceAlpha" type="matrix" values="0 0 0 0 0 0 0 0 0 0 0 0 0 0 0 0 0 0 127 0" result="hardAlpha"/>
<feOffset dy="5.5"/>
<feGaussianBlur stdDeviation="25"/>
<feComposite in2="hardAlpha" operator="out"/>
<feColorMatrix type="matrix" values="0 0 0 0 0 0 0 0 0 0 0 0 0 0 0 0 0 0 0.25 0"/>
<feBlend mode="normal" in2="BackgroundImageFix" result="effect1_dropShadow_2620_19252"/>
<feBlend mode="normal" in="SourceGraphic" in2="effect1_dropShadow_2620_19252" result="shape"/>
</filter>
</defs>
</svg>
