<svg width="92" height="93" viewBox="0 0 92 93" fill="none" xmlns="http://www.w3.org/2000/svg">
<g filter="url(#filter0_d_2620_19274)">
<path d="M36.3083 40.2063L40.6987 40.3586L32.0654 34.2205L27.675 34.0682C27.5449 34.0637 27.3953 34.1232 27.2507 34.237L23.6936 37.035C23.4594 37.2192 23.2679 37.5216 23.1946 37.823L22.0316 42.6032C21.9846 42.7963 21.9902 42.973 22.0475 43.1022L24.2442 48.0593L32.8776 54.1974L30.6808 49.2403C30.6236 49.1111 30.6179 48.9344 30.6649 48.7413L31.828 43.9611C31.9013 43.6597 32.0927 43.3573 32.3269 43.1731L34.1055 41.7741L35.884 40.3751C36.0287 40.2613 36.1783 40.2018 36.3083 40.2063Z" fill="#FEFACC"/>
<path d="M34.6097 72.6248L31.9999 56.1816C31.9829 56.0746 31.9907 55.9524 32.0207 55.8253C32.0502 55.7006 32.1012 55.5711 32.1713 55.447L32.8776 54.1974L24.2442 48.0593L23.5379 49.309C23.4699 49.4293 23.4199 49.5547 23.3901 49.676C23.3578 49.8071 23.3491 49.9334 23.3666 50.0435L24.6715 58.2651L25.9764 66.4867C25.989 66.5663 26.0148 66.6341 26.052 66.6879L26.2346 66.8179L34.6943 72.8384C34.6523 72.7827 34.6234 72.7106 34.6097 72.6248Z" fill="#FEFACC"/>
<path d="M42.094 38.2225L59.3393 28.3536C59.4253 28.3044 59.5095 28.2757 59.5874 28.268L50.953 22.13C50.8754 22.1379 50.7916 22.1665 50.7059 22.2155L33.4606 32.0844C33.2831 32.186 33.1133 32.3663 32.9906 32.5834L32.0654 34.2205L40.6987 40.3586L41.624 38.7214C41.7466 38.5044 41.9165 38.3241 42.094 38.2225Z" fill="#FEFACC"/>
<path d="M59.8115 28.316L60.7254 28.898L65.2229 23.6572C65.3535 23.505 65.5031 23.3949 65.6474 23.3448L69.0335 22.1682C69.1508 22.1274 69.2574 22.1287 69.3434 22.1682L60.8043 16.0971L60.71 16.0301C60.624 15.9906 60.5175 15.9893 60.4001 16.0301L57.014 17.2067C56.8697 17.2568 56.7201 17.3669 56.5896 17.5191L52.7976 21.9377C52.3927 22.4095 51.7026 22.5119 51.1781 22.1779C51.1142 22.1372 51.0373 22.1214 50.953 22.13L59.5874 28.268C59.6713 28.2596 59.7478 28.2755 59.8115 28.316Z" fill="#FEFACC"/>
<path fill-rule="evenodd" clip-rule="evenodd" d="M31.9999 56.1816L34.6097 72.6248C34.6234 72.7106 34.6523 72.7827 34.6943 72.8384C34.7414 72.9008 34.8048 72.9424 34.8812 72.9591L48.7107 75.9917C48.8194 76.0155 48.9484 75.9878 49.0806 75.9122L52.447 73.9856C52.5799 73.9096 52.7096 73.7888 52.8186 73.6395L66.5513 54.8369C66.6961 54.6386 66.7937 54.405 66.8217 54.1895L69.3401 34.8085C69.3722 34.5615 69.3095 34.3647 69.1704 34.2761L68.4692 33.8295L70.8344 26.2858C70.9018 26.071 70.9069 25.8687 70.8486 25.7216L69.518 22.3631C69.4809 22.2694 69.4204 22.2035 69.3434 22.1682C69.2574 22.1287 69.1508 22.1274 69.0335 22.1682L65.6474 23.3448C65.5031 23.3949 65.3535 23.505 65.2229 23.6572L60.7254 28.898L59.8115 28.316C59.7478 28.2755 59.6713 28.2596 59.5874 28.268C59.5095 28.2757 59.4253 28.3044 59.3393 28.3536L42.094 38.2225C41.9165 38.3241 41.7466 38.5044 41.624 38.7214L40.6987 40.3586L36.3083 40.2063C36.1783 40.2018 36.0287 40.2613 35.884 40.3751L34.1055 41.7741L32.3269 43.1731C32.0927 43.3573 31.9013 43.6597 31.828 43.9611L30.6649 48.7413C30.6179 48.9344 30.6236 49.1111 30.6808 49.2403L32.8776 54.1974L32.1713 55.447C32.1012 55.5711 32.0502 55.7006 32.0207 55.8253C31.9907 55.9524 31.9829 56.0746 31.9999 56.1816ZM51.8777 57.1459L50.7167 57.5874L49.5556 58.4748C47.944 59.7247 46.8897 59.0505 46.9389 55.8253C46.9409 55.6939 46.975 55.5462 47.035 55.401L48.3948 52.1168C49.2656 50.3923 52.5553 48.6212 53.1358 49.4036L54.5834 51.0769C54.6491 51.1528 54.6869 51.2635 54.6893 51.3982C54.7368 54.0422 53.8763 56.3116 51.8777 57.1459Z" fill="white"/>
<path d="M50.7167 57.5874L51.8777 57.1459C53.8763 56.3116 54.7368 54.0422 54.6893 51.3982C54.6869 51.2635 54.6491 51.1528 54.5834 51.0769L53.1358 49.4036C52.5553 48.6212 49.2656 50.3923 48.3948 52.1168L47.035 55.401C46.975 55.5462 46.9409 55.6939 46.9389 55.8253C46.8897 59.0505 47.944 59.7247 49.5556 58.4748L50.7167 57.5874Z" fill="#FEFACC"/>
<path d="M40.6987 40.3586L41.624 38.7214C41.7466 38.5044 41.9165 38.3241 42.094 38.2225L59.3393 28.3536C59.4253 28.3044 59.5095 28.2757 59.5874 28.268M40.6987 40.3586L36.3083 40.2063C36.1783 40.2018 36.0287 40.2613 35.884 40.3751L34.1055 41.7741L32.3269 43.1731C32.0927 43.3573 31.9013 43.6597 31.828 43.9611L30.6649 48.7413C30.6179 48.9344 30.6236 49.1111 30.6808 49.2403L32.8776 54.1974M40.6987 40.3586L32.8776 54.1974M40.6987 40.3586L32.0654 34.2205M32.8776 54.1974L32.1713 55.447C32.1012 55.5711 32.0502 55.7006 32.0207 55.8253C31.9907 55.9524 31.9829 56.0746 31.9999 56.1816L34.6097 72.6248C34.6234 72.7106 34.6523 72.7827 34.6943 72.8384M32.8776 54.1974L24.2442 48.0593M60.7254 28.898L59.8115 28.316C59.7478 28.2755 59.6713 28.2596 59.5874 28.268M60.7254 28.898L65.2229 23.6572C65.3535 23.505 65.5031 23.3949 65.6474 23.3448L69.0335 22.1682C69.1508 22.1274 69.2574 22.1287 69.3434 22.1682M60.7254 28.898L68.4692 33.8295M68.4692 33.8295L69.1704 34.2761C69.3095 34.3647 69.3722 34.5615 69.3401 34.8085L66.8217 54.1895C66.7937 54.405 66.6961 54.6386 66.5513 54.8369L52.8186 73.6395C52.7096 73.7888 52.5799 73.9096 52.447 73.9856L49.0806 75.9122C48.9484 75.9878 48.8194 76.0155 48.7107 75.9917L34.8812 72.9591C34.8048 72.9424 34.7414 72.9008 34.6943 72.8384M68.4692 33.8295L70.8344 26.2858C70.9018 26.071 70.9069 25.8687 70.8486 25.7216L69.518 22.3631C69.4809 22.2694 69.4204 22.2035 69.3434 22.1682M55.3799 44.4411L56.7932 53.2006C56.8059 53.2788 56.8053 53.3664 56.7917 53.4594L56.1741 57.6745C56.1486 57.8482 56.0786 58.0336 55.9745 58.2026L54.096 61.2534C53.976 61.4483 53.8189 61.6082 53.656 61.7015L47.8658 65.015C47.7075 65.1056 47.5547 65.127 47.436 65.0752L45.4744 64.2204C45.3605 64.1708 45.2853 64.057 45.2618 63.8989L44.7337 60.3469C44.7232 60.2761 44.7232 60.1979 44.7339 60.115L46.0923 49.5331M55.3799 44.4411L55.2646 43.7268C55.0711 42.8343 58.0707 38.7771 58.3608 42.5123C58.3608 42.9582 56.5683 44.5129 55.3799 44.4411ZM46.0923 49.5331L46.1379 49.1779C46.1585 49.0175 46.1401 48.8736 46.0777 48.7768C44.9002 46.9522 42.8849 49.6313 43.0733 51.2608C43.158 51.9926 45.2987 50.879 46.0923 49.5331ZM50.7167 57.5874C50.6983 59.6945 51.2252 59.2219 54.3213 59.0106M50.7167 57.5874C50.6983 59.6926 50.3047 59.9409 47.2085 63.2733M50.7167 57.5874L51.8777 57.1459C53.8763 56.3116 54.7368 54.0422 54.6893 51.3982C54.6869 51.2635 54.6491 51.1528 54.5834 51.0769L53.1358 49.4036C52.5553 48.6212 49.2656 50.3923 48.3948 52.1168L47.035 55.401C46.975 55.5461 46.9409 55.6939 46.9389 55.8253C46.8897 59.0505 47.944 59.7247 49.5556 58.4748L50.7167 57.5874ZM26.2479 66.8211C26.2434 66.8201 26.239 66.819 26.2346 66.8179M32.0654 34.2205L32.9906 32.5834C33.1133 32.3663 33.2831 32.186 33.4606 32.0844L50.7059 22.2155C50.7916 22.1665 50.8754 22.1379 50.953 22.13M32.0654 34.2205L27.675 34.0682C27.5449 34.0637 27.3953 34.1232 27.2507 34.237L23.6936 37.035C23.4594 37.2192 23.2679 37.5216 23.1946 37.823L22.0316 42.6032C21.9846 42.7963 21.9902 42.973 22.0475 43.1022L24.2442 48.0593M24.2442 48.0593L23.5379 49.309C23.4699 49.4293 23.4199 49.5547 23.3901 49.676C23.3578 49.8071 23.3491 49.9334 23.3666 50.0435L24.6715 58.2651L25.9764 66.4867C25.989 66.5663 26.0148 66.6341 26.052 66.6879M60.8846 16.225C60.8644 16.174 60.8373 16.1312 60.8043 16.0971M34.6943 72.8384L26.2346 66.8179M26.052 66.6879L26.2346 66.8179M26.052 66.6879C26.0972 66.7534 26.1592 66.7981 26.2346 66.8179M59.5874 28.268L50.953 22.13M50.953 22.13C51.0373 22.1214 51.1142 22.1372 51.1781 22.1779V22.1779C51.7026 22.5119 52.3927 22.4095 52.7976 21.9377L56.5896 17.5191C56.7201 17.3669 56.8697 17.2568 57.014 17.2067L60.4001 16.0301C60.5175 15.9893 60.624 15.9906 60.71 16.0301M60.71 16.0301L60.8043 16.0971M60.71 16.0301C60.7451 16.0462 60.7767 16.0686 60.8043 16.0971M69.3434 22.1682L60.8043 16.0971" stroke="#333015" stroke-width="1.25" stroke-linecap="round"/>
</g>
<defs>
<filter id="filter0_d_2620_19274" x="9.375" y="7.375" width="74.1387" height="85.25" filterUnits="userSpaceOnUse" color-interpolation-filters="sRGB">
<feFlood flood-opacity="0" result="BackgroundImageFix"/>
<feColorMatrix in="SourceAlpha" type="matrix" values="0 0 0 0 0 0 0 0 0 0 0 0 0 0 0 0 0 0 127 0" result="hardAlpha"/>
<feOffset dy="4"/>
<feGaussianBlur stdDeviation="6"/>
<feComposite in2="hardAlpha" operator="out"/>
<feColorMatrix type="matrix" values="0 0 0 0 0 0 0 0 0 0 0 0 0 0 0 0 0 0 0.25 0"/>
<feBlend mode="normal" in2="BackgroundImageFix" result="effect1_dropShadow_2620_19274"/>
<feBlend mode="normal" in="SourceGraphic" in2="effect1_dropShadow_2620_19274" result="shape"/>
</filter>
</defs>
</svg>
