<svg width="241" height="214" viewBox="0 0 241 214" fill="none" xmlns="http://www.w3.org/2000/svg">
<g filter="url(#filter0_d_2620_21207)">
<path d="M179.391 143.757C154.503 183.404 115.049 203.442 91.2686 188.514C67.4879 173.586 68.3855 129.344 93.2734 89.6974C118.124 50.1104 157.496 30.0729 181.288 44.8736C181.324 44.8959 181.36 44.9183 181.396 44.9408C205.177 59.869 204.279 104.111 179.391 143.757Z" fill="white"/>
<path d="M165.788 135.612C146.337 166.596 117.046 183.224 100.363 172.752C83.6804 162.279 85.9239 128.672 105.374 97.6876C124.824 66.7033 154.116 50.0752 170.799 60.5477C187.481 71.0202 185.238 104.628 165.788 135.612Z" fill="white"/>
<path d="M146.542 86.6491C147.098 85.603 148.387 85.191 149.446 85.7208L158.596 90.2955C159.709 90.852 160.132 92.2251 159.526 93.3118L135.51 136.339C134.922 137.394 133.589 137.77 132.536 137.179L113.988 126.774C112.931 126.181 112.56 124.84 113.161 123.787L117.572 116.068C118.156 115.047 119.443 114.672 120.484 115.22L127.063 118.682C128.127 119.242 129.443 118.836 130.007 117.774L146.542 86.6491Z" fill="#FDEF67"/>
<path d="M91.2686 188.514C67.4879 173.586 68.3855 129.344 93.2734 89.6974C118.124 50.1104 157.496 30.0729 181.288 44.8736L149.392 24.941C125.611 10.0128 86.1573 30.051 61.2694 69.6976C36.3814 109.344 35.4839 153.586 59.2646 168.514L91.2686 188.514Z" fill="#FDEF67"/>
<path d="M91.2686 188.514C115.049 203.442 154.503 183.404 179.391 143.757C204.279 104.111 205.177 59.869 181.396 44.9408M91.2686 188.514C67.4879 173.586 68.3855 129.344 93.2734 89.6974C118.124 50.1104 157.496 30.0729 181.288 44.8736M91.2686 188.514L59.2646 168.514C35.4839 153.586 36.3814 109.344 61.2694 69.6976C86.1573 30.051 125.611 10.0128 149.392 24.941L181.288 44.8736M181.396 44.9408L181.288 44.8736M181.396 44.9408C181.36 44.9183 181.324 44.8959 181.288 44.8736M165.788 135.612C146.337 166.596 117.046 183.224 100.363 172.752C83.6804 162.279 85.9239 128.672 105.374 97.6876C124.824 66.7033 154.116 50.0752 170.799 60.5477C187.481 71.0202 185.238 104.628 165.788 135.612ZM127.063 118.682L120.484 115.22C119.443 114.672 118.156 115.047 117.572 116.068L113.161 123.787C112.56 124.84 112.931 126.181 113.988 126.774L132.536 137.179C133.589 137.77 134.922 137.394 135.51 136.339L159.526 93.3118C160.132 92.2251 159.709 90.852 158.596 90.2955L149.446 85.7208C148.387 85.191 147.098 85.603 146.542 86.6491L130.007 117.774C129.443 118.836 128.127 119.242 127.063 118.682Z" stroke="#0F1B1F" stroke-width="3.5"/>
</g>
<defs>
<filter id="filter0_d_2620_21207" x="0.25" y="-17.251" width="240.16" height="256.957" filterUnits="userSpaceOnUse" color-interpolation-filters="sRGB">
<feFlood flood-opacity="0" result="BackgroundImageFix"/>
<feColorMatrix in="SourceAlpha" type="matrix" values="0 0 0 0 0 0 0 0 0 0 0 0 0 0 0 0 0 0 127 0" result="hardAlpha"/>
<feOffset dy="4.5"/>
<feGaussianBlur stdDeviation="20"/>
<feComposite in2="hardAlpha" operator="out"/>
<feColorMatrix type="matrix" values="0 0 0 0 0 0 0 0 0 0 0 0 0 0 0 0 0 0 0.25 0"/>
<feBlend mode="normal" in2="BackgroundImageFix" result="effect1_dropShadow_2620_21207"/>
<feBlend mode="normal" in="SourceGraphic" in2="effect1_dropShadow_2620_21207" result="shape"/>
</filter>
</defs>
</svg>
