<svg width="350" height="368" viewBox="0 0 350 368" fill="none" xmlns="http://www.w3.org/2000/svg">
<g filter="url(#filter0_d_3866_26215)">
<path fill-rule="evenodd" clip-rule="evenodd" d="M190.284 243.177C191.035 242.723 191.964 243.387 191.778 244.245L177.785 308.826L232.245 219.914C232.333 219.77 232.456 219.65 232.603 219.567L296.495 183.215C296.807 183.037 297 182.705 297 182.345V65.9406L85.3105 188.498V306.598L157.231 263.146L190.284 243.177ZM142.557 206.246L140.453 199.98C139.703 197.75 136.441 199.634 135.691 202.73L133.586 211.426C133.251 212.81 132.289 214.172 131.205 214.798L124.393 218.731C121.968 220.131 120.96 224.297 122.922 224.81L128.432 226.251C129.31 226.481 129.677 227.573 129.342 228.958L127.236 237.654C126.487 240.75 129.127 241.44 131.088 238.661L136.599 230.856C137.477 229.614 138.665 228.928 139.542 229.157L145.053 230.598C147.015 231.112 149.654 227.373 148.905 225.142L146.8 218.877C146.465 217.88 146.833 216.363 147.71 215.12L153.221 207.315C155.183 204.536 154.175 201.535 151.75 202.935L144.938 206.868C143.854 207.495 142.892 207.243 142.557 206.246ZM196.999 174.688L194.894 168.423C194.145 166.192 190.882 168.076 190.132 171.172L188.027 179.868C187.692 181.253 186.731 182.614 185.646 183.24L178.835 187.173C176.41 188.574 175.401 192.739 177.363 193.252L182.874 194.694C183.751 194.923 184.118 196.016 183.783 197.4L181.678 206.096C180.928 209.192 183.568 209.883 185.53 207.104L191.041 199.299C191.918 198.056 193.106 197.37 193.983 197.6L199.494 199.041C201.456 199.554 204.096 195.815 203.346 193.585L201.242 187.32C200.907 186.322 201.274 184.805 202.151 183.563L207.662 175.757C209.624 172.979 208.616 169.978 206.191 171.378L199.379 175.311C198.295 175.937 197.334 175.686 196.999 174.688ZM253.007 143.135L250.902 136.87C250.153 134.639 246.89 136.523 246.14 139.619L244.035 148.315C243.7 149.7 242.739 151.061 241.654 151.687L234.843 155.62C232.418 157.02 231.409 161.186 233.371 161.699L238.882 163.14C239.759 163.37 240.126 164.463 239.791 165.847L237.686 174.543C236.936 177.639 239.576 178.329 241.538 175.551L247.049 167.745C247.926 166.503 249.114 165.817 249.992 166.046L255.502 167.488C257.464 168.001 260.104 164.262 259.354 162.032L257.25 155.766C256.915 154.769 257.282 153.252 258.159 152.009L263.67 144.204C265.632 141.425 264.624 138.424 262.199 139.825L255.387 143.758C254.303 144.384 253.342 144.132 253.007 143.135Z" fill="white"/>
<path d="M85.3105 306.598V188.498L53 167.329V284.889C53 285.226 53.1699 285.541 53.452 285.725L85.3105 306.598Z" fill="#BCE4F3"/>
<path d="M85.3105 188.498L297 65.9406L264.07 47.2805C263.763 47.1066 263.388 47.1073 263.081 47.2823L53 167.329L85.3105 188.498Z" fill="#E4F4FA"/>
<path d="M140.453 199.98L142.557 206.246C142.892 207.243 143.854 207.495 144.938 206.868L151.75 202.935C154.175 201.535 155.183 204.536 153.221 207.315L147.71 215.12C146.833 216.363 146.465 217.88 146.8 218.877L148.905 225.142C149.654 227.373 147.015 231.112 145.053 230.598L139.542 229.157C138.665 228.928 137.477 229.614 136.599 230.856L131.088 238.661C129.127 241.44 126.487 240.75 127.236 237.654L129.342 228.958C129.677 227.573 129.31 226.481 128.432 226.251L122.922 224.81C120.96 224.297 121.968 220.131 124.393 218.731L131.205 214.798C132.289 214.172 133.251 212.81 133.586 211.426L135.691 202.73C136.441 199.634 139.703 197.75 140.453 199.98Z" fill="#79C9E8"/>
<path d="M194.894 168.423L196.999 174.688C197.334 175.686 198.295 175.937 199.379 175.311L206.191 171.378C208.616 169.978 209.624 172.979 207.662 175.757L202.151 183.563C201.274 184.805 200.907 186.322 201.242 187.32L203.346 193.585C204.096 195.815 201.456 199.554 199.494 199.041L193.983 197.6C193.106 197.37 191.918 198.056 191.041 199.299L185.53 207.104C183.568 209.883 180.928 209.192 181.678 206.096L183.783 197.4C184.118 196.016 183.751 194.923 182.874 194.694L177.363 193.252C175.401 192.739 176.41 188.574 178.835 187.173L185.646 183.24C186.731 182.614 187.692 181.253 188.027 179.868L190.132 171.172C190.882 168.076 194.145 166.192 194.894 168.423Z" fill="#79C9E8"/>
<path fill-rule="evenodd" clip-rule="evenodd" d="M177.785 308.826L151.694 294.693C151.308 294.485 151.104 294.049 151.189 293.62L157.231 263.146L190.284 243.177C191.035 242.723 191.964 243.387 191.778 244.245L177.785 308.826Z" fill="#A6DBF0"/>
<path d="M250.902 136.87L253.007 143.135C253.342 144.132 254.303 144.384 255.387 143.758L262.199 139.825C264.624 138.424 265.632 141.425 263.67 144.204L258.159 152.009C257.282 153.252 256.915 154.769 257.25 155.766L259.354 162.032C260.104 164.262 257.464 168.001 255.502 167.488L249.992 166.046C249.114 165.817 247.926 166.503 247.049 167.745L241.538 175.551C239.576 178.329 236.936 177.639 237.686 174.543L239.791 165.847C240.126 164.463 239.759 163.37 238.882 163.14L233.371 161.699C231.409 161.186 232.418 157.02 234.843 155.62L241.654 151.687C242.739 151.061 243.7 149.7 244.035 148.315L246.14 139.619C246.89 136.523 250.153 134.639 250.902 136.87Z" fill="#79C9E8"/>
<path d="M177.785 308.826L191.778 244.245C191.964 243.387 191.035 242.723 190.284 243.177L157.231 263.146M177.785 308.826L232.245 219.914C232.333 219.77 232.456 219.65 232.603 219.567L296.495 183.215C296.807 183.037 297 182.705 297 182.345V65.9406M177.785 308.826L151.694 294.693C151.308 294.485 151.104 294.049 151.189 293.62L157.231 263.146M297 65.9406L85.3105 188.498M297 65.9406L264.07 47.2805C263.763 47.1066 263.388 47.1073 263.081 47.2823L53 167.329M85.3105 188.498V306.598M85.3105 188.498L53 167.329M85.3105 306.598L53.452 285.725C53.1699 285.541 53 285.226 53 284.889V167.329M85.3105 306.598L157.231 263.146M131.205 214.798L124.393 218.731C121.968 220.131 120.96 224.297 122.922 224.81L128.432 226.251C129.31 226.481 129.677 227.573 129.342 228.958L127.236 237.654C126.487 240.75 129.127 241.44 131.088 238.661L136.599 230.856C137.477 229.614 138.665 228.928 139.542 229.157L145.053 230.598C147.015 231.112 149.654 227.373 148.905 225.142L146.8 218.877C146.465 217.88 146.833 216.363 147.71 215.12L153.221 207.315C155.183 204.536 154.175 201.535 151.75 202.935L144.938 206.868C143.854 207.495 142.892 207.243 142.557 206.246L140.453 199.98C139.703 197.75 136.441 199.634 135.691 202.73L133.586 211.426C133.251 212.81 132.29 214.172 131.205 214.798ZM185.646 183.24L178.835 187.173C176.41 188.574 175.401 192.739 177.363 193.252L182.874 194.694C183.751 194.923 184.118 196.016 183.783 197.4L181.678 206.096C180.928 209.192 183.568 209.883 185.53 207.104L191.041 199.299C191.918 198.056 193.106 197.37 193.983 197.6L199.494 199.041C201.456 199.554 204.096 195.815 203.346 193.585L201.242 187.32C200.907 186.322 201.274 184.805 202.151 183.563L207.662 175.757C209.624 172.979 208.616 169.978 206.191 171.378L199.379 175.311C198.295 175.937 197.334 175.686 196.999 174.688L194.894 168.423C194.145 166.192 190.882 168.076 190.132 171.172L188.027 179.868C187.692 181.253 186.731 182.614 185.646 183.24ZM241.654 151.687L234.843 155.62C232.418 157.02 231.409 161.186 233.371 161.699L238.882 163.14C239.759 163.37 240.126 164.463 239.791 165.847L237.686 174.543C236.936 177.639 239.576 178.329 241.538 175.551L247.049 167.745C247.926 166.503 249.114 165.817 249.992 166.046L255.502 167.488C257.464 168.001 260.104 164.262 259.354 162.032L257.25 155.766C256.915 154.769 257.282 153.252 258.159 152.009L263.67 144.204C265.632 141.425 264.624 138.424 262.199 139.825L255.387 143.758C254.303 144.384 253.342 144.132 253.007 143.135L250.902 136.87C250.153 134.639 246.89 136.523 246.14 139.619L244.035 148.315C243.7 149.7 242.739 151.061 241.654 151.687Z" stroke="#0F1B1F" stroke-width="4.5"/>
</g>
<defs>
<filter id="filter0_d_3866_26215" x="0.75" y="0.400391" width="348.5" height="366.921" filterUnits="userSpaceOnUse" color-interpolation-filters="sRGB">
<feFlood flood-opacity="0" result="BackgroundImageFix"/>
<feColorMatrix in="SourceAlpha" type="matrix" values="0 0 0 0 0 0 0 0 0 0 0 0 0 0 0 0 0 0 127 0" result="hardAlpha"/>
<feOffset dy="5.5"/>
<feGaussianBlur stdDeviation="25"/>
<feComposite in2="hardAlpha" operator="out"/>
<feColorMatrix type="matrix" values="0 0 0 0 0 0 0 0 0 0 0 0 0 0 0 0 0 0 0.25 0"/>
<feBlend mode="normal" in2="BackgroundImageFix" result="effect1_dropShadow_3866_26215"/>
<feBlend mode="normal" in="SourceGraphic" in2="effect1_dropShadow_3866_26215" result="shape"/>
</filter>
</defs>
</svg>
