<svg width="219" height="214" viewBox="0 0 219 214" fill="none" xmlns="http://www.w3.org/2000/svg">
<g filter="url(#filter0_d_2620_21209)">
<path d="M157.391 143.757C132.503 183.404 93.0493 203.442 69.2686 188.514C45.4879 173.586 46.3855 129.344 71.2734 89.6974C96.1239 50.1104 135.496 30.0729 159.288 44.8736C159.324 44.8959 159.36 44.9183 159.396 44.9408C183.177 59.869 182.279 104.111 157.391 143.757Z" fill="white"/>
<path d="M143.788 135.612C124.337 166.596 95.0459 183.224 78.3632 172.752C61.6804 162.279 63.9239 128.672 83.3741 97.6876C102.824 66.7033 132.116 50.0752 148.799 60.5477C165.481 71.0202 163.238 104.628 143.788 135.612Z" fill="white"/>
<path d="M124.542 86.6491C125.098 85.603 126.387 85.191 127.446 85.7208L136.596 90.2955C137.709 90.852 138.132 92.2251 137.526 93.3118L113.51 136.339C112.922 137.394 111.589 137.77 110.536 137.179L91.9884 126.774C90.9311 126.181 90.5596 124.84 91.1611 123.787L95.572 116.068C96.1556 115.047 97.4432 114.672 98.484 115.22L105.063 118.682C106.127 119.242 107.443 118.836 108.007 117.774L124.542 86.6491Z" fill="#4CD282"/>
<path d="M69.2686 188.514C45.4879 173.586 46.3855 129.344 71.2734 89.6974C96.1239 50.1104 135.496 30.0729 159.288 44.8736L127.392 24.941C103.611 10.0128 64.1573 30.051 39.2694 69.6976C14.3814 109.344 13.4839 153.586 37.2646 168.514L69.2686 188.514Z" fill="#4CD282"/>
<path d="M69.2686 188.514C93.0493 203.442 132.503 183.404 157.391 143.757C182.279 104.111 183.177 59.869 159.396 44.9408M69.2686 188.514C45.4879 173.586 46.3855 129.344 71.2734 89.6974C96.1239 50.1104 135.496 30.0729 159.288 44.8736M69.2686 188.514L37.2646 168.514C13.4839 153.586 14.3814 109.344 39.2694 69.6976C64.1573 30.051 103.611 10.0128 127.392 24.941L159.288 44.8736M159.396 44.9408L159.288 44.8736M159.396 44.9408C159.36 44.9183 159.324 44.8959 159.288 44.8736M143.788 135.612C124.337 166.596 95.0459 183.224 78.3632 172.752C61.6804 162.279 63.9239 128.672 83.3741 97.6876C102.824 66.7033 132.116 50.0752 148.799 60.5477C165.481 71.0202 163.238 104.628 143.788 135.612ZM105.063 118.682L98.484 115.22C97.4432 114.672 96.1556 115.047 95.572 116.068L91.1611 123.787C90.5596 124.84 90.9311 126.181 91.9884 126.774L110.536 137.179C111.589 137.77 112.922 137.394 113.51 136.339L137.526 93.3118C138.132 92.2251 137.709 90.852 136.596 90.2955L127.446 85.7208C126.387 85.191 125.098 85.603 124.542 86.6491L108.007 117.774C107.443 118.836 106.127 119.242 105.063 118.682Z" stroke="#0F1B1F" stroke-width="3.5"/>
</g>
<defs>
<filter id="filter0_d_2620_21209" x="-21.75" y="-17.251" width="240.16" height="256.957" filterUnits="userSpaceOnUse" color-interpolation-filters="sRGB">
<feFlood flood-opacity="0" result="BackgroundImageFix"/>
<feColorMatrix in="SourceAlpha" type="matrix" values="0 0 0 0 0 0 0 0 0 0 0 0 0 0 0 0 0 0 127 0" result="hardAlpha"/>
<feOffset dy="4.5"/>
<feGaussianBlur stdDeviation="20"/>
<feComposite in2="hardAlpha" operator="out"/>
<feColorMatrix type="matrix" values="0 0 0 0 0 0 0 0 0 0 0 0 0 0 0 0 0 0 0.25 0"/>
<feBlend mode="normal" in2="BackgroundImageFix" result="effect1_dropShadow_2620_21209"/>
<feBlend mode="normal" in="SourceGraphic" in2="effect1_dropShadow_2620_21209" result="shape"/>
</filter>
</defs>
</svg>
