<svg width="298" height="385" viewBox="0 0 298 385" fill="none" xmlns="http://www.w3.org/2000/svg">
<g filter="url(#filter0_d_2620_21212)">
<path d="M109.004 364.455L166.483 331.133V270.37L109.004 299.771V364.455Z" fill="#E4F4FA"/>
<path d="M223.961 297.811L221.915 197.845L166.483 229.207V270.37V331.133L223.961 297.811Z" fill="#E4F4FA"/>
<path d="M278 267.429V123.361L221.013 153.743L221.915 197.845L223.961 297.811L278 267.429Z" fill="#E4F4FA"/>
<path d="M53 332.113L109.004 364.455V299.771L53 270.37V332.113Z" fill="white"/>
<path d="M109.004 197.845V239.988L166.483 270.37V229.207L109.004 197.845Z" fill="white"/>
<path d="M221.013 153.743L166.974 123.361V167.464L221.915 197.845L221.013 153.743Z" fill="white"/>
<path d="M166.974 167.464L109.004 197.845L166.483 229.207L221.915 197.845L166.974 167.464Z" fill="#FDF280"/>
<path d="M109.004 239.988L53 270.37L109.004 299.771L166.483 270.37L109.004 239.988Z" fill="#FDF280"/>
<path d="M221.013 153.743L278 123.361L226.141 96.0863V133.162C226.141 135.455 220.615 135.455 220.615 133.162V96.6081L166.974 123.361L221.013 153.743Z" fill="#FDF280"/>
<path d="M220.615 20.4551V63.5776V96.6081V133.162C220.615 135.455 226.141 135.455 226.141 133.162V96.0863V20.4551H220.615Z" fill="#E4F4FA"/>
<path d="M220.615 20.4551C208.825 34.1759 191.139 23.3952 177.384 40.0562V85.1388C189.174 66.5178 210.79 75.3383 220.615 63.5776V20.4551Z" fill="#79C9E8"/>
<path d="M278 123.361V267.429L223.961 297.811M278 123.361L221.013 153.743M278 123.361L226.141 96.0863M221.013 153.743L166.974 123.361M221.013 153.743L221.915 197.845M166.974 123.361V167.464M166.974 123.361L220.615 96.6081M223.961 297.811L221.915 197.845M223.961 297.811L166.483 331.133M109.004 364.455L53 332.113V270.37M109.004 364.455L166.483 331.133M109.004 364.455V299.771M53 270.37L109.004 239.988M53 270.37L109.004 299.771M109.004 239.988V197.845M109.004 239.988L166.483 270.37M109.004 197.845L166.974 167.464M109.004 197.845L166.483 229.207M166.974 167.464L221.915 197.845M221.915 197.845L166.483 229.207M166.483 331.133V270.37M166.483 229.207V270.37M166.483 270.37L109.004 299.771M220.615 20.4551C208.825 34.1759 191.139 23.3952 177.384 40.0562V85.1388C189.174 66.5178 210.79 75.3383 220.615 63.5776M220.615 20.4551V63.5776M220.615 20.4551H226.141V96.0863M220.615 63.5776V96.6081M226.141 96.0863V133.162C226.141 135.455 220.615 135.455 220.615 133.162V96.6081" stroke="#0F1B1F" stroke-width="4.5"/>
</g>
<defs>
<filter id="filter0_d_2620_21212" x="0.75" y="-26.2949" width="329.5" height="448.85" filterUnits="userSpaceOnUse" color-interpolation-filters="sRGB">
<feFlood flood-opacity="0" result="BackgroundImageFix"/>
<feColorMatrix in="SourceAlpha" type="matrix" values="0 0 0 0 0 0 0 0 0 0 0 0 0 0 0 0 0 0 127 0" result="hardAlpha"/>
<feOffset dy="5.5"/>
<feGaussianBlur stdDeviation="25"/>
<feComposite in2="hardAlpha" operator="out"/>
<feColorMatrix type="matrix" values="0 0 0 0 0 0 0 0 0 0 0 0 0 0 0 0 0 0 0.25 0"/>
<feBlend mode="normal" in2="BackgroundImageFix" result="effect1_dropShadow_2620_21212"/>
<feBlend mode="normal" in="SourceGraphic" in2="effect1_dropShadow_2620_21212" result="shape"/>
</filter>
</defs>
</svg>
