<svg width="330" height="385" viewBox="0 0 330 385" fill="none" xmlns="http://www.w3.org/2000/svg">
<g filter="url(#filter0_d_2620_21213)">
<path d="M204.652 144.089L189.348 99.6361L228.304 48.2379L181 71.8533L174.043 53.0999L167.087 34.3465L154.565 88.5229L108.652 114.917L121.174 117.802L144.826 123.251L130.913 182.984L149 157.568L168.478 130.197L175.435 132.869L204.652 144.089Z" fill="#FDEF67"/>
<path d="M53 239.939V263.555L161.522 327.455V303.84L53 239.939Z" fill="#BCE4F3"/>
<path d="M161.522 327.455L277 260.776V238.939L161.522 303.84V327.455Z" fill="#8FD2EC"/>
<path d="M161.522 303.84L277 238.939L242.217 220.491V244.496L161.522 288.559L89.1739 244.496V220.491L53 239.939L161.522 303.84Z" fill="#D2EDF7"/>
<path d="M161.522 231.604V288.559L242.217 244.496V220.491V187.152L161.522 231.604Z" fill="#8FD2EC"/>
<path d="M161.522 288.559V231.604L89.1739 189.93V220.491V244.496L161.522 288.559Z" fill="#BCE4F3"/>
<path d="M89.1739 189.93L161.522 231.604L242.217 187.152L175.435 148.256V196.876C175.435 203.822 149 205.211 149 196.876V157.568L130.913 182.984L115.609 174.389L89.1739 189.93Z" fill="#D2EDF7"/>
<path d="M149 196.876C149 205.211 175.435 203.822 175.435 196.876V148.256V132.869L168.478 130.197L149 157.568V196.876Z" fill="white"/>
<path d="M130.913 182.984L144.826 123.251L121.174 117.802L108.652 170.482L115.609 174.389L130.913 182.984Z" fill="#FEF7B3"/>
<path d="M154.565 88.5229L167.087 34.3465L144.826 20.4551L130.913 77.4098L154.565 88.5229Z" fill="#FEFACC"/>
<path d="M181 71.8533L228.304 48.2379L207.435 37.1248L174.043 53.0999L181 71.8533Z" fill="#FEFACC"/>
<path d="M108.652 114.917L154.565 88.5229L130.913 77.4098L86.3913 103.803L108.652 114.917Z" fill="#FEF7B3"/>
<path d="M53 239.939V263.555L161.522 327.455M53 239.939L161.522 303.84M53 239.939L89.1739 220.491M161.522 327.455L277 260.776V238.939M161.522 327.455V303.84M277 238.939L161.522 303.84M277 238.939L242.217 220.491M161.522 288.559V231.604M161.522 288.559L89.1739 244.496V220.491M161.522 288.559L242.217 244.496V220.491M161.522 231.604L89.1739 189.93M161.522 231.604L242.217 187.152M89.1739 189.93V220.491M89.1739 189.93L115.609 174.389M242.217 187.152V220.491M242.217 187.152L175.435 148.256M228.304 48.2379L189.348 99.6361L204.652 144.089L175.435 132.869M228.304 48.2379L181 71.8533L174.043 53.0999M228.304 48.2379L207.435 37.1248L174.043 53.0999M167.087 34.3465L154.565 88.5229M167.087 34.3465L144.826 20.4551L130.913 77.4098M167.087 34.3465L174.043 53.0999M154.565 88.5229L108.652 114.917M154.565 88.5229L130.913 77.4098M108.652 114.917L121.174 117.802M108.652 114.917L86.3913 103.803L130.913 77.4098M130.913 182.984L144.826 123.251L121.174 117.802M130.913 182.984L149 157.568M130.913 182.984L115.609 174.389M121.174 117.802L108.652 170.482L115.609 174.389M175.435 132.869L168.478 130.197L149 157.568M175.435 132.869V148.256M149 157.568V196.876C149 205.211 175.435 203.822 175.435 196.876V148.256M179.609 242.718V259.387L225.522 234.383V217.713" stroke="#0F1B1F" stroke-width="4.5"/>
</g>
<defs>
<filter id="filter0_d_2620_21213" x="0.75" y="-27.6006" width="328.5" height="413.16" filterUnits="userSpaceOnUse" color-interpolation-filters="sRGB">
<feFlood flood-opacity="0" result="BackgroundImageFix"/>
<feColorMatrix in="SourceAlpha" type="matrix" values="0 0 0 0 0 0 0 0 0 0 0 0 0 0 0 0 0 0 127 0" result="hardAlpha"/>
<feOffset dy="5.5"/>
<feGaussianBlur stdDeviation="25"/>
<feComposite in2="hardAlpha" operator="out"/>
<feColorMatrix type="matrix" values="0 0 0 0 0 0 0 0 0 0 0 0 0 0 0 0 0 0 0.25 0"/>
<feBlend mode="normal" in2="BackgroundImageFix" result="effect1_dropShadow_2620_21213"/>
<feBlend mode="normal" in="SourceGraphic" in2="effect1_dropShadow_2620_21213" result="shape"/>
</filter>
</defs>
</svg>
