<svg width="317" height="358" viewBox="0 0 317 358" fill="none" xmlns="http://www.w3.org/2000/svg">
<g filter="url(#filter0_d_2620_21214)">
<path fill-rule="evenodd" clip-rule="evenodd" d="M157.284 233.632C158.035 233.178 158.964 233.842 158.778 234.7L144.785 299.282L199.245 210.369C199.333 210.225 199.456 210.105 199.603 210.022L263.495 173.67C263.807 173.492 264 173.16 264 172.8V56.3957L52.3105 178.953V297.053L124.231 253.601L157.284 233.632ZM109.557 196.701L107.453 190.436C106.703 188.205 103.441 190.089 102.691 193.185L100.586 201.881C100.251 203.265 99.2895 204.627 98.205 205.253L91.3933 209.186C88.9683 210.586 87.9599 214.752 89.9217 215.265L95.4323 216.706C96.3097 216.936 96.6767 218.028 96.3416 219.413L94.2364 228.109C93.4869 231.205 96.1265 231.895 98.0885 229.117L103.599 221.311C104.477 220.069 105.665 219.383 106.542 219.612L112.053 221.054C114.015 221.567 116.654 217.828 115.905 215.597L113.8 209.332C113.465 208.335 113.833 206.818 114.71 205.575L120.221 197.77C122.183 194.991 121.175 191.99 118.75 193.39L111.938 197.323C110.854 197.95 109.892 197.698 109.557 196.701ZM163.999 165.143L161.894 158.878C161.145 156.647 157.882 158.531 157.132 161.627L155.027 170.323C154.692 171.708 153.731 173.069 152.646 173.695L145.835 177.628C143.41 179.029 142.401 183.194 144.363 183.707L149.874 185.149C150.751 185.378 151.118 186.471 150.783 187.855L148.678 196.551C147.928 199.647 150.568 200.338 152.53 197.559L158.041 189.754C158.918 188.511 160.106 187.825 160.983 188.055L166.494 189.496C168.456 190.009 171.096 186.27 170.346 184.04L168.242 177.775C167.907 176.777 168.274 175.26 169.151 174.018L174.662 166.213C176.624 163.434 175.616 160.433 173.191 161.833L166.379 165.766C165.295 166.392 164.334 166.141 163.999 165.143ZM220.007 133.59L217.902 127.325C217.153 125.094 213.89 126.978 213.14 130.074L211.035 138.77C210.7 140.155 209.739 141.516 208.654 142.142L201.843 146.075C199.418 147.475 198.409 151.641 200.371 152.154L205.882 153.595C206.759 153.825 207.126 154.918 206.791 156.302L204.686 164.998C203.936 168.094 206.576 168.784 208.538 166.006L214.049 158.201C214.926 156.958 216.114 156.272 216.992 156.501L222.502 157.943C224.464 158.456 227.104 154.717 226.354 152.487L224.25 146.221C223.915 145.224 224.282 143.707 225.159 142.464L230.67 134.659C232.632 131.881 231.624 128.879 229.199 130.28L222.387 134.213C221.303 134.839 220.342 134.587 220.007 133.59Z" fill="white"/>
<path d="M52.3105 297.053V178.953L20 157.784V275.344C20 275.681 20.1699 275.996 20.452 276.18L52.3105 297.053Z" fill="#BCE4F3"/>
<path d="M52.3105 178.953L264 56.3957L231.07 37.7356C230.763 37.5617 230.388 37.5624 230.081 37.7374L20 157.784L52.3105 178.953Z" fill="#E4F4FA"/>
<path d="M107.453 190.436L109.557 196.701C109.892 197.698 110.854 197.95 111.938 197.323L118.75 193.39C121.175 191.99 122.183 194.991 120.221 197.77L114.71 205.575C113.833 206.818 113.465 208.335 113.8 209.332L115.905 215.597C116.654 217.828 114.015 221.567 112.053 221.054L106.542 219.612C105.665 219.383 104.477 220.069 103.599 221.311L98.0885 229.117C96.1265 231.895 93.4869 231.205 94.2364 228.109L96.3416 219.413C96.6767 218.028 96.3097 216.936 95.4323 216.706L89.9217 215.265C87.9599 214.752 88.9683 210.586 91.3933 209.186L98.205 205.253C99.2895 204.627 100.251 203.265 100.586 201.881L102.691 193.185C103.441 190.089 106.703 188.205 107.453 190.436Z" fill="#79C9E8"/>
<path d="M161.894 158.878L163.999 165.143C164.334 166.141 165.295 166.392 166.379 165.766L173.191 161.833C175.616 160.433 176.624 163.434 174.662 166.213L169.151 174.018C168.274 175.26 167.907 176.777 168.242 177.775L170.346 184.04C171.096 186.27 168.456 190.009 166.494 189.496L160.983 188.055C160.106 187.825 158.918 188.511 158.041 189.754L152.53 197.559C150.568 200.338 147.928 199.647 148.678 196.551L150.783 187.855C151.118 186.471 150.751 185.378 149.874 185.149L144.363 183.707C142.401 183.194 143.41 179.029 145.835 177.628L152.646 173.695C153.731 173.069 154.692 171.708 155.027 170.323L157.132 161.627C157.882 158.531 161.145 156.647 161.894 158.878Z" fill="#79C9E8"/>
<path fill-rule="evenodd" clip-rule="evenodd" d="M144.785 299.282L118.694 285.148C118.308 284.94 118.104 284.505 118.189 284.075L124.231 253.601L157.284 233.632C158.035 233.178 158.964 233.842 158.778 234.7L144.785 299.282Z" fill="#A6DBF0"/>
<path d="M217.902 127.325L220.007 133.59C220.342 134.587 221.303 134.839 222.387 134.213L229.199 130.28C231.624 128.879 232.632 131.881 230.67 134.659L225.159 142.464C224.282 143.707 223.915 145.224 224.25 146.221L226.354 152.487C227.104 154.717 224.464 158.456 222.502 157.943L216.992 156.501C216.114 156.272 214.926 156.958 214.049 158.201L208.538 166.006C206.576 168.784 203.936 168.094 204.686 164.998L206.791 156.302C207.126 154.918 206.759 153.825 205.882 153.595L200.371 152.154C198.409 151.641 199.418 147.475 201.843 146.075L208.654 142.142C209.739 141.516 210.7 140.155 211.035 138.77L213.14 130.074C213.89 126.978 217.153 125.094 217.902 127.325Z" fill="#79C9E8"/>
<path d="M144.785 299.282L158.778 234.7C158.964 233.842 158.035 233.178 157.284 233.632L124.231 253.601M144.785 299.282L199.245 210.369C199.333 210.225 199.456 210.105 199.603 210.022L263.495 173.67C263.807 173.492 264 173.16 264 172.8V56.3957M144.785 299.282L118.694 285.148C118.308 284.94 118.104 284.505 118.189 284.075L124.231 253.601M264 56.3957L52.3105 178.953M264 56.3957L231.07 37.7356C230.763 37.5617 230.388 37.5624 230.081 37.7374L20 157.784M52.3105 178.953V297.053M52.3105 178.953L20 157.784M52.3105 297.053L20.452 276.18C20.1699 275.996 20 275.681 20 275.344V157.784M52.3105 297.053L124.231 253.601M98.205 205.253L91.3933 209.186C88.9683 210.586 87.9599 214.752 89.9217 215.265L95.4323 216.706C96.3097 216.936 96.6767 218.028 96.3416 219.413L94.2364 228.109C93.4869 231.205 96.1265 231.895 98.0885 229.117L103.599 221.311C104.477 220.069 105.665 219.383 106.542 219.612L112.053 221.054C114.015 221.567 116.654 217.828 115.905 215.597L113.8 209.332C113.465 208.335 113.833 206.818 114.71 205.575L120.221 197.77C122.183 194.991 121.175 191.99 118.75 193.39L111.938 197.323C110.854 197.95 109.892 197.698 109.557 196.701L107.453 190.436C106.703 188.205 103.441 190.089 102.691 193.185L100.586 201.881C100.251 203.265 99.2895 204.627 98.205 205.253ZM152.646 173.695L145.835 177.628C143.41 179.029 142.401 183.194 144.363 183.707L149.874 185.149C150.751 185.378 151.118 186.471 150.783 187.855L148.678 196.551C147.928 199.647 150.568 200.338 152.53 197.559L158.041 189.754C158.918 188.511 160.106 187.825 160.983 188.055L166.494 189.496C168.456 190.009 171.096 186.27 170.346 184.04L168.242 177.775C167.907 176.777 168.274 175.26 169.151 174.018L174.662 166.213C176.624 163.434 175.616 160.433 173.191 161.833L166.379 165.766C165.295 166.392 164.334 166.141 163.999 165.143L161.894 158.878C161.145 156.647 157.882 158.531 157.132 161.627L155.027 170.323C154.692 171.708 153.731 173.069 152.646 173.695ZM208.654 142.142L201.843 146.075C199.418 147.475 198.409 151.641 200.371 152.154L205.882 153.595C206.759 153.825 207.126 154.918 206.791 156.302L204.686 164.998C203.936 168.094 206.576 168.784 208.538 166.006L214.049 158.201C214.926 156.958 216.114 156.272 216.992 156.501L222.502 157.943C224.464 158.456 227.104 154.717 226.354 152.487L224.25 146.221C223.915 145.224 224.282 143.707 225.159 142.464L230.67 134.659C232.632 131.881 231.624 128.879 229.199 130.28L222.387 134.213C221.303 134.839 220.342 134.587 220.007 133.59L217.902 127.325C217.153 125.094 213.89 126.978 213.14 130.074L211.035 138.77C210.7 140.155 209.739 141.516 208.654 142.142Z" stroke="#0F1B1F" stroke-width="4.5"/>
</g>
<defs>
<filter id="filter0_d_2620_21214" x="-32.25" y="-9.14453" width="348.5" height="366.921" filterUnits="userSpaceOnUse" color-interpolation-filters="sRGB">
<feFlood flood-opacity="0" result="BackgroundImageFix"/>
<feColorMatrix in="SourceAlpha" type="matrix" values="0 0 0 0 0 0 0 0 0 0 0 0 0 0 0 0 0 0 127 0" result="hardAlpha"/>
<feOffset dy="5.5"/>
<feGaussianBlur stdDeviation="25"/>
<feComposite in2="hardAlpha" operator="out"/>
<feColorMatrix type="matrix" values="0 0 0 0 0 0 0 0 0 0 0 0 0 0 0 0 0 0 0.25 0"/>
<feBlend mode="normal" in2="BackgroundImageFix" result="effect1_dropShadow_2620_21214"/>
<feBlend mode="normal" in="SourceGraphic" in2="effect1_dropShadow_2620_21214" result="shape"/>
</filter>
</defs>
</svg>
