<svg width="219" height="214" viewBox="0 0 219 214" fill="none" xmlns="http://www.w3.org/2000/svg">
<g filter="url(#filter0_d_2620_21208)">
<path d="M179.391 143.757C154.503 183.404 115.049 203.442 91.2686 188.514C67.4879 173.586 68.3855 129.344 93.2734 89.6974C118.124 50.1104 157.496 30.0729 181.288 44.8736C181.324 44.8959 181.36 44.9183 181.396 44.9408C205.177 59.869 204.279 104.111 179.391 143.757Z" fill="white"/>
<path d="M165.788 135.612C146.337 166.596 117.046 183.224 100.363 172.752C83.6804 162.279 85.9239 128.672 105.374 97.6876C124.824 66.7033 154.116 50.0752 170.799 60.5477C187.481 71.0202 185.238 104.628 165.788 135.612Z" fill="white"/>
<path d="M91.2686 188.514C67.4879 173.586 68.3855 129.344 93.2734 89.6974C118.124 50.1104 157.496 30.0729 181.288 44.8736L149.392 24.941C125.611 10.0128 86.1573 30.051 61.2694 69.6976C36.3814 109.344 35.4839 153.586 59.2646 168.514L91.2686 188.514Z" fill="#BE9AEC"/>
<path d="M112.897 110.089C112.921 108.496 114.404 107.329 115.958 107.679L142.187 113.594C144.02 114.007 144.765 116.215 143.556 117.655L116.744 149.593C115.226 151.401 112.277 150.302 112.314 147.941L112.897 110.089Z" fill="#BE9AEC"/>
<path d="M151.205 86.5395C151.205 85.2453 152.416 84.2919 153.674 84.5952L158.674 85.8006C159.572 86.0172 160.205 86.8209 160.205 87.7449V118.429C160.205 118.896 160.042 119.347 159.744 119.706L154.744 125.734C153.549 127.175 151.205 126.329 151.205 124.457V86.5395Z" fill="#BE9AEC"/>
<path d="M91.2686 188.514C115.049 203.442 154.503 183.404 179.391 143.757C204.279 104.111 205.177 59.869 181.396 44.9408M91.2686 188.514C67.4879 173.586 68.3855 129.344 93.2734 89.6974C118.124 50.1104 157.496 30.0729 181.288 44.8736M91.2686 188.514L59.2646 168.514C35.4839 153.586 36.3814 109.344 61.2694 69.6976C86.1573 30.051 125.611 10.0128 149.392 24.941L181.288 44.8736M181.396 44.9408L181.288 44.8736M181.396 44.9408C181.36 44.9183 181.324 44.8959 181.288 44.8736M165.788 135.612C146.337 166.596 117.046 183.224 100.363 172.752C83.6804 162.279 85.9239 128.672 105.374 97.6876C124.824 66.7033 154.116 50.0752 170.799 60.5477C187.481 71.0202 185.238 104.628 165.788 135.612ZM116.744 149.593L143.556 117.655C144.765 116.215 144.02 114.007 142.187 113.594L115.958 107.679C114.404 107.329 112.921 108.496 112.897 110.089L112.314 147.941C112.277 150.302 115.226 151.401 116.744 149.593ZM154.744 125.734L159.744 119.706C160.042 119.347 160.205 118.896 160.205 118.429V87.7449C160.205 86.8209 159.572 86.0172 158.674 85.8006L153.674 84.5952C152.416 84.2919 151.205 85.2453 151.205 86.5395V124.457C151.205 126.329 153.549 127.175 154.744 125.734Z" stroke="#0F1B1F" stroke-width="3.5"/>
</g>
<defs>
<filter id="filter0_d_2620_21208" x="0.25" y="-17.251" width="240.16" height="256.957" filterUnits="userSpaceOnUse" color-interpolation-filters="sRGB">
<feFlood flood-opacity="0" result="BackgroundImageFix"/>
<feColorMatrix in="SourceAlpha" type="matrix" values="0 0 0 0 0 0 0 0 0 0 0 0 0 0 0 0 0 0 127 0" result="hardAlpha"/>
<feOffset dy="4.5"/>
<feGaussianBlur stdDeviation="20"/>
<feComposite in2="hardAlpha" operator="out"/>
<feColorMatrix type="matrix" values="0 0 0 0 0 0 0 0 0 0 0 0 0 0 0 0 0 0 0.25 0"/>
<feBlend mode="normal" in2="BackgroundImageFix" result="effect1_dropShadow_2620_21208"/>
<feBlend mode="normal" in="SourceGraphic" in2="effect1_dropShadow_2620_21208" result="shape"/>
</filter>
</defs>
</svg>
