<svg width="181" height="225" viewBox="0 0 181 225" fill="none" xmlns="http://www.w3.org/2000/svg">
<g filter="url(#filter0_d_2620_21224)">
<path d="M93.588 70.6994C94.7364 78.9286 92.6942 85.9495 87.5054 88.9415C86.2046 89.6916 84.7832 90.144 83.2799 90.3204C84.0182 91.6026 85.0474 92.6741 86.351 93.4258C91.1477 96.1917 97.8425 93.5794 101.304 87.5911C104.766 81.6027 103.684 74.506 98.8871 71.7401C97.2708 70.8081 95.439 70.4867 93.588 70.6994Z" fill="white"/>
<path d="M83.9338 77.5748C81.4129 81.9358 81.3017 86.8845 83.2799 90.3204C84.7832 90.144 86.2046 89.6916 87.5054 88.9415C92.6942 85.9495 94.7364 78.9286 93.588 70.6994C89.9457 71.1179 86.2291 73.6043 83.9338 77.5748Z" fill="white"/>
<path d="M58.4436 110.015C63.2404 112.781 69.9352 110.169 73.3969 104.18C76.8586 98.1921 75.7764 91.0953 70.9797 88.3294C69.6997 87.5914 68.2847 87.2363 66.8319 87.2261C67.5622 94.8324 65.4662 101.221 60.5806 104.039C58.8137 105.057 56.8241 105.527 54.7092 105.502C55.4288 107.409 56.6872 109.002 58.4436 110.015Z" fill="white"/>
<path d="M54.7092 105.502C56.8241 105.527 58.8137 105.057 60.5806 104.039C65.4662 101.221 67.5622 94.8324 66.8319 87.2261C62.8403 87.198 58.5644 89.7738 56.0264 94.1642C53.8323 97.9598 53.4636 102.201 54.7092 105.502Z" fill="white"/>
<path d="M116.102 72.175C121.288 69.1843 123.331 62.1679 122.186 53.943C118.232 53.9723 114.023 56.5394 111.513 60.8811C108.991 65.2438 108.881 70.1948 110.862 73.6309C112.741 73.564 114.512 73.0919 116.102 72.175Z" fill="white"/>
<path d="M113.93 76.7321C118.727 79.498 125.422 76.8857 128.884 70.8973C132.345 64.909 131.263 57.8122 126.466 55.0463C125.147 54.2858 123.685 53.9319 122.186 53.943C123.331 62.1679 121.288 69.1843 116.102 72.175C114.512 73.0919 112.741 73.564 110.862 73.6309C111.6 74.9113 112.628 75.9813 113.93 76.7321Z" fill="white"/>
<path d="M64.7621 78.1258L43.4006 90.1031V135.176L138.675 80.9216V36.6833L120.495 46.8767C121.304 49.285 121.868 51.6606 122.186 53.943C123.685 53.9319 125.147 54.2858 126.466 55.0463C131.263 57.8122 132.345 64.909 128.884 70.8973C125.422 76.8857 118.727 79.498 113.93 76.7321C112.628 75.9813 111.6 74.9113 110.862 73.6309C108.881 70.1948 108.991 65.2438 111.513 60.8811C114.023 56.5394 118.232 53.9723 122.186 53.943C121.868 51.6606 121.304 49.285 120.495 46.8767L91.6869 63.0291C92.6096 65.644 93.2429 68.2263 93.588 70.6994C95.439 70.4867 97.2708 70.8081 98.8871 71.7401C103.684 74.506 104.766 81.6027 101.304 87.5911C97.8425 93.5794 91.1477 96.1917 86.351 93.4258C85.0474 92.6741 84.0182 91.6026 83.2799 90.3204C81.3017 86.8845 81.4129 81.9358 83.9338 77.5748C86.2291 73.6043 89.9457 71.1179 93.588 70.6994C93.2429 68.2263 92.6096 65.644 91.6869 63.0291L64.7621 78.1258C65.8642 81.2492 66.5535 84.3261 66.8319 87.2261C68.2847 87.2363 69.6997 87.5914 70.9797 88.3294C75.7764 91.0953 76.8586 98.1921 73.3969 104.18C69.9352 110.169 63.2404 112.781 58.4436 110.015C56.6872 109.002 55.4288 107.409 54.7092 105.502C53.4636 102.201 53.8323 97.9598 56.0264 94.1642C58.5644 89.7738 62.8403 87.198 66.8319 87.2261C66.5535 84.3261 65.8642 81.2492 64.7621 78.1258Z" fill="white"/>
<path fill-rule="evenodd" clip-rule="evenodd" d="M43.4006 204.455L138.675 149.366V80.9216L43.4006 135.176V204.455ZM109.424 125.995V109.301L124.467 100.954V116.813L109.424 125.995ZM82.6802 141.019V124.325L97.7235 115.978V131.837L82.6802 141.019ZM55.1009 156.878V140.184L70.1442 131.837V147.696L55.1009 156.878ZM55.9367 183.588V166.894L70.9799 158.547V174.406L55.9367 183.588ZM82.6802 169.398V152.705L97.7235 144.358V160.217L82.6802 169.398ZM109.424 154.374V137.68L124.467 129.333V145.192L109.424 154.374Z" fill="white"/>
<path d="M43.4006 90.1031L20 76.7482V151.035V152.455V165.225V166.894V191.1L43.4006 204.455V135.176V90.1031Z" fill="white"/>
<path d="M55.1009 140.184V156.878L70.1442 147.696V131.837L55.1009 140.184Z" fill="#BE9AEC"/>
<path d="M82.6802 124.325V141.019L97.7235 131.837V115.978L82.6802 124.325Z" fill="#79C9E8"/>
<path d="M109.424 109.301V125.995L124.467 116.813V100.954L109.424 109.301Z" fill="#FDEF67"/>
<path d="M109.424 137.68V154.374L124.467 145.192V129.333L109.424 137.68Z" fill="#79C9E8"/>
<path d="M82.6802 152.705V169.398L97.7235 160.217V144.358L82.6802 152.705Z" fill="#BE9AEC"/>
<path d="M55.9367 166.894V183.588L70.9799 174.406V158.547L55.9367 166.894Z" fill="#FDEF67"/>
<path d="M81.0638 40.8094L77.6552 42.8155C81.4808 45.8708 85.1044 50.0684 88.0325 55.1337C89.543 57.7467 90.7608 60.4043 91.6869 63.0291L120.495 46.8767C119.545 44.053 118.257 41.1842 116.629 38.3672C113.689 33.2816 110.048 29.0708 106.205 26.0124L81.0638 40.8094Z" fill="white"/>
<path d="M138.675 36.6833L113.602 21.6589L106.205 26.0124C110.048 29.0708 113.689 33.2816 116.629 38.3672C118.257 41.1842 119.545 44.053 120.495 46.8767L138.675 36.6833Z" fill="white"/>
<path d="M77.6552 42.8155L52.4769 57.6341L51.2645 58.3476C54.8926 61.3614 58.3162 65.4017 61.1078 70.2308C62.6182 72.8436 63.8359 75.5011 64.7621 78.1258L91.6869 63.0291C90.7608 60.4043 89.543 57.7467 88.0325 55.1337C85.1044 50.0684 81.4808 45.8708 77.6552 42.8155Z" fill="white"/>
<path d="M20 76.7482L43.4006 90.1031L64.7621 78.1258C63.8359 75.5011 62.6182 72.8436 61.1078 70.2308C58.3162 65.4017 54.8926 61.3614 51.2645 58.3476L25.6681 73.4122L20 76.7482Z" fill="white"/>
<path d="M43.4006 204.455L138.675 149.366V80.9216M43.4006 204.455L20 191.1M43.4006 204.455V135.176M43.4006 90.1031L20 76.7482M43.4006 90.1031V135.176M43.4006 90.1031L64.7621 78.1258M138.675 36.6833L113.602 21.6589L106.205 26.0124M138.675 36.6833V80.9216M138.675 36.6833L120.495 46.8767M20 76.7482L25.6681 73.4122M20 76.7482V152.455M20 76.7482V151.035M20 191.1V165.225M20 191.1V166.894M138.675 80.9216L43.4006 135.176M25.6681 73.4122C24.0799 64.5912 26.0508 56.9416 31.5289 53.7828C36.9496 50.6571 44.466 52.7002 51.2645 58.3476M25.6681 73.4122L51.2645 58.3476M54.7092 105.502C56.8241 105.527 58.8137 105.057 60.5806 104.039C65.4662 101.221 67.5622 94.8324 66.8319 87.2261M54.7092 105.502C55.4288 107.409 56.6872 109.002 58.4436 110.015C63.2404 112.781 69.9352 110.169 73.3969 104.18C76.8586 98.1921 75.7764 91.0953 70.9797 88.3294C69.6997 87.5914 68.2847 87.2363 66.8319 87.2261M54.7092 105.502C53.4636 102.201 53.8323 97.9598 56.0264 94.1642C58.5644 89.7738 62.8403 87.198 66.8319 87.2261M83.2799 90.3204C84.0182 91.6026 85.0474 92.6741 86.351 93.4258C91.1477 96.1917 97.8425 93.5794 101.304 87.5911C104.766 81.6027 103.684 74.506 98.8871 71.7401C97.2708 70.8081 95.439 70.4867 93.588 70.6994M83.2799 90.3204C81.3017 86.8845 81.4129 81.9358 83.9338 77.5748C86.2291 73.6043 89.9457 71.1179 93.588 70.6994M83.2799 90.3204C84.7832 90.144 86.2046 89.6916 87.5054 88.9415C92.6942 85.9495 94.7364 78.9286 93.588 70.6994M52.4769 57.6341C51.1088 49.1019 53.117 41.7629 58.4536 38.6857C63.7328 35.6416 70.9996 37.4999 77.6552 42.8155M52.4769 57.6341L77.6552 42.8155M52.4769 57.6341L51.2645 58.3476M110.862 73.6309C111.6 74.9113 112.628 75.9813 113.93 76.7321C118.727 79.498 125.422 76.8857 128.884 70.8973C132.345 64.909 131.263 57.8122 126.466 55.0463C125.147 54.2858 123.685 53.9319 122.186 53.943M110.862 73.6309C108.881 70.1948 108.991 65.2438 111.513 60.8811C114.023 56.5394 118.232 53.9723 122.186 53.943M110.862 73.6309C112.741 73.564 114.512 73.0919 116.102 72.175C121.288 69.1843 123.331 62.1679 122.186 53.943M81.0638 40.8094C79.7142 32.3021 81.7254 24.9895 87.0499 21.9192C92.3169 18.8822 99.5624 20.7249 106.205 26.0124M81.0638 40.8094L77.6552 42.8155M81.0638 40.8094L106.205 26.0124M20 151.035V166.894M20 151.035V152.455M20 166.894V165.225M20 165.225V152.455M66.8319 87.2261C66.5535 84.3261 65.8642 81.2492 64.7621 78.1258M93.588 70.6994C93.2429 68.2263 92.6096 65.644 91.6869 63.0291M122.186 53.943C121.868 51.6606 121.304 49.285 120.495 46.8767M77.6552 42.8155C81.4808 45.8708 85.1044 50.0684 88.0325 55.1337C89.543 57.7467 90.7608 60.4043 91.6869 63.0291M106.205 26.0124C110.048 29.0708 113.689 33.2816 116.629 38.3672C118.257 41.1842 119.545 44.053 120.495 46.8767M51.2645 58.3476C54.8926 61.3614 58.3162 65.4017 61.1078 70.2308C62.6182 72.8436 63.8359 75.5011 64.7621 78.1258M64.7621 78.1258L91.6869 63.0291M120.495 46.8767L91.6869 63.0291M109.424 109.301V125.995L124.467 116.813V100.954L109.424 109.301ZM82.6802 124.325V141.019L97.7235 131.837V115.978L82.6802 124.325ZM55.1009 140.184V156.878L70.1442 147.696V131.837L55.1009 140.184ZM55.9367 166.894V183.588L70.9799 174.406V158.547L55.9367 166.894ZM82.6802 152.705V169.398L97.7235 160.217V144.358L82.6802 152.705ZM109.424 137.68V154.374L124.467 145.192V129.333L109.424 137.68Z" stroke="#0F1B1F" stroke-width="3.5"/>
</g>
<defs>
<filter id="filter0_d_2620_21224" x="-21.75" y="-16.8008" width="202.175" height="267.774" filterUnits="userSpaceOnUse" color-interpolation-filters="sRGB">
<feFlood flood-opacity="0" result="BackgroundImageFix"/>
<feColorMatrix in="SourceAlpha" type="matrix" values="0 0 0 0 0 0 0 0 0 0 0 0 0 0 0 0 0 0 127 0" result="hardAlpha"/>
<feOffset dy="4.5"/>
<feGaussianBlur stdDeviation="20"/>
<feComposite in2="hardAlpha" operator="out"/>
<feColorMatrix type="matrix" values="0 0 0 0 0 0 0 0 0 0 0 0 0 0 0 0 0 0 0.25 0"/>
<feBlend mode="normal" in2="BackgroundImageFix" result="effect1_dropShadow_2620_21224"/>
<feBlend mode="normal" in="SourceGraphic" in2="effect1_dropShadow_2620_21224" result="shape"/>
</filter>
</defs>
</svg>
