<svg width="138" height="148" viewBox="0 0 138 148" fill="none" xmlns="http://www.w3.org/2000/svg">
<g filter="url(#filter0_d_2620_21223)">
<path d="M58 83.4551L41 111.455L35 109.955L56.5 75.9551L71.5 84.9551L89.5 56.4551L85.5 53.4551L82.5 51.4551L106 30.4551L101 63.4551L94 58.9551L73.5 92.4551L58 83.4551Z" fill="#4CD282"/>
<path d="M82.5 51.4551L106 30.4551L101.5 27.4551L78 48.4551L82.5 51.4551Z" fill="#DBF6E6"/>
<path d="M71.5 84.9551L89.5 56.4551L85.5 53.4551L66.8961 82.1928L71.5 84.9551Z" fill="#DBF6E6"/>
<path d="M35 109.955L56.5 75.9551L52.5 72.4551L32 104.955L35 109.955Z" fill="#DBF6E6"/>
<path d="M106 30.4551L101 63.4551L94 58.9551L73.5 92.4551L58 83.4551L41 111.455L35 109.955M106 30.4551L82.5 51.4551M106 30.4551L101.5 27.4551L78 48.4551L82.5 51.4551M82.5 51.4551L85.5 53.4551M71.5 84.9551L89.5 56.4551L85.5 53.4551M71.5 84.9551L56.5 75.9551M71.5 84.9551L66.8961 82.1928L85.5 53.4551M56.5 75.9551L35 109.955M56.5 75.9551L52.5 72.4551L32 104.955L35 109.955" stroke="black" stroke-width="2"/>
</g>
<defs>
<filter id="filter0_d_2620_21223" x="0.826172" y="0.693359" width="136.258" height="146.41" filterUnits="userSpaceOnUse" color-interpolation-filters="sRGB">
<feFlood flood-opacity="0" result="BackgroundImageFix"/>
<feColorMatrix in="SourceAlpha" type="matrix" values="0 0 0 0 0 0 0 0 0 0 0 0 0 0 0 0 0 0 127 0" result="hardAlpha"/>
<feOffset dy="4.5"/>
<feGaussianBlur stdDeviation="15"/>
<feComposite in2="hardAlpha" operator="out"/>
<feColorMatrix type="matrix" values="0 0 0 0 0 0 0 0 0 0 0 0 0 0 0 0 0 0 0.25 0"/>
<feBlend mode="normal" in2="BackgroundImageFix" result="effect1_dropShadow_2620_21223"/>
<feBlend mode="normal" in="SourceGraphic" in2="effect1_dropShadow_2620_21223" result="shape"/>
</filter>
</defs>
</svg>
