<svg width="92" height="93" viewBox="0 0 92 93" fill="none" xmlns="http://www.w3.org/2000/svg">
<g filter="url(#filter0_d_2620_19279)">
<path d="M41.7696 37.6477L28 29.4659V67.4773L41.7696 76V53.5V37.6477Z" fill="#FEFACC"/>
<path fill-rule="evenodd" clip-rule="evenodd" d="M28 29.4659L50.2304 16L64 24.1818V40.2045V62.7045L41.7696 76V53.5V37.6477L28 29.4659ZM47.7419 38.1591V46L44.2581 47.875V40.2045L47.7419 38.1591Z" fill="white"/>
<path d="M47.7419 46V38.1591L44.2581 40.2045V47.875L47.7419 46Z" fill="#FEFACC"/>
<path d="M41.7696 76L28 67.4773V29.4659M41.7696 76L64 62.7045V40.2045M41.7696 76V53.5M41.7696 37.6477L28 29.4659M41.7696 37.6477L52.8848 30.9148M41.7696 37.6477V53.5M28 29.4659L50.2304 16L64 24.1818M64 24.1818L52.8848 30.9148M64 24.1818V40.2045M52.8848 30.9148V46.8523M52.8848 46.8523L41.7696 53.5M52.8848 46.8523L64 40.2045M55.2074 34.9205V40.2045M50.2304 42.9318V37.6477M46.9124 54.3523L58.0277 47.875M47.7419 46V38.1591L44.2581 40.2045V47.875L47.7419 46Z" stroke="#333015" stroke-width="1.25" stroke-linecap="round"/>
</g>
<defs>
<filter id="filter0_d_2620_19279" x="15.375" y="7.27148" width="61.25" height="85.46" filterUnits="userSpaceOnUse" color-interpolation-filters="sRGB">
<feFlood flood-opacity="0" result="BackgroundImageFix"/>
<feColorMatrix in="SourceAlpha" type="matrix" values="0 0 0 0 0 0 0 0 0 0 0 0 0 0 0 0 0 0 127 0" result="hardAlpha"/>
<feOffset dy="4"/>
<feGaussianBlur stdDeviation="6"/>
<feComposite in2="hardAlpha" operator="out"/>
<feColorMatrix type="matrix" values="0 0 0 0 0 0 0 0 0 0 0 0 0 0 0 0 0 0 0.25 0"/>
<feBlend mode="normal" in2="BackgroundImageFix" result="effect1_dropShadow_2620_19279"/>
<feBlend mode="normal" in="SourceGraphic" in2="effect1_dropShadow_2620_19279" result="shape"/>
</filter>
</defs>
</svg>
