<svg width="92" height="92" viewBox="0 0 92 92" fill="none" xmlns="http://www.w3.org/2000/svg">
<g filter="url(#filter0_d_2620_16542)">
<path d="M66.5923 49.9004C61.2962 53.2466 58.3985 55.5883 53.2673 60.4182C47.6696 65.0793 43.8771 67.2834 32.9098 68.585C30.0474 68.6592 28.7376 68.4726 28.0981 66.8526C27.4812 63.5117 20.0785 59.3046 17.3641 60.7894C16.8791 61.3432 16.6835 61.71 16.3771 62.398C16.1538 62.8502 16.0718 62.9088 16.007 62.6456C15.8936 67.834 17.1618 69.3733 20.0784 71.4309C27.7515 74.7019 38.8318 74.5244 47.7151 69.0799C52.5553 66.0574 54.8243 64.0086 57.7088 59.4283C59.5514 57.3183 60.5839 56.1908 62.3972 56.4586C64.372 56.5424 66.7154 55.451 69.3064 53.4888C75.352 48.9105 76.4743 45.2127 75.8457 39.0114C75.5343 43.5888 72.487 45.7393 67.5457 49.2265C67.2353 49.4455 66.9174 49.6699 66.5923 49.9004Z" fill="#D2EDF7"/>
<path d="M62.6439 39.8776C58.6958 41.8574 56.0991 45.859 57.9555 48.0443C60.4287 49.7749 63.5076 48.0443 66.0985 44.2084C68.1151 41.4664 69.156 39.6686 70.9103 36.1654C71.2821 35.423 70.9103 35.3121 70.17 35.7942C67.2387 37.7033 65.6056 38.6106 62.6439 39.8776Z" fill="#D2EDF7"/>
<path d="M38.101 50.3791C37.8974 49.0993 37.6761 48.0145 37.3885 47.0032C36.4287 47.0687 35.3856 47.185 34.2349 47.3417C33.7273 49.5359 35.54 51.1125 38.101 50.3791Z" fill="#D2EDF7"/>
<path d="M37.3885 47.0032C37.1126 46.0332 36.7757 45.1309 36.3349 44.1891C36.102 44.4403 35.8652 44.694 35.624 44.9509C34.8502 45.7749 34.4079 46.5942 34.2349 47.3417C35.3856 47.185 36.4287 47.0687 37.3885 47.0032Z" fill="#D2EDF7"/>
<path d="M42.2123 47.2696C40.7999 46.94 39.2512 46.8761 37.3885 47.0032C37.6761 48.0145 37.8974 49.0993 38.101 50.3791C39.1225 50.0866 40.263 49.4266 41.4228 48.2918C41.6927 47.9436 41.9557 47.6032 42.2123 47.2696Z" fill="#D2EDF7"/>
<path d="M43.7918 45.194C43.531 43.5211 43.1759 42.088 42.5288 40.6105C41.3926 40.5574 40.3505 40.6539 39.2946 40.8982C38.3552 41.9771 37.3844 43.0573 36.3349 44.1891C36.7757 45.1309 37.1126 46.0332 37.3885 47.0032C39.2512 46.8761 40.7999 46.94 42.2123 47.2696C42.7665 46.5491 43.291 45.8606 43.7918 45.194Z" fill="#D2EDF7"/>
<path d="M42.5288 40.6105C42.2208 39.907 41.8466 39.1936 41.3848 38.4394C40.6926 39.2726 40.0025 40.0851 39.2946 40.8982C40.3505 40.6539 41.3926 40.5574 42.5288 40.6105Z" fill="#D2EDF7"/>
<path d="M46.6222 41.2936C45.0628 40.8942 43.7422 40.6671 42.5288 40.6105C43.1759 42.088 43.531 43.5211 43.7918 45.194C44.8166 43.8301 45.7424 42.5583 46.6222 41.2936Z" fill="#D2EDF7"/>
<path d="M45.9339 35.3929C45.157 35.4767 44.3719 35.6057 43.5484 35.7805C42.8103 36.7044 42.0964 37.5828 41.3848 38.4394C41.8466 39.1936 42.2208 39.907 42.5288 40.6105C43.7422 40.6671 45.0628 40.8942 46.6222 41.2936C46.7983 41.0404 46.9726 40.7874 47.1455 40.5341C46.7307 38.5791 46.3659 37.0276 45.9339 35.3929Z" fill="#D2EDF7"/>
<path d="M50.4279 35.3976C48.8247 35.238 47.3937 35.2355 45.9339 35.3929C46.3659 37.0276 46.7307 38.5791 47.1455 40.5341C48.2609 38.8995 49.3171 37.2485 50.4279 35.3976Z" fill="#D2EDF7"/>
<path d="M53.0204 30.9029C51.9453 30.4729 50.9055 29.9167 49.9359 29.2361C49.6617 29.0222 49.4157 28.7653 49.2197 28.4936C47.8097 30.3292 46.5588 31.9527 45.3979 33.4379C45.591 34.1205 45.7675 34.7628 45.9339 35.3929C47.3937 35.2355 48.8247 35.238 50.4279 35.3976C51.2471 34.0326 52.0961 32.5588 53.0204 30.9029Z" fill="#D2EDF7"/>
<path d="M45.9339 35.3929C45.7675 34.7628 45.591 34.1205 45.3979 33.4379C44.7578 34.2567 44.1452 35.0334 43.5484 35.7805C44.3719 35.6057 45.157 35.4767 45.9339 35.3929Z" fill="#D2EDF7"/>
<path fill-rule="evenodd" clip-rule="evenodd" d="M25.0136 50.3267C17.9168 56.5408 16.003 59.4285 16.007 62.6456C16.0718 62.9088 16.1538 62.8502 16.3771 62.398C16.6835 61.71 16.8791 61.3432 17.3641 60.7894C20.0785 59.3046 27.4812 63.5117 28.0981 66.8526C28.7376 68.4726 30.0474 68.6592 32.9098 68.585C43.8771 67.2834 47.6696 65.0793 53.2673 60.4182C58.3985 55.5883 61.2962 53.2466 66.5923 49.9004C66.9174 49.6699 67.2353 49.4455 67.5457 49.2265C72.487 45.7393 75.5343 43.5888 75.8457 39.0114C75.6676 28.7655 74.8763 24.7226 72.0209 20.9457C68.179 16.7225 62.5208 17.7284 59.1895 19.7083C57.0576 20.7536 54.7424 22.4462 50.4296 25.6477C49.0246 26.1164 48.608 26.389 48.0854 26.8851C40.1759 36.2434 37.3477 39.3414 33.5267 43.2186C30.3126 46.1483 28.3217 47.7182 25.2496 50.1406L25.0136 50.3267ZM62.6439 39.8776C58.6958 41.8574 56.0991 45.859 57.9555 48.0443C60.4287 49.7749 63.5076 48.0443 66.0985 44.2084C68.1151 41.4664 69.156 39.6686 70.9103 36.1654C71.2821 35.423 70.9103 35.3121 70.17 35.7942C67.2387 37.7033 65.6056 38.6106 62.6439 39.8776ZM53.0204 30.9029C52.0961 32.5588 51.2471 34.0326 50.4279 35.3976C49.3171 37.2485 48.2609 38.8995 47.1455 40.5341C46.9726 40.7874 46.7983 41.0404 46.6222 41.2936C45.7424 42.5583 44.8166 43.8301 43.7918 45.194C43.291 45.8606 42.7665 46.5491 42.2123 47.2696C41.9557 47.6032 41.6927 47.9436 41.4228 48.2918C40.263 49.4266 39.1225 50.0866 38.101 50.3791C35.54 51.1125 33.7273 49.5359 34.2349 47.3417C34.4079 46.5942 34.8502 45.7749 35.624 44.9509C35.8652 44.694 36.102 44.4403 36.3349 44.1891C37.3844 43.0573 38.3552 41.9771 39.2946 40.8982C40.0025 40.0851 40.6926 39.2726 41.3848 38.4394C42.0964 37.5828 42.8103 36.7044 43.5484 35.7805C44.1452 35.0334 44.7578 34.2567 45.3979 33.4379C46.5588 31.9527 47.8097 30.3292 49.2197 28.4936C48.6219 27.6651 48.4895 26.6984 49.4424 26.3901C51.1792 25.9073 51.9421 25.6709 53.0204 25.2764C53.6678 25.2061 56.2174 23.3297 61.5335 19.337C63.631 18.1265 65.2349 18.347 65.8518 18.7183C67.6501 19.346 68.5444 19.8712 70.0467 20.9456C73.4904 23.8994 70.0467 26.5138 65.605 29.731C62.4071 32.3098 57.4178 32.6618 53.0204 30.9029Z" fill="white"/>
<path d="M61.5335 19.337C56.2174 23.3297 53.6678 25.2061 53.0204 25.2764C51.9421 25.6709 51.1792 25.9073 49.4424 26.3901C48.4895 26.6984 48.6219 27.6651 49.2197 28.4936C49.4157 28.7653 49.6617 29.0222 49.9359 29.2361C50.9055 29.9167 51.9453 30.4729 53.0204 30.9029C57.4178 32.6618 62.4071 32.3098 65.605 29.731C70.0467 26.5138 73.4904 23.8994 70.0467 20.9456C68.5444 19.8712 67.6501 19.346 65.8518 18.7183C65.2349 18.347 63.631 18.1265 61.5335 19.337Z" fill="#D2EDF7"/>
<path d="M16.007 62.6456C16.003 59.4285 17.9168 56.5408 25.0136 50.3267M16.007 62.6456C16.0718 62.9088 16.1538 62.8502 16.3771 62.398C16.6835 61.71 16.8791 61.3432 17.3641 60.7894C20.0784 59.3046 27.4812 63.5117 28.0981 66.8526C28.7376 68.4726 30.0474 68.6592 32.9098 68.585C43.8771 67.2834 47.6696 65.0793 53.2673 60.4182C58.3985 55.5883 61.2962 53.2466 66.5923 49.9004C66.9174 49.6699 67.2353 49.4455 67.5457 49.2265C72.487 45.7393 75.5343 43.5888 75.8457 39.0114M16.007 62.6456C15.8936 67.834 17.1618 69.3733 20.0784 71.4309C27.7515 74.7019 38.8318 74.5244 47.7151 69.0799C52.5553 66.0574 54.8243 64.0086 57.7088 59.4283C59.5514 57.3183 60.5839 56.1908 62.3972 56.4586C64.372 56.5424 66.7154 55.451 69.3064 53.4888C75.352 48.9105 76.4743 45.2127 75.8457 39.0114M25.0136 50.3267C25.093 50.2641 25.1717 50.2021 25.2496 50.1406M25.0136 50.3267L25.2496 50.1406M75.8457 39.0114C75.6676 28.7655 74.8763 24.7226 72.0209 20.9457C68.179 16.7225 62.5208 17.7284 59.1895 19.7083C57.0576 20.7536 54.7424 22.4462 50.4296 25.6477C49.0246 26.1164 48.608 26.389 48.0854 26.8851C40.1759 36.2434 37.3477 39.3414 33.5267 43.2186C30.3126 46.1483 28.3217 47.7182 25.2496 50.1406M53.0204 30.9029C51.9453 30.4729 50.9055 29.9167 49.9359 29.2361C49.6617 29.0222 49.4157 28.7653 49.2197 28.4936M53.0204 30.9029C57.4178 32.6618 62.4071 32.3098 65.605 29.731C70.0467 26.5138 73.4904 23.8994 70.0467 20.9456C68.5444 19.8712 67.6501 19.346 65.8518 18.7183C65.2349 18.347 63.631 18.1265 61.5335 19.337C56.2174 23.3297 53.6678 25.2061 53.0204 25.2764C51.9421 25.6709 51.1792 25.9073 49.4424 26.3901C48.4895 26.6984 48.6219 27.6651 49.2197 28.4936M53.0204 30.9029C52.0961 32.5588 51.2471 34.0326 50.4279 35.3976M49.2197 28.4936C47.8097 30.3292 46.5588 31.9527 45.3979 33.4379M29.7018 48.0443C31.3871 47.7653 32.8851 47.5256 34.2349 47.3417M53.884 35.9179C52.6185 35.6766 51.4857 35.5029 50.4279 35.3976M44.754 31.2159C44.9903 32.0168 45.2026 32.7479 45.3979 33.4379M38.3383 52.004C38.26 51.4265 38.1819 50.8874 38.101 50.3791M50.4279 35.3976C48.8247 35.238 47.3937 35.2355 45.9339 35.3929M50.4279 35.3976C49.3171 37.2485 48.2609 38.8995 47.1455 40.5341M45.9339 35.3929C45.7675 34.7628 45.591 34.1205 45.3979 33.4379M45.9339 35.3929C45.157 35.4767 44.3719 35.6057 43.5484 35.7805M45.9339 35.3929C46.3659 37.0276 46.7307 38.5791 47.1455 40.5341M45.3979 33.4379C44.7578 34.2567 44.1452 35.0334 43.5484 35.7805M43.5484 35.7805C42.8103 36.7044 42.0964 37.5828 41.3848 38.4394M43.5484 35.7805C42.5099 36.0008 41.4104 36.2939 40.189 36.6604C40.6428 37.2849 41.0385 37.8736 41.3848 38.4394M41.3848 38.4394C41.8466 39.1936 42.2208 39.907 42.5288 40.6105M41.3848 38.4394C40.6926 39.2726 40.0025 40.0851 39.2946 40.8982M42.5288 40.6105C43.7422 40.6671 45.0628 40.8942 46.6222 41.2936M42.5288 40.6105C43.1759 42.088 43.531 43.5211 43.7918 45.194M42.5288 40.6105C41.3926 40.5574 40.3505 40.6539 39.2946 40.8982M46.6222 41.2936C46.7983 41.0404 46.9726 40.7874 47.1455 40.5341M46.6222 41.2936C46.8575 41.3539 47.0983 41.4181 47.345 41.4862C47.2769 41.1576 47.2106 40.8409 47.1455 40.5341M46.6222 41.2936C45.7424 42.5583 44.8166 43.8301 43.7918 45.194M43.7918 45.194C43.9223 46.031 44.0291 46.928 44.1371 47.9206C43.5134 47.6394 42.878 47.425 42.2123 47.2696M43.7918 45.194C43.291 45.8606 42.7665 46.5491 42.2123 47.2696M39.2946 40.8982C38.3552 41.9771 37.3844 43.0573 36.3349 44.1891M39.2946 40.8982C38.0644 41.1829 36.8155 41.6684 35.3772 42.3524C35.7439 42.9974 36.0597 43.6009 36.3349 44.1891M36.3349 44.1891C36.7757 45.1309 37.1126 46.0332 37.3885 47.0032M36.3349 44.1891C36.102 44.4403 35.8652 44.694 35.624 44.9509C34.8502 45.7749 34.4079 46.5942 34.2349 47.3417M37.3885 47.0032C39.2512 46.8761 40.7999 46.94 42.2123 47.2696M37.3885 47.0032C37.6761 48.0145 37.8974 49.0993 38.101 50.3791M37.3885 47.0032C36.4287 47.0687 35.3856 47.185 34.2349 47.3417M42.2123 47.2696C41.9557 47.6032 41.6927 47.9436 41.4228 48.2918C40.263 49.4266 39.1225 50.0866 38.101 50.3791M38.101 50.3791C35.54 51.1125 33.7273 49.5359 34.2349 47.3417M62.6439 39.8776C58.6958 41.8574 56.0991 45.859 57.9555 48.0443C60.4287 49.7749 63.5076 48.0443 66.0985 44.2084C68.1151 41.4664 69.156 39.6686 70.9103 36.1654C71.2821 35.423 70.9103 35.3121 70.17 35.7942C67.2387 37.7033 65.6056 38.6106 62.6439 39.8776Z" stroke="#18282E" stroke-width="1.25" stroke-linecap="round"/>
</g>
<defs>
<filter id="filter0_d_2620_16542" x="3.375" y="9.375" width="85.25" height="80.8428" filterUnits="userSpaceOnUse" color-interpolation-filters="sRGB">
<feFlood flood-opacity="0" result="BackgroundImageFix"/>
<feColorMatrix in="SourceAlpha" type="matrix" values="0 0 0 0 0 0 0 0 0 0 0 0 0 0 0 0 0 0 127 0" result="hardAlpha"/>
<feOffset dy="4"/>
<feGaussianBlur stdDeviation="6"/>
<feComposite in2="hardAlpha" operator="out"/>
<feColorMatrix type="matrix" values="0 0 0 0 0 0 0 0 0 0 0 0 0 0 0 0 0 0 0.25 0"/>
<feBlend mode="normal" in2="BackgroundImageFix" result="effect1_dropShadow_2620_16542"/>
<feBlend mode="normal" in="SourceGraphic" in2="effect1_dropShadow_2620_16542" result="shape"/>
</filter>
</defs>
</svg>
