<svg width="281" height="243" viewBox="0 0 281 243" fill="none" xmlns="http://www.w3.org/2000/svg">
<g filter="url(#filter0_d_2620_16517)">
<path d="M201.306 140.545C185.773 150.359 177.274 157.227 162.224 171.393C145.806 185.064 134.683 191.529 102.516 195.346C94.1201 195.564 90.2784 195.017 88.4027 190.265C86.5933 180.466 64.8811 168.127 56.9199 172.482C55.4975 174.106 54.9238 175.182 54.0249 177.2C53.3701 178.526 53.1296 178.698 52.9393 177.926C52.6069 193.144 56.3264 197.659 64.8811 203.694C87.386 213.288 119.885 212.767 145.94 196.798C160.136 187.933 166.791 181.924 175.251 168.49C180.656 162.301 183.684 158.994 189.002 159.78C194.794 160.026 201.668 156.824 209.267 151.069C226.999 137.641 230.29 126.795 228.447 108.607C227.533 122.033 218.596 128.34 204.103 138.568C203.192 139.21 202.26 139.868 201.306 140.545Z" fill="#D2EDF7"/>
<path d="M189.726 111.148C178.146 116.954 170.53 128.691 175.975 135.101C183.229 140.176 192.259 135.101 199.858 123.85C205.773 115.808 208.826 110.535 213.971 100.26C215.062 98.0822 213.971 97.7569 211.8 99.171C203.202 104.771 198.412 107.431 189.726 111.148Z" fill="#D2EDF7"/>
<path d="M117.741 141.949C117.144 138.195 116.495 135.013 115.652 132.047C112.837 132.239 109.777 132.58 106.402 133.04C104.913 139.475 110.23 144.1 117.741 141.949Z" fill="#D2EDF7"/>
<path d="M115.652 132.047C114.842 129.202 113.854 126.556 112.561 123.793C111.878 124.53 111.184 125.274 110.476 126.028C108.207 128.444 106.909 130.847 106.402 133.04C109.777 132.58 112.837 132.239 115.652 132.047Z" fill="#D2EDF7"/>
<path d="M129.8 132.829C125.657 131.862 121.115 131.674 115.652 132.047C116.495 135.013 117.144 138.195 117.741 141.949C120.737 141.091 124.082 139.155 127.484 135.827C128.276 134.805 129.047 133.807 129.8 132.829Z" fill="#D2EDF7"/>
<path d="M134.432 126.741C133.668 121.834 132.626 117.631 130.728 113.297C127.396 113.142 124.339 113.424 121.242 114.141C118.487 117.306 115.639 120.474 112.561 123.793C113.854 126.556 114.842 129.202 115.652 132.047C121.115 131.674 125.657 131.862 129.8 132.829C131.425 130.715 132.964 128.696 134.432 126.741Z" fill="#D2EDF7"/>
<path d="M130.728 113.297C129.825 111.234 128.727 109.141 127.373 106.929C125.342 109.373 123.319 111.756 121.242 114.141C124.339 113.424 127.396 113.142 130.728 113.297Z" fill="#D2EDF7"/>
<path d="M142.734 115.301C138.16 114.129 134.287 113.463 130.728 113.297C132.626 117.631 133.668 121.834 134.432 126.741C137.438 122.74 140.154 119.01 142.734 115.301Z" fill="#D2EDF7"/>
<path d="M140.715 97.9939C138.437 98.2396 136.134 98.6182 133.718 99.1307C131.554 101.84 129.46 104.417 127.373 106.929C128.727 109.141 129.825 111.234 130.728 113.297C134.287 113.463 138.16 114.129 142.734 115.301C143.251 114.558 143.762 113.816 144.269 113.073C143.052 107.339 141.982 102.788 140.715 97.9939Z" fill="#D2EDF7"/>
<path d="M153.896 98.0077C149.194 97.5396 144.997 97.5323 140.715 97.9939C141.982 102.788 143.052 107.339 144.269 113.073C147.541 108.279 150.638 103.436 153.896 98.0077Z" fill="#D2EDF7"/>
<path d="M161.5 84.8249C158.347 83.5636 155.297 81.9323 152.453 79.9359C151.649 79.3085 150.927 78.5552 150.352 77.7583C146.217 83.1421 142.548 87.9038 139.143 92.2598C139.71 94.2619 140.227 96.146 140.715 97.9939C144.997 97.5323 149.194 97.5396 153.896 98.0077C156.299 94.004 158.789 89.6817 161.5 84.8249Z" fill="#D2EDF7"/>
<path d="M140.715 97.9939C140.227 96.146 139.71 94.2619 139.143 92.2598C137.266 94.6613 135.469 96.9396 133.718 99.1307C136.134 98.6182 138.437 98.2396 140.715 97.9939Z" fill="#D2EDF7"/>
<path fill-rule="evenodd" clip-rule="evenodd" d="M79.3559 141.795C58.541 160.021 52.9278 168.49 52.9393 177.926C53.1296 178.698 53.3701 178.526 54.0249 177.2C54.9238 175.182 55.4975 174.106 56.9199 172.482C64.8811 168.127 86.5933 180.466 88.4027 190.265C90.2784 195.017 94.1201 195.564 102.516 195.346C134.683 191.529 145.806 185.064 162.224 171.393C177.274 157.227 185.773 150.359 201.306 140.545C202.26 139.868 203.192 139.21 204.103 138.568C218.596 128.34 227.533 122.033 228.447 108.607C227.924 78.5559 225.604 66.6979 217.229 55.6201C205.96 43.2335 189.365 46.1838 179.594 51.9908C173.341 55.0567 166.551 60.0211 153.901 69.4113C149.78 70.786 148.558 71.5855 147.026 73.0406C123.827 100.488 115.532 109.575 104.325 120.947C94.8978 129.54 89.0586 134.144 80.0481 141.249L79.3559 141.795ZM189.726 111.148C178.146 116.954 170.53 128.691 175.975 135.101C183.229 140.176 192.259 135.101 199.858 123.85C205.773 115.808 208.826 110.535 213.971 100.26C215.062 98.0822 213.971 97.7569 211.8 99.171C203.202 104.771 198.412 107.431 189.726 111.148ZM161.5 84.8249C158.789 89.6817 156.299 94.004 153.896 98.0077C150.638 103.436 147.541 108.279 144.269 113.073C143.762 113.816 143.251 114.558 142.734 115.301C140.154 119.01 137.438 122.74 134.432 126.741C132.964 128.696 131.425 130.715 129.8 132.829C129.047 133.807 128.276 134.805 127.484 135.827C124.082 139.155 120.737 141.091 117.741 141.949C110.23 144.1 104.913 139.475 106.402 133.04C106.909 130.847 108.207 128.444 110.476 126.028C111.184 125.274 111.878 124.53 112.561 123.793C115.639 120.474 118.487 117.306 121.242 114.141C123.319 111.756 125.342 109.373 127.373 106.929C129.46 104.417 131.554 101.84 133.718 99.1307C135.469 96.9396 137.266 94.6613 139.143 92.2598C142.548 87.9038 146.217 83.1421 150.352 77.7583C148.599 75.3283 148.211 72.4931 151.006 71.5886C156.1 70.1728 158.337 69.4791 161.5 68.3222C163.399 68.1159 170.877 62.6124 186.469 50.9018C192.621 47.3514 197.325 47.9984 199.135 49.0871C204.409 50.9283 207.032 52.4688 211.438 55.6198C221.539 64.2834 211.438 71.9515 198.411 81.3876C189.031 88.9513 174.398 89.9835 161.5 84.8249Z" fill="white"/>
<path d="M186.469 50.9018C170.877 62.6124 163.399 68.1159 161.5 68.3222C158.337 69.4791 156.1 70.1728 151.006 71.5886C148.211 72.4931 148.599 75.3283 150.352 77.7583C150.927 78.5552 151.649 79.3085 152.453 79.9359C155.297 81.9323 158.347 83.5636 161.5 84.8249C174.398 89.9835 189.031 88.9513 198.411 81.3876C211.438 71.9515 221.539 64.2834 211.438 55.6198C207.032 52.4688 204.409 50.9283 199.135 49.0871C197.325 47.9984 192.621 47.3514 186.469 50.9018Z" fill="#D2EDF7"/>
<path d="M52.9393 177.926C52.9278 168.49 58.541 160.021 79.3559 141.795M52.9393 177.926C53.1296 178.698 53.3701 178.526 54.0249 177.2C54.9238 175.182 55.4975 174.106 56.9199 172.482C64.8811 168.127 86.5933 180.466 88.4027 190.265C90.2784 195.017 94.1201 195.564 102.516 195.346C134.683 191.529 145.806 185.064 162.224 171.393C177.274 157.227 185.773 150.359 201.306 140.545C202.26 139.868 203.192 139.21 204.103 138.568C218.596 128.34 227.533 122.033 228.447 108.607M52.9393 177.926C52.6069 193.144 56.3264 197.659 64.8811 203.694C87.386 213.288 119.885 212.767 145.94 196.798C160.136 187.933 166.791 181.924 175.251 168.49C180.656 162.301 183.684 158.994 189.002 159.78C194.794 160.026 201.668 156.824 209.267 151.069C226.999 137.641 230.29 126.795 228.447 108.607M79.3559 141.795C79.5888 141.611 79.8195 141.429 80.0481 141.249M79.3559 141.795L80.0481 141.249M228.447 108.607C227.924 78.5559 225.604 66.6979 217.229 55.6201C205.96 43.2335 189.365 46.1838 179.594 51.9908C173.341 55.0567 166.551 60.0211 153.901 69.4113C149.78 70.786 148.558 71.5855 147.026 73.0406C123.827 100.488 115.532 109.575 104.325 120.947C94.8978 129.54 89.0586 134.144 80.0481 141.249M161.5 84.8249C158.347 83.5636 155.297 81.9323 152.453 79.9359C151.649 79.3085 150.927 78.5552 150.352 77.7583M161.5 84.8249C174.398 89.9835 189.031 88.9513 198.411 81.3876C211.438 71.9515 221.539 64.2834 211.438 55.6198C207.032 52.4688 204.409 50.9283 199.135 49.0871C197.325 47.9984 192.621 47.3514 186.469 50.9018C170.877 62.6124 163.399 68.1159 161.5 68.3222C158.337 69.4791 156.1 70.1728 151.006 71.5886C148.211 72.4931 148.599 75.3283 150.352 77.7583M161.5 84.8249C158.789 89.6817 156.299 94.004 153.896 98.0077M150.352 77.7583C146.217 83.1421 142.548 87.9038 139.143 92.2598M93.1064 135.101C98.0494 134.282 102.443 133.579 106.402 133.04M164.033 99.5339C160.321 98.8261 156.999 98.3166 153.896 98.0077M137.255 85.7427C137.948 88.0918 138.57 90.2361 139.143 92.2598M118.437 146.714C118.208 145.021 117.979 143.44 117.741 141.949M153.896 98.0077C149.194 97.5396 144.997 97.5323 140.715 97.9939M153.896 98.0077C150.638 103.436 147.541 108.279 144.269 113.073M140.715 97.9939C140.227 96.146 139.71 94.2619 139.143 92.2598M140.715 97.9939C138.437 98.2396 136.134 98.6182 133.718 99.1307M140.715 97.9939C141.982 102.788 143.052 107.339 144.269 113.073M139.143 92.2598C137.266 94.6613 135.469 96.9396 133.718 99.1307M133.718 99.1307C131.554 101.84 129.46 104.417 127.373 106.929M133.718 99.1307C130.673 99.7771 127.448 100.636 123.865 101.711C125.197 103.543 126.357 105.27 127.373 106.929M127.373 106.929C128.727 109.141 129.825 111.234 130.728 113.297M127.373 106.929C125.342 109.373 123.319 111.756 121.242 114.141M130.728 113.297C134.287 113.463 138.16 114.129 142.734 115.301M130.728 113.297C132.626 117.631 133.668 121.834 134.432 126.741M130.728 113.297C127.396 113.142 124.339 113.424 121.242 114.141M142.734 115.301C143.251 114.558 143.762 113.816 144.269 113.073M142.734 115.301C143.424 115.477 144.13 115.666 144.854 115.866C144.654 114.902 144.46 113.973 144.269 113.073M142.734 115.301C140.154 119.01 137.438 122.74 134.432 126.741M134.432 126.741C134.815 129.196 135.129 131.826 135.445 134.738C133.616 133.913 131.752 133.284 129.8 132.829M134.432 126.741C132.964 128.696 131.425 130.715 129.8 132.829M121.242 114.141C118.487 117.306 115.639 120.474 112.561 123.793M121.242 114.141C117.634 114.976 113.971 116.4 109.752 118.406C110.828 120.298 111.754 122.068 112.561 123.793M112.561 123.793C113.854 126.556 114.842 129.202 115.652 132.047M112.561 123.793C111.878 124.53 111.184 125.274 110.476 126.028C108.207 128.444 106.909 130.847 106.402 133.04M115.652 132.047C121.115 131.674 125.657 131.862 129.8 132.829M115.652 132.047C116.495 135.013 117.144 138.195 117.741 141.949M115.652 132.047C112.837 132.239 109.777 132.58 106.402 133.04M129.8 132.829C129.047 133.807 128.276 134.805 127.484 135.827C124.082 139.155 120.737 141.091 117.741 141.949M117.741 141.949C110.23 144.1 104.913 139.475 106.402 133.04M189.726 111.148C178.146 116.954 170.53 128.691 175.975 135.101C183.229 140.176 192.259 135.101 199.858 123.85C205.773 115.808 208.826 110.535 213.971 100.26C215.062 98.0822 213.971 97.7569 211.8 99.171C203.202 104.771 198.412 107.431 189.726 111.148Z" stroke="#18282E" stroke-width="4" stroke-linecap="round"/>
</g>
<defs>
<filter id="filter0_d_2620_16517" x="0.918945" y="0.481445" width="279.98" height="267.054" filterUnits="userSpaceOnUse" color-interpolation-filters="sRGB">
<feFlood flood-opacity="0" result="BackgroundImageFix"/>
<feColorMatrix in="SourceAlpha" type="matrix" values="0 0 0 0 0 0 0 0 0 0 0 0 0 0 0 0 0 0 127 0" result="hardAlpha"/>
<feOffset dy="5.5"/>
<feGaussianBlur stdDeviation="25"/>
<feComposite in2="hardAlpha" operator="out"/>
<feColorMatrix type="matrix" values="0 0 0 0 0 0 0 0 0 0 0 0 0 0 0 0 0 0 0.25 0"/>
<feBlend mode="normal" in2="BackgroundImageFix" result="effect1_dropShadow_2620_16517"/>
<feBlend mode="normal" in="SourceGraphic" in2="effect1_dropShadow_2620_16517" result="shape"/>
</filter>
</defs>
</svg>
