<svg width="168" height="160" viewBox="0 0 168 160" fill="none" xmlns="http://www.w3.org/2000/svg">
<g filter="url(#filter0_d_2620_16516)">
<path d="M120.411 82.8822C111.153 88.7313 106.088 92.8245 97.119 101.267C87.3342 109.415 80.7051 113.267 61.5346 115.542C56.5311 115.672 54.2416 115.346 53.1237 112.514C52.0454 106.674 39.1056 99.3204 34.361 101.916C33.5133 102.884 33.1714 103.525 32.6357 104.728C32.2455 105.518 32.1021 105.62 31.9887 105.16C31.7906 114.23 34.0073 116.92 39.1056 120.517C52.5178 126.235 71.886 125.924 87.4138 116.408C95.8743 111.124 99.8405 107.543 104.882 99.5367C108.103 95.8485 109.908 93.8776 113.078 94.3457C116.53 94.4923 120.626 92.5845 125.155 89.1547C135.722 81.1519 137.684 74.6881 136.585 63.8486C136.041 71.8496 130.714 75.6088 122.077 81.7042C121.535 82.0871 120.979 82.4792 120.411 82.8822Z" fill="#D2EDF7"/>
<path d="M113.509 65.3626C106.608 68.8232 102.069 75.8179 105.314 79.6378C109.637 82.6629 115.019 79.6378 119.548 72.9328C123.073 68.1398 124.892 64.9972 127.958 58.8738C128.608 57.576 127.958 57.3822 126.664 58.2249C121.541 61.5621 118.686 63.1479 113.509 65.3626Z" fill="#D2EDF7"/>
<path d="M70.6086 83.719C70.2527 81.4819 69.8659 79.5856 69.3631 77.818C67.6855 77.9325 65.8622 78.1357 63.8508 78.4097C62.9635 82.2451 66.132 85.0009 70.6086 83.719Z" fill="#D2EDF7"/>
<path d="M69.3631 77.818C68.8809 76.1225 68.292 74.5452 67.5215 72.8989C67.1143 73.338 66.7004 73.7816 66.2788 74.2305C64.9262 75.6709 64.1531 77.103 63.8508 78.4097C65.8622 78.1357 67.6855 77.9325 69.3631 77.818Z" fill="#D2EDF7"/>
<path d="M77.795 78.2837C75.3262 77.7076 72.619 77.5958 69.3631 77.818C69.8659 79.5856 70.2527 81.4819 70.6086 83.719C72.3941 83.2077 74.3876 82.0541 76.415 80.0704C76.8868 79.4617 77.3465 78.8667 77.795 78.2837Z" fill="#D2EDF7"/>
<path d="M80.5559 74.6555C80.1001 71.7314 79.4793 69.2262 78.3483 66.6437C76.3623 66.5509 74.5407 66.7195 72.6949 67.1466C71.053 69.0325 69.3559 70.9206 67.5215 72.8989C68.292 74.5452 68.8809 76.1225 69.3631 77.818C72.619 77.5958 75.3262 77.7076 77.795 78.2837C78.7638 77.0243 79.6805 75.8207 80.5559 74.6555Z" fill="#D2EDF7"/>
<path d="M78.3483 66.6437C77.8098 65.4141 77.1557 64.1669 76.3486 62.8486C75.1386 64.3051 73.9324 65.7252 72.6949 67.1466C74.5407 66.7195 76.3623 66.5509 78.3483 66.6437Z" fill="#D2EDF7"/>
<path d="M85.5033 67.8377C82.7776 67.1396 80.4692 66.7427 78.3483 66.6437C79.4793 69.2262 80.1001 71.7314 80.5559 74.6555C82.3472 72.2714 83.9655 70.0483 85.5033 67.8377Z" fill="#D2EDF7"/>
<path d="M84.3004 57.5234C82.9423 57.6699 81.5699 57.8955 80.1304 58.2009C78.8403 59.8158 77.5924 61.3514 76.3486 62.8486C77.1557 64.1669 77.8098 65.4141 78.3483 66.6437C80.4692 66.7427 82.7776 67.1396 85.5033 67.8377C85.8112 67.3951 86.1159 66.9529 86.4181 66.5101C85.693 63.0929 85.0554 60.3808 84.3004 57.5234Z" fill="#D2EDF7"/>
<path d="M92.1557 57.5316C89.3532 57.2526 86.8519 57.2483 84.3004 57.5234C85.0554 60.3808 85.693 63.0929 86.4181 66.5101C88.3679 63.6529 90.214 60.7669 92.1557 57.5316Z" fill="#D2EDF7"/>
<path d="M96.6873 49.6751C94.808 48.9234 92.9905 47.9512 91.2957 46.7614C90.8164 46.3875 90.3863 45.9386 90.0437 45.4637C87.5791 48.6722 85.3925 51.51 83.3633 54.1061C83.7009 55.2992 84.0093 56.4221 84.3004 57.5234C86.8519 57.2483 89.3532 57.2526 92.1557 57.5316C93.5877 55.1456 95.0716 52.5696 96.6873 49.6751Z" fill="#D2EDF7"/>
<path d="M84.3004 57.5234C84.0093 56.4221 83.7009 55.2992 83.3633 54.1061C82.2446 55.5373 81.1737 56.8951 80.1304 58.2009C81.5699 57.8955 82.9423 57.6699 84.3004 57.5234Z" fill="#D2EDF7"/>
<path fill-rule="evenodd" clip-rule="evenodd" d="M47.7321 83.6274C35.3271 94.4895 31.9818 99.537 31.9887 105.16C32.1021 105.62 32.2455 105.518 32.6357 104.728C33.1714 103.525 33.5133 102.884 34.361 101.916C39.1056 99.3204 52.0454 106.674 53.1237 112.514C54.2416 115.346 56.5311 115.672 61.5346 115.542C80.7051 113.267 87.3342 109.415 97.119 101.267C106.088 92.8245 111.153 88.7313 120.411 82.8822C120.979 82.4792 121.535 82.0871 122.077 81.7042C130.714 75.6088 136.041 71.8496 136.585 63.8486C136.274 45.939 134.891 38.872 129.9 32.27C123.184 24.888 113.294 26.6463 107.471 30.1071C103.744 31.9342 99.6974 34.8929 92.1587 40.4891C89.7028 41.3084 88.9745 41.7849 88.0611 42.6521C74.2355 59.0101 69.2918 64.4253 62.6129 71.2026C56.9946 76.3236 53.5146 79.0677 48.1447 83.3021L47.7321 83.6274ZM113.509 65.3626C106.608 68.8232 102.069 75.8179 105.314 79.6378C109.637 82.6629 115.019 79.6378 119.548 72.9328C123.073 68.1398 124.892 64.9972 127.958 58.8738C128.608 57.576 127.958 57.3822 126.664 58.2249C121.541 61.5621 118.686 63.1479 113.509 65.3626ZM96.6873 49.6751C95.0716 52.5696 93.5877 55.1456 92.1557 57.5316C90.214 60.7669 88.3679 63.6529 86.4181 66.5101C86.1159 66.9529 85.8112 67.3951 85.5033 67.8377C83.9655 70.0483 82.3472 72.2714 80.5559 74.6555C79.6805 75.8207 78.7638 77.0243 77.795 78.2837C77.3465 78.8667 76.8868 79.4617 76.415 80.0704C74.3876 82.0541 72.3941 83.2077 70.6086 83.719C66.132 85.0009 62.9635 82.2451 63.8508 78.4097C64.1531 77.103 64.9262 75.6709 66.2788 74.2305C66.7004 73.7816 67.1143 73.338 67.5215 72.8989C69.3559 70.9206 71.053 69.0325 72.6949 67.1466C73.9324 65.7252 75.1386 64.3051 76.3486 62.8486C77.5924 61.3514 78.8403 59.8158 80.1304 58.2009C81.1737 56.8951 82.2446 55.5373 83.3633 54.1061C85.3925 51.51 87.5791 48.6722 90.0437 45.4637C88.9989 44.0155 88.7674 42.3258 90.4331 41.7867C93.4689 40.9429 94.8025 40.5295 96.6873 39.8401C97.8189 39.7171 102.276 36.4372 111.568 29.4581C115.234 27.3421 118.038 27.7277 119.116 28.3766C122.26 29.4739 123.823 30.3919 126.449 32.2699C132.468 37.4331 126.449 42.003 118.685 47.6266C113.095 52.1343 104.374 52.7495 96.6873 49.6751Z" fill="white"/>
<path d="M111.568 29.4581C102.276 36.4372 97.8189 39.7171 96.6873 39.8401C94.8025 40.5295 93.4689 40.9429 90.4331 41.7867C88.7674 42.3258 88.9989 44.0155 90.0437 45.4637C90.3863 45.9386 90.8164 46.3875 91.2957 46.7614C92.9905 47.9512 94.808 48.9234 96.6873 49.6751C104.374 52.7495 113.095 52.1343 118.685 47.6266C126.449 42.003 132.468 37.4331 126.449 32.2699C123.823 30.3919 122.26 29.4739 119.116 28.3766C118.038 27.7277 115.234 27.3421 111.568 29.4581Z" fill="#D2EDF7"/>
<path d="M31.9887 105.16C31.9818 99.537 35.3271 94.4895 47.7321 83.6274M31.9887 105.16C32.1021 105.62 32.2455 105.518 32.6357 104.728C33.1714 103.525 33.5133 102.884 34.361 101.916C39.1056 99.3204 52.0454 106.674 53.1237 112.514C54.2416 115.346 56.5311 115.672 61.5346 115.542C80.7051 113.267 87.3342 109.415 97.119 101.267C106.088 92.8245 111.153 88.7313 120.411 82.8822C120.979 82.4792 121.535 82.0871 122.077 81.7042C130.714 75.6088 136.041 71.8496 136.585 63.8486M31.9887 105.16C31.7906 114.23 34.0073 116.92 39.1056 120.517C52.5178 126.235 71.886 125.924 87.4138 116.407C95.8743 111.124 99.8405 107.543 104.882 99.5367C108.103 95.8485 109.908 93.8776 113.078 94.3457C116.53 94.4923 120.626 92.5845 125.155 89.1547C135.722 81.1519 137.684 74.6881 136.585 63.8486M47.7321 83.6274C47.8709 83.5179 48.0084 83.4095 48.1447 83.3021M47.7321 83.6274L48.1447 83.3021M136.585 63.8486C136.274 45.939 134.891 38.872 129.9 32.27C123.184 24.888 113.294 26.6463 107.471 30.1071C103.744 31.9342 99.6974 34.8929 92.1587 40.4891C89.7028 41.3084 88.9745 41.7849 88.0611 42.6521C74.2355 59.0101 69.2918 64.4253 62.6129 71.2026C56.9946 76.3236 53.5146 79.0677 48.1447 83.3021M96.6873 49.6751C94.808 48.9234 92.9905 47.9512 91.2957 46.7614C90.8164 46.3875 90.3863 45.9386 90.0437 45.4637M96.6873 49.6751C104.374 52.7495 113.095 52.1343 118.685 47.6266C126.449 42.003 132.468 37.4331 126.449 32.2699C123.823 30.3919 122.26 29.4739 119.116 28.3766C118.038 27.7277 115.234 27.3421 111.568 29.4581C102.276 36.4372 97.8189 39.7171 96.6873 39.8401C94.8025 40.5296 93.4689 40.9429 90.4331 41.7867C88.7674 42.3258 88.9989 44.0155 90.0437 45.4637M96.6873 49.6751C95.0716 52.5696 93.5877 55.1456 92.1557 57.5316M90.0437 45.4637C87.5791 48.6722 85.3925 51.51 83.3633 54.1061M55.927 79.6378C58.8728 79.1501 61.4912 78.7312 63.8508 78.4097M98.1969 58.4412C95.9848 58.0194 94.0047 57.7157 92.1557 57.5316M82.2379 50.2221C82.6509 51.6221 83.022 52.9 83.3633 54.1061M71.0234 86.5592C70.8865 85.5498 70.75 84.6075 70.6086 83.719M92.1557 57.5316C89.3532 57.2526 86.8519 57.2483 84.3004 57.5234M92.1557 57.5316C90.214 60.7669 88.3679 63.6529 86.4181 66.5101M84.3004 57.5234C84.0093 56.4221 83.7009 55.2992 83.3633 54.1061M84.3004 57.5234C82.9423 57.6699 81.5699 57.8955 80.1304 58.2009M84.3004 57.5234C85.0554 60.3808 85.693 63.0929 86.4181 66.5101M83.3633 54.1061C82.2446 55.5373 81.1737 56.8951 80.1304 58.2009M80.1304 58.2009C78.8403 59.8158 77.5924 61.3514 76.3486 62.8486M80.1304 58.2009C78.3153 58.5861 76.3933 59.0983 74.2583 59.739C75.0516 60.8306 75.7432 61.8596 76.3486 62.8486M76.3486 62.8486C77.1557 64.1669 77.8098 65.4141 78.3483 66.6437M76.3486 62.8486C75.1386 64.3051 73.9324 65.7252 72.6949 67.1466M78.3483 66.6437C80.4692 66.7427 82.7776 67.1396 85.5033 67.8377M78.3483 66.6437C79.4793 69.2262 80.1001 71.7314 80.5559 74.6555M78.3483 66.6437C76.3623 66.5509 74.5407 66.7195 72.6949 67.1466M85.5033 67.8377C85.8113 67.3951 86.1159 66.9529 86.4181 66.5101M85.5033 67.8377C85.9147 67.943 86.3356 68.0553 86.7668 68.1744C86.6479 67.6 86.5319 67.0464 86.4181 66.5101M85.5033 67.8377C83.9655 70.0483 82.3472 72.2714 80.5559 74.6555M80.5559 74.6555C80.784 76.1186 80.9708 77.6865 81.1595 79.4215C80.0693 78.93 78.9586 78.5553 77.795 78.2837M80.5559 74.6555C79.6805 75.8207 78.7638 77.0243 77.795 78.2837M72.6949 67.1466C71.053 69.0325 69.3559 70.9206 67.5215 72.8989M72.6949 67.1466C70.5446 67.6443 68.3616 68.4929 65.8475 69.6884C66.4885 70.8159 67.0404 71.8709 67.5215 72.8989M67.5215 72.8989C68.292 74.5452 68.8809 76.1225 69.3631 77.818M67.5215 72.8989C67.1143 73.338 66.7004 73.7816 66.2788 74.2305C64.9262 75.6709 64.1531 77.103 63.8508 78.4097M69.3631 77.818C72.619 77.5958 75.3262 77.7076 77.795 78.2837M69.3631 77.818C69.8659 79.5856 70.2527 81.4819 70.6086 83.719M69.3631 77.818C67.6855 77.9325 65.8622 78.1357 63.8508 78.4097M77.795 78.2837C77.3465 78.8667 76.8868 79.4617 76.415 80.0704C74.3876 82.0541 72.3941 83.2077 70.6086 83.719M70.6086 83.719C66.132 85.0009 62.9635 82.2451 63.8508 78.4097M113.509 65.3626C106.608 68.8232 102.069 75.8179 105.314 79.6378C109.637 82.6629 115.019 79.6378 119.548 72.9328C123.073 68.1398 124.892 64.9972 127.958 58.8738C128.608 57.576 127.958 57.3822 126.664 58.2249C121.541 61.5621 118.686 63.1479 113.509 65.3626Z" stroke="#18282E" stroke-width="2" stroke-linecap="round"/>
</g>
<defs>
<filter id="filter0_d_2620_16516" x="0.976562" y="0.621094" width="166.879" height="159.176" filterUnits="userSpaceOnUse" color-interpolation-filters="sRGB">
<feFlood flood-opacity="0" result="BackgroundImageFix"/>
<feColorMatrix in="SourceAlpha" type="matrix" values="0 0 0 0 0 0 0 0 0 0 0 0 0 0 0 0 0 0 127 0" result="hardAlpha"/>
<feOffset dy="4.5"/>
<feGaussianBlur stdDeviation="15"/>
<feComposite in2="hardAlpha" operator="out"/>
<feColorMatrix type="matrix" values="0 0 0 0 0 0 0 0 0 0 0 0 0 0 0 0 0 0 0.25 0"/>
<feBlend mode="normal" in2="BackgroundImageFix" result="effect1_dropShadow_2620_16516"/>
<feBlend mode="normal" in="SourceGraphic" in2="effect1_dropShadow_2620_16516" result="shape"/>
</filter>
</defs>
</svg>
