<svg width="284" height="240" viewBox="0 0 284 240" fill="none" xmlns="http://www.w3.org/2000/svg">
<g filter="url(#filter0_d_2620_19283)">
<path d="M137.091 141.849C138.892 142.878 140.004 144.794 140.004 146.869V157.156C140.004 161.579 135.24 164.364 131.386 162.195L113.23 151.976L86.2496 136.79L65.3048 125.002C63.4848 123.977 62.3587 122.051 62.3587 119.963V109.104C62.3587 104.664 67.1551 101.881 71.0097 104.084L86.2496 112.793L113.23 128.212L137.091 141.849Z" fill="white"/>
<path fill-rule="evenodd" clip-rule="evenodd" d="M52.3184 80.9867V142.325C52.3184 144.319 53.3456 146.172 55.0364 147.229L59.8502 150.237C60.3167 146.932 61.7619 144.289 64.1748 142.89C69.9836 139.521 79.201 144.634 84.7623 154.309C87.3786 158.861 88.7197 163.612 88.8016 167.718L125.633 190.577C125.894 186.71 127.382 183.585 130.083 182.019C135.892 178.651 145.109 183.763 150.67 193.439C153.698 198.705 155.018 204.238 154.655 208.73L171.464 219.487V192.594L150.714 180.492V143.514C150.714 141.497 150.044 137.463 144.02 133.429L52.3184 80.9867ZM137.091 141.849C138.892 142.878 140.004 144.794 140.004 146.869V157.156C140.004 161.579 135.24 164.364 131.386 162.195L113.23 151.976L86.2496 136.79L65.3048 125.002C63.4848 123.977 62.3587 122.051 62.3587 119.963V109.104C62.3587 104.664 67.1551 101.881 71.0097 104.084L86.2496 112.793L113.23 128.212L137.091 141.849Z" fill="#FEFACC"/>
<path d="M198.651 187.471C197.562 188.148 196.899 189.34 196.899 190.622C196.899 193.533 200.098 195.311 202.57 193.774L209.204 189.649C210.294 188.972 210.956 187.78 210.956 186.497C210.956 183.586 207.757 181.809 205.285 183.346L198.651 187.471Z" fill="#FEFACC"/>
<path d="M188.363 201.672C186.538 204.847 183.514 206.524 181.608 205.419C179.702 204.313 179.636 200.844 181.461 197.669C183.285 194.495 186.31 192.817 188.216 193.923C190.121 195.028 190.187 198.497 188.363 201.672Z" fill="#FEFACC"/>
<path d="M224.359 180.445C222.534 183.619 219.51 185.297 217.604 184.192C215.698 183.086 215.632 179.617 217.457 176.442C219.282 173.268 222.306 171.59 224.212 172.696C226.118 173.801 226.183 177.27 224.359 180.445Z" fill="#FEFACC"/>
<path fill-rule="evenodd" clip-rule="evenodd" d="M144.02 133.429L52.3184 80.9867L108.973 47.7379C110.775 46.6801 113.008 46.6773 114.813 47.7305L202.924 99.1396C207.719 102.165 208.278 104.518 208.278 109.897V146.875L231.036 157.633V181.855C231.036 183.923 229.932 185.834 228.139 186.866L171.464 219.487V192.594L150.714 180.492V143.514C150.714 141.497 150.044 137.463 144.02 133.429ZM188.363 201.672C186.538 204.847 183.514 206.524 181.608 205.419C179.702 204.313 179.636 200.844 181.461 197.669C183.285 194.495 186.31 192.817 188.216 193.923C190.121 195.028 190.187 198.497 188.363 201.672ZM202.57 193.774C200.098 195.311 196.899 193.533 196.899 190.622C196.899 189.34 197.562 188.148 198.651 187.471L205.285 183.346C207.757 181.809 210.956 183.586 210.956 186.497C210.956 187.78 210.294 188.972 209.204 189.649L202.57 193.774ZM224.359 180.445C222.534 183.619 219.51 185.297 217.604 184.192C215.698 183.086 215.632 179.617 217.457 176.442C219.282 173.268 222.306 171.59 224.212 172.696C226.118 173.801 226.183 177.27 224.359 180.445ZM167.476 160.525C163.622 162.81 158.746 160.032 158.746 155.551V138.067C158.746 136.025 159.823 134.135 161.58 133.094L190.846 115.745C194.701 113.46 199.577 116.238 199.577 120.718V138.202C199.577 140.244 198.5 142.135 196.743 143.176L167.476 160.525Z" fill="white"/>
<path d="M161.58 133.094C159.823 134.135 158.746 136.025 158.746 138.067V155.551C158.746 160.032 163.622 162.81 167.476 160.525L196.743 143.176C198.5 142.135 199.577 140.244 199.577 138.202V120.718C199.577 116.238 194.701 113.46 190.846 115.745L161.58 133.094Z" fill="#FEFACC"/>
<path fill-rule="evenodd" clip-rule="evenodd" d="M154.655 208.73C155.018 204.238 153.698 198.705 150.67 193.439C145.109 183.763 135.892 178.651 130.083 182.019C127.382 183.585 125.894 186.71 125.633 190.577C125.333 195.027 126.659 200.461 129.635 205.637C135.196 215.313 144.414 220.426 150.222 217.057C152.869 215.522 154.352 212.491 154.655 208.73ZM142.7 205.29C144.606 204.185 144.672 200.715 142.847 197.541C141.022 194.366 137.998 192.689 136.092 193.794C134.186 194.899 134.12 198.369 135.945 201.543C137.77 204.718 140.794 206.395 142.7 205.29Z" fill="white"/>
<path d="M142.847 197.541C144.672 200.715 144.606 204.185 142.7 205.29C140.794 206.395 137.77 204.718 135.945 201.543C134.12 198.369 134.186 194.899 136.092 193.794C137.998 192.689 141.022 194.366 142.847 197.541Z" fill="#FEFACC"/>
<path fill-rule="evenodd" clip-rule="evenodd" d="M88.8016 167.718C88.7197 163.612 87.3786 158.861 84.7623 154.309C79.201 144.634 69.9836 139.521 64.1748 142.89C61.7619 144.289 60.3167 146.932 59.8502 150.237C59.1936 154.888 60.4756 160.852 63.7268 166.508C69.2882 176.184 78.5056 181.296 84.3143 177.928C87.3904 176.144 88.8938 172.339 88.8016 167.718ZM77.103 166.423C79.0088 165.318 79.0747 161.849 77.2499 158.674C75.4252 155.5 72.401 153.822 70.4951 154.927C68.5892 156.033 68.5234 159.502 70.3481 162.677C72.1728 165.851 75.1971 167.529 77.103 166.423Z" fill="white"/>
<path d="M77.2499 158.674C79.0747 161.849 79.0088 165.318 77.103 166.423C75.1971 167.529 72.1728 165.851 70.3481 162.677C68.5234 159.502 68.5892 156.033 70.4951 154.927C72.401 153.822 75.4252 155.5 77.2499 158.674Z" fill="#FEFACC"/>
<path d="M52.3184 80.9867V142.325C52.3184 144.319 53.3456 146.172 55.0364 147.229L59.8502 150.237M52.3184 80.9867L144.02 133.429M52.3184 80.9867L108.973 47.7379C110.775 46.6801 113.008 46.6773 114.813 47.7305L202.924 99.1396M144.02 133.429L202.924 99.1396M144.02 133.429C150.044 137.463 150.714 141.497 150.714 143.514V180.492M202.924 99.1396C207.719 102.165 208.278 104.518 208.278 109.897V146.875M208.278 146.875L150.714 180.492M208.278 146.875L231.037 157.633M150.714 180.492L171.464 192.594M171.464 192.594V219.487M171.464 192.594L231.037 157.633M171.464 219.487L228.139 186.866C229.932 185.834 231.037 183.923 231.037 181.855V157.633M171.464 219.487L154.655 208.73M113.23 151.976L131.386 162.195C135.24 164.364 140.004 161.579 140.004 157.156V146.869C140.004 144.794 138.892 142.878 137.091 141.849L113.23 128.212M113.23 151.976V128.212M113.23 151.976L86.2496 136.79M113.23 128.212L86.2496 112.793M86.2496 136.79L65.3048 125.002C63.4848 123.977 62.3587 122.051 62.3587 119.963V109.104C62.3587 104.664 67.1551 101.881 71.0097 104.084L86.2496 112.793M86.2496 136.79V112.793M154.655 208.73C155.018 204.238 153.697 198.705 150.67 193.439C145.109 183.763 135.892 178.651 130.083 182.019C127.382 183.585 125.894 186.71 125.633 190.577M154.655 208.73C154.352 212.491 152.869 215.522 150.222 217.057C144.414 220.426 135.196 215.313 129.635 205.637C126.659 200.461 125.333 195.027 125.633 190.577M125.633 190.577L88.8016 167.718M88.8016 167.718C88.7197 163.612 87.3786 158.861 84.7623 154.309C79.201 144.634 69.9836 139.521 64.1748 142.89C61.7619 144.289 60.3167 146.932 59.8502 150.237M88.8016 167.718C88.8938 172.339 87.3905 176.144 84.3143 177.928C78.5056 181.296 69.2882 176.184 63.7268 166.508C60.4756 160.852 59.1936 154.888 59.8502 150.237M77.2499 158.674C79.0747 161.849 79.0088 165.318 77.103 166.423C75.1971 167.529 72.1728 165.851 70.3481 162.677C68.5234 159.502 68.5892 156.033 70.4951 154.927C72.401 153.822 75.4252 155.5 77.2499 158.674ZM142.847 197.541C144.672 200.715 144.606 204.185 142.7 205.29C140.794 206.395 137.77 204.718 135.945 201.543C134.12 198.369 134.186 194.899 136.092 193.794C137.998 192.689 141.022 194.366 142.847 197.541ZM188.363 201.672C186.538 204.847 183.514 206.524 181.608 205.419C179.702 204.313 179.636 200.844 181.461 197.669C183.285 194.495 186.31 192.817 188.216 193.923C190.121 195.028 190.187 198.497 188.363 201.672ZM224.359 180.445C222.534 183.619 219.51 185.297 217.604 184.192C215.698 183.086 215.632 179.617 217.457 176.442C219.282 173.268 222.306 171.59 224.212 172.696C226.118 173.801 226.183 177.27 224.359 180.445ZM199.577 120.718V138.202C199.577 140.244 198.5 142.135 196.743 143.176L167.476 160.525C163.622 162.81 158.746 160.032 158.746 155.551V138.067C158.746 136.025 159.823 134.135 161.58 133.094L190.846 115.745C194.701 113.46 199.577 116.238 199.577 120.718ZM210.956 186.497V186.497C210.956 187.78 210.294 188.972 209.204 189.649L202.57 193.774C200.098 195.311 196.899 193.533 196.899 190.622V190.622C196.899 189.34 197.562 188.148 198.651 187.471L205.285 183.346C207.757 181.808 210.956 183.586 210.956 186.497Z" stroke="#333015" stroke-width="4"/>
</g>
<defs>
<filter id="filter0_d_2620_19283" x="0.318359" y="0.442383" width="282.718" height="276.884" filterUnits="userSpaceOnUse" color-interpolation-filters="sRGB">
<feFlood flood-opacity="0" result="BackgroundImageFix"/>
<feColorMatrix in="SourceAlpha" type="matrix" values="0 0 0 0 0 0 0 0 0 0 0 0 0 0 0 0 0 0 127 0" result="hardAlpha"/>
<feOffset dy="5.5"/>
<feGaussianBlur stdDeviation="25"/>
<feComposite in2="hardAlpha" operator="out"/>
<feColorMatrix type="matrix" values="0 0 0 0 0 0 0 0 0 0 0 0 0 0 0 0 0 0 0.25 0"/>
<feBlend mode="normal" in2="BackgroundImageFix" result="effect1_dropShadow_2620_19283"/>
<feBlend mode="normal" in="SourceGraphic" in2="effect1_dropShadow_2620_19283" result="shape"/>
</filter>
</defs>
</svg>
