<svg width="92" height="93" viewBox="0 0 92 93" fill="none" xmlns="http://www.w3.org/2000/svg">
<g filter="url(#filter0_d_2620_19253)">
<path d="M44.7826 49.1451C45.4057 49.5012 45.7902 50.1638 45.7902 50.8815V54.4398C45.7902 55.9697 44.1425 56.9331 42.8093 56.1827L36.5291 52.648L27.1967 47.3953L19.9519 43.3177C19.3224 42.9634 18.9329 42.2972 18.9329 41.5748V37.8187C18.9329 36.283 20.5919 35.3202 21.9253 36.0822L27.1967 39.0948L36.5291 44.4282L44.7826 49.1451Z" fill="white"/>
<path fill-rule="evenodd" clip-rule="evenodd" d="M15.46 28.093V49.31C15.46 49.9996 15.8153 50.6406 16.4001 51.0061L18.0652 52.0465C18.2266 50.9033 18.7265 49.9892 19.5611 49.5052C21.5703 48.34 24.7586 50.1085 26.6823 53.4552C27.5872 55.0296 28.0511 56.6729 28.0794 58.093L40.8193 66C40.9095 64.6623 41.4243 63.5817 42.3585 63.0399C44.3678 61.8747 47.556 63.6432 49.4797 66.9899C50.5268 68.8115 50.9834 70.7253 50.858 72.2791L56.6721 76V66.6977L49.4947 62.5116V49.7209C49.4947 49.0233 49.2632 47.6279 47.1794 46.2326L15.46 28.093ZM44.7826 49.1451C45.4057 49.5012 45.7902 50.1638 45.7902 50.8815V54.4398C45.7902 55.9697 44.1425 56.9331 42.8093 56.1827L36.5291 52.648L27.1967 47.3953L19.9519 43.3177C19.3224 42.9634 18.9329 42.2972 18.9329 41.5748V37.8187C18.9329 36.283 20.5919 35.3202 21.9253 36.0822L27.1967 39.0948L36.5291 44.4282L44.7826 49.1451Z" fill="#FEFACC"/>
<path d="M66.076 64.9256C65.6993 65.1599 65.4702 65.5721 65.4702 66.0158C65.4702 67.0227 66.5766 67.6376 67.4317 67.1059L69.7264 65.679C70.1032 65.4448 70.3323 65.0326 70.3323 64.5889C70.3323 63.582 69.2258 62.9671 68.3707 63.4988L66.076 64.9256Z" fill="#FEFACC"/>
<path d="M62.5173 69.8378C61.8862 70.9359 60.8401 71.5161 60.1808 71.1338C59.5216 70.7515 59.4988 69.5514 60.13 68.4533C60.7612 67.3553 61.8072 66.775 62.4665 67.1573C63.1257 67.5396 63.1485 68.7397 62.5173 69.8378Z" fill="#FEFACC"/>
<path d="M74.9683 62.4954C74.3372 63.5935 73.2911 64.1737 72.6318 63.7914C71.9726 63.4091 71.9498 62.209 72.581 61.111C73.2122 60.0129 74.2582 59.4326 74.9175 59.815C75.5767 60.1973 75.5995 61.3973 74.9683 62.4954Z" fill="#FEFACC"/>
<path fill-rule="evenodd" clip-rule="evenodd" d="M47.1794 46.2326L15.46 28.093L35.0567 16.5924C35.6801 16.2265 36.4525 16.2255 37.0769 16.5898L67.5539 34.3721C69.2126 35.4187 69.4062 36.2326 69.4062 38.093V50.8837L77.2781 54.6047V62.9831C77.2781 63.6985 76.8959 64.3595 76.2758 64.7164L56.6721 76V66.6977L49.4947 62.5116V49.7209C49.4947 49.0233 49.2632 47.6279 47.1794 46.2326ZM62.5173 69.8378C61.8862 70.9359 60.8401 71.5161 60.1808 71.1338C59.5216 70.7515 59.4988 69.5514 60.13 68.4533C60.7612 67.3553 61.8072 66.775 62.4665 67.1573C63.1257 67.5396 63.1485 68.7397 62.5173 69.8378ZM67.4317 67.1059C66.5766 67.6376 65.4702 67.0227 65.4702 66.0158C65.4702 65.5721 65.6993 65.1599 66.076 64.9256L68.3707 63.4988C69.2258 62.9671 70.3323 63.582 70.3323 64.5889C70.3323 65.0326 70.1032 65.4448 69.7264 65.679L67.4317 67.1059ZM74.9683 62.4954C74.3372 63.5935 73.2911 64.1737 72.6318 63.7914C71.9726 63.4091 71.9498 62.209 72.581 61.111C73.2122 60.0129 74.2582 59.4326 74.9175 59.815C75.5767 60.1973 75.5995 61.3973 74.9683 62.4954ZM55.2929 55.6052C53.9597 56.3955 52.273 55.4346 52.273 53.8848V47.8371C52.273 47.1308 52.6456 46.4768 53.2532 46.1167L63.3764 40.1157C64.7096 39.3254 66.3963 40.2863 66.3963 41.8362V47.8838C66.3963 48.5902 66.0237 49.2441 65.4161 49.6043L55.2929 55.6052Z" fill="white"/>
<path d="M53.2532 46.1167C52.6456 46.4768 52.273 47.1308 52.273 47.8371V53.8848C52.273 55.4346 53.9597 56.3955 55.2929 55.6052L65.4161 49.6043C66.0237 49.2441 66.3963 48.5902 66.3963 47.8838V41.8362C66.3963 40.2863 64.7096 39.3254 63.3764 40.1157L53.2532 46.1167Z" fill="#FEFACC"/>
<path fill-rule="evenodd" clip-rule="evenodd" d="M50.858 72.2791C50.9834 70.7253 50.5268 68.8115 49.4797 66.9899C47.556 63.6432 44.3678 61.8747 42.3585 63.0399C41.4243 63.5817 40.9095 64.6623 40.8193 66C40.7156 67.5392 41.1743 69.4188 42.2036 71.2094C44.1272 74.5562 47.3155 76.3246 49.3247 75.1594C50.2403 74.6284 50.7531 73.5799 50.858 72.2791ZM46.7227 71.0893C47.382 70.707 47.4047 69.5069 46.7736 68.4088C46.1424 67.3108 45.0963 66.7305 44.4371 67.1128C43.7778 67.4951 43.7551 68.6952 44.3862 69.7933C45.0174 70.8913 46.0635 71.4716 46.7227 71.0893Z" fill="white"/>
<path d="M46.7736 68.4088C47.4047 69.5069 47.382 70.707 46.7227 71.0893C46.0635 71.4716 45.0174 70.8913 44.3862 69.7933C43.7551 68.6952 43.7778 67.4951 44.4371 67.1128C45.0963 66.7305 46.1424 67.3108 46.7736 68.4088Z" fill="#FEFACC"/>
<path fill-rule="evenodd" clip-rule="evenodd" d="M28.0794 58.093C28.0511 56.6729 27.5872 55.0296 26.6823 53.4552C24.7586 50.1085 21.5703 48.34 19.5611 49.5052C18.7265 49.9892 18.2266 50.9033 18.0652 52.0465C17.8381 53.6554 18.2815 55.7182 19.4061 57.6747C21.3298 61.0215 24.518 62.7899 26.5273 61.6247C27.5913 61.0077 28.1113 59.6917 28.0794 58.093ZM24.0329 57.6454C24.6921 57.2631 24.7149 56.063 24.0837 54.965C23.4526 53.8669 22.4065 53.2867 21.7473 53.669C21.088 54.0513 21.0653 55.2514 21.6964 56.3494C22.3276 57.4475 23.3737 58.0277 24.0329 57.6454Z" fill="white"/>
<path d="M24.0837 54.965C24.7149 56.063 24.6921 57.2631 24.0329 57.6454C23.3737 58.0277 22.3276 57.4475 21.6964 56.3494C21.0653 55.2514 21.088 54.0513 21.7473 53.669C22.4065 53.2867 23.4526 53.8669 24.0837 54.965Z" fill="#FEFACC"/>
<path d="M15.46 28.093V49.31C15.46 49.9996 15.8153 50.6406 16.4001 51.0061L18.0652 52.0465M15.46 28.093L47.1794 46.2326M15.46 28.093L35.0567 16.5924C35.6801 16.2265 36.4525 16.2255 37.0769 16.5898L67.5539 34.3721M47.1794 46.2326L67.5539 34.3721M47.1794 46.2326C49.2632 47.6279 49.4947 49.0233 49.4947 49.7209V62.5116M67.5539 34.3721C69.2126 35.4187 69.4062 36.2326 69.4062 38.093V50.8837M69.4062 50.8837L49.4947 62.5116M69.4062 50.8837L77.2781 54.6047M49.4947 62.5116L56.6721 66.6977M56.6721 66.6977V76M56.6721 66.6977L77.2781 54.6047M56.6721 76L76.2758 64.7164C76.8959 64.3595 77.2781 63.6985 77.2781 62.9831V54.6047M56.6721 76L50.858 72.2791M36.5291 52.648L42.8093 56.1827C44.1425 56.9331 45.7902 55.9696 45.7902 54.4398V50.8815C45.7902 50.1638 45.4057 49.5012 44.7826 49.1451L36.5291 44.4282M36.5291 52.648V44.4282M36.5291 52.648L27.1967 47.3953M36.5291 44.4282L27.1967 39.0948M27.1967 47.3953L19.9519 43.3177C19.3224 42.9634 18.9329 42.2972 18.9329 41.5748V37.8187C18.9329 36.283 20.5919 35.3202 21.9253 36.0822L27.1967 39.0948M27.1967 47.3953V39.0948M50.858 72.2791C50.9834 70.7253 50.5268 68.8115 49.4797 66.9899C47.556 63.6432 44.3678 61.8747 42.3585 63.0399C41.4243 63.5817 40.9095 64.6623 40.8193 66M50.858 72.2791C50.7531 73.5799 50.2403 74.6284 49.3247 75.1594C47.3155 76.3246 44.1272 74.5562 42.2036 71.2094C41.1743 69.4189 40.7156 67.5392 40.8193 66M40.8193 66L28.0794 58.093M28.0794 58.093C28.0511 56.6729 27.5872 55.0296 26.6823 53.4552C24.7586 50.1085 21.5703 48.34 19.5611 49.5052C18.7265 49.9892 18.2266 50.9033 18.0652 52.0465M28.0794 58.093C28.1113 59.6917 27.5913 61.0077 26.5273 61.6247C24.518 62.7899 21.3298 61.0214 19.4061 57.6747C18.2815 55.7182 17.8381 53.6554 18.0652 52.0465M24.0837 54.965C24.7149 56.063 24.6921 57.2631 24.0329 57.6454C23.3737 58.0277 22.3276 57.4475 21.6964 56.3494C21.0653 55.2514 21.088 54.0513 21.7473 53.669C22.4065 53.2867 23.4526 53.8669 24.0837 54.965ZM46.7736 68.4088C47.4047 69.5069 47.382 70.707 46.7227 71.0893C46.0635 71.4716 45.0174 70.8913 44.3862 69.7933C43.7551 68.6952 43.7778 67.4951 44.4371 67.1128C45.0963 66.7305 46.1424 67.3108 46.7736 68.4088ZM62.5173 69.8378C61.8862 70.9359 60.8401 71.5161 60.1808 71.1338C59.5216 70.7515 59.4988 69.5514 60.13 68.4533C60.7612 67.3553 61.8072 66.775 62.4665 67.1573C63.1257 67.5396 63.1485 68.7397 62.5173 69.8378ZM74.9683 62.4954C74.3372 63.5935 73.2911 64.1737 72.6318 63.7914C71.9726 63.4091 71.9498 62.209 72.581 61.111C73.2122 60.0129 74.2582 59.4326 74.9175 59.815C75.5767 60.1973 75.5995 61.3973 74.9683 62.4954ZM66.3963 41.8362V47.8838C66.3963 48.5902 66.0237 49.2441 65.4161 49.6043L55.2929 55.6052C53.9597 56.3955 52.273 55.4346 52.273 53.8848V47.8371C52.273 47.1308 52.6456 46.4768 53.2532 46.1167L63.3764 40.1157C64.7096 39.3254 66.3963 40.2863 66.3963 41.8362ZM70.3323 64.5889V64.5889C70.3323 65.0326 70.1032 65.4448 69.7264 65.679L67.4317 67.1059C66.5766 67.6376 65.4702 67.0227 65.4702 66.0157V66.0157C65.4702 65.5721 65.6993 65.1599 66.076 64.9256L68.3707 63.4988C69.2258 62.9671 70.3323 63.582 70.3323 64.5889Z" stroke="#333015" stroke-width="1.25"/>
</g>
<defs>
<filter id="filter0_d_2620_19253" x="2.83496" y="7.69238" width="87.0684" height="85.0391" filterUnits="userSpaceOnUse" color-interpolation-filters="sRGB">
<feFlood flood-opacity="0" result="BackgroundImageFix"/>
<feColorMatrix in="SourceAlpha" type="matrix" values="0 0 0 0 0 0 0 0 0 0 0 0 0 0 0 0 0 0 127 0" result="hardAlpha"/>
<feOffset dy="4"/>
<feGaussianBlur stdDeviation="6"/>
<feComposite in2="hardAlpha" operator="out"/>
<feColorMatrix type="matrix" values="0 0 0 0 0 0 0 0 0 0 0 0 0 0 0 0 0 0 0.25 0"/>
<feBlend mode="normal" in2="BackgroundImageFix" result="effect1_dropShadow_2620_19253"/>
<feBlend mode="normal" in="SourceGraphic" in2="effect1_dropShadow_2620_19253" result="shape"/>
</filter>
</defs>
</svg>
