<svg width="92" height="93" viewBox="0 0 92 93" fill="none" xmlns="http://www.w3.org/2000/svg">
<g filter="url(#filter0_d_2620_16531)">
<path d="M73.4545 38.1526L70.3636 36.8871V40.1413H71.1087C71.8018 40.1413 72.3636 40.7032 72.3636 41.3963C72.3636 41.8496 72.1192 42.2676 71.7242 42.4899L70.3636 43.2557L53.0909 52.9775V56.051L70.3636 46.2366L73.4545 44.4803V38.1526Z" fill="white"/>
<path d="M70.3636 52.616V57.8589V60.0217C70.3636 60.798 70.8129 61.5042 71.516 61.8332L73.4545 62.7403V44.4803L70.3636 46.2366V52.616Z" fill="#D2EDF7"/>
<path d="M53.0909 49.9041V52.9775L70.3636 43.2557L71.7242 42.4899C72.1192 42.2676 72.3636 41.8496 72.3636 41.3963C72.3636 40.7032 71.8018 40.1413 71.1087 40.1413H70.3636L62.3636 44.663L53.0909 49.9041Z" fill="#D2EDF7"/>
<path d="M19.2727 32.7289L16 31.2825V55.535C16 56.2941 16.4298 56.9879 17.1096 57.3258L19.2727 58.4013V32.7289Z" fill="#D2EDF7"/>
<path d="M38.7273 34.5385L41.8182 32.7289V26.13L38.7273 27.9252V34.5385Z" fill="#D2EDF7"/>
<path d="M22.3636 31.2825V34.356L38.7273 25.1037L40.2133 24.2635C40.6433 24.0204 40.9091 23.5647 40.9091 23.0708C40.9091 22.314 40.2956 21.7006 39.5389 21.7006H38.7273L22.3636 31.2825Z" fill="#D2EDF7"/>
<path d="M47.2727 62.0171L22.3636 47.9154V53.1583L47.2727 67.4409V62.0171Z" fill="#D2EDF7"/>
<path d="M36.901 45.5385C36.2416 45.9636 35.3946 45.9639 34.7348 45.5393L30 42.4916V45.1035C30 45.8064 30.369 46.4577 30.9719 46.819L34.7957 49.1105C35.4256 49.488 36.2118 49.4899 36.8436 49.1154L44.2926 44.6998C44.9002 44.3396 45.2727 43.6857 45.2727 42.9793V40.1413L36.901 45.5385Z" fill="#D2EDF7"/>
<path d="M50.3636 75.9286V51.3409L47.2727 49.7233V62.0171V67.4409V73.1003C47.2727 73.8445 47.686 74.5272 48.3454 74.8723L50.3636 75.9286Z" fill="#D2EDF7"/>
<path fill-rule="evenodd" clip-rule="evenodd" d="M50.3636 75.9286L52.0231 75.0543C52.6798 74.7083 53.0909 74.0271 53.0909 73.2848V67.4409V62.1979L70.3636 52.616V46.2366L53.0909 56.051V52.9775V49.9041L62.3636 44.663L45.2727 34.7355V18.2655L42.5463 17.2667C42.0779 17.0951 41.5622 17.1048 41.1005 17.2938L38.7273 18.2655V21.7006H39.5389C40.2956 21.7006 40.9091 22.314 40.9091 23.0708C40.9091 23.5647 40.6433 24.0204 40.2133 24.2635L38.7273 25.1037L22.3636 34.356V31.2825L20.0094 30.3186C19.5363 30.1249 19.007 30.1197 18.5303 30.3041L16 31.2825L19.2727 32.7289V58.4013L21.2953 57.3366C21.9523 56.9907 22.3636 56.3093 22.3636 55.5668V53.1583V47.9154L47.2727 62.0171V49.7233L50.3636 51.3409V75.9286ZM71.918 36.0548L70.3636 36.8871L73.4545 38.1526V44.4803V62.7403L75.1581 61.5303C75.6863 61.1552 76 60.5475 76 59.8998V36.8871L73.5834 35.9526C73.0399 35.7424 72.4318 35.7798 71.918 36.0548ZM38.7273 34.5385L22.3636 44.1187V37.4295L38.7273 27.9252L41.8182 26.13V32.7289L38.7273 34.5385ZM36.901 45.5385C36.2416 45.9636 35.3946 45.9639 34.7348 45.5393L30 42.4916V45.1035C30 45.8064 30.369 46.4577 30.9719 46.819L34.7957 49.1105C35.4256 49.488 36.2118 49.4899 36.8436 49.1154L44.2926 44.6998C44.9002 44.3396 45.2727 43.6857 45.2727 42.9793V40.1413L36.901 45.5385Z" fill="white"/>
<path d="M70.3636 52.616L53.0909 62.1979V67.4409L70.3636 57.8589V52.616Z" fill="#D2EDF7"/>
<path d="M50.3636 75.9286V51.3409M50.3636 75.9286L52.0231 75.0543M50.3636 75.9286L48.3454 74.8723M50.3636 51.3409L53.0909 49.9041M50.3636 51.3409L47.2727 49.7233M53.0909 49.9041L50.8441 48.8527C50.309 48.6023 49.6905 48.6013 49.1546 48.85L47.2727 49.7233M53.0909 49.9041V52.9775M53.0909 49.9041L62.3636 44.663M47.2727 49.7233V62.0171M47.2727 62.0171L22.3636 47.9154M47.2727 62.0171V67.4409M19.2727 58.4013V32.7289M19.2727 58.4013L21.2953 57.3366M19.2727 58.4013L17.1096 57.3258M22.3636 31.2825L19.2727 32.7289M22.3636 31.2825V34.356M22.3636 31.2825L38.7273 21.7006M22.3636 31.2825L20.0094 30.3186M19.2727 32.7289L16 31.2825M16 31.2825V55.535M16 31.2825L18.5303 30.3041M22.3636 47.9154V53.1583M22.3636 47.9154V44.1187M22.3636 53.1583L47.2727 67.4409M22.3636 53.1583V55.5668M47.2727 67.4409V73.1003M73.4545 62.7403V44.4803M73.4545 62.7403L75.1581 61.5303M73.4545 62.7403L71.516 61.8332M73.4545 38.1526L76 36.8871M73.4545 38.1526L70.3636 36.8871M73.4545 38.1526V44.4803M76 36.8871L73.5834 35.9526M76 36.8871V59.8998M70.3636 36.8871V40.1413M70.3636 36.8871L71.918 36.0548M70.3636 52.616L53.0909 62.1979M70.3636 52.616V57.8589M70.3636 52.616V46.2366M53.0909 62.1979V67.4409M53.0909 62.1979V56.051M53.0909 67.4409L70.3636 57.8589M53.0909 67.4409V73.2848M70.3636 57.8589V60.0217M73.4545 44.4803L70.3636 46.2366M53.0909 56.051V52.9775M53.0909 56.051L70.3636 46.2366M53.0909 52.9775L70.3636 43.2557L71.7242 42.4899C72.1192 42.2676 72.3636 41.8496 72.3636 41.3963V41.3963C72.3636 40.7032 71.8018 40.1413 71.1087 40.1413H70.3636M70.3636 40.1413L62.3636 44.663M62.3636 44.663L45.2727 34.7355M41.8182 32.7289L45.2727 34.7355M41.8182 32.7289L38.7273 34.5385M41.8182 32.7289V26.13M22.3636 44.1187L38.7273 34.5385M22.3636 44.1187V37.4295M45.2727 34.7355V18.2655M45.2727 18.2655L41.8182 19.5311M45.2727 18.2655L42.5463 17.2667M41.8182 19.5311L38.7273 18.2655M41.8182 19.5311V26.13M38.7273 18.2655V21.7006M38.7273 18.2655L41.1005 17.2938M38.7273 34.5385V27.9252M41.8182 26.13L38.7273 27.9252M22.3636 37.4295V34.356M22.3636 37.4295L38.7273 27.9252M22.3636 34.356L38.7273 25.1037L40.2133 24.2635C40.6433 24.0204 40.9091 23.5647 40.9091 23.0708V23.0708C40.9091 22.314 40.2956 21.7006 39.5389 21.7006H38.7273M30 42.4916L34.7348 45.5393C35.3946 45.9639 36.2416 45.9636 36.901 45.5385L45.2727 40.1413M30 42.4916V45.1035C30 45.8064 30.369 46.4577 30.9719 46.819L34.7957 49.1105C35.4256 49.4881 36.2118 49.4899 36.8436 49.1154L44.2926 44.6998C44.9002 44.3396 45.2727 43.6857 45.2727 42.9793V40.1413M30 42.4916L38.1195 37.486C38.7216 37.1148 39.4749 37.0892 40.1007 37.4187L45.2727 40.1413M52.0231 75.0543C52.6798 74.7083 53.0909 74.0271 53.0909 73.2848M52.0231 75.0543V75.0543C52.6798 74.7083 53.0909 74.0271 53.0909 73.2848V73.2848M48.3454 74.8723C47.686 74.5272 47.2727 73.8445 47.2727 73.1003M48.3454 74.8723V74.8723C47.686 74.5272 47.2727 73.8445 47.2727 73.1003V73.1003M22.3636 55.5668C22.3636 56.3093 21.9523 56.9907 21.2953 57.3366M22.3636 55.5668V55.5668C22.3636 56.3093 21.9523 56.9907 21.2953 57.3366V57.3366M17.1096 57.3258C16.4298 56.9879 16 56.2941 16 55.535M17.1096 57.3258V57.3258C16.4298 56.9879 16 56.2941 16 55.535V55.535M18.5303 30.3041C19.007 30.1197 19.5363 30.1249 20.0094 30.3186M18.5303 30.3041V30.3041C19.007 30.1197 19.5363 30.1249 20.0094 30.3186V30.3186M41.1005 17.2938C41.5622 17.1048 42.0779 17.0951 42.5463 17.2667M41.1005 17.2938V17.2938C41.5622 17.1048 42.0779 17.0951 42.5463 17.2667V17.2667M71.918 36.0548C72.4318 35.7798 73.0399 35.7424 73.5834 35.9526M71.918 36.0548V36.0548C72.4318 35.7798 73.0399 35.7424 73.5834 35.9526V35.9526M76 59.8998C76 60.5475 75.6863 61.1552 75.1581 61.5303M76 59.8998V59.8998C76 60.5475 75.6863 61.1552 75.1581 61.5303V61.5303M71.516 61.8332C70.8129 61.5042 70.3636 60.798 70.3636 60.0217M71.516 61.8332V61.8332C70.8129 61.5042 70.3636 60.798 70.3636 60.0217V60.0217" stroke="#18282E" stroke-width="1.25"/>
</g>
<defs>
<filter id="filter0_d_2620_16531" x="3.375" y="8.51953" width="85.25" height="84.1152" filterUnits="userSpaceOnUse" color-interpolation-filters="sRGB">
<feFlood flood-opacity="0" result="BackgroundImageFix"/>
<feColorMatrix in="SourceAlpha" type="matrix" values="0 0 0 0 0 0 0 0 0 0 0 0 0 0 0 0 0 0 127 0" result="hardAlpha"/>
<feOffset dy="4"/>
<feGaussianBlur stdDeviation="6"/>
<feComposite in2="hardAlpha" operator="out"/>
<feColorMatrix type="matrix" values="0 0 0 0 0 0 0 0 0 0 0 0 0 0 0 0 0 0 0.25 0"/>
<feBlend mode="normal" in2="BackgroundImageFix" result="effect1_dropShadow_2620_16531"/>
<feBlend mode="normal" in="SourceGraphic" in2="effect1_dropShadow_2620_16531" result="shape"/>
</filter>
</defs>
</svg>
