<svg width="281" height="278" viewBox="0 0 281 278" fill="none" xmlns="http://www.w3.org/2000/svg">
<g filter="url(#filter0_d_2620_16530)">
<path d="M220.778 109.041L211.713 105.329V114.874H213.898C215.931 114.874 217.579 116.522 217.579 118.554C217.579 119.884 216.862 121.11 215.703 121.762L211.713 124.008L161.052 152.522V161.537L211.713 132.751L220.778 127.6V109.041Z" fill="white"/>
<path d="M211.713 151.462V166.839V173.183C211.713 175.46 213.03 177.531 215.092 178.496L220.778 181.157V127.6L211.713 132.751V151.462Z" fill="#D2EDF7"/>
<path d="M161.052 143.508V152.522L211.713 124.008L215.703 121.762C216.862 121.11 217.579 119.884 217.579 118.554C217.579 116.522 215.931 114.874 213.898 114.874H211.713L188.249 128.136L161.052 143.508Z" fill="#D2EDF7"/>
<path d="M61.8626 93.1329L52.2637 88.8908V160.023C52.2637 162.25 53.5244 164.285 55.5182 165.276L61.8626 168.43V93.1329Z" fill="#D2EDF7"/>
<path d="M118.923 98.4405L127.989 93.1329V73.7783L118.923 79.0438V98.4405Z" fill="#D2EDF7"/>
<path d="M70.9283 88.8908V97.9053L118.923 70.7683L123.281 68.3039C124.542 67.5909 125.322 66.2543 125.322 64.8056C125.322 62.5861 123.523 60.7868 121.303 60.7868H118.923L70.9283 88.8908Z" fill="#D2EDF7"/>
<path d="M143.987 179.036L70.9283 137.675V153.053L143.987 194.943V179.036Z" fill="#D2EDF7"/>
<path d="M113.566 130.704C111.632 131.95 109.148 131.951 107.213 130.706L93.3258 121.767V129.428C93.3258 131.489 94.408 133.4 96.1764 134.459L107.392 141.18C109.239 142.288 111.545 142.293 113.398 141.195L135.246 128.244C137.028 127.187 138.121 125.269 138.121 123.198V114.874L113.566 130.704Z" fill="#D2EDF7"/>
<path d="M153.052 219.838V147.722L143.987 142.978V179.036V194.943V211.543C143.987 213.725 145.199 215.728 147.133 216.74L153.052 219.838Z" fill="#D2EDF7"/>
<path fill-rule="evenodd" clip-rule="evenodd" d="M153.052 219.838L157.92 217.274C159.846 216.259 161.052 214.261 161.052 212.084V194.943V179.566L211.713 151.462V132.751L161.052 161.537V152.522V143.508L188.249 128.136L138.121 99.0183V50.7118L130.124 47.7824C128.75 47.279 127.238 47.3074 125.884 47.8618L118.923 50.7118V60.7868H121.303C123.523 60.7868 125.322 62.5861 125.322 64.8056C125.322 66.2543 124.542 67.5909 123.281 68.3039L118.923 70.7683L70.9283 97.9053V88.8908L64.0233 86.0636C62.6358 85.4955 61.0834 85.4803 59.6849 86.021L52.2637 88.8908L61.8626 93.1329V168.43L67.7948 165.307C69.7218 164.293 70.9283 162.294 70.9283 160.117V153.053V137.675L143.987 179.036V142.978L153.052 147.722V219.838ZM216.272 102.888L211.713 105.329L220.778 109.041V127.6V181.157L225.775 177.608C227.324 176.508 228.244 174.725 228.244 172.825V105.329L221.156 102.588C219.562 101.972 217.778 102.081 216.272 102.888ZM118.923 98.4405L70.9283 126.539V106.92L118.923 79.0438L127.989 73.7783V93.1329L118.923 98.4405ZM113.566 130.704C111.632 131.95 109.148 131.951 107.213 130.706L93.3258 121.767V129.428C93.3258 131.489 94.408 133.4 96.1764 134.459L107.392 141.18C109.239 142.288 111.545 142.293 113.398 141.195L135.246 128.244C137.028 127.187 138.121 125.269 138.121 123.198V114.874L113.566 130.704Z" fill="white"/>
<path d="M211.713 151.462L161.052 179.566V194.943L211.713 166.839V151.462Z" fill="#D2EDF7"/>
<path d="M153.052 219.838V147.722M153.052 219.838L157.92 217.274M153.052 219.838L147.133 216.74M153.052 147.722L161.052 143.508M153.052 147.722L143.987 142.978M161.052 143.508L154.462 140.424C152.892 139.69 151.078 139.687 149.506 140.416L143.987 142.978M161.052 143.508V152.522M161.052 143.508L188.249 128.136M143.987 142.978V179.036M143.987 179.036L70.9283 137.675M143.987 179.036V194.943M61.8626 168.43V93.1329M61.8626 168.43L67.7948 165.307M61.8626 168.43L55.5182 165.276M70.9283 88.8908L61.8626 93.1329M70.9283 88.8908V97.9053M70.9283 88.8908L118.923 60.7868M70.9283 88.8908L64.0233 86.0636M61.8626 93.1329L52.2637 88.8908M52.2637 88.8908V160.023M52.2637 88.8908L59.6849 86.021M70.9283 137.675V153.053M70.9283 137.675V126.539M70.9283 153.053L143.987 194.943M70.9283 153.053V160.117M143.987 194.943V211.543M220.778 181.157V127.6M220.778 181.157L225.775 177.608M220.778 181.157L215.092 178.496M220.778 109.041L228.244 105.329M220.778 109.041L211.713 105.329M220.778 109.041V127.6M228.244 105.329L221.156 102.588M228.244 105.329V172.825M211.713 105.329V114.874M211.713 105.329L216.272 102.888M211.713 151.462L161.052 179.566M211.713 151.462V166.839M211.713 151.462V132.751M161.052 179.566V194.943M161.052 179.566V161.537M161.052 194.943L211.713 166.839M161.052 194.943V212.084M211.713 166.839V173.183M220.778 127.6L211.713 132.751M161.052 161.537V152.522M161.052 161.537L211.713 132.751M161.052 152.522L211.713 124.008L215.703 121.762C216.862 121.11 217.579 119.884 217.579 118.554V118.554C217.579 116.522 215.931 114.874 213.898 114.874H211.713M211.713 114.874L188.249 128.136M188.249 128.136L138.121 99.0183M127.989 93.1329L138.121 99.0183M127.989 93.1329L118.923 98.4405M127.989 93.1329V73.7783M70.9283 126.539L118.923 98.4405M70.9283 126.539V106.92M138.121 99.0183V50.7118M138.121 50.7118L127.989 54.4237M138.121 50.7118L130.124 47.7824M127.989 54.4237L118.923 50.7118M127.989 54.4237V73.7783M118.923 50.7118V60.7868M118.923 50.7118L125.884 47.8618M118.923 98.4405V79.0438M127.989 73.7783L118.923 79.0438M70.9283 106.92V97.9053M70.9283 106.92L118.923 79.0438M70.9283 97.9053L118.923 70.7683L123.281 68.3039C124.542 67.5909 125.322 66.2543 125.322 64.8056V64.8056C125.322 62.5861 123.523 60.7868 121.303 60.7868H118.923M93.3258 121.767L107.213 130.706C109.148 131.951 111.632 131.95 113.566 130.704L138.121 114.874M93.3258 121.767V129.428C93.3258 131.489 94.408 133.4 96.1764 134.459L107.392 141.18C109.239 142.288 111.545 142.293 113.398 141.195L135.246 128.244C137.028 127.187 138.121 125.269 138.121 123.198V114.874M93.3258 121.767L117.14 107.085C118.906 105.997 121.116 105.922 122.951 106.888L138.121 114.874M157.92 217.274C159.846 216.259 161.052 214.261 161.052 212.084M157.92 217.274V217.274C159.846 216.259 161.052 214.261 161.052 212.084V212.084M147.133 216.74C145.199 215.728 143.987 213.725 143.987 211.543M147.133 216.74V216.74C145.199 215.728 143.987 213.725 143.987 211.543V211.543M70.9283 160.117C70.9283 162.294 69.7218 164.293 67.7948 165.307M70.9283 160.117V160.117C70.9283 162.294 69.7218 164.293 67.7948 165.307V165.307M55.5182 165.276C53.5244 164.285 52.2637 162.25 52.2637 160.023M55.5182 165.276V165.276C53.5244 164.285 52.2637 162.25 52.2637 160.023V160.023M59.6849 86.021C61.0834 85.4803 62.6358 85.4955 64.0233 86.0636M59.6849 86.021V86.021C61.0834 85.4803 62.6358 85.4955 64.0233 86.0636V86.0636M125.884 47.8618C127.238 47.3074 128.75 47.279 130.124 47.7824M125.884 47.8618V47.8618C127.238 47.3074 128.75 47.279 130.124 47.7824V47.7824M216.272 102.888C217.778 102.081 219.562 101.972 221.156 102.588M216.272 102.888V102.888C217.778 102.081 219.562 101.972 221.156 102.588V102.588M228.244 172.825C228.244 174.725 227.324 176.508 225.775 177.608M228.244 172.825V172.825C228.244 174.725 227.324 176.508 225.775 177.608V177.608M215.092 178.496C213.03 177.531 211.713 175.46 211.713 173.183M215.092 178.496V178.496C213.03 177.531 211.713 175.46 211.713 173.183V173.183" stroke="#18282E" stroke-width="4"/>
</g>
<defs>
<filter id="filter0_d_2620_16530" x="0.263672" y="0.924805" width="279.98" height="276.672" filterUnits="userSpaceOnUse" color-interpolation-filters="sRGB">
<feFlood flood-opacity="0" result="BackgroundImageFix"/>
<feColorMatrix in="SourceAlpha" type="matrix" values="0 0 0 0 0 0 0 0 0 0 0 0 0 0 0 0 0 0 127 0" result="hardAlpha"/>
<feOffset dy="5.5"/>
<feGaussianBlur stdDeviation="25"/>
<feComposite in2="hardAlpha" operator="out"/>
<feColorMatrix type="matrix" values="0 0 0 0 0 0 0 0 0 0 0 0 0 0 0 0 0 0 0.25 0"/>
<feBlend mode="normal" in2="BackgroundImageFix" result="effect1_dropShadow_2620_16530"/>
<feBlend mode="normal" in="SourceGraphic" in2="effect1_dropShadow_2620_16530" result="shape"/>
</filter>
</defs>
</svg>
