<svg width="168" height="166" viewBox="0 0 168 166" fill="none" xmlns="http://www.w3.org/2000/svg">
<g filter="url(#filter0_d_2620_16527)">
<path d="M131.746 63.9743L126.343 61.7621V67.4505H127.645C128.857 67.4505 129.839 68.4326 129.839 69.6441C129.839 70.4364 129.411 71.1672 128.721 71.5558L126.343 72.8944L96.1504 89.8878V95.2602L126.343 78.1048L131.746 75.0349V63.9743Z" fill="white"/>
<path d="M126.343 89.2558V98.4204V102.201C126.343 103.558 127.128 104.792 128.357 105.367L131.746 106.953V75.0349L126.343 78.1048V89.2558Z" fill="#D2EDF7"/>
<path d="M96.1504 84.5155V89.8878L126.343 72.8944L128.721 71.5558C129.411 71.1672 129.839 70.4364 129.839 69.6441C129.839 68.4326 128.857 67.4505 127.645 67.4505H126.343L112.359 75.3543L96.1504 84.5155Z" fill="#D2EDF7"/>
<path d="M37.0371 54.4937L31.3164 51.9655V94.3582C31.3164 95.6852 32.0677 96.8978 33.256 97.4886L37.0371 99.3684V54.4937Z" fill="#D2EDF7"/>
<path d="M71.0431 57.6568L76.4459 54.4937V42.959L71.0431 46.097V57.6568Z" fill="#D2EDF7"/>
<path d="M42.4399 51.9655V57.3379L71.0431 41.1651L73.6406 39.6964C74.3922 39.2715 74.8569 38.4749 74.8569 37.6116C74.8569 36.2888 73.7846 35.2165 72.4618 35.2165H71.0431L42.4399 51.9655Z" fill="#D2EDF7"/>
<path d="M85.9804 105.689L42.4399 81.0393V90.2039L85.9804 115.169V105.689Z" fill="#D2EDF7"/>
<path d="M67.8509 76.8846C66.6982 77.6277 65.2176 77.6282 64.0644 76.886L55.7881 71.5587V76.1242C55.7881 77.3529 56.433 78.4914 57.487 79.1229L64.1708 83.1284C65.2719 83.7883 66.6462 83.7916 67.7505 83.137L80.7711 75.4185C81.8332 74.7889 82.4844 73.6459 82.4844 72.4112V67.4505L67.8509 76.8846Z" fill="#D2EDF7"/>
<path d="M91.3832 130.006V87.027L85.9804 84.1995V105.689V115.169V125.062C85.9804 126.363 86.7027 127.556 87.8553 128.159L91.3832 130.006Z" fill="#D2EDF7"/>
<path fill-rule="evenodd" clip-rule="evenodd" d="M91.3832 130.006L94.2839 128.477C95.4318 127.873 96.1504 126.682 96.1504 125.384V115.169V106.005L126.343 89.2558V78.1048L96.1504 95.2602V89.8878V84.5155L112.359 75.3543L82.4844 58.0012V29.2121L77.7187 27.4663C76.8999 27.1663 75.9985 27.1832 75.1915 27.5136L71.0431 29.2121V35.2165H72.4618C73.7846 35.2165 74.8569 36.2888 74.8569 37.6116C74.8569 38.4749 74.3922 39.2715 73.6406 39.6964L71.0431 41.1651L42.4399 57.3379V51.9655L38.3248 50.2806C37.4978 49.9421 36.5727 49.933 35.7392 50.2552L31.3164 51.9655L37.0371 54.4937V99.3684L40.5724 97.5073C41.7209 96.9028 42.4399 95.7117 42.4399 94.4138V90.2039V81.0393L85.9804 105.689V84.1995L91.3832 87.027V130.006ZM129.06 60.3074L126.343 61.7621L131.746 63.9743V75.0349V106.953L134.723 104.838C135.646 104.182 136.195 103.12 136.195 101.988V61.7621L131.971 60.1287C131.021 59.7613 129.958 59.8266 129.06 60.3074ZM71.0431 57.6568L42.4399 74.4029V62.7102L71.0431 46.097L76.4459 42.959V54.4937L71.0431 57.6568ZM67.8509 76.8846C66.6982 77.6277 65.2176 77.6282 64.0644 76.886L55.7881 71.5587V76.1242C55.7881 77.3529 56.433 78.4914 57.487 79.1229L64.1708 83.1284C65.2719 83.7883 66.6462 83.7916 67.7505 83.137L80.7711 75.4185C81.8332 74.7889 82.4844 73.6459 82.4844 72.4112V67.4505L67.8509 76.8846Z" fill="white"/>
<path d="M126.343 89.2558L96.1504 106.005V115.169L126.343 98.4204V89.2558Z" fill="#D2EDF7"/>
<path d="M91.3832 130.006V87.027M91.3832 130.006L94.2839 128.477M91.3832 130.006L87.8553 128.159M91.3832 87.027L96.1504 84.5155M91.3832 87.027L85.9804 84.1995M96.1504 84.5155L92.2231 82.6778C91.2877 82.2401 90.2066 82.2384 89.2699 82.6731L85.9804 84.1995M96.1504 84.5155V89.8878M96.1504 84.5155L112.359 75.3543M85.9804 84.1995V105.689M85.9804 105.689L42.4399 81.0393M85.9804 105.689V115.169M37.0371 99.3684V54.4937M37.0371 99.3684L40.5724 97.5073M37.0371 99.3684L33.256 97.4886M42.4399 51.9655L37.0371 54.4937M42.4399 51.9655V57.3379M42.4399 51.9655L71.0431 35.2165M42.4399 51.9655L38.3248 50.2806M37.0371 54.4937L31.3164 51.9655M31.3164 51.9655V94.3582M31.3164 51.9655L35.7392 50.2552M42.4399 81.0393V90.2039M42.4399 81.0393V74.4029M42.4399 90.2039L85.9804 115.169M42.4399 90.2039V94.4138M85.9804 115.169V125.062M131.746 106.953V75.0349M131.746 106.953L134.723 104.838M131.746 106.953L128.357 105.367M131.746 63.9743L136.195 61.7621M131.746 63.9743L126.343 61.7621M131.746 63.9743V75.0349M136.195 61.7621L131.971 60.1287M136.195 61.7621V101.988M126.343 61.7621V67.4505M126.343 61.7621L129.06 60.3074M126.343 89.2558L96.1504 106.005M126.343 89.2558V98.4204M126.343 89.2558V78.1048M96.1504 106.005V115.169M96.1504 106.005V95.2602M96.1504 115.169L126.343 98.4204M96.1504 115.169V125.384M126.343 98.4204V102.201M131.746 75.0349L126.343 78.1048M96.1504 95.2602V89.8878M96.1504 95.2602L126.343 78.1048M96.1504 89.8878L126.343 72.8944L128.721 71.5558C129.411 71.1672 129.839 70.4364 129.839 69.6441V69.6441C129.839 68.4326 128.857 67.4505 127.645 67.4505H126.343M126.343 67.4505L112.359 75.3543M112.359 75.3543L82.4844 58.0012M76.4459 54.4937L82.4844 58.0012M76.4459 54.4937L71.0431 57.6568M76.4459 54.4937V42.959M42.4399 74.4029L71.0431 57.6568M42.4399 74.4029V62.7102M82.4844 58.0012V29.2121M82.4844 29.2121L76.4459 31.4243M82.4844 29.2121L77.7187 27.4663M76.4459 31.4243L71.0431 29.2121M76.4459 31.4243V42.959M71.0431 29.2121V35.2165M71.0431 29.2121L75.1915 27.5136M71.0431 57.6568V46.097M76.4459 42.959L71.0431 46.097M42.4399 62.7102V57.3379M42.4399 62.7102L71.0431 46.097M42.4399 57.3379L71.0431 41.1651L73.6406 39.6964C74.3922 39.2715 74.8569 38.4749 74.8569 37.6116V37.6116C74.8569 36.2888 73.7846 35.2165 72.4618 35.2165H71.0431M55.7881 71.5587L64.0644 76.886C65.2176 77.6282 66.6982 77.6277 67.8509 76.8846L82.4844 67.4505M55.7881 71.5587V76.1242C55.7881 77.3529 56.433 78.4914 57.487 79.1229L64.1708 83.1284C65.2719 83.7883 66.6462 83.7916 67.7505 83.137L80.7711 75.4185C81.8332 74.7889 82.4844 73.6459 82.4844 72.4112V67.4505M55.7881 71.5587L69.9807 62.8089C71.0331 62.1602 72.3499 62.1154 73.4439 62.6913L82.4844 67.4505M94.2839 128.477C95.4318 127.873 96.1504 126.682 96.1504 125.384M94.2839 128.477V128.477C95.4318 127.873 96.1504 126.682 96.1504 125.384V125.384M87.8553 128.159C86.7027 127.556 85.9804 126.363 85.9804 125.062M87.8553 128.159V128.159C86.7027 127.556 85.9804 126.363 85.9804 125.062V125.062M42.4399 94.4138C42.4399 95.7117 41.7209 96.9028 40.5724 97.5073M42.4399 94.4138V94.4138C42.4399 95.7117 41.7209 96.9028 40.5724 97.5073V97.5073M33.256 97.4886C32.0677 96.8978 31.3164 95.6852 31.3164 94.3582M33.256 97.4886V97.4886C32.0677 96.8978 31.3164 95.6852 31.3164 94.3582V94.3582M35.7392 50.2552C36.5727 49.933 37.4978 49.9421 38.3248 50.2806M35.7392 50.2552V50.2552C36.5727 49.933 37.4978 49.9421 38.3248 50.2806V50.2806M75.1915 27.5136C75.9985 27.1832 76.8999 27.1663 77.7187 27.4663M75.1915 27.5136V27.5136C75.9985 27.1832 76.8999 27.1663 77.7187 27.4663V27.4663M129.06 60.3074C129.958 59.8266 131.021 59.7613 131.971 60.1287M129.06 60.3074V60.3074C129.958 59.8266 131.021 59.7613 131.971 60.1287V60.1287M136.195 101.988C136.195 103.12 135.646 104.182 134.723 104.838M136.195 101.988V101.988C136.195 103.12 135.646 104.182 134.723 104.838V104.838M128.357 105.367C127.128 104.792 126.343 103.558 126.343 102.201M128.357 105.367V105.367C127.128 104.792 126.343 103.558 126.343 102.201V102.201" stroke="#18282E" stroke-width="2"/>
</g>
<defs>
<filter id="filter0_d_2620_16527" x="0.316406" y="0.75293" width="166.879" height="164.882" filterUnits="userSpaceOnUse" color-interpolation-filters="sRGB">
<feFlood flood-opacity="0" result="BackgroundImageFix"/>
<feColorMatrix in="SourceAlpha" type="matrix" values="0 0 0 0 0 0 0 0 0 0 0 0 0 0 0 0 0 0 127 0" result="hardAlpha"/>
<feOffset dy="4.5"/>
<feGaussianBlur stdDeviation="15"/>
<feComposite in2="hardAlpha" operator="out"/>
<feColorMatrix type="matrix" values="0 0 0 0 0 0 0 0 0 0 0 0 0 0 0 0 0 0 0.25 0"/>
<feBlend mode="normal" in2="BackgroundImageFix" result="effect1_dropShadow_2620_16527"/>
<feBlend mode="normal" in="SourceGraphic" in2="effect1_dropShadow_2620_16527" result="shape"/>
</filter>
</defs>
</svg>
