<svg width="92" height="92" viewBox="0 0 92 92" fill="none" xmlns="http://www.w3.org/2000/svg">
<g filter="url(#filter0_d_2620_16553)">
<path d="M34.9041 43.7397L49.6986 49.2877C53.8867 44.989 56.0524 42.4919 58.9452 37.5753C56.3705 32.5357 54.7227 30.0491 50.726 25.863C45.1601 26.1865 41.8799 27.0226 35.9315 28.9452L34.9041 43.7397Z" fill="#D2EDF7"/>
<path d="M50.726 25.863C54.7227 30.0491 56.3705 32.5357 58.9452 37.5753L70.6575 40.863L73.1832 33.0548C70.3733 27.137 65.6355 22.2874 59.7671 19.2927L54.4247 19.0822L50.726 25.863Z" fill="white"/>
<path d="M35.9315 28.9452C41.8799 27.0226 45.1601 26.1865 50.726 25.863L54.4247 19.0822L50.726 16.3651C49.1865 16.1248 47.608 16 46 16C40.7266 16 35.7709 17.342 31.465 19.6986C29.3782 21.8265 28.7516 22.9123 27.7123 24.8356L35.9315 28.9452Z" fill="white"/>
<path d="M34.9041 43.7397L35.9315 28.9452L27.7123 24.8356C24.3686 26.7079 22.3502 28.984 18.7202 33.2603C16.9737 37.0134 16 41.1891 16 45.589C16 45.8639 16.0038 46.1379 16.0114 46.411L24.6301 52.3699L34.9041 43.7397Z" fill="white"/>
<path d="M52.7808 63.2603L49.6986 49.2877L34.9041 43.7397L24.6301 52.3699C25.7273 57.5203 26.6306 60.3491 28.5342 65.3151C33.8566 68.2195 36.9091 69.4028 42.5068 70.863C46.6139 68.2113 48.8875 66.6446 52.7808 63.2603Z" fill="white"/>
<path d="M28.5342 65.3151C26.6306 60.3491 25.7273 57.5203 24.6301 52.3699L16.0114 46.411C16.2203 53.9684 19.3024 60.8183 24.2192 65.9365L28.5342 65.3151Z" fill="#D2EDF7"/>
<path d="M46 75.1781C46.3438 75.1781 46.6863 75.1724 47.0274 75.1611L42.5068 70.863C36.9091 69.4028 33.8566 68.2195 28.5342 65.3151L24.2192 65.9365C29.6867 71.6281 37.423 75.1781 46 75.1781Z" fill="white"/>
<path d="M64.0822 64.9041C59.689 64.4018 57.2173 64.0617 52.7808 63.2603C48.8875 66.6446 46.6139 68.2113 42.5068 70.863L47.0274 75.1611C52.2754 74.9869 57.1816 73.4832 61.411 70.9808L64.0822 64.9041Z" fill="#D2EDF7"/>
<path d="M49.6986 49.2877L52.7808 63.2603C57.2173 64.0617 59.689 64.4018 64.0822 64.9041C67.9346 60.708 69.9693 58.2987 72.7123 53.6027C72.4503 48.4834 72.0398 45.6762 70.6575 40.863L58.9452 37.5753C56.0524 42.4919 53.8867 44.989 49.6986 49.2877Z" fill="white"/>
<path d="M72.7123 53.6027C69.9693 58.2987 67.9346 60.708 64.0822 64.9041L61.411 70.9808C68.3786 66.8582 73.5089 60.0248 75.3031 51.9589L72.7123 53.6027Z" fill="white"/>
<path d="M73.1832 33.0548L70.6575 40.863C72.0398 45.6762 72.4503 48.4834 72.7123 53.6027L75.3031 51.9589C75.7595 49.9072 76 47.7758 76 45.589C76 41.1086 74.9903 36.8608 73.1832 33.0548Z" fill="#D2EDF7"/>
<path d="M27.7123 24.8356C28.7516 22.9123 29.3782 21.8265 31.465 19.6986C25.8848 22.7527 21.3957 27.5107 18.7202 33.2603C22.3502 28.984 24.3686 26.7079 27.7123 24.8356Z" fill="#D2EDF7"/>
<path d="M50.726 16.3651L54.4247 19.0822L59.7671 19.2927C56.98 17.8703 53.9378 16.8663 50.726 16.3651Z" fill="#D2EDF7"/>
<path d="M76 45.589C76 47.7758 75.7595 49.9072 75.3031 51.9589M76 45.589C76 34.1422 69.4097 24.2135 59.7671 19.2927M76 45.589C76 41.1086 74.9903 36.8608 73.1832 33.0548M52.7808 63.2603L49.6986 49.2877M52.7808 63.2603C57.2173 64.0617 59.689 64.4018 64.0822 64.9041M52.7808 63.2603C48.8875 66.6446 46.6139 68.2113 42.5068 70.863M49.6986 49.2877L34.9041 43.7397M49.6986 49.2877C53.8867 44.989 56.0524 42.4919 58.9452 37.5753M34.9041 43.7397L35.9315 28.9452M34.9041 43.7397L24.6301 52.3699M35.9315 28.9452C41.8799 27.0226 45.1601 26.1865 50.726 25.863M35.9315 28.9452L27.7123 24.8356M50.726 25.863C54.7227 30.0491 56.3705 32.5357 58.9452 37.5753M50.726 25.863L54.4247 19.0822M58.9452 37.5753L70.6575 40.863M70.6575 40.863L73.1832 33.0548M70.6575 40.863C72.0399 45.6762 72.4503 48.4834 72.7123 53.6027M73.1832 33.0548C70.3733 27.137 65.6355 22.2874 59.7671 19.2927M72.7123 53.6027C69.9693 58.2987 67.9346 60.708 64.0822 64.9041M72.7123 53.6027L75.3031 51.9589M64.0822 64.9041L61.411 70.9808M42.5068 70.863L47.0274 75.1611M42.5068 70.863C36.9091 69.4028 33.8566 68.2195 28.5342 65.3151M61.411 70.9808C57.1816 73.4832 52.2754 74.9869 47.0274 75.1611M61.411 70.9808C68.3786 66.8582 73.5089 60.0248 75.3031 51.9589M47.0274 75.1611C46.6863 75.1724 46.3438 75.1781 46 75.1781C37.423 75.1781 29.6867 71.6281 24.2192 65.9365M28.5342 65.3151C26.6306 60.3491 25.7273 57.5203 24.6301 52.3699M28.5342 65.3151L24.2192 65.9365M24.6301 52.3699L16.0114 46.411M16.0114 46.411C16.0038 46.1379 16 45.8639 16 45.589C16 41.1891 16.9737 37.0134 18.7202 33.2603M16.0114 46.411C16.2203 53.9684 19.3024 60.8183 24.2192 65.9365M27.7123 24.8356C28.7516 22.9123 29.3782 21.8265 31.465 19.6986M27.7123 24.8356C24.3686 26.7079 22.3502 28.984 18.7202 33.2603M31.465 19.6986C35.7709 17.342 40.7266 16 46 16C47.608 16 49.1865 16.1248 50.726 16.3651M31.465 19.6986C25.8848 22.7527 21.3957 27.5107 18.7202 33.2603M54.4247 19.0822L50.726 16.3651M54.4247 19.0822L59.7671 19.2927M50.726 16.3651C53.9378 16.8663 56.98 17.8703 59.7671 19.2927" stroke="#18282E" stroke-width="1.25"/>
</g>
<defs>
<filter id="filter0_d_2620_16553" x="3.375" y="7.375" width="85.25" height="84.4277" filterUnits="userSpaceOnUse" color-interpolation-filters="sRGB">
<feFlood flood-opacity="0" result="BackgroundImageFix"/>
<feColorMatrix in="SourceAlpha" type="matrix" values="0 0 0 0 0 0 0 0 0 0 0 0 0 0 0 0 0 0 127 0" result="hardAlpha"/>
<feOffset dy="4"/>
<feGaussianBlur stdDeviation="6"/>
<feComposite in2="hardAlpha" operator="out"/>
<feColorMatrix type="matrix" values="0 0 0 0 0 0 0 0 0 0 0 0 0 0 0 0 0 0 0.25 0"/>
<feBlend mode="normal" in2="BackgroundImageFix" result="effect1_dropShadow_2620_16553"/>
<feBlend mode="normal" in="SourceGraphic" in2="effect1_dropShadow_2620_16553" result="shape"/>
</filter>
</defs>
</svg>
