<svg width="281" height="243" viewBox="0 0 281 243" fill="none" xmlns="http://www.w3.org/2000/svg">
<g filter="url(#filter0_d_2620_16511)">
<path d="M107.556 128.341L150.949 144.613C163.232 132.006 169.584 124.681 178.069 110.261C170.517 95.4799 165.684 88.1865 153.962 75.9088C137.637 76.8575 128.016 79.3099 110.57 84.9488L107.556 128.341Z" fill="#D2EDF7"/>
<path d="M153.962 75.9088C165.684 88.1865 170.517 95.4799 178.069 110.261L212.421 119.904L219.829 97.0023C211.588 79.6454 197.691 65.4215 180.48 56.6379L164.81 56.0206L153.962 75.9088Z" fill="white"/>
<path d="M110.57 84.9488C128.016 79.3099 137.637 76.8575 153.962 75.9088L164.81 56.0206L153.962 48.0512C149.447 47.3465 144.817 46.9805 140.101 46.9805C124.634 46.9805 110.099 50.9166 97.4692 57.8286C91.3487 64.0695 89.5109 67.2544 86.4627 72.8954L110.57 84.9488Z" fill="white"/>
<path d="M107.556 128.341L110.57 84.9488L86.4627 72.8954C76.6556 78.3868 70.7356 85.0627 60.0887 97.605C54.9663 108.613 52.1104 120.86 52.1104 133.765C52.1104 134.571 52.1215 135.375 52.1436 136.176L77.4226 153.654L107.556 128.341Z" fill="white"/>
<path d="M159.989 185.595L150.949 144.613L107.556 128.341L77.4226 153.654C80.6406 168.76 83.2899 177.057 88.8734 191.622C104.484 200.141 113.437 203.611 129.855 207.894C141.901 200.117 148.57 195.521 159.989 185.595Z" fill="white"/>
<path d="M88.8734 191.622C83.2899 177.057 80.6406 168.76 77.4226 153.654L52.1436 136.176C52.7566 158.342 61.7964 178.433 76.2173 193.445L88.8734 191.622Z" fill="#D2EDF7"/>
<path d="M140.101 220.55C141.109 220.55 142.114 220.533 143.114 220.5L129.855 207.894C113.437 203.611 104.484 200.141 88.8734 191.622L76.2173 193.445C92.2537 210.138 114.944 220.55 140.101 220.55Z" fill="white"/>
<path d="M193.136 190.417C180.25 188.943 173.001 187.946 159.989 185.595C148.57 195.521 141.901 200.117 129.855 207.894L143.114 220.5C158.506 219.989 172.896 215.579 185.301 208.24L193.136 190.417Z" fill="#D2EDF7"/>
<path d="M150.949 144.613L159.989 185.595C173.001 187.946 180.25 188.943 193.136 190.417C204.435 178.109 210.403 171.043 218.448 157.27C217.679 142.254 216.476 134.021 212.421 119.904L178.069 110.261C169.584 124.681 163.232 132.006 150.949 144.613Z" fill="white"/>
<path d="M218.448 157.27C210.403 171.043 204.435 178.109 193.136 190.417L185.301 208.24C205.737 196.148 220.784 176.105 226.047 152.448L218.448 157.27Z" fill="white"/>
<path d="M219.829 97.0023L212.421 119.904C216.476 134.021 217.679 142.254 218.448 157.27L226.047 152.448C227.385 146.431 228.091 140.179 228.091 133.765C228.091 120.624 225.129 108.165 219.829 97.0023Z" fill="#D2EDF7"/>
<path d="M86.4627 72.8954C89.5109 67.2544 91.3487 64.0695 97.4692 57.8286C81.1024 66.7861 67.936 80.7415 60.0887 97.605C70.7356 85.0627 76.6556 78.3868 86.4627 72.8954Z" fill="#D2EDF7"/>
<path d="M153.962 48.0512L164.81 56.0206L180.48 56.6379C172.305 52.4661 163.382 49.5214 153.962 48.0512Z" fill="#D2EDF7"/>
<path d="M228.091 133.765C228.091 140.179 227.385 146.431 226.047 152.448M228.091 133.765C228.091 100.192 208.761 71.0707 180.48 56.6379M228.091 133.765C228.091 120.624 225.129 108.165 219.829 97.0023M159.989 185.595L150.949 144.613M159.989 185.595C173.001 187.946 180.25 188.943 193.136 190.417M159.989 185.595C148.57 195.521 141.901 200.117 129.855 207.894M150.949 144.613L107.556 128.341M150.949 144.613C163.232 132.006 169.584 124.681 178.069 110.261M107.556 128.341L110.57 84.9488M107.556 128.341L77.4226 153.654M110.57 84.9488C128.016 79.3099 137.637 76.8575 153.962 75.9088M110.57 84.9488L86.4627 72.8954M153.962 75.9088C165.684 88.1865 170.517 95.4799 178.069 110.261M153.962 75.9088L164.81 56.0206M178.069 110.261L212.421 119.904M212.421 119.904L219.829 97.0023M212.421 119.904C216.476 134.021 217.679 142.254 218.448 157.27M219.829 97.0023C211.588 79.6454 197.692 65.4215 180.48 56.6379M218.448 157.27C210.403 171.043 204.435 178.109 193.136 190.417M218.448 157.27L226.047 152.448M193.136 190.417L185.301 208.24M129.855 207.894L143.114 220.5M129.855 207.894C113.437 203.611 104.484 200.141 88.8734 191.622M185.301 208.24C172.896 215.579 158.506 219.989 143.114 220.5M185.301 208.24C205.737 196.148 220.784 176.105 226.047 152.448M143.114 220.5C142.114 220.533 141.109 220.55 140.101 220.55C114.944 220.55 92.2537 210.138 76.2173 193.445M88.8734 191.622C83.2899 177.057 80.6406 168.76 77.4226 153.654M88.8734 191.622L76.2173 193.445M77.4226 153.654L52.1436 136.176M52.1436 136.176C52.1215 135.375 52.1104 134.571 52.1104 133.765C52.1104 120.86 54.9663 108.613 60.0887 97.605M52.1436 136.176C52.7566 158.342 61.7964 178.433 76.2173 193.445M86.4627 72.8954C89.5109 67.2544 91.3487 64.0695 97.4692 57.8286M86.4627 72.8954C76.6556 78.3868 70.7356 85.0627 60.0887 97.605M97.4692 57.8286C110.099 50.9166 124.634 46.9805 140.101 46.9805C144.817 46.9805 149.447 47.3465 153.962 48.0512M97.4692 57.8286C81.1024 66.7861 67.936 80.7415 60.0887 97.605M164.81 56.0206L153.962 48.0512M164.81 56.0206L180.48 56.6379M153.962 48.0512C163.382 49.5214 172.305 52.4661 180.48 56.6379" stroke="#18282E" stroke-width="4"/>
</g>
<defs>
<filter id="filter0_d_2620_16511" x="0.110352" y="0.480469" width="279.98" height="277.569" filterUnits="userSpaceOnUse" color-interpolation-filters="sRGB">
<feFlood flood-opacity="0" result="BackgroundImageFix"/>
<feColorMatrix in="SourceAlpha" type="matrix" values="0 0 0 0 0 0 0 0 0 0 0 0 0 0 0 0 0 0 127 0" result="hardAlpha"/>
<feOffset dy="5.5"/>
<feGaussianBlur stdDeviation="25"/>
<feComposite in2="hardAlpha" operator="out"/>
<feColorMatrix type="matrix" values="0 0 0 0 0 0 0 0 0 0 0 0 0 0 0 0 0 0 0.25 0"/>
<feBlend mode="normal" in2="BackgroundImageFix" result="effect1_dropShadow_2620_16511"/>
<feBlend mode="normal" in="SourceGraphic" in2="effect1_dropShadow_2620_16511" result="shape"/>
</filter>
</defs>
</svg>
