<svg width="167" height="167" viewBox="0 0 167 167" fill="none" xmlns="http://www.w3.org/2000/svg">
<g filter="url(#filter0_d_2620_16510)">
<path d="M64.1484 75.6094L90.0089 85.3071C97.3296 77.7932 101.115 73.4283 106.172 64.8343C101.671 56.0251 98.7909 51.6785 91.8047 44.3614C82.0756 44.9268 76.3419 46.3884 65.9443 49.749L64.1484 75.6094Z" fill="#D2EDF7"/>
<path d="M91.8047 44.3614C98.7909 51.6785 101.671 56.0251 106.172 64.8343L126.645 70.581L131.059 56.9325C126.148 46.5883 117.866 38.1114 107.608 32.8766L98.2698 32.5087L91.8047 44.3614Z" fill="white"/>
<path d="M65.9443 49.749C76.3419 46.3884 82.0756 44.9268 91.8047 44.3614L98.2698 32.5087L91.8047 27.7592C89.1137 27.3392 86.3545 27.1211 83.5437 27.1211C74.3259 27.1211 65.6636 29.4669 58.1369 33.5862C54.4892 37.3056 53.394 39.2037 51.5774 42.5655L65.9443 49.749Z" fill="white"/>
<path d="M64.1484 75.6094L65.9443 49.749L51.5774 42.5655C45.7327 45.8383 42.2045 49.8169 35.8594 57.2916C32.8065 63.852 31.1045 71.151 31.1045 78.842C31.1045 79.3225 31.1111 79.8014 31.1243 80.2787L46.1898 90.6947L64.1484 75.6094Z" fill="white"/>
<path d="M95.3965 109.731L90.0089 85.3071L64.1484 75.6094L46.1898 90.6947C48.1076 99.6975 49.6865 104.642 53.014 113.323C62.3175 118.4 67.6531 120.468 77.4378 123.02C84.6168 118.385 88.591 115.647 95.3965 109.731Z" fill="white"/>
<path d="M53.014 113.323C49.6865 104.642 48.1076 99.6975 46.1898 90.6947L31.1243 80.2787C31.4896 93.4889 36.8771 105.462 45.4714 114.409L53.014 113.323Z" fill="#D2EDF7"/>
<path d="M83.5437 130.563C84.1448 130.563 84.7435 130.553 85.3396 130.533L77.4378 123.02C67.6531 120.468 62.3175 118.4 53.014 113.323L45.4714 114.409C55.0286 124.358 68.5514 130.563 83.5437 130.563Z" fill="white"/>
<path d="M115.151 112.604C107.472 111.726 103.151 111.132 95.3965 109.731C88.591 115.647 84.6168 118.385 77.4378 123.02L85.3396 130.533C94.5129 130.229 103.089 127.6 110.482 123.226L115.151 112.604Z" fill="#D2EDF7"/>
<path d="M90.0089 85.3071L95.3965 109.731C103.151 111.132 107.472 111.726 115.151 112.604C121.885 105.27 125.441 101.058 130.236 92.8497C129.778 83.9012 129.061 78.9943 126.645 70.581L106.172 64.8343C101.115 73.4283 97.3296 77.7932 90.0089 85.3071Z" fill="white"/>
<path d="M130.236 92.8497C125.441 101.058 121.885 105.27 115.151 112.604L110.482 123.226C122.661 116.02 131.629 104.075 134.765 89.9764L130.236 92.8497Z" fill="white"/>
<path d="M131.059 56.9325L126.645 70.581C129.061 78.9943 129.778 83.9012 130.236 92.8497L134.765 89.9764C135.563 86.3901 135.983 82.6645 135.983 78.842C135.983 71.0103 134.218 63.5852 131.059 56.9325Z" fill="#D2EDF7"/>
<path d="M51.5774 42.5655C53.394 39.2037 54.4892 37.3056 58.1369 33.5862C48.3828 38.9246 40.5361 47.2415 35.8594 57.2916C42.2045 49.8169 45.7327 45.8383 51.5774 42.5655Z" fill="#D2EDF7"/>
<path d="M91.8047 27.7592L98.2698 32.5087L107.608 32.8766C102.736 30.3903 97.4188 28.6354 91.8047 27.7592Z" fill="#D2EDF7"/>
<path d="M135.983 78.842C135.983 82.6645 135.563 86.3901 134.765 89.9764M135.983 78.842C135.983 58.8332 124.463 41.4781 107.608 32.8766M135.983 78.842C135.983 71.0103 134.218 63.5852 131.059 56.9325M95.3965 109.731L90.0089 85.3071M95.3965 109.731C103.151 111.132 107.472 111.726 115.151 112.604M95.3965 109.731C88.591 115.647 84.6168 118.385 77.4378 123.02M90.0089 85.3071L64.1484 75.6094M90.0089 85.3071C97.3296 77.7932 101.115 73.4283 106.172 64.8343M64.1484 75.6094L65.9443 49.749M64.1484 75.6094L46.1898 90.6947M65.9443 49.749C76.3419 46.3884 82.0756 44.9268 91.8047 44.3614M65.9443 49.749L51.5774 42.5655M91.8047 44.3614C98.7909 51.6785 101.671 56.0251 106.172 64.8343M91.8047 44.3614L98.2698 32.5087M106.172 64.8343L126.645 70.581M126.645 70.581L131.059 56.9325M126.645 70.581C129.061 78.9943 129.778 83.9012 130.236 92.8497M131.059 56.9325C126.148 46.5883 117.866 38.1114 107.608 32.8766M130.236 92.8497C125.441 101.058 121.885 105.27 115.151 112.604M130.236 92.8497L134.765 89.9764M115.151 112.604L110.482 123.226M77.4378 123.02L85.3396 130.533M77.4378 123.02C67.6531 120.468 62.3175 118.4 53.014 113.323M110.482 123.226C103.089 127.6 94.5129 130.229 85.3396 130.533M110.482 123.226C122.661 116.02 131.629 104.075 134.765 89.9764M85.3396 130.533C84.7435 130.553 84.1448 130.563 83.5437 130.563C68.5514 130.563 55.0286 124.358 45.4714 114.409M53.014 113.323C49.6865 104.642 48.1076 99.6975 46.1898 90.6947M53.014 113.323L45.4714 114.409M46.1898 90.6947L31.1243 80.2787M31.1243 80.2787C31.1111 79.8014 31.1045 79.3225 31.1045 78.842C31.1045 71.151 32.8065 63.852 35.8594 57.2916M31.1243 80.2787C31.4896 93.4889 36.8771 105.462 45.4714 114.409M51.5774 42.5655C53.394 39.2037 54.4892 37.3056 58.1369 33.5862M51.5774 42.5655C45.7327 45.8383 42.2045 49.8169 35.8594 57.2916M58.1369 33.5862C65.6636 29.4669 74.3259 27.1211 83.5437 27.1211C86.3545 27.1211 89.1137 27.3392 91.8047 27.7592M58.1369 33.5862C48.3828 38.9246 40.5361 47.2415 35.8594 57.2916M98.2698 32.5087L91.8047 27.7592M98.2698 32.5087L107.608 32.8766M91.8047 27.7592C97.4188 28.6354 102.736 30.3903 107.608 32.8766" stroke="#18282E" stroke-width="2"/>
</g>
<defs>
<filter id="filter0_d_2620_16510" x="0.104492" y="0.621094" width="166.879" height="165.441" filterUnits="userSpaceOnUse" color-interpolation-filters="sRGB">
<feFlood flood-opacity="0" result="BackgroundImageFix"/>
<feColorMatrix in="SourceAlpha" type="matrix" values="0 0 0 0 0 0 0 0 0 0 0 0 0 0 0 0 0 0 127 0" result="hardAlpha"/>
<feOffset dy="4.5"/>
<feGaussianBlur stdDeviation="15"/>
<feComposite in2="hardAlpha" operator="out"/>
<feColorMatrix type="matrix" values="0 0 0 0 0 0 0 0 0 0 0 0 0 0 0 0 0 0 0.25 0"/>
<feBlend mode="normal" in2="BackgroundImageFix" result="effect1_dropShadow_2620_16510"/>
<feBlend mode="normal" in="SourceGraphic" in2="effect1_dropShadow_2620_16510" result="shape"/>
</filter>
</defs>
</svg>
