<svg width="258" height="275" viewBox="0 0 258 275" fill="none" xmlns="http://www.w3.org/2000/svg">
<g filter="url(#filter0_d_2620_16526)">
<path d="M180.267 136.218V106.145L128.995 137.231L155.764 150.881L180.267 136.218Z" fill="white"/>
<path d="M149.081 88.8813V60.4794L123.464 75.7672V104.582L149.081 88.8813Z" fill="white"/>
<path d="M136.829 193.578L109.541 178.542V149.026L80.0254 131.206V101.69L52.7373 86.6537V169.839C52.7373 172.127 53.9456 174.244 55.9152 175.408L89.4927 195.249L111.769 207.501L127.124 216.373C131.437 218.865 136.829 215.753 136.829 210.772V193.578Z" fill="white"/>
<path fill-rule="evenodd" clip-rule="evenodd" d="M52.7373 86.6537L120.267 47.8375C122.248 46.6985 124.684 46.6897 126.673 47.8143L149.081 60.4794L123.464 75.7672L80.0254 101.69L52.7373 86.6537ZM181.938 166.295L136.829 193.578L109.541 178.542L155.764 150.881L180.267 136.218L205.885 151.811L181.938 166.295ZM128.995 137.231L109.541 149.026L80.0254 131.206L123.464 104.582L149.081 88.8813L180.267 106.145L128.995 137.231Z" fill="#D2EDF7"/>
<path d="M205.885 151.811L181.938 166.295L196.166 174.564C200.478 177.07 205.885 173.959 205.885 168.971V151.811Z" fill="white"/>
<path d="M52.7373 86.6537L80.0254 101.69M52.7373 86.6537V169.839M52.7373 86.6537L120.267 47.8375M149.081 60.4794V88.8813M149.081 60.4794L123.464 75.7672M149.081 60.4794L126.673 47.8143M149.081 88.8813L180.267 106.145M149.081 88.8813L123.464 104.582M180.267 106.145V136.218M180.267 106.145L109.541 149.026M180.267 106.145L128.995 137.231M180.267 136.218L205.885 151.811M180.267 136.218L155.764 150.881M205.885 151.811L181.938 166.295M205.885 151.811V168.971M136.829 193.578L109.541 178.542M136.829 193.578L181.938 166.295M136.829 193.578V210.772M109.541 178.542V149.026M109.541 178.542L155.764 150.881M109.541 149.026L80.0254 131.206M109.541 149.026L128.995 137.231M80.0254 131.206V101.69M80.0254 131.206L123.464 104.582M80.0254 101.69L123.464 75.7672M123.464 104.582V75.7672M155.764 150.881L128.995 137.231M181.938 166.295L196.166 174.564M52.7373 169.839C52.7373 172.127 53.9456 174.244 55.9152 175.408M52.7373 169.839V169.839C52.7373 172.127 53.9456 174.244 55.9152 175.408V175.408M120.267 47.8375C122.248 46.6985 124.684 46.6897 126.673 47.8143M120.267 47.8375V47.8375C122.248 46.6985 124.684 46.6897 126.673 47.8143V47.8143M205.885 168.971C205.885 173.959 200.478 177.07 196.166 174.564M205.885 168.971V168.971C205.885 173.959 200.478 177.07 196.166 174.564V174.564M136.829 210.772C136.829 215.753 131.437 218.865 127.124 216.373M136.829 210.772V210.772C136.829 215.753 131.437 218.865 127.124 216.373V216.373M127.124 216.373L111.769 207.501L89.4927 195.249L55.9152 175.408" stroke="#18282E" stroke-width="4" stroke-linecap="round"/>
</g>
<defs>
<filter id="filter0_d_2620_16526" x="0.737305" y="0.476562" width="257.147" height="274.277" filterUnits="userSpaceOnUse" color-interpolation-filters="sRGB">
<feFlood flood-opacity="0" result="BackgroundImageFix"/>
<feColorMatrix in="SourceAlpha" type="matrix" values="0 0 0 0 0 0 0 0 0 0 0 0 0 0 0 0 0 0 127 0" result="hardAlpha"/>
<feOffset dy="5.5"/>
<feGaussianBlur stdDeviation="25"/>
<feComposite in2="hardAlpha" operator="out"/>
<feColorMatrix type="matrix" values="0 0 0 0 0 0 0 0 0 0 0 0 0 0 0 0 0 0 0.25 0"/>
<feBlend mode="normal" in2="BackgroundImageFix" result="effect1_dropShadow_2620_16526"/>
<feBlend mode="normal" in="SourceGraphic" in2="effect1_dropShadow_2620_16526" result="shape"/>
</filter>
</defs>
</svg>
