<svg width="92" height="92" viewBox="0 0 92 92" fill="none" xmlns="http://www.w3.org/2000/svg">
<g filter="url(#filter0_d_2620_16513)">
<path d="M63.481 46.7595V36.5063L46 47.1051L55.1266 51.759L63.481 46.7595Z" fill="white"/>
<path d="M52.8481 30.6203V20.9367L44.1139 26.149V35.9735L52.8481 30.6203Z" fill="white"/>
<path d="M48.6709 66.3165L39.3671 61.1899V51.1266L29.3038 45.0506V34.9873L20 29.8608V58.2225C20 59.0025 20.412 59.7245 21.0835 60.1213L32.5316 66.8861L40.1266 71.0633L45.3621 74.0882C46.8324 74.9377 48.6709 73.8767 48.6709 72.1786V66.3165Z" fill="white"/>
<path fill-rule="evenodd" clip-rule="evenodd" d="M20 29.8608L43.024 16.6265C43.6996 16.2382 44.53 16.2351 45.2083 16.6186L52.8481 20.9367L44.1139 26.149L29.3038 34.9873L20 29.8608ZM64.0506 57.0142L48.6709 66.3165L39.3671 61.1899L55.1266 51.759L63.481 46.7595L72.2152 52.076L64.0506 57.0142ZM46 47.1051L39.3671 51.1266L29.3038 45.0506L44.1139 35.9735L52.8481 30.6203L63.481 36.5063L46 47.1051Z" fill="#D2EDF7"/>
<path d="M72.2152 52.076L64.0506 57.0142L68.9015 59.8335C70.3718 60.6881 72.2152 59.6273 72.2152 57.9267V52.076Z" fill="white"/>
<path d="M20 29.8608L29.3038 34.9873M20 29.8608V58.2225M20 29.8608L43.024 16.6265M52.8481 20.9367V30.6203M52.8481 20.9367L44.1139 26.149M52.8481 20.9367L45.2083 16.6186M52.8481 30.6203L63.481 36.5063M52.8481 30.6203L44.1139 35.9735M63.481 36.5063V46.7595M63.481 36.5063L39.3671 51.1266M63.481 36.5063L46 47.1051M63.481 46.7595L72.2152 52.076M63.481 46.7595L55.1266 51.759M72.2152 52.076L64.0506 57.0142M72.2152 52.076V57.9267M48.6709 66.3165L39.3671 61.1899M48.6709 66.3165L64.0506 57.0142M48.6709 66.3165V72.1786M39.3671 61.1899V51.1266M39.3671 61.1899L55.1266 51.759M39.3671 51.1266L29.3038 45.0506M39.3671 51.1266L46 47.1051M29.3038 45.0506V34.9873M29.3038 45.0506L44.1139 35.9735M29.3038 34.9873L44.1139 26.149M44.1139 35.9735V26.149M55.1266 51.759L46 47.1051M64.0506 57.0142L68.9015 59.8335M20 58.2225C20 59.0025 20.412 59.7245 21.0835 60.1213M20 58.2225V58.2225C20 59.0025 20.412 59.7245 21.0835 60.1213V60.1213M43.024 16.6265C43.6996 16.2382 44.53 16.2351 45.2083 16.6186M43.024 16.6265V16.6265C43.6996 16.2382 44.53 16.2351 45.2083 16.6186V16.6186M72.2152 57.9267C72.2152 59.6273 70.3718 60.6881 68.9015 59.8335M72.2152 57.9267V57.9267C72.2152 59.6273 70.3718 60.6881 68.9015 59.8335V59.8335M48.6709 72.1786C48.6709 73.8767 46.8324 74.9377 45.3621 74.0882M48.6709 72.1786V72.1786C48.6709 73.8767 46.8324 74.9377 45.3621 74.0882V74.0882M45.3621 74.0882L40.1266 71.0633L32.5316 66.8861L21.0835 60.1213" stroke="#18282E" stroke-width="1.25" stroke-linecap="round"/>
</g>
<defs>
<filter id="filter0_d_2620_16513" x="7.375" y="7.70801" width="77.4648" height="83.3057" filterUnits="userSpaceOnUse" color-interpolation-filters="sRGB">
<feFlood flood-opacity="0" result="BackgroundImageFix"/>
<feColorMatrix in="SourceAlpha" type="matrix" values="0 0 0 0 0 0 0 0 0 0 0 0 0 0 0 0 0 0 127 0" result="hardAlpha"/>
<feOffset dy="4"/>
<feGaussianBlur stdDeviation="6"/>
<feComposite in2="hardAlpha" operator="out"/>
<feColorMatrix type="matrix" values="0 0 0 0 0 0 0 0 0 0 0 0 0 0 0 0 0 0 0.25 0"/>
<feBlend mode="normal" in2="BackgroundImageFix" result="effect1_dropShadow_2620_16513"/>
<feBlend mode="normal" in="SourceGraphic" in2="effect1_dropShadow_2620_16513" result="shape"/>
</filter>
</defs>
</svg>
