<svg width="154" height="164" viewBox="0 0 154 164" fill="none" xmlns="http://www.w3.org/2000/svg">
<g filter="url(#filter0_d_2620_16523)">
<path d="M107.372 79.7668V61.8446L76.8155 80.3709L92.7686 88.5058L107.372 79.7668Z" fill="white"/>
<path d="M88.7858 51.5558V34.6292L73.5187 43.7403V60.9131L88.7858 51.5558Z" fill="white"/>
<path d="M81.4842 113.952L65.2214 104.991V87.4004L47.631 76.7798V59.1894L31.3682 50.2283V99.8039C31.3682 101.167 32.0883 102.429 33.2621 103.123L53.2732 114.948L66.5489 122.249L75.7004 127.537C78.2705 129.022 81.4842 127.167 81.4842 124.199V113.952Z" fill="white"/>
<path fill-rule="evenodd" clip-rule="evenodd" d="M31.3682 50.2283L71.6136 27.0951C72.7945 26.4163 74.2459 26.411 75.4317 27.0813L88.7858 34.6292L73.5187 43.7403L47.631 59.1894L31.3682 50.2283ZM108.368 97.6918L81.4842 113.952L65.2214 104.991L92.7686 88.5058L107.372 79.7668L122.639 89.0599L108.368 97.6918ZM76.8155 80.3709L65.2214 87.4004L47.631 76.7798L73.5187 60.9131L88.7858 51.5558L107.372 61.8446L76.8155 80.3709Z" fill="#D2EDF7"/>
<path d="M122.639 89.0599L108.368 97.6918L116.847 102.62C119.417 104.114 122.639 102.259 122.639 99.2869V89.0599Z" fill="white"/>
<path d="M31.3682 50.2283L47.631 59.1894M31.3682 50.2283V99.8039M31.3682 50.2283L71.6136 27.0951M88.7858 34.6292V51.5558M88.7858 34.6292L73.5187 43.7403M88.7858 34.6292L75.4317 27.0813M88.7858 51.5558L107.372 61.8446M88.7858 51.5558L73.5187 60.9131M107.372 61.8446V79.7668M107.372 61.8446L65.2214 87.4004M107.372 61.8446L76.8155 80.3709M107.372 79.7668L122.639 89.0599M107.372 79.7668L92.7686 88.5058M122.639 89.0599L108.368 97.6918M122.639 89.0599V99.2869M81.4842 113.952L65.2214 104.991M81.4842 113.952L108.368 97.6918M81.4842 113.952V124.199M65.2214 104.991V87.4004M65.2214 104.991L92.7686 88.5058M65.2214 87.4004L47.631 76.7798M65.2214 87.4004L76.8155 80.3709M47.631 76.7798V59.1894M47.631 76.7798L73.5187 60.9131M47.631 59.1894L73.5187 43.7403M73.5187 60.9131V43.7403M92.7686 88.5058L76.8155 80.3709M108.368 97.6918L116.847 102.62M31.3682 99.8039C31.3682 101.167 32.0883 102.429 33.2621 103.123M31.3682 99.8039V99.8039C31.3682 101.167 32.0883 102.429 33.2621 103.123V103.123M71.6136 27.0951C72.7945 26.4163 74.2459 26.411 75.4317 27.0813M71.6136 27.0951V27.0951C72.7945 26.4163 74.2459 26.411 75.4317 27.0813V27.0813M122.639 99.2869C122.639 102.259 119.417 104.114 116.847 102.62M122.639 99.2869V99.2869C122.639 102.259 119.417 104.114 116.847 102.62V102.62M81.4842 124.199C81.4842 127.167 78.2705 129.022 75.7004 127.537M81.4842 124.199V124.199C81.4842 127.167 78.2705 129.022 75.7004 127.537V127.537M75.7004 127.537L66.5489 122.249L53.2732 114.948L33.2621 103.123" stroke="#18282E" stroke-width="2" stroke-linecap="round"/>
</g>
<defs>
<filter id="filter0_d_2620_16523" x="0.368164" y="0.0820312" width="153.271" height="163.479" filterUnits="userSpaceOnUse" color-interpolation-filters="sRGB">
<feFlood flood-opacity="0" result="BackgroundImageFix"/>
<feColorMatrix in="SourceAlpha" type="matrix" values="0 0 0 0 0 0 0 0 0 0 0 0 0 0 0 0 0 0 127 0" result="hardAlpha"/>
<feOffset dy="4.5"/>
<feGaussianBlur stdDeviation="15"/>
<feComposite in2="hardAlpha" operator="out"/>
<feColorMatrix type="matrix" values="0 0 0 0 0 0 0 0 0 0 0 0 0 0 0 0 0 0 0.25 0"/>
<feBlend mode="normal" in2="BackgroundImageFix" result="effect1_dropShadow_2620_16523"/>
<feBlend mode="normal" in="SourceGraphic" in2="effect1_dropShadow_2620_16523" result="shape"/>
</filter>
</defs>
</svg>
