<svg width="92" height="95" viewBox="0 0 92 95" fill="none" xmlns="http://www.w3.org/2000/svg">
<g filter="url(#filter0_d_2620_19296)">
<path d="M45.4807 72.9206L57.9615 65.229L52.2427 61.6009C52.3352 62.5225 52.702 63.2936 53.4626 64.068C52.4228 64.2537 51.687 64.57 49.6893 66.1472C48.94 67.1862 48.1221 67.5389 46.3515 67.9864C44.9143 70.3262 44.0684 70.3292 42.5782 67.9864C41.7266 69.1505 40.7971 68.4139 38.805 66.0998C37.4543 65.1321 36.8322 64.5646 36.9184 63.3424C37.1336 63.0498 37.3045 62.9347 37.7891 62.907C37.6531 62.754 37.5277 62.6106 37.4145 62.4717L33 65.229L45.4807 72.9206Z" fill="#FFFCE1"/>
<path d="M45.4807 78V72.9206L33 65.229V70.3084L45.4807 78Z" fill="white"/>
<path d="M45.4807 72.9206V78L57.9615 70.1633V65.229L45.4807 72.9206Z" fill="white"/>
<path d="M42.5782 67.9864C44.0684 70.3292 44.9143 70.3262 46.3515 67.9864C45.802 67.128 47.0604 64.8985 48.9394 61.5696C49.18 61.1432 49.4308 60.6988 49.6893 60.237C48.6497 61.8229 47.2646 62.9161 45.6259 63.491C43.4877 65.3689 42.9894 66.3335 42.5782 67.9864Z" fill="white"/>
<path d="M38.805 66.0998C40.7971 68.4139 41.7266 69.1505 42.5782 67.9864C42.9894 66.3335 43.4877 65.3689 45.6259 63.491C44.5222 63.8782 43.3034 64.0303 41.9977 63.9396C40.6744 63.8476 39.2618 63.5061 37.7891 62.907C37.3045 62.9347 37.1336 63.0498 36.9184 63.3424C36.8322 64.5646 37.4543 65.1321 38.805 66.0998Z" fill="#FEFACC"/>
<path d="M46.3515 67.9864C48.1221 67.5389 48.94 67.1862 49.6893 66.1472C49.0587 64.8855 49.2847 63.2196 49.6865 60.2577L49.6893 60.237C49.4308 60.6988 49.18 61.1432 48.9394 61.5696C47.0604 64.8985 45.802 67.128 46.3515 67.9864Z" fill="#FEFACC"/>
<path d="M49.6893 66.1472C51.687 64.57 52.4228 64.2537 53.4626 64.068C52.702 63.2936 52.3352 62.5225 52.2427 61.6009C52.1322 60.5 52.4132 59.1845 52.8821 57.3923C54.2157 56.0629 54.2483 53.1054 52.737 43.1701C52.5912 42.1325 52.4684 41.3326 52.3099 40.5578C52.5197 43.6134 52.3388 46.364 51.6383 48.8299C52.1436 53.8419 51.3656 57.6799 49.6893 60.237L49.6865 60.2577C49.2847 63.2196 49.0587 64.8855 49.6893 66.1472Z" fill="white"/>
<path d="M37.4145 62.4717C37.5277 62.6106 37.6531 62.754 37.7891 62.907C39.2618 63.5061 40.6744 63.8476 41.9977 63.9396C43.3034 64.0303 44.5222 63.8782 45.6259 63.491C47.2646 62.9161 48.6497 61.8229 49.6893 60.237C51.3656 57.6799 52.1436 53.8419 51.6383 48.8299C50.4331 53.0722 47.6902 56.4723 42.7531 59.1338C41.0522 61.4073 39.5164 62.5899 37.4145 62.4717Z" fill="white"/>
<path d="M39.0952 57.102C38.0414 57.6552 37.5037 58.087 36.9184 59.7143C36.5395 61.0792 36.7926 61.7084 37.4145 62.4717C39.5164 62.5899 41.0522 61.4073 42.7531 59.1338C43.75 57.8013 44.8036 56.0941 46.0612 54.0544C44.1233 55.9486 41.9421 57.9935 40.8367 58.199C40.134 58.3296 39.5672 58.0101 39.0952 57.102Z" fill="#FEFACC"/>
<path d="M46.0612 54.0544C44.8036 56.0941 43.75 57.8013 42.7531 59.1338C47.6902 56.4723 50.4331 53.0722 51.6383 48.8299C52.3388 46.364 52.5197 43.6134 52.3099 40.5578C52.135 39.7032 51.9167 38.8791 51.576 37.8005C51.5578 37.3496 51.4281 36.9246 51.2114 36.4943C50.1892 44.6824 49.5717 47.905 46.0612 54.0544Z" fill="#FEFACC"/>
<path d="M46.0612 54.0544C49.5717 47.905 50.1892 44.6824 51.2114 36.4943C51.0912 36.2558 50.9443 36.0157 50.7748 35.7687C48.8103 45.8356 46.7706 50.8397 40.8367 58.199C41.9421 57.9935 44.1233 55.9486 46.0612 54.0544Z" fill="white"/>
<path d="M39.966 55.3605C39.2487 55.9307 39.1302 56.3331 39.0952 57.102C39.5672 58.0101 40.134 58.3296 40.8367 58.199C46.7706 50.8397 48.8103 45.8356 50.7748 35.7687C50.4372 35.2768 50.01 34.7576 49.5257 34.1691L49.3991 34.0152C47.2256 44.3784 45.0979 48.2137 39.966 52.1678V55.3605Z" fill="#FEFACC"/>
<path d="M39.3855 47.6689C40.2819 47.2816 41.148 46.441 42.8685 44.6213L39.5871 45.7823C39.5195 46.3171 39.4536 46.9296 39.3855 47.6689Z" fill="#FEFACC"/>
<path d="M54.6236 33.0113L51.576 37.8005C51.9167 38.8791 52.135 39.7032 52.3099 40.5578C52.4684 41.3326 52.5912 42.1325 52.737 43.1701L54.6236 44.3311L57.6712 39.542L56.9456 38.9615V38.2358L57.381 37.6553L58.3968 37.22L58.8322 37.5102C59.1156 37.0568 59.7029 36.2041 59.7029 36.2041L54.6236 33.0113Z" fill="white"/>
<path d="M58.8322 37.5102L58.3968 37.22L57.381 37.6553L56.9456 38.2358V38.9615L57.6712 39.542L58.2517 39.6871L58.3968 39.3968L59.2676 38.0907L58.8322 37.5102Z" fill="#FEFACC"/>
<path d="M42.8685 37.3651C42.1929 38.5484 41.8157 38.332 41.127 37.0748C40.8453 36.5627 40.7484 35.848 40.5968 34.4626C40.1422 35.5121 39.7918 36.4231 39.5871 37.2821C40.0331 39.0184 40.4014 40.1224 41.5624 40.4127C44.61 40.2676 44.2186 37.5783 43.6515 34.6077C43.5397 35.4747 43.2669 36.335 42.8685 37.3651Z" fill="#FEFACC"/>
<path d="M41.127 30.6893L40.9819 33.5918C40.8466 33.893 40.718 34.1827 40.5968 34.4626C40.7484 35.848 40.8453 36.5627 41.127 37.0748C41.8157 38.332 42.1929 38.5484 42.8685 37.3651C43.2669 36.335 43.5397 35.4747 43.6515 34.6077C43.7913 33.5237 43.6794 32.4293 43.2466 30.9796C43.1773 30.7473 43.0997 30.5059 43.0136 30.254C43.0238 29.2727 42.9875 28.4647 42.8891 27.6887C42.8747 27.5757 42.8591 27.4635 42.8421 27.3515C42.6868 26.3293 42.4177 25.3271 41.9977 24.0136V23.1429C42.3363 22.7304 42.1573 22.4192 41.7075 21.8367V21.4014C44.4649 20.8209 44.7551 19.3696 43.0743 18.0635C42.8162 18.5697 42.2927 18.9232 41.4172 19.0794C40.5559 18.9365 40.0523 18.6138 39.725 17.9184H39.6757C37.7891 19.0794 37.644 20.5306 40.5465 21.4014V21.6916C39.8995 21.9556 39.7474 22.2525 40.4014 23.4331C40.4475 27.1319 40.5101 29.0746 41.127 30.6893Z" fill="white"/>
<path d="M38.3696 47.8141C38.2051 50.0742 38.4927 51.0591 39.966 52.1678C45.0979 48.2137 47.2256 44.3784 49.3991 34.0152C49.2127 33.7884 49.0186 33.5513 48.8186 33.3016L48.5283 31.9955C49.0848 30.7954 49.0253 30.1739 48.6735 29.093C49.0181 28.8938 49.1878 28.7498 49.3991 28.3673C49.4859 27.8347 49.3864 27.5875 48.9637 27.2063L47.3673 27.932L45.771 28.2222L44.4649 28.3673H43.5941C43.7139 29.7539 43.701 30.4156 43.2466 30.9796C43.6794 32.4293 43.7913 33.5237 43.6515 34.6077C44.2186 37.5783 44.61 40.2676 41.5624 40.4127C40.4014 40.1224 40.0331 39.0184 39.5871 37.2821C39.202 38.8983 39.3327 40.3303 40.2562 42.1542C39.9675 43.4473 39.771 44.3269 39.5871 45.7823L42.8685 44.6213C41.148 46.441 40.2819 47.2816 39.3855 47.6689C38.9614 47.9042 38.7439 47.9446 38.3696 47.8141Z" fill="white"/>
<path fill-rule="evenodd" clip-rule="evenodd" d="M41.4172 19.0794C40.5559 18.9365 40.0523 18.6138 39.725 17.9184C39.4995 17.4392 39.3577 16.783 39.2404 15.8866L40.1111 16.6122C40.0888 15.269 40.1581 14.5888 40.9819 14L41.0435 14.1418C41.484 15.1557 41.7491 15.7656 42.288 16.1769C42.4874 15.8391 42.5848 15.5674 42.7234 14.8707C43.2477 16.1815 43.4649 17.2974 43.0743 18.0635C42.8162 18.5697 42.2927 18.9232 41.4172 19.0794ZM42.8891 27.6887C42.8747 27.5757 42.8591 27.4635 42.8421 27.3515L44.4649 28.3673H43.5941C43.7139 29.7539 43.701 30.4156 43.2466 30.9796C43.1773 30.7473 43.0997 30.5059 43.0136 30.254C43.0238 29.2727 42.9875 28.4647 42.8891 27.6887ZM44.0295 27.4095L43.5941 27.2063L44.4649 28.3673L45.771 28.2222L47.3673 27.932L48.9637 27.2063L51.576 25.4649L48.5283 26.771L47.3673 27.932L46.4966 27.2063L45.771 28.2222L44.0295 27.4095Z" fill="#FEFACC"/>
<path d="M46.4966 27.2063L47.3673 27.932L48.5283 26.771C46.932 25.7551 45.1905 26.1905 44.0295 27.4095L45.771 28.2222L46.4966 27.2063Z" fill="white"/>
<path d="M45.4807 78V72.9206M45.4807 78L57.9615 70.1633V65.229M45.4807 78L33 70.3084V65.229M45.4807 72.9206L57.9615 65.229M45.4807 72.9206L33 65.229M57.9615 65.229L52.2427 61.6009M33 65.229L37.4145 62.4717M46.3515 67.9864C48.1221 67.5389 48.94 67.1862 49.6893 66.1472M46.3515 67.9864C44.9143 70.3262 44.0684 70.3292 42.5782 67.9864M46.3515 67.9864C45.802 67.128 47.0604 64.8985 48.9394 61.5696C49.18 61.1432 49.4308 60.6988 49.6893 60.237M49.6893 66.1472C51.687 64.57 52.4228 64.2537 53.4626 64.068C52.702 63.2936 52.3352 62.5225 52.2427 61.6009M49.6893 66.1472C49.0587 64.8855 49.2847 63.2196 49.6865 60.2577M42.5782 67.9864C41.7266 69.1505 40.7971 68.4139 38.805 66.0998C37.4543 65.1321 36.8322 64.5646 36.9184 63.3424C37.1336 63.0498 37.3045 62.9347 37.7891 62.907M42.5782 67.9864C42.9894 66.3335 43.4877 65.3689 45.6259 63.491M37.7891 62.907C37.6531 62.754 37.5277 62.6106 37.4145 62.4717M37.7891 62.907C39.2618 63.5061 40.6744 63.8476 41.9977 63.9396C43.3034 64.0303 44.5222 63.8782 45.6259 63.491M39.0952 57.102C38.0414 57.6552 37.5037 58.087 36.9184 59.7143C36.5395 61.0792 36.7926 61.7084 37.4145 62.4717M39.0952 57.102C39.1302 56.3331 39.2487 55.9307 39.966 55.3605V52.1678M39.0952 57.102C39.5672 58.0101 40.134 58.3296 40.8367 58.199M39.966 52.1678C38.4927 51.0591 38.2051 50.0742 38.3696 47.8141C38.7439 47.9446 38.9614 47.9042 39.3855 47.6689M39.966 52.1678C45.0979 48.2137 47.2256 44.3784 49.3991 34.0152M39.3855 47.6689C40.2819 47.2816 41.148 46.441 42.8685 44.6213L39.5871 45.7823M39.3855 47.6689C39.4536 46.9296 39.5195 46.3171 39.5871 45.7823M39.725 17.9184C40.0523 18.6138 40.5559 18.9365 41.4172 19.0794C42.2927 18.9232 42.8162 18.5697 43.0743 18.0635M39.725 17.9184C39.4995 17.4392 39.3577 16.783 39.2404 15.8866L40.1111 16.6122C40.0888 15.269 40.1581 14.5888 40.9819 14M39.725 17.9184H39.6757C37.7891 19.0794 37.644 20.5306 40.5465 21.4014V21.6916C39.8995 21.9556 39.7474 22.2525 40.4014 23.4331C40.4475 27.1319 40.5101 29.0746 41.127 30.6893L40.9819 33.5918C40.8466 33.893 40.718 34.1827 40.5968 34.4626M40.9819 14C41.0028 14.0481 41.0233 14.0954 41.0435 14.1418M40.9819 14L41.0435 14.1418M43.0743 18.0635C43.4649 17.2974 43.2477 16.1815 42.7234 14.8707C42.5848 15.5674 42.4874 15.8391 42.288 16.1769C41.7491 15.7656 41.484 15.1557 41.0435 14.1418M43.0743 18.0635C44.7551 19.3696 44.4649 20.8209 41.7075 21.4014V21.8367C42.1573 22.4192 42.3363 22.7304 41.9977 23.1429V24.0136C42.4177 25.3271 42.6868 26.3293 42.8421 27.3515M40.5968 34.4626C40.7484 35.848 40.8453 36.5627 41.127 37.0748C41.8157 38.332 42.1929 38.5484 42.8685 37.3651C43.2669 36.335 43.5397 35.4747 43.6515 34.6077M40.5968 34.4626C40.1422 35.5121 39.7918 36.4231 39.5871 37.2821M52.737 43.1701C54.2483 53.1054 54.2157 56.0629 52.8821 57.3923C52.4132 59.1845 52.1322 60.5 52.2427 61.6009M52.737 43.1701L54.6236 44.3311L57.6712 39.542M52.737 43.1701C52.5912 42.1325 52.4684 41.3326 52.3099 40.5578M51.576 37.8005L54.6236 33.0113L59.7029 36.2041C59.7029 36.2041 59.1156 37.0568 58.8322 37.5102M51.576 37.8005C51.9167 38.8791 52.135 39.7032 52.3099 40.5578M51.576 37.8005C51.5578 37.3496 51.4281 36.9246 51.2114 36.4943M48.5283 31.9955L48.8186 33.3016C49.0186 33.5513 49.2127 33.7884 49.3991 34.0152M48.5283 31.9955C49.0848 30.7954 49.0253 30.1739 48.6735 29.093C49.0181 28.8938 49.1878 28.7498 49.3991 28.3673C49.4859 27.8347 49.3864 27.5875 48.9637 27.2063M48.5283 31.9955C47.0617 34.3925 46.0864 33.4817 44.3197 31.415M48.9637 27.2063L51.576 25.4649L48.5283 26.771M48.9637 27.2063L47.3673 27.932M48.5283 26.771L47.3673 27.932M48.5283 26.771C46.932 25.7551 45.1905 26.1905 44.0295 27.4095M47.3673 27.932L46.4966 27.2063L45.771 28.2222M47.3673 27.932L45.771 28.2222M45.771 28.2222L44.4649 28.3673M45.771 28.2222L44.0295 27.4095M44.4649 28.3673L43.5941 27.2063L44.0295 27.4095M44.4649 28.3673L42.8421 27.3515M44.4649 28.3673H43.5941M42.8421 27.3515C42.8591 27.4635 42.8747 27.5757 42.8891 27.6887M42.8891 27.6887C42.9875 28.4647 43.0238 29.2727 43.0136 30.254C43.0997 30.5059 43.1773 30.7473 43.2466 30.9796M42.8891 27.6887L43.5941 28.3673M43.5941 28.3673C43.7139 29.7539 43.701 30.4156 43.2466 30.9796M58.8322 37.5102L58.3968 37.22L57.381 37.6553L56.9456 38.2358V38.9615L57.6712 39.542M58.8322 37.5102L59.2676 38.0907L58.3968 39.3968L58.2517 39.6871L57.6712 39.542M37.4145 62.4717C39.5164 62.5899 41.0522 61.4073 42.7531 59.1338M46.0612 54.0544C44.8036 56.0941 43.75 57.8013 42.7531 59.1338M46.0612 54.0544C45.807 54.3044 46.3001 53.8209 46.0612 54.0544ZM46.0612 54.0544C49.5717 47.905 50.1892 44.6824 51.2114 36.4943M46.0612 54.0544C44.1233 55.9486 41.9421 57.9935 40.8367 58.199M42.7531 59.1338C47.6902 56.4723 50.4331 53.0722 51.6383 48.8299M52.3099 40.5578C52.5197 43.6134 52.3388 46.364 51.6383 48.8299M51.6383 48.8299C52.1436 53.8419 51.3656 57.6799 49.6893 60.237M49.6893 60.237C48.6497 61.8229 47.2646 62.9161 45.6259 63.491M49.6893 60.237L49.6865 60.2577M49.6893 60.237C49.6884 60.2439 49.6875 60.2508 49.6865 60.2577M51.2114 36.4943C51.0912 36.2558 50.9443 36.0157 50.7748 35.7687M40.8367 58.199C46.7706 50.8397 48.8103 45.8356 50.7748 35.7687M50.7748 35.7687C50.4372 35.2768 50.01 34.7576 49.5257 34.1691M49.3991 34.0152C49.4417 34.067 49.4839 34.1183 49.5257 34.1691M49.3991 34.0152L49.5257 34.1691M39.5871 45.7823C39.771 44.3269 39.9675 43.4473 40.2562 42.1542C39.3327 40.3303 39.202 38.8983 39.5871 37.2821M43.6515 34.6077C44.2186 37.5783 44.61 40.2676 41.5624 40.4127C40.4014 40.1224 40.0331 39.0184 39.5871 37.2821M43.6515 34.6077C43.7913 33.5237 43.6794 32.4293 43.2466 30.9796" stroke="#333015" stroke-width="1.25"/>
</g>
<defs>
<filter id="filter0_d_2620_19296" x="20.375" y="4.68262" width="52.2129" height="90.0537" filterUnits="userSpaceOnUse" color-interpolation-filters="sRGB">
<feFlood flood-opacity="0" result="BackgroundImageFix"/>
<feColorMatrix in="SourceAlpha" type="matrix" values="0 0 0 0 0 0 0 0 0 0 0 0 0 0 0 0 0 0 127 0" result="hardAlpha"/>
<feOffset dy="4"/>
<feGaussianBlur stdDeviation="6"/>
<feComposite in2="hardAlpha" operator="out"/>
<feColorMatrix type="matrix" values="0 0 0 0 0 0 0 0 0 0 0 0 0 0 0 0 0 0 0.25 0"/>
<feBlend mode="normal" in2="BackgroundImageFix" result="effect1_dropShadow_2620_19296"/>
<feBlend mode="normal" in="SourceGraphic" in2="effect1_dropShadow_2620_19296" result="shape"/>
</filter>
</defs>
</svg>
