<svg width="183" height="292" viewBox="0 0 183 292" fill="none" xmlns="http://www.w3.org/2000/svg">
<g filter="url(#filter0_d_2620_19260)">
<path d="M88.9083 219.341L124.99 197.105L108.457 186.616C108.725 189.28 109.785 191.509 111.984 193.748C108.978 194.285 106.851 195.199 101.076 199.759C98.9091 202.763 96.5447 203.783 91.4257 205.076C87.2707 211.841 84.8251 211.849 80.5171 205.076C78.0551 208.442 75.3677 206.312 69.6086 199.622C65.7036 196.824 63.9051 195.184 64.1543 191.65C64.7765 190.804 65.2706 190.471 66.6716 190.392C66.2784 189.949 65.9158 189.535 65.5886 189.133L52.8262 197.105L88.9083 219.341Z" fill="#FFFCE1"/>
<path d="M88.9083 234.026V219.341L52.8262 197.105V211.789L88.9083 234.026Z" fill="white"/>
<path d="M88.9083 219.341V234.026L124.99 211.37V197.105L88.9083 219.341Z" fill="white"/>
<path d="M80.5171 205.076C84.8251 211.849 87.2707 211.841 91.4257 205.076C89.8372 202.595 93.4752 196.149 98.9074 186.525C99.6031 185.292 100.328 184.008 101.076 182.672C98.07 187.257 94.0655 190.418 89.3279 192.08C83.1465 197.509 81.7057 200.298 80.5171 205.076Z" fill="white"/>
<path d="M69.6086 199.622C75.3677 206.312 78.0551 208.442 80.5171 205.076C81.7057 200.298 83.1465 197.509 89.3279 192.08C86.1371 193.199 82.6137 193.639 78.8389 193.377C75.0132 193.111 70.9293 192.124 66.6716 190.392C65.2706 190.471 64.7765 190.804 64.1543 191.65C63.9051 195.184 65.7036 196.824 69.6086 199.622Z" fill="#FEFACC"/>
<path d="M91.4257 205.076C96.5447 203.783 98.9091 202.763 101.076 199.759C99.2523 196.111 99.9057 191.295 101.067 182.732L101.076 182.672C100.328 184.008 99.6031 185.292 98.9074 186.525C93.4752 196.149 89.8372 202.595 91.4257 205.076Z" fill="#FEFACC"/>
<path d="M101.076 199.759C106.851 195.199 108.978 194.285 111.984 193.748C109.785 191.509 108.725 189.28 108.457 186.616C108.138 183.433 108.95 179.63 110.306 174.448C114.161 170.605 114.256 162.055 109.886 133.332C109.465 130.332 109.11 128.019 108.652 125.779C109.258 134.613 108.735 142.565 106.71 149.694C108.171 164.184 105.922 175.28 101.076 182.672L101.067 182.732C99.9057 191.295 99.2523 196.111 101.076 199.759Z" fill="white"/>
<path d="M65.5886 189.133C65.9158 189.535 66.2784 189.949 66.6716 190.392C70.9293 192.124 75.0132 193.111 78.8389 193.377C82.6137 193.639 86.1371 193.199 89.3279 192.08C94.0655 190.418 98.07 187.257 101.076 182.672C105.922 175.28 108.171 164.184 106.71 149.694C103.226 161.959 95.296 171.789 81.0226 179.483C76.1052 186.056 71.6653 189.475 65.5886 189.133Z" fill="white"/>
<path d="M70.4477 173.609C67.4011 175.209 65.8465 176.457 64.1543 181.161C63.0589 185.107 63.7908 186.926 65.5886 189.133C71.6653 189.475 76.1052 186.056 81.0226 179.483C83.9047 175.631 86.9508 170.695 90.5866 164.798C84.9841 170.275 78.6781 176.186 75.4824 176.78C73.4508 177.158 71.8121 176.234 70.4477 173.609Z" fill="#FEFACC"/>
<path d="M90.5866 164.798C86.9508 170.695 83.9047 175.631 81.0226 179.483C95.296 171.789 103.226 161.959 106.71 149.694C108.735 142.565 109.258 134.613 108.652 125.779C108.146 123.309 107.515 120.926 106.53 117.808C106.477 116.504 106.102 115.276 105.476 114.032C102.521 137.704 100.735 147.02 90.5866 164.798Z" fill="#FEFACC"/>
<path d="M90.5866 164.798C100.735 147.02 102.521 137.704 105.476 114.032C105.128 113.342 104.704 112.648 104.214 111.934C98.5341 141.038 92.6373 155.505 75.4824 176.78C78.6781 176.186 84.9841 170.275 90.5866 164.798Z" fill="white"/>
<path d="M72.965 168.575C70.8914 170.223 70.5488 171.386 70.4477 173.609C71.8121 176.234 73.4508 177.158 75.4824 176.78C92.6373 155.505 98.5341 141.038 104.214 111.934C103.238 110.512 102.002 109.011 100.603 107.31L100.236 106.864C93.9528 136.825 87.8016 147.913 72.965 159.344V168.575Z" fill="#FEFACC"/>
<path d="M71.2868 146.338C73.8785 145.218 76.3823 142.788 81.3562 137.527L71.8697 140.884C71.6743 142.43 71.4839 144.2 71.2868 146.338Z" fill="#FEFACC"/>
<path d="M115.341 103.962L106.53 117.808C107.515 120.926 108.146 123.309 108.652 125.779C109.11 128.019 109.465 130.332 109.886 133.332L115.341 136.688L124.151 122.843L122.054 121.164V119.066L123.312 117.388L126.249 116.13L127.508 116.969C128.327 115.658 130.025 113.193 130.025 113.193L115.341 103.962Z" fill="white"/>
<path d="M127.508 116.969L126.249 116.13L123.312 117.388L122.054 119.066V121.164L124.151 122.843L125.83 123.262L126.249 122.423L128.766 118.647L127.508 116.969Z" fill="#FEFACC"/>
<path d="M81.3562 116.549C79.403 119.97 78.3126 119.344 76.3215 115.71C75.5071 114.23 75.2271 112.163 74.7887 108.158C73.4746 111.192 72.4615 113.826 71.8697 116.309C73.159 121.329 74.2237 124.521 77.5802 125.36C86.391 124.94 85.2596 117.166 83.6199 108.577C83.2967 111.084 82.5081 113.571 81.3562 116.549Z" fill="#FEFACC"/>
<path d="M76.3215 97.2494L75.902 105.641C75.511 106.511 75.1392 107.349 74.7887 108.158C75.2271 112.163 75.5071 114.23 76.3215 115.71C78.3126 119.344 79.403 119.97 81.3562 116.549C82.5081 113.571 83.2967 111.084 83.6199 108.577C84.0241 105.444 83.7005 102.28 82.4494 98.0885C82.249 97.417 82.0247 96.7191 81.7758 95.9907C81.8052 93.1537 81.7004 90.8179 81.4157 88.5743C81.3743 88.2479 81.3291 87.9233 81.2799 87.5995C80.831 84.6443 80.0531 81.7469 78.8389 77.9496V75.4323C79.8178 74.2398 79.3001 73.3403 77.9998 71.6562V70.3975C85.9714 68.7193 86.8105 64.5237 81.9512 60.7477C81.205 62.2111 79.6918 63.2331 77.1606 63.6846C74.6705 63.2716 73.2145 62.3387 72.2683 60.3281H72.1259C66.6716 63.6846 66.2521 67.8802 74.6433 70.3975V71.2367C72.7729 71.9997 72.333 72.8581 74.2237 76.2714C74.3572 86.9646 74.5382 92.5811 76.3215 97.2494Z" fill="white"/>
<path d="M68.3499 146.757C67.8741 153.292 68.7057 156.139 72.965 159.344C87.8016 147.913 93.9528 136.825 100.236 106.864C99.6976 106.209 99.1365 105.523 98.5582 104.801L97.7191 101.025C99.3279 97.556 99.1559 95.7593 98.1386 92.6342C99.1351 92.0584 99.6257 91.642 100.236 90.5364C100.487 88.9966 100.2 88.2818 98.9777 87.1799L94.3626 89.2777L89.7474 90.1169L85.9714 90.5364H83.454C83.8003 94.5449 83.7629 96.4581 82.4494 98.0885C83.7005 102.28 84.0241 105.444 83.6199 108.577C85.2596 117.166 86.391 124.94 77.5802 125.36C74.2237 124.521 73.159 121.329 71.8697 116.309C70.7562 120.982 71.1342 125.122 73.8042 130.395C72.9693 134.133 72.4014 136.676 71.8697 140.884L81.3562 137.527C76.3823 142.788 73.8785 145.218 71.2868 146.338C70.0606 147.018 69.4321 147.135 68.3499 146.757Z" fill="white"/>
<path fill-rule="evenodd" clip-rule="evenodd" d="M77.1606 63.6846C74.6705 63.2716 73.2145 62.3387 72.2683 60.3281C71.6164 58.9427 71.2065 57.0456 70.8672 54.4543L73.3846 56.5521C73.3202 52.6688 73.5204 50.7023 75.902 49L76.0802 49.4099C77.3538 52.3411 78.12 54.1044 79.678 55.2934C80.2544 54.317 80.536 53.5315 80.9367 51.5174C82.4525 55.3069 83.0804 58.5328 81.9512 60.7477C81.205 62.2111 79.6918 63.2331 77.1606 63.6846ZM81.4157 88.5743C81.3743 88.2479 81.3291 87.9233 81.2799 87.5995L85.9714 90.5364H83.454C83.8003 94.5449 83.7629 96.4581 82.4494 98.0885C82.249 97.417 82.0247 96.7191 81.7758 95.9907C81.8052 93.1537 81.7004 90.8179 81.4157 88.5743ZM84.7127 87.7673L83.454 87.1799L85.9714 90.5364L89.7474 90.1169L94.3626 89.2777L98.9777 87.1799L106.53 82.1452L97.7191 85.9213L94.3626 89.2777L91.8452 87.1799L89.7474 90.1169L84.7127 87.7673Z" fill="#FEFACC"/>
<path d="M91.8452 87.1799L94.3626 89.2777L97.7191 85.9213C93.1039 82.9843 88.0692 84.243 84.7127 87.7673L89.7474 90.1169L91.8452 87.1799Z" fill="white"/>
<path d="M88.9083 234.026V219.341M88.9083 234.026L124.99 211.37V197.105M88.9083 234.026L52.8262 211.789V197.105M88.9083 219.341L124.99 197.105M88.9083 219.341L52.8262 197.105M124.99 197.105L108.457 186.616M52.8262 197.105L65.5886 189.133M91.4257 205.076C96.5447 203.783 98.9091 202.763 101.076 199.759M91.4257 205.076C87.2707 211.841 84.8251 211.849 80.5171 205.076M91.4257 205.076C89.8372 202.595 93.4752 196.149 98.9074 186.525C99.6031 185.292 100.328 184.008 101.076 182.672M101.076 199.759C106.851 195.199 108.978 194.285 111.984 193.748C109.785 191.509 108.725 189.28 108.457 186.616M101.076 199.759C99.2523 196.111 99.9057 191.295 101.067 182.732M80.5171 205.076C78.0551 208.442 75.3677 206.312 69.6086 199.622C65.7036 196.824 63.9051 195.184 64.1543 191.65C64.7765 190.804 65.2706 190.471 66.6716 190.392M80.5171 205.076C81.7057 200.298 83.1465 197.509 89.3279 192.08M66.6716 190.392C66.2784 189.949 65.9158 189.535 65.5886 189.133M66.6716 190.392C70.9293 192.124 75.0132 193.111 78.8389 193.377C82.6137 193.639 86.1371 193.199 89.3279 192.08M70.4477 173.609C67.4011 175.209 65.8465 176.457 64.1543 181.161C63.0589 185.107 63.7908 186.926 65.5886 189.133M70.4477 173.609C70.5488 171.386 70.8914 170.223 72.965 168.575V159.344M70.4477 173.609C71.8121 176.234 73.4508 177.158 75.4824 176.78M72.965 159.344C68.7057 156.139 67.8741 153.292 68.3499 146.757C69.4321 147.135 70.0606 147.018 71.2868 146.338M72.965 159.344C87.8016 147.913 93.9528 136.825 100.236 106.864M71.2868 146.338C73.8785 145.218 76.3823 142.788 81.3562 137.527L71.8697 140.884M71.2868 146.338C71.4839 144.2 71.6743 142.43 71.8697 140.884M72.2683 60.3281C73.2145 62.3387 74.6705 63.2716 77.1606 63.6846C79.6918 63.2331 81.205 62.2111 81.9512 60.7477M72.2683 60.3281C71.6164 58.9427 71.2065 57.0456 70.8672 54.4543L73.3846 56.5521C73.3202 52.6688 73.5204 50.7023 75.902 49M72.2683 60.3281H72.1259C66.6716 63.6846 66.2521 67.8802 74.6433 70.3975V71.2367C72.7729 71.9997 72.333 72.8581 74.2237 76.2714C74.3572 86.9646 74.5382 92.5811 76.3215 97.2494L75.902 105.641C75.511 106.511 75.1392 107.349 74.7887 108.158M75.902 49C75.9625 49.1391 76.0219 49.2757 76.0802 49.4099M75.902 49L76.0802 49.4099M81.9512 60.7477C83.0804 58.5328 82.4525 55.3069 80.9367 51.5174C80.536 53.5315 80.2544 54.317 79.678 55.2934C78.12 54.1044 77.3538 52.3411 76.0802 49.4099M81.9512 60.7477C86.8105 64.5237 85.9714 68.7193 77.9998 70.3975V71.6562C79.3001 73.3403 79.8178 74.2398 78.8389 75.4323V77.9496C80.0531 81.7469 80.831 84.6443 81.2799 87.5995M74.7887 108.158C75.2271 112.163 75.5071 114.23 76.3215 115.71C78.3126 119.344 79.403 119.97 81.3562 116.549C82.5081 113.571 83.2967 111.084 83.6199 108.577M74.7887 108.158C73.4746 111.192 72.4615 113.826 71.8697 116.309M109.886 133.332C114.256 162.055 114.161 170.605 110.306 174.448C108.95 179.63 108.138 183.433 108.457 186.616M109.886 133.332L115.341 136.688L124.151 122.843M109.886 133.332C109.465 130.332 109.11 128.019 108.652 125.779M106.53 117.808L115.341 103.962L130.025 113.193C130.025 113.193 128.327 115.658 127.508 116.969M106.53 117.808C107.515 120.926 108.146 123.309 108.652 125.779M106.53 117.808C106.477 116.504 106.102 115.276 105.476 114.032M97.7191 101.025L98.5582 104.801C99.1365 105.523 99.6976 106.209 100.236 106.864M97.7191 101.025C99.3279 97.556 99.1559 95.7593 98.1386 92.6342C99.1351 92.0584 99.6257 91.642 100.236 90.5364C100.487 88.9966 100.2 88.2818 98.9777 87.1799M97.7191 101.025C93.479 107.955 90.6592 105.322 85.5518 99.3472M98.9777 87.1799L106.53 82.1452L97.7191 85.9213M98.9777 87.1799L94.3626 89.2777M97.7191 85.9213L94.3626 89.2777M97.7191 85.9213C93.1039 82.9843 88.0692 84.243 84.7127 87.7673M94.3626 89.2777L91.8452 87.1799L89.7474 90.1169M94.3626 89.2777L89.7474 90.1169M89.7474 90.1169L85.9714 90.5364M89.7474 90.1169L84.7127 87.7673M85.9714 90.5364L83.454 87.1799L84.7127 87.7673M85.9714 90.5364L81.2799 87.5995M85.9714 90.5364H83.454M81.2799 87.5995C81.3291 87.9233 81.3743 88.2479 81.4157 88.5743M81.4157 88.5743C81.7004 90.8179 81.8052 93.1537 81.7758 95.9907C82.0247 96.7191 82.249 97.417 82.4494 98.0885M81.4157 88.5743L83.454 90.5364M83.454 90.5364C83.8003 94.5449 83.7629 96.4581 82.4494 98.0885M127.508 116.969L126.249 116.13L123.312 117.388L122.054 119.066V121.164L124.151 122.843M127.508 116.969L128.766 118.647L126.249 122.423L125.83 123.262L124.151 122.843M65.5886 189.133C71.6653 189.475 76.1052 186.056 81.0226 179.483M90.5866 164.798C86.9508 170.695 83.9047 175.631 81.0226 179.483M90.5866 164.798C89.8515 165.521 91.2771 164.123 90.5866 164.798ZM90.5866 164.798C100.735 147.02 102.521 137.704 105.476 114.032M90.5866 164.798C84.9841 170.275 78.6781 176.186 75.4824 176.78M81.0226 179.483C95.296 171.789 103.226 161.959 106.71 149.694M108.652 125.779C109.258 134.613 108.735 142.565 106.71 149.694M106.71 149.694C108.171 164.184 105.922 175.28 101.076 182.672M101.076 182.672C98.07 187.257 94.0655 190.418 89.3279 192.08M101.076 182.672L101.067 182.732M101.076 182.672C101.073 182.692 101.07 182.712 101.067 182.732M105.476 114.032C105.128 113.342 104.704 112.648 104.214 111.934M75.4824 176.78C92.6373 155.505 98.5341 141.038 104.214 111.934M104.214 111.934C103.238 110.512 102.002 109.011 100.603 107.31M100.236 106.864C100.36 107.014 100.482 107.163 100.603 107.31M100.236 106.864L100.603 107.31M71.8697 140.884C72.4014 136.676 72.9693 134.133 73.8042 130.395C71.1342 125.122 70.7562 120.982 71.8697 116.309M83.6199 108.577C85.2596 117.166 86.391 124.94 77.5802 125.36C74.2237 124.521 73.159 121.329 71.8697 116.309M83.6199 108.577C84.0241 105.444 83.7005 102.28 82.4494 98.0885" stroke="#333015" stroke-width="4"/>
</g>
<defs>
<filter id="filter0_d_2620_19260" x="0.826172" y="0.015625" width="182.029" height="291.865" filterUnits="userSpaceOnUse" color-interpolation-filters="sRGB">
<feFlood flood-opacity="0" result="BackgroundImageFix"/>
<feColorMatrix in="SourceAlpha" type="matrix" values="0 0 0 0 0 0 0 0 0 0 0 0 0 0 0 0 0 0 127 0" result="hardAlpha"/>
<feOffset dy="5.5"/>
<feGaussianBlur stdDeviation="25"/>
<feComposite in2="hardAlpha" operator="out"/>
<feColorMatrix type="matrix" values="0 0 0 0 0 0 0 0 0 0 0 0 0 0 0 0 0 0 0.25 0"/>
<feBlend mode="normal" in2="BackgroundImageFix" result="effect1_dropShadow_2620_19260"/>
<feBlend mode="normal" in="SourceGraphic" in2="effect1_dropShadow_2620_19260" result="shape"/>
</filter>
</defs>
</svg>
