<svg width="249" height="242" viewBox="0 0 249 242" fill="none" xmlns="http://www.w3.org/2000/svg">
<g filter="url(#filter0_d_2620_19265)">
<path d="M67.7838 155.935L89.6997 136.437L75.8758 128.705L53.96 147.867L67.7838 155.935Z" fill="#FEFACC"/>
<path d="M70.5373 157.616L53.96 186.862L67.7838 194.93L84.305 166.02L70.5373 157.616Z" fill="#FEFACC"/>
<path d="M84.9793 219.134L90.374 189.551L74.19 193.405L70.8183 210.73L84.9793 219.134Z" fill="#FEFACC"/>
<path d="M114.65 221.487L107.907 199.636L98.8032 207.378L100.489 213.419L114.65 221.487Z" fill="#FEFACC"/>
<path d="M89.6997 136.437L84.9793 112.233L70.5373 104.165L75.8758 128.705L89.6997 136.437Z" fill="#FEFACC"/>
<path d="M84.9793 112.233L108.581 104.165L94.7572 95.761L70.5373 104.165L84.9793 112.233Z" fill="white"/>
<path d="M108.581 104.165L114.313 75.591L100.152 67.523L94.7572 95.761L108.581 104.165Z" fill="#FEFACC"/>
<path d="M154.436 77.9442L178.037 58.4465L163.876 50.3786L150.137 61.8082L154.436 77.9442Z" fill="#FEFACC"/>
<path d="M130.834 84.6675L148.704 56.4295L134.206 48.0254L117.01 77.0729L130.834 84.6675Z" fill="#FEFACC"/>
<path d="M172.643 88.0292L195.233 82.6505L181.072 74.5825L174.788 76.2633L172.643 88.0292Z" fill="#FEFACC"/>
<path fill-rule="evenodd" clip-rule="evenodd" d="M90.374 189.551L84.9793 219.134L98.8032 207.378L107.907 199.636L114.65 221.487L131.846 192.577L148.704 201.989L155.784 171.398L178.037 165.011L171.631 143.833L195.233 121.646L178.712 111.897L195.233 82.6505L172.643 88.0292L174.788 76.2633L178.037 58.4465L154.436 77.9442L150.137 61.8082L148.704 56.4295L130.834 84.6675L117.01 77.0729L114.313 75.591L108.581 104.165L84.9793 112.233L89.6997 136.437L67.7838 155.935L70.5373 157.616L84.305 166.02L67.7838 194.93L74.19 193.405L90.374 189.551ZM104.43 185.23C119.082 193.663 142.993 179.719 157.837 154.084C172.681 128.449 172.838 100.831 158.187 92.3973C143.536 83.9635 119.625 97.9078 104.78 123.543C89.9357 149.178 89.7791 176.796 104.43 185.23Z" fill="white"/>
<path fill-rule="evenodd" clip-rule="evenodd" d="M104.43 185.23C119.082 193.663 142.993 179.719 157.837 154.084C172.681 128.449 172.838 100.831 158.187 92.3973C143.536 83.9635 119.625 97.9078 104.78 123.543C89.9357 149.178 89.7791 176.796 104.43 185.23ZM135.531 116.603C131.147 116.603 126.114 121.617 126.114 125.987C126.114 121.617 121.911 116.603 117.865 116.603C121.911 116.603 126.114 111.926 126.114 107.892C126.114 111.926 131.147 116.603 135.531 116.603Z" fill="#FEFACC"/>
<path d="M126.114 125.987C126.114 121.617 131.147 116.603 135.531 116.603C131.147 116.603 126.114 111.926 126.114 107.892C126.114 111.926 121.911 116.603 117.865 116.603C121.911 116.603 126.114 121.617 126.114 125.987Z" fill="white"/>
<path d="M70.5373 157.616L53.96 186.862L67.7838 194.93M70.5373 157.616L67.7838 155.935M70.5373 157.616L84.305 166.02L67.7838 194.93M67.7838 194.93L74.19 193.405M84.9793 219.134L90.374 189.551L74.19 193.405M84.9793 219.134L98.8032 207.378M84.9793 219.134L70.8183 210.73L74.19 193.405M114.65 221.487L107.907 199.636L98.8032 207.378M114.65 221.487L131.846 192.577L148.704 201.989L155.784 171.398L178.037 165.011L171.631 143.833L195.233 121.646L178.712 111.897L195.233 82.6505M114.65 221.487L100.489 213.419L98.8032 207.378M195.233 82.6505L172.643 88.0292L174.788 76.2633M195.233 82.6505L181.072 74.5825L174.788 76.2633M178.037 58.4465L154.436 77.9442L150.137 61.8082M178.037 58.4465L163.876 50.3786L150.137 61.8082M178.037 58.4465L174.788 76.2633M148.704 56.4295L130.834 84.6675L117.01 77.0729M148.704 56.4295L134.206 48.0254L117.01 77.0729M148.704 56.4295L150.137 61.8082M114.313 75.591L108.581 104.165M114.313 75.591L100.152 67.523L94.7572 95.761M114.313 75.591L117.01 77.0729M108.581 104.165L84.9793 112.233M108.581 104.165L94.7572 95.761M84.9793 112.233L89.6997 136.437M84.9793 112.233L70.5373 104.165M89.6997 136.437L67.7838 155.935M89.6997 136.437L75.8758 128.705M67.7838 155.935L53.96 147.867L75.8758 128.705M75.8758 128.705L70.5373 104.165M70.5373 104.165L94.7572 95.761M126.114 125.987C126.114 121.617 131.147 116.603 135.531 116.603C131.147 116.603 126.114 111.926 126.114 107.892C126.114 111.926 121.911 116.603 117.865 116.603C121.911 116.603 126.114 121.617 126.114 125.987ZM157.837 154.084C142.993 179.719 119.082 193.663 104.43 185.23C89.7791 176.796 89.9357 149.178 104.78 123.543C119.625 97.9078 143.536 83.9635 158.187 92.3973C172.838 100.831 172.681 128.449 157.837 154.084Z" stroke="#333015" stroke-width="4"/>
</g>
<defs>
<filter id="filter0_d_2620_19265" x="0.549805" y="0.800781" width="247.995" height="278.896" filterUnits="userSpaceOnUse" color-interpolation-filters="sRGB">
<feFlood flood-opacity="0" result="BackgroundImageFix"/>
<feColorMatrix in="SourceAlpha" type="matrix" values="0 0 0 0 0 0 0 0 0 0 0 0 0 0 0 0 0 0 127 0" result="hardAlpha"/>
<feOffset dy="5.5"/>
<feGaussianBlur stdDeviation="25"/>
<feComposite in2="hardAlpha" operator="out"/>
<feColorMatrix type="matrix" values="0 0 0 0 0 0 0 0 0 0 0 0 0 0 0 0 0 0 0.25 0"/>
<feBlend mode="normal" in2="BackgroundImageFix" result="effect1_dropShadow_2620_19265"/>
<feBlend mode="normal" in="SourceGraphic" in2="effect1_dropShadow_2620_19265" result="shape"/>
</filter>
</defs>
</svg>
