<svg width="92" height="93" viewBox="0 0 92 93" fill="none" xmlns="http://www.w3.org/2000/svg">
<g filter="url(#filter0_d_2620_19293)">
<path d="M26.06 53.3256L33.6406 46.5814L28.859 43.907L21.2783 50.5349L26.06 53.3256Z" fill="#FEFACC"/>
<path d="M27.0124 53.907L21.2783 64.0233L26.06 66.8139L31.7746 56.8139L27.0124 53.907Z" fill="#FEFACC"/>
<path d="M32.0078 75.186L33.8738 64.9535L28.2758 66.2864L27.1096 72.2791L32.0078 75.186Z" fill="#FEFACC"/>
<path d="M42.2709 76L39.9384 68.4419L36.7895 71.1197L37.3726 73.2093L42.2709 76Z" fill="#FEFACC"/>
<path d="M33.6406 46.5814L32.0078 38.2093L27.0124 35.4186L28.859 43.907L33.6406 46.5814Z" fill="#FEFACC"/>
<path d="M32.0078 38.2093L40.1716 35.4186L35.39 32.5116L27.0124 35.4186L32.0078 38.2093Z" fill="white"/>
<path d="M40.1716 35.4186L42.1542 25.5349L37.256 22.7442L35.39 32.5116L40.1716 35.4186Z" fill="#FEFACC"/>
<path d="M56.0326 26.3488L64.1964 19.6047L59.2982 16.814L54.5457 20.7674L56.0326 26.3488Z" fill="#FEFACC"/>
<path d="M47.8689 28.6744L54.05 18.907L49.0351 16L43.0872 26.0475L47.8689 28.6744Z" fill="#FEFACC"/>
<path d="M62.3304 29.8372L70.1443 27.9767L65.246 25.186L63.0726 25.7674L62.3304 29.8372Z" fill="#FEFACC"/>
<path fill-rule="evenodd" clip-rule="evenodd" d="M33.8738 64.9535L32.0078 75.186L36.7895 71.1197L39.9384 68.4419L42.2709 76L48.2188 66L54.05 69.2558L56.4991 58.6744L64.1964 56.4651L61.9805 49.1395L70.1443 41.4651L64.4297 38.093L70.1443 27.9767L62.3304 29.8372L63.0726 25.7674L64.1964 19.6047L56.0326 26.3488L54.5457 20.7674L54.05 18.907L47.8689 28.6744L43.0872 26.0475L42.1542 25.5349L40.1716 35.4186L32.0078 38.2093L33.6406 46.5814L26.06 53.3256L27.0124 53.907L31.7746 56.8139L26.06 66.8139L28.2758 66.2864L33.8738 64.9535ZM38.7359 63.4586C43.8037 66.3759 52.0745 61.5526 57.2091 52.6855C62.3438 43.8184 62.3979 34.2654 57.3301 31.3481C52.2623 28.4309 43.9916 33.2542 38.8569 42.1213C33.7223 50.9884 33.6681 60.5414 38.7359 63.4586Z" fill="white"/>
<path fill-rule="evenodd" clip-rule="evenodd" d="M38.7359 63.4586C43.8037 66.3759 52.0745 61.5526 57.2091 52.6855C62.3438 43.8184 62.3979 34.2654 57.3301 31.3481C52.2623 28.4309 43.9916 33.2542 38.8569 42.1213C33.7223 50.9884 33.6681 60.5414 38.7359 63.4586ZM49.4934 39.7209C47.9773 39.7209 46.2361 41.4551 46.2361 42.9668C46.2361 41.4551 44.7824 39.7209 43.3829 39.7209C44.7824 39.7209 46.2361 38.103 46.2361 36.7076C46.2361 38.103 47.9773 39.7209 49.4934 39.7209Z" fill="#FEFACC"/>
<path d="M46.2361 42.9668C46.2361 41.4551 47.9773 39.7209 49.4934 39.7209C47.9773 39.7209 46.2361 38.103 46.2361 36.7076C46.2361 38.103 44.7824 39.7209 43.3829 39.7209C44.7824 39.7209 46.2361 41.4551 46.2361 42.9668Z" fill="white"/>
<path d="M27.0124 53.907L21.2783 64.0233L26.06 66.814M27.0124 53.907L26.06 53.3256M27.0124 53.907L31.7746 56.814L26.06 66.814M26.06 66.814L28.2758 66.2864M32.0078 75.186L33.8738 64.9535L28.2758 66.2864M32.0078 75.186L36.7895 71.1197M32.0078 75.186L27.1096 72.2791L28.2758 66.2864M42.2709 76L39.9384 68.4419L36.7895 71.1197M42.2709 76L48.2188 66L54.05 69.2558L56.4991 58.6744L64.1964 56.4651L61.9805 49.1395L70.1443 41.4651L64.4297 38.093L70.1443 27.9767M42.2709 76L37.3726 73.2093L36.7895 71.1197M70.1443 27.9767L62.3304 29.8372L63.0726 25.7674M70.1443 27.9767L65.246 25.186L63.0726 25.7674M64.1964 19.6047L56.0326 26.3488L54.5457 20.7674M64.1964 19.6047L59.2982 16.814L54.5457 20.7674M64.1964 19.6047L63.0726 25.7674M54.05 18.907L47.8689 28.6744L43.0872 26.0475M54.05 18.907L49.0351 16L43.0872 26.0475M54.05 18.907L54.5457 20.7674M42.1542 25.5349L40.1716 35.4186M42.1542 25.5349L37.256 22.7442L35.39 32.5116M42.1542 25.5349L43.0872 26.0475M40.1716 35.4186L32.0078 38.2093M40.1716 35.4186L35.39 32.5116M32.0078 38.2093L33.6406 46.5814M32.0078 38.2093L27.0124 35.4186M33.6406 46.5814L26.06 53.3256M33.6406 46.5814L28.859 43.907M26.06 53.3256L21.2783 50.5349L28.859 43.907M28.859 43.907L27.0124 35.4186M27.0124 35.4186L35.39 32.5116M46.2361 42.9668C46.2361 41.4551 47.9773 39.7209 49.4934 39.7209C47.9773 39.7209 46.2361 38.103 46.2361 36.7076C46.2361 38.103 44.7824 39.7209 43.3829 39.7209C44.7824 39.7209 46.2361 41.4551 46.2361 42.9668ZM57.2091 52.6855C52.0745 61.5526 43.8037 66.3759 38.7359 63.4586C33.6681 60.5414 33.7223 50.9884 38.8569 42.1213C43.9916 33.2542 52.2623 28.4309 57.3301 31.3481C62.3979 34.2654 62.3438 43.8184 57.2091 52.6855Z" stroke="#333015" stroke-width="1.25"/>
</g>
<defs>
<filter id="filter0_d_2620_19293" x="8.21289" y="7.14844" width="74.9658" height="85.6982" filterUnits="userSpaceOnUse" color-interpolation-filters="sRGB">
<feFlood flood-opacity="0" result="BackgroundImageFix"/>
<feColorMatrix in="SourceAlpha" type="matrix" values="0 0 0 0 0 0 0 0 0 0 0 0 0 0 0 0 0 0 127 0" result="hardAlpha"/>
<feOffset dy="4"/>
<feGaussianBlur stdDeviation="6"/>
<feComposite in2="hardAlpha" operator="out"/>
<feColorMatrix type="matrix" values="0 0 0 0 0 0 0 0 0 0 0 0 0 0 0 0 0 0 0.25 0"/>
<feBlend mode="normal" in2="BackgroundImageFix" result="effect1_dropShadow_2620_19293"/>
<feBlend mode="normal" in="SourceGraphic" in2="effect1_dropShadow_2620_19293" result="shape"/>
</filter>
</defs>
</svg>
