<svg width="276" height="250" viewBox="0 0 276 250" fill="none" xmlns="http://www.w3.org/2000/svg">
<g filter="url(#filter0_d_2620_19257)">
<path d="M131.264 140.92C131.755 142.353 133.209 143.258 134.696 142.963L135.665 142.77C145.123 116.973 152.278 103.525 172.448 83.5863C162.711 82.1515 143.401 100.401 129.088 135.596C129.93 137.377 130.66 139.159 131.264 140.92Z" fill="#FEFACC"/>
<path d="M149.729 80.7167C135.276 89.5812 127.176 94.5617 113.629 115.151C116.005 117.224 118.24 119.523 120.291 121.966C132.583 100.743 143.475 85.8493 162.544 76.7711L162.35 76.4124C157.919 77.0972 155.494 78.1693 150.929 80.187C150.545 80.3567 150.146 80.5332 149.729 80.7167Z" fill="#FEFACC"/>
<path d="M149.729 50.9456C138.911 55.6085 117.274 71.0321 103.931 108.479C107.332 110.224 110.595 112.504 113.629 115.151C127.176 94.5617 135.276 89.5812 149.729 80.7167V62.4236V50.9456Z" fill="white"/>
<path d="M141.157 47.4719C140.414 47.1709 139.578 47.1902 138.855 47.5361C134.438 49.6493 131.43 51.5066 126.289 55.6085C125.123 56.6622 124.022 57.6208 122.964 58.5416C114.314 66.0743 108.558 71.0861 93.4731 105.032C97.0364 105.543 100.552 106.747 103.931 108.479C117.274 71.0321 138.911 55.6085 149.729 50.9456L141.157 47.4719Z" fill="#FEFACC"/>
<path d="M75.0817 103.673V109.412C81.0504 105.33 87.3326 104.151 93.4731 105.032C108.558 71.0861 114.314 66.0743 122.964 58.5416C124.022 57.6208 125.123 56.6622 126.289 55.6085C121.2 57.7535 118.075 60.5258 112.614 65.9805C112.358 66.2361 112.049 66.4458 111.718 66.5924C94.9143 74.0408 89.6831 81.8836 80.4867 95.6711C78.8416 98.1375 77.0696 100.794 75.0817 103.673Z" fill="white"/>
<path fill-rule="evenodd" clip-rule="evenodd" d="M135.665 158.193V142.77L134.696 142.963C133.209 143.258 131.755 142.353 131.264 140.92C130.66 139.159 129.93 137.377 129.088 135.596C126.865 130.899 123.857 126.214 120.291 121.966C118.24 119.523 116.005 117.224 113.629 115.151C110.595 112.504 107.332 110.224 103.931 108.479C100.552 106.747 97.0364 105.543 93.4731 105.032C87.3326 104.151 81.0504 105.33 75.0817 109.412V111.205V122.077C75.0817 123.117 75.6402 124.077 76.5442 124.591L135.665 158.193ZM116.576 132.963C117.455 133.483 117.995 134.43 117.995 135.452V138.419C117.995 140.658 115.559 142.047 113.632 140.907L92.7287 128.544C91.849 128.024 91.3094 127.078 91.3094 126.056V123.089C91.3094 120.85 93.7449 119.461 95.6721 120.601L116.576 132.963Z" fill="white"/>
<path d="M113.632 140.907C115.559 142.047 117.995 140.658 117.995 138.419V135.452C117.995 134.43 117.455 133.483 116.576 132.963L95.6721 120.601C93.7449 119.461 91.3094 120.85 91.3094 123.089V126.056C91.3094 127.078 91.849 128.024 92.7287 128.544L113.632 140.907Z" fill="#FEFACC"/>
<path d="M52.7236 123.759L138.189 171.824L223.294 123.759L203.1 112.353L199.494 116.227L200.936 117.183C202.744 118.382 202.637 121.07 200.74 122.121L180.201 133.507L155.499 147.199L135.665 158.193L76.5442 124.591C75.6402 124.077 75.0817 123.117 75.0817 122.077V111.205L52.7236 123.759Z" fill="white"/>
<path d="M138.189 191.551V171.824L52.7236 123.759V141.091C52.7236 142.129 53.2801 143.087 54.1815 143.602L138.189 191.551Z" fill="white"/>
<path d="M138.189 171.824V191.551L221.841 143.603C222.74 143.088 223.294 142.131 223.294 141.095V123.759L138.189 171.824Z" fill="#FEFACC"/>
<path d="M135.665 142.77V158.193L155.499 147.199C148.982 142.98 144.761 141.765 135.665 142.77Z" fill="white"/>
<path d="M200.74 122.121C202.637 121.07 202.744 118.382 200.936 117.183L199.494 116.227L190.478 126.629C184.388 122.779 178.104 123.398 172.448 126.554C165.178 130.61 158.947 138.858 155.499 147.199L180.201 133.507L200.74 122.121Z" fill="#FEFACC"/>
<path d="M190.478 126.629L199.494 116.227L203.1 112.353L206.715 108.47C207.732 107.377 207.75 105.687 206.745 104.584C199.585 96.721 193.912 91.6604 187.023 88.2492C182.821 86.1683 178.167 84.7012 172.448 83.5863C185.832 101.816 187.882 110.815 190.478 126.629Z" fill="white"/>
<path fill-rule="evenodd" clip-rule="evenodd" d="M187.023 88.2492C188.026 81.3617 188.305 77.8348 185.79 74.9777L179.585 71.5827C178.938 71.2291 178.181 71.1339 177.47 71.3272C171.96 72.825 167.026 74.6375 162.544 76.7711C143.475 85.8493 132.583 100.743 120.291 121.966C123.857 126.214 126.865 130.899 129.088 135.596C143.401 100.401 162.711 82.1515 172.448 83.5863C152.278 103.525 145.123 116.973 135.665 142.77C144.761 141.765 148.982 142.98 155.499 147.199C158.947 138.858 165.178 130.61 172.448 126.554V83.5863C178.167 84.7012 182.821 86.1683 187.023 88.2492ZM149.729 62.4236C155.236 66.2502 157.792 68.75 162.35 76.4124C157.919 77.0972 155.494 78.1693 150.929 80.187C150.545 80.3567 150.146 80.5332 149.729 80.7167V62.4236Z" fill="white"/>
<path d="M190.478 126.629C187.882 110.815 185.832 101.816 172.448 83.5863V126.554C178.104 123.398 184.388 122.779 190.478 126.629Z" fill="#FEFACC"/>
<path d="M138.189 191.551V171.824M138.189 191.551L54.1815 143.602C53.2801 143.087 52.7236 142.129 52.7236 141.091V123.759M138.189 191.551L221.841 143.603C222.74 143.088 223.294 142.131 223.294 141.095V123.759M138.189 171.824L52.7236 123.759M138.189 171.824L223.294 123.759M52.7236 123.759L75.0817 111.205M223.294 123.759L203.1 112.353M135.665 158.193V142.77M135.665 158.193L76.5442 124.591C75.6402 124.077 75.0817 123.117 75.0817 122.077V111.205M135.665 158.193L155.499 147.199M135.665 142.77C144.761 141.765 148.982 142.98 155.499 147.199M135.665 142.77L134.696 142.963C133.209 143.258 131.755 142.353 131.264 140.92C130.66 139.159 129.93 137.377 129.088 135.596M135.665 142.77C145.123 116.973 152.278 103.525 172.448 83.5863M199.494 116.227L200.936 117.183C202.744 118.382 202.637 121.07 200.74 122.121L180.201 133.507L155.499 147.199M199.494 116.227L190.478 126.629M199.494 116.227L203.1 112.353M190.478 126.629C187.882 110.815 185.832 101.816 172.448 83.5863M190.478 126.629C184.388 122.779 178.104 123.398 172.448 126.554M155.499 147.199C158.947 138.858 165.178 130.61 172.448 126.554M155.499 147.199C157.26 123.009 159.941 109.214 172.448 83.5863M75.0817 109.412V103.673M75.0817 109.412C81.0504 105.33 87.3326 104.151 93.4731 105.032M75.0817 109.412V111.205M75.0817 103.673L72.918 106.542M75.0817 103.673C77.0696 100.794 78.8416 98.1375 80.4867 95.6711C89.6831 81.8836 94.9143 74.0408 111.718 66.5924C112.049 66.4458 112.358 66.2361 112.614 65.9805C118.075 60.5258 121.2 57.7535 126.289 55.6085M129.088 135.596C143.401 100.401 162.711 82.1515 172.448 83.5863M129.088 135.596C126.865 130.899 123.857 126.214 120.291 121.966M172.448 83.5863C178.167 84.7012 182.821 86.1683 187.023 88.2492M172.448 83.5863C179.588 75.8569 181.901 75.3438 185.79 74.9777M172.448 83.5863V126.554M126.289 55.6085C131.43 51.5066 134.438 49.6493 138.855 47.5361C139.578 47.1902 140.414 47.1709 141.157 47.4719L149.729 50.9456M126.289 55.6085C125.123 56.6622 124.022 57.6208 122.964 58.5416C114.314 66.0743 108.558 71.0861 93.4731 105.032M149.729 50.9456C138.911 55.6085 117.274 71.0321 103.931 108.479M149.729 50.9456V62.4236M103.931 108.479C100.552 106.747 97.0364 105.543 93.4731 105.032M103.931 108.479C107.332 110.224 110.595 112.504 113.629 115.151M113.629 115.151C127.176 94.5617 135.276 89.5812 149.729 80.7167M113.629 115.151C116.005 117.224 118.24 119.523 120.291 121.966M149.729 80.7167V62.4236M149.729 80.7167C150.146 80.5332 150.545 80.3567 150.929 80.187C155.494 78.1693 157.919 77.0972 162.35 76.4124M149.729 62.4236C155.236 66.2502 157.792 68.75 162.35 76.4124M162.35 76.4124L162.544 76.7711M185.79 74.9777L179.585 71.5827C178.938 71.2291 178.181 71.1339 177.47 71.3272C171.96 72.825 167.026 74.6375 162.544 76.7711M185.79 74.9777C188.305 77.8348 188.026 81.3617 187.023 88.2492M187.023 88.2492C193.912 91.6604 199.585 96.721 206.745 104.584C207.75 105.687 207.732 107.377 206.715 108.47L203.1 112.353M120.291 121.966C132.583 100.743 143.475 85.8493 162.544 76.7711M95.6721 120.601L116.576 132.963C117.455 133.484 117.995 134.43 117.995 135.452V138.419C117.995 140.658 115.559 142.047 113.632 140.907L92.7287 128.544C91.849 128.024 91.3094 127.078 91.3094 126.056V123.089C91.3094 120.85 93.7449 119.461 95.6721 120.601Z" stroke="#333015" stroke-width="4"/>
</g>
<defs>
<filter id="filter0_d_2620_19257" x="0.723633" y="0.760742" width="274.57" height="248.595" filterUnits="userSpaceOnUse" color-interpolation-filters="sRGB">
<feFlood flood-opacity="0" result="BackgroundImageFix"/>
<feColorMatrix in="SourceAlpha" type="matrix" values="0 0 0 0 0 0 0 0 0 0 0 0 0 0 0 0 0 0 127 0" result="hardAlpha"/>
<feOffset dy="5.5"/>
<feGaussianBlur stdDeviation="25"/>
<feComposite in2="hardAlpha" operator="out"/>
<feColorMatrix type="matrix" values="0 0 0 0 0 0 0 0 0 0 0 0 0 0 0 0 0 0 0.25 0"/>
<feBlend mode="normal" in2="BackgroundImageFix" result="effect1_dropShadow_2620_19257"/>
<feBlend mode="normal" in="SourceGraphic" in2="effect1_dropShadow_2620_19257" result="shape"/>
</filter>
</defs>
</svg>
