<svg width="92" height="92" viewBox="0 0 92 92" fill="none" xmlns="http://www.w3.org/2000/svg">
<g filter="url(#filter0_d_2620_19297)">
<path d="M44.1668 53.4866C44.3369 53.9824 44.8398 54.2955 45.3539 54.1933L45.6892 54.1266C48.9608 45.2036 51.4356 40.5518 58.4123 33.6551C55.0444 33.1588 48.3652 39.4713 43.4142 51.6452C43.7056 52.261 43.9579 52.8775 44.1668 53.4866Z" fill="#FEFACC"/>
<path d="M50.5539 32.6625C45.5547 35.7288 42.753 37.4515 38.0669 44.5732C38.8887 45.2903 39.6619 46.0854 40.3713 46.9305C44.6233 39.5896 48.3907 34.4379 54.9867 31.2978L54.9197 31.1737C53.3869 31.4105 52.5479 31.7814 50.969 32.4793C50.8362 32.538 50.6981 32.5991 50.5539 32.6625Z" fill="#FEFACC"/>
<path d="M50.5539 22.3648C46.8118 23.9777 39.3277 29.3127 34.7125 42.2656C35.889 42.8689 37.0177 43.6575 38.0669 44.5732C42.753 37.4515 45.5547 35.7288 50.5539 32.6625V26.335V22.3648Z" fill="white"/>
<path d="M47.5889 21.1632C47.3319 21.0591 47.0426 21.0658 46.7925 21.1854C45.2647 21.9164 44.2243 22.5588 42.4461 23.9777C42.0426 24.3421 41.6619 24.6737 41.2961 24.9922C38.3038 27.5977 36.313 29.3313 31.0951 41.073C32.3277 41.2497 33.5437 41.6663 34.7125 42.2656C39.3277 29.3127 46.8118 23.9777 50.5539 22.3648L47.5889 21.1632Z" fill="#FEFACC"/>
<path d="M24.7336 40.603V42.5881C26.7982 41.1763 28.9712 40.7686 31.0951 41.073C36.313 29.3313 38.3038 27.5977 41.2961 24.9922C41.6619 24.6737 42.0426 24.3421 42.4461 23.9777C40.6859 24.7196 39.605 25.6785 37.7158 27.5653C37.6273 27.6537 37.5203 27.7262 37.4059 27.777C31.5937 30.3533 29.7842 33.0661 26.6032 37.8352C26.0341 38.6884 25.4212 39.6073 24.7336 40.603Z" fill="white"/>
<path fill-rule="evenodd" clip-rule="evenodd" d="M45.6892 59.4615V54.1266L45.3539 54.1933C44.8398 54.2955 44.3369 53.9824 44.1668 53.4866C43.9579 52.8775 43.7056 52.261 43.4142 51.6452C42.6455 50.0204 41.6047 48.3999 40.3713 46.9305C39.6619 46.0854 38.8887 45.2903 38.0669 44.5732C37.0177 43.6575 35.889 42.8689 34.7125 42.2656C33.5437 41.6663 32.3277 41.2497 31.0951 41.073C28.9712 40.7686 26.7982 41.1763 24.7336 42.5881V43.2084V46.969C24.7336 47.3287 24.9268 47.6607 25.2395 47.8384L45.6892 59.4615ZM39.0862 50.7345C39.3905 50.9144 39.5772 51.2417 39.5772 51.5952V52.6215C39.5772 53.396 38.7347 53.8765 38.0681 53.4822L30.8377 49.206C30.5334 49.026 30.3467 48.6988 30.3467 48.3453V47.319C30.3467 46.5445 31.1892 46.064 31.8558 46.4583L39.0862 50.7345Z" fill="white"/>
<path d="M38.0681 53.4822C38.7347 53.8765 39.5772 53.396 39.5772 52.6215V51.5952C39.5772 51.2417 39.3905 50.9144 39.0862 50.7345L31.8558 46.4583C31.1892 46.064 30.3467 46.5445 30.3467 47.319V48.3453C30.3467 48.6988 30.5334 49.026 30.8377 49.206L38.0681 53.4822Z" fill="#FEFACC"/>
<path d="M17 47.5509L46.5624 64.1762L76 47.5509L69.0148 43.6055L67.7674 44.9454L68.2664 45.2763C68.8916 45.6908 68.8546 46.6206 68.1985 46.9843L61.0941 50.9224L52.5497 55.6587L45.6892 59.4615L25.2395 47.8384C24.9268 47.6607 24.7336 47.3287 24.7336 46.969V43.2084L17 47.5509Z" fill="white"/>
<path d="M46.5624 71V64.1762L17 47.5509V53.5459C17 53.9049 17.1925 54.2364 17.5043 54.4144L46.5624 71Z" fill="white"/>
<path d="M46.5624 64.1762V71L75.4973 54.4147C75.8082 54.2365 76 53.9055 76 53.5471V47.5509L46.5624 64.1762Z" fill="#FEFACC"/>
<path d="M45.6892 54.1266V59.4615L52.5497 55.6587C50.2957 54.1994 48.8355 53.7791 45.6892 54.1266Z" fill="white"/>
<path d="M68.1985 46.9843C68.8546 46.6206 68.8916 45.6908 68.2664 45.2763L67.7674 44.9454L64.649 48.5434C62.5424 47.2119 60.3687 47.4258 58.4123 48.5174C55.8978 49.9205 53.7423 52.7734 52.5497 55.6587L61.0941 50.9224L68.1985 46.9843Z" fill="#FEFACC"/>
<path d="M64.649 48.5434L67.7674 44.9454L69.0148 43.6055L70.2652 42.2623C70.6169 41.8844 70.6233 41.2997 70.2757 40.918C67.7991 38.1984 65.8367 36.4479 63.4539 35.268C62.0005 34.5482 60.3906 34.0408 58.4123 33.6551C63.0418 39.9607 63.7509 43.0735 64.649 48.5434Z" fill="white"/>
<path fill-rule="evenodd" clip-rule="evenodd" d="M63.4539 35.268C63.8009 32.8856 63.8974 31.6657 63.0275 30.6774L60.8809 29.5031C60.6573 29.3808 60.3953 29.3479 60.1493 29.4147C58.2435 29.9328 56.537 30.5597 54.9867 31.2978C48.3907 34.4379 44.6233 39.5896 40.3713 46.9305C41.6047 48.3999 42.6455 50.0204 43.4142 51.6452C48.3652 39.4713 55.0444 33.1588 58.4123 33.6551C51.4356 40.5518 48.9608 45.2036 45.6892 54.1266C48.8355 53.7791 50.2957 54.1994 52.5497 55.6587C53.7423 52.7734 55.8978 49.9205 58.4123 48.5174V33.6551C60.3906 34.0408 62.0005 34.5482 63.4539 35.268ZM50.5539 26.335C52.4589 27.6586 53.3428 28.5233 54.9197 31.1737C53.3869 31.4105 52.5479 31.7814 50.969 32.4793C50.8362 32.538 50.6981 32.5991 50.5539 32.6625V26.335Z" fill="white"/>
<path d="M64.649 48.5434C63.7509 43.0735 63.0418 39.9607 58.4123 33.6551V48.5174C60.3687 47.4258 62.5424 47.2119 64.649 48.5434Z" fill="#FEFACC"/>
<path d="M46.5624 71V64.1762M46.5624 71L17.5043 54.4144C17.1925 54.2364 17 53.9049 17 53.5459V47.5509M46.5624 71L75.4973 54.4147C75.8082 54.2365 76 53.9055 76 53.5471V47.5509M46.5624 64.1762L17 47.5509M46.5624 64.1762L76 47.5509M17 47.5509L24.7336 43.2084M76 47.5509L69.0148 43.6055M45.6892 59.4615V54.1266M45.6892 59.4615L25.2395 47.8384C24.9268 47.6607 24.7336 47.3287 24.7336 46.969V43.2084M45.6892 59.4615L52.5497 55.6587M45.6892 54.1266C48.8355 53.7791 50.2957 54.1994 52.5497 55.6587M45.6892 54.1266L45.3539 54.1933C44.8398 54.2955 44.3369 53.9824 44.1668 53.4866C43.9579 52.8775 43.7056 52.261 43.4142 51.6452M45.6892 54.1266C48.9608 45.2036 51.4356 40.5518 58.4123 33.6551M67.7674 44.9454L68.2664 45.2763C68.8916 45.6908 68.8546 46.6206 68.1985 46.9843L61.0941 50.9224L52.5497 55.6587M67.7674 44.9454L64.649 48.5434M67.7674 44.9454L69.0148 43.6055M64.649 48.5434C63.7509 43.0735 63.0418 39.9607 58.4123 33.6551M64.649 48.5434C62.5424 47.2119 60.3687 47.4258 58.4123 48.5174M52.5497 55.6587C53.7423 52.7734 55.8978 49.9205 58.4123 48.5174M52.5497 55.6587C53.159 47.2914 54.0862 42.5198 58.4123 33.6551M24.7336 42.5881V40.603M24.7336 42.5881C26.7982 41.1763 28.9712 40.7686 31.0951 41.073M24.7336 42.5881V43.2084M24.7336 40.603L23.9852 41.5955M24.7336 40.603C25.4212 39.6073 26.0341 38.6884 26.6032 37.8352C29.7842 33.0661 31.5937 30.3533 37.4059 27.777C37.5203 27.7262 37.6273 27.6537 37.7158 27.5653C39.605 25.6785 40.6859 24.7196 42.4461 23.9777M43.4142 51.6452C48.3652 39.4713 55.0444 33.1588 58.4123 33.6551M43.4142 51.6452C42.6455 50.0204 41.6047 48.3999 40.3713 46.9305M58.4123 33.6551C60.3906 34.0408 62.0005 34.5482 63.4539 35.268M58.4123 33.6551C60.8822 30.9815 61.682 30.804 63.0275 30.6774M58.4123 33.6551V48.5174M42.4461 23.9777C44.2243 22.5588 45.2647 21.9164 46.7925 21.1854C47.0426 21.0658 47.3319 21.0591 47.5889 21.1632L50.5539 22.3648M42.4461 23.9777C42.0426 24.3421 41.6619 24.6737 41.2961 24.9922C38.3038 27.5977 36.313 29.3313 31.0951 41.073M50.5539 22.3648C46.8118 23.9777 39.3277 29.3127 34.7125 42.2656M50.5539 22.3648V26.335M34.7125 42.2656C33.5437 41.6663 32.3277 41.2497 31.0951 41.073M34.7125 42.2656C35.889 42.8689 37.0176 43.6575 38.0669 44.5732M38.0669 44.5732C42.753 37.4515 45.5547 35.7288 50.5539 32.6625M38.0669 44.5732C38.8887 45.2903 39.6619 46.0854 40.3713 46.9305M50.5539 32.6625V26.335M50.5539 32.6625C50.6981 32.5991 50.8362 32.538 50.969 32.4793C52.5479 31.7814 53.3869 31.4105 54.9197 31.1737M50.5539 26.335C52.4589 27.6586 53.3428 28.5233 54.9197 31.1737M54.9197 31.1737L54.9867 31.2978M63.0275 30.6774L60.8809 29.5031C60.6573 29.3808 60.3953 29.3479 60.1493 29.4147C58.2435 29.9328 56.537 30.5597 54.9867 31.2978M63.0275 30.6774C63.8974 31.6657 63.8009 32.8856 63.4539 35.268M63.4539 35.268C65.8367 36.4479 67.7991 38.1984 70.2757 40.918C70.6233 41.2997 70.6169 41.8844 70.2652 42.2623L69.0148 43.6055M40.3713 46.9305C44.6233 39.5896 48.3907 34.4379 54.9867 31.2978M31.8558 46.4583L39.0862 50.7345C39.3905 50.9144 39.5772 51.2417 39.5772 51.5952V52.6215C39.5772 53.396 38.7347 53.8765 38.0681 53.4822L30.8377 49.206C30.5334 49.026 30.3467 48.6988 30.3467 48.3453V47.319C30.3467 46.5445 31.1892 46.064 31.8558 46.4583Z" stroke="#333015" stroke-width="1.25"/>
</g>
<defs>
<filter id="filter0_d_2620_19297" x="4.375" y="12.4648" width="84.25" height="75.2549" filterUnits="userSpaceOnUse" color-interpolation-filters="sRGB">
<feFlood flood-opacity="0" result="BackgroundImageFix"/>
<feColorMatrix in="SourceAlpha" type="matrix" values="0 0 0 0 0 0 0 0 0 0 0 0 0 0 0 0 0 0 127 0" result="hardAlpha"/>
<feOffset dy="4"/>
<feGaussianBlur stdDeviation="6"/>
<feComposite in2="hardAlpha" operator="out"/>
<feColorMatrix type="matrix" values="0 0 0 0 0 0 0 0 0 0 0 0 0 0 0 0 0 0 0.25 0"/>
<feBlend mode="normal" in2="BackgroundImageFix" result="effect1_dropShadow_2620_19297"/>
<feBlend mode="normal" in="SourceGraphic" in2="effect1_dropShadow_2620_19297" result="shape"/>
</filter>
</defs>
</svg>
