<svg width="92" height="93" viewBox="0 0 92 93" fill="none" xmlns="http://www.w3.org/2000/svg">
<g filter="url(#filter0_d_2620_19290)">
<path fill-rule="evenodd" clip-rule="evenodd" d="M31.8755 62.771C30.2372 63.8695 28.8115 63.9419 27.8201 63.3076L18.8318 58.2513C17.0782 56.4874 16.7494 52.4086 21.4625 47.2273C21.271 40.2219 25.0801 34.6599 30.6704 32.5653C31.5473 22.0925 39.9829 14.1923 45.2491 16.36L51.6067 20.2008C53.7837 18.9777 54.9756 18.4896 56.8682 19.2263L65.0892 24.1257C65.8006 24.4236 66.3942 24.9667 66.837 25.7304L72.4685 29.2581C74.9711 30.6344 74.124 36.3442 69.6923 40.723L54.6759 49.4779L47.9894 53.3762L44.1657 55.6055L31.8755 62.771Z" fill="white"/>
<path d="M51.8259 56.1567L57.8547 52.6291L55.224 51.1959L53.5194 52.1881L51.8259 56.1567Z" fill="#FEFACC"/>
<path d="M43.9337 65.6374L47.9894 53.3762L44.1657 55.6055L41.4126 64.094L43.9337 65.6374Z" fill="#FEFACC"/>
<path d="M57.8547 52.6291L51.8259 56.1567L53.5194 52.1881L54.6759 49.4779L47.9894 53.3762L43.9337 65.6374L45.3587 64.7962L48.976 62.6609L45.2491 76L57.8547 52.6291Z" fill="#FEFACC"/>
<path d="M45.2491 76L48.976 62.6609L45.3587 64.7962L42.6183 74.4566L45.2491 76Z" fill="#FEFACC"/>
<path d="M39.11 37.6364C33.2252 40.0292 30.2312 44.361 30.012 52.1881M39.11 37.6364C41.3052 24.2263 50.0738 18.9433 54.4567 21.9225M39.11 37.6364L30.6704 32.5653M30.012 52.1881C25.5591 57.0465 25.6278 61.9049 27.8201 63.3076M30.012 52.1881L21.4625 47.2273M27.8201 63.3076C28.8115 63.9419 30.2372 63.8695 31.8755 62.771L44.1657 55.6055M27.8201 63.3076L18.8318 58.2513C17.0782 56.4875 16.7494 52.4086 21.4625 47.2273M21.4625 47.2273C21.271 40.2219 25.0801 34.6599 30.6704 32.5653M30.6704 32.5653C31.5473 22.0925 39.9829 14.1923 45.2491 16.36L51.6067 20.2008M54.4567 21.9225C55.9827 22.9599 56.9771 24.9989 56.9771 28.0453C60.1237 24.4031 63.0774 23.2834 65.0892 24.1257M54.4567 21.9225L51.6067 20.2008M51.6067 20.2008C53.7837 18.9777 54.9756 18.4896 56.8682 19.2263L65.0892 24.1257M65.0892 24.1257C65.8006 24.4236 66.3942 24.9667 66.837 25.7304M66.837 25.7304C67.4538 26.7945 67.7778 28.2867 67.7193 30.1399C69.8543 28.858 71.4428 28.694 72.4685 29.2581M66.837 25.7304L72.4685 29.2581M72.4685 29.2581C74.9711 30.6344 74.124 36.3442 69.6923 40.723L54.6759 49.4779M54.6759 49.4779L47.9894 53.3762M54.6759 49.4779L53.5194 52.1881M57.8547 52.6291L51.8259 56.1567L53.5194 52.1881M57.8547 52.6291L45.2491 76M57.8547 52.6291L55.224 51.1959L53.5194 52.1881M45.2491 76L48.976 62.6609L45.3587 64.7962M45.2491 76L42.6183 74.4566L45.3587 64.7962M43.9337 65.6374L47.9894 53.3762M43.9337 65.6374L41.4126 64.094L44.1657 55.6055M43.9337 65.6374L45.3587 64.7962M47.9894 53.3762L44.1657 55.6055" stroke="#333015" stroke-width="1.25"/>
</g>
<defs>
<filter id="filter0_d_2620_19290" x="5.01367" y="7.37305" width="81.4678" height="85.4941" filterUnits="userSpaceOnUse" color-interpolation-filters="sRGB">
<feFlood flood-opacity="0" result="BackgroundImageFix"/>
<feColorMatrix in="SourceAlpha" type="matrix" values="0 0 0 0 0 0 0 0 0 0 0 0 0 0 0 0 0 0 127 0" result="hardAlpha"/>
<feOffset dy="4"/>
<feGaussianBlur stdDeviation="6"/>
<feComposite in2="hardAlpha" operator="out"/>
<feColorMatrix type="matrix" values="0 0 0 0 0 0 0 0 0 0 0 0 0 0 0 0 0 0 0.25 0"/>
<feBlend mode="normal" in2="BackgroundImageFix" result="effect1_dropShadow_2620_19290"/>
<feBlend mode="normal" in="SourceGraphic" in2="effect1_dropShadow_2620_19290" result="shape"/>
</filter>
</defs>
</svg>
