<svg width="268" height="241" viewBox="0 0 268 241" fill="none" xmlns="http://www.w3.org/2000/svg">
<g filter="url(#filter0_d_2620_19247)">
<path fill-rule="evenodd" clip-rule="evenodd" d="M93.8215 182.242C89.0853 185.418 84.9636 185.627 82.0975 183.793L56.1119 169.175C51.0423 164.076 50.0917 152.284 63.7174 137.304C63.1636 117.052 74.1758 100.972 90.3376 94.9162C92.8728 64.639 117.26 41.7994 132.485 48.0661L150.865 59.17C157.159 55.6339 160.605 54.223 166.076 56.3526L189.843 70.5171C191.9 71.3782 193.616 72.9485 194.896 75.1563L211.177 85.355C218.412 89.3338 215.963 105.841 203.151 118.5L159.738 143.811L140.407 155.081L129.353 161.526L93.8215 182.242Z" fill="white"/>
<path d="M151.499 163.12L168.928 152.921L161.323 148.778L156.395 151.646L151.499 163.12Z" fill="#FEFACC"/>
<path d="M128.682 190.529L140.407 155.081L129.353 161.526L121.394 186.067L128.682 190.529Z" fill="#FEFACC"/>
<path d="M168.928 152.921L151.499 163.12L156.395 151.646L159.738 143.811L140.407 155.081L128.682 190.529L132.802 188.097L143.26 181.923L132.485 220.487L168.928 152.921Z" fill="#FEFACC"/>
<path d="M132.485 220.487L143.26 181.923L132.802 188.097L124.879 216.025L132.485 220.487Z" fill="#FEFACC"/>
<path d="M114.737 109.577C97.7235 116.495 89.068 129.018 88.4342 151.646M114.737 109.577C121.083 70.8078 146.433 55.5346 159.104 64.1476M114.737 109.577L90.3376 94.9162M88.4342 151.646C75.5609 165.692 75.7592 179.738 82.0975 183.793M88.4342 151.646L63.7174 137.304M82.0975 183.793C84.9636 185.627 89.0853 185.418 93.8215 182.242L129.353 161.526M82.0975 183.793L56.1119 169.175C51.0423 164.076 50.0917 152.284 63.7174 137.304M63.7174 137.304C63.1636 117.052 74.1758 100.972 90.3376 94.9162M90.3376 94.9162C92.8728 64.639 117.26 41.7994 132.485 48.0661L150.865 59.17M159.104 64.1476C163.516 67.1465 166.391 73.0414 166.391 81.8487C175.488 71.3189 184.027 68.0819 189.843 70.5171M159.104 64.1476L150.865 59.17M150.865 59.17C157.159 55.6339 160.605 54.223 166.076 56.3526L189.843 70.5171M189.843 70.5171C191.9 71.3782 193.616 72.9485 194.896 75.1563M194.896 75.1563C196.68 78.2326 197.616 82.5465 197.447 87.9043C203.619 84.1981 208.212 83.7242 211.177 85.355M194.896 75.1563L211.177 85.355M211.177 85.355C218.412 89.3338 215.963 105.841 203.151 118.5L159.738 143.811M159.738 143.811L140.407 155.081M159.738 143.811L156.395 151.646M168.928 152.921L151.499 163.12L156.395 151.646M168.928 152.921L132.485 220.487M168.928 152.921L161.323 148.778L156.395 151.646M132.485 220.487L143.26 181.923L132.802 188.097M132.485 220.487L124.879 216.025L132.802 188.097M128.682 190.529L140.407 155.081M128.682 190.529L121.394 186.067L129.353 161.526M128.682 190.529L132.802 188.097M140.407 155.081L129.353 161.526" stroke="#333015" stroke-width="4"/>
</g>
<defs>
<filter id="filter0_d_2620_19247" x="0.662109" y="0.517578" width="266.528" height="278.243" filterUnits="userSpaceOnUse" color-interpolation-filters="sRGB">
<feFlood flood-opacity="0" result="BackgroundImageFix"/>
<feColorMatrix in="SourceAlpha" type="matrix" values="0 0 0 0 0 0 0 0 0 0 0 0 0 0 0 0 0 0 127 0" result="hardAlpha"/>
<feOffset dy="5.5"/>
<feGaussianBlur stdDeviation="25"/>
<feComposite in2="hardAlpha" operator="out"/>
<feColorMatrix type="matrix" values="0 0 0 0 0 0 0 0 0 0 0 0 0 0 0 0 0 0 0.25 0"/>
<feBlend mode="normal" in2="BackgroundImageFix" result="effect1_dropShadow_2620_19247"/>
<feBlend mode="normal" in="SourceGraphic" in2="effect1_dropShadow_2620_19247" result="shape"/>
</filter>
</defs>
</svg>
