<svg width="258" height="250" viewBox="0 0 258 250" fill="none" xmlns="http://www.w3.org/2000/svg">
<g filter="url(#filter0_d_2620_19256)">
<path d="M204.666 164.581C210.317 131.662 188.163 100.47 130.384 84.4646V91.6034C182.974 107.918 196.922 128.324 197.761 154.075C197.809 155.542 196.718 156.779 195.258 156.918C147.503 161.46 78.6389 139.865 60.8336 102.049C60.178 100.656 60.8313 99.0276 62.2275 98.3799L74.2692 92.7936V84.4646L53.2772 95.1733C60.947 145.544 136.44 169.737 204.666 164.581Z" fill="#FEFACC"/>
<path d="M170.754 151.096V142.371L157.432 135.628V143.272C157.432 144.412 158.103 145.446 159.144 145.911L170.754 151.096Z" fill="#FEFACC"/>
<path d="M117.869 140.784V132.059L104.547 125.316V132.96C104.547 134.101 105.218 135.135 106.259 135.6L117.869 140.784Z" fill="#FEFACC"/>
<path d="M95.2618 126.11L128.914 107.108C129.822 106.596 130.384 105.634 130.384 104.591V91.6034V84.4646V74.1526L95.2618 92.7936V126.11Z" fill="white"/>
<path d="M94.4544 76.3667C94.4544 77.2255 94.8313 78.0501 95.518 78.5657C99.7066 81.711 102.462 81.5221 106.635 78.5695C107.366 78.0524 107.777 77.198 107.777 76.3029V61.4934V51.779C107.777 50.8814 107.363 50.0265 106.632 49.5045C102.175 46.3171 99.3908 46.0099 95.3591 49.5238C94.7672 50.0397 94.4544 50.799 94.4544 51.5842V68.5766V76.3667Z" fill="#FEFACC"/>
<path d="M145.321 132.059V123.333L131.999 116.591V124.234C131.999 125.375 132.669 126.409 133.711 126.874L145.321 132.059Z" fill="#FEFACC"/>
<path fill-rule="evenodd" clip-rule="evenodd" d="M53.2772 95.1733C43.7025 159.973 104.931 190.936 201.752 191.542C203.349 191.552 204.666 190.257 204.666 188.66V164.581C136.44 169.737 60.947 145.544 53.2772 95.1733ZM60.8336 102.049C60.178 100.656 60.8313 99.0276 62.2275 98.3799L74.2692 92.7936V112.526C74.2692 113.568 74.8289 114.528 75.7346 115.042L95.2618 126.11L128.914 107.108C129.822 106.596 130.384 105.634 130.384 104.591V91.6034C182.974 107.918 196.922 128.324 197.761 154.075C197.809 155.542 196.718 156.779 195.258 156.918C147.503 161.46 78.6389 139.865 60.8336 102.049ZM95.2618 92.7936L74.2692 79.3086L94.4544 68.5766V76.3667C94.4544 77.2255 94.8313 78.0501 95.518 78.5657C99.7066 81.711 102.462 81.5221 106.635 78.5695C107.366 78.0524 107.777 77.198 107.777 76.3029V61.4934C108.278 61.2271 108.882 61.2428 109.368 61.5349L130.384 74.1526L95.2618 92.7936ZM170.754 151.096V142.371L157.432 135.628V143.272C157.432 144.412 158.103 145.446 159.144 145.911L170.754 151.096ZM117.869 132.059V140.784L106.259 135.6C105.218 135.135 104.547 134.101 104.547 132.96V125.316L117.869 132.059ZM145.321 132.059V123.333L131.999 116.591V124.234C131.999 125.375 132.669 126.409 133.711 126.874L145.321 132.059Z" fill="white"/>
<path d="M95.2618 126.11V92.7936L74.2692 79.3086V84.4646V92.7936V112.526C74.2692 113.568 74.8289 114.528 75.7346 115.042L95.2618 126.11Z" fill="#FEFACC"/>
<path d="M53.2772 95.1733C60.947 145.544 136.44 169.737 204.666 164.581M53.2772 95.1733L74.2692 84.4646M53.2772 95.1733C43.7025 159.973 104.931 190.936 201.752 191.542M204.666 164.581C210.317 131.662 188.163 100.47 130.384 84.4646M204.666 164.581V188.66M130.384 84.4646V74.1526M130.384 84.4646V91.6034M95.2618 126.11L128.914 107.108C129.822 106.596 130.384 105.634 130.384 104.591V91.6034M95.2618 126.11V92.7936M95.2618 126.11L75.7346 115.042C74.8289 114.528 74.2692 113.568 74.2692 112.526V92.7936M130.384 74.1526L95.2618 92.7936M130.384 74.1526V91.6034M130.384 74.1526L109.368 61.5349M95.2618 92.7936L74.2692 79.3086M74.2692 79.3086L94.4544 68.5766M74.2692 79.3086V84.4646M94.4544 68.5766V76.3667C94.4544 77.2255 94.8313 78.0501 95.518 78.5657C99.7066 81.711 102.462 81.5221 106.635 78.5695C107.366 78.0524 107.777 77.198 107.777 76.3029V61.4934M94.4544 68.5766V51.5842M107.777 61.4934V61.4934C108.278 61.2271 108.882 61.2428 109.368 61.5349V61.5349M107.777 61.4934V51.779M107.777 61.4934C108.278 61.2271 108.882 61.2428 109.368 61.5349M74.2692 84.4646V92.7936M130.384 91.6034C182.974 107.918 196.922 128.324 197.761 154.075C197.809 155.542 196.718 156.779 195.258 156.918C147.503 161.46 78.6389 139.865 60.8336 102.049C60.178 100.656 60.8313 99.0276 62.2275 98.3799L74.2692 92.7936M170.754 151.096V142.371M170.754 151.096L159.144 145.911C158.103 145.446 157.432 144.412 157.432 143.272V135.628M170.754 151.096L179.838 147.46C180.935 147.021 181.654 145.958 181.654 144.776V137.611M170.754 142.371L157.432 135.628M170.754 142.371L181.654 137.611M157.432 135.628L167.084 131.413C167.875 131.068 168.778 131.094 169.547 131.483L181.654 137.611M145.321 132.059V123.333M145.321 132.059L133.711 126.874C132.669 126.409 131.999 125.375 131.999 124.234V116.591M145.321 132.059L154.404 128.423C155.502 127.984 156.221 126.921 156.221 125.739V118.574M145.321 123.333L131.999 116.591M145.321 123.333L156.221 118.574M131.999 116.591L141.651 112.376C142.441 112.031 143.344 112.057 144.114 112.446L156.221 118.574M117.869 140.784V132.059M117.869 140.784L106.259 135.6C105.218 135.135 104.547 134.101 104.547 132.96V125.316M117.869 140.784L126.952 137.149C128.05 136.71 128.769 135.647 128.769 134.465V127.299M117.869 132.059L104.547 125.316M117.869 132.059L128.769 127.299M104.547 125.316L114.199 121.102C114.989 120.757 115.892 120.782 116.662 121.172L128.769 127.299M101.721 101.122V110.641M109.795 97.9493V106.675M115.447 93.9831V103.502M121.906 89.6203V99.5358M87.9951 100.329V110.641M81.1321 96.3628V106.675M201.752 191.542C203.349 191.552 204.666 190.257 204.666 188.66M201.752 191.542V191.542C203.349 191.552 204.666 190.257 204.666 188.66V188.66M94.4544 51.5842C94.4544 50.799 94.7672 50.0397 95.3591 49.5238M94.4544 51.5842V51.5842C94.4544 50.799 94.7672 50.0397 95.3591 49.5238V49.5238M95.3591 49.5238C99.3908 46.0099 102.175 46.3171 106.632 49.5045M106.632 49.5045C107.363 50.0265 107.777 50.8814 107.777 51.779M106.632 49.5045V49.5045C107.363 50.0265 107.777 50.8814 107.777 51.779V51.779" stroke="#333015" stroke-width="4" stroke-linecap="round"/>
</g>
<defs>
<filter id="filter0_d_2620_19256" x="0.294922" y="0.5" width="257.225" height="248.542" filterUnits="userSpaceOnUse" color-interpolation-filters="sRGB">
<feFlood flood-opacity="0" result="BackgroundImageFix"/>
<feColorMatrix in="SourceAlpha" type="matrix" values="0 0 0 0 0 0 0 0 0 0 0 0 0 0 0 0 0 0 127 0" result="hardAlpha"/>
<feOffset dy="5.5"/>
<feGaussianBlur stdDeviation="25"/>
<feComposite in2="hardAlpha" operator="out"/>
<feColorMatrix type="matrix" values="0 0 0 0 0 0 0 0 0 0 0 0 0 0 0 0 0 0 0.25 0"/>
<feBlend mode="normal" in2="BackgroundImageFix" result="effect1_dropShadow_2620_19256"/>
<feBlend mode="normal" in="SourceGraphic" in2="effect1_dropShadow_2620_19256" result="shape"/>
</filter>
</defs>
</svg>
