<svg width="92" height="92" viewBox="0 0 92 92" fill="none" xmlns="http://www.w3.org/2000/svg">
<g filter="url(#filter0_d_2620_19258)">
<path d="M72.7048 61.6711C74.6596 50.2844 66.9965 39.4952 47.0108 33.9589V36.4282C65.2017 42.0714 70.0261 49.1298 70.3165 58.0371C70.333 58.5443 69.9557 58.9723 69.4505 59.0204C52.9322 60.5914 29.1123 53.1217 22.9535 40.0413C22.7267 39.5596 22.9527 38.9962 23.4357 38.7722L27.6008 36.8399V33.9589L20.3398 37.663C22.9927 55.0861 49.1054 63.4546 72.7048 61.6711Z" fill="#FEFACC"/>
<path d="M60.9748 57.0066V53.9884L56.3667 51.6562V54.3001C56.3667 54.6947 56.5987 55.0524 56.959 55.2132L60.9748 57.0066Z" fill="#FEFACC"/>
<path d="M42.682 53.4398V50.4216L38.0739 48.0894V50.7333C38.0739 51.1279 38.3058 51.4856 38.6661 51.6464L42.682 53.4398Z" fill="#FEFACC"/>
<path d="M34.8621 48.3638L46.5025 41.7914C46.8166 41.614 47.0108 41.2813 47.0108 40.9206V36.4282V33.9589V30.392L34.8621 36.8399V48.3638Z" fill="white"/>
<path d="M34.5829 31.1579C34.5829 31.4549 34.7132 31.7402 34.9508 31.9185C36.3996 33.0065 37.3527 32.9411 38.7961 31.9198C39.0488 31.741 39.191 31.4454 39.191 31.1358V26.0132V22.653C39.191 22.3426 39.0478 22.0469 38.7952 21.8663C37.2532 20.7638 36.2904 20.6575 34.8958 21.873C34.6911 22.0514 34.5829 22.3141 34.5829 22.5857V28.4633V31.1579Z" fill="#FEFACC"/>
<path d="M52.1775 50.4216V47.4035L47.5694 45.0713V47.7152C47.5694 48.1097 47.8014 48.4674 48.1616 48.6283L52.1775 50.4216Z" fill="#FEFACC"/>
<path fill-rule="evenodd" clip-rule="evenodd" d="M20.3398 37.663C17.0279 60.077 38.2066 70.7871 71.6969 70.9969C72.2491 71.0003 72.7048 70.5523 72.7048 70V61.6711C49.1054 63.4546 22.9927 55.0861 20.3398 37.663ZM22.9535 40.0413C22.7267 39.5596 22.9527 38.9962 23.4357 38.7722L27.6008 36.8399V43.6655C27.6008 44.0256 27.7945 44.3579 28.1077 44.5354L34.8621 48.3638L46.5025 41.7914C46.8166 41.614 47.0108 41.2813 47.0108 40.9206V36.4282C65.2017 42.0714 70.0261 49.1298 70.3165 58.0371C70.333 58.5443 69.9557 58.9723 69.4505 59.0204C52.9322 60.5914 29.1123 53.1217 22.9535 40.0413ZM34.8621 36.8399L27.6008 32.1755L34.5829 28.4633V31.1579C34.5829 31.4549 34.7132 31.7402 34.9508 31.9185C36.3996 33.0065 37.3527 32.9411 38.7961 31.9198C39.0488 31.741 39.191 31.4454 39.191 31.1358V26.0132C39.3643 25.9211 39.5732 25.9266 39.7414 26.0276L47.0108 30.392L34.8621 36.8399ZM60.9748 57.0066V53.9884L56.3667 51.6562V54.3001C56.3667 54.6947 56.5987 55.0524 56.959 55.2132L60.9748 57.0066ZM42.682 50.4216V53.4398L38.6661 51.6464C38.3058 51.4856 38.0739 51.1279 38.0739 50.7333V48.0894L42.682 50.4216ZM52.1775 50.4216V47.4035L47.5694 45.0713V47.7152C47.5694 48.1097 47.8014 48.4674 48.1616 48.6283L52.1775 50.4216Z" fill="white"/>
<path d="M34.8621 48.3638V36.8399L27.6008 32.1755V33.9589V36.8399V43.6655C27.6008 44.0256 27.7945 44.3579 28.1077 44.5354L34.8621 48.3638Z" fill="#FEFACC"/>
<path d="M20.3398 37.663C22.9927 55.0861 49.1054 63.4546 72.7048 61.6711M20.3398 37.663L27.6008 33.9589M20.3398 37.663C17.0279 60.077 38.2066 70.7871 71.6969 70.9969M72.7048 61.6711C74.6596 50.2844 66.9965 39.4952 47.0108 33.9589M72.7048 61.6711V70M47.0108 33.9589V30.392M47.0108 33.9589V36.4282M34.8621 48.3638L46.5025 41.7914C46.8166 41.614 47.0108 41.2813 47.0108 40.9206V36.4282M34.8621 48.3638V36.8399M34.8621 48.3638L28.1077 44.5354C27.7945 44.3579 27.6008 44.0256 27.6008 43.6655V36.8399M47.0108 30.392L34.8621 36.8399M47.0108 30.392V36.4282M47.0108 30.392L39.7414 26.0276M34.8621 36.8399L27.6008 32.1755M27.6008 32.1755L34.5829 28.4633M27.6008 32.1755V33.9589M34.5829 28.4633V31.1579C34.5829 31.4549 34.7132 31.7402 34.9508 31.9185C36.3996 33.0065 37.3527 32.9411 38.7961 31.9198C39.0488 31.741 39.191 31.4454 39.191 31.1358V26.0132M34.5829 28.4633V22.5857M39.191 26.0132V26.0132C39.3643 25.9211 39.5732 25.9266 39.7414 26.0276V26.0276M39.191 26.0132V22.653M39.191 26.0132C39.3643 25.9211 39.5732 25.9266 39.7414 26.0276M27.6008 33.9589V36.8399M47.0108 36.4282C65.2017 42.0714 70.0261 49.1298 70.3165 58.0371C70.333 58.5443 69.9557 58.9723 69.4505 59.0204C52.9322 60.5914 29.1123 53.1217 22.9535 40.0413C22.7267 39.5596 22.9527 38.9962 23.4357 38.7722L27.6008 36.8399M60.9748 57.0066V53.9884M60.9748 57.0066L56.959 55.2132C56.5987 55.0524 56.3667 54.6947 56.3667 54.3001V51.6562M60.9748 57.0066L64.1167 55.749C64.4963 55.5971 64.7451 55.2295 64.7451 54.8206V52.3422M60.9748 53.9884L56.3667 51.6562M60.9748 53.9884L64.7451 52.3422M56.3667 51.6562L59.7054 50.1984C59.9787 50.079 60.2911 50.0879 60.5572 50.2226L64.7451 52.3422M52.1775 50.4216V47.4035M52.1775 50.4216L48.1616 48.6283C47.8014 48.4674 47.5694 48.1097 47.5694 47.7152V45.0713M52.1775 50.4216L55.3194 49.1641C55.6989 49.0122 55.9478 48.6445 55.9478 48.2357V45.7572M52.1775 47.4035L47.5694 45.0713M52.1775 47.4035L55.9478 45.7572M47.5694 45.0713L50.9081 43.6134C51.1814 43.4941 51.4937 43.503 51.7598 43.6376L55.9478 45.7572M42.682 53.4398V50.4216M42.682 53.4398L38.6661 51.6464C38.3058 51.4856 38.0739 51.1279 38.0739 50.7333V48.0894M42.682 53.4398L45.8239 52.1822C46.2034 52.0303 46.4523 51.6627 46.4523 51.2538V48.7754M42.682 50.4216L38.0739 48.0894M42.682 50.4216L46.4523 48.7754M38.0739 48.0894L41.4126 46.6316C41.6859 46.5122 41.9982 46.5211 42.2643 46.6558L46.4523 48.7754M37.0964 39.7208V43.0133M39.8892 38.6232V41.6414M41.8441 37.2514V40.5439M44.0784 35.7423V39.172M32.3486 39.4464V43.0133M29.9747 38.0745V41.6414M71.6969 70.9969C72.2491 71.0003 72.7048 70.5523 72.7048 70M71.6969 70.9969V70.9969C72.2491 71.0003 72.7048 70.5523 72.7048 70V70M34.5829 22.5857C34.5829 22.3141 34.6911 22.0514 34.8958 21.873M34.5829 22.5857V22.5857C34.5829 22.3141 34.6911 22.0514 34.8958 21.873V21.873M34.8958 21.873C36.2904 20.6575 37.2532 20.7638 38.7952 21.8663M38.7952 21.8663C39.0478 22.0469 39.191 22.3426 39.191 22.653M38.7952 21.8663V21.8663C39.0478 22.0469 39.191 22.3426 39.191 22.653V22.653" stroke="#333015" stroke-width="1.25" stroke-linecap="round"/>
</g>
<defs>
<filter id="filter0_d_2620_19258" x="7.375" y="12.375" width="78.25" height="75.2471" filterUnits="userSpaceOnUse" color-interpolation-filters="sRGB">
<feFlood flood-opacity="0" result="BackgroundImageFix"/>
<feColorMatrix in="SourceAlpha" type="matrix" values="0 0 0 0 0 0 0 0 0 0 0 0 0 0 0 0 0 0 127 0" result="hardAlpha"/>
<feOffset dy="4"/>
<feGaussianBlur stdDeviation="6"/>
<feComposite in2="hardAlpha" operator="out"/>
<feColorMatrix type="matrix" values="0 0 0 0 0 0 0 0 0 0 0 0 0 0 0 0 0 0 0.25 0"/>
<feBlend mode="normal" in2="BackgroundImageFix" result="effect1_dropShadow_2620_19258"/>
<feBlend mode="normal" in="SourceGraphic" in2="effect1_dropShadow_2620_19258" result="shape"/>
</filter>
</defs>
</svg>
