<svg width="92" height="93" viewBox="0 0 92 93" fill="none" xmlns="http://www.w3.org/2000/svg">
<g filter="url(#filter0_d_2620_16535)">
<path d="M43.1248 72.2986C43.1248 73.5184 46.7718 73.4075 46.7718 72.2986V70.857V59.5952C46.3074 59.6187 45.8416 59.6336 45.3762 59.6396C45.0161 59.6453 44.6725 59.6447 44.3035 59.6377C43.9099 59.6312 43.5168 59.6182 43.1248 59.5986V70.857V72.2986Z" fill="white"/>
<path d="M60.5865 65.2014C60.5865 66.4212 64.2335 66.3103 64.2335 65.2014V63.7598V53.085C64.0781 53.2568 63.9151 53.4258 63.745 53.5919C62.6643 54.6757 61.8762 55.1932 60.5865 55.9215V63.7598V65.2014Z" fill="white"/>
<path d="M27.0998 65.2014C27.0998 66.4212 30.7469 66.3103 30.7469 65.2014V63.7598V56.053C29.3361 55.1408 28.0997 54.0424 27.0998 52.7443V63.7598V65.2014Z" fill="white"/>
<path d="M25.7736 67.5302C26.5472 69.4154 31.0784 69.3045 32.0731 67.5302V65.2014C32.0731 64.6469 31.41 64.0924 30.7469 63.7598V65.2014C30.7469 66.3103 27.0998 66.4212 27.0998 65.2014V63.7598C26.3262 64.0924 25.7736 64.6469 25.7736 65.2014V67.5302Z" fill="#D2EDF7"/>
<path d="M41.7986 74.6274C42.5722 76.5126 47.1034 76.4017 48.098 74.6274V72.2986C48.098 71.7441 47.4349 71.1897 46.7718 70.857V72.2986C46.7718 73.4075 43.1248 73.5184 43.1248 72.2986V70.857C42.3512 71.1897 41.7986 71.7441 41.7986 72.2986V74.6274Z" fill="#D2EDF7"/>
<path d="M59.2603 67.5302C60.0339 69.4154 64.5651 69.3045 65.5597 67.5302V65.2014C65.5597 64.6469 64.8966 64.0924 64.2335 63.7598V65.2014C64.2335 66.3103 60.5865 66.4212 60.5865 65.2014V63.7598C59.8128 64.0924 59.2603 64.6469 59.2603 65.2014V67.5302Z" fill="#D2EDF7"/>
<path d="M25 48.6782C25.4711 50.2071 26.1869 51.559 27.0998 52.7443C28.0997 54.0424 29.3361 55.1408 30.7469 56.053C34.1493 58.2531 38.566 59.3709 43.1248 59.5986C43.5666 59.618 43.9469 59.6309 44.3035 59.6377C44.6608 59.6436 45.0185 59.6442 45.3762 59.6396C45.7967 59.633 46.2397 59.618 46.7718 59.5952C53.5945 59.2494 60.2178 57.0356 63.745 53.5919C63.9009 53.4355 64.063 53.2673 64.2335 53.085C65.4241 51.7691 66.1728 50.2894 66.3333 48.6782V45.0187C62.2442 59.5952 29.0891 59.5952 25 45.0187V48.6782Z" fill="#D2EDF7"/>
<path d="M25 42.9117V45.0187C29.0891 59.5952 62.2442 59.5952 66.3333 45.0187V42.9117C65.7854 40.0708 63.8694 37.7553 61.139 36.0033V36.8126C60.8075 37.367 59.5918 37.367 59.1497 36.8126V34.8927C52.3092 31.5697 42.0592 31.0819 34.5045 33.8498V36.4141C37.5122 34.9336 41.4092 34.3736 45.6666 34.3736C55.1883 34.3736 62.9072 38.5087 62.9072 44.0207C62.9072 49.5328 55.1883 53.6678 45.6666 53.6678C41.4092 53.6678 37.5122 53.1079 34.5045 51.6273V52.1159C34.2834 52.7813 32.7362 52.7813 32.5152 52.1159V50.4746C29.9645 48.7345 28.4259 46.4816 28.4259 44.0207C28.4259 41.5598 29.9645 39.3069 32.5152 37.5669V34.6859C28.7844 36.4749 25.9731 39.1957 25 42.9117Z" fill="white"/>
<path d="M45.6666 53.6678C55.1883 53.6678 62.9072 49.5328 62.9072 44.0207C62.9072 38.5087 55.1883 34.3736 45.6666 34.3736C41.4092 34.3736 37.5122 34.9336 34.5045 36.4141V51.6273C37.5122 53.1079 41.4092 53.6678 45.6666 53.6678Z" fill="#D2EDF7"/>
<path d="M28.4259 44.0207C28.4259 46.4816 29.9645 48.7345 32.5152 50.4746V37.5669C29.9645 39.3069 28.4259 41.5598 28.4259 44.0207Z" fill="#D2EDF7"/>
<path fill-rule="evenodd" clip-rule="evenodd" d="M63.745 53.5919C63.9009 53.4355 64.063 53.2673 64.2335 53.085C64.0781 53.2568 63.9151 53.4258 63.745 53.5919Z" fill="white"/>
<path d="M32.5152 52.1159C32.7362 52.7813 34.2834 52.7813 34.5045 52.1159V51.6273V36.4141V33.8498V33.4857C34.5465 32.5158 34.8846 32.0884 35.9412 31.4896L59.1497 18.135V34.8927V36.8126C59.5918 37.367 60.8075 37.367 61.139 36.8126V36.0033V17.6279C61.139 16.408 60.0339 15.41 58.2656 16.408L34.5045 30.048C32.8718 30.9897 32.5152 31.8223 32.5152 33.4857V34.6859V37.5669V50.4746V52.1159Z" fill="white"/>
<path d="M30.7469 63.7598V65.2014C30.7469 66.3103 27.0998 66.4212 27.0998 65.2014V63.7598M30.7469 63.7598V56.053M30.7469 63.7598C31.41 64.0924 32.0731 64.6469 32.0731 65.2014V67.5302C31.0784 69.3045 26.5472 69.4154 25.7736 67.5302V65.2014C25.7736 64.6469 26.3262 64.0924 27.0998 63.7598M30.7469 56.053C29.3361 55.1408 28.0997 54.0424 27.0998 52.7443M30.7469 56.053C34.1493 58.2531 38.566 59.3709 43.1248 59.5986M27.0998 63.7598V52.7443M27.0998 52.7443C26.1869 51.559 25.4711 50.2071 25 48.6782V45.0187M46.7718 70.857V72.2986C46.7718 73.4075 43.1248 73.5184 43.1248 72.2986V70.857M46.7718 70.857V59.5952M46.7718 70.857C47.4349 71.1897 48.098 71.7441 48.098 72.2986V74.6274C47.1034 76.4017 42.5722 76.5126 41.7986 74.6274V72.2986C41.7986 71.7441 42.3512 71.1897 43.1248 70.857M46.7718 59.5952C46.3074 59.6187 45.8416 59.6336 45.3762 59.6396M46.7718 59.5952C46.2397 59.618 45.7967 59.633 45.3762 59.6396M46.7718 59.5952C53.5945 59.2494 60.2178 57.0356 63.745 53.5919M43.1248 70.857V59.5986M43.1248 59.5986C43.5168 59.6182 43.9099 59.6312 44.3035 59.6377M43.1248 59.5986C43.5666 59.618 43.9469 59.6309 44.3035 59.6377M64.2335 63.7598V65.2014C64.2335 66.3103 60.5865 66.4212 60.5865 65.2014V63.7598M64.2335 63.7598V53.085M64.2335 63.7598C64.8966 64.0924 65.5597 64.6469 65.5597 65.2014V67.5302C64.5651 69.3045 60.0339 69.4154 59.2603 67.5302V65.2014C59.2603 64.6469 59.8128 64.0924 60.5865 63.7598M64.2335 53.085C65.4241 51.7691 66.1728 50.2894 66.3333 48.6782V45.0187M64.2335 53.085C64.0781 53.2568 63.9151 53.4258 63.745 53.5919M64.2335 53.085C64.063 53.2673 63.9009 53.4355 63.745 53.5919M60.5865 63.7598V55.9215C61.8762 55.1932 62.6643 54.6757 63.745 53.5919M25 45.0187V42.9117C25.9731 39.1957 28.7844 36.4749 32.5152 34.6859M25 45.0187C29.0891 59.5952 62.2442 59.5952 66.3333 45.0187M66.3333 45.0187V42.9117C65.7854 40.0708 63.8694 37.7553 61.139 36.0033M61.139 36.0033V17.6279C61.139 16.408 60.0339 15.41 58.2656 16.408L34.5045 30.048C32.8718 30.9897 32.5152 31.8223 32.5152 33.4857V34.6859M61.139 36.0033V36.8126C60.8075 37.367 59.5918 37.367 59.1497 36.8126V34.8927M59.1497 34.8927V18.135L35.9412 31.4896C34.8846 32.0884 34.5465 32.5158 34.5045 33.4857V33.8498M59.1497 34.8927C52.3092 31.5697 42.0592 31.0819 34.5045 33.8498M34.5045 33.8498V36.4141M32.5152 34.6859V37.5669M34.5045 51.6273C37.5122 53.1079 41.4092 53.6678 45.6666 53.6678C55.1883 53.6678 62.9072 49.5328 62.9072 44.0207C62.9072 38.5087 55.1883 34.3736 45.6666 34.3736C41.4092 34.3736 37.5122 34.9336 34.5045 36.4141M34.5045 51.6273V52.1159C34.2834 52.7813 32.7362 52.7813 32.5152 52.1159V50.4746M34.5045 51.6273V36.4141M32.5152 50.4746C29.9645 48.7345 28.4259 46.4816 28.4259 44.0207C28.4259 41.5598 29.9645 39.3069 32.5152 37.5669M32.5152 50.4746V37.5669M45.3762 59.6396C45.0161 59.6453 44.6725 59.6447 44.3035 59.6377M45.3762 59.6396C45.0185 59.6442 44.6608 59.6436 44.3035 59.6377M45.3762 59.6396C52.6781 59.5452 59.9776 57.2701 63.745 53.5919" stroke="#18282E" stroke-width="1.25"/>
</g>
<defs>
<filter id="filter0_d_2620_16535" x="12.375" y="7.375" width="66.583" height="85.25" filterUnits="userSpaceOnUse" color-interpolation-filters="sRGB">
<feFlood flood-opacity="0" result="BackgroundImageFix"/>
<feColorMatrix in="SourceAlpha" type="matrix" values="0 0 0 0 0 0 0 0 0 0 0 0 0 0 0 0 0 0 127 0" result="hardAlpha"/>
<feOffset dy="4"/>
<feGaussianBlur stdDeviation="6"/>
<feComposite in2="hardAlpha" operator="out"/>
<feColorMatrix type="matrix" values="0 0 0 0 0 0 0 0 0 0 0 0 0 0 0 0 0 0 0.25 0"/>
<feBlend mode="normal" in2="BackgroundImageFix" result="effect1_dropShadow_2620_16535"/>
<feBlend mode="normal" in="SourceGraphic" in2="effect1_dropShadow_2620_16535" result="shape"/>
</filter>
</defs>
</svg>
