<svg width="227" height="243" viewBox="0 0 227 243" fill="none" xmlns="http://www.w3.org/2000/svg">
<g filter="url(#filter0_d_2620_16515)">
<path d="M106.04 212.105C106.04 215.682 116.737 215.357 116.737 212.105V207.876V174.845C115.375 174.914 114.008 174.958 112.644 174.976C111.587 174.992 110.579 174.991 109.497 174.97C108.343 174.951 107.19 174.913 106.04 174.855V207.876V212.105Z" fill="white"/>
<path d="M157.255 191.288C157.255 194.866 167.952 194.541 167.952 191.288V187.06V155.751C167.496 156.255 167.018 156.751 166.519 157.238C163.35 160.417 161.038 161.934 157.255 164.071V187.06V191.288Z" fill="white"/>
<path d="M59.0387 191.288C59.0387 194.866 69.7355 194.541 69.7355 191.288V187.06V164.456C65.5976 161.781 61.9712 158.559 59.0387 154.752V187.06V191.288Z" fill="white"/>
<path d="M55.1489 198.119C57.4179 203.648 70.708 203.323 73.6253 198.119V191.288C73.6253 189.662 71.6804 188.036 69.7355 187.06V191.288C69.7355 194.541 59.0387 194.866 59.0387 191.288V187.06C56.7696 188.036 55.1489 189.662 55.1489 191.288V198.119Z" fill="#D2EDF7"/>
<path d="M102.15 218.935C104.419 224.464 117.709 224.139 120.627 218.935V212.105C120.627 210.478 118.682 208.852 116.737 207.876V212.105C116.737 215.357 106.04 215.682 106.04 212.105V207.876C103.771 208.852 102.15 210.478 102.15 212.105V218.935Z" fill="#D2EDF7"/>
<path d="M153.365 198.119C155.634 203.648 168.924 203.323 171.842 198.119V191.288C171.842 189.662 169.897 188.036 167.952 187.06V191.288C167.952 194.541 157.255 194.866 157.255 191.288V187.06C154.986 188.036 153.365 189.662 153.365 191.288V198.119Z" fill="#D2EDF7"/>
<path d="M52.8799 142.826C54.2617 147.31 56.3609 151.275 59.0387 154.752C61.9712 158.559 65.5976 161.781 69.7355 164.456C79.7148 170.909 92.6689 174.188 106.04 174.855C107.336 174.912 108.451 174.95 109.497 174.97C110.545 174.988 111.594 174.989 112.644 174.976C113.877 174.956 115.176 174.912 116.737 174.845C136.748 173.831 156.174 167.338 166.519 157.238C166.977 156.779 167.452 156.286 167.952 155.751C171.444 151.892 173.64 147.552 174.111 142.826V132.092C162.117 174.845 64.8733 174.845 52.8799 132.092V142.826Z" fill="#D2EDF7"/>
<path d="M52.8799 125.913V132.092C64.8733 174.845 162.117 174.845 174.111 132.092V125.913C172.504 117.58 166.884 110.789 158.876 105.65V108.024C157.903 109.65 154.338 109.65 153.041 108.024V102.393C132.978 92.6466 102.915 91.2158 80.7565 99.3341V106.855C89.5782 102.513 101.008 100.87 113.495 100.87C141.422 100.87 164.062 112.999 164.062 129.165C164.062 145.332 141.422 157.46 113.495 157.46C101.008 157.46 89.5782 155.818 80.7565 151.476V152.909C80.1082 154.86 75.5702 154.86 74.9219 152.909V148.095C67.4407 142.991 62.9281 136.383 62.9281 129.165C62.9281 121.948 67.4407 115.34 74.9219 110.236V101.786C63.9795 107.033 55.7341 115.014 52.8799 125.913Z" fill="white"/>
<path d="M113.495 157.46C141.422 157.46 164.062 145.332 164.062 129.165C164.062 112.999 141.422 100.87 113.495 100.87C101.008 100.87 89.5782 102.513 80.7565 106.855V151.476C89.5782 155.818 101.008 157.46 113.495 157.46Z" fill="#D2EDF7"/>
<path d="M62.9281 129.165C62.9281 136.383 67.4407 142.991 74.9219 148.095V110.236C67.4407 115.34 62.9281 121.948 62.9281 129.165Z" fill="#D2EDF7"/>
<path fill-rule="evenodd" clip-rule="evenodd" d="M166.519 157.238C166.977 156.779 167.452 156.286 167.952 155.751C167.496 156.255 167.018 156.751 166.519 157.238Z" fill="white"/>
<path d="M74.9219 152.909C75.5702 154.86 80.1082 154.86 80.7565 152.909V151.476V106.855V99.3341V98.2662C80.8799 95.4213 81.8715 94.1678 84.9704 92.4116L153.041 53.2426V102.393V108.024C154.338 109.65 157.903 109.65 158.876 108.024V105.65V51.755C158.876 48.1771 155.634 45.2499 150.448 48.1772L80.7565 88.1833C75.9679 90.9454 74.9219 93.3874 74.9219 98.2662V101.786V110.236V148.095V152.909Z" fill="white"/>
<path d="M69.7355 187.06V191.288C69.7355 194.541 59.0387 194.866 59.0387 191.288V187.06M69.7355 187.06V164.456M69.7355 187.06C71.6804 188.036 73.6253 189.662 73.6253 191.288V198.119C70.708 203.323 57.4179 203.648 55.1489 198.119V191.288C55.1489 189.662 56.7696 188.036 59.0387 187.06M69.7355 164.456C65.5976 161.781 61.9712 158.559 59.0387 154.752M69.7355 164.456C79.7148 170.909 92.6689 174.188 106.04 174.855M59.0387 187.06V154.752M59.0387 154.752C56.3609 151.275 54.2617 147.31 52.8799 142.826V132.092M116.737 207.876V212.105C116.737 215.357 106.04 215.682 106.04 212.105V207.876M116.737 207.876V174.845M116.737 207.876C118.682 208.852 120.627 210.478 120.627 212.105V218.935C117.709 224.139 104.419 224.464 102.15 218.935V212.105C102.15 210.478 103.771 208.852 106.04 207.876M116.737 174.845C115.375 174.914 114.008 174.958 112.644 174.976M116.737 174.845C115.176 174.912 113.877 174.956 112.644 174.976M116.737 174.845C136.748 173.831 156.174 167.338 166.519 157.238M106.04 207.876V174.855M106.04 174.855C107.19 174.913 108.343 174.951 109.497 174.97M106.04 174.855C107.336 174.912 108.451 174.95 109.497 174.97M167.952 187.06V191.288C167.952 194.541 157.255 194.866 157.255 191.288V187.06M167.952 187.06V155.751M167.952 187.06C169.897 188.036 171.842 189.662 171.842 191.288V198.119C168.924 203.323 155.634 203.648 153.365 198.119V191.288C153.365 189.662 154.986 188.036 157.255 187.06M167.952 155.751C171.444 151.892 173.64 147.552 174.111 142.826V132.092M167.952 155.751C167.496 156.255 167.018 156.751 166.519 157.238M167.952 155.751C167.452 156.286 166.977 156.779 166.519 157.238M157.255 187.06V164.071C161.038 161.934 163.35 160.417 166.519 157.238M52.8799 132.092V125.913C55.7341 115.014 63.9795 107.033 74.9219 101.786M52.8799 132.092C64.8733 174.845 162.117 174.845 174.111 132.092M174.111 132.092V125.913C172.504 117.58 166.884 110.789 158.876 105.65M158.876 105.65V51.755C158.876 48.1771 155.634 45.2499 150.448 48.1772L80.7565 88.1833C75.9679 90.9454 74.9219 93.3874 74.9219 98.2662V101.786M158.876 105.65V108.024C157.903 109.65 154.338 109.65 153.041 108.024V102.393M153.041 102.393V53.2426L84.9704 92.4116C81.8715 94.1678 80.8799 95.4213 80.7565 98.2662V99.3341M153.041 102.393C132.978 92.6466 102.915 91.2158 80.7565 99.3341M80.7565 99.3341V106.855M74.9219 101.786V110.236M80.7565 151.476C89.5782 155.818 101.008 157.46 113.495 157.46C141.422 157.46 164.062 145.332 164.062 129.165C164.062 112.999 141.422 100.87 113.495 100.87C101.008 100.87 89.5782 102.513 80.7565 106.855M80.7565 151.476V152.909C80.1082 154.86 75.5702 154.86 74.9219 152.909V148.095M80.7565 151.476V106.855M74.9219 148.095C67.4407 142.991 62.9281 136.383 62.9281 129.165C62.9281 121.948 67.4407 115.34 74.9219 110.236M74.9219 148.095V110.236M112.644 174.976C111.587 174.992 110.579 174.991 109.497 174.97M112.644 174.976C111.594 174.989 110.545 174.988 109.497 174.97M112.644 174.976C134.06 174.699 155.47 168.026 166.519 157.238" stroke="#18282E" stroke-width="4"/>
</g>
<defs>
<filter id="filter0_d_2620_16515" x="0.879883" y="0.479492" width="225.23" height="279.981" filterUnits="userSpaceOnUse" color-interpolation-filters="sRGB">
<feFlood flood-opacity="0" result="BackgroundImageFix"/>
<feColorMatrix in="SourceAlpha" type="matrix" values="0 0 0 0 0 0 0 0 0 0 0 0 0 0 0 0 0 0 127 0" result="hardAlpha"/>
<feOffset dy="5.5"/>
<feGaussianBlur stdDeviation="25"/>
<feComposite in2="hardAlpha" operator="out"/>
<feColorMatrix type="matrix" values="0 0 0 0 0 0 0 0 0 0 0 0 0 0 0 0 0 0 0.25 0"/>
<feBlend mode="normal" in2="BackgroundImageFix" result="effect1_dropShadow_2620_16515"/>
<feBlend mode="normal" in="SourceGraphic" in2="effect1_dropShadow_2620_16515" result="shape"/>
</filter>
</defs>
</svg>
