<svg width="135" height="168" viewBox="0 0 135 168" fill="none" xmlns="http://www.w3.org/2000/svg">
<g filter="url(#filter0_d_2620_16512)">
<path d="M63.1631 125.53C63.1631 127.662 69.5381 127.468 69.5381 125.53V123.01V103.324C68.7263 103.365 67.912 103.392 67.0986 103.402C66.4691 103.412 65.8685 103.411 65.2235 103.399C64.5355 103.387 63.8484 103.365 63.1631 103.33V123.01V125.53Z" fill="white"/>
<path d="M93.6857 113.124C93.6857 115.256 100.061 115.062 100.061 113.124V110.604V91.9448C99.789 92.2451 99.5042 92.5405 99.2067 92.8308C97.3177 94.7252 95.9402 95.6299 93.6857 96.9029V110.604V113.124Z" fill="white"/>
<path d="M35.1519 113.124C35.1519 115.256 41.5268 115.062 41.5268 113.124V110.604V97.1328C39.0608 95.5382 36.8996 93.6183 35.1519 91.3492V110.604V113.124Z" fill="white"/>
<path d="M32.8337 117.195C34.186 120.49 42.1064 120.296 43.845 117.195V113.124C43.845 112.155 42.6859 111.185 41.5268 110.604V113.124C41.5268 115.062 35.1519 115.256 35.1519 113.124V110.604C33.7996 111.185 32.8337 112.155 32.8337 113.124V117.195Z" fill="#D2EDF7"/>
<path d="M60.8449 129.6C62.1972 132.896 70.1176 132.702 71.8562 129.6V125.53C71.8562 124.56 70.6972 123.591 69.5381 123.01V125.53C69.5381 127.468 63.1631 127.662 63.1631 125.53V123.01C61.8108 123.591 60.8449 124.56 60.8449 125.53V129.6Z" fill="#D2EDF7"/>
<path d="M91.3675 117.195C92.7198 120.49 100.64 120.296 102.379 117.195V113.124C102.379 112.155 101.22 111.185 100.061 110.604V113.124C100.061 115.062 93.6857 115.256 93.6857 113.124V110.604C92.3334 111.185 91.3675 112.155 91.3675 113.124V117.195Z" fill="#D2EDF7"/>
<path d="M31.4814 84.2418C32.305 86.9142 33.556 89.2773 35.1519 91.3492C36.8996 93.6183 39.0608 95.5382 41.5268 97.1328C47.4741 100.978 55.1944 102.932 63.1631 103.33C63.9354 103.364 64.6002 103.387 65.2235 103.399C65.8481 103.409 66.4734 103.41 67.0986 103.402C67.8336 103.391 68.6079 103.364 69.5381 103.324C81.4639 102.72 93.0413 98.8504 99.2067 92.8308C99.4793 92.5575 99.7626 92.2635 100.061 91.9448C102.142 89.6446 103.45 87.0582 103.731 84.2418V77.845C96.5834 103.324 38.6291 103.324 31.4814 77.845V84.2418Z" fill="#D2EDF7"/>
<path d="M31.4814 74.1621V77.845C38.6291 103.324 96.5834 103.324 103.731 77.845V74.1621C102.773 69.1963 99.4242 65.1488 94.6516 62.0864V63.5009C94.072 64.4701 91.947 64.4701 91.1743 63.5009V60.1451C79.2173 54.3366 61.3006 53.4839 48.095 58.3221V62.8044C53.3524 60.2165 60.1642 59.2377 67.6061 59.2377C84.2498 59.2377 97.7423 66.4657 97.7423 76.1006C97.7423 85.7355 84.2498 92.9635 67.6061 92.9635C60.1642 92.9635 53.3524 91.9847 48.095 89.3968V90.2508C47.7086 91.4138 45.0041 91.4138 44.6177 90.2508V87.3818C40.1592 84.3402 37.4699 80.4022 37.4699 76.1006C37.4699 71.799 40.1592 67.861 44.6177 64.8194V59.7836C38.0965 62.9107 33.1825 67.6666 31.4814 74.1621Z" fill="white"/>
<path d="M67.6061 92.9635C84.2498 92.9635 97.7423 85.7355 97.7423 76.1006C97.7423 66.4657 84.2498 59.2377 67.6061 59.2377C60.1642 59.2377 53.3524 60.2165 48.095 62.8044V89.3968C53.3524 91.9847 60.1642 92.9635 67.6061 92.9635Z" fill="#D2EDF7"/>
<path d="M37.4699 76.1006C37.4699 80.4022 40.1592 84.3402 44.6177 87.3818V64.8194C40.1592 67.861 37.4699 71.799 37.4699 76.1006Z" fill="#D2EDF7"/>
<path fill-rule="evenodd" clip-rule="evenodd" d="M99.2067 92.8308C99.4793 92.5575 99.7626 92.2635 100.061 91.9448C99.789 92.2451 99.5042 92.5405 99.2067 92.8308Z" fill="white"/>
<path d="M44.6177 90.2508C45.0041 91.4138 47.7086 91.4138 48.095 90.2508V89.3968V62.8044V58.3221V57.6857C48.1685 55.9902 48.7595 55.2432 50.6063 54.1966L91.1743 30.8531V60.1451V63.5009C91.947 64.4701 94.072 64.4701 94.6516 63.5009V62.0864V29.9666C94.6516 27.8342 92.7198 26.0897 89.6289 27.8343L48.095 51.6766C45.2412 53.3227 44.6177 54.7781 44.6177 57.6857V59.7836V64.8194V87.3818V90.2508Z" fill="white"/>
<path d="M41.5269 110.604V113.124C41.5269 115.062 35.1519 115.256 35.1519 113.124V110.604M41.5269 110.604V97.1328M41.5269 110.604C42.6859 111.185 43.845 112.155 43.845 113.124V117.195C42.1064 120.296 34.186 120.49 32.8337 117.195V113.124C32.8337 112.155 33.7996 111.185 35.1519 110.604M41.5269 97.1328C39.0608 95.5382 36.8996 93.6183 35.1519 91.3492M41.5269 97.1328C47.4741 100.978 55.1944 102.932 63.1631 103.33M35.1519 110.604V91.3492M35.1519 91.3492C33.556 89.2773 32.305 86.9142 31.4814 84.2418V77.845M69.5381 123.01V125.53C69.5381 127.468 63.1631 127.662 63.1631 125.53V123.01M69.5381 123.01V103.324M69.5381 123.01C70.6972 123.591 71.8562 124.56 71.8562 125.53V129.6C70.1176 132.702 62.1972 132.896 60.8449 129.6V125.53C60.8449 124.56 61.8108 123.591 63.1631 123.01M69.5381 103.324C68.7263 103.365 67.912 103.392 67.0986 103.402M69.5381 103.324C68.6079 103.364 67.8336 103.391 67.0986 103.402M69.5381 103.324C81.4639 102.72 93.0413 98.8504 99.2067 92.8308M63.1631 123.01V103.33M63.1631 103.33C63.8484 103.365 64.5355 103.387 65.2235 103.399M63.1631 103.33C63.9354 103.364 64.6002 103.387 65.2235 103.399M100.061 110.604V113.124C100.061 115.062 93.6857 115.256 93.6857 113.124V110.604M100.061 110.604V91.9448M100.061 110.604C101.22 111.185 102.379 112.155 102.379 113.124V117.195C100.64 120.296 92.7198 120.49 91.3675 117.195V113.124C91.3675 112.155 92.3334 111.185 93.6857 110.604M100.061 91.9448C102.142 89.6446 103.45 87.0582 103.731 84.2418V77.845M100.061 91.9448C99.789 92.2451 99.5041 92.5405 99.2067 92.8308M100.061 91.9448C99.7626 92.2635 99.4793 92.5575 99.2067 92.8308M93.6857 110.604V96.9029C95.9402 95.6299 97.3177 94.7252 99.2067 92.8308M31.4814 77.845V74.1621C33.1825 67.6666 38.0965 62.9107 44.6177 59.7836M31.4814 77.845C38.6291 103.324 96.5834 103.324 103.731 77.845M103.731 77.845V74.1621C102.773 69.1963 99.4242 65.1488 94.6516 62.0864M94.6516 62.0864V29.9666C94.6516 27.8342 92.7198 26.0897 89.6289 27.8343L48.095 51.6766C45.2412 53.3227 44.6177 54.7781 44.6177 57.6857V59.7836M94.6516 62.0864V63.5009C94.072 64.4701 91.947 64.4701 91.1743 63.5009V60.1451M91.1743 60.1451V30.8531L50.6063 54.1966C48.7595 55.2432 48.1685 55.9902 48.095 57.6857V58.3221M91.1743 60.1451C79.2173 54.3366 61.3006 53.4839 48.095 58.3221M48.095 58.3221V62.8044M44.6177 59.7836V64.8194M48.095 89.3968C53.3524 91.9847 60.1642 92.9635 67.6061 92.9635C84.2498 92.9635 97.7423 85.7355 97.7423 76.1006C97.7423 66.4657 84.2498 59.2377 67.6061 59.2377C60.1642 59.2377 53.3524 60.2165 48.095 62.8044M48.095 89.3968V90.2508C47.7086 91.4138 45.0041 91.4138 44.6177 90.2508V87.3818M48.095 89.3968V62.8044M44.6177 87.3818C40.1592 84.3402 37.4699 80.4022 37.4699 76.1006C37.4699 71.799 40.1592 67.861 44.6177 64.8194M44.6177 87.3818V64.8194M67.0986 103.402C66.4691 103.412 65.8685 103.411 65.2235 103.399M67.0986 103.402C66.4734 103.41 65.8481 103.409 65.2235 103.399M67.0986 103.402C79.8622 103.237 92.6215 99.2602 99.2067 92.8308" stroke="#18282E" stroke-width="2"/>
</g>
<defs>
<filter id="filter0_d_2620_16512" x="0.481445" y="0.620117" width="134.25" height="166.88" filterUnits="userSpaceOnUse" color-interpolation-filters="sRGB">
<feFlood flood-opacity="0" result="BackgroundImageFix"/>
<feColorMatrix in="SourceAlpha" type="matrix" values="0 0 0 0 0 0 0 0 0 0 0 0 0 0 0 0 0 0 127 0" result="hardAlpha"/>
<feOffset dy="4.5"/>
<feGaussianBlur stdDeviation="15"/>
<feComposite in2="hardAlpha" operator="out"/>
<feColorMatrix type="matrix" values="0 0 0 0 0 0 0 0 0 0 0 0 0 0 0 0 0 0 0.25 0"/>
<feBlend mode="normal" in2="BackgroundImageFix" result="effect1_dropShadow_2620_16512"/>
<feBlend mode="normal" in="SourceGraphic" in2="effect1_dropShadow_2620_16512" result="shape"/>
</filter>
</defs>
</svg>
