<svg width="278" height="223" viewBox="0 0 278 223" fill="none" xmlns="http://www.w3.org/2000/svg">
<g filter="url(#filter0_d_2620_19249)">
<path d="M174.686 107.708L158.083 115.6C156.435 116.705 154.278 118.486 152.037 120.337C148.12 123.571 143.947 127.017 141.782 127.438C132.902 128.757 124.924 128.49 117.934 126.984C122.624 129.652 124.874 131.477 127.895 135.632L132.423 130.776C138.159 126.526 151.442 129.562 146.913 145.649C152.42 139.438 155.874 136.907 163.517 136.239C167.093 135.129 168.874 134.269 171.063 131.686C156.875 125.008 166.233 107.708 183.742 110.742C188.144 112.737 191.626 114.457 194.563 116.206H210.609C223.199 114.548 227.231 106.979 225.624 97.9934C226.608 110.135 205.175 119.241 192.798 104.975C190.383 99.8651 191.712 96.6989 196.421 98.904L192.103 96.1722C191.314 98.5351 189.956 100.874 187.969 103.155C185.581 104.953 181.854 105.813 178.83 106.511C177.083 106.914 175.57 107.263 174.686 107.708Z" fill="#FEFACC"/>
<path d="M85.954 74.0138C83.3868 82.0754 83.2501 90.3126 85.3312 97.8546C35.2199 84.9412 48.2006 76.7456 85.954 74.0138Z" fill="white"/>
<path d="M133.329 52.4478C128.25 51.851 123.084 51.6107 117.934 51.7839C119.141 45.7846 128.197 44.8737 133.329 52.4478Z" fill="white"/>
<path d="M133.329 52.4478C128.25 51.851 123.084 51.6107 117.934 51.7839C112.439 51.9688 106.963 52.6243 101.632 53.8202C59.3698 104.671 131.82 127.438 146.008 111.653C157.293 103.566 163.594 99.7101 174.686 97.0828C183.742 95.2616 186.985 85.5483 185.553 82.5129C181.414 73.7373 175.462 68.8873 162.913 60.2653C154.05 56.4639 143.878 53.6872 133.329 52.4478Z" fill="#FEFACC"/>
<path d="M158.083 115.6L174.686 107.708C175.57 107.263 177.083 106.914 178.83 106.511C181.854 105.813 185.581 104.953 187.969 103.155C189.956 100.874 191.314 98.5351 192.103 96.1722C196.53 82.9278 183.122 68.933 162.913 60.2653C175.462 68.8873 181.414 73.7373 185.553 82.5129C186.985 85.5483 183.742 95.2616 174.686 97.0828C163.594 99.7101 157.293 103.566 146.008 111.653C131.82 127.438 59.3698 104.671 101.632 53.8202C100.213 54.1386 98.8031 54.4954 97.4064 54.8918C91.8515 60.8192 88.074 67.3566 85.954 74.0138C83.3868 82.0754 83.2501 90.3126 85.3312 97.8546C89.1542 111.71 100.462 123.219 117.934 126.984C124.924 128.49 132.902 128.757 141.782 127.438C143.947 127.017 148.12 123.571 152.037 120.337C154.278 118.486 156.435 116.705 158.083 115.6Z" fill="white"/>
<path d="M132.423 130.776L127.895 135.632C124.871 139.747 123.017 141.934 119.443 145.649C116.368 146.909 114.675 146.985 111.594 145.649C110.017 145.065 107.711 143.66 104.894 141.916L104.323 141.563C96.9077 136.968 86.2141 130.342 75.9729 129.865C69.3685 129.557 67.0398 130.472 68.1241 132.901C74.7654 147.774 98.3117 164.469 114.613 165.076C131.82 164.469 141.683 160.188 146.913 145.649C151.442 129.562 138.159 126.526 132.423 130.776Z" fill="white"/>
<path d="M183.742 110.742C166.233 107.708 156.875 125.008 171.063 131.686C177.801 134.637 181.526 136.488 187.969 140.793C196.119 143.524 203.662 144.129 206.383 138.668C206.682 133.909 206.721 131.285 206.383 126.526C202.804 122.083 199.433 119.105 194.563 116.206C191.626 114.457 188.144 112.737 183.742 110.742Z" fill="white"/>
<path d="M199.138 95.8686C199.188 99.2251 198.232 100.118 196.421 98.904C191.712 96.6989 190.383 99.8651 192.798 104.975C205.175 119.241 226.608 110.135 225.624 97.9934C223.995 88.8818 216.566 78.3142 206.383 70.9784C197.572 66.0059 193.704 67.6394 192.103 72.7996C191.465 75.6603 191.616 77.3464 192.103 80.3881C192.348 81.9181 194.119 85.2881 195.822 88.5303C197.505 91.7338 199.122 94.8126 199.138 95.8686Z" fill="white"/>
<path d="M117.934 51.7839C123.084 51.6107 128.25 51.851 133.329 52.4478M117.934 51.7839C119.141 45.7846 128.197 44.8737 133.329 52.4478M117.934 51.7839C112.439 51.9688 106.963 52.6243 101.632 53.8202M133.329 52.4478C143.878 53.6872 154.05 56.4639 162.913 60.2653M85.954 74.0138C88.074 67.3566 91.8515 60.8192 97.4064 54.8918C98.8031 54.4954 100.213 54.1386 101.632 53.8202M85.954 74.0138C83.3868 82.0754 83.2501 90.3126 85.3312 97.8546M85.954 74.0138C48.2006 76.7456 35.2199 84.9412 85.3312 97.8546M85.3312 97.8546C89.1542 111.71 100.462 123.219 117.934 126.984M117.934 126.984C124.924 128.49 132.902 128.757 141.782 127.438C143.947 127.017 148.12 123.571 152.037 120.337C154.278 118.486 156.435 116.705 158.083 115.6L174.686 107.708C175.57 107.263 177.083 106.914 178.83 106.511C181.854 105.813 185.581 104.953 187.969 103.155C189.956 100.874 191.314 98.5351 192.103 96.1722M117.934 126.984C122.624 129.652 124.874 131.477 127.895 135.632M127.895 135.632L132.423 130.776C138.159 126.526 151.442 129.562 146.913 145.649M127.895 135.632C124.871 139.747 123.017 141.934 119.443 145.649C116.368 146.909 114.675 146.985 111.594 145.649C110.017 145.065 107.711 143.66 104.894 141.916M146.913 145.649C141.683 160.188 131.82 164.469 114.613 165.076C98.3117 164.469 74.7654 147.774 68.1241 132.901C67.0398 130.472 69.3685 129.557 75.9729 129.865C86.2141 130.342 96.9077 136.968 104.323 141.563M146.913 145.649C152.42 139.438 155.874 136.907 163.517 136.239C167.093 135.129 168.874 134.269 171.063 131.686M171.063 131.686C156.875 125.008 166.233 107.708 183.742 110.742C188.144 112.737 191.626 114.457 194.563 116.206M171.063 131.686C177.801 134.637 181.526 136.488 187.969 140.793C196.119 143.524 203.662 144.129 206.383 138.668C206.682 133.909 206.721 131.285 206.383 126.526C202.804 122.083 199.433 119.105 194.563 116.206M192.103 96.1722L196.421 98.904M192.103 96.1722C196.53 82.9278 183.122 68.933 162.913 60.2653M196.421 98.904C198.232 100.118 199.188 99.2251 199.138 95.8686C199.122 94.8126 197.505 91.7338 195.822 88.5303C194.119 85.2881 192.348 81.9181 192.103 80.3881C191.616 77.3464 191.465 75.6603 192.103 72.7996C193.704 67.6394 197.572 66.0059 206.383 70.9784C216.566 78.3142 223.995 88.8818 225.624 97.9934M196.421 98.904C191.712 96.6989 190.383 99.8651 192.798 104.975C205.175 119.241 226.608 110.135 225.624 97.9934M194.563 116.206H210.609C223.199 114.548 227.231 106.979 225.624 97.9934M162.913 60.2653C175.462 68.8873 181.414 73.7373 185.553 82.5129C186.985 85.5483 183.742 95.2616 174.686 97.0828C163.594 99.7101 157.293 103.566 146.008 111.653C131.82 127.438 59.3698 104.671 101.632 53.8202M104.323 141.563C104.515 141.682 104.706 141.8 104.894 141.916M104.323 141.563L104.894 141.916" stroke="#333015" stroke-width="4"/>
</g>
<defs>
<filter id="filter0_d_2620_19249" x="0.494141" y="0.525391" width="277.465" height="222.052" filterUnits="userSpaceOnUse" color-interpolation-filters="sRGB">
<feFlood flood-opacity="0" result="BackgroundImageFix"/>
<feColorMatrix in="SourceAlpha" type="matrix" values="0 0 0 0 0 0 0 0 0 0 0 0 0 0 0 0 0 0 127 0" result="hardAlpha"/>
<feOffset dy="5.5"/>
<feGaussianBlur stdDeviation="25"/>
<feComposite in2="hardAlpha" operator="out"/>
<feColorMatrix type="matrix" values="0 0 0 0 0 0 0 0 0 0 0 0 0 0 0 0 0 0 0.25 0"/>
<feBlend mode="normal" in2="BackgroundImageFix" result="effect1_dropShadow_2620_19249"/>
<feBlend mode="normal" in="SourceGraphic" in2="effect1_dropShadow_2620_19249" result="shape"/>
</filter>
</defs>
</svg>
