<svg width="92" height="92" viewBox="0 0 92 92" fill="none" xmlns="http://www.w3.org/2000/svg">
<g filter="url(#filter0_d_2620_19277)">
<path d="M58.5429 46.9899L52.7999 49.7197C52.2298 50.1019 51.4837 50.718 50.7085 51.3582C49.3539 52.4768 47.9103 53.669 47.1614 53.8145C44.0899 54.2707 41.3304 54.1785 38.9123 53.6575C40.5346 54.5802 41.3131 55.2114 42.3581 56.6489L43.9243 54.969C45.9083 53.4991 50.5027 54.5491 48.9364 60.1137C50.8411 57.9653 52.0357 57.0897 54.6794 56.8589C55.9163 56.4749 56.5324 56.1773 57.2898 55.284C52.3822 52.9742 55.6191 46.9899 61.6754 48.0395C63.1979 48.7295 64.4024 49.3244 65.4184 49.9293H70.9685C75.3235 49.3559 76.7182 46.7377 76.1623 43.6297C76.5027 47.8295 69.089 50.9793 64.8079 46.0446C63.9725 44.2771 64.4322 43.1819 66.0609 43.9447L64.5675 42.9998C64.2943 43.8171 63.8248 44.6261 63.1373 45.415C62.3113 46.0369 61.0223 46.3344 59.9764 46.5758C59.372 46.7153 58.8488 46.8361 58.5429 46.9899Z" fill="#FEFACC"/>
<path d="M27.8507 35.3352C26.9627 38.1237 26.9154 40.9729 27.6352 43.5817C10.3019 39.115 14.7918 36.2802 27.8507 35.3352Z" fill="white"/>
<path d="M44.2376 27.8756C42.4808 27.6692 40.6938 27.586 38.9123 27.646C39.33 25.5708 42.4625 25.2557 44.2376 27.8756Z" fill="white"/>
<path d="M44.2376 27.8756C42.4808 27.6692 40.6938 27.586 38.9123 27.646C37.0118 27.7099 35.1177 27.9367 33.2737 28.3503C18.6553 45.9396 43.7155 53.8145 48.6231 48.3544C52.5267 45.5573 54.7063 44.2235 58.5429 43.3147C61.6754 42.6848 62.7971 39.325 62.3019 38.275C60.8702 35.2396 58.8111 33.562 54.4705 30.5797C51.4048 29.2648 47.8865 28.3043 44.2376 27.8756Z" fill="#FEFACC"/>
<path d="M52.7999 49.7197L58.5429 46.9899C58.8488 46.8361 59.372 46.7153 59.9764 46.5758C61.0223 46.3344 62.3113 46.0369 63.1373 45.415C63.8248 44.6261 64.2943 43.8171 64.5675 42.9998C66.0986 38.4186 61.4609 33.5778 54.4705 30.5797C58.8111 33.562 60.8702 35.2396 62.3019 38.275C62.7971 39.325 61.6754 42.6848 58.5429 43.3147C54.7063 44.2235 52.5267 45.5573 48.6231 48.3544C43.7155 53.8145 18.6553 45.9396 33.2737 28.3503C32.7827 28.4604 32.2951 28.5839 31.812 28.721C29.8906 30.7712 28.584 33.0325 27.8507 35.3352C26.9627 38.1237 26.9154 40.9729 27.6352 43.5817C28.9576 48.3742 32.8688 52.3552 38.9123 53.6575C41.3304 54.1785 44.0899 54.2707 47.1614 53.8145C47.9103 53.669 49.3539 52.4768 50.7085 51.3582C51.4837 50.718 52.2298 50.1019 52.7999 49.7197Z" fill="white"/>
<path d="M43.9243 54.969L42.3581 56.6489C41.312 58.0723 40.6708 58.8285 39.4344 60.1137C38.3709 60.5495 37.7852 60.5758 36.7195 60.1137C36.1741 59.9117 35.3763 59.4258 34.4018 58.8226L34.2046 58.7004C31.6395 57.111 27.9406 54.8191 24.3982 54.6541C22.1138 54.5476 21.3083 54.864 21.6833 55.704C23.9805 60.8487 32.1251 66.6233 37.7637 66.8333C43.7155 66.6233 47.1271 65.1426 48.9364 60.1137C50.5027 54.5491 45.9083 53.4991 43.9243 54.969Z" fill="white"/>
<path d="M61.6754 48.0395C55.6191 46.9899 52.3822 52.9742 57.2898 55.284C59.6202 56.3047 60.9087 56.9448 63.1373 58.4338C65.9565 59.3788 68.5656 59.5878 69.5067 57.6989C69.6103 56.0529 69.6236 55.1451 69.5067 53.4991C68.2689 51.9624 67.1027 50.9321 65.4184 49.9293C64.4024 49.3244 63.1979 48.7295 61.6754 48.0395Z" fill="white"/>
<path d="M67.0007 42.8948C67.018 44.0557 66.6874 44.3647 66.0609 43.9447C64.4322 43.1819 63.9725 44.2771 64.8079 46.0446C69.089 50.9793 76.5027 47.8295 76.1623 43.6297C75.5986 40.478 73.0291 36.8227 69.5067 34.2853C66.4592 32.5653 65.1211 33.1303 64.5675 34.9152C64.3467 35.9047 64.399 36.488 64.5675 37.5401C64.6522 38.0693 65.2645 39.235 65.8537 40.3564C66.4358 41.4645 66.9952 42.5295 67.0007 42.8948Z" fill="white"/>
<path d="M38.9123 27.646C40.6938 27.586 42.4808 27.6692 44.2376 27.8756M38.9123 27.646C39.33 25.5708 42.4625 25.2557 44.2376 27.8756M38.9123 27.646C37.0118 27.7099 35.1177 27.9367 33.2737 28.3503M44.2376 27.8756C47.8865 28.3043 51.4048 29.2648 54.4705 30.5797M27.8507 35.3352C28.584 33.0325 29.8906 30.7712 31.812 28.721C32.2951 28.5839 32.7827 28.4604 33.2737 28.3503M27.8507 35.3352C26.9627 38.1237 26.9154 40.9729 27.6352 43.5817M27.8507 35.3352C14.7918 36.2802 10.3019 39.115 27.6352 43.5817M27.6352 43.5817C28.9576 48.3742 32.8688 52.3552 38.9123 53.6575M38.9123 53.6575C41.3304 54.1785 44.0899 54.2707 47.1614 53.8145C47.9103 53.669 49.3539 52.4768 50.7085 51.3582C51.4837 50.718 52.2298 50.1019 52.7999 49.7197L58.5429 46.9899C58.8488 46.8361 59.372 46.7153 59.9764 46.5758C61.0223 46.3344 62.3113 46.0369 63.1373 45.415C63.8248 44.6261 64.2943 43.8171 64.5675 42.9998M38.9123 53.6575C40.5346 54.5802 41.3131 55.2114 42.3581 56.6489M42.3581 56.6489L43.9243 54.969C45.9083 53.4991 50.5027 54.5491 48.9364 60.1137M42.3581 56.6489C41.312 58.0723 40.6708 58.8285 39.4344 60.1137C38.3709 60.5495 37.7852 60.5758 36.7195 60.1137C36.1741 59.9117 35.3763 59.4258 34.4018 58.8226M48.9364 60.1137C47.1271 65.1426 43.7155 66.6233 37.7637 66.8333C32.1251 66.6233 23.9805 60.8487 21.6833 55.704C21.3083 54.864 22.1138 54.5476 24.3982 54.6541C27.9406 54.8191 31.6395 57.111 34.2046 58.7004M48.9364 60.1137C50.8411 57.9653 52.0357 57.0897 54.6794 56.8589C55.9163 56.4749 56.5324 56.1773 57.2898 55.284M57.2898 55.284C52.3822 52.9742 55.6191 46.9899 61.6754 48.0395C63.1979 48.7295 64.4024 49.3244 65.4184 49.9293M57.2898 55.284C59.6202 56.3047 60.9087 56.9448 63.1373 58.4338C65.9565 59.3788 68.5656 59.5878 69.5067 57.6989C69.6103 56.0529 69.6236 55.1451 69.5067 53.4991C68.2689 51.9624 67.1027 50.9321 65.4184 49.9293M64.5675 42.9998L66.0609 43.9447M64.5675 42.9998C66.0986 38.4186 61.4609 33.5778 54.4705 30.5797M66.0609 43.9447C66.6874 44.3647 67.018 44.0557 67.0007 42.8948C66.9952 42.5295 66.4358 41.4645 65.8537 40.3564C65.2646 39.235 64.6522 38.0693 64.5675 37.5401C64.399 36.488 64.3467 35.9047 64.5675 34.9152C65.1211 33.1303 66.4592 32.5653 69.5067 34.2853C73.0291 36.8227 75.5986 40.478 76.1623 43.6297M66.0609 43.9447C64.4322 43.1819 63.9725 44.2771 64.8079 46.0446C69.089 50.9793 76.5027 47.8295 76.1623 43.6297M65.4184 49.9293H70.9685C75.3235 49.3559 76.7182 46.7377 76.1623 43.6297M54.4705 30.5797C58.8111 33.562 60.8702 35.2396 62.3019 38.275C62.7971 39.325 61.6754 42.6848 58.5429 43.3147C54.7063 44.2235 52.5267 45.5573 48.6231 48.3544C43.7155 53.8145 18.6553 45.9396 33.2737 28.3503M34.2046 58.7004C34.271 58.7416 34.3369 58.7824 34.4018 58.8226M34.2046 58.7004L34.4018 58.8226" stroke="#333015" stroke-width="1.25"/>
</g>
<defs>
<filter id="filter0_d_2620_19277" x="3.65234" y="17.375" width="85.251" height="66.084" filterUnits="userSpaceOnUse" color-interpolation-filters="sRGB">
<feFlood flood-opacity="0" result="BackgroundImageFix"/>
<feColorMatrix in="SourceAlpha" type="matrix" values="0 0 0 0 0 0 0 0 0 0 0 0 0 0 0 0 0 0 127 0" result="hardAlpha"/>
<feOffset dy="4"/>
<feGaussianBlur stdDeviation="6"/>
<feComposite in2="hardAlpha" operator="out"/>
<feColorMatrix type="matrix" values="0 0 0 0 0 0 0 0 0 0 0 0 0 0 0 0 0 0 0.25 0"/>
<feBlend mode="normal" in2="BackgroundImageFix" result="effect1_dropShadow_2620_19277"/>
<feBlend mode="normal" in="SourceGraphic" in2="effect1_dropShadow_2620_19277" result="shape"/>
</filter>
</defs>
</svg>
