<svg width="226" height="279" viewBox="0 0 226 279" fill="none" xmlns="http://www.w3.org/2000/svg">
<g filter="url(#filter0_d_2620_19295)">
<path d="M52.8262 210.493L67.1017 220.462V116.285L173.922 54.4768L158.17 47L52.8262 107.811V210.493Z" fill="#FEFACC"/>
<path d="M136.51 199.954C120.266 211.988 114.851 211.341 102.544 199.954L96.145 203.514C109.811 218.865 117.312 220.462 132.08 213.483L153.643 199.954V187.065C153.487 188.418 152.036 189.852 149.801 191.551L136.51 199.954Z" fill="#FEFACC"/>
<path fill-rule="evenodd" clip-rule="evenodd" d="M67.1017 220.462L96.145 203.514L102.544 199.954C114.851 211.341 120.266 211.988 136.51 199.954L149.801 191.551C152.036 189.852 153.487 188.418 153.643 187.065C153.931 184.581 149.85 182.374 138.233 179.304L173.922 158.654V54.4768L67.1017 116.285V220.462ZM165.061 144.198L76.4546 197.034V121.768L165.061 71.4242V144.198Z" fill="white"/>
<path d="M76.4546 197.034L165.061 144.198V71.4242L76.4546 121.768V197.034Z" fill="#FEFACC"/>
<path d="M67.1017 220.462L52.8262 210.493V107.811L158.17 47L173.922 54.4768M67.1017 220.462V116.285L173.922 54.4768M67.1017 220.462L96.145 203.514M173.922 54.4768V158.654L138.233 179.304M116.82 182.081L123.712 178.093M102.544 199.954C114.851 211.341 120.266 211.988 136.51 199.954L149.801 191.551C152.036 189.852 153.487 188.418 153.643 187.065M102.544 199.954L138.233 179.304M102.544 199.954L96.145 203.514M138.233 179.304C149.85 182.374 153.931 184.581 153.643 187.065M153.643 187.065V199.954L132.08 213.483C117.312 220.462 109.811 218.865 96.145 203.514M76.4546 197.034L165.061 144.198V71.4242L76.4546 121.768V197.034Z" stroke="#333015" stroke-width="4"/>
</g>
<defs>
<filter id="filter0_d_2620_19295" x="0.826172" y="0.243164" width="225.096" height="278.091" filterUnits="userSpaceOnUse" color-interpolation-filters="sRGB">
<feFlood flood-opacity="0" result="BackgroundImageFix"/>
<feColorMatrix in="SourceAlpha" type="matrix" values="0 0 0 0 0 0 0 0 0 0 0 0 0 0 0 0 0 0 127 0" result="hardAlpha"/>
<feOffset dy="5.5"/>
<feGaussianBlur stdDeviation="25"/>
<feComposite in2="hardAlpha" operator="out"/>
<feColorMatrix type="matrix" values="0 0 0 0 0 0 0 0 0 0 0 0 0 0 0 0 0 0 0.25 0"/>
<feBlend mode="normal" in2="BackgroundImageFix" result="effect1_dropShadow_2620_19295"/>
<feBlend mode="normal" in="SourceGraphic" in2="effect1_dropShadow_2620_19295" result="shape"/>
</filter>
</defs>
</svg>
