<svg width="227" height="241" viewBox="0 0 227 241" fill="none" xmlns="http://www.w3.org/2000/svg">
<g filter="url(#filter0_d_2620_19280)">
<path fill-rule="evenodd" clip-rule="evenodd" d="M66.5098 220.487L95.9186 203.54L102.398 199.979C114.86 211.366 120.343 212.013 136.792 199.979L150.25 191.577C152.512 189.877 153.982 188.443 154.14 187.091C154.431 184.607 150.299 182.399 138.536 179.329L174.674 158.679V54.5022L66.5098 116.31V220.487ZM165.702 144.224L75.9804 197.06V121.793L165.702 71.4496V144.224Z" fill="white"/>
<path d="M136.792 199.979C120.343 212.013 114.86 211.366 102.398 199.979L95.9186 203.54C109.756 218.89 117.352 220.487 132.306 213.509L154.14 199.979V187.091C153.982 188.443 152.512 189.877 150.25 191.577L136.792 199.979Z" fill="#FEFACC"/>
<path d="M75.9804 197.06L165.702 144.224V71.4496L75.9804 121.793V197.06Z" fill="#FEFACC"/>
<path d="M52.0547 210.518L66.5098 220.487V116.31L174.674 54.5022L158.724 47.0254L52.0547 107.837V210.518Z" fill="#FEFACC"/>
<path d="M66.5098 220.487L52.0547 210.518V107.837L158.724 47.0254L174.674 54.5022M66.5098 220.487V116.31L174.674 54.5022M66.5098 220.487L95.9186 203.54M174.674 54.5022V158.679L138.536 179.329M116.854 182.106L123.832 178.119M102.398 199.979C114.86 211.366 120.343 212.013 136.792 199.979L150.25 191.577C152.512 189.877 153.982 188.443 154.14 187.091M102.398 199.979L138.536 179.329M102.398 199.979L95.9186 203.54M138.536 179.329C150.299 182.399 154.431 184.607 154.14 187.091M154.14 187.091V199.979L132.306 213.509C117.352 220.487 109.756 218.89 95.9186 203.54M94.4232 136.747V160.673M102.398 139.239V148.71M114.86 121.793V150.704M129.813 121.793V136.747M143.77 136.747V104.348M154.14 124.784V111.824M75.9804 197.06L165.702 144.224V71.4496L75.9804 121.793V197.06Z" stroke="#333015" stroke-width="4" stroke-linecap="round"/>
</g>
<defs>
<filter id="filter0_d_2620_19280" x="0.0546875" y="0.274414" width="226.619" height="278.076" filterUnits="userSpaceOnUse" color-interpolation-filters="sRGB">
<feFlood flood-opacity="0" result="BackgroundImageFix"/>
<feColorMatrix in="SourceAlpha" type="matrix" values="0 0 0 0 0 0 0 0 0 0 0 0 0 0 0 0 0 0 127 0" result="hardAlpha"/>
<feOffset dy="5.5"/>
<feGaussianBlur stdDeviation="25"/>
<feComposite in2="hardAlpha" operator="out"/>
<feColorMatrix type="matrix" values="0 0 0 0 0 0 0 0 0 0 0 0 0 0 0 0 0 0 0.25 0"/>
<feBlend mode="normal" in2="BackgroundImageFix" result="effect1_dropShadow_2620_19280"/>
<feBlend mode="normal" in="SourceGraphic" in2="effect1_dropShadow_2620_19280" result="shape"/>
</filter>
</defs>
</svg>
