<svg width="92" height="93" viewBox="0 0 92 93" fill="none" xmlns="http://www.w3.org/2000/svg">
<g filter="url(#filter0_d_2620_19284)">
<path d="M25 72.5517L29.9379 76V39.9655L66.8868 18.5862L61.4381 16L25 37.0345V72.5517Z" fill="#FEFACC"/>
<path d="M53.9462 68.9064C48.3272 73.069 46.4542 72.8452 42.1974 68.9064L39.9839 70.1379C44.7108 75.4476 47.3056 76 52.4137 73.5862L59.8723 68.9064V64.4483C59.8182 64.916 59.3163 65.4121 58.5435 66L53.9462 68.9064Z" fill="#FEFACC"/>
<path fill-rule="evenodd" clip-rule="evenodd" d="M29.9379 76L39.9839 70.1379L42.1974 68.9064C46.4542 72.8452 48.3272 73.069 53.9462 68.9064L58.5435 66C59.3163 65.4121 59.8182 64.916 59.8723 64.4483C59.9718 63.5891 58.5603 62.8254 54.5421 61.7635L66.8868 54.6207V18.5862L29.9379 39.9655V76ZM63.8219 49.6207L33.173 67.8965V41.8621L63.8219 24.4483V49.6207Z" fill="white"/>
<path d="M33.173 67.8965L63.8219 49.6207V24.4483L33.173 41.8621V67.8965Z" fill="#FEFACC"/>
<path d="M29.9379 76L25 72.5517V37.0345L61.4381 16L66.8868 18.5862M29.9379 76V39.9655L66.8868 18.5862M29.9379 76L39.9839 70.1379M66.8868 18.5862V54.6207L54.5421 61.7635M47.1353 62.7241L49.5191 61.3448M42.1974 68.9064C46.4542 72.8452 48.3272 73.069 53.9462 68.9064L58.5435 66C59.3163 65.4121 59.8182 64.916 59.8723 64.4483M42.1974 68.9064L54.5421 61.7635M42.1974 68.9064L39.9839 70.1379M54.5421 61.7635C58.5603 62.8254 59.9718 63.5891 59.8723 64.4483M59.8723 64.4483V68.9064L52.4137 73.5862C47.3056 76 44.7108 75.4476 39.9839 70.1379M33.173 67.8965L63.8219 49.6207V24.4483L33.173 41.8621V67.8965Z" stroke="#333015" stroke-width="1.25"/>
</g>
<defs>
<filter id="filter0_d_2620_19284" x="12.375" y="7.29492" width="67.1367" height="85.4463" filterUnits="userSpaceOnUse" color-interpolation-filters="sRGB">
<feFlood flood-opacity="0" result="BackgroundImageFix"/>
<feColorMatrix in="SourceAlpha" type="matrix" values="0 0 0 0 0 0 0 0 0 0 0 0 0 0 0 0 0 0 127 0" result="hardAlpha"/>
<feOffset dy="4"/>
<feGaussianBlur stdDeviation="6"/>
<feComposite in2="hardAlpha" operator="out"/>
<feColorMatrix type="matrix" values="0 0 0 0 0 0 0 0 0 0 0 0 0 0 0 0 0 0 0.25 0"/>
<feBlend mode="normal" in2="BackgroundImageFix" result="effect1_dropShadow_2620_19284"/>
<feBlend mode="normal" in="SourceGraphic" in2="effect1_dropShadow_2620_19284" result="shape"/>
</filter>
</defs>
</svg>
