<svg width="92" height="93" viewBox="0 0 92 93" fill="none" xmlns="http://www.w3.org/2000/svg">
<g filter="url(#filter0_d_2620_19272)">
<path fill-rule="evenodd" clip-rule="evenodd" d="M30.2285 76L40.4009 70.1379L42.6423 68.9064C46.9526 72.8452 48.8492 73.069 54.5389 68.9064L59.194 66C59.9766 65.4121 60.4848 64.916 60.5396 64.4483C60.6403 63.5891 59.2111 62.8254 55.1423 61.7635L67.6423 54.6207V18.5862L30.2285 39.9655V76ZM64.5389 49.6207L33.5044 67.8966V41.8621L64.5389 24.4483V49.6207Z" fill="white"/>
<path d="M54.5389 68.9064C48.8492 73.069 46.9526 72.8452 42.6423 68.9064L40.4009 70.1379C45.1873 75.4476 47.8147 76 52.9871 73.5862L60.5396 68.9064V64.4483C60.4848 64.916 59.9766 65.4121 59.194 66L54.5389 68.9064Z" fill="#FEFACC"/>
<path d="M33.5044 67.8966L64.5389 49.6207V24.4483L33.5044 41.8621V67.8966Z" fill="#FEFACC"/>
<path d="M25.2285 72.5517L30.2285 76V39.9655L67.6423 18.5862L62.1251 16L25.2285 37.0345V72.5517Z" fill="#FEFACC"/>
<path d="M30.2285 76L25.2285 72.5517V37.0345L62.1251 16L67.6423 18.5862M30.2285 76V39.9655L67.6423 18.5862M30.2285 76L40.4009 70.1379M67.6423 18.5862V54.6207L55.1423 61.7635M47.6423 62.7241L50.0561 61.3448M42.6423 68.9064C46.9526 72.8452 48.8492 73.069 54.5389 68.9064L59.194 66C59.9766 65.4121 60.4848 64.916 60.5396 64.4483M42.6423 68.9064L55.1423 61.7635M42.6423 68.9064L40.4009 70.1379M55.1423 61.7635C59.2111 62.8254 60.6403 63.5891 60.5396 64.4483M60.5396 64.4483V68.9064L52.9871 73.5862C47.8147 76 45.1873 75.4476 40.4009 70.1379M39.8837 47.0345V55.3103M42.6423 47.8966V51.1724M46.9527 41.8621V51.8621M52.1251 41.8621V47.0345M56.9527 47.0345V35.8276M60.5396 42.8966V38.4138M33.5044 67.8966L64.5389 49.6207V24.4483L33.5044 41.8621V67.8966Z" stroke="#333015" stroke-width="1.25" stroke-linecap="round"/>
</g>
<defs>
<filter id="filter0_d_2620_19272" x="12.6035" y="7.29688" width="67.6641" height="85.4414" filterUnits="userSpaceOnUse" color-interpolation-filters="sRGB">
<feFlood flood-opacity="0" result="BackgroundImageFix"/>
<feColorMatrix in="SourceAlpha" type="matrix" values="0 0 0 0 0 0 0 0 0 0 0 0 0 0 0 0 0 0 127 0" result="hardAlpha"/>
<feOffset dy="4"/>
<feGaussianBlur stdDeviation="6"/>
<feComposite in2="hardAlpha" operator="out"/>
<feColorMatrix type="matrix" values="0 0 0 0 0 0 0 0 0 0 0 0 0 0 0 0 0 0 0.25 0"/>
<feBlend mode="normal" in2="BackgroundImageFix" result="effect1_dropShadow_2620_19272"/>
<feBlend mode="normal" in="SourceGraphic" in2="effect1_dropShadow_2620_19272" result="shape"/>
</filter>
</defs>
</svg>
