<svg width="92" height="93" viewBox="0 0 92 93" fill="none" xmlns="http://www.w3.org/2000/svg">
<g filter="url(#filter0_d_2620_16536)">
<path d="M52.8138 36.3233C51.832 38.0215 50.213 38.9235 49.1975 38.338C48.182 37.7525 48.1547 35.9012 49.1365 34.203C50.1182 32.5049 51.7373 31.6029 52.7528 32.1884C53.7682 32.7738 53.7956 34.6251 52.8138 36.3233Z" fill="#D2EDF7"/>
<path d="M43.1585 64.5575C42.4241 65.7311 44.0399 67.3447 45.5089 65.1443L48.7406 57.8093L49.6187 53.1739L49.7688 52.3814C50.3431 51.9193 50.8091 51.505 51.1862 51.1151C52.3838 49.8771 52.6848 48.8855 52.7068 47.3936L52.9756 44.3653C52.026 44.2674 51.1613 43.8477 50.6086 43.075C50.0211 42.3415 50.944 40.6455 51.3847 40.7922L53.1474 41.6724C53.2943 38.8851 50.7971 37.5648 48.5937 40.7922C47.9526 42.0648 47.7435 42.9751 47.7123 45.0465L47.4185 51.7946L46.2433 57.6626L43.1585 64.5575Z" fill="#D2EDF7"/>
<path d="M47.7123 45.0465C47.7435 42.9751 47.9526 42.0648 48.5937 40.7922L43.7461 45.4512L42.9146 51.4878C43.6429 52.4003 45.2927 51.562 45.2927 51.122L45.8027 46.7317L47.7123 45.0465Z" fill="#D2EDF7"/>
<path d="M53.1474 41.6724L51.3847 40.7922C50.944 40.6455 50.0211 42.3415 50.6086 43.075C51.1613 43.8477 52.026 44.2674 52.9756 44.3653C53.1302 44.3812 53.2871 44.3886 53.4452 44.3877C54.8973 44.3786 56.4569 43.6618 57.3659 42.3415C57.8065 41.4613 56.8559 39.8529 56.2683 40.1463C54.9153 41.6633 54.212 42.1152 53.1474 41.6724Z" fill="#D2EDF7"/>
<path fill-rule="evenodd" clip-rule="evenodd" d="M33.1696 76V38.2983L65.7805 19.3741V57.3692L33.1696 76ZM43.1585 64.5575C42.4241 65.7311 44.0399 67.3447 45.5089 65.1443L48.7406 57.8093L49.6187 53.1739L51.0909 54.5819L50.7971 60.1565C50.944 61.4768 53.2943 60.7433 53.5881 58.3961L53.8819 51.9413L52.9643 50.9878L52.0467 50.0342C52.5409 49.2285 52.6915 48.4324 52.7068 47.3936L52.9756 44.3653C53.1302 44.3812 53.2871 44.3886 53.4452 44.3877C54.8973 44.3786 56.4569 43.6618 57.3659 42.3415C57.8065 41.4613 56.8559 39.8529 56.2683 40.1463C54.9153 41.6633 54.212 42.1152 53.1474 41.6724C53.2943 38.8851 50.7971 37.5648 48.5937 40.7922L43.7461 45.4512L42.9146 51.4878C43.6429 52.4003 45.2927 51.562 45.2927 51.122L45.8027 46.7317L47.7123 45.0465L47.4185 51.7946L46.2433 57.6626L43.1585 64.5575ZM51.1862 51.1151C50.8091 51.505 50.3431 51.9193 49.7688 52.3814C50.3666 51.908 50.792 51.5411 51.1862 51.1151ZM52.8138 36.3233C51.832 38.0215 50.213 38.9235 49.1975 38.338C48.182 37.7525 48.1547 35.9012 49.1365 34.203C50.1182 32.5049 51.7373 31.6029 52.7528 32.1884C53.7682 32.7738 53.7956 34.6251 52.8138 36.3233Z" fill="white"/>
<path d="M49.7688 52.3814L49.6187 53.1739L51.0909 54.5819L50.7971 60.1565C50.944 61.4768 53.2943 60.7433 53.5881 58.3961L53.8819 51.9413L52.9643 50.9878L52.0467 50.0342C51.831 50.3857 51.55 50.7391 51.1862 51.1151C50.792 51.5411 50.3666 51.908 49.7688 52.3814Z" fill="#D2EDF7"/>
<path d="M33.1696 38.2983L65.7805 19.3741L59.7578 16L27 34.9242L33.1696 38.2983Z" fill="white"/>
<path d="M33.1696 76V38.2983L27 34.9242V72.0391L33.1696 76Z" fill="#D2EDF7"/>
<path d="M33.1696 76V38.2983M33.1696 76L65.7805 57.3692V19.3741M33.1696 76L27 72.0391V34.9242M33.1696 38.2983L65.7805 19.3741M33.1696 38.2983L27 34.9242M65.7805 19.3741L59.7578 16L27 34.9242M48.7406 57.8093L45.5089 65.1443C44.0399 67.3447 42.4241 65.7311 43.1585 64.5575L46.2433 57.6626L47.4185 51.7946L47.7123 45.0465M48.7406 57.8093L49.7688 52.3814M48.7406 57.8093L49.6187 53.1739M49.7688 52.3814L49.6187 53.1739M49.7688 52.3814C50.3431 51.9193 50.8091 51.505 51.1862 51.1151M49.7688 52.3814C50.3666 51.908 50.792 51.5411 51.1862 51.1151M52.7068 47.3936L52.9756 44.3653M52.7068 47.3936C52.6915 48.4324 52.5409 49.2285 52.0467 50.0342M52.7068 47.3936C52.6848 48.8855 52.3838 49.8771 51.1862 51.1151M52.9756 44.3653C52.026 44.2674 51.1613 43.8477 50.6086 43.075M52.9756 44.3653C53.1302 44.3812 53.2871 44.3886 53.4452 44.3877M53.1474 41.6724C53.2943 38.8851 50.7971 37.5648 48.5937 40.7922M53.1474 41.6724L51.3847 40.7922C50.944 40.6455 50.0211 42.3415 50.6086 43.075M53.1474 41.6724C54.212 42.1152 54.9153 41.6633 56.2683 40.1463C56.8559 39.8529 57.8065 41.4613 57.3659 42.3415C56.4569 43.6618 54.8973 44.3786 53.4452 44.3877M48.5937 40.7922C47.9526 42.0648 47.7435 42.9751 47.7123 45.0465M48.5937 40.7922L43.7461 45.4512L42.9146 51.4878C43.6429 52.4003 45.2927 51.562 45.2927 51.122L45.8027 46.7317L47.7123 45.0465M50.6086 43.075C51.2513 43.9735 52.3157 44.3947 53.4452 44.3877M52.0467 50.0342L52.9643 50.9878L53.8819 51.9413L53.5881 58.3961C53.2943 60.7433 50.944 61.4768 50.7971 60.1565L51.0909 54.5819L49.6187 53.1739M52.0467 50.0342C51.7406 50.4674 51.4716 50.8067 51.1862 51.1151M52.0467 50.0342C51.831 50.3857 51.55 50.7391 51.1862 51.1151M52.8138 36.3233C51.832 38.0215 50.213 38.9235 49.1975 38.338C48.182 37.7525 48.1547 35.9012 49.1365 34.203C50.1182 32.5049 51.7373 31.6029 52.7528 32.1884C53.7682 32.7738 53.7956 34.6251 52.8138 36.3233Z" stroke="#18282E" stroke-width="1.25"/>
</g>
<defs>
<filter id="filter0_d_2620_16536" x="14.375" y="7.28125" width="64.0303" height="85.4492" filterUnits="userSpaceOnUse" color-interpolation-filters="sRGB">
<feFlood flood-opacity="0" result="BackgroundImageFix"/>
<feColorMatrix in="SourceAlpha" type="matrix" values="0 0 0 0 0 0 0 0 0 0 0 0 0 0 0 0 0 0 127 0" result="hardAlpha"/>
<feOffset dy="4"/>
<feGaussianBlur stdDeviation="6"/>
<feComposite in2="hardAlpha" operator="out"/>
<feColorMatrix type="matrix" values="0 0 0 0 0 0 0 0 0 0 0 0 0 0 0 0 0 0 0.25 0"/>
<feBlend mode="normal" in2="BackgroundImageFix" result="effect1_dropShadow_2620_16536"/>
<feBlend mode="normal" in="SourceGraphic" in2="effect1_dropShadow_2620_16536" result="shape"/>
</filter>
</defs>
</svg>
