<svg width="186" height="243" viewBox="0 0 186 243" fill="none" xmlns="http://www.w3.org/2000/svg">
<g filter="url(#filter0_d_2620_16522)">
<path d="M95.712 106.589C92.8326 111.57 88.0838 114.215 85.1054 112.498C82.1271 110.781 82.0469 105.351 84.9264 100.37C87.8059 95.3893 92.5546 92.7438 95.533 94.461C98.5114 96.1783 98.5915 101.608 95.712 106.589Z" fill="#D2EDF7"/>
<path d="M67.3931 189.4C65.2389 192.842 69.9782 197.575 74.2866 191.121L83.7652 169.607L86.3409 156.012L86.7812 153.687C88.4654 152.332 89.8323 151.117 90.9384 149.973C94.4508 146.342 95.3338 143.434 95.3981 139.058L96.1866 130.176C93.4013 129.889 90.8654 128.658 89.2443 126.392C87.5209 124.24 90.2279 119.266 91.5205 119.696L96.6906 122.278C97.1215 114.103 89.7971 110.23 83.3344 119.696C81.4541 123.429 80.8407 126.098 80.7493 132.174L79.8876 151.966L76.4409 169.177L67.3931 189.4Z" fill="#D2EDF7"/>
<path d="M80.7493 132.174C80.8407 126.098 81.4541 123.429 83.3344 119.696L69.1165 133.361L66.6777 151.066C68.8136 153.743 73.6526 151.284 73.6526 149.993L75.1483 137.117L80.7493 132.174Z" fill="#D2EDF7"/>
<path d="M96.6906 122.278L91.5205 119.696C90.2279 119.266 87.5209 124.24 89.2443 126.392C90.8654 128.658 93.4013 129.889 96.1866 130.176C96.6401 130.223 97.1001 130.245 97.5639 130.242C101.823 130.215 106.397 128.113 109.063 124.24C110.356 121.659 107.567 116.941 105.844 117.802C101.876 122.251 99.8129 123.577 96.6906 122.278Z" fill="#D2EDF7"/>
<path fill-rule="evenodd" clip-rule="evenodd" d="M38.0955 222.961V112.381L133.743 56.8767V168.317L38.0955 222.961ZM67.3931 189.4C65.2389 192.842 69.9782 197.575 74.2866 191.121L83.7652 169.607L86.3409 156.012L90.6588 160.141L89.7971 176.492C90.2279 180.364 97.1215 178.213 97.9832 171.328L98.8449 152.397L96.1535 149.6L93.462 146.803C94.9117 144.44 95.3533 142.105 95.3981 139.058L96.1866 130.176C96.6401 130.223 97.1001 130.245 97.5639 130.242C101.823 130.215 106.397 128.113 109.063 124.24C110.356 121.659 107.567 116.941 105.844 117.802C101.876 122.251 99.8129 123.577 96.6906 122.278C97.1215 114.103 89.7971 110.23 83.3344 119.696L69.1165 133.361L66.6777 151.066C68.8136 153.743 73.6526 151.284 73.6526 149.993L75.1483 137.117L80.7493 132.174L79.8876 151.966L76.4409 169.177L67.3931 189.4ZM90.9384 149.973C89.8323 151.117 88.4654 152.332 86.7812 153.687C88.5344 152.299 89.7822 151.223 90.9384 149.973ZM95.712 106.589C92.8326 111.57 88.0838 114.215 85.1054 112.498C82.1271 110.781 82.0469 105.351 84.9264 100.37C87.8059 95.3893 92.5546 92.7438 95.533 94.461C98.5114 96.1783 98.5915 101.608 95.712 106.589Z" fill="white"/>
<path d="M86.7812 153.687L86.3409 156.012L90.6588 160.141L89.7971 176.492C90.2279 180.364 97.1215 178.213 97.9832 171.328L98.8449 152.397L96.1535 149.6L93.462 146.803C92.8296 147.834 92.0053 148.87 90.9384 149.973C89.7822 151.223 88.5344 152.299 86.7812 153.687Z" fill="#D2EDF7"/>
<path d="M38.0955 112.381L133.743 56.8767L116.079 46.9805L20 102.485L38.0955 112.381Z" fill="white"/>
<path d="M38.0955 222.961V112.381L20 102.485V211.344L38.0955 222.961Z" fill="#D2EDF7"/>
<path d="M38.0955 222.961V112.381M38.0955 222.961L133.743 168.317V56.8767M38.0955 222.961L20 211.344V102.485M38.0955 112.381L133.743 56.8767M38.0955 112.381L20 102.485M133.743 56.8767L116.079 46.9805L20 102.485M83.7652 169.607L74.2866 191.121C69.9782 197.575 65.2389 192.842 67.3931 189.4L76.4409 169.177L79.8876 151.966L80.7493 132.174M83.7652 169.607L86.7812 153.687M83.7652 169.607L86.3409 156.012M86.7812 153.687L86.3409 156.012M86.7812 153.687C88.4654 152.332 89.8323 151.117 90.9384 149.973M86.7812 153.687C88.5344 152.299 89.7822 151.223 90.9384 149.973M95.3981 139.058L96.1866 130.176M95.3981 139.058C95.3533 142.105 94.9117 144.44 93.462 146.803M95.3981 139.058C95.3338 143.434 94.4508 146.342 90.9384 149.973M96.1866 130.176C93.4013 129.889 90.8654 128.658 89.2443 126.392M96.1866 130.176C96.6401 130.223 97.1001 130.245 97.5639 130.242M96.6906 122.278C97.1215 114.103 89.7971 110.23 83.3344 119.696M96.6906 122.278L91.5205 119.696C90.2279 119.266 87.5209 124.24 89.2443 126.392M96.6906 122.278C99.8129 123.577 101.876 122.251 105.844 117.802C107.567 116.941 110.356 121.659 109.063 124.24C106.397 128.113 101.823 130.215 97.5639 130.242M83.3344 119.696C81.4541 123.429 80.8407 126.098 80.7493 132.174M83.3344 119.696L69.1165 133.361L66.6777 151.066C68.8136 153.743 73.6526 151.284 73.6526 149.993L75.1483 137.117L80.7493 132.174M89.2443 126.392C91.1293 129.027 94.2512 130.262 97.5639 130.242M93.462 146.803L96.1534 149.6L98.8449 152.397L97.9832 171.328C97.1215 178.213 90.2279 180.364 89.7971 176.492L90.6588 160.141L86.3409 156.012M93.462 146.803C92.5642 148.074 91.7753 149.069 90.9384 149.973M93.462 146.803C92.8296 147.834 92.0053 148.87 90.9384 149.973M95.712 106.589C92.8325 111.57 88.0838 114.215 85.1054 112.498C82.1271 110.781 82.0469 105.351 84.9264 100.37C87.8059 95.3893 92.5547 92.7438 95.533 94.461C98.5114 96.1783 98.5915 101.608 95.712 106.589Z" stroke="#18282E" stroke-width="4"/>
</g>
<defs>
<filter id="filter0_d_2620_16522" x="-32" y="0.179688" width="217.743" height="280.619" filterUnits="userSpaceOnUse" color-interpolation-filters="sRGB">
<feFlood flood-opacity="0" result="BackgroundImageFix"/>
<feColorMatrix in="SourceAlpha" type="matrix" values="0 0 0 0 0 0 0 0 0 0 0 0 0 0 0 0 0 0 127 0" result="hardAlpha"/>
<feOffset dy="5.5"/>
<feGaussianBlur stdDeviation="25"/>
<feComposite in2="hardAlpha" operator="out"/>
<feColorMatrix type="matrix" values="0 0 0 0 0 0 0 0 0 0 0 0 0 0 0 0 0 0 0.25 0"/>
<feBlend mode="normal" in2="BackgroundImageFix" result="effect1_dropShadow_2620_16522"/>
<feBlend mode="normal" in="SourceGraphic" in2="effect1_dropShadow_2620_16522" result="shape"/>
</filter>
</defs>
</svg>
