<svg width="125" height="168" viewBox="0 0 125 168" fill="none" xmlns="http://www.w3.org/2000/svg">
<g filter="url(#filter0_d_2620_16521)">
<path d="M71.1219 62.6457C69.4058 65.6141 66.5757 67.1908 64.8007 66.1674C63.0257 65.1439 62.9779 61.9079 64.694 58.9396C66.4101 55.9712 69.2402 54.3945 71.0152 55.4179C72.7902 56.4414 72.838 59.6774 71.1219 62.6457Z" fill="#D2EDF7"/>
<path d="M54.2447 111.998C52.9609 114.05 55.7853 116.87 58.353 113.024L64.002 100.203L65.537 92.1001L65.7994 90.7149C66.8031 89.9072 67.6177 89.1829 68.2769 88.5014C70.3702 86.3374 70.8965 84.6042 70.9348 81.9964L71.4047 76.7029C69.7448 76.5318 68.2334 75.7982 67.2673 74.4475C66.2402 73.1653 67.8535 70.2008 68.6238 70.4572L71.7051 71.9958C71.9619 67.1237 67.5968 64.8158 63.7452 70.4572C62.6246 72.6816 62.2591 74.2728 62.2046 77.8936L61.6911 89.6892L59.6369 99.9463L54.2447 111.998Z" fill="#D2EDF7"/>
<path d="M62.2046 77.8936C62.2591 74.2728 62.6246 72.6816 63.7452 70.4572L55.2718 78.6011L53.8184 89.1529C55.0913 90.7479 57.9752 89.2827 57.9752 88.5134L58.8666 80.8394L62.2046 77.8936Z" fill="#D2EDF7"/>
<path d="M71.7051 71.9958L68.6238 70.4572C67.8535 70.2008 66.2402 73.1653 67.2673 74.4475C68.2334 75.7982 69.7448 76.5318 71.4047 76.7029C71.6749 76.7308 71.9491 76.7437 72.2255 76.742C74.7638 76.7262 77.49 75.4732 79.0788 73.1653C79.8491 71.6268 78.1873 68.8154 77.1602 69.3283C74.7953 71.9799 73.5658 72.7698 71.7051 71.9958Z" fill="#D2EDF7"/>
<path fill-rule="evenodd" clip-rule="evenodd" d="M36.7843 132V66.0979L93.7873 33.0189V99.4334L36.7843 132ZM54.2447 111.998C52.9609 114.05 55.7853 116.87 58.353 113.024L64.002 100.203L65.537 92.1001L68.1103 94.5613L67.5968 104.306C67.8535 106.613 71.9619 105.331 72.4754 101.228L72.9889 89.9456L71.3849 88.2789L69.7809 86.6121C70.6449 85.2037 70.9081 83.8121 70.9348 81.9964L71.4047 76.7029C71.6749 76.7308 71.9491 76.7437 72.2255 76.742C74.7638 76.7262 77.49 75.4732 79.0788 73.1653C79.8491 71.6268 78.1873 68.8154 77.1602 69.3283C74.7953 71.9799 73.5658 72.7698 71.7051 71.9958C71.9619 67.1237 67.5968 64.8158 63.7452 70.4572L55.2718 78.6011L53.8184 89.1529C55.0913 90.7479 57.9752 89.2827 57.9752 88.5134L58.8666 80.8394L62.2046 77.8936L61.6911 89.6892L59.6369 99.9463L54.2447 111.998ZM68.2769 88.5014C67.6177 89.1829 66.8031 89.9072 65.7994 90.7149C66.8442 89.8874 67.5879 89.2461 68.2769 88.5014ZM71.1219 62.6457C69.4058 65.6141 66.5757 67.1908 64.8007 66.1674C63.0257 65.1439 62.9779 61.9079 64.694 58.9396C66.4101 55.9712 69.2402 54.3945 71.0152 55.4179C72.7902 56.4414 72.838 59.6774 71.1219 62.6457Z" fill="white"/>
<path d="M65.7994 90.7149L65.537 92.1001L68.1103 94.5613L67.5968 104.306C67.8535 106.613 71.9619 105.331 72.4754 101.228L72.9889 89.9456L71.3849 88.2789L69.7809 86.6121C69.404 87.2265 68.9128 87.8441 68.2769 88.5014C67.5879 89.2461 66.8442 89.8874 65.7994 90.7149Z" fill="#D2EDF7"/>
<path d="M36.7843 66.0979L93.7873 33.0189L83.2597 27.1211L26 60.2001L36.7843 66.0979Z" fill="white"/>
<path d="M36.7843 132V66.0979L26 60.2001V125.076L36.7843 132Z" fill="#D2EDF7"/>
<path d="M36.7843 132V66.0979M36.7843 132L93.7873 99.4334V33.0189M36.7843 132L26 125.076V60.2001M36.7843 66.0979L93.7873 33.0189M36.7843 66.0979L26 60.2001M93.7873 33.0189L83.2597 27.1211L26 60.2001M64.002 100.203L58.353 113.024C55.7853 116.87 52.9609 114.05 54.2447 111.998L59.6369 99.9463L61.6911 89.6892L62.2046 77.8936M64.002 100.203L65.7994 90.7149M64.002 100.203L65.537 92.1001M65.7994 90.7149L65.537 92.1001M65.7994 90.7149C66.8031 89.9072 67.6177 89.1829 68.2769 88.5014M65.7994 90.7149C66.8442 89.8874 67.5879 89.2461 68.2769 88.5014M70.9348 81.9964L71.4047 76.7029M70.9348 81.9964C70.9081 83.8121 70.6449 85.2037 69.7809 86.6121M70.9348 81.9964C70.8965 84.6042 70.3702 86.3374 68.2769 88.5014M71.4047 76.7029C69.7448 76.5318 68.2334 75.7982 67.2673 74.4475M71.4047 76.7029C71.6749 76.7308 71.9491 76.7437 72.2255 76.742M71.7051 71.9958C71.9619 67.1237 67.5968 64.8158 63.7452 70.4572M71.7051 71.9958L68.6238 70.4572C67.8535 70.2008 66.2402 73.1653 67.2673 74.4475M71.7051 71.9958C73.5658 72.7698 74.7953 71.9799 77.1602 69.3283C78.1873 68.8154 79.8491 71.6268 79.0788 73.1653C77.49 75.4732 74.7638 76.7262 72.2255 76.742M63.7452 70.4572C62.6246 72.6816 62.2591 74.2728 62.2046 77.8936M63.7452 70.4572L55.2718 78.6011L53.8184 89.1529C55.0913 90.7479 57.9752 89.2827 57.9752 88.5134L58.8666 80.8394L62.2046 77.8936M67.2673 74.4475C68.3907 76.0181 70.2513 76.7543 72.2255 76.742M69.7809 86.6121L71.3849 88.2789L72.9889 89.9456L72.4754 101.228C71.9619 105.331 67.8535 106.613 67.5968 104.306L68.1103 94.5613L65.537 92.1001M69.7809 86.6121C69.2459 87.3693 68.7757 87.9624 68.2769 88.5014M69.7809 86.6121C69.404 87.2265 68.9128 87.8441 68.2769 88.5014M71.1219 62.6457C69.4058 65.6141 66.5757 67.1908 64.8007 66.1674C63.0257 65.1439 62.9779 61.9079 64.694 58.9396C66.4101 55.9712 69.2402 54.3945 71.0152 55.4179C72.7902 56.4414 72.838 59.6774 71.1219 62.6457Z" stroke="#18282E" stroke-width="2"/>
</g>
<defs>
<filter id="filter0_d_2620_16521" x="-5" y="0.470703" width="129.787" height="167.198" filterUnits="userSpaceOnUse" color-interpolation-filters="sRGB">
<feFlood flood-opacity="0" result="BackgroundImageFix"/>
<feColorMatrix in="SourceAlpha" type="matrix" values="0 0 0 0 0 0 0 0 0 0 0 0 0 0 0 0 0 0 127 0" result="hardAlpha"/>
<feOffset dy="4.5"/>
<feGaussianBlur stdDeviation="15"/>
<feComposite in2="hardAlpha" operator="out"/>
<feColorMatrix type="matrix" values="0 0 0 0 0 0 0 0 0 0 0 0 0 0 0 0 0 0 0.25 0"/>
<feBlend mode="normal" in2="BackgroundImageFix" result="effect1_dropShadow_2620_16521"/>
<feBlend mode="normal" in="SourceGraphic" in2="effect1_dropShadow_2620_16521" result="shape"/>
</filter>
</defs>
</svg>
