<svg width="279" height="241" viewBox="0 0 279 241" fill="none" xmlns="http://www.w3.org/2000/svg">
<g filter="url(#filter0_d_2620_19276)">
<path d="M121.271 98.8063C120.366 102.246 118.798 104.814 117.768 104.542C116.739 104.269 116.639 101.26 117.544 97.8201C118.449 94.3802 120.018 91.8124 121.047 92.0847C122.076 92.357 122.177 95.3664 121.271 98.8063Z" fill="#FEFACC"/>
<path d="M131.152 137.39C129.332 140.444 127.115 142.476 126.202 141.928C125.288 141.381 126.023 138.461 127.843 135.407C129.663 132.354 131.88 130.322 132.793 130.869C133.707 131.417 132.972 134.336 131.152 137.39Z" fill="#FEFACC"/>
<path d="M168.447 120.024C165.059 121.081 162.057 121.113 161.74 120.094C161.424 119.075 163.913 117.391 167.301 116.333C170.688 115.275 173.691 115.244 174.008 116.263C174.324 117.282 171.835 118.966 168.447 120.024Z" fill="#FEFACC"/>
<path d="M204.181 119.899C203.112 116.507 203.068 113.496 204.083 113.175C205.098 112.853 206.788 115.343 207.857 118.735C208.926 122.127 208.97 125.138 207.955 125.46C206.94 125.781 205.25 123.292 204.181 119.899Z" fill="#FEFACC"/>
<path d="M175.075 89.4008C178.322 90.8361 180.606 92.7914 180.176 93.7679C179.747 94.7445 176.767 94.3727 173.52 92.9374C170.274 91.502 167.99 89.5468 168.419 88.5702C168.849 87.5936 171.829 87.9655 175.075 89.4008Z" fill="#FEFACC"/>
<path d="M166.223 142.003C169.72 142.608 172.408 143.951 172.227 145.003C172.046 146.055 169.065 146.417 165.568 145.812C162.072 145.207 159.384 143.865 159.565 142.813C159.746 141.761 162.727 141.399 166.223 142.003Z" fill="#FEFACC"/>
<path d="M99.5013 125.465C102.464 127.422 104.392 129.731 103.806 130.622C103.221 131.514 100.344 130.65 97.381 128.693C94.4178 126.736 92.4903 124.427 93.0758 123.536C93.6613 122.645 96.5381 123.508 99.5013 125.465Z" fill="#FEFACC"/>
<path d="M74.2847 111.908C77.716 112.814 80.2779 114.385 80.0069 115.417C79.736 116.449 76.7347 116.552 73.3035 115.646C69.8722 114.74 67.3102 113.17 67.5812 112.137C67.8522 111.105 70.8534 111.003 74.2847 111.908Z" fill="#FEFACC"/>
<path d="M97.8645 85.1767C101.223 84.0297 104.224 83.9189 104.567 84.9292C104.91 85.9395 102.466 87.6884 99.1072 88.8354C95.7485 89.9824 92.7476 90.0932 92.4044 89.0829C92.0612 88.0726 94.5058 86.3237 97.8645 85.1767Z" fill="#FEFACC"/>
<path d="M148.339 90.6533C150.835 88.1241 153.471 86.6823 154.228 87.433C154.984 88.1836 153.575 90.8424 151.08 93.3715C148.584 95.9007 145.948 97.3424 145.191 96.5918C144.434 95.8412 145.844 93.1824 148.339 90.6533Z" fill="#FEFACC"/>
<path d="M128.998 65.2733C131.493 62.7441 134.13 61.3024 134.886 62.053C135.643 62.8036 134.234 65.4624 131.738 67.9916C129.243 70.5207 126.606 71.9625 125.85 71.2118C125.093 70.4612 126.503 67.8024 128.998 65.2733Z" fill="#FEFACC"/>
<path fill-rule="evenodd" clip-rule="evenodd" d="M164.379 50.3216C162.131 48.3894 155.064 46.087 147.997 47.4228C121.918 52.3536 104.964 60.1487 92.0687 71.5811C85.8573 77.0879 80.5879 83.4387 75.6945 90.7198C71.0372 97.6495 66.7206 105.422 62.2566 114.111C63.3526 135.502 97.5809 152.67 139.645 152.67C182.339 152.67 216.961 134.984 217.06 113.147L197.541 86.7529L186.223 71.4484C177.675 60.6392 172.788 55.9299 164.379 50.3216ZM117.768 104.542C118.798 104.814 120.366 102.246 121.271 98.8063C122.177 95.3664 122.076 92.357 121.047 92.0847C120.018 91.8124 118.449 94.3802 117.544 97.8201C116.639 101.26 116.739 104.269 117.768 104.542ZM126.202 141.928C127.115 142.476 129.332 140.444 131.152 137.39C132.972 134.336 133.707 131.417 132.793 130.869C131.88 130.322 129.663 132.354 127.843 135.407C126.023 138.461 125.288 141.381 126.202 141.928ZM161.74 120.094C162.057 121.113 165.059 121.081 168.447 120.024C171.835 118.966 174.324 117.282 174.008 116.263C173.691 115.244 170.688 115.275 167.301 116.333C163.913 117.391 161.424 119.075 161.74 120.094ZM204.083 113.175C203.068 113.496 203.112 116.507 204.181 119.899C205.25 123.292 206.94 125.781 207.955 125.46C208.97 125.138 208.926 122.127 207.857 118.735C206.788 115.343 205.098 112.853 204.083 113.175ZM180.176 93.7679C180.606 92.7914 178.322 90.8361 175.075 89.4008C171.829 87.9655 168.849 87.5936 168.419 88.5702C167.99 89.5468 170.274 91.502 173.52 92.9374C176.767 94.3727 179.747 94.7445 180.176 93.7679ZM172.227 145.003C172.408 143.951 169.72 142.608 166.223 142.003C162.727 141.399 159.746 141.761 159.565 142.813C159.384 143.865 162.072 145.207 165.568 145.812C169.065 146.417 172.046 146.055 172.227 145.003ZM103.806 130.622C104.392 129.731 102.464 127.422 99.5013 125.465C96.5381 123.508 93.6613 122.645 93.0758 123.536C92.4903 124.427 94.4178 126.736 97.381 128.693C100.344 130.65 103.221 131.514 103.806 130.622ZM80.0069 115.417C80.2779 114.385 77.716 112.814 74.2847 111.908C70.8534 111.003 67.8522 111.105 67.5812 112.137C67.3102 113.17 69.8722 114.74 73.3035 115.646C76.7347 116.552 79.736 116.449 80.0069 115.417ZM104.567 84.9292C104.224 83.9189 101.223 84.0297 97.8645 85.1767C94.5058 86.3237 92.0612 88.0726 92.4044 89.0829C92.7476 90.0932 95.7485 89.9824 99.1072 88.8354C102.466 87.6884 104.91 85.9395 104.567 84.9292ZM154.228 87.433C153.471 86.6823 150.835 88.1241 148.339 90.6533C145.844 93.1824 144.434 95.8412 145.191 96.5918C145.948 97.3424 148.584 95.9007 151.08 93.3715C153.575 90.8424 154.984 88.1836 154.228 87.433ZM134.886 62.053C134.13 61.3024 131.493 62.7441 128.998 65.2733C126.503 67.8024 125.093 70.4612 125.85 71.2118C126.606 71.9625 129.243 70.5207 131.738 67.9916C134.234 65.4624 135.643 62.8036 134.886 62.053ZM155.148 70.5358C156.062 71.0833 158.278 69.0516 160.099 65.9977C161.919 62.9439 162.654 60.0244 161.74 59.4769C160.826 58.9293 158.61 60.9611 156.79 64.0149C154.97 67.0687 154.235 69.9882 155.148 70.5358Z" fill="white"/>
<path d="M52.5928 113.451C52.5928 161.302 91.4235 200.737 139.324 200.737C187.224 200.737 226.054 161.302 226.054 113.451C226.054 116.757 225.496 119.988 224.431 123.114C216.612 146.062 181.48 163.374 139.324 163.374C99.5682 163.374 66.0602 147.978 55.8145 126.978C53.7155 122.676 52.5928 118.139 52.5928 113.451Z" fill="#FEFACC"/>
<path d="M55.8145 126.978C66.0602 147.978 99.5682 163.374 139.324 163.374C181.48 163.374 216.612 146.062 224.431 123.114C225.496 119.988 226.054 116.757 226.054 113.451C226.054 95.8246 210.185 80.332 186.223 71.4484L197.541 86.7529C209.684 93.7484 217.06 102.96 217.06 113.053L217.06 113.147C216.961 134.984 182.339 152.67 139.645 152.67C97.5809 152.67 63.3526 135.502 62.2566 114.111C62.2386 113.76 62.2295 113.407 62.2295 113.053C62.2295 104.769 67.1985 97.0785 75.6945 90.7198C80.5879 83.4387 85.8573 77.0879 92.0687 71.5811C68.3048 80.4857 52.5928 95.9121 52.5928 113.451C52.5928 118.139 53.7155 122.676 55.8145 126.978Z" fill="white"/>
<path d="M75.6945 90.7198C67.1985 97.0785 62.2295 104.769 62.2295 113.053C62.2295 113.407 62.2386 113.76 62.2566 114.111C66.7206 105.422 71.0372 97.6495 75.6945 90.7198Z" fill="#FEFACC"/>
<path d="M217.06 113.053C217.06 102.96 209.684 93.7484 197.541 86.7529L217.06 113.147L217.06 113.053Z" fill="#FEFACC"/>
<path d="M160.099 65.9977C158.278 69.0516 156.062 71.0833 155.148 70.5358C154.235 69.9882 154.97 67.0687 156.79 64.0149C158.61 60.9611 160.826 58.9293 161.74 59.4769C162.654 60.0244 161.919 62.9439 160.099 65.9977Z" fill="#FEFACC"/>
<path d="M52.5928 113.451C52.5928 161.302 91.4235 200.737 139.324 200.737C187.224 200.737 226.054 161.302 226.054 113.451M52.5928 113.451C52.5928 118.139 53.7155 122.676 55.8145 126.978C66.0602 147.978 99.5682 163.374 139.324 163.374C181.48 163.374 216.612 146.062 224.431 123.114C225.496 119.988 226.054 116.757 226.054 113.451M52.5928 113.451C52.5928 95.9121 68.3048 80.4857 92.0687 71.5811M226.054 113.451C226.054 95.8246 210.185 80.332 186.223 71.4484M186.223 71.4484C177.675 60.6392 172.788 55.9299 164.379 50.3216C162.131 48.3894 155.064 46.087 147.997 47.4228C121.918 52.3536 104.964 60.1487 92.0687 71.5811M186.223 71.4484L197.541 86.7529M92.0687 71.5811C85.8573 77.0879 80.5879 83.4387 75.6945 90.7198M217.06 113.053C217.06 102.96 209.684 93.7484 197.541 86.7529M217.06 113.053C217.06 113.085 217.06 113.116 217.06 113.147M217.06 113.053L217.06 113.147M197.541 86.7529L217.06 113.147M75.6945 90.7198C67.1985 97.0785 62.2295 104.769 62.2295 113.053C62.2295 113.407 62.2386 113.76 62.2566 114.111M75.6945 90.7198C71.0372 97.6495 66.7206 105.422 62.2566 114.111M62.2566 114.111C63.3526 135.502 97.5809 152.67 139.645 152.67C182.339 152.67 216.961 134.984 217.06 113.147M121.271 98.8063C120.366 102.246 118.798 104.814 117.768 104.542C116.739 104.269 116.639 101.26 117.544 97.8201C118.449 94.3802 120.018 91.8124 121.047 92.0847C122.076 92.357 122.177 95.3664 121.271 98.8063ZM131.152 137.39C129.332 140.444 127.115 142.476 126.202 141.928C125.288 141.381 126.023 138.461 127.843 135.407C129.663 132.354 131.88 130.322 132.793 130.869C133.707 131.417 132.972 134.336 131.152 137.39ZM168.447 120.024C165.059 121.081 162.057 121.113 161.74 120.094C161.424 119.075 163.913 117.391 167.301 116.333C170.688 115.275 173.691 115.244 174.008 116.263C174.324 117.282 171.835 118.966 168.447 120.024ZM204.181 119.899C203.112 116.507 203.068 113.496 204.083 113.175C205.098 112.853 206.788 115.343 207.857 118.735C208.926 122.127 208.97 125.138 207.955 125.46C206.94 125.781 205.25 123.292 204.181 119.899ZM175.075 89.4008C178.322 90.8361 180.606 92.7914 180.176 93.7679C179.747 94.7445 176.767 94.3727 173.52 92.9374C170.274 91.502 167.99 89.5468 168.419 88.5702C168.849 87.5936 171.829 87.9655 175.075 89.4008ZM166.223 142.003C169.72 142.608 172.408 143.951 172.227 145.003C172.046 146.055 169.065 146.417 165.568 145.812C162.072 145.207 159.384 143.865 159.565 142.813C159.746 141.761 162.727 141.399 166.223 142.003ZM99.5013 125.465C102.464 127.422 104.392 129.731 103.806 130.622C103.221 131.514 100.344 130.65 97.3809 128.693C94.4178 126.736 92.4903 124.427 93.0758 123.536C93.6613 122.645 96.5381 123.508 99.5013 125.465ZM74.2847 111.908C77.716 112.814 80.2779 114.385 80.0069 115.417C79.736 116.449 76.7347 116.552 73.3035 115.646C69.8722 114.74 67.3102 113.17 67.5812 112.137C67.8522 111.105 70.8534 111.003 74.2847 111.908ZM97.8645 85.1767C101.223 84.0297 104.224 83.9189 104.567 84.9292C104.91 85.9395 102.466 87.6884 99.1072 88.8354C95.7485 89.9824 92.7476 90.0932 92.4044 89.0829C92.0612 88.0726 94.5058 86.3237 97.8645 85.1767ZM148.339 90.6533C150.835 88.1241 153.471 86.6823 154.228 87.433C154.984 88.1836 153.575 90.8424 151.08 93.3715C148.584 95.9007 145.948 97.3424 145.191 96.5918C144.434 95.8412 145.844 93.1824 148.339 90.6533ZM128.998 65.2733C131.493 62.7441 134.13 61.3024 134.886 62.053C135.643 62.8036 134.234 65.4624 131.738 67.9916C129.243 70.5207 126.606 71.9625 125.85 71.2118C125.093 70.4612 126.503 67.8024 128.998 65.2733ZM160.099 65.9977C158.278 69.0516 156.062 71.0833 155.148 70.5358C154.235 69.9882 154.97 67.0687 156.79 64.0149C158.61 60.961 160.826 58.9293 161.74 59.4769C162.654 60.0244 161.919 62.9439 160.099 65.9977Z" stroke="#333015" stroke-width="4"/>
</g>
<defs>
<filter id="filter0_d_2620_19276" x="0.592773" y="0.525391" width="277.462" height="257.711" filterUnits="userSpaceOnUse" color-interpolation-filters="sRGB">
<feFlood flood-opacity="0" result="BackgroundImageFix"/>
<feColorMatrix in="SourceAlpha" type="matrix" values="0 0 0 0 0 0 0 0 0 0 0 0 0 0 0 0 0 0 127 0" result="hardAlpha"/>
<feOffset dy="5.5"/>
<feGaussianBlur stdDeviation="25"/>
<feComposite in2="hardAlpha" operator="out"/>
<feColorMatrix type="matrix" values="0 0 0 0 0 0 0 0 0 0 0 0 0 0 0 0 0 0 0.25 0"/>
<feBlend mode="normal" in2="BackgroundImageFix" result="effect1_dropShadow_2620_19276"/>
<feBlend mode="normal" in="SourceGraphic" in2="effect1_dropShadow_2620_19276" result="shape"/>
</filter>
</defs>
</svg>
