<svg width="92" height="92" viewBox="0 0 92 92" fill="none" xmlns="http://www.w3.org/2000/svg">
<g filter="url(#filter0_d_2620_19281)">
<path d="M39.9842 36.9109C39.6711 38.1008 39.1286 38.989 38.7726 38.8948C38.4166 38.8006 38.3819 37.7596 38.695 36.5698C39.0082 35.3799 39.5506 34.4917 39.9066 34.5859C40.2626 34.6801 40.2974 35.721 39.9842 36.9109Z" fill="#FEFACC"/>
<path d="M43.4019 50.257C42.7723 51.3133 42.0057 52.0161 41.6897 51.8267C41.3736 51.6373 41.6278 50.6274 42.2574 49.5711C42.8871 48.5148 43.6537 47.812 43.9697 48.0014C44.2858 48.1908 44.0316 49.2007 43.4019 50.257Z" fill="#FEFACC"/>
<path d="M56.3023 44.2499C55.1305 44.6158 54.0918 44.6268 53.9823 44.2743C53.8728 43.9218 54.734 43.3394 55.9058 42.9734C57.0775 42.6075 58.1162 42.5966 58.2257 42.949C58.3352 43.3015 57.474 43.8839 56.3023 44.2499Z" fill="#FEFACC"/>
<path d="M68.6626 44.207C68.2928 43.0336 68.2777 41.9922 68.6287 41.8809C68.9798 41.7697 69.5642 42.6308 69.934 43.8042C70.3038 44.9776 70.3189 46.019 69.9678 46.1302C69.6167 46.2414 69.0324 45.3804 68.6626 44.207Z" fill="#FEFACC"/>
<path d="M58.5949 33.6576C59.7179 34.154 60.5079 34.8303 60.3593 35.1681C60.2108 35.5059 59.18 35.3773 58.057 34.8808C56.934 34.3844 56.1441 33.7081 56.2926 33.3703C56.4412 33.0325 57.4719 33.1611 58.5949 33.6576Z" fill="#FEFACC"/>
<path d="M55.5331 51.8527C56.7425 52.0619 57.6722 52.5264 57.6096 52.8902C57.547 53.254 56.5158 53.3793 55.3064 53.1701C54.097 52.9609 53.1673 52.4964 53.2299 52.1326C53.2925 51.7688 54.3236 51.6435 55.5331 51.8527Z" fill="#FEFACC"/>
<path d="M32.454 46.1322C33.479 46.8091 34.1457 47.6077 33.9432 47.916C33.7407 48.2244 32.7456 47.9256 31.7206 47.2487C30.6957 46.5718 30.029 45.7731 30.2315 45.4648C30.434 45.1565 31.4291 45.4553 32.454 46.1322Z" fill="#FEFACC"/>
<path d="M23.7317 41.4429C24.9186 41.7561 25.8047 42.2995 25.711 42.6565C25.6173 43.0135 24.5792 43.049 23.3923 42.7357C22.2054 42.4225 21.3193 41.8791 21.413 41.5221C21.5067 41.1651 22.5448 41.1296 23.7317 41.4429Z" fill="#FEFACC"/>
<path d="M31.8879 32.1964C33.0496 31.7997 34.0877 31.7614 34.2064 32.1108C34.3251 32.4603 33.4795 33.0652 32.3178 33.462C31.156 33.8587 30.118 33.897 29.9993 33.5476C29.8806 33.1981 30.7261 32.5932 31.8879 32.1964Z" fill="#FEFACC"/>
<path d="M49.347 34.0908C50.2102 33.216 51.1221 32.7172 51.3838 32.9769C51.6456 33.2365 51.158 34.1562 50.2949 35.031C49.4317 35.9058 48.5198 36.4045 48.2581 36.1449C47.9963 35.8853 48.4839 34.9656 49.347 34.0908Z" fill="#FEFACC"/>
<path d="M42.6569 25.3119C43.52 24.4371 44.432 23.9384 44.6937 24.198C44.9554 24.4577 44.4679 25.3773 43.6047 26.2522C42.7416 27.127 41.8297 27.6257 41.5679 27.366C41.3062 27.1064 41.7937 26.1867 42.6569 25.3119Z" fill="#FEFACC"/>
<path fill-rule="evenodd" clip-rule="evenodd" d="M54.8952 20.1401C54.1174 19.4718 51.673 18.6754 49.2285 19.1375C40.2081 20.843 34.3435 23.5393 29.8831 27.4937C27.7346 29.3986 25.912 31.5953 24.2193 34.1138C22.6084 36.5108 21.1153 39.1992 19.5712 42.2049C19.9503 49.6039 31.7898 55.5423 46.3396 55.5423C61.1075 55.5423 73.0832 49.4246 73.1173 41.8713L66.3657 32.7416L62.4507 27.4478C59.4942 23.709 57.8037 22.08 54.8952 20.1401ZM38.7726 38.8948C39.1286 38.989 39.6711 38.1008 39.9842 36.9109C40.2974 35.721 40.2626 34.6801 39.9066 34.5859C39.5506 34.4917 39.0082 35.3799 38.695 36.5698C38.3819 37.7596 38.4166 38.8006 38.7726 38.8948ZM41.6897 51.8267C42.0057 52.0161 42.7723 51.3133 43.4019 50.257C44.0316 49.2007 44.2858 48.1908 43.9697 48.0014C43.6537 47.812 42.8871 48.5148 42.2574 49.5711C41.6278 50.6274 41.3736 51.6373 41.6897 51.8267ZM53.9823 44.2743C54.0918 44.6268 55.1305 44.6158 56.3023 44.2499C57.474 43.8839 58.3352 43.3015 58.2257 42.949C58.1162 42.5966 57.0775 42.6075 55.9058 42.9734C54.734 43.3394 53.8728 43.9218 53.9823 44.2743ZM68.6287 41.8809C68.2777 41.9922 68.2928 43.0336 68.6626 44.207C69.0324 45.3804 69.6167 46.2414 69.9678 46.1302C70.3189 46.019 70.3038 44.9776 69.934 43.8042C69.5642 42.6308 68.9798 41.7697 68.6287 41.8809ZM60.3593 35.1681C60.5079 34.8303 59.7179 34.154 58.5949 33.6576C57.4719 33.1611 56.4412 33.0325 56.2926 33.3703C56.1441 33.7081 56.934 34.3844 58.057 34.8808C59.18 35.3773 60.2108 35.5059 60.3593 35.1681ZM57.6096 52.8902C57.6722 52.5264 56.7425 52.0619 55.5331 51.8527C54.3236 51.6435 53.2925 51.7688 53.2299 52.1326C53.1673 52.4964 54.097 52.9609 55.3064 53.1701C56.5158 53.3793 57.547 53.254 57.6096 52.8902ZM33.9432 47.916C34.1457 47.6077 33.479 46.8091 32.454 46.1322C31.4291 45.4553 30.434 45.1565 30.2315 45.4648C30.029 45.7731 30.6957 46.5718 31.7206 47.2487C32.7456 47.9256 33.7407 48.2244 33.9432 47.916ZM25.711 42.6565C25.8047 42.2995 24.9186 41.7561 23.7317 41.4429C22.5448 41.1296 21.5067 41.1651 21.413 41.5221C21.3193 41.8791 22.2054 42.4225 23.3923 42.7357C24.5792 43.049 25.6173 43.0135 25.711 42.6565ZM34.2064 32.1108C34.0877 31.7614 33.0496 31.7997 31.8879 32.1964C30.7261 32.5932 29.8806 33.1981 29.9993 33.5476C30.118 33.897 31.156 33.8587 32.3178 33.462C33.4795 33.0652 34.3251 32.4603 34.2064 32.1108ZM51.3838 32.9769C51.1221 32.7172 50.2102 33.216 49.347 34.0908C48.4839 34.9656 47.9963 35.8853 48.2581 36.1449C48.5198 36.4045 49.4317 35.9058 50.2949 35.031C51.158 34.1562 51.6456 33.2365 51.3838 32.9769ZM44.6937 24.198C44.432 23.9384 43.52 24.4371 42.6569 25.3119C41.7937 26.1867 41.3062 27.1064 41.5679 27.366C41.8297 27.6257 42.7416 27.127 43.6047 26.2522C44.4679 25.3773 44.9554 24.4577 44.6937 24.198ZM51.7022 27.1322C52.0183 27.3216 52.7849 26.6188 53.4145 25.5625C54.0442 24.5062 54.2984 23.4963 53.9823 23.3069C53.6663 23.1175 52.8997 23.8203 52.27 24.8766C51.6404 25.9329 51.3862 26.9428 51.7022 27.1322Z" fill="white"/>
<path d="M16.2285 41.9764C16.2285 58.5279 29.66 72.1683 46.2285 72.1683C62.7971 72.1683 76.2285 58.5279 76.2285 41.9764C76.2285 43.1199 76.0354 44.2375 75.6669 45.3189C72.9624 53.2564 60.8104 59.2448 46.2285 59.2448C32.4772 59.2448 20.8869 53.9192 17.3429 46.6556C16.6168 45.1675 16.2285 43.598 16.2285 41.9764Z" fill="#FEFACC"/>
<path d="M17.3429 46.6556C20.8869 53.9192 32.4772 59.2448 46.2285 59.2448C60.8104 59.2448 72.9624 53.2564 75.6669 45.3189C76.0354 44.2375 76.2285 43.1199 76.2285 41.9764C76.2285 35.8795 70.7394 30.5207 62.4507 27.4478L66.3657 32.7416C70.5661 35.1614 73.1174 38.3477 73.1174 41.8389L73.1173 41.8713C73.0832 49.4246 61.1075 55.5423 46.3396 55.5423C31.7898 55.5423 19.9503 49.6039 19.5712 42.2049C19.565 42.0833 19.5618 41.9613 19.5618 41.8389C19.5618 38.9734 21.2806 36.3132 24.2193 34.1138C25.912 31.5953 27.7346 29.3986 29.8831 27.4937C21.6633 30.5739 16.2285 35.9098 16.2285 41.9764C16.2285 43.598 16.6168 45.1675 17.3429 46.6556Z" fill="white"/>
<path d="M24.2193 34.1138C21.2806 36.3132 19.5618 38.9734 19.5618 41.8389C19.5618 41.9613 19.565 42.0833 19.5712 42.2049C21.1153 39.1992 22.6084 36.5108 24.2193 34.1138Z" fill="#FEFACC"/>
<path d="M73.1174 41.8389C73.1174 38.3477 70.5661 35.1614 66.3657 32.7416L73.1173 41.8713L73.1174 41.8389Z" fill="#FEFACC"/>
<path d="M53.4145 25.5625C52.7849 26.6188 52.0183 27.3216 51.7022 27.1322C51.3862 26.9428 51.6404 25.9329 52.27 24.8766C52.8997 23.8203 53.6663 23.1175 53.9823 23.3069C54.2984 23.4963 54.0442 24.5062 53.4145 25.5625Z" fill="#FEFACC"/>
<path d="M16.2285 41.9764C16.2285 58.5279 29.66 72.1683 46.2285 72.1683C62.7971 72.1683 76.2285 58.5279 76.2285 41.9764M16.2285 41.9764C16.2285 43.598 16.6168 45.1675 17.3429 46.6556C20.8869 53.9192 32.4772 59.2448 46.2285 59.2448C60.8104 59.2448 72.9624 53.2564 75.6669 45.3189C76.0354 44.2375 76.2285 43.1199 76.2285 41.9764M16.2285 41.9764C16.2285 35.9098 21.6633 30.5739 29.8831 27.4937M76.2285 41.9764C76.2285 35.8795 70.7394 30.5207 62.4507 27.4478M62.4507 27.4478C59.4942 23.709 57.8037 22.08 54.8952 20.1401C54.1174 19.4718 51.673 18.6754 49.2285 19.1375C40.2081 20.843 34.3435 23.5393 29.8831 27.4937M62.4507 27.4478L66.3657 32.7416M29.8831 27.4937C27.7346 29.3986 25.912 31.5953 24.2193 34.1138M73.1174 41.8389C73.1174 38.3477 70.5661 35.1614 66.3657 32.7416M73.1174 41.8389C73.1174 41.8497 73.1174 41.8605 73.1173 41.8713M73.1174 41.8389L73.1173 41.8713M66.3657 32.7416L73.1173 41.8713M24.2193 34.1138C21.2806 36.3132 19.5618 38.9734 19.5618 41.8389C19.5618 41.9613 19.565 42.0833 19.5712 42.2049M24.2193 34.1138C22.6084 36.5108 21.1153 39.1992 19.5712 42.2049M19.5712 42.2049C19.9503 49.6039 31.7898 55.5423 46.3396 55.5423C61.1075 55.5423 73.0832 49.4246 73.1173 41.8713M39.9842 36.9109C39.6711 38.1008 39.1286 38.989 38.7726 38.8948C38.4166 38.8006 38.3819 37.7596 38.695 36.5698C39.0082 35.3799 39.5506 34.4917 39.9066 34.5859C40.2626 34.6801 40.2974 35.721 39.9842 36.9109ZM43.4019 50.257C42.7723 51.3133 42.0057 52.0161 41.6897 51.8267C41.3736 51.6373 41.6278 50.6274 42.2574 49.5711C42.8871 48.5148 43.6537 47.812 43.9697 48.0014C44.2858 48.1908 44.0316 49.2007 43.4019 50.257ZM56.3023 44.2499C55.1305 44.6158 54.0918 44.6268 53.9823 44.2743C53.8728 43.9218 54.734 43.3394 55.9058 42.9734C57.0775 42.6075 58.1162 42.5966 58.2257 42.949C58.3352 43.3015 57.474 43.8839 56.3023 44.2499ZM68.6626 44.207C68.2928 43.0336 68.2777 41.9922 68.6287 41.8809C68.9798 41.7697 69.5642 42.6308 69.934 43.8042C70.3038 44.9776 70.3189 46.019 69.9678 46.1302C69.6167 46.2414 69.0324 45.3804 68.6626 44.207ZM58.5949 33.6576C59.7179 34.154 60.5079 34.8303 60.3593 35.1681C60.2108 35.5059 59.18 35.3773 58.057 34.8808C56.934 34.3844 56.1441 33.7081 56.2926 33.3703C56.4412 33.0325 57.4719 33.1611 58.5949 33.6576ZM55.5331 51.8527C56.7425 52.0619 57.6722 52.5264 57.6096 52.8902C57.547 53.254 56.5158 53.3793 55.3064 53.1701C54.097 52.9609 53.1673 52.4964 53.2299 52.1326C53.2925 51.7688 54.3236 51.6435 55.5331 51.8527ZM32.454 46.1322C33.479 46.8091 34.1457 47.6077 33.9432 47.916C33.7407 48.2244 32.7456 47.9256 31.7206 47.2487C30.6957 46.5718 30.029 45.7731 30.2315 45.4648C30.434 45.1565 31.4291 45.4553 32.454 46.1322ZM23.7317 41.4429C24.9186 41.7561 25.8047 42.2995 25.711 42.6565C25.6173 43.0135 24.5792 43.049 23.3923 42.7357C22.2054 42.4225 21.3193 41.8791 21.413 41.5221C21.5067 41.1651 22.5448 41.1296 23.7317 41.4429ZM31.8879 32.1964C33.0496 31.7997 34.0877 31.7614 34.2064 32.1108C34.3251 32.4603 33.4795 33.0652 32.3178 33.462C31.156 33.8587 30.118 33.897 29.9993 33.5476C29.8806 33.1981 30.7261 32.5932 31.8879 32.1964ZM49.347 34.0908C50.2102 33.2159 51.1221 32.7172 51.3838 32.9769C51.6456 33.2365 51.158 34.1562 50.2949 35.031C49.4317 35.9058 48.5198 36.4045 48.2581 36.1449C47.9963 35.8853 48.4839 34.9656 49.347 34.0908ZM42.6569 25.3119C43.52 24.4371 44.432 23.9384 44.6937 24.198C44.9554 24.4577 44.4679 25.3773 43.6047 26.2522C42.7416 27.127 41.8297 27.6257 41.5679 27.366C41.3062 27.1064 41.7937 26.1867 42.6569 25.3119ZM53.4145 25.5625C52.7849 26.6188 52.0183 27.3216 51.7022 27.1322C51.3862 26.9428 51.6404 25.9329 52.27 24.8766C52.8997 23.8203 53.6663 23.1175 53.9823 23.3069C54.2984 23.4963 54.0442 24.5062 53.4145 25.5625Z" stroke="#333015" stroke-width="1.25"/>
</g>
<defs>
<filter id="filter0_d_2620_19281" x="3.60352" y="10.375" width="85.25" height="78.418" filterUnits="userSpaceOnUse" color-interpolation-filters="sRGB">
<feFlood flood-opacity="0" result="BackgroundImageFix"/>
<feColorMatrix in="SourceAlpha" type="matrix" values="0 0 0 0 0 0 0 0 0 0 0 0 0 0 0 0 0 0 127 0" result="hardAlpha"/>
<feOffset dy="4"/>
<feGaussianBlur stdDeviation="6"/>
<feComposite in2="hardAlpha" operator="out"/>
<feColorMatrix type="matrix" values="0 0 0 0 0 0 0 0 0 0 0 0 0 0 0 0 0 0 0.25 0"/>
<feBlend mode="normal" in2="BackgroundImageFix" result="effect1_dropShadow_2620_19281"/>
<feBlend mode="normal" in="SourceGraphic" in2="effect1_dropShadow_2620_19281" result="shape"/>
</filter>
</defs>
</svg>
