<svg width="268" height="280" viewBox="0 0 268 280" fill="none" xmlns="http://www.w3.org/2000/svg">
<g filter="url(#filter0_d_2620_16538)">
<path d="M63.9772 174.222V109.851L52.5566 102.584V165.253C52.5566 167.554 53.9011 169.642 55.9953 170.594L63.9772 174.222Z" fill="#D2EDF7"/>
<path d="M120.042 206.407L92.0095 190.314L63.9772 174.222V186.399C63.9772 188.5 65.1007 190.44 66.9227 191.486L120.042 221.98V206.407Z" fill="#D2EDF7"/>
<path d="M72.2831 150.224C72.2831 154.699 77.0934 157.526 81.0034 155.349L151.292 116.201C153.151 115.165 154.303 113.204 154.303 111.076V77.4317C154.303 72.9187 149.42 70.0961 145.51 72.3485L75.2214 112.831C73.4034 113.878 72.2831 115.816 72.2831 117.914V150.224Z" fill="#D2EDF7"/>
<path d="M93.2639 168.24C89.5714 170.521 89.5483 175.883 93.2209 178.195L96.1814 180.059C98.0761 181.252 100.485 181.263 102.389 180.086L108.924 176.05C112.617 173.769 112.64 168.408 108.967 166.095L106.007 164.231C104.112 163.038 101.703 163.028 99.7985 164.204L93.2639 168.24Z" fill="#D2EDF7"/>
<path d="M121.296 152.148C117.604 154.429 117.581 159.79 121.253 162.103L124.214 163.967C126.108 165.16 128.517 165.17 130.422 163.993L137.913 159.366C141.164 157.358 141.185 152.638 137.951 150.602L134.039 148.139C132.144 146.946 129.736 146.935 127.831 148.112L121.296 152.148Z" fill="#D2EDF7"/>
<path fill-rule="evenodd" clip-rule="evenodd" d="M63.9772 174.222V109.851L52.5566 102.584L146.311 47.6414C148.054 46.6201 150.2 46.5674 151.991 47.5017L161.052 52.2294V118.676L63.9772 174.222ZM120.042 206.407L215.559 148.785V163.06C215.559 165.15 214.448 167.081 212.642 168.131L120.042 221.98V206.407ZM72.2831 150.224C72.2831 154.699 77.0934 157.526 81.0034 155.349L151.292 116.201C153.151 115.165 154.303 113.204 154.303 111.076V77.4317C154.303 72.9187 149.42 70.0961 145.51 72.3485L75.2214 112.831C73.4034 113.878 72.2831 115.816 72.2831 117.914V150.224Z" fill="white"/>
<path d="M121.73 193.296C123.573 194.34 125.836 194.31 127.651 193.216L189.058 156.197C192.958 153.846 192.808 148.141 188.79 145.998L185.256 144.113C183.443 143.146 181.257 143.198 179.493 144.249L117.812 180.995C113.946 183.299 114.007 188.919 117.923 191.138L121.73 193.296Z" fill="#D2EDF7"/>
<path fill-rule="evenodd" clip-rule="evenodd" d="M120.042 206.407L215.559 148.785L161.052 118.676L63.9772 174.222L92.0095 190.314L120.042 206.407ZM188.79 145.998C192.808 148.141 192.958 153.846 189.058 156.197L127.651 193.216C125.836 194.31 123.573 194.34 121.73 193.296L117.923 191.138C114.007 188.919 113.946 183.299 117.812 180.995L179.493 144.249C181.257 143.198 183.443 143.146 185.256 144.113L188.79 145.998ZM102.389 180.086C100.485 181.263 98.0761 181.252 96.1814 180.059L93.2209 178.195C89.5483 175.883 89.5714 170.521 93.2639 168.24L99.7985 164.204C101.703 163.028 104.112 163.038 106.007 164.231L108.967 166.095C112.64 168.408 112.617 173.769 108.924 176.05L102.389 180.086ZM130.422 163.993C128.517 165.17 126.108 165.16 124.214 163.967L121.253 162.103C117.581 159.79 117.604 154.429 121.296 152.148L127.831 148.112C129.736 146.935 132.144 146.946 134.039 148.139L137.951 150.602C141.185 152.638 141.164 157.358 137.913 159.366L130.422 163.993ZM158.454 146.863C156.549 148.039 154.141 148.029 152.246 146.836L149.285 144.972C145.613 142.659 145.636 137.298 149.328 135.017L155.863 130.981C157.768 129.804 160.176 129.815 162.071 131.008L165.032 132.872C168.704 135.184 168.681 140.546 164.989 142.827L158.454 146.863Z" fill="white"/>
<path d="M149.328 135.017C145.636 137.298 145.613 142.659 149.285 144.972L152.246 146.836C154.141 148.029 156.549 148.039 158.454 146.863L164.989 142.827C168.681 140.546 168.704 135.184 165.032 132.872L162.071 131.008C160.176 129.815 157.768 129.804 155.863 130.981L149.328 135.017Z" fill="#D2EDF7"/>
<path d="M63.9772 109.851V174.222M63.9772 109.851L52.5566 102.584M63.9772 109.851L161.052 52.2294M120.042 221.98V206.407M120.042 221.98L66.9227 191.486M120.042 221.98L212.642 168.131M215.559 148.785L120.042 206.407M215.559 148.785L161.052 118.676M215.559 148.785V163.06M120.042 206.407L92.0095 190.314L63.9772 174.222M63.9772 174.222L161.052 118.676M63.9772 174.222V186.399M63.9772 174.222L55.9953 170.594M52.5566 102.584V165.253M52.5566 102.584L146.311 47.6414M161.052 52.2294V118.676M161.052 52.2294L151.991 47.5017M66.9227 191.486C65.1007 190.44 63.9772 188.5 63.9772 186.399M66.9227 191.486V191.486C65.1007 190.44 63.9772 188.5 63.9772 186.399V186.399M55.9953 170.594C53.9011 169.642 52.5566 167.554 52.5566 165.253M55.9953 170.594V170.594C53.9012 169.642 52.5566 167.554 52.5566 165.253V165.253M146.311 47.6414C148.054 46.6201 150.2 46.5674 151.991 47.5017M146.311 47.6414V47.6414C148.054 46.6201 150.2 46.5674 151.991 47.5017V47.5017M215.559 163.06C215.559 165.15 214.448 167.081 212.642 168.131M215.559 163.06V163.06C215.559 165.15 214.448 167.081 212.642 168.131V168.131M137.951 150.602V150.602C141.185 152.638 141.164 157.358 137.913 159.366L130.422 163.993C128.517 165.17 126.108 165.16 124.214 163.967L121.253 162.103C117.581 159.79 117.604 154.429 121.296 152.148L127.831 148.112C129.736 146.935 132.144 146.946 134.039 148.139L137.951 150.602ZM75.2214 112.831L145.51 72.3485C149.42 70.0961 154.303 72.9187 154.303 77.4317V111.076C154.303 113.204 153.151 115.165 151.292 116.201L81.0034 155.349C77.0934 157.526 72.2831 154.699 72.2831 150.224V117.914C72.2831 115.816 73.4034 113.878 75.2214 112.831ZM162.071 131.008L165.032 132.872C168.704 135.184 168.681 140.546 164.989 142.827L158.454 146.863C156.549 148.039 154.141 148.029 152.246 146.836L149.285 144.972C145.613 142.659 145.636 137.298 149.328 135.017L155.863 130.981C157.768 129.804 160.176 129.815 162.071 131.008ZM106.007 164.231L108.967 166.095C112.64 168.408 112.617 173.769 108.924 176.05L102.389 180.086C100.485 181.263 98.0761 181.252 96.1814 180.059L93.2209 178.195C89.5483 175.883 89.5714 170.521 93.2639 168.24L99.7985 164.204C101.703 163.028 104.112 163.038 106.007 164.231ZM117.812 180.995L179.493 144.249C181.257 143.198 183.443 143.146 185.256 144.113L188.79 145.998C192.808 148.141 192.958 153.846 189.058 156.197L127.651 193.216C125.836 194.31 123.573 194.34 121.73 193.296L117.923 191.138C114.007 188.919 113.946 183.299 117.812 180.995Z" stroke="#18282E" stroke-width="4"/>
</g>
<defs>
<filter id="filter0_d_2620_16538" x="0.556641" y="0.335938" width="267.003" height="279.454" filterUnits="userSpaceOnUse" color-interpolation-filters="sRGB">
<feFlood flood-opacity="0" result="BackgroundImageFix"/>
<feColorMatrix in="SourceAlpha" type="matrix" values="0 0 0 0 0 0 0 0 0 0 0 0 0 0 0 0 0 0 127 0" result="hardAlpha"/>
<feOffset dy="5.5"/>
<feGaussianBlur stdDeviation="25"/>
<feComposite in2="hardAlpha" operator="out"/>
<feColorMatrix type="matrix" values="0 0 0 0 0 0 0 0 0 0 0 0 0 0 0 0 0 0 0.25 0"/>
<feBlend mode="normal" in2="BackgroundImageFix" result="effect1_dropShadow_2620_16538"/>
<feBlend mode="normal" in="SourceGraphic" in2="effect1_dropShadow_2620_16538" result="shape"/>
</filter>
</defs>
</svg>
