<svg width="160" height="167" viewBox="0 0 160 167" fill="none" xmlns="http://www.w3.org/2000/svg">
<g filter="url(#filter0_d_2620_16537)">
<path d="M38.0094 102.416V64.0533L31.2031 59.722V97.0711C31.2031 98.442 32.0044 99.6864 33.2524 100.254L38.0094 102.416Z" fill="#D2EDF7"/>
<path d="M71.422 121.597L54.7157 112.007L38.0094 102.416V109.673C38.0094 110.925 38.679 112.082 39.7648 112.705L71.422 130.879V121.597Z" fill="#D2EDF7"/>
<path d="M42.9594 88.114C42.9594 90.7813 45.8262 92.466 48.1564 91.1682L90.046 67.8373C91.154 67.2202 91.8408 66.0514 91.8408 64.7831V44.7322C91.8408 42.0427 88.9307 40.3605 86.6001 41.7028L44.7106 65.8291C43.6271 66.4531 42.9594 67.6082 42.9594 68.8585V88.114Z" fill="#D2EDF7"/>
<path d="M55.4633 98.8513C53.2627 100.21 53.2489 103.406 55.4377 104.784L57.2021 105.895C58.3312 106.606 59.7666 106.612 60.9018 105.911L64.7963 103.505C66.9969 102.146 67.0107 98.9509 64.8219 97.5728L63.0575 96.4619C61.9284 95.7509 60.493 95.7447 59.3577 96.4459L55.4633 98.8513Z" fill="#D2EDF7"/>
<path d="M72.1696 89.2606C69.969 90.6198 69.9552 93.8152 72.144 95.1934L73.9084 96.3043C75.0375 97.0152 76.4729 97.0214 77.6082 96.3202L82.073 93.5626C84.0104 92.3659 84.0225 89.5526 82.0955 88.3393L79.7638 86.8712C78.6347 86.1603 77.1993 86.1541 76.064 86.8552L72.1696 89.2606Z" fill="#D2EDF7"/>
<path fill-rule="evenodd" clip-rule="evenodd" d="M38.0094 102.416V64.0533L31.2031 59.722L87.0778 26.9782C88.1164 26.3696 89.3952 26.3381 90.4625 26.895L95.8627 29.7125V69.3127L38.0094 102.416ZM71.422 121.597L128.347 87.2565V95.7641C128.347 97.0092 127.685 98.1603 126.609 98.7863L71.422 130.879V121.597ZM42.9594 88.114C42.9594 90.7813 45.8262 92.466 48.1564 91.1682L90.046 67.8373C91.154 67.2202 91.8408 66.0514 91.8408 64.7831V44.7322C91.8408 42.0427 88.9307 40.3605 86.6001 41.7028L44.7106 65.8291C43.6271 66.4531 42.9594 67.6082 42.9594 68.8585V88.114Z" fill="white"/>
<path d="M72.4283 113.783C73.5267 114.406 74.8755 114.388 75.9567 113.736L112.553 91.674C114.878 90.2728 114.788 86.8726 112.394 85.5954L110.287 84.472C109.207 83.896 107.905 83.9268 106.853 84.5533L70.0934 106.453C67.7889 107.825 67.8254 111.175 70.1591 112.497L72.4283 113.783Z" fill="#D2EDF7"/>
<path fill-rule="evenodd" clip-rule="evenodd" d="M71.422 121.597L128.347 87.2565L95.8627 69.3127L38.0094 102.416L54.7157 112.007L71.422 121.597ZM112.394 85.5954C114.788 86.8726 114.878 90.2728 112.553 91.674L75.9567 113.736C74.8755 114.388 73.5267 114.406 72.4283 113.783L70.1591 112.497C67.8254 111.175 67.7889 107.825 70.0934 106.453L106.853 84.5533C107.905 83.9268 109.207 83.896 110.287 84.472L112.394 85.5954ZM60.9018 105.911C59.7666 106.612 58.3312 106.606 57.2021 105.895L55.4377 104.784C53.2489 103.406 53.2627 100.21 55.4633 98.8513L59.3577 96.4459C60.493 95.7447 61.9284 95.7509 63.0575 96.4619L64.8219 97.5728C67.0107 98.9509 66.9969 102.146 64.7963 103.505L60.9018 105.911ZM77.6082 96.3202C76.4729 97.0214 75.0375 97.0152 73.9084 96.3043L72.144 95.1934C69.9552 93.8152 69.969 90.6198 72.1696 89.2606L76.064 86.8552C77.1993 86.1541 78.6347 86.1603 79.7638 86.8712L82.0955 88.3393C84.0225 89.5526 84.0104 92.3659 82.073 93.5626L77.6082 96.3202ZM94.3145 86.1108C93.1792 86.812 91.7438 86.8058 90.6147 86.0949L88.8503 84.984C86.6615 83.6058 86.6753 80.4104 88.8759 79.0512L92.7704 76.6458C93.9056 75.9447 95.341 75.9508 96.4701 76.6618L98.2345 77.7727C100.423 79.1508 100.41 82.3462 98.2089 83.7054L94.3145 86.1108Z" fill="white"/>
<path d="M88.8759 79.0512C86.6753 80.4104 86.6615 83.6058 88.8503 84.984L90.6147 86.0949C91.7438 86.8058 93.1792 86.812 94.3145 86.1108L98.2089 83.7054C100.41 82.3462 100.423 79.1508 98.2345 77.7727L96.4701 76.6618C95.341 75.9508 93.9056 75.9447 92.7704 76.6458L88.8759 79.0512Z" fill="#D2EDF7"/>
<path d="M38.0094 64.0533V102.416M38.0094 64.0533L31.2031 59.722M38.0094 64.0533L95.8627 29.7125M71.422 130.879V121.597M71.422 130.879L39.7648 112.705M71.422 130.879L126.609 98.7863M128.347 87.2565L71.422 121.597M128.347 87.2565L95.8627 69.3127M128.347 87.2565V95.7641M71.422 121.597L54.7157 112.007L38.0094 102.416M38.0094 102.416L95.8627 69.3127M38.0094 102.416V109.673M38.0094 102.416L33.2524 100.254M31.2031 59.722V97.0711M31.2031 59.722L87.0778 26.9782M95.8627 29.7125V69.3127M95.8627 29.7125L90.4625 26.895M39.7648 112.705C38.679 112.082 38.0094 110.925 38.0094 109.673M39.7648 112.705V112.705C38.679 112.082 38.0094 110.925 38.0094 109.673V109.673M33.2524 100.254C32.0044 99.6864 31.2031 98.442 31.2031 97.0711M33.2524 100.254V100.254C32.0044 99.6864 31.2031 98.442 31.2031 97.0711V97.0711M87.0778 26.9782C88.1164 26.3696 89.3952 26.3381 90.4625 26.895M87.0778 26.9782V26.9782C88.1164 26.3696 89.3952 26.3381 90.4625 26.895V26.895M128.347 95.7641C128.347 97.0092 127.685 98.1603 126.609 98.7863M128.347 95.7641V95.7641C128.347 97.0092 127.685 98.1603 126.609 98.7863V98.7863M82.0955 88.3393V88.3393C84.0225 89.5526 84.0104 92.3659 82.073 93.5626L77.6082 96.3202C76.4729 97.0214 75.0375 97.0152 73.9084 96.3043L72.144 95.1934C69.9552 93.8152 69.969 90.6198 72.1696 89.2606L76.0641 86.8552C77.1993 86.1541 78.6347 86.1603 79.7638 86.8712L82.0955 88.3393ZM44.7106 65.8291L86.6001 41.7028C88.9307 40.3605 91.8408 42.0427 91.8408 44.7322V64.7831C91.8408 66.0514 91.154 67.2202 90.046 67.8373L48.1564 91.1682C45.8262 92.4661 42.9594 90.7813 42.9594 88.114V68.8585C42.9594 67.6082 43.6271 66.4531 44.7106 65.8291ZM96.4701 76.6618L98.2345 77.7727C100.423 79.1508 100.41 82.3462 98.2089 83.7054L94.3145 86.1108C93.1792 86.812 91.7438 86.8058 90.6147 86.0949L88.8503 84.984C86.6615 83.6058 86.6753 80.4104 88.8759 79.0512L92.7704 76.6458C93.9056 75.9447 95.341 75.9508 96.4701 76.6618ZM63.0575 96.4619L64.8219 97.5728C67.0107 98.9509 66.9969 102.146 64.7963 103.505L60.9018 105.911C59.7666 106.612 58.3312 106.606 57.2021 105.895L55.4377 104.784C53.2489 103.406 53.2627 100.21 55.4633 98.8513L59.3577 96.4459C60.493 95.7447 61.9284 95.7509 63.0575 96.4619ZM70.0934 106.453L106.853 84.5533C107.905 83.9268 109.207 83.896 110.287 84.472L112.394 85.5954C114.788 86.8726 114.878 90.2728 112.553 91.674L75.9567 113.736C74.8755 114.388 73.5267 114.406 72.4283 113.783L70.1591 112.497C67.8254 111.175 67.7889 107.825 70.0934 106.453Z" stroke="#18282E" stroke-width="2"/>
</g>
<defs>
<filter id="filter0_d_2620_16537" x="0.203125" y="-0.00195312" width="159.145" height="166.535" filterUnits="userSpaceOnUse" color-interpolation-filters="sRGB">
<feFlood flood-opacity="0" result="BackgroundImageFix"/>
<feColorMatrix in="SourceAlpha" type="matrix" values="0 0 0 0 0 0 0 0 0 0 0 0 0 0 0 0 0 0 127 0" result="hardAlpha"/>
<feOffset dy="4.5"/>
<feGaussianBlur stdDeviation="15"/>
<feComposite in2="hardAlpha" operator="out"/>
<feColorMatrix type="matrix" values="0 0 0 0 0 0 0 0 0 0 0 0 0 0 0 0 0 0 0.25 0"/>
<feBlend mode="normal" in2="BackgroundImageFix" result="effect1_dropShadow_2620_16537"/>
<feBlend mode="normal" in="SourceGraphic" in2="effect1_dropShadow_2620_16537" result="shape"/>
</filter>
</defs>
</svg>
