<svg width="92" height="93" viewBox="0 0 92 93" fill="none" xmlns="http://www.w3.org/2000/svg">
<g filter="url(#filter0_d_2620_16541)">
<path d="M21.8938 59.7168V37.7699L18 35.292V56.6591C18 57.4434 18.4584 58.1553 19.1724 58.4798L21.8938 59.7168Z" fill="#D2EDF7"/>
<path d="M41.0089 70.6903L31.4513 65.2035L21.8938 59.7168V63.8686C21.8938 64.5849 22.2769 65.2465 22.8981 65.6031L41.0089 76V70.6903Z" fill="#D2EDF7"/>
<path d="M24.7257 51.5348C24.7257 53.0608 26.3657 54.0246 27.6988 53.2821L51.6634 39.9347C52.2973 39.5817 52.6903 38.913 52.6903 38.1875V26.7165C52.6903 25.1779 51.0254 24.2155 49.6921 24.9834L25.7275 38.7858C25.1077 39.1428 24.7257 39.8037 24.7257 40.5189V51.5348Z" fill="#D2EDF7"/>
<path d="M31.879 57.6775C30.6201 58.4551 30.6122 60.2832 31.8644 61.0716L32.8737 61.7071C33.5197 62.1139 34.3409 62.1174 34.9904 61.7163L37.2183 60.3402C38.4773 59.5626 38.4852 57.7345 37.233 56.9461L36.2236 56.3106C35.5776 55.9038 34.7565 55.9003 34.107 56.3014L31.879 57.6775Z" fill="#D2EDF7"/>
<path d="M41.4365 52.1908C40.1776 52.9684 40.1697 54.7965 41.4219 55.5849L42.4313 56.2204C43.0772 56.6271 43.8984 56.6307 44.5479 56.2295L47.1022 54.6519C48.2106 53.9673 48.2175 52.3578 47.115 51.6637L45.7811 50.8238C45.1351 50.4171 44.314 50.4136 43.6645 50.8147L41.4365 52.1908Z" fill="#D2EDF7"/>
<path fill-rule="evenodd" clip-rule="evenodd" d="M21.8938 59.7168V37.7699L18 35.292L49.9654 16.5596C50.5596 16.2114 51.2911 16.1934 51.9017 16.512L54.9911 18.1239V40.7788L21.8938 59.7168ZM41.0089 70.6903L73.5752 51.0442V55.9114C73.5752 56.6237 73.1964 57.2822 72.5806 57.6403L41.0089 76V70.6903ZM24.7257 51.5348C24.7257 53.0608 26.3657 54.0246 27.6988 53.2821L51.6634 39.9347C52.2973 39.5817 52.6903 38.913 52.6903 38.1875V26.7165C52.6903 25.1779 51.0254 24.2155 49.6921 24.9834L25.7275 38.7858C25.1077 39.1428 24.7257 39.8037 24.7257 40.5189V51.5348Z" fill="white"/>
<path d="M41.5845 66.22C42.2129 66.5761 42.9845 66.5657 43.6031 66.1928L64.5397 53.5715C65.8694 52.7698 65.8183 50.8246 64.4483 50.0939L63.2433 49.4513C62.6254 49.1217 61.8801 49.1394 61.2785 49.4978L40.2488 62.0261C38.9304 62.8116 38.9512 64.7278 40.2864 65.4844L41.5845 66.22Z" fill="#D2EDF7"/>
<path fill-rule="evenodd" clip-rule="evenodd" d="M41.0089 70.6903L73.5752 51.0442L54.9911 40.7788L21.8938 59.7168L31.4513 65.2035L41.0089 70.6903ZM64.4483 50.0939C65.8183 50.8246 65.8694 52.7698 64.5397 53.5715L43.6031 66.1928C42.9845 66.5657 42.2129 66.5761 41.5845 66.22L40.2864 65.4844C38.9512 64.7278 38.9304 62.8116 40.2488 62.0261L61.2785 49.4978C61.8801 49.1394 62.6254 49.1217 63.2433 49.4513L64.4483 50.0939ZM34.9904 61.7163C34.3409 62.1174 33.5197 62.1139 32.8737 61.7071L31.8644 61.0716C30.6122 60.2832 30.6201 58.4551 31.879 57.6775L34.107 56.3014C34.7565 55.9003 35.5776 55.9038 36.2236 56.3106L37.233 56.9461C38.4852 57.7345 38.4773 59.5626 37.2183 60.3402L34.9904 61.7163ZM44.5479 56.2295C43.8984 56.6307 43.0772 56.6271 42.4313 56.2204L41.4219 55.5849C40.1697 54.7965 40.1776 52.9684 41.4365 52.1908L43.6645 50.8147C44.314 50.4136 45.1351 50.4171 45.7811 50.8238L47.115 51.6637C48.2175 52.3578 48.2106 53.9673 47.1022 54.6519L44.5479 56.2295ZM54.1054 50.3888C53.4559 50.79 52.6348 50.7864 51.9888 50.3797L50.9794 49.7442C49.7272 48.9557 49.7351 47.1277 50.9941 46.3501L53.222 44.974C53.8715 44.5729 54.6927 44.5764 55.3386 44.9831L56.348 45.6187C57.6002 46.4071 57.5923 48.2351 56.3334 49.0127L54.1054 50.3888Z" fill="white"/>
<path d="M50.9941 46.3501C49.7351 47.1277 49.7272 48.9557 50.9794 49.7442L51.9888 50.3797C52.6348 50.7864 53.4559 50.79 54.1054 50.3888L56.3334 49.0127C57.5923 48.2351 57.6002 46.4071 56.348 45.6187L55.3386 44.9831C54.6927 44.5764 53.8715 44.5729 53.222 44.974L50.9941 46.3501Z" fill="#D2EDF7"/>
<path d="M21.8938 37.7699V59.7168M21.8938 37.7699L18 35.292M21.8938 37.7699L54.9911 18.1239M41.0089 76V70.6903M41.0089 76L22.8981 65.6031M41.0089 76L72.5806 57.6403M73.5752 51.0442L41.0089 70.6903M73.5752 51.0442L54.9911 40.7788M73.5752 51.0442V55.9114M41.0089 70.6903L31.4513 65.2035L21.8938 59.7168M21.8938 59.7168L54.9911 40.7788M21.8938 59.7168V63.8686M21.8938 59.7168L19.1724 58.4798M18 35.292V56.6591M18 35.292L49.9654 16.5596M54.9911 18.1239V40.7788M54.9911 18.1239L51.9017 16.512M22.8981 65.6031C22.2769 65.2465 21.8938 64.5849 21.8938 63.8686M22.8981 65.6031V65.6031C22.2769 65.2465 21.8938 64.5849 21.8938 63.8686V63.8686M19.1724 58.4798C18.4584 58.1553 18 57.4434 18 56.6591M19.1724 58.4798V58.4798C18.4584 58.1553 18 57.4434 18 56.6591V56.6591M49.9654 16.5596C50.5596 16.2114 51.2911 16.1934 51.9017 16.512M49.9654 16.5596V16.5596C50.5596 16.2114 51.2911 16.1934 51.9017 16.512V16.512M73.5752 55.9114C73.5752 56.6237 73.1964 57.2822 72.5806 57.6403M73.5752 55.9114V55.9114C73.5752 56.6237 73.1964 57.2823 72.5806 57.6403V57.6403M47.115 51.6637V51.6637C48.2175 52.3578 48.2105 53.9673 47.1022 54.6519L44.5479 56.2295C43.8984 56.6307 43.0772 56.6271 42.4313 56.2204L41.4219 55.5849C40.1697 54.7965 40.1776 52.9684 41.4365 52.1908L43.6645 50.8147C44.314 50.4136 45.1351 50.4171 45.7811 50.8238L47.115 51.6637ZM25.7275 38.7858L49.6921 24.9834C51.0254 24.2155 52.6903 25.1779 52.6903 26.7165V38.1875C52.6903 38.913 52.2973 39.5817 51.6634 39.9347L27.6988 53.2821C26.3657 54.0246 24.7257 53.0608 24.7257 51.5348V40.5189C24.7257 39.8037 25.1077 39.1428 25.7275 38.7858ZM55.3386 44.9831L56.348 45.6187C57.6002 46.4071 57.5923 48.2351 56.3334 49.0127L54.1054 50.3888C53.4559 50.79 52.6348 50.7864 51.9888 50.3797L50.9794 49.7442C49.7272 48.9558 49.7351 47.1277 50.9941 46.3501L53.222 44.974C53.8715 44.5729 54.6927 44.5764 55.3386 44.9831ZM36.2236 56.3106L37.233 56.9461C38.4852 57.7345 38.4773 59.5626 37.2183 60.3402L34.9904 61.7163C34.3409 62.1174 33.5197 62.1139 32.8737 61.7071L31.8644 61.0716C30.6122 60.2832 30.6201 58.4551 31.879 57.6775L34.107 56.3014C34.7565 55.9003 35.5776 55.9038 36.2236 56.3106ZM40.2488 62.0261L61.2785 49.4978C61.8801 49.1394 62.6254 49.1217 63.2433 49.4513L64.4483 50.0939C65.8183 50.8246 65.8694 52.7698 64.5397 53.5715L43.6031 66.1928C42.9845 66.5657 42.2129 66.5761 41.5845 66.22L40.2864 65.4844C38.9512 64.7278 38.9304 62.8116 40.2488 62.0261Z" stroke="#18282E" stroke-width="1.25"/>
</g>
<defs>
<filter id="filter0_d_2620_16541" x="5.375" y="7.66016" width="80.8252" height="85.0615" filterUnits="userSpaceOnUse" color-interpolation-filters="sRGB">
<feFlood flood-opacity="0" result="BackgroundImageFix"/>
<feColorMatrix in="SourceAlpha" type="matrix" values="0 0 0 0 0 0 0 0 0 0 0 0 0 0 0 0 0 0 127 0" result="hardAlpha"/>
<feOffset dy="4"/>
<feGaussianBlur stdDeviation="6"/>
<feComposite in2="hardAlpha" operator="out"/>
<feColorMatrix type="matrix" values="0 0 0 0 0 0 0 0 0 0 0 0 0 0 0 0 0 0 0.25 0"/>
<feBlend mode="normal" in2="BackgroundImageFix" result="effect1_dropShadow_2620_16541"/>
<feBlend mode="normal" in="SourceGraphic" in2="effect1_dropShadow_2620_16541" result="shape"/>
</filter>
</defs>
</svg>
