<svg width="105" height="108" viewBox="0 0 105 108" fill="none" xmlns="http://www.w3.org/2000/svg">
<g id="Mood Faces" clip-path="url(#clip0_2620_21301)">
<g id="Group 472">
<g id="Vector">
<path d="M26.2915 34.8786C20.1532 45.5103 16.6109 56.5124 15.6594 66.3252C14.3478 79.8533 17.9605 91.1211 26.4845 96.0424L39.8086 103.866C37.5179 102.498 35.5895 100.665 34.0235 98.4487C25.693 86.6572 27.6211 64.013 39.8466 42.8378C52.151 21.5258 70.9596 8.50328 85.3734 10.0167C88.0631 10.2991 90.5998 11.0877 92.9126 12.423L79.3574 4.46381C64.6504 -4.02731 40.8919 9.58985 26.2915 34.8786Z" fill="#6F7679"/>
<path d="M39.8086 103.866L26.4845 96.0424C17.9605 91.1211 14.3478 79.8533 15.6594 66.3252C-12.6991 79.8804 -1.17684 107.329 46.6046 106.282C44.2755 105.926 42.0712 105.175 40.0396 104.002C39.9622 103.957 39.8852 103.912 39.8086 103.866Z" fill="#6F7679"/>
</g>
<path id="Vector_2" d="M40.0401 104.002C54.7472 112.493 78.5056 98.8756 93.1061 73.5868C107.707 48.2981 107.62 20.9141 92.9131 12.423M40.0401 104.002L39.8091 103.866M40.0401 104.002C39.9627 103.957 39.8857 103.912 39.8091 103.866M92.9131 12.423C90.6003 11.0877 88.0637 10.2991 85.374 10.0167C70.9601 8.50328 52.1516 21.5258 39.8471 42.8378C27.6216 64.013 25.6936 86.6572 34.0241 98.4487C35.59 100.665 37.5185 102.498 39.8091 103.866M92.9131 12.423L79.358 4.46381C64.6509 -4.02731 40.8925 9.58985 26.292 34.8786C11.6916 60.1673 11.778 87.5513 26.485 96.0424L39.8091 103.866M53.9115 82.2525L86.4438 61.581M76.1959 40.5663C76.1959 40.5663 77.6961 45.5664 81.6957 43.0663C85.6954 40.5662 86.6965 36.1517 86.6958 33.5669M48.1959 56.5663C48.1959 56.5663 49.6961 61.5664 53.6957 59.0663C57.6954 56.5662 58.6965 52.1517 58.6958 49.5669" stroke="#0F1B1F" stroke-width="2" stroke-linecap="round"/>
</g>
</g>
<defs>
<clipPath id="clip0_2620_21301">
<rect width="105" height="108" fill="white"/>
</clipPath>
</defs>
</svg>
