<svg width="105" height="108" viewBox="0 0 105 108" fill="none" xmlns="http://www.w3.org/2000/svg">
<g id="Mood Faces" clip-path="url(#clip0_2620_21268)">
<g id="Group 470">
<g id="Vector">
<path d="M25.9438 34.8776C19.8056 45.5094 16.2632 56.5114 15.3118 66.3243C14.0002 79.8523 17.6128 91.1201 26.1368 96.0415L39.4609 103.865C37.1703 102.497 35.2418 100.664 33.6759 98.4477C25.3454 86.6562 27.2734 64.012 39.4989 42.8368C51.8034 21.5249 70.6119 8.5023 85.0258 10.0157C87.7154 10.2981 90.2521 11.0867 92.5649 12.422L79.0098 4.46283C64.3027 -4.02829 40.5443 9.58887 25.9438 34.8776Z" fill="#3C6474"/>
<path d="M39.4609 103.865L26.1368 96.0415C17.6128 91.1201 14.0002 79.8523 15.3118 66.3243C-13.0468 79.8794 -1.5245 107.328 46.2569 106.281C43.9279 105.925 41.7235 105.174 39.6919 104.001C39.6145 103.956 39.5375 103.911 39.4609 103.865Z" fill="#3C6474"/>
</g>
<g id="Vector_2">
<path d="M25.9439 34.8776C11.3434 60.1664 11.4298 87.5504 26.1369 96.0415L39.461 103.865C37.1703 102.497 35.2419 100.664 33.6759 98.4477C25.3454 86.6562 27.2735 64.012 39.499 42.8368C51.8034 21.5249 70.612 8.5023 85.0259 10.0157C87.7155 10.2981 90.2521 11.0867 92.5649 12.422L79.0098 4.46283C64.3028 -4.02829 40.5443 9.58887 25.9439 34.8776Z" fill="#51869B"/>
<path d="M39.692 104.001C54.399 112.492 78.1575 98.8746 92.7579 73.5858C107.358 48.2971 107.272 20.9131 92.5649 12.422C90.2521 11.0867 87.7155 10.2981 85.0259 10.0157C70.612 8.5023 51.8034 21.5249 39.499 42.8368C27.2735 64.012 25.3454 86.6562 33.6759 98.4477C35.2419 100.664 37.1703 102.497 39.461 103.865L39.692 104.001Z" fill="#F1F6F8"/>
<path d="M39.692 104.001C54.399 112.492 78.1575 98.8746 92.7579 73.5858C107.358 48.2971 107.272 20.9131 92.5649 12.422M39.692 104.001L39.461 103.865M39.692 104.001C39.6146 103.956 39.5376 103.911 39.461 103.865M92.5649 12.422C90.2521 11.0867 87.7155 10.2981 85.0259 10.0157C70.612 8.5023 51.8034 21.5249 39.499 42.8368C27.2735 64.012 25.3454 86.6562 33.6759 98.4477C35.2419 100.664 37.1703 102.497 39.461 103.865M92.5649 12.422L79.0098 4.46283C64.3028 -4.02829 40.5443 9.58887 25.9439 34.8776C11.3434 60.1664 11.4298 87.5504 26.1369 96.0415L39.461 103.865M56.2744 83.5571C60.6912 77.0636 73.1774 68.339 81.6902 69.3243M76.1955 40.5653C76.1955 40.5653 77.6956 45.5655 81.6953 43.0653C85.6949 40.5652 86.696 36.1507 86.6953 33.5659M48.1955 56.5653C48.1955 56.5653 49.6956 61.5655 53.6953 59.0653C57.6949 56.5652 58.696 52.1507 58.6953 49.5659" stroke="#0F1B1F" stroke-width="2" stroke-linecap="round"/>
</g>
</g>
</g>
<defs>
<clipPath id="clip0_2620_21268">
<rect width="105" height="108" fill="white"/>
</clipPath>
</defs>
</svg>
