<svg width="105" height="108" viewBox="0 0 105 108" fill="none" xmlns="http://www.w3.org/2000/svg">
<g id="Mood Faces" clip-path="url(#clip0_2620_21263)">
<g id="Group 469">
<g id="Vector">
<path d="M25.9228 34.9411C19.7846 45.5728 16.2422 56.5749 15.2908 66.3877C13.9792 79.9158 17.5918 91.1836 26.1158 96.1049L39.4399 103.928C37.1493 102.561 35.2208 100.728 33.6549 98.5112C25.3244 86.7197 27.2524 64.0755 39.4779 42.9003C51.7824 21.5883 70.5909 8.56578 85.0048 10.0792C87.6945 10.3616 90.2311 11.1502 92.5439 12.4855L78.9888 4.52631C64.2817 -3.96481 40.5233 9.65235 25.9228 34.9411Z" fill="#9E80C5"/>
<path d="M39.4399 103.928L26.1158 96.1049C17.5918 91.1836 13.9792 79.9158 15.2908 66.3877C-13.0677 79.9429 -1.54549 107.392 46.2359 106.345C43.9069 105.988 41.7025 105.237 39.6709 104.064C39.5935 104.019 39.5165 103.974 39.4399 103.928Z" fill="#9E80C5"/>
</g>
<g id="Vector_2">
<path d="M40.0191 104.002C54.7262 112.493 78.4846 98.8756 93.0851 73.5868C107.686 48.2981 107.599 20.9141 92.8921 12.423C90.5793 11.0877 88.0427 10.2991 85.353 10.0167C70.9391 8.50328 52.1306 21.5258 39.8261 42.8378C27.6006 64.013 25.6726 86.6572 34.0031 98.4487C35.569 100.665 37.4975 102.498 39.7881 103.866L40.0191 104.002Z" fill="#F2EBFB"/>
<path d="M26.271 34.8786C11.6706 60.1673 11.757 87.5513 26.464 96.0424L39.7881 103.866C37.4975 102.498 35.569 100.665 34.0031 98.4487C25.6726 86.6572 27.6006 64.013 39.8261 42.8378C52.1306 21.5258 70.9391 8.50328 85.353 10.0167C88.0427 10.2991 90.5793 11.0877 92.8921 12.423L79.337 4.46381C64.6299 -4.02731 40.8715 9.58985 26.271 34.8786Z" fill="#BE9AEC"/>
<path d="M40.0191 104.002C54.7262 112.493 78.4846 98.8756 93.0851 73.5868C107.686 48.2981 107.599 20.9141 92.8921 12.423M40.0191 104.002L39.7881 103.866M40.0191 104.002C39.9417 103.957 39.8647 103.912 39.7881 103.866M92.8921 12.423C90.5793 11.0877 88.0427 10.2991 85.353 10.0167C70.9391 8.50328 52.1306 21.5258 39.8261 42.8378C27.6006 64.013 25.6726 86.6572 34.0031 98.4487C35.569 100.665 37.4975 102.498 39.7881 103.866M92.8921 12.423L79.337 4.46381C64.6299 -4.02731 40.8715 9.58985 26.271 34.8786C11.6706 60.1673 11.757 87.5513 26.464 96.0424L39.7881 103.866M56.6016 80.8471C66.0901 85.2525 77.2731 73.7307 82.0174 66.6142M59.348 55.97C59.348 55.97 57.8479 50.9698 53.8482 53.47C49.8485 55.9701 48.8474 60.3845 48.8481 62.9694M87.348 39.97C87.348 39.97 85.8479 34.9698 81.8482 37.47C77.8485 39.9701 76.8474 44.3845 76.8481 46.9694" stroke="#0F1B1F" stroke-width="2" stroke-linecap="round"/>
</g>
</g>
</g>
<defs>
<clipPath id="clip0_2620_21263">
<rect width="105" height="108" fill="white"/>
</clipPath>
</defs>
</svg>
