<svg width="105" height="108" viewBox="0 0 105 108" fill="none" xmlns="http://www.w3.org/2000/svg">
<g id="Mood Faces" clip-path="url(#clip0_2620_21330)">
<g id="Group 471">
<g id="Vector">
<path d="M26.015 34.6227C19.8549 45.2922 16.3 56.3334 15.3452 66.1812C14.0289 79.7573 17.6544 91.0652 26.2087 96.004L39.5802 103.855C37.2814 102.483 35.3461 100.643 33.7746 98.4188C25.4144 86.5854 27.3493 63.8606 39.6183 42.6101C51.9665 21.2225 70.8419 8.15358 85.3071 9.67239C88.0063 9.9558 90.552 10.7472 92.873 12.0872L79.2696 4.09974C64.5103 -4.42157 40.6674 9.24401 26.015 34.6227Z" fill="#D46635"/>
<path d="M39.5802 103.855L26.2087 96.004C17.6544 91.0652 14.0289 79.7573 15.3452 66.1812C-13.1142 79.7845 -1.55099 107.331 46.4003 106.28C44.063 105.922 41.8508 105.169 39.812 103.991C39.7343 103.947 39.657 103.901 39.5802 103.855Z" fill="#D46635"/>
</g>
<path id="Vector_2" d="M39.8123 103.991C54.5717 112.513 78.4146 98.8472 93.067 73.4686C107.719 48.0899 107.633 20.6085 92.8733 12.0872M39.8123 103.991L39.5805 103.855M39.8123 103.991C39.7346 103.947 39.6574 103.901 39.5805 103.855M92.8733 12.0872C90.5523 10.7472 88.0066 9.9558 85.3074 9.67239C70.8423 8.15358 51.9668 21.2225 39.6186 42.6101C27.3497 63.8606 25.4147 86.5854 33.7749 98.4188C35.3464 100.643 37.2817 102.483 39.5805 103.855M92.8733 12.0872L79.27 4.09974C64.5106 -4.42157 40.6677 9.24401 26.0153 34.6227C11.3629 60.0013 11.4497 87.4827 26.209 96.004L39.5805 103.855M51.9228 87.6346C53.7331 74.6832 75.8384 55.9787 86.381 67.9098M76.1948 40.5643C76.1948 40.5643 77.6949 45.5644 81.6946 43.0643C85.6942 40.5642 86.6953 36.1497 86.6946 33.5649M48.1948 56.5643C48.1948 56.5643 49.6949 61.5644 53.6946 59.0643C57.6942 56.5642 58.6953 52.1497 58.6946 49.5649" stroke="#0F1B1F" stroke-width="2" stroke-linecap="round"/>
</g>
</g>
<defs>
<clipPath id="clip0_2620_21330">
<rect width="105" height="108" fill="white"/>
</clipPath>
</defs>
</svg>
