<svg width="105" height="108" viewBox="0 0 105 108" fill="none" xmlns="http://www.w3.org/2000/svg">
<g id="Mood Faces" clip-path="url(#clip0_2620_21258)">
<g id="Group 467">
<g id="Vector">
<path d="M25.9228 34.8786C19.7846 45.5103 16.2422 56.5124 15.2908 66.3252C13.9792 79.8533 17.5918 91.1211 26.1158 96.0424L39.4399 103.866C37.1493 102.498 35.2208 100.665 33.6549 98.4487C25.3244 86.6572 27.2524 64.013 39.4779 42.8378C51.7824 21.5258 70.5909 8.50328 85.0048 10.0167C87.6945 10.2991 90.2311 11.0877 92.5439 12.423L78.9888 4.46381C64.2817 -4.02731 40.5233 9.58985 25.9228 34.8786Z" fill="#6AD997"/>
<path d="M39.4399 103.866L26.1158 96.0424C17.5918 91.1211 13.9792 79.8533 15.2908 66.3252C-13.0677 79.8804 -1.54549 107.329 46.2359 106.282C43.9069 105.926 41.7025 105.175 39.6709 104.002C39.5935 103.957 39.5165 103.912 39.4399 103.866Z" fill="#3FAF6C"/>
</g>
<path id="Vector_2" d="M39.6715 104.003C54.3785 112.494 78.137 98.8765 92.7374 73.5878C107.338 48.2991 107.251 20.9151 92.5444 12.4239M39.6715 104.003L39.4405 103.867M39.6715 104.003C39.5941 103.958 39.5171 103.913 39.4405 103.867M92.5444 12.4239C90.2316 11.0887 87.695 10.3001 85.0053 10.0177C70.5915 8.50426 51.7829 21.5268 39.4785 42.8387C27.253 64.0139 25.3249 86.6582 33.6554 98.4497C35.2214 100.666 37.1498 102.499 39.4405 103.867M92.5444 12.4239L78.9893 4.46479C64.2823 -4.02634 40.5238 9.59083 25.9234 34.8796C11.3229 60.1683 11.4093 87.5523 26.1164 96.0434L39.4405 103.867M58.348 55.971C58.348 55.971 56.8479 50.9708 52.8482 53.4709C48.8485 55.9711 47.8474 60.3855 47.8481 62.9703M86.348 39.971C86.348 39.971 84.8479 34.9708 80.8482 37.4709C76.8485 39.9711 75.8474 44.3855 75.8481 46.9703M81.0998 65.9743C75.9918 85.2226 62.9628 90.383 57.3432 80.3333C57.0965 79.8922 57.2512 79.3368 57.6762 79.0631L79.6341 64.9258C80.384 64.443 81.3285 65.1122 81.0998 65.9743Z" stroke="#0F1B1F" stroke-width="2" stroke-linecap="round"/>
</g>
</g>
<defs>
<clipPath id="clip0_2620_21258">
<rect width="105" height="108" fill="white"/>
</clipPath>
</defs>
</svg>
