<svg width="106" height="108" viewBox="0 0 106 108" fill="none" xmlns="http://www.w3.org/2000/svg">
<g id="Mood Faces" clip-path="url(#clip0_2620_21351)">
<g id="Group 468">
<g id="Vector">
<path d="M26.5966 34.8786C20.4584 45.5103 16.916 56.5124 15.9646 66.3252C14.653 79.8533 18.2656 91.1211 26.7896 96.0424L40.1137 103.866C37.8231 102.498 35.8947 100.665 34.3287 98.4487C25.9982 86.6572 27.9262 64.013 40.1517 42.8378C52.4562 21.5258 71.2647 8.50328 85.6786 10.0167C88.3683 10.2991 90.9049 11.0877 93.2177 12.423L79.6626 4.46381C64.9555 -4.02731 41.1971 9.58985 26.5966 34.8786Z" fill="#A6DBF0"/>
<path d="M40.1137 103.866L26.7896 96.0424C18.2656 91.1211 14.653 79.8533 15.9646 66.3252C-12.3939 79.8804 -0.871666 107.329 46.9098 106.282C44.5807 105.926 42.3764 105.175 40.3447 104.002C40.2673 103.957 40.1903 103.912 40.1137 103.866Z" fill="#70B8D5"/>
</g>
<path id="Vector_2" d="M40.3453 104.003C55.0524 112.494 78.8108 98.8765 93.4113 73.5878C108.012 48.2991 107.925 20.9151 93.2183 12.4239M40.3453 104.003L40.1143 103.867M40.3453 104.003C40.2679 103.958 40.1909 103.913 40.1143 103.867M93.2183 12.4239C90.9055 11.0887 88.3688 10.3001 85.6792 10.0177C71.2653 8.50426 52.4567 21.5268 40.1523 42.8387C27.9268 64.0139 25.9987 86.6582 34.3293 98.4497C35.8952 100.666 37.8236 102.499 40.1143 103.867M93.2183 12.4239L79.6631 4.46479C64.9561 -4.02634 41.1977 9.59083 26.5972 34.8796C11.9967 60.1683 12.0831 87.5523 26.7902 96.0434L40.1143 103.867M49.7019 78.8928C55.2774 90.4147 75.7149 82.6205 84.038 59.2379M59.348 55.971C59.348 55.971 57.8479 50.9708 53.8482 53.4709C49.8485 55.9711 48.8474 60.3855 48.8481 62.9703M87.348 39.971C87.348 39.971 85.8479 34.9708 81.8482 37.4709C77.8485 39.9711 76.8474 44.3855 76.8481 46.9703" stroke="#0F1B1F" stroke-width="2" stroke-linecap="round"/>
</g>
</g>
<defs>
<clipPath id="clip0_2620_21351">
<rect width="106" height="108" fill="white"/>
</clipPath>
</defs>
</svg>
