<svg width="333" height="282" viewBox="0 0 333 282" fill="none" xmlns="http://www.w3.org/2000/svg">
<path d="M35.8813 200.17C14.7203 184.902 0.892569 157.267 4.88756 132.359C8.7913 107.153 65.0458 103.738 83 77.9998C100.954 52.2612 80.3092 4.2895 101.246 1.16496C122.184 -1.95958 150.071 20.893 177.792 30.8907C205.512 40.8884 233.066 38.0311 244.606 50.6813C256.146 63.3315 251.374 91.5804 265.371 120.307C279.369 149.034 312.136 178.238 317.699 208.233C323.262 238.228 301.816 269.117 272.422 278.254C243.12 287.689 205.675 275.269 178.03 262.308C150.293 249.048 144.313 216.636 121 208.233C97.6872 199.831 57.2373 215.541 35.8813 200.17Z" fill="#FEFACC"/>
<rect x="104" y="76" width="124" height="124" rx="5.32" fill="#FDEF67"/>
<g filter="url(#filter0_d_5405_38798)">
<path d="M163.789 147.8C164.017 148.466 164.693 148.886 165.383 148.749L165.833 148.659C170.224 136.681 173.547 130.437 182.912 121.179C178.391 120.512 169.425 128.986 162.779 145.328C163.17 146.155 163.509 146.983 163.789 147.8Z" fill="#FEFACC"/>
<path d="M172.363 119.846C165.652 123.962 161.891 126.275 155.601 135.835C156.704 136.798 157.742 137.865 158.694 138.999C164.402 129.145 169.459 122.229 178.314 118.014L178.224 117.848C176.166 118.165 175.04 118.663 172.92 119.6C172.742 119.679 172.557 119.761 172.363 119.846Z" fill="#FEFACC"/>
<path d="M172.363 106.022C167.34 108.188 157.293 115.349 151.098 132.737C152.677 133.547 154.192 134.606 155.601 135.835C161.891 126.275 165.652 123.962 172.363 119.846V111.352V106.022Z" fill="white"/>
<path d="M168.383 104.41C168.038 104.27 167.65 104.279 167.314 104.439C165.263 105.421 163.866 106.283 161.479 108.188C160.938 108.677 160.427 109.122 159.935 109.55C155.919 113.047 153.246 115.374 146.242 131.136C147.896 131.373 149.529 131.933 151.098 132.737C157.293 115.349 167.34 108.188 172.363 106.022L168.383 104.41Z" fill="#FEFACC"/>
<path d="M137.702 130.505V133.17C140.474 131.275 143.391 130.728 146.242 131.136C153.246 115.374 155.919 113.047 159.935 109.55C160.427 109.122 160.938 108.677 161.479 108.188C159.116 109.184 157.665 110.471 155.129 113.004C155.011 113.122 154.867 113.22 154.713 113.288C146.911 116.746 144.482 120.388 140.212 126.79C139.448 127.935 138.625 129.169 137.702 130.505Z" fill="white"/>
<path fill-rule="evenodd" clip-rule="evenodd" d="M165.833 155.821V148.659L165.383 148.749C164.693 148.886 164.017 148.466 163.789 147.8C163.509 146.983 163.17 146.155 162.779 145.328C161.747 143.147 160.35 140.972 158.694 138.999C157.742 137.865 156.704 136.798 155.601 135.835C154.192 134.606 152.677 133.547 151.098 132.737C149.529 131.933 147.896 131.373 146.242 131.136C143.391 130.728 140.474 131.275 137.702 133.17V134.003V139.051C137.702 139.534 137.961 139.979 138.381 140.218L165.833 155.821ZM156.969 144.106C157.377 144.347 157.628 144.787 157.628 145.261V146.639C157.628 147.678 156.497 148.324 155.602 147.794L145.896 142.054C145.488 141.812 145.237 141.373 145.237 140.898V139.521C145.237 138.481 146.368 137.836 147.263 138.365L156.969 144.106Z" fill="white"/>
<path d="M155.602 147.794C156.497 148.324 157.628 147.678 157.628 146.639V145.261C157.628 144.787 157.377 144.347 156.969 144.106L147.263 138.365C146.368 137.836 145.237 138.481 145.237 139.521V140.898C145.237 141.373 145.488 141.812 145.896 142.054L155.602 147.794Z" fill="#FEFACC"/>
<path d="M127.321 139.832L167.005 162.15L206.522 139.832L197.145 134.536L195.47 136.335L196.14 136.779C196.979 137.335 196.93 138.583 196.049 139.072L186.512 144.358L175.042 150.716L165.833 155.821L138.381 140.218C137.961 139.979 137.702 139.534 137.702 139.051V134.003L127.321 139.832Z" fill="white"/>
<path d="M167.005 171.31V162.15L127.321 139.832V147.88C127.321 148.362 127.579 148.807 127.998 149.046L167.005 171.31Z" fill="white"/>
<path d="M167.005 162.15V171.31L205.847 149.046C206.264 148.807 206.522 148.362 206.522 147.881V139.832L167.005 162.15Z" fill="#FEFACC"/>
<path d="M165.833 148.659V155.821L175.042 150.716C172.016 148.757 170.056 148.193 165.833 148.659Z" fill="white"/>
<path d="M196.049 139.072C196.93 138.583 196.979 137.335 196.14 136.779L195.47 136.335L191.284 141.164C188.456 139.377 185.538 139.664 182.912 141.13C179.537 143.013 176.643 146.843 175.042 150.716L186.512 144.358L196.049 139.072Z" fill="#FEFACC"/>
<path d="M191.284 141.164L195.47 136.335L197.145 134.536L198.823 132.733C199.296 132.225 199.304 131.441 198.838 130.928C195.513 127.277 192.879 124.928 189.68 123.344C187.729 122.377 185.568 121.696 182.912 121.179C189.127 129.643 190.079 133.822 191.284 141.164Z" fill="white"/>
<path fill-rule="evenodd" clip-rule="evenodd" d="M189.68 123.344C190.146 120.146 190.275 118.508 189.108 117.181L186.226 115.605C185.926 115.441 185.574 115.397 185.244 115.486C182.686 116.182 180.395 117.023 178.314 118.014C169.459 122.229 164.402 129.145 158.694 138.999C160.35 140.972 161.747 143.147 162.779 145.328C169.425 128.986 178.391 120.512 182.912 121.179C173.547 130.437 170.224 136.681 165.833 148.659C170.056 148.193 172.016 148.757 175.042 150.716C176.643 146.843 179.537 143.013 182.912 141.13V121.179C185.568 121.696 187.729 122.377 189.68 123.344ZM172.363 111.352C174.92 113.129 176.107 114.29 178.224 117.848C176.166 118.165 175.04 118.663 172.92 119.6C172.742 119.679 172.557 119.761 172.363 119.846V111.352Z" fill="white"/>
<path d="M191.284 141.164C190.079 133.822 189.127 129.643 182.912 121.179V141.13C185.538 139.664 188.456 139.377 191.284 141.164Z" fill="#FEFACC"/>
<path d="M167.005 171.31V162.15M167.005 171.31L127.998 149.046C127.579 148.807 127.321 148.362 127.321 147.88V139.832M167.005 171.31L205.847 149.046C206.264 148.807 206.522 148.362 206.522 147.881V139.832M167.005 162.15L127.321 139.832M167.005 162.15L206.522 139.832M127.321 139.832L137.702 134.003M206.522 139.832L197.145 134.536M165.833 155.821V148.659M165.833 155.821L138.381 140.218C137.961 139.979 137.702 139.534 137.702 139.051V134.003M165.833 155.821L175.042 150.716M165.833 148.659C170.056 148.193 172.016 148.757 175.042 150.716M165.833 148.659L165.383 148.749C164.693 148.886 164.017 148.466 163.789 147.8C163.509 146.983 163.17 146.155 162.779 145.328M165.833 148.659C170.224 136.681 173.547 130.437 182.912 121.179M195.47 136.335L196.14 136.779C196.979 137.335 196.93 138.583 196.049 139.072L186.512 144.358L175.042 150.716M195.47 136.335L191.284 141.164M195.47 136.335L197.145 134.536M191.284 141.164C190.079 133.822 189.127 129.643 182.912 121.179M191.284 141.164C188.456 139.377 185.538 139.664 182.912 141.13M175.042 150.716C176.643 146.843 179.537 143.013 182.912 141.13M175.042 150.716C175.86 139.484 177.105 133.078 182.912 121.179M137.702 133.17V130.505M137.702 133.17C140.474 131.275 143.391 130.728 146.242 131.136M137.702 133.17V134.003M137.702 130.505L136.698 131.838M137.702 130.505C138.625 129.169 139.448 127.935 140.212 126.79C144.482 120.388 146.911 116.746 154.713 113.288C154.867 113.22 155.011 113.122 155.129 113.004C157.665 110.471 159.116 109.184 161.479 108.188M162.779 145.328C169.425 128.986 178.391 120.512 182.912 121.179M162.779 145.328C161.747 143.147 160.35 140.972 158.694 138.999M182.912 121.179C185.568 121.696 187.729 122.377 189.68 123.344M182.912 121.179C186.228 117.59 187.301 117.351 189.108 117.181M182.912 121.179V141.13M161.479 108.188C163.866 106.283 165.263 105.421 167.314 104.439C167.65 104.279 168.038 104.27 168.383 104.41L172.363 106.022M161.479 108.188C160.938 108.677 160.427 109.122 159.935 109.55C155.919 113.047 153.246 115.374 146.242 131.136M172.363 106.022C167.34 108.188 157.293 115.349 151.098 132.737M172.363 106.022V111.352M151.098 132.737C149.529 131.933 147.896 131.373 146.242 131.136M151.098 132.737C152.677 133.547 154.192 134.606 155.601 135.835M155.601 135.835C161.891 126.275 165.652 123.962 172.363 119.846M155.601 135.835C156.704 136.798 157.742 137.865 158.694 138.999M172.363 119.846V111.352M172.363 119.846C172.557 119.761 172.742 119.679 172.92 119.6C175.04 118.663 176.166 118.165 178.224 117.848M172.363 111.352C174.92 113.129 176.107 114.29 178.224 117.848M178.224 117.848L178.314 118.014M189.108 117.181L186.226 115.605C185.926 115.441 185.574 115.397 185.244 115.486C182.686 116.182 180.395 117.023 178.314 118.014M189.108 117.181C190.275 118.508 190.146 120.146 189.68 123.344M189.68 123.344C192.879 124.928 195.513 127.277 198.838 130.928C199.304 131.441 199.296 132.225 198.823 132.733L197.145 134.536M158.694 138.999C164.402 129.145 169.459 122.229 178.314 118.014M147.263 138.365L156.969 144.106C157.377 144.347 157.628 144.787 157.628 145.261V146.639C157.628 147.678 156.497 148.324 155.602 147.794L145.896 142.054C145.488 141.812 145.237 141.373 145.237 140.898V139.521C145.237 138.481 146.368 137.836 147.263 138.365Z" stroke="#333015" stroke-width="1.67799"/>
</g>
<rect y="138" width="92" height="92" rx="3.44" fill="#FDEF67"/>
<g filter="url(#filter1_d_5405_38798)">
<path d="M16.5 193.308L37.9396 205.187V197.572L16.5 185.541V193.308Z" fill="#FEFACC"/>
<path d="M57.0656 168.331C57.0656 169.172 55.8225 169.854 54.2892 169.854C52.7559 169.854 51.5129 169.172 51.5129 168.331C51.5129 167.489 52.7559 166.808 54.2892 166.808C55.8225 166.808 57.0656 167.489 57.0656 168.331Z" fill="#FEFACC"/>
<path d="M50.8959 171.681C50.8959 172.522 49.6529 173.204 48.1195 173.204C46.5862 173.204 45.3432 172.522 45.3432 171.681C45.3432 170.84 46.5862 170.158 48.1195 170.158C49.6529 170.158 50.8959 170.84 50.8959 171.681Z" fill="#FEFACC"/>
<path d="M45.3432 175.032C45.3432 175.873 44.1002 176.555 42.5668 176.555C41.0335 176.555 39.7905 175.873 39.7905 175.032C39.7905 174.191 41.0335 173.509 42.5668 173.509C44.1002 173.509 45.3432 174.191 45.3432 175.032Z" fill="#FEFACC"/>
<path d="M39.482 178.382C39.482 179.224 38.239 179.905 36.7057 179.905C35.1723 179.905 33.9293 179.224 33.9293 178.382C33.9293 177.541 35.1723 176.859 36.7057 176.859C38.239 176.859 39.482 177.541 39.482 178.382Z" fill="#FEFACC"/>
<path d="M33.6208 181.733C33.6208 182.574 32.3778 183.256 30.8445 183.256C29.3111 183.256 28.0681 182.574 28.0681 181.733C28.0681 180.892 29.3111 180.21 30.8445 180.21C32.3778 180.21 33.6208 180.892 33.6208 181.733Z" fill="#FEFACC"/>
<path d="M27.7596 185.084C27.7596 185.925 26.5166 186.607 24.9833 186.607C23.45 186.607 22.2069 185.925 22.2069 185.084C22.2069 184.243 23.45 183.561 24.9833 183.561C26.5166 183.561 27.7596 184.243 27.7596 185.084Z" fill="#FEFACC"/>
<path d="M72.1812 178.078L58.2995 170.31V173.509L72.1812 180.972V178.078Z" fill="#FEFACC"/>
<path d="M59.3792 180.972V178.687L54.5977 175.651L51.3586 177.525L56.1401 180.972H59.3792Z" fill="#FEFACC"/>
<path d="M51.8213 184.627V182.495L47.3483 179.846L43.9276 181.825L48.5823 184.627H51.8213Z" fill="#FEFACC"/>
<path fill-rule="evenodd" clip-rule="evenodd" d="M54.9062 163L16.5 185.541L37.9396 197.572V205.187L42.5668 202.533L72.1812 185.541L76.5 182.951V175.336L54.9062 163ZM27.7596 185.084C27.7596 185.925 26.5166 186.607 24.9833 186.607C23.45 186.607 22.2069 185.925 22.2069 185.084C22.2069 184.243 23.45 183.561 24.9833 183.561C26.5166 183.561 27.7596 184.243 27.7596 185.084ZM30.8445 183.256C32.3778 183.256 33.6208 182.574 33.6208 181.733C33.6208 180.892 32.3778 180.21 30.8445 180.21C29.3111 180.21 28.0681 180.892 28.0681 181.733C28.0681 182.574 29.3111 183.256 30.8445 183.256ZM39.482 178.382C39.482 179.224 38.239 179.905 36.7057 179.905C35.1723 179.905 33.9293 179.224 33.9293 178.382C33.9293 177.541 35.1723 176.859 36.7057 176.859C38.239 176.859 39.482 177.541 39.482 178.382ZM42.5668 176.555C44.1002 176.555 45.3432 175.873 45.3432 175.032C45.3432 174.191 44.1002 173.509 42.5668 173.509C41.0335 173.509 39.7905 174.191 39.7905 175.032C39.7905 175.873 41.0335 176.555 42.5668 176.555ZM50.8959 171.681C50.8959 172.522 49.6529 173.204 48.1195 173.204C46.5862 173.204 45.3432 172.522 45.3432 171.681C45.3432 170.84 46.5862 170.158 48.1195 170.158C49.6529 170.158 50.8959 170.84 50.8959 171.681ZM54.2892 169.854C55.8225 169.854 57.0656 169.172 57.0656 168.331C57.0656 167.489 55.8225 166.808 54.2892 166.808C52.7559 166.808 51.5129 167.489 51.5129 168.331C51.5129 169.172 52.7559 169.854 54.2892 169.854ZM72.1812 178.078L58.2995 170.31V173.509L72.1812 180.972V178.078ZM59.3792 178.687V180.972H56.1401L51.3586 177.525L54.5977 175.651L59.3792 178.687ZM51.8213 184.627V182.495L47.3483 179.846L43.9276 181.825L48.5823 184.627H51.8213ZM40.099 184.041L44.8805 187.064V189.196H41.6414L36.7057 186.004L40.099 184.041Z" fill="white"/>
<path d="M44.8805 187.064L40.099 184.041L36.7057 186.004L41.6414 189.196H44.8805V187.064Z" fill="#FEFACC"/>
<path d="M16.5 185.541L54.9062 163L76.5 175.336M16.5 185.541V193.308L37.9396 205.187M16.5 185.541L37.9396 197.572M76.5 175.336L72.1812 178.078M76.5 175.336V182.951L72.1812 185.541M72.1812 178.078L58.2995 170.31M72.1812 178.078V180.972M72.1812 185.541L42.5668 202.533M72.1812 185.541V180.972M37.9396 205.187V197.572M37.9396 205.187L42.5668 202.533M37.9396 197.572L42.5668 194.679M42.5668 194.679L31.9797 188.739M42.5668 194.679V197.877M42.5668 202.533V197.877M58.2995 170.31L28.9936 187.064L31.9797 188.739M58.2995 170.31V173.509M72.1812 180.972L58.2995 173.509M72.1812 180.972L65.7781 184.627M58.2995 173.509L54.5977 175.651M31.9797 188.739L36.7057 186.004M42.5668 197.877L51.0501 193.034M51.0501 193.034L44.8805 189.196M51.0501 193.034L58.2995 188.896M44.8805 189.196V187.064L40.099 184.041M44.8805 189.196H41.6414L36.7057 186.004M40.099 184.041L36.7057 186.004M40.099 184.041L43.9276 181.825M58.2995 188.896L51.8213 184.627M58.2995 188.896L65.7781 184.627M51.8213 184.627V182.495L47.3483 179.846M51.8213 184.627H48.5823L43.9276 181.825M47.3483 179.846L51.3586 177.525M47.3483 179.846L43.9276 181.825M65.7781 184.627L59.3792 180.972M59.3792 180.972V178.687L54.5977 175.651M59.3792 180.972H56.1401L51.3586 177.525M54.5977 175.651L51.3586 177.525M50.8959 171.681C50.8959 172.522 49.6529 173.204 48.1195 173.204C46.5862 173.204 45.3432 172.522 45.3432 171.681C45.3432 170.84 46.5862 170.158 48.1195 170.158C49.6529 170.158 50.8959 170.84 50.8959 171.681ZM45.3432 175.032C45.3432 175.873 44.1002 176.555 42.5668 176.555C41.0335 176.555 39.7905 175.873 39.7905 175.032C39.7905 174.191 41.0335 173.509 42.5668 173.509C44.1002 173.509 45.3432 174.191 45.3432 175.032ZM39.482 178.382C39.482 179.224 38.239 179.905 36.7057 179.905C35.1723 179.905 33.9293 179.224 33.9293 178.382C33.9293 177.541 35.1723 176.859 36.7057 176.859C38.239 176.859 39.482 177.541 39.482 178.382ZM33.6208 181.733C33.6208 182.574 32.3778 183.256 30.8445 183.256C29.3111 183.256 28.0681 182.574 28.0681 181.733C28.0681 180.892 29.3111 180.21 30.8445 180.21C32.3778 180.21 33.6208 180.892 33.6208 181.733ZM27.7596 185.084C27.7596 185.925 26.5166 186.607 24.9833 186.607C23.45 186.607 22.2069 185.925 22.2069 185.084C22.2069 184.243 23.45 183.561 24.9833 183.561C26.5166 183.561 27.7596 184.243 27.7596 185.084ZM57.0656 168.331C57.0656 169.172 55.8225 169.854 54.2892 169.854C52.7559 169.854 51.5129 169.172 51.5129 168.331C51.5129 167.489 52.7559 166.808 54.2892 166.808C55.8225 166.808 57.0656 167.489 57.0656 168.331Z" stroke="#333015" stroke-width="1.25"/>
</g>
<rect x="240" y="137" width="92" height="92" rx="3.44" fill="#FDEF67"/>
<g filter="url(#filter2_d_5405_38798)">
<path d="M285.283 186.145C285.906 186.501 286.29 187.164 286.29 187.882V191.44C286.29 192.97 284.642 193.933 283.309 193.183L277.029 189.648L267.697 184.395L260.452 180.318C259.822 179.963 259.433 179.297 259.433 178.575V174.819C259.433 173.283 261.092 172.32 262.425 173.082L267.697 176.095L277.029 181.428L285.283 186.145Z" fill="white"/>
<path fill-rule="evenodd" clip-rule="evenodd" d="M255.96 165.093V186.31C255.96 187 256.315 187.641 256.9 188.006L258.565 189.047C258.727 187.903 259.226 186.989 260.061 186.505C262.07 185.34 265.259 187.108 267.182 190.455C268.087 192.03 268.551 193.673 268.579 195.093L281.319 203C281.409 201.662 281.924 200.582 282.859 200.04C284.868 198.875 288.056 200.643 289.98 203.99C291.027 205.812 291.483 207.725 291.358 209.279L297.172 213V203.698L289.995 199.512V186.721C289.995 186.023 289.763 184.628 287.679 183.233L255.96 165.093ZM285.283 186.145C285.906 186.501 286.29 187.164 286.29 187.882V191.44C286.29 192.97 284.642 193.933 283.309 193.183L277.029 189.648L267.697 184.395L260.452 180.318C259.822 179.963 259.433 179.297 259.433 178.575V174.819C259.433 173.283 261.092 172.32 262.425 173.082L267.697 176.095L277.029 181.428L285.283 186.145Z" fill="#FEFACC"/>
<path d="M306.576 201.926C306.199 202.16 305.97 202.572 305.97 203.016V203.016C305.97 204.023 307.077 204.638 307.932 204.106L310.226 202.679C310.603 202.445 310.832 202.033 310.832 201.589V201.589C310.832 200.582 309.726 199.967 308.871 200.499L306.576 201.926Z" fill="#FEFACC"/>
<path d="M303.017 206.838C302.386 207.936 301.34 208.516 300.681 208.134C300.022 207.751 299.999 206.551 300.63 205.453C301.261 204.355 302.307 203.775 302.966 204.157C303.626 204.54 303.648 205.74 303.017 206.838Z" fill="#FEFACC"/>
<path d="M315.468 199.495C314.837 200.593 313.791 201.174 313.132 200.791C312.473 200.409 312.45 199.209 313.081 198.111C313.712 197.013 314.758 196.433 315.417 196.815C316.077 197.197 316.099 198.397 315.468 199.495Z" fill="#FEFACC"/>
<path fill-rule="evenodd" clip-rule="evenodd" d="M287.679 183.233L255.96 165.093L275.557 153.592C276.18 153.226 276.952 153.225 277.577 153.59L308.054 171.372C309.713 172.419 309.906 173.233 309.906 175.093V187.884L317.778 191.605V199.983C317.778 200.699 317.396 201.36 316.776 201.716L297.172 213V203.698L289.995 199.512V186.721C289.995 186.023 289.763 184.628 287.679 183.233ZM303.017 206.838C302.386 207.936 301.34 208.516 300.681 208.134C300.022 207.751 299.999 206.551 300.63 205.453C301.261 204.355 302.307 203.775 302.966 204.157C303.626 204.54 303.648 205.74 303.017 206.838ZM307.932 204.106C307.077 204.638 305.97 204.023 305.97 203.016V203.016C305.97 202.572 306.199 202.16 306.576 201.926L308.871 200.499C309.726 199.967 310.832 200.582 310.832 201.589V201.589C310.832 202.033 310.603 202.445 310.226 202.679L307.932 204.106ZM315.468 199.495C314.837 200.593 313.791 201.174 313.132 200.791C312.473 200.409 312.45 199.209 313.081 198.111C313.712 197.013 314.758 196.433 315.417 196.815C316.077 197.197 316.099 198.397 315.468 199.495ZM295.793 192.605C294.46 193.396 292.773 192.435 292.773 190.885V184.837C292.773 184.131 293.146 183.477 293.753 183.117L303.876 177.116C305.21 176.325 306.896 177.286 306.896 178.836V184.884C306.896 185.59 306.524 186.244 305.916 186.604L295.793 192.605Z" fill="white"/>
<path d="M293.753 183.117C293.146 183.477 292.773 184.131 292.773 184.837V190.885C292.773 192.435 294.46 193.396 295.793 192.605L305.916 186.604C306.524 186.244 306.896 185.59 306.896 184.884V178.836C306.896 177.286 305.21 176.325 303.876 177.116L293.753 183.117Z" fill="#FEFACC"/>
<path fill-rule="evenodd" clip-rule="evenodd" d="M291.358 209.279C291.483 207.725 291.027 205.812 289.98 203.99C288.056 200.643 284.868 198.875 282.859 200.04C281.924 200.582 281.409 201.662 281.319 203C281.216 204.539 281.674 206.419 282.704 208.209C284.627 211.556 287.815 213.325 289.825 212.159C290.74 211.628 291.253 210.58 291.358 209.279ZM287.223 208.089C287.882 207.707 287.905 206.507 287.274 205.409C286.642 204.311 285.596 203.731 284.937 204.113C284.278 204.495 284.255 205.695 284.886 206.793C285.517 207.891 286.563 208.472 287.223 208.089Z" fill="white"/>
<path d="M287.274 205.409C287.905 206.507 287.882 207.707 287.223 208.089C286.563 208.472 285.517 207.891 284.886 206.793C284.255 205.695 284.278 204.495 284.937 204.113C285.596 203.731 286.642 204.311 287.274 205.409Z" fill="#FEFACC"/>
<path fill-rule="evenodd" clip-rule="evenodd" d="M268.579 195.093C268.551 193.673 268.087 192.03 267.182 190.455C265.259 187.108 262.07 185.34 260.061 186.505C259.226 186.989 258.727 187.903 258.565 189.047C258.338 190.655 258.782 192.718 259.906 194.675C261.83 198.021 265.018 199.79 267.027 198.625C268.091 198.008 268.611 196.692 268.579 195.093ZM264.533 194.645C265.192 194.263 265.215 193.063 264.584 191.965C263.953 190.867 262.906 190.287 262.247 190.669C261.588 191.051 261.565 192.251 262.196 193.349C262.828 194.447 263.874 195.028 264.533 194.645Z" fill="white"/>
<path d="M264.584 191.965C265.215 193.063 265.192 194.263 264.533 194.645C263.874 195.028 262.828 194.447 262.196 193.349C261.565 192.251 261.588 191.051 262.247 190.669C262.906 190.287 263.953 190.867 264.584 191.965Z" fill="#FEFACC"/>
<path d="M255.96 165.093V186.31C255.96 187 256.315 187.641 256.9 188.006L258.565 189.047M255.96 165.093L287.679 183.233M255.96 165.093L275.557 153.592C276.18 153.226 276.952 153.225 277.577 153.59L308.054 171.372M287.679 183.233L308.054 171.372M287.679 183.233C289.763 184.628 289.995 186.023 289.995 186.721V199.512M308.054 171.372C309.713 172.419 309.906 173.233 309.906 175.093V187.884M309.906 187.884L289.995 199.512M309.906 187.884L317.778 191.605M289.995 199.512L297.172 203.698M297.172 203.698V213M297.172 203.698L317.778 191.605M297.172 213L316.776 201.716C317.396 201.36 317.778 200.699 317.778 199.983V191.605M297.172 213L291.358 209.279M277.029 189.648L283.309 193.183C284.642 193.933 286.29 192.97 286.29 191.44V187.882C286.29 187.164 285.906 186.501 285.283 186.145L277.029 181.428M277.029 189.648V181.428M277.029 189.648L267.697 184.395M277.029 181.428L267.697 176.095M267.697 184.395L260.452 180.318C259.822 179.963 259.433 179.297 259.433 178.575V174.819C259.433 173.283 261.092 172.32 262.425 173.082L267.697 176.095M267.697 184.395V176.095M291.358 209.279C291.483 207.725 291.027 205.812 289.98 203.99C288.056 200.643 284.868 198.875 282.859 200.04C281.924 200.582 281.409 201.662 281.319 203M291.358 209.279C291.253 210.58 290.74 211.628 289.825 212.159C287.815 213.325 284.627 211.556 282.704 208.209C281.674 206.419 281.216 204.539 281.319 203M281.319 203L268.579 195.093M268.579 195.093C268.551 193.673 268.087 192.03 267.182 190.455C265.259 187.108 262.07 185.34 260.061 186.505C259.226 186.989 258.727 187.903 258.565 189.047M268.579 195.093C268.611 196.692 268.091 198.008 267.027 198.625C265.018 199.79 261.83 198.021 259.906 194.675C258.782 192.718 258.338 190.655 258.565 189.047M264.584 191.965C265.215 193.063 265.192 194.263 264.533 194.645C263.874 195.028 262.828 194.447 262.196 193.349C261.565 192.251 261.588 191.051 262.247 190.669C262.906 190.287 263.953 190.867 264.584 191.965ZM287.274 205.409C287.905 206.507 287.882 207.707 287.223 208.089C286.563 208.472 285.517 207.891 284.886 206.793C284.255 205.695 284.278 204.495 284.937 204.113C285.596 203.731 286.642 204.311 287.274 205.409ZM303.017 206.838C302.386 207.936 301.34 208.516 300.681 208.134C300.022 207.751 299.999 206.551 300.63 205.453C301.261 204.355 302.307 203.775 302.966 204.157C303.626 204.54 303.648 205.74 303.017 206.838ZM315.468 199.495C314.837 200.593 313.791 201.174 313.132 200.791C312.473 200.409 312.45 199.209 313.081 198.111C313.712 197.013 314.758 196.433 315.417 196.815C316.077 197.197 316.099 198.397 315.468 199.495ZM306.896 178.836V184.884C306.896 185.59 306.524 186.244 305.916 186.604L295.793 192.605C294.46 193.396 292.773 192.435 292.773 190.885V184.837C292.773 184.131 293.146 183.477 293.753 183.117L303.876 177.116C305.21 176.325 306.896 177.286 306.896 178.836ZM310.832 201.589V201.589C310.832 202.033 310.603 202.445 310.226 202.679L307.932 204.106C307.077 204.638 305.97 204.023 305.97 203.016V203.016C305.97 202.572 306.199 202.16 306.576 201.926L308.871 200.499C309.726 199.967 310.832 200.582 310.832 201.589Z" stroke="#333015" stroke-width="1.25"/>
</g>
<defs>
<filter id="filter0_d_5405_38798" x="110.373" y="92.733" width="113.096" height="101.022" filterUnits="userSpaceOnUse" color-interpolation-filters="sRGB">
<feFlood flood-opacity="0" result="BackgroundImageFix"/>
<feColorMatrix in="SourceAlpha" type="matrix" values="0 0 0 0 0 0 0 0 0 0 0 0 0 0 0 0 0 0 127 0" result="hardAlpha"/>
<feOffset dy="5.36957"/>
<feGaussianBlur stdDeviation="8.05435"/>
<feComposite in2="hardAlpha" operator="out"/>
<feColorMatrix type="matrix" values="0 0 0 0 0 0 0 0 0 0 0 0 0 0 0 0 0 0 0.25 0"/>
<feBlend mode="normal" in2="BackgroundImageFix" result="effect1_dropShadow_5405_38798"/>
<feBlend mode="normal" in="SourceGraphic" in2="effect1_dropShadow_5405_38798" result="shape"/>
</filter>
<filter id="filter1_d_5405_38798" x="3.875" y="154.278" width="85.25" height="67.627" filterUnits="userSpaceOnUse" color-interpolation-filters="sRGB">
<feFlood flood-opacity="0" result="BackgroundImageFix"/>
<feColorMatrix in="SourceAlpha" type="matrix" values="0 0 0 0 0 0 0 0 0 0 0 0 0 0 0 0 0 0 127 0" result="hardAlpha"/>
<feOffset dy="4"/>
<feGaussianBlur stdDeviation="6"/>
<feComposite in2="hardAlpha" operator="out"/>
<feColorMatrix type="matrix" values="0 0 0 0 0 0 0 0 0 0 0 0 0 0 0 0 0 0 0.25 0"/>
<feBlend mode="normal" in2="BackgroundImageFix" result="effect1_dropShadow_5405_38798"/>
<feBlend mode="normal" in="SourceGraphic" in2="effect1_dropShadow_5405_38798" result="shape"/>
</filter>
<filter id="filter2_d_5405_38798" x="243.335" y="144.692" width="87.0682" height="85.0386" filterUnits="userSpaceOnUse" color-interpolation-filters="sRGB">
<feFlood flood-opacity="0" result="BackgroundImageFix"/>
<feColorMatrix in="SourceAlpha" type="matrix" values="0 0 0 0 0 0 0 0 0 0 0 0 0 0 0 0 0 0 127 0" result="hardAlpha"/>
<feOffset dy="4"/>
<feGaussianBlur stdDeviation="6"/>
<feComposite in2="hardAlpha" operator="out"/>
<feColorMatrix type="matrix" values="0 0 0 0 0 0 0 0 0 0 0 0 0 0 0 0 0 0 0.25 0"/>
<feBlend mode="normal" in2="BackgroundImageFix" result="effect1_dropShadow_5405_38798"/>
<feBlend mode="normal" in="SourceGraphic" in2="effect1_dropShadow_5405_38798" result="shape"/>
</filter>
</defs>
</svg>
