<svg width="325" height="285" viewBox="0 0 325 285" fill="none" xmlns="http://www.w3.org/2000/svg">
<path d="M101.357 225.807C70.5574 209.527 24.3574 213.487 7.63741 198.087C-8.86259 182.467 4.11743 147.047 20.6174 120.647C37.3374 94.2467 57.5774 76.6467 74.2974 53.3267C90.7974 30.2267 103.557 1.62672 121.817 0.0867151C140.297 -1.67329 164.057 23.8467 193.317 32.2067C222.357 40.3467 256.897 31.3267 281.977 41.0067C307.277 50.6867 323.557 79.0667 324.877 108.107C326.417 136.927 312.997 165.967 294.737 187.527C276.477 209.087 253.157 222.727 230.497 242.747C207.617 262.767 185.617 289.167 166.697 283.887C147.777 278.827 132.377 242.087 101.357 225.807Z" fill="#F1F6F8"/>
<g clip-path="url(#clip0_5405_38898)">
<g clip-path="url(#clip1_5405_38898)">
<path d="M202.32 152.846C196.182 163.478 192.639 174.48 191.688 184.293C190.376 197.821 193.989 209.088 202.513 214.01L215.837 221.833C213.546 220.466 211.618 218.633 210.052 216.416C201.721 204.624 203.649 181.98 215.875 160.805C228.179 139.493 246.988 126.471 261.402 127.984C264.091 128.266 266.628 129.055 268.941 130.39L255.386 122.431C240.679 113.94 216.92 127.557 202.32 152.846Z" fill="#6AD997"/>
<path d="M215.837 221.833L202.513 214.01C193.989 209.088 190.376 197.821 191.688 184.293C163.329 197.848 174.851 225.297 222.633 224.25C220.304 223.893 218.1 223.142 216.068 221.969C215.99 221.924 215.913 221.879 215.837 221.833Z" fill="#3FAF6C"/>
<path d="M216.068 221.97C230.775 230.461 254.534 216.844 269.134 191.555C283.735 166.266 283.648 138.882 268.941 130.391M216.068 221.97L215.837 221.834M216.068 221.97C215.991 221.925 215.914 221.88 215.837 221.834M268.941 130.391C266.629 129.056 264.092 128.267 261.402 127.985C246.988 126.472 228.18 139.494 215.875 160.806C203.65 181.981 201.722 204.625 210.052 216.417C211.618 218.633 213.547 220.467 215.837 221.834M268.941 130.391L255.386 122.432C240.679 113.941 216.921 127.558 202.32 152.847C187.72 178.136 187.806 205.52 202.513 214.011L215.837 221.834M234.745 173.938C234.745 173.938 233.245 168.938 229.245 171.438C225.246 173.938 224.244 178.353 224.245 180.938M262.745 157.938C262.745 157.938 261.245 152.938 257.245 155.438C253.246 157.938 252.244 162.353 252.245 164.938M257.497 183.942C252.389 203.19 239.36 208.35 233.74 198.301C233.493 197.859 233.648 197.304 234.073 197.03L256.031 182.893C256.781 182.41 257.726 183.08 257.497 183.942Z" stroke="#0F1B1F" stroke-width="2" stroke-linecap="round"/>
</g>
</g>
<g clip-path="url(#clip2_5405_38898)">
<g clip-path="url(#clip3_5405_38898)">
<path d="M50.9936 173.846C44.8554 184.478 41.313 195.48 40.3616 205.293C39.05 218.821 42.6626 230.088 51.1866 235.01L64.5107 242.833C62.2201 241.466 60.2916 239.633 58.7257 237.416C50.3952 225.624 52.3232 202.98 64.5487 181.805C76.8532 160.493 95.6617 147.471 110.076 148.984C112.765 149.266 115.302 150.055 117.615 151.39L104.06 143.431C89.3525 134.94 65.5941 148.557 50.9936 173.846Z" fill="#A6DBF0"/>
<path d="M64.5107 242.833L51.1866 235.01C42.6626 230.088 39.05 218.821 40.3616 205.293C12.0031 218.848 23.5253 246.297 71.3067 245.25C68.9777 244.893 66.7733 244.142 64.7417 242.969C64.6643 242.924 64.5873 242.879 64.5107 242.833Z" fill="#70B8D5"/>
<path d="M64.7423 242.97C79.4493 251.461 103.208 237.844 117.808 212.555C132.409 187.266 132.322 159.882 117.615 151.391M64.7423 242.97L64.5113 242.834M64.7423 242.97C64.6649 242.925 64.5879 242.88 64.5113 242.834M117.615 151.391C115.302 150.056 112.766 149.267 110.076 148.985C95.6623 147.472 76.8537 160.494 64.5493 181.806C52.3238 202.981 50.3957 225.625 58.7262 237.417C60.2922 239.633 62.2206 241.467 64.5113 242.834M117.615 151.391L104.06 143.432C89.3531 134.941 65.5946 148.558 50.9942 173.847C36.3937 199.136 36.4801 226.52 51.1872 235.011L64.5113 242.834M74.0988 217.86C79.6744 229.382 100.112 221.588 108.435 198.205M83.745 194.938C83.745 194.938 82.2448 189.938 78.2452 192.438C74.2455 194.938 73.2444 199.353 73.2451 201.938M111.745 178.938C111.745 178.938 110.245 173.938 106.245 176.438C102.246 178.938 101.244 183.353 101.245 185.938" stroke="#0F1B1F" stroke-width="2" stroke-linecap="round"/>
</g>
</g>
<g clip-path="url(#clip4_5405_38898)">
<g clip-path="url(#clip5_5405_38898)">
<path d="M132.32 46.9079C126.182 57.5396 122.639 68.5417 121.688 78.3545C120.376 91.8826 123.989 103.15 132.513 108.072L145.837 115.895C143.546 114.528 141.618 112.695 140.052 110.478C131.721 98.6865 133.649 76.0423 145.875 54.8671C158.179 33.5551 176.988 20.5326 191.402 22.046C194.091 22.3284 196.628 23.117 198.941 24.4523L185.386 16.4931C170.679 8.00198 146.92 21.6191 132.32 46.9079Z" fill="#9E80C5"/>
<path d="M145.837 115.895L132.513 108.072C123.989 103.15 120.376 91.8826 121.688 78.3545C93.3292 91.9097 104.851 119.359 152.633 118.312C150.304 117.955 148.1 117.204 146.068 116.031C145.99 115.986 145.913 115.941 145.837 115.895Z" fill="#9E80C5"/>
<path d="M146.416 115.969C161.123 124.46 184.882 110.843 199.482 85.5541C214.083 60.2654 213.996 32.8814 199.289 24.3903C196.976 23.055 194.44 22.2664 191.75 21.984C177.336 20.4706 158.528 33.4931 146.223 54.805C133.998 75.9802 132.07 98.6245 140.4 110.416C141.966 112.633 143.894 114.466 146.185 115.833L146.416 115.969Z" fill="#F2EBFB"/>
<path d="M132.668 46.8459C118.068 72.1346 118.154 99.5186 132.861 108.01L146.185 115.833C143.894 114.466 141.966 112.633 140.4 110.416C132.07 98.6245 133.998 75.9802 146.223 54.805C158.528 33.4931 177.336 20.4706 191.75 21.984C194.44 22.2664 196.976 23.055 199.289 24.3903L185.734 16.4311C171.027 7.93997 147.268 21.5571 132.668 46.8459Z" fill="#BE9AEC"/>
<path d="M146.416 115.969C161.123 124.46 184.882 110.843 199.482 85.5541C214.083 60.2654 213.996 32.8814 199.289 24.3903M146.416 115.969L146.185 115.833M146.416 115.969C146.339 115.924 146.262 115.879 146.185 115.833M199.289 24.3903C196.976 23.055 194.44 22.2664 191.75 21.984C177.336 20.4706 158.528 33.4931 146.223 54.805C133.998 75.9802 132.07 98.6245 140.4 110.416C141.966 112.633 143.894 114.466 146.185 115.833M199.289 24.3903L185.734 16.4311C171.027 7.93997 147.268 21.5571 132.668 46.8459C118.068 72.1346 118.154 99.5186 132.861 108.01L146.185 115.833M162.999 92.8144C172.487 97.2198 183.67 85.6979 188.414 78.5815M165.745 67.9373C165.745 67.9373 164.245 62.9371 160.245 65.4372C156.246 67.9374 155.244 72.3518 155.245 74.9366M193.745 51.9373C193.745 51.9373 192.245 46.9371 188.245 49.4372C184.246 51.9374 183.244 56.3518 183.245 58.9366" stroke="#0F1B1F" stroke-width="2" stroke-linecap="round"/>
</g>
</g>
<defs>
<clipPath id="clip0_5405_38898">
<rect width="105" height="108" fill="white" transform="translate(176.397 117.967)"/>
</clipPath>
<clipPath id="clip1_5405_38898">
<rect width="105" height="108" fill="white" transform="translate(176.397 117.967)"/>
</clipPath>
<clipPath id="clip2_5405_38898">
<rect width="106" height="108" fill="white" transform="translate(24.397 138.967)"/>
</clipPath>
<clipPath id="clip3_5405_38898">
<rect width="106" height="108" fill="white" transform="translate(24.397 138.967)"/>
</clipPath>
<clipPath id="clip4_5405_38898">
<rect width="105" height="108" fill="white" transform="translate(106.397 11.9673)"/>
</clipPath>
<clipPath id="clip5_5405_38898">
<rect width="105" height="108" fill="white" transform="translate(106.397 11.9673)"/>
</clipPath>
</defs>
</svg>
