<svg width="326" height="285" viewBox="0 0 326 285" fill="none" xmlns="http://www.w3.org/2000/svg">
<path d="M101.96 225.839C71.1603 209.559 24.9603 213.519 8.24025 198.119C-8.25975 182.499 4.72027 147.079 21.2203 120.679C37.9403 94.2794 58.1803 76.6794 74.9003 53.3594C91.4003 30.2594 104.16 1.65943 122.42 0.11943C140.9 -1.64057 164.66 23.8794 193.92 32.2394C222.96 40.3794 257.5 31.3594 282.58 41.0394C307.88 50.7194 324.16 79.0994 325.48 108.139C327.02 136.959 313.6 165.999 295.34 187.559C277.08 209.119 253.76 222.759 231.1 242.779C208.22 262.799 186.22 289.199 167.3 283.919C148.38 278.859 132.98 242.119 101.96 225.839Z" fill="#E4F4FA"/>
<circle cx="51" cy="167" r="46" fill="#79C9E8"/>
<g filter="url(#filter0_d_5405_38799)">
<path d="M44.3457 197V177.885L25.0537 167.088V185.031C25.0537 185.755 25.4451 186.423 26.077 186.776L44.3457 197Z" fill="#D2EDF7"/>
<path d="M56.5581 154.08V161.425L70.0095 169.315V161.425L56.5581 154.08Z" fill="#D2EDF7"/>
<path d="M36.9121 166.381V151.513L30.8944 148.327V163.018L36.9121 166.381Z" fill="#D2EDF7"/>
<path fill-rule="evenodd" clip-rule="evenodd" d="M50.3634 193.661L44.3457 197V177.885L25.0537 167.088L30.8944 163.018L36.9121 166.381V151.513L30.8944 148.327L49.4169 137.551C50.0066 137.208 50.7306 137.189 51.3373 137.501L56.5581 140.186V150.192C56.5581 148.654 58.222 147.692 59.5554 148.459L76.5581 158.239V177.946C76.5581 178.673 76.164 179.343 75.5286 179.695L70.0095 182.758L50.3634 193.661ZM56.5581 161.425V154.08L70.0095 161.425V169.315L50.3634 180.186V174.345L41.8679 169.315L56.5581 161.425Z" fill="white"/>
<path d="M41.8679 169.315L50.3634 174.345V180.186L70.0095 169.315L56.5581 161.425L41.8679 169.315Z" fill="#D2EDF7"/>
<path d="M44.3457 197V177.885M44.3457 197L50.3634 193.661M44.3457 197L26.077 186.776M44.3457 177.885L25.0537 167.088M44.3457 177.885L50.3634 174.345M25.0537 167.088L30.8944 163.018M25.0537 167.088V185.031M76.5581 158.239L70.0095 161.425M76.5581 158.239L59.5554 148.459M76.5581 158.239V177.946M56.5581 161.425V154.08M56.5581 161.425L41.8679 169.315M56.5581 161.425L70.0095 169.315M56.5581 140.186L36.9121 151.513M56.5581 140.186L51.3373 137.501M56.5581 140.186V150.192M36.9121 151.513V166.381M36.9121 151.513L30.8944 148.327M36.9121 166.381L30.8944 163.018M36.9121 166.381L41.8679 169.315M30.8944 163.018V148.327M30.8944 148.327L49.4169 137.551M70.0095 161.425L56.5581 154.08M70.0095 161.425V169.315M56.5581 154.08V150.192M70.0095 182.758L50.3634 193.661M70.0095 182.758V173.991M70.0095 182.758L75.5286 179.695M50.3634 193.661V185.142M50.3634 174.345L41.8679 169.315M50.3634 174.345V180.186M70.0095 169.315L50.3634 180.186M70.0095 169.315V173.991M50.3634 180.186V185.142M50.3634 185.142L70.0095 173.991M26.077 186.776C25.4451 186.423 25.0537 185.755 25.0537 185.031M26.077 186.776V186.776C25.4451 186.423 25.0537 185.755 25.0537 185.031V185.031M49.4169 137.551C50.0066 137.208 50.7306 137.189 51.3373 137.501M49.4169 137.551V137.551C50.0066 137.208 50.7306 137.189 51.3373 137.501V137.501M56.5581 150.192C56.5581 148.654 58.222 147.692 59.5554 148.459M56.5581 150.192V150.192C56.5581 148.654 58.222 147.692 59.5554 148.459V148.459M76.5581 177.946C76.5581 178.673 76.164 179.343 75.5286 179.695M76.5581 177.946V177.946C76.5581 178.673 76.164 179.343 75.5286 179.695V179.695" stroke="#18282E" stroke-width="1.25"/>
</g>
<circle cx="164" cy="113" r="62" fill="#79C9E8"/>
<g filter="url(#filter1_d_5405_38799)">
<path d="M159.938 77.691L137.717 90.4919C135.934 91.5188 135.913 94.0836 137.678 95.1405L139.447 96.1998L159.938 84.2403V77.691Z" fill="white"/>
<path d="M180.408 94.2571C182.199 93.2194 182.201 90.6346 180.411 89.5944L159.938 77.691V84.2403L178.731 95.229L180.408 94.2571Z" fill="#D2EDF7"/>
<path d="M139.447 96.1998L156.582 106.46C157.423 106.963 158.47 106.971 159.318 106.479L178.731 95.229L159.938 84.2403L139.447 96.1998Z" fill="#D2EDF7"/>
<path fill-rule="evenodd" clip-rule="evenodd" d="M157.944 112.431L124.913 92.7828V132.801C124.913 133.763 125.427 134.653 126.26 135.135L157.944 153.435V121.828V112.431ZM151.445 121.055C152.293 121.532 152.819 122.43 152.819 123.404V132.494C152.819 134.578 150.555 135.874 148.758 134.818L131.369 124.602C130.545 124.118 130.039 123.234 130.039 122.278V113.623C130.039 111.561 132.259 110.263 134.056 111.273L151.445 121.055Z" fill="#D2EDF7"/>
<path d="M165.334 130.459C164.465 130.931 163.924 131.84 163.924 132.828V150.038L173.89 144.378V130.345C173.89 128.301 171.705 127 169.909 127.976L165.334 130.459Z" fill="#D2EDF7"/>
<path d="M167.341 117.271L157.944 112.431V121.828H167.341V117.271Z" fill="white"/>
<path d="M184.141 107.275L175.599 102.12L166.772 107.276L175.741 112.273L184.141 107.275Z" fill="#D2EDF7"/>
<path d="M184.141 107.275L175.741 112.273V118.695C178.731 120.119 183.002 118.126 184.141 113.57V107.275Z" fill="#D2EDF7"/>
<path d="M157.944 112.431L167.341 117.271L175.741 112.273L166.772 107.276L157.944 112.431Z" fill="white"/>
<path d="M167.341 117.271V121.828C169.05 124.96 174.175 123.821 175.741 118.695V112.273L167.341 117.271Z" fill="white"/>
<path d="M193.538 101.683L184.141 107.275V113.57C187.843 114.709 191.83 112.431 193.538 108.444V101.683Z" fill="white"/>
<path d="M193.538 101.683L184.996 96.6327L175.599 102.12L184.141 107.275L193.538 101.683Z" fill="white"/>
<path d="M193.538 101.683L201.796 96.7693L193.255 91.8306L184.996 96.6327L193.538 101.683Z" fill="#D2EDF7"/>
<path fill-rule="evenodd" clip-rule="evenodd" d="M163.924 150.038L157.944 153.435V121.828H167.341C169.05 124.96 174.175 123.821 175.741 118.695C178.731 120.119 183.002 118.126 184.141 113.57C187.843 114.709 191.83 112.431 193.538 108.444L193.538 131.649C193.538 132.618 193.017 133.514 192.174 133.993L173.89 144.378V130.345C173.89 128.301 171.705 127 169.909 127.976L165.334 130.459C164.465 130.931 163.924 131.84 163.924 132.828V150.038ZM193.255 91.8306L184.996 96.6327L175.599 102.12L166.772 107.276L157.944 112.431L124.913 92.7828L158.589 73.344C159.423 72.8623 160.452 72.8626 161.286 73.345L193.255 91.8306ZM159.938 77.691L137.717 90.4919C135.934 91.5188 135.913 94.0836 137.678 95.1405L139.447 96.1998L156.582 106.46C157.423 106.963 158.47 106.971 159.318 106.479L178.731 95.229L180.408 94.2571C182.199 93.2194 182.201 90.6346 180.411 89.5944L159.938 77.691ZM148.758 134.818C150.555 135.874 152.819 134.578 152.819 132.494V123.404C152.819 122.43 152.293 121.532 151.445 121.055L134.056 111.273C132.259 110.263 130.039 111.561 130.039 113.623V122.278C130.039 123.234 130.545 124.118 131.369 124.602L148.758 134.818Z" fill="white"/>
<path d="M201.796 96.7693L193.538 101.683V108.444C196.06 109.565 201.061 107.349 201.765 103.51C201.788 103.383 201.796 103.254 201.796 103.126L201.796 96.7693Z" fill="#D2EDF7"/>
<path d="M124.913 92.7828L157.944 112.431M124.913 92.7828V132.801M124.913 92.7828L158.589 73.344M157.944 153.435V121.828M157.944 153.435L163.924 150.038M157.944 153.435L126.26 135.135M157.944 112.431L167.341 117.271M157.944 112.431V121.828M157.944 112.431L166.772 107.276M201.796 96.7693L193.538 101.683M201.796 96.7693L193.255 91.8306M201.796 96.7693L201.796 103.126M201.796 96.7693L161.286 73.345M167.341 117.271V121.828M167.341 117.271L175.741 112.273M193.538 101.683L184.996 96.6327M193.538 101.683L184.141 107.275M193.538 101.683V108.444M167.341 121.828H157.944M167.341 121.828C169.05 124.96 174.175 123.821 175.741 118.695M163.924 150.038V132.828C163.924 131.84 164.465 130.931 165.334 130.459L169.909 127.976C171.705 127 173.89 128.301 173.89 130.345V144.378M163.924 150.038L173.89 144.378M173.89 144.378L192.174 133.993M193.255 91.8306L184.996 96.6327M193.255 91.8306L161.286 73.345M184.996 96.6327L175.599 102.12M184.141 107.275L175.599 102.12M184.141 107.275L175.741 112.273M184.141 107.275V113.57M175.599 102.12L166.772 107.276M175.741 112.273L166.772 107.276M175.741 112.273V118.695M175.741 118.695C178.731 120.119 183.002 118.126 184.141 113.57M184.141 113.57C187.843 114.709 191.83 112.431 193.538 108.444M193.538 108.444C196.06 109.565 201.061 107.349 201.765 103.51M193.538 108.444L193.538 131.649M159.938 77.691L137.717 90.4919C135.934 91.5188 135.913 94.0836 137.678 95.1405L139.447 96.1998M159.938 77.691L180.411 89.5944C182.201 90.6346 182.199 93.2194 180.408 94.2571L178.731 95.229M159.938 77.691V84.2403M159.938 84.2403L139.447 96.1998M159.938 84.2403L178.731 95.229M139.447 96.1998L156.582 106.46C157.423 106.963 158.47 106.971 159.318 106.479L178.731 95.229M166.772 138.343V141.191M124.913 132.801C124.913 133.763 125.427 134.653 126.26 135.135M124.913 132.801V132.801C124.913 133.763 125.427 134.653 126.26 135.135V135.135M158.589 73.344C159.423 72.8623 160.452 72.8626 161.286 73.345M158.589 73.344V73.344C159.423 72.8623 160.452 72.8626 161.286 73.345V73.345M201.796 103.126C201.796 103.254 201.788 103.383 201.765 103.51M201.796 103.126V103.126C201.796 103.254 201.788 103.383 201.765 103.51V103.51M193.538 131.649C193.538 132.618 193.017 133.514 192.174 133.993M193.538 131.649V131.649C193.538 132.618 193.017 133.514 192.174 133.993V133.993M189.267 127.946V124.114C189.267 122 186.944 120.709 185.148 121.825L180.004 125.023C179.212 125.515 178.731 126.381 178.731 127.312V130.866C178.731 132.932 180.96 134.23 182.757 133.21L187.902 130.291C188.746 129.812 189.267 128.916 189.267 127.946ZM130.039 122.278V113.623C130.039 111.561 132.259 110.263 134.056 111.273L151.445 121.055C152.293 121.532 152.819 122.43 152.819 123.404V132.494C152.819 134.578 150.555 135.874 148.758 134.818L131.369 124.602C130.545 124.118 130.039 123.234 130.039 122.278Z" stroke="#18282E" stroke-width="1.68478" stroke-linecap="round"/>
</g>
<circle cx="277" cy="167" r="46" fill="#79C9E8"/>
<g filter="url(#filter2_d_5405_38799)">
<path d="M266.812 197V159.745L265.694 156.212C265.614 155.96 265.452 155.743 265.233 155.595L264.42 155.045C264.226 154.913 263.997 154.843 263.763 154.843H256.054V169.941V173.863V177.98V179.264V191.318C256.054 191.965 256.579 192.49 257.226 192.49H262.908V192.49C263.281 192.49 263.632 192.668 263.853 192.969V192.969L266.812 197Z" fill="white"/>
<path d="M266.812 159.745L298.468 142.686H290.452V142.686C290.152 142.686 289.863 142.571 289.646 142.365V142.365L288.902 141.661V141.661C288.669 141.439 288.536 141.131 288.536 140.81V140.81V138.982C288.536 138.09 287.581 137.525 286.8 137.954L256.054 154.843H263.763C263.997 154.843 264.226 154.913 264.42 155.045L265.233 155.595C265.452 155.743 265.614 155.96 265.694 156.212L266.812 159.745Z" fill="#D2EDF7"/>
<path fill-rule="evenodd" clip-rule="evenodd" d="M297.045 180.462L266.812 197V159.745L298.468 142.686L297.655 179.46C297.646 179.879 297.413 180.261 297.045 180.462ZM290.452 142.686C290.152 142.686 289.863 142.571 289.646 142.365V142.365C289.863 142.571 290.152 142.686 290.452 142.686V142.686ZM288.902 141.661C288.669 141.439 288.536 141.131 288.536 140.81V140.81C288.536 141.131 288.669 141.439 288.902 141.661V141.661ZM262.908 192.49C263.281 192.49 263.632 192.668 263.853 192.969V192.969C263.632 192.668 263.281 192.49 262.908 192.49V192.49ZM286.331 156.737C285.843 157.2 285.843 157.977 286.331 158.439L287.709 159.745L289.087 158.439C289.575 157.977 289.575 157.2 289.087 156.737L288.515 156.196C288.063 155.767 287.355 155.767 286.902 156.196L286.331 156.737ZM277.914 161.835C278.402 162.298 278.402 163.075 277.914 163.537L276.33 165.039L274.745 163.537C274.257 163.075 274.257 162.298 274.745 161.835L275.523 161.098C275.975 160.669 276.684 160.669 277.136 161.098L277.914 161.835Z" fill="white"/>
<path d="M286.331 156.737C285.843 157.2 285.843 157.977 286.331 158.439L287.709 159.745L289.087 158.439C289.575 157.977 289.575 157.2 289.087 156.737L288.515 156.196C288.063 155.767 287.355 155.767 286.902 156.196L286.331 156.737Z" fill="#D2EDF7"/>
<path d="M276.33 165.039L277.914 163.537C278.402 163.075 278.402 162.298 277.914 161.835L277.136 161.098C276.684 160.669 275.975 160.669 275.523 161.098L274.745 161.835C274.257 162.298 274.257 163.075 274.745 163.537L276.33 165.039Z" fill="#D2EDF7"/>
<path d="M266.812 159.745V197M266.812 159.745L298.468 142.686M266.812 159.745L265.694 156.212C265.614 155.96 265.452 155.743 265.233 155.595L264.42 155.045C264.226 154.913 263.997 154.843 263.763 154.843H256.054M266.812 197L297.045 180.462M266.812 197L263.853 192.969M298.468 142.686H290.452M298.468 142.686L297.655 179.46M256.054 154.843V179.264M256.054 154.843V169.941V173.863V177.98M256.054 154.843L286.8 137.954M256.054 179.264V191.318M256.054 179.264V177.98M256.054 177.98V191.318M276.33 165.039V171.706C276.33 176.608 287.709 172.686 287.709 165.627V159.745M276.33 165.039L277.914 163.537C278.402 163.075 278.402 162.298 277.914 161.835L277.136 161.098C276.684 160.669 275.975 160.669 275.523 161.098L274.745 161.835C274.257 162.298 274.257 163.075 274.745 163.537L276.33 165.039ZM287.709 159.745L286.331 158.439C285.843 157.977 285.843 157.2 286.331 156.737L286.902 156.196C287.355 155.767 288.063 155.767 288.515 156.196L289.087 156.737C289.575 157.2 289.575 157.977 289.087 158.439L287.709 159.745ZM297.045 180.462C297.413 180.261 297.646 179.879 297.655 179.46M297.045 180.462V180.462C297.413 180.261 297.646 179.879 297.655 179.46V179.46M263.853 192.969C263.632 192.668 263.281 192.49 262.908 192.49M263.853 192.969V192.969C263.632 192.668 263.281 192.49 262.908 192.49V192.49M262.908 192.49H257.226M257.226 192.49C256.579 192.49 256.054 191.965 256.054 191.318M257.226 192.49V192.49C256.579 192.49 256.054 191.965 256.054 191.318V191.318M286.8 137.954C287.581 137.525 288.536 138.09 288.536 138.982M286.8 137.954V137.954C287.581 137.525 288.536 138.09 288.536 138.982V138.982M288.536 138.982V140.81M288.536 140.81C288.536 141.131 288.669 141.439 288.902 141.661M288.536 140.81V140.81C288.536 141.131 288.669 141.439 288.902 141.661V141.661M288.902 141.661L289.646 142.365M289.646 142.365C289.863 142.571 290.152 142.686 290.452 142.686M289.646 142.365V142.365C289.863 142.571 290.152 142.686 290.452 142.686V142.686" stroke="#18282E" stroke-width="1.25" stroke-linecap="round"/>
</g>
<defs>
<filter id="filter0_d_5405_38799" x="12.4287" y="128.654" width="76.7544" height="85.061" filterUnits="userSpaceOnUse" color-interpolation-filters="sRGB">
<feFlood flood-opacity="0" result="BackgroundImageFix"/>
<feColorMatrix in="SourceAlpha" type="matrix" values="0 0 0 0 0 0 0 0 0 0 0 0 0 0 0 0 0 0 127 0" result="hardAlpha"/>
<feOffset dy="4"/>
<feGaussianBlur stdDeviation="6"/>
<feComposite in2="hardAlpha" operator="out"/>
<feColorMatrix type="matrix" values="0 0 0 0 0 0 0 0 0 0 0 0 0 0 0 0 0 0 0.25 0"/>
<feBlend mode="normal" in2="BackgroundImageFix" result="effect1_dropShadow_5405_38799"/>
<feBlend mode="normal" in="SourceGraphic" in2="effect1_dropShadow_5405_38799" result="shape"/>
</filter>
<filter id="filter1_d_5405_38799" x="107.897" y="61.358" width="110.916" height="114.613" filterUnits="userSpaceOnUse" color-interpolation-filters="sRGB">
<feFlood flood-opacity="0" result="BackgroundImageFix"/>
<feColorMatrix in="SourceAlpha" type="matrix" values="0 0 0 0 0 0 0 0 0 0 0 0 0 0 0 0 0 0 127 0" result="hardAlpha"/>
<feOffset dy="5.3913"/>
<feGaussianBlur stdDeviation="8.08696"/>
<feComposite in2="hardAlpha" operator="out"/>
<feColorMatrix type="matrix" values="0 0 0 0 0 0 0 0 0 0 0 0 0 0 0 0 0 0 0.25 0"/>
<feBlend mode="normal" in2="BackgroundImageFix" result="effect1_dropShadow_5405_38799"/>
<feBlend mode="normal" in="SourceGraphic" in2="effect1_dropShadow_5405_38799" result="shape"/>
</filter>
<filter id="filter2_d_5405_38799" x="243.429" y="129.182" width="67.6777" height="84.6294" filterUnits="userSpaceOnUse" color-interpolation-filters="sRGB">
<feFlood flood-opacity="0" result="BackgroundImageFix"/>
<feColorMatrix in="SourceAlpha" type="matrix" values="0 0 0 0 0 0 0 0 0 0 0 0 0 0 0 0 0 0 127 0" result="hardAlpha"/>
<feOffset dy="4"/>
<feGaussianBlur stdDeviation="6"/>
<feComposite in2="hardAlpha" operator="out"/>
<feColorMatrix type="matrix" values="0 0 0 0 0 0 0 0 0 0 0 0 0 0 0 0 0 0 0.25 0"/>
<feBlend mode="normal" in2="BackgroundImageFix" result="effect1_dropShadow_5405_38799"/>
<feBlend mode="normal" in="SourceGraphic" in2="effect1_dropShadow_5405_38799" result="shape"/>
</filter>
</defs>
</svg>
