<svg width="304" height="302" viewBox="0 0 304 302" fill="none" xmlns="http://www.w3.org/2000/svg">
<path d="M66.6541 231.247C-16.7605 263.696 -23.9301 44.2902 57.9135 12.4532C139.757 -19.3839 110.092 99.6377 234.947 101.36C359.801 103.082 290.643 247.38 208.8 279.217C126.956 311.054 150.069 198.799 66.6541 231.247Z" fill="#BE9AEC"/>
<g filter="url(#filter0_d_5397_38551)">
<path d="M192.681 209.107L192.683 177.558C192.683 175.562 190.569 175.806 189.376 177.94L176.364 201.192L193.448 211.317C192.966 210.856 192.681 210.102 192.681 209.107Z" fill="#E9DDF9"/>
<path d="M183.89 44.8486L158.76 62.6187L194.193 83.6178L219.323 65.8477C219.931 65.4174 220.492 65.3484 220.886 65.5698L185.515 44.6086L185.427 44.5563C185.034 44.3525 184.485 44.4278 183.89 44.8486Z" fill="white"/>
<path d="M104.914 156.188L104.91 259.69C104.91 260.685 105.196 261.439 105.677 261.901C106.377 262.571 107.491 262.624 108.746 261.901L118.205 256.449C120.323 255.229 122.04 252.26 122.04 249.818L122.042 205.688L122.043 181.062C122.043 180.407 122.119 178.641 122.258 177.986C122.489 176.899 122.895 176.931 123.422 175.93C123.461 175.857 123.5 175.784 123.54 175.712C125.294 172.523 128.262 170.11 130.639 170.323C131.137 170.368 131.61 170.529 132.04 170.822L142.269 177.801L157.248 188.021L157.548 188.226C159.077 189.269 161.712 187.737 163.227 184.925L174.391 164.201L200.725 115.319L209.618 98.8101L214.967 101.405C216.112 101.96 217.97 100.111 218.169 98.217L221.441 67.1059C221.52 66.3596 221.307 65.831 220.923 65.5913L220.897 65.5758L220.886 65.5698C220.492 65.3484 219.931 65.4174 219.323 65.8477L194.193 83.6178C193.655 83.9987 193.216 84.5573 192.919 85.1547C192.386 86.2258 192.307 87.4213 192.919 87.9394L197.692 91.9819L188.906 108.314L174.393 135.291L163.203 156.089C162.621 157.172 161.872 158.065 161.084 158.695C159.834 159.694 158.486 160.031 157.545 159.409L157.249 159.215L153.906 157.007L142.441 149.437L137.395 146.105L127.974 139.884C127.342 139.467 126.49 139.471 125.577 139.884C125.442 139.945 125.305 140.015 125.168 140.095L108.75 149.556C107.804 150.102 106.938 150.995 106.269 152.035C105.575 153.115 105.093 154.351 104.955 155.519C104.928 155.745 104.914 155.968 104.914 156.188Z" fill="white"/>
<path d="M130.218 211.107L157.123 228.79C158.63 229.78 161.183 228.322 162.704 225.603L176.364 201.192L189.376 177.94C190.569 175.806 192.683 175.562 192.683 177.558L192.681 209.107C192.681 210.102 192.966 210.856 193.448 211.317C194.148 211.988 195.262 212.04 196.517 211.317L205.988 205.859C208.106 204.638 209.824 201.669 209.824 199.227L209.827 122.309C209.827 120.564 209.024 119.679 207.922 119.584C206.458 119.458 204.466 120.727 203.128 123.228L174.391 176.946L169.981 185.19L169.177 186.692C167.669 189.511 165.785 191.905 163.773 193.73C163.42 194.05 163.063 194.352 162.704 194.636C158.94 197.612 154.888 198.583 152.084 196.654L137.379 186.541L131.686 182.625C131.136 182.247 129.822 181.252 129.271 182.044C129.185 182.458 129.185 184.61 129.185 185.183L129.185 201.184L129.185 208.685C129.185 209.202 129.264 209.666 129.415 210.058C129.59 210.514 129.861 210.872 130.218 211.107Z" fill="white"/>
<path d="M163.227 184.925C161.712 187.737 159.077 189.269 157.548 188.226L157.248 188.021L142.269 177.801L132.04 170.822C131.61 170.529 131.137 170.368 130.639 170.323C128.262 170.11 125.294 172.523 123.54 175.712C123.5 175.784 123.461 175.857 123.422 175.93C122.895 176.931 122.489 176.899 122.258 177.986L129.271 182.044C129.822 181.252 131.136 182.247 131.686 182.625L137.379 186.541L152.084 196.654C154.888 198.583 158.94 197.612 162.704 194.636C163.063 194.352 163.42 194.05 163.773 193.73C165.785 191.905 167.669 189.511 169.177 186.692L169.981 185.19L174.391 176.946L203.128 123.228C204.466 120.727 206.458 119.458 207.922 119.584L200.725 115.319L174.391 164.201L163.227 184.925Z" fill="#E9DDF9"/>
<path d="M129.185 185.183C129.185 184.61 129.185 182.458 129.271 182.044L122.258 177.986C122.119 178.641 122.043 180.407 122.043 181.062L122.042 205.688L124.851 207.353L129.415 210.058C129.264 209.666 129.185 209.202 129.185 208.685L129.185 201.184L129.185 185.183Z" fill="#E9DDF9"/>
<path d="M69.4814 135.189C69.4808 150.61 69.4804 160.891 69.4799 173.833C69.4798 177.946 69.4796 182.327 69.4794 187.228L69.4789 199.71L69.4785 211.317L69.4775 238.691C69.4774 239.923 69.9144 240.785 70.6194 241.18L105.677 261.901C105.196 261.439 104.91 260.685 104.91 259.69L104.914 156.188C104.914 155.968 104.928 155.745 104.955 155.519C105.093 154.351 105.575 153.115 106.269 152.035L70.6194 131.39C69.9167 132.596 69.4814 133.959 69.4814 135.189Z" fill="#E9DDF9"/>
<path fill-rule="evenodd" clip-rule="evenodd" d="M73.3172 128.557L89.7353 119.095C90.7993 118.482 91.8156 118.406 92.5411 118.885L122.112 138.41C122.574 138.716 123.135 138.79 123.734 138.668L125.577 139.884C125.442 139.945 125.305 140.015 125.168 140.095L108.75 149.556C107.804 150.102 106.938 150.995 106.269 152.035L70.6194 131.39C71.3123 130.201 72.2653 129.163 73.3172 128.557Z" fill="white"/>
<path d="M162.259 70.9828L127.771 135.09C127.271 136.019 126.648 136.809 125.983 137.413C125.249 138.079 124.463 138.519 123.734 138.668L125.577 139.884C126.49 139.471 127.342 139.467 127.974 139.884L137.395 146.105L142.441 149.437L153.906 157.007L157.249 159.215L157.545 159.409C158.486 160.031 159.834 159.694 161.084 158.695C161.872 158.065 162.621 157.172 163.203 156.089L174.393 135.291L188.906 108.314L197.692 91.9819L162.259 70.9828Z" fill="#E9DDF9"/>
<path d="M157.486 66.9403L162.259 70.9828L197.692 91.9819L192.919 87.9394C192.307 87.4213 192.386 86.2258 192.919 85.1547C193.216 84.5573 193.655 83.9987 194.193 83.6178L158.76 62.6187C158.222 62.9996 157.783 63.5582 157.486 64.1555C156.953 65.2267 156.874 66.4222 157.486 66.9403Z" fill="white"/>
</g>
<path d="M192.681 209.107L192.683 177.558C192.683 175.562 190.569 175.806 189.376 177.94L176.364 201.192L193.448 211.317C192.966 210.856 192.681 210.102 192.681 209.107Z" fill="#E9DDF9"/>
<path d="M130.218 211.107L157.123 228.79C158.63 229.78 161.183 228.322 162.704 225.603L176.364 201.192L189.376 177.94C190.569 175.806 192.683 175.562 192.683 177.558L192.681 209.107C192.681 210.102 192.966 210.856 193.448 211.317C194.148 211.988 195.262 212.04 196.517 211.317L205.988 205.859C208.106 204.638 209.824 201.669 209.824 199.227L209.827 122.309C209.827 120.564 209.024 119.679 207.922 119.584C206.458 119.458 204.466 120.727 203.128 123.228L174.391 176.946L169.981 185.19L169.177 186.692C167.669 189.511 165.785 191.905 163.773 193.73C163.42 194.05 163.063 194.352 162.704 194.636C158.94 197.612 154.888 198.583 152.084 196.654L137.379 186.541L131.686 182.625C131.295 182.356 130.518 181.775 129.903 181.747C129.653 181.735 129.43 181.815 129.271 182.044C129.185 182.458 129.185 184.61 129.185 185.183L129.185 201.184L129.185 208.685C129.185 209.202 129.264 209.666 129.415 210.058C129.59 210.514 129.861 210.872 130.218 211.107Z" fill="white"/>
<path fill-rule="evenodd" clip-rule="evenodd" d="M73.3172 128.557L89.7353 119.095C90.7993 118.482 91.8156 118.406 92.5411 118.885L122.112 138.41C122.574 138.716 123.135 138.79 123.734 138.668L125.577 139.884C125.442 139.945 125.305 140.015 125.168 140.095L108.75 149.556C107.804 150.102 106.938 150.995 106.269 152.035L70.6194 131.39C71.3123 130.201 72.2653 129.163 73.3172 128.557Z" fill="white"/>
<path d="M153.943 156.94L153.906 157.007M157.248 188.108V188.021M157.486 66.9403L162.874 70.3248L127.771 135.09C127.271 136.019 126.648 136.809 125.983 137.413C125.249 138.079 124.463 138.519 123.734 138.668M157.486 66.9403C156.874 66.4222 156.953 65.2267 157.486 64.1555C157.783 63.5582 158.222 62.9996 158.76 62.6187L183.89 44.8486C184.485 44.4278 185.034 44.3525 185.427 44.5563M157.486 66.9403L192.919 89.1998M192.919 89.1998L197.692 91.9819L188.906 108.314L174.393 135.291L163.203 156.089C162.621 157.172 161.872 158.065 161.084 158.695C159.834 159.694 158.486 160.031 157.545 159.409L157.249 159.215L153.906 157.007M192.919 89.1998C192.307 88.6817 192.386 86.2258 192.919 85.1547C193.216 84.5573 193.655 83.9987 194.193 83.6178L219.323 65.8477C219.931 65.4173 220.492 65.3484 220.886 65.5698M105.677 261.901C105.196 261.439 104.91 260.685 104.91 259.69L104.914 156.188C104.914 155.968 104.928 155.745 104.955 155.519C105.093 154.351 105.575 153.115 106.269 152.035M105.677 261.901C106.377 262.571 107.491 262.624 108.746 261.901L118.205 256.449C120.323 255.229 122.04 252.26 122.04 249.818L122.042 205.688M105.677 261.901L70.6194 241.18C69.9144 240.785 69.4774 239.923 69.4775 238.691L69.4799 173.833C69.4804 160.891 69.4808 150.61 69.4814 135.189C69.4814 133.959 69.9167 132.597 70.6194 131.39M106.269 152.035C106.938 150.995 107.804 150.102 108.75 149.556L125.168 140.095C125.305 140.015 125.442 139.945 125.577 139.884M106.269 152.035L70.6194 131.39M70.6194 131.39C71.3123 130.201 72.2653 129.163 73.3172 128.557L89.7353 119.095C90.7993 118.482 91.8156 118.406 92.5411 118.885L122.112 138.41C122.574 138.716 123.135 138.79 123.734 138.668M129.415 210.058C129.264 209.666 129.185 209.202 129.185 208.685L129.185 201.184L129.185 185.183C129.185 184.61 129.185 182.458 129.271 182.044C129.43 181.815 129.653 181.735 129.903 181.747C130.518 181.775 131.295 182.356 131.686 182.625L137.379 186.541L152.084 196.654C154.888 198.583 158.94 197.612 162.704 194.636C163.063 194.352 163.42 194.05 163.773 193.73C165.785 191.905 167.669 189.511 169.177 186.692L169.981 185.19L174.391 176.946L203.128 123.228C204.466 120.727 206.458 119.458 207.922 119.584M129.415 210.058C129.59 210.514 129.861 210.872 130.218 211.107L157.123 228.79C158.63 229.78 161.183 228.322 162.704 225.603L176.364 201.192M129.415 210.058L124.851 207.353L122.042 205.688M122.042 205.688L122.043 181.062C122.043 180.407 122.119 178.641 122.258 177.986C122.884 173.528 128.262 170.11 130.639 170.323C131.137 170.368 131.61 170.529 132.04 170.822L142.269 177.801L157.248 188.021M220.923 65.5913C221.307 65.831 221.52 66.3596 221.441 67.1059L218.169 98.217C217.97 100.111 216.193 102.541 215.048 101.986L209.618 98.8101L200.725 115.319M220.923 65.5913L220.897 65.5758M220.923 65.5913C220.914 65.586 220.906 65.5808 220.897 65.5758M185.427 44.5563L185.515 44.6086M185.427 44.5563C185.457 44.5721 185.487 44.5895 185.515 44.6086M207.922 119.584C209.024 119.679 209.827 120.564 209.827 122.309L209.824 199.227C209.824 201.669 208.106 204.638 205.988 205.859L196.517 211.317C195.262 212.04 194.148 211.988 193.448 211.317M207.922 119.584L200.725 115.319M193.448 211.317C192.966 210.856 192.681 210.102 192.681 209.107L192.683 177.558C192.683 175.562 190.569 175.806 189.376 177.94L176.364 201.192M193.448 211.317L176.364 201.192M200.725 115.319L174.391 164.201L163.227 184.925C161.712 187.737 159.077 189.269 157.548 188.226L157.248 188.021M220.897 65.5758C220.893 65.5738 220.89 65.5718 220.886 65.5698M220.897 65.5758L220.886 65.5698M220.886 65.5698L185.515 44.6086M153.906 157.007L142.441 149.437L137.395 146.105L127.974 139.884C127.342 139.467 126.49 139.471 125.577 139.884M125.577 139.884L123.734 138.668" stroke="#18282E" stroke-width="3" stroke-linecap="round"/>
<defs>
<filter id="filter0_d_5397_38551" x="39.4775" y="18.4478" width="211.98" height="277.976" filterUnits="userSpaceOnUse" color-interpolation-filters="sRGB">
<feFlood flood-opacity="0" result="BackgroundImageFix"/>
<feColorMatrix in="SourceAlpha" type="matrix" values="0 0 0 0 0 0 0 0 0 0 0 0 0 0 0 0 0 0 127 0" result="hardAlpha"/>
<feOffset dy="4"/>
<feGaussianBlur stdDeviation="15"/>
<feComposite in2="hardAlpha" operator="out"/>
<feColorMatrix type="matrix" values="0 0 0 0 0 0 0 0 0 0 0 0 0 0 0 0 0 0 0.25 0"/>
<feBlend mode="normal" in2="BackgroundImageFix" result="effect1_dropShadow_5397_38551"/>
<feBlend mode="normal" in="SourceGraphic" in2="effect1_dropShadow_5397_38551" result="shape"/>
</filter>
</defs>
</svg>
