<svg width="156" height="222" viewBox="0 0 156 222" fill="none" xmlns="http://www.w3.org/2000/svg">
<path d="M125.204 166.659L125.205 135.11C125.205 133.114 123.092 133.358 121.898 135.492L108.887 158.745L125.97 168.869C125.489 168.408 125.204 167.654 125.204 166.659Z" fill="#E9DDF9"/>
<path d="M116.412 2.40082L91.2829 20.1709L126.716 41.1701L151.845 23.3999C152.454 22.9696 153.015 22.9007 153.409 23.1221L118.038 2.16087L117.949 2.10855C117.557 1.90479 117.007 1.98009 116.412 2.40082Z" fill="white"/>
<path d="M37.4369 113.74L37.433 217.243C37.4329 218.238 37.7181 218.992 38.1994 219.453C38.8991 220.124 40.0134 220.176 41.2684 219.453L50.7271 214.002C52.8455 212.781 54.5629 209.812 54.5629 207.37L54.5646 163.241L54.5655 138.614C54.5656 137.96 54.6411 136.194 54.7802 135.538C55.0111 134.451 55.4174 134.484 55.9449 133.482C55.9834 133.409 56.0225 133.336 56.0623 133.264C57.8162 130.075 60.7848 127.662 63.1614 127.876C63.6599 127.921 64.1325 128.081 64.5622 128.374L74.7919 135.354L89.7709 145.573L90.0708 145.778C91.5999 146.821 94.235 145.29 95.75 142.477L106.914 121.753L133.247 72.8708L142.14 56.3623L147.49 58.9573C148.635 59.5126 150.492 57.6628 150.691 55.7693L153.964 24.6582C154.042 23.9119 153.829 23.3832 153.445 23.1435L153.419 23.128L153.409 23.1221C153.015 22.9007 152.454 22.9696 151.845 23.3999L126.716 41.1701C126.177 41.5509 125.739 42.1096 125.442 42.7069C124.909 43.778 124.83 44.9736 125.442 45.4917L130.215 49.5341L121.428 65.8663L106.915 92.8431L95.726 113.641C95.1436 114.724 94.3947 115.617 93.6064 116.248C92.357 117.246 91.0086 117.583 90.0672 116.962L89.772 116.767L86.4281 114.559L74.9635 106.989L69.9174 103.657L60.4966 97.4363C59.8646 97.0191 59.0121 97.0231 58.0995 97.4363C57.9644 97.4975 57.828 97.5677 57.6907 97.6468L41.2727 107.109C40.3266 107.654 39.4606 108.548 38.7917 109.588C38.0974 110.667 37.6156 111.904 37.4775 113.071C37.4507 113.297 37.4369 113.521 37.4369 113.74Z" fill="white"/>
<path d="M62.7408 168.659L89.6458 186.342C91.1523 187.332 93.7053 185.875 95.2268 183.156L108.887 158.745L121.898 135.492C123.092 133.358 125.205 133.114 125.205 135.11L125.204 166.659C125.204 167.654 125.489 168.408 125.97 168.869C126.67 169.54 127.784 169.592 129.039 168.869L138.511 163.411C140.629 162.19 142.346 159.221 142.346 156.779L142.349 79.8608C142.349 78.1164 141.546 77.2313 140.445 77.1363C138.98 77.0101 136.988 78.2788 135.65 80.7801L106.913 134.499L102.503 142.743L101.7 144.245C100.192 147.064 98.3077 149.458 96.2951 151.282C95.9424 151.602 95.5859 151.904 95.2268 152.188C91.4621 155.164 87.4108 156.135 84.6067 154.207L69.9018 144.093L64.2084 140.177C63.6586 139.799 62.3445 138.804 61.7931 139.596C61.7071 140.01 61.7071 142.162 61.7071 142.736L61.7077 158.736L61.7079 166.237C61.7079 166.755 61.7868 167.218 61.9372 167.61C62.1121 168.066 62.3839 168.425 62.7408 168.659Z" fill="white"/>
<path d="M95.75 142.477C94.235 145.29 91.5999 146.821 90.0708 145.778L89.7709 145.573L74.7919 135.354L64.5622 128.374C64.1325 128.081 63.6599 127.921 63.1614 127.876C60.7848 127.662 57.8162 130.075 56.0623 133.264C56.0225 133.336 55.9834 133.409 55.9449 133.482C55.4174 134.484 55.0111 134.451 54.7802 135.538L61.7931 139.596C62.3445 138.804 63.6586 139.799 64.2084 140.177L69.9018 144.093L84.6067 154.207C87.4108 156.135 91.4621 155.164 95.2268 152.188C95.5859 151.904 95.9424 151.602 96.2951 151.282C98.3077 149.458 100.192 147.064 101.7 144.245L102.503 142.743L106.913 134.499L135.65 80.7801C136.988 78.2788 138.98 77.0101 140.445 77.1363L133.247 72.8708L106.914 121.753L95.75 142.477Z" fill="#E9DDF9"/>
<path d="M61.7071 142.736C61.7071 142.162 61.7071 140.01 61.7931 139.596L54.7802 135.538C54.6411 136.194 54.5656 137.96 54.5655 138.614L54.5646 163.241L57.3732 164.905L61.9372 167.61C61.7868 167.218 61.7079 166.755 61.7079 166.237L61.7077 158.736L61.7071 142.736Z" fill="#E9DDF9"/>
<path d="M2.00391 92.7408C2.00333 108.163 2.00294 118.443 2.00245 131.385C2.00229 135.498 2.00213 139.879 2.00194 144.78L2.00147 157.262L2.00103 168.869L2 196.243C1.99995 197.475 2.43689 198.337 3.14188 198.733L38.1994 219.453C37.7181 218.992 37.4329 218.238 37.433 217.243L37.4369 113.74C37.4369 113.521 37.4507 113.297 37.4775 113.071C37.6156 111.904 38.0974 110.667 38.7917 109.588L3.14188 88.9426C2.43927 90.1487 2.00395 91.5116 2.00391 92.7408Z" fill="#E9DDF9"/>
<path fill-rule="evenodd" clip-rule="evenodd" d="M5.83972 86.1095L22.2578 76.6476C23.3219 76.0344 24.3381 75.9582 25.0636 76.4372L54.6342 95.9626C55.0968 96.2681 55.6577 96.3421 56.2567 96.2198L58.0995 97.4363C57.9644 97.4975 57.828 97.5677 57.6907 97.6468L41.2727 107.109C40.3266 107.654 39.4606 108.548 38.7917 109.588L3.14188 88.9426C3.83486 87.7529 4.78785 86.7157 5.83972 86.1095Z" fill="white"/>
<path d="M94.7816 28.535L60.2931 92.6421C59.7932 93.5712 59.1707 94.3612 58.5059 94.9649C57.7717 95.6316 56.9859 96.0711 56.2567 96.2198L58.0995 97.4363C59.0121 97.0231 59.8646 97.0191 60.4966 97.4363L69.9174 103.657L74.9635 106.989L86.4281 114.559L89.772 116.767L90.0672 116.962C91.0086 117.583 92.357 117.246 93.6064 116.248C94.3947 115.617 95.1436 114.724 95.726 113.641L106.915 92.8431L121.428 65.8663L130.215 49.5341L94.7816 28.535Z" fill="#E9DDF9"/>
<path d="M90.0086 24.4925L94.7816 28.535L130.215 49.5341L125.442 45.4917C124.83 44.9736 124.909 43.778 125.442 42.7069C125.739 42.1096 126.177 41.5509 126.716 41.1701L91.2829 20.1709C90.7442 20.5518 90.3058 21.1105 90.0086 21.7078C89.4757 22.7789 89.3969 23.9745 90.0086 24.4925Z" fill="white"/>
<path d="M125.204 166.659L125.205 135.11C125.205 133.114 123.092 133.358 121.898 135.492L108.887 158.745L125.97 168.869C125.489 168.408 125.204 167.654 125.204 166.659Z" fill="#E9DDF9"/>
<path d="M62.7408 168.659L89.6458 186.342C91.1523 187.332 93.7053 185.875 95.2268 183.156L108.887 158.745L121.898 135.492C123.092 133.358 125.205 133.114 125.205 135.11L125.204 166.659C125.204 167.654 125.489 168.408 125.97 168.869C126.67 169.54 127.784 169.592 129.039 168.869L138.511 163.411C140.629 162.19 142.346 159.221 142.346 156.779L142.349 79.8608C142.349 78.1164 141.546 77.2313 140.445 77.1363C138.98 77.0101 136.988 78.2788 135.65 80.7801L106.913 134.499L102.503 142.743L101.7 144.245C100.192 147.064 98.3077 149.458 96.2951 151.282C95.9424 151.602 95.5859 151.904 95.2268 152.188C91.4621 155.164 87.4108 156.135 84.6067 154.207L69.9018 144.093L64.2084 140.177C63.8175 139.908 63.0404 139.328 62.4257 139.299C62.1757 139.287 61.9525 139.367 61.7931 139.596C61.7071 140.01 61.7071 142.162 61.7071 142.736L61.7077 158.736L61.7079 166.237C61.7079 166.755 61.7868 167.218 61.9372 167.61C62.1121 168.066 62.3839 168.425 62.7408 168.659Z" fill="white"/>
<path fill-rule="evenodd" clip-rule="evenodd" d="M5.83972 86.1095L22.2578 76.6476C23.3219 76.0344 24.3381 75.9582 25.0636 76.4372L54.6342 95.9626C55.0968 96.2681 55.6577 96.3421 56.2567 96.2198L58.0995 97.4363C57.9644 97.4975 57.828 97.5677 57.6907 97.6468L41.2727 107.109C40.3266 107.654 39.4606 108.548 38.7917 109.588L3.14188 88.9426C3.83486 87.7529 4.78785 86.7157 5.83972 86.1095Z" fill="white"/>
<path d="M86.4652 114.493L86.4281 114.559M89.7709 145.66V145.573M90.0086 24.4925L95.3961 27.877L60.2931 92.6421C59.7932 93.5712 59.1707 94.3612 58.5059 94.9649C57.7717 95.6316 56.9859 96.0711 56.2567 96.2198M90.0086 24.4925C89.3969 23.9745 89.4757 22.7789 90.0086 21.7078C90.3058 21.1105 90.7442 20.5518 91.2829 20.1709L116.412 2.40082C117.007 1.98009 117.557 1.90479 117.949 2.10855M90.0086 24.4925L125.442 46.752M125.442 46.752L130.215 49.5341L121.428 65.8663L106.915 92.8431L95.726 113.641C95.1436 114.724 94.3947 115.617 93.6064 116.248C92.357 117.246 91.0086 117.583 90.0672 116.962L89.772 116.767L86.4281 114.559M125.442 46.752C124.83 46.2339 124.909 43.778 125.442 42.7069C125.739 42.1096 126.177 41.5509 126.716 41.1701L151.845 23.3999C152.454 22.9696 153.015 22.9007 153.409 23.1221M38.1994 219.453C37.7181 218.992 37.4329 218.238 37.433 217.243L37.4369 113.74C37.4369 113.521 37.4507 113.297 37.4775 113.071C37.6156 111.904 38.0974 110.667 38.7917 109.588M38.1994 219.453C38.8991 220.124 40.0134 220.176 41.2684 219.453L50.7271 214.002C52.8455 212.781 54.5629 209.812 54.5629 207.37L54.5646 163.241M38.1994 219.453L3.14188 198.733C2.43689 198.337 1.99995 197.475 2 196.244L2.00245 131.385C2.00294 118.443 2.00333 108.163 2.00391 92.7408C2.00395 91.5116 2.43927 90.1487 3.14188 88.9426M38.7917 109.588C39.4606 108.548 40.3266 107.654 41.2727 107.109L57.6907 97.6468C57.828 97.5677 57.9644 97.4975 58.0995 97.4363M38.7917 109.588L3.14188 88.9426M3.14188 88.9426C3.83486 87.7529 4.78785 86.7157 5.83972 86.1095L22.2578 76.6476C23.3219 76.0344 24.3381 75.9582 25.0636 76.4372L54.6342 95.9626C55.0968 96.2681 55.6577 96.3421 56.2567 96.2198M61.9372 167.61C61.7868 167.218 61.7079 166.755 61.7079 166.237L61.7077 158.736L61.7071 142.736C61.7071 142.162 61.7071 140.01 61.7931 139.596C61.9525 139.367 62.1757 139.287 62.4257 139.299C63.0404 139.328 63.8175 139.908 64.2084 140.177L69.9018 144.093L84.6067 154.207C87.4108 156.135 91.4621 155.164 95.2268 152.188C95.5859 151.904 95.9424 151.602 96.2951 151.282C98.3077 149.458 100.192 147.064 101.7 144.245L102.503 142.743L106.913 134.499L135.65 80.7801C136.988 78.2788 138.98 77.0101 140.445 77.1363M61.9372 167.61C62.1121 168.066 62.3839 168.425 62.7408 168.659L89.6458 186.342C91.1523 187.332 93.7053 185.875 95.2268 183.156L108.887 158.745M61.9372 167.61L57.3732 164.905L54.5646 163.241M54.5646 163.241L54.5655 138.614C54.5656 137.96 54.6411 136.194 54.7802 135.538C55.4065 131.081 60.7848 127.662 63.1613 127.876C63.6599 127.921 64.1325 128.081 64.5622 128.374L74.7919 135.354L89.7709 145.573M153.445 23.1435C153.829 23.3832 154.042 23.9119 153.964 24.6582L150.691 55.7693C150.492 57.6628 148.716 60.0936 147.571 59.5383L142.14 56.3623L133.247 72.8708M153.445 23.1435L153.419 23.128M153.445 23.1435C153.437 23.1382 153.428 23.1331 153.419 23.128M117.949 2.10855L118.038 2.16087M117.949 2.10855C117.98 2.12432 118.009 2.14178 118.038 2.16087M140.445 77.1363C141.546 77.2313 142.349 78.1164 142.349 79.8608L142.346 156.779C142.346 159.221 140.629 162.19 138.511 163.411L129.039 168.869C127.784 169.592 126.67 169.54 125.97 168.869M140.445 77.1363L133.247 72.8708M125.97 168.869C125.489 168.408 125.204 167.654 125.204 166.659L125.205 135.11C125.205 133.114 123.092 133.358 121.898 135.492L108.887 158.745M125.97 168.869L108.887 158.745M133.247 72.8708L106.914 121.753L95.75 142.477C94.235 145.29 91.5999 146.821 90.0708 145.778L89.7709 145.573M153.419 23.128C153.416 23.126 153.412 23.124 153.409 23.1221M153.419 23.128L153.409 23.1221M153.409 23.1221L118.038 2.16087M86.4281 114.559L74.9635 106.989L69.9174 103.657L60.4966 97.4363C59.8646 97.0191 59.0121 97.0231 58.0995 97.4363M58.0995 97.4363L56.2567 96.2198" stroke="#18282E" stroke-width="3" stroke-linecap="round"/>
</svg>
